<?xml version="1.0" encoding="utf-8"?>
<svg viewBox="24.641 117.701 482.478 104.577" xmlns="http://www.w3.org/2000/svg">
  <g transform="matrix(1, 0, 0, 1, -7.738211, 0.243822)">
    <rect x="42.118" y="160.601" width="12.471" height="12.519" style="fill: rgb(216, 216, 216);"/>
    <path d="M 53.137 164.563 L 53.137 175.923 L 51.697 175.923 L 51.697 166.353 L 48.797 167.413 L 48.797 166.113 L 52.907 164.563 L 53.137 164.563 Z" transform="matrix(0.7628339529037476, 0, 0, 0.7212239503860474, 9.818943977355957, 43.943504333496094)" style="fill: rgb(51, 51, 51); white-space: pre;"/>
    <rect x="55.651" y="160.567" width="12.471" height="12.519" style="fill: rgb(216, 216, 216);"/>
    <path d="M 53.137 164.563 L 53.137 175.923 L 51.697 175.923 L 51.697 166.353 L 48.797 167.413 L 48.797 166.113 L 52.907 164.563 L 53.137 164.563 Z" transform="matrix(0.7628339529037476, 0, 0, 0.7212239503860474, 23.10720443725586, 44.03145980834961)" style="fill: rgb(51, 51, 51); white-space: pre;"/>
    <rect x="69.272" y="160.648" width="12.471" height="12.519" style="fill: rgb(216, 216, 216);"/>
    <path d="M 53.137 164.563 L 53.137 175.923 L 51.697 175.923 L 51.697 166.353 L 48.797 167.413 L 48.797 166.113 L 52.907 164.563 L 53.137 164.563 Z" transform="matrix(0.7628339529037476, 0, 0, 0.7212239503860474, 36.972530364990234, 43.99028778076172)" style="fill: rgb(51, 51, 51); white-space: pre;"/>
    <rect x="82.805" y="160.614" width="12.471" height="12.519" style="fill: rgb(216, 216, 216);"/>
    <path d="M 53.137 164.563 L 53.137 175.923 L 51.697 175.923 L 51.697 166.353 L 48.797 167.413 L 48.797 166.113 L 52.907 164.563 L 53.137 164.563 Z" transform="matrix(0.7628339529037476, 0, 0, 0.7212239503860474, 50.26079177856445, 44.078243255615234)" style="fill: rgb(51, 51, 51); white-space: pre;"/>
    <rect x="96.369" y="160.573" width="12.471" height="12.519" style="fill: rgb(216, 216, 216);"/>
    <path d="M 53.137 164.563 L 53.137 175.923 L 51.697 175.923 L 51.697 166.353 L 48.797 167.413 L 48.797 166.113 L 52.907 164.563 L 53.137 164.563 Z" transform="matrix(0.7628339529037476, 0, 0, 0.7212239503860474, 64.06993865966797, 43.915401458740234)" style="fill: rgb(51, 51, 51); white-space: pre;"/>
    <rect x="109.902" y="160.539" width="12.471" height="12.519" style="fill: rgb(216, 216, 216);"/>
    <path d="M 53.137 164.563 L 53.137 175.923 L 51.697 175.923 L 51.697 166.353 L 48.797 167.413 L 48.797 166.113 L 52.907 164.563 L 53.137 164.563 Z" transform="matrix(0.7628339529037476, 0, 0, 0.7212239503860474, 77.35820007324219, 44.00335693359375)" style="fill: rgb(51, 51, 51); white-space: pre;"/>
    <rect x="123.523" y="160.62" width="12.471" height="12.519" style="fill: rgb(216, 216, 216);"/>
    <path d="M 53.137 164.563 L 53.137 175.923 L 51.697 175.923 L 51.697 166.353 L 48.797 167.413 L 48.797 166.113 L 52.907 164.563 L 53.137 164.563 Z" transform="matrix(0.7628339529037476, 0, 0, 0.7212239503860474, 91.22351837158203, 43.96218490600586)" style="fill: rgb(51, 51, 51); white-space: pre;"/>
    <rect x="137.056" y="160.586" width="12.471" height="12.519" style="fill: rgb(216, 216, 216);"/>
    <path d="M 53.137 164.563 L 53.137 175.923 L 51.697 175.923 L 51.697 166.353 L 48.797 167.413 L 48.797 166.113 L 52.907 164.563 L 53.137 164.563 Z" transform="matrix(0.7628339529037476, 0, 0, 0.7212239503860474, 104.51178741455078, 44.050140380859375)" style="fill: rgb(51, 51, 51); white-space: pre;"/>
  </g>
  <g transform="matrix(1, 0, 0, 1, 103.614326, 0.326743)">
    <rect x="42.118" y="160.601" width="12.471" height="12.519" style="fill: rgb(216, 216, 216);"/>
    <path d="M 53.137 164.563 L 53.137 175.923 L 51.697 175.923 L 51.697 166.353 L 48.797 167.413 L 48.797 166.113 L 52.907 164.563 L 53.137 164.563 Z" transform="matrix(0.7628339529037476, 0, 0, 0.7212239503860474, 9.818943977355957, 43.943504333496094)" style="fill: rgb(51, 51, 51); white-space: pre;"/>
    <rect x="55.651" y="160.567" width="12.471" height="12.519" style="fill: rgb(216, 216, 216);"/>
    <path d="M 53.137 164.563 L 53.137 175.923 L 51.697 175.923 L 51.697 166.353 L 48.797 167.413 L 48.797 166.113 L 52.907 164.563 L 53.137 164.563 Z" transform="matrix(0.7628339529037476, 0, 0, 0.7212239503860474, 23.10720443725586, 44.03145980834961)" style="fill: rgb(51, 51, 51); white-space: pre;"/>
    <rect x="69.272" y="160.648" width="12.471" height="12.519" style="fill: rgb(216, 216, 216);"/>
    <path d="M 53.137 164.563 L 53.137 175.923 L 51.697 175.923 L 51.697 166.353 L 48.797 167.413 L 48.797 166.113 L 52.907 164.563 L 53.137 164.563 Z" transform="matrix(0.7628339529037476, 0, 0, 0.7212239503860474, 36.972530364990234, 43.99028778076172)" style="fill: rgb(51, 51, 51); white-space: pre;"/>
    <rect x="82.805" y="160.614" width="12.471" height="12.519" style="fill: rgb(216, 216, 216);"/>
    <path d="M 53.137 164.563 L 53.137 175.923 L 51.697 175.923 L 51.697 166.353 L 48.797 167.413 L 48.797 166.113 L 52.907 164.563 L 53.137 164.563 Z" transform="matrix(0.7628339529037476, 0, 0, 0.7212239503860474, 50.26079177856445, 44.078243255615234)" style="fill: rgb(51, 51, 51); white-space: pre;"/>
    <rect x="96.369" y="160.573" width="12.471" height="12.519" style="fill: rgb(216, 216, 216);"/>
    <path d="M 53.137 164.563 L 53.137 175.923 L 51.697 175.923 L 51.697 166.353 L 48.797 167.413 L 48.797 166.113 L 52.907 164.563 L 53.137 164.563 Z" transform="matrix(0.7628339529037476, 0, 0, 0.7212239503860474, 64.06993865966797, 43.915401458740234)" style="fill: rgb(51, 51, 51); white-space: pre;"/>
    <rect x="109.902" y="160.539" width="12.471" height="12.519" style="fill: rgb(216, 216, 216);"/>
    <path d="M 53.137 164.563 L 53.137 175.923 L 51.697 175.923 L 51.697 166.353 L 48.797 167.413 L 48.797 166.113 L 52.907 164.563 L 53.137 164.563 Z" transform="matrix(0.7628339529037476, 0, 0, 0.7212239503860474, 77.35820007324219, 44.00335693359375)" style="fill: rgb(51, 51, 51); white-space: pre;"/>
    <rect x="123.523" y="160.62" width="12.471" height="12.519" style="fill: rgb(216, 216, 216);"/>
    <path d="M 53.137 164.563 L 53.137 175.923 L 51.697 175.923 L 51.697 166.353 L 48.797 167.413 L 48.797 166.113 L 52.907 164.563 L 53.137 164.563 Z" transform="matrix(0.7628339529037476, 0, 0, 0.7212239503860474, 91.22351837158203, 43.96218490600586)" style="fill: rgb(51, 51, 51); white-space: pre;"/>
    <rect x="137.056" y="160.586" width="12.471" height="12.519" style="fill: rgb(216, 216, 216);"/>
    <path d="M 53.137 164.563 L 53.137 175.923 L 51.697 175.923 L 51.697 166.353 L 48.797 167.413 L 48.797 166.113 L 52.907 164.563 L 53.137 164.563 Z" transform="matrix(0.7628339529037476, 0, 0, 0.7212239503860474, 104.51178741455078, 44.050140380859375)" style="fill: rgb(51, 51, 51); white-space: pre;"/>
  </g>
  <g transform="matrix(1, 0, 0, 1, 214.479752, 0.377383)">
    <rect x="42.118" y="160.601" width="12.471" height="12.519" style="fill: rgb(216, 216, 216);"/>
    <path d="M 53.137 164.563 L 53.137 175.923 L 51.697 175.923 L 51.697 166.353 L 48.797 167.413 L 48.797 166.113 L 52.907 164.563 L 53.137 164.563 Z" transform="matrix(0.7628339529037476, 0, 0, 0.7212239503860474, 9.818943977355957, 43.943504333496094)" style="fill: rgb(51, 51, 51); white-space: pre;"/>
    <rect x="55.651" y="160.567" width="12.471" height="12.519" style="fill: rgb(216, 216, 216);"/>
    <path d="M 53.137 164.563 L 53.137 175.923 L 51.697 175.923 L 51.697 166.353 L 48.797 167.413 L 48.797 166.113 L 52.907 164.563 L 53.137 164.563 Z" transform="matrix(0.7628339529037476, 0, 0, 0.7212239503860474, 23.10720443725586, 44.03145980834961)" style="fill: rgb(51, 51, 51); white-space: pre;"/>
    <rect x="69.272" y="160.648" width="12.471" height="12.519" style="fill: rgb(216, 216, 216);"/>
    <path d="M 53.137 164.563 L 53.137 175.923 L 51.697 175.923 L 51.697 166.353 L 48.797 167.413 L 48.797 166.113 L 52.907 164.563 L 53.137 164.563 Z" transform="matrix(0.7628339529037476, 0, 0, 0.7212239503860474, 36.972530364990234, 43.99028778076172)" style="fill: rgb(51, 51, 51); white-space: pre;"/>
    <rect x="82.805" y="160.614" width="12.471" height="12.519" style="fill: rgb(216, 216, 216);"/>
    <path d="M 53.137 164.563 L 53.137 175.923 L 51.697 175.923 L 51.697 166.353 L 48.797 167.413 L 48.797 166.113 L 52.907 164.563 L 53.137 164.563 Z" transform="matrix(0.7628339529037476, 0, 0, 0.7212239503860474, 50.26079177856445, 44.078243255615234)" style="fill: rgb(51, 51, 51); white-space: pre;"/>
    <rect x="96.369" y="160.573" width="12.471" height="12.519" style="fill: rgb(216, 216, 216);"/>
    <path d="M 53.137 164.563 L 53.137 175.923 L 51.697 175.923 L 51.697 166.353 L 48.797 167.413 L 48.797 166.113 L 52.907 164.563 L 53.137 164.563 Z" transform="matrix(0.7628339529037476, 0, 0, 0.7212239503860474, 64.06993865966797, 43.915401458740234)" style="fill: rgb(51, 51, 51); white-space: pre;"/>
    <rect x="109.902" y="160.539" width="12.471" height="12.519" style="fill: rgb(216, 216, 216);"/>
    <path d="M 53.137 164.563 L 53.137 175.923 L 51.697 175.923 L 51.697 166.353 L 48.797 167.413 L 48.797 166.113 L 52.907 164.563 L 53.137 164.563 Z" transform="matrix(0.7628339529037476, 0, 0, 0.7212239503860474, 77.35820007324219, 44.00335693359375)" style="fill: rgb(51, 51, 51); white-space: pre;"/>
    <rect x="123.523" y="160.62" width="12.471" height="12.519" style="fill: rgb(216, 216, 216);"/>
    <path d="M 53.137 164.563 L 53.137 175.923 L 51.697 175.923 L 51.697 166.353 L 48.797 167.413 L 48.797 166.113 L 52.907 164.563 L 53.137 164.563 Z" transform="matrix(0.7628339529037476, 0, 0, 0.7212239503860474, 91.22351837158203, 43.96218490600586)" style="fill: rgb(51, 51, 51); white-space: pre;"/>
    <rect x="137.056" y="160.586" width="12.471" height="12.519" style="fill: rgb(216, 216, 216);"/>
    <path d="M 53.137 164.563 L 53.137 175.923 L 51.697 175.923 L 51.697 166.353 L 48.797 167.413 L 48.797 166.113 L 52.907 164.563 L 53.137 164.563 Z" transform="matrix(0.7628339529037476, 0, 0, 0.7212239503860474, 104.51178741455078, 44.050140380859375)" style="fill: rgb(51, 51, 51); white-space: pre;"/>
  </g>
  <g transform="matrix(1, 0, 0, 1, 325.642822, 0.390591)">
    <rect x="42.118" y="160.601" width="12.471" height="12.519" style="fill: rgb(216, 216, 216);"/>
    <path d="M 53.137 164.563 L 53.137 175.923 L 51.697 175.923 L 51.697 166.353 L 48.797 167.413 L 48.797 166.113 L 52.907 164.563 L 53.137 164.563 Z" transform="matrix(0.7628339529037476, 0, 0, 0.7212239503860474, 9.818943977355957, 43.943504333496094)" style="fill: rgb(51, 51, 51); white-space: pre;"/>
    <rect x="55.651" y="160.567" width="12.471" height="12.519" style="fill: rgb(216, 216, 216);"/>
    <path d="M 53.137 164.563 L 53.137 175.923 L 51.697 175.923 L 51.697 166.353 L 48.797 167.413 L 48.797 166.113 L 52.907 164.563 L 53.137 164.563 Z" transform="matrix(0.7628339529037476, 0, 0, 0.7212239503860474, 23.10720443725586, 44.03145980834961)" style="fill: rgb(51, 51, 51); white-space: pre;"/>
    <rect x="69.272" y="160.648" width="12.471" height="12.519" style="fill: rgb(216, 216, 216);"/>
    <path d="M 53.137 164.563 L 53.137 175.923 L 51.697 175.923 L 51.697 166.353 L 48.797 167.413 L 48.797 166.113 L 52.907 164.563 L 53.137 164.563 Z" transform="matrix(0.7628339529037476, 0, 0, 0.7212239503860474, 36.972530364990234, 43.99028778076172)" style="fill: rgb(51, 51, 51); white-space: pre;"/>
    <rect x="82.805" y="160.614" width="12.471" height="12.519" style="fill: rgb(216, 216, 216);"/>
    <path d="M 53.137 164.563 L 53.137 175.923 L 51.697 175.923 L 51.697 166.353 L 48.797 167.413 L 48.797 166.113 L 52.907 164.563 L 53.137 164.563 Z" transform="matrix(0.7628339529037476, 0, 0, 0.7212239503860474, 50.26079177856445, 44.078243255615234)" style="fill: rgb(51, 51, 51); white-space: pre;"/>
    <rect x="96.369" y="160.573" width="12.471" height="12.519" style="fill: rgb(216, 216, 216);"/>
    <path d="M 53.137 164.563 L 53.137 175.923 L 51.697 175.923 L 51.697 166.353 L 48.797 167.413 L 48.797 166.113 L 52.907 164.563 L 53.137 164.563 Z" transform="matrix(0.7628339529037476, 0, 0, 0.7212239503860474, 64.06993865966797, 43.915401458740234)" style="fill: rgb(51, 51, 51); white-space: pre;"/>
    <rect x="109.902" y="160.539" width="12.471" height="12.519" style="fill: rgb(216, 216, 216);"/>
    <path d="M 53.137 164.563 L 53.137 175.923 L 51.697 175.923 L 51.697 166.353 L 48.797 167.413 L 48.797 166.113 L 52.907 164.563 L 53.137 164.563 Z" transform="matrix(0.7628339529037476, 0, 0, 0.7212239503860474, 77.35820007324219, 44.00335693359375)" style="fill: rgb(51, 51, 51); white-space: pre;"/>
    <rect x="123.523" y="160.62" width="12.471" height="12.519" style="fill: rgb(216, 216, 216);"/>
    <path d="M 53.137 164.563 L 53.137 175.923 L 51.697 175.923 L 51.697 166.353 L 48.797 167.413 L 48.797 166.113 L 52.907 164.563 L 53.137 164.563 Z" transform="matrix(0.7628339529037476, 0, 0, 0.7212239503860474, 91.22351837158203, 43.96218490600586)" style="fill: rgb(51, 51, 51); white-space: pre;"/>
    <rect x="137.056" y="160.586" width="12.471" height="12.519" style="fill: rgb(216, 216, 216);"/>
    <path d="M 53.137 164.563 L 53.137 175.923 L 51.697 175.923 L 51.697 166.353 L 48.797 167.413 L 48.797 166.113 L 52.907 164.563 L 53.137 164.563 Z" transform="matrix(0.7628339529037476, 0, 0, 0.7212239503860474, 104.51178741455078, 44.050140380859375)" style="fill: rgb(51, 51, 51); white-space: pre;"/>
  </g>
  <path d="M 76.955 142.11 L 76.955 143.06 L 70.945 143.06 L 70.945 142.22 L 74.125 138.69 C 74.592 138.157 74.915 137.723 75.095 137.39 C 75.275 137.057 75.365 136.713 75.365 136.36 C 75.365 135.88 75.218 135.487 74.925 135.18 C 74.638 134.873 74.252 134.72 73.765 134.72 C 73.185 134.72 72.735 134.883 72.415 135.21 C 72.095 135.543 71.935 136.003 71.935 136.59 L 70.775 136.59 C 70.775 135.75 71.045 135.067 71.585 134.54 C 72.132 134.02 72.858 133.76 73.765 133.76 C 74.618 133.76 75.295 133.983 75.795 134.43 C 76.288 134.877 76.535 135.473 76.535 136.22 C 76.535 137.12 75.958 138.193 74.805 139.44 L 72.355 142.11 L 76.955 142.11 ZM 84.197 142.11 L 84.197 143.06 L 78.187 143.06 L 78.187 142.22 L 81.367 138.69 C 81.834 138.157 82.157 137.723 82.337 137.39 C 82.517 137.057 82.607 136.713 82.607 136.36 C 82.607 135.88 82.461 135.487 82.167 135.18 C 81.881 134.873 81.494 134.72 81.007 134.72 C 80.427 134.72 79.977 134.883 79.657 135.21 C 79.337 135.543 79.177 136.003 79.177 136.59 L 78.017 136.59 C 78.017 135.75 78.287 135.067 78.827 134.54 C 79.374 134.02 80.101 133.76 81.007 133.76 C 81.861 133.76 82.537 133.983 83.037 134.43 C 83.531 134.877 83.777 135.473 83.777 136.22 C 83.777 137.12 83.201 138.193 82.047 139.44 L 79.597 142.11 L 84.197 142.11 ZM 86.899 138.7 L 85.969 138.46 L 86.429 133.89 L 91.129 133.89 L 91.129 134.97 L 87.419 134.97 L 87.149 137.47 C 87.596 137.203 88.106 137.07 88.679 137.07 C 89.513 137.07 90.176 137.347 90.669 137.9 C 91.156 138.453 91.399 139.2 91.399 140.14 C 91.399 141.08 91.146 141.823 90.639 142.37 C 90.126 142.917 89.413 143.19 88.499 143.19 C 87.686 143.19 87.026 142.963 86.519 142.51 C 86.006 142.063 85.713 141.443 85.639 140.65 L 86.739 140.65 C 86.813 141.17 86.999 141.563 87.299 141.83 C 87.606 142.097 88.006 142.23 88.499 142.23 C 89.039 142.23 89.466 142.047 89.779 141.68 C 90.086 141.313 90.239 140.803 90.239 140.15 C 90.239 139.537 90.073 139.043 89.739 138.67 C 89.406 138.303 88.963 138.12 88.409 138.12 C 87.896 138.12 87.496 138.23 87.209 138.45 L 86.899 138.7 Z" transform="matrix(1.6310880184173584, 0, 0, 1.882077932357788, -42.65547180175781, -119.06121826171875)" style="fill: rgb(118, 118, 118); white-space: pre;"/>
  <path d="M 139.421 136.158 L 139.421 135.208 L 140.291 135.208 C 140.844 135.195 141.278 135.048 141.591 134.768 C 141.904 134.488 142.061 134.108 142.061 133.628 C 142.061 132.555 141.528 132.018 140.461 132.018 C 139.954 132.018 139.551 132.161 139.251 132.448 C 138.951 132.735 138.801 133.118 138.801 133.598 L 137.631 133.598 C 137.631 132.871 137.898 132.265 138.431 131.778 C 138.964 131.298 139.641 131.058 140.461 131.058 C 141.321 131.058 141.998 131.288 142.491 131.748 C 142.984 132.208 143.231 132.845 143.231 133.658 C 143.231 134.058 143.101 134.445 142.841 134.818 C 142.581 135.191 142.228 135.468 141.781 135.648 C 142.288 135.808 142.678 136.075 142.951 136.448 C 143.231 136.815 143.371 137.265 143.371 137.798 C 143.371 138.625 143.101 139.278 142.561 139.758 C 142.021 140.245 141.321 140.488 140.461 140.488 C 139.601 140.488 138.901 140.255 138.361 139.788 C 137.821 139.321 137.551 138.705 137.551 137.938 L 138.721 137.938 C 138.721 138.425 138.881 138.811 139.201 139.098 C 139.514 139.385 139.934 139.528 140.461 139.528 C 141.028 139.528 141.458 139.381 141.751 139.088 C 142.051 138.795 142.201 138.375 142.201 137.828 C 142.201 137.295 142.038 136.885 141.711 136.598 C 141.384 136.311 140.911 136.165 140.291 136.158 L 139.421 136.158 ZM 150.973 139.408 L 150.973 140.358 L 144.963 140.358 L 144.963 139.518 L 148.143 135.988 C 148.61 135.455 148.933 135.021 149.113 134.688 C 149.293 134.355 149.383 134.011 149.383 133.658 C 149.383 133.178 149.237 132.785 148.943 132.478 C 148.657 132.171 148.27 132.018 147.783 132.018 C 147.203 132.018 146.753 132.181 146.433 132.508 C 146.113 132.841 145.953 133.301 145.953 133.888 L 144.793 133.888 C 144.793 133.048 145.063 132.365 145.603 131.838 C 146.15 131.318 146.877 131.058 147.783 131.058 C 148.637 131.058 149.313 131.281 149.813 131.728 C 150.307 132.175 150.553 132.771 150.553 133.518 C 150.553 134.418 149.977 135.491 148.823 136.738 L 146.373 139.408 L 150.973 139.408 Z" transform="matrix(1.6310880184173584, 0, 0, 1.882077932357788, 231.93260192871094, -113.50537872314453)" style="fill: rgb(118, 118, 118); white-space: pre;"/>
  <path d="M 76.955 142.11 L 76.955 143.06 L 70.945 143.06 L 70.945 142.22 L 74.125 138.69 C 74.592 138.157 74.915 137.723 75.095 137.39 C 75.275 137.057 75.365 136.713 75.365 136.36 C 75.365 135.88 75.218 135.487 74.925 135.18 C 74.638 134.873 74.252 134.72 73.765 134.72 C 73.185 134.72 72.735 134.883 72.415 135.21 C 72.095 135.543 71.935 136.003 71.935 136.59 L 70.775 136.59 C 70.775 135.75 71.045 135.067 71.585 134.54 C 72.132 134.02 72.858 133.76 73.765 133.76 C 74.618 133.76 75.295 133.983 75.795 134.43 C 76.288 134.877 76.535 135.473 76.535 136.22 C 76.535 137.12 75.958 138.193 74.805 139.44 L 72.355 142.11 L 76.955 142.11 ZM 84.197 142.11 L 84.197 143.06 L 78.187 143.06 L 78.187 142.22 L 81.367 138.69 C 81.834 138.157 82.157 137.723 82.337 137.39 C 82.517 137.057 82.607 136.713 82.607 136.36 C 82.607 135.88 82.461 135.487 82.167 135.18 C 81.881 134.873 81.494 134.72 81.007 134.72 C 80.427 134.72 79.977 134.883 79.657 135.21 C 79.337 135.543 79.177 136.003 79.177 136.59 L 78.017 136.59 C 78.017 135.75 78.287 135.067 78.827 134.54 C 79.374 134.02 80.101 133.76 81.007 133.76 C 81.861 133.76 82.537 133.983 83.037 134.43 C 83.531 134.877 83.777 135.473 83.777 136.22 C 83.777 137.12 83.201 138.193 82.047 139.44 L 79.597 142.11 L 84.197 142.11 ZM 86.899 138.7 L 85.969 138.46 L 86.429 133.89 L 91.129 133.89 L 91.129 134.97 L 87.419 134.97 L 87.149 137.47 C 87.596 137.203 88.106 137.07 88.679 137.07 C 89.513 137.07 90.176 137.347 90.669 137.9 C 91.156 138.453 91.399 139.2 91.399 140.14 C 91.399 141.08 91.146 141.823 90.639 142.37 C 90.126 142.917 89.413 143.19 88.499 143.19 C 87.686 143.19 87.026 142.963 86.519 142.51 C 86.006 142.063 85.713 141.443 85.639 140.65 L 86.739 140.65 C 86.813 141.17 86.999 141.563 87.299 141.83 C 87.606 142.097 88.006 142.23 88.499 142.23 C 89.039 142.23 89.466 142.047 89.779 141.68 C 90.086 141.313 90.239 140.803 90.239 140.15 C 90.239 139.537 90.073 139.043 89.739 138.67 C 89.406 138.303 88.963 138.12 88.409 138.12 C 87.896 138.12 87.496 138.23 87.209 138.45 L 86.899 138.7 Z" transform="matrix(1.6310880184173584, 0, 0, 1.882077932357788, 67.83063507080078, -119.44015502929688)" style="fill: rgb(118, 118, 118); white-space: pre;"/>
  <path d="M 76.955 142.11 L 76.955 143.06 L 70.945 143.06 L 70.945 142.22 L 74.125 138.69 C 74.592 138.157 74.915 137.723 75.095 137.39 C 75.275 137.057 75.365 136.713 75.365 136.36 C 75.365 135.88 75.218 135.487 74.925 135.18 C 74.638 134.873 74.252 134.72 73.765 134.72 C 73.185 134.72 72.735 134.883 72.415 135.21 C 72.095 135.543 71.935 136.003 71.935 136.59 L 70.775 136.59 C 70.775 135.75 71.045 135.067 71.585 134.54 C 72.132 134.02 72.858 133.76 73.765 133.76 C 74.618 133.76 75.295 133.983 75.795 134.43 C 76.288 134.877 76.535 135.473 76.535 136.22 C 76.535 137.12 75.958 138.193 74.805 139.44 L 72.355 142.11 L 76.955 142.11 ZM 84.197 142.11 L 84.197 143.06 L 78.187 143.06 L 78.187 142.22 L 81.367 138.69 C 81.834 138.157 82.157 137.723 82.337 137.39 C 82.517 137.057 82.607 136.713 82.607 136.36 C 82.607 135.88 82.461 135.487 82.167 135.18 C 81.881 134.873 81.494 134.72 81.007 134.72 C 80.427 134.72 79.977 134.883 79.657 135.21 C 79.337 135.543 79.177 136.003 79.177 136.59 L 78.017 136.59 C 78.017 135.75 78.287 135.067 78.827 134.54 C 79.374 134.02 80.101 133.76 81.007 133.76 C 81.861 133.76 82.537 133.983 83.037 134.43 C 83.531 134.877 83.777 135.473 83.777 136.22 C 83.777 137.12 83.201 138.193 82.047 139.44 L 79.597 142.11 L 84.197 142.11 ZM 86.899 138.7 L 85.969 138.46 L 86.429 133.89 L 91.129 133.89 L 91.129 134.97 L 87.419 134.97 L 87.149 137.47 C 87.596 137.203 88.106 137.07 88.679 137.07 C 89.513 137.07 90.176 137.347 90.669 137.9 C 91.156 138.453 91.399 139.2 91.399 140.14 C 91.399 141.08 91.146 141.823 90.639 142.37 C 90.126 142.917 89.413 143.19 88.499 143.19 C 87.686 143.19 87.026 142.963 86.519 142.51 C 86.006 142.063 85.713 141.443 85.639 140.65 L 86.739 140.65 C 86.813 141.17 86.999 141.563 87.299 141.83 C 87.606 142.097 88.006 142.23 88.499 142.23 C 89.039 142.23 89.466 142.047 89.779 141.68 C 90.086 141.313 90.239 140.803 90.239 140.15 C 90.239 139.537 90.073 139.043 89.739 138.67 C 89.406 138.303 88.963 138.12 88.409 138.12 C 87.896 138.12 87.496 138.23 87.209 138.45 L 86.899 138.7 Z" transform="matrix(1.6310880184173584, 0, 0, 1.882077932357788, 177.98028564453125, -118.78230285644531)" style="fill: rgb(118, 118, 118); white-space: pre;"/>
  <path d="M 76.955 142.11 L 76.955 143.06 L 70.945 143.06 L 70.945 142.22 L 74.125 138.69 C 74.592 138.157 74.915 137.723 75.095 137.39 C 75.275 137.057 75.365 136.713 75.365 136.36 C 75.365 135.88 75.218 135.487 74.925 135.18 C 74.638 134.873 74.252 134.72 73.765 134.72 C 73.185 134.72 72.735 134.883 72.415 135.21 C 72.095 135.543 71.935 136.003 71.935 136.59 L 70.775 136.59 C 70.775 135.75 71.045 135.067 71.585 134.54 C 72.132 134.02 72.858 133.76 73.765 133.76 C 74.618 133.76 75.295 133.983 75.795 134.43 C 76.288 134.877 76.535 135.473 76.535 136.22 C 76.535 137.12 75.958 138.193 74.805 139.44 L 72.355 142.11 L 76.955 142.11 ZM 84.197 142.11 L 84.197 143.06 L 78.187 143.06 L 78.187 142.22 L 81.367 138.69 C 81.834 138.157 82.157 137.723 82.337 137.39 C 82.517 137.057 82.607 136.713 82.607 136.36 C 82.607 135.88 82.461 135.487 82.167 135.18 C 81.881 134.873 81.494 134.72 81.007 134.72 C 80.427 134.72 79.977 134.883 79.657 135.21 C 79.337 135.543 79.177 136.003 79.177 136.59 L 78.017 136.59 C 78.017 135.75 78.287 135.067 78.827 134.54 C 79.374 134.02 80.101 133.76 81.007 133.76 C 81.861 133.76 82.537 133.983 83.037 134.43 C 83.531 134.877 83.777 135.473 83.777 136.22 C 83.777 137.12 83.201 138.193 82.047 139.44 L 79.597 142.11 L 84.197 142.11 ZM 86.899 138.7 L 85.969 138.46 L 86.429 133.89 L 91.129 133.89 L 91.129 134.97 L 87.419 134.97 L 87.149 137.47 C 87.596 137.203 88.106 137.07 88.679 137.07 C 89.513 137.07 90.176 137.347 90.669 137.9 C 91.156 138.453 91.399 139.2 91.399 140.14 C 91.399 141.08 91.146 141.823 90.639 142.37 C 90.126 142.917 89.413 143.19 88.499 143.19 C 87.686 143.19 87.026 142.963 86.519 142.51 C 86.006 142.063 85.713 141.443 85.639 140.65 L 86.739 140.65 C 86.813 141.17 86.999 141.563 87.299 141.83 C 87.606 142.097 88.006 142.23 88.499 142.23 C 89.039 142.23 89.466 142.047 89.779 141.68 C 90.086 141.313 90.239 140.803 90.239 140.15 C 90.239 139.537 90.073 139.043 89.739 138.67 C 89.406 138.303 88.963 138.12 88.409 138.12 C 87.896 138.12 87.496 138.23 87.209 138.45 L 86.899 138.7 Z" transform="matrix(1.6310880184173584, 0, 0, 1.882077932357788, 289.3199768066406, -118.44092559814453)" style="fill: rgb(118, 118, 118); white-space: pre;"/>
  <path d="M 206.329 77.722 L 205.279 77.722 L 209.109 67.762 L 210.159 67.762 L 206.329 77.722 Z" transform="matrix(2.677110195159912, 0, 0, 1.7260079383850098, -109.12167358398438, 16.812501907348633)" style="fill: rgb(118, 118, 118); white-space: pre;"/>
  <circle style="fill: rgb(118, 118, 118);" cx="143.639" cy="147.71" r="3.474"/>
  <circle style="fill: rgb(118, 118, 118);" cx="255.597" cy="147.716" r="3.474"/>
  <circle style="fill: rgb(118, 118, 118);" cx="365.95" cy="148.056" r="3.474"/>
  <path style="fill: rgba(118, 118, 118, 0); paint-order: fill; stroke: rgb(118, 118, 118);" d="M 34.657 179.235 C 35.456 197.882 476.316 198.885 475.502 179.898"/>
  <path d="M 139.421 136.158 L 139.421 135.208 L 140.291 135.208 C 140.844 135.195 141.278 135.048 141.591 134.768 C 141.904 134.488 142.061 134.108 142.061 133.628 C 142.061 132.555 141.528 132.018 140.461 132.018 C 139.954 132.018 139.551 132.161 139.251 132.448 C 138.951 132.735 138.801 133.118 138.801 133.598 L 137.631 133.598 C 137.631 132.871 137.898 132.265 138.431 131.778 C 138.964 131.298 139.641 131.058 140.461 131.058 C 141.321 131.058 141.998 131.288 142.491 131.748 C 142.984 132.208 143.231 132.845 143.231 133.658 C 143.231 134.058 143.101 134.445 142.841 134.818 C 142.581 135.191 142.228 135.468 141.781 135.648 C 142.288 135.808 142.678 136.075 142.951 136.448 C 143.231 136.815 143.371 137.265 143.371 137.798 C 143.371 138.625 143.101 139.278 142.561 139.758 C 142.021 140.245 141.321 140.488 140.461 140.488 C 139.601 140.488 138.901 140.255 138.361 139.788 C 137.821 139.321 137.551 138.705 137.551 137.938 L 138.721 137.938 C 138.721 138.425 138.881 138.811 139.201 139.098 C 139.514 139.385 139.934 139.528 140.461 139.528 C 141.028 139.528 141.458 139.381 141.751 139.088 C 142.051 138.795 142.201 138.375 142.201 137.828 C 142.201 137.295 142.038 136.885 141.711 136.598 C 141.384 136.311 140.911 136.165 140.291 136.158 L 139.421 136.158 ZM 150.973 139.408 L 150.973 140.358 L 144.963 140.358 L 144.963 139.518 L 148.143 135.988 C 148.61 135.455 148.933 135.021 149.113 134.688 C 149.293 134.355 149.383 134.011 149.383 133.658 C 149.383 133.178 149.237 132.785 148.943 132.478 C 148.657 132.171 148.27 132.018 147.783 132.018 C 147.203 132.018 146.753 132.181 146.433 132.508 C 146.113 132.841 145.953 133.301 145.953 133.888 L 144.793 133.888 C 144.793 133.048 145.063 132.365 145.603 131.838 C 146.15 131.318 146.877 131.058 147.783 131.058 C 148.637 131.058 149.313 131.281 149.813 131.728 C 150.307 132.175 150.553 132.771 150.553 133.518 C 150.553 134.418 149.977 135.491 148.823 136.738 L 146.373 139.408 L 150.973 139.408 Z" transform="matrix(1.6310880184173584, 0, 0, 1.882077932357788, 21.004667282104492, -49.606693267822266)" style="fill: rgb(118, 118, 118); white-space: pre;"/>
</svg>