<?xml version="1.0" encoding="utf-8"?>
<svg id="_迹_1" data-name="卵迹_1" viewBox="85.637 6.066 548.341 450.785" xmlns="http://www.w3.org/2000/svg">
  <defs>
    <style>.cls-1{fill:#f7f7f7;}.cls-2{fill:#f6f6f6;stroke:#4064c3;opacity:0.4;}.cls-2,.cls-3,.cls-4,.cls-7{stroke-miterlimit:10;}.cls-2,.cls-3{stroke-width:2px;}.cls-3,.cls-4,.cls-7{fill:none;}.cls-3{stroke:#ffc64b;}.cls-4,.cls-7{stroke:#9e9e9e;}.cls-5{fill:#233976;}.cls-6{fill:#767676;}.cls-7{stroke-dasharray:4;}.cls-8{fill:#c1411a;}.cls-9{fill:#0f7c48;}</style>
  </defs>
  <title>비대면 플랫폼 웹메뉴얼_outline</title>
  <rect class="cls-1" x="155.87" y="62.32" width="30" height="370" rx="15"/>
  <rect class="cls-1" x="335.48" y="62.32" width="30" height="370" rx="15"/>
  <rect class="cls-1" x="516.79" y="62.32" width="30" height="370" rx="15"/>
  <rect class="cls-3" x="301.428" y="223.53" width="298.932" height="190" rx="12" style=""/>
  <path d="M331.08,42A5.6,5.6,0,0,1,327,40.22l.88-1a4.92,4.92,0,0,0,1.49,1.07,4.18,4.18,0,0,0,1.76.39,2.83,2.83,0,0,0,1.81-.53,1.68,1.68,0,0,0,.66-1.39,1.61,1.61,0,0,0-.16-.76,1.68,1.68,0,0,0-.41-.54,2.78,2.78,0,0,0-.62-.41l-.77-.37-1.69-.74a5,5,0,0,1-.83-.42,3.45,3.45,0,0,1-.77-.61,2.65,2.65,0,0,1-.57-.85,2.8,2.8,0,0,1-.22-1.12,2.9,2.9,0,0,1,.28-1.25,3,3,0,0,1,.77-1,3.5,3.5,0,0,1,1.17-.65,4.42,4.42,0,0,1,1.48-.23,4.61,4.61,0,0,1,1.94.4,4.74,4.74,0,0,1,1.52,1.05l-.79.95a4.38,4.38,0,0,0-1.2-.81,3.51,3.51,0,0,0-1.47-.3,2.52,2.52,0,0,0-1.6.47,1.53,1.53,0,0,0-.59,1.26,1.56,1.56,0,0,0,.17.74,2,2,0,0,0,.45.52,2.8,2.8,0,0,0,.63.39l.68.3,1.68.72a7.86,7.86,0,0,1,1,.5,3.35,3.35,0,0,1,.76.64,2.81,2.81,0,0,1,.52.85,3.35,3.35,0,0,1,.18,1.15,3,3,0,0,1-.28,1.3A3.38,3.38,0,0,1,334,41a3.67,3.67,0,0,1-1.26.71A5.05,5.05,0,0,1,331.08,42Z" style="fill: rgb(118, 118, 118);"/>
  <path d="M340.74,42a4.33,4.33,0,0,1-1.62-.31,3.63,3.63,0,0,1-1.32-.89,4,4,0,0,1-.89-1.43,5.69,5.69,0,0,1,0-3.82,4.47,4.47,0,0,1,.87-1.44,3.73,3.73,0,0,1,1.26-.91,3.48,3.48,0,0,1,1.47-.32,3.57,3.57,0,0,1,1.47.28,3.08,3.08,0,0,1,1.09.83,3.94,3.94,0,0,1,.67,1.29,5.83,5.83,0,0,1,.23,1.68c0,.16,0,.31,0,.45s0,.27,0,.38H338a3.33,3.33,0,0,0,.85,2.21,2.68,2.68,0,0,0,2,.81,3.57,3.57,0,0,0,1.16-.18,4,4,0,0,0,1-.51l.53,1a6.65,6.65,0,0,1-1.28.64A4.44,4.44,0,0,1,340.74,42Zm1.94-5.24a3.09,3.09,0,0,0-.57-2,2,2,0,0,0-1.59-.69,2.25,2.25,0,0,0-.89.18,2.37,2.37,0,0,0-.76.53,2.73,2.73,0,0,0-.56.85,3.67,3.67,0,0,0-.29,1.14Z" style="fill: rgb(118, 118, 118);"/>
  <path d="M346.1,33.07h1.2l.13,1.58h.05a4.24,4.24,0,0,1,1.09-1.32,2.22,2.22,0,0,1,1.37-.48,2.47,2.47,0,0,1,.5,0,1.16,1.16,0,0,1,.43.15l-.27,1.28a3.11,3.11,0,0,0-.4-.11,2.68,2.68,0,0,0-.45,0,1.74,1.74,0,0,0-.57.11,2,2,0,0,0-.58.33,2.85,2.85,0,0,0-.56.62,3.6,3.6,0,0,0-.48.94v5.59H346.1Z" style="fill: rgb(118, 118, 118);"/>
  <path d="M351.51,33.07H353L354.66,38c.14.43.27.86.41,1.3s.27.86.4,1.26h.07l.4-1.26c.14-.44.27-.87.4-1.3L358,33.07h1.44l-3.09,8.69h-1.7Z" style="fill: rgb(118, 118, 118);"/>
  <path d="M364.61,42a4.33,4.33,0,0,1-1.62-.31,3.63,3.63,0,0,1-1.32-.89,4,4,0,0,1-.89-1.43,5.69,5.69,0,0,1,0-3.82,4.47,4.47,0,0,1,.87-1.44,3.83,3.83,0,0,1,1.26-.91,3.48,3.48,0,0,1,1.47-.32,3.54,3.54,0,0,1,1.47.28,3.08,3.08,0,0,1,1.09.83,3.94,3.94,0,0,1,.67,1.29,5.51,5.51,0,0,1,.23,1.68c0,.16,0,.31,0,.45a3.22,3.22,0,0,1-.05.38h-5.87a3.33,3.33,0,0,0,.85,2.21,2.68,2.68,0,0,0,2,.81A3.57,3.57,0,0,0,366,40.6a4,4,0,0,0,1-.51l.53,1a6.65,6.65,0,0,1-1.28.64A4.44,4.44,0,0,1,364.61,42Zm1.94-5.24a3.09,3.09,0,0,0-.57-2,2,2,0,0,0-1.59-.69,2.25,2.25,0,0,0-.89.18,2.48,2.48,0,0,0-.76.53,2.73,2.73,0,0,0-.56.85,3.67,3.67,0,0,0-.29,1.14Z" style="fill: rgb(118, 118, 118);"/>
  <path d="M370,33.07h1.2l.13,1.58h.05a4.38,4.38,0,0,1,1.09-1.32,2.22,2.22,0,0,1,1.37-.48,2.47,2.47,0,0,1,.5,0,1.16,1.16,0,0,1,.43.15l-.27,1.28a3.11,3.11,0,0,0-.4-.11,2.68,2.68,0,0,0-.45,0,1.74,1.74,0,0,0-.57.11,2,2,0,0,0-.58.33,2.85,2.85,0,0,0-.56.62,3.93,3.93,0,0,0-.48.94v5.59H370Z" style="fill: rgb(118, 118, 118);"/>
  <path d="M503.59,30h1.53l4.28,7.39,1.24,2.42h.08c0-.6-.08-1.21-.12-1.85s-.07-1.26-.07-1.86V30h1.41V41.76h-1.52l-4.27-7.4L504.88,32h-.06c0,.6.07,1.2.11,1.81S505,35,505,35.61v6.15h-1.41Z" style="fill: rgb(118, 118, 118);"/>
  <path d="M515.75,31.28A1,1,0,0,1,515,31a1,1,0,0,1,0-1.37,1.16,1.16,0,0,1,1.44,0,1,1,0,0,1,0,1.37A1,1,0,0,1,515.75,31.28ZM515,33.07h1.46v8.69H515Z" style="fill: rgb(118, 118, 118);"/>
  <path d="M522.84,42a4.24,4.24,0,0,1-1.61-.31,3.64,3.64,0,0,1-1.3-.89,4,4,0,0,1-.86-1.42,5.47,5.47,0,0,1-.31-1.93,5.07,5.07,0,0,1,.34-1.93,4.4,4.4,0,0,1,.92-1.44,3.69,3.69,0,0,1,1.34-.9,4.24,4.24,0,0,1,1.59-.3,3.32,3.32,0,0,1,1.47.3,5.17,5.17,0,0,1,1.07.73l-.75,1a4.2,4.2,0,0,0-.8-.57,2.06,2.06,0,0,0-.94-.21,2.47,2.47,0,0,0-2,.92,3.47,3.47,0,0,0-.57,1.06,4.18,4.18,0,0,0-.2,1.36,4.43,4.43,0,0,0,.19,1.36,3.08,3.08,0,0,0,.55,1,2.63,2.63,0,0,0,.85.67,2.72,2.72,0,0,0,2.21,0,4.19,4.19,0,0,0,.93-.62l.63,1a4.33,4.33,0,0,1-1.3.82A3.86,3.86,0,0,1,522.84,42Z" style="fill: rgb(118, 118, 118);"/>
  <path d="M530.68,42a4.42,4.42,0,0,1-1.63-.31,3.71,3.71,0,0,1-1.32-.89,4.19,4.19,0,0,1-.89-1.43,5.86,5.86,0,0,1,0-3.82,4.32,4.32,0,0,1,.88-1.44,3.63,3.63,0,0,1,1.26-.91,3.41,3.41,0,0,1,1.46-.32,3.62,3.62,0,0,1,1.48.28A3,3,0,0,1,533,34a3.78,3.78,0,0,1,.68,1.29,5.83,5.83,0,0,1,.23,1.68c0,.16,0,.31,0,.45a3.22,3.22,0,0,1,0,.38H528a3.33,3.33,0,0,0,.86,2.21,2.66,2.66,0,0,0,2,.81A3.59,3.59,0,0,0,532,40.6a4.17,4.17,0,0,0,1-.51l.53,1a7.28,7.28,0,0,1-1.28.64A4.47,4.47,0,0,1,530.68,42Zm1.93-5.24a3.09,3.09,0,0,0-.57-2,2,2,0,0,0-1.59-.69,2.28,2.28,0,0,0-.89.18,2.61,2.61,0,0,0-.76.53,2.92,2.92,0,0,0-.56.85,3.67,3.67,0,0,0-.28,1.14Z" style="fill: rgb(118, 118, 118);"/>
  <path d="M536,33.07h1.19l.13,1h0a8.32,8.32,0,0,1,1.3-.85,3.37,3.37,0,0,1,2.95,0,3.13,3.13,0,0,1,1.09.89,4.17,4.17,0,0,1,.66,1.39,6.94,6.94,0,0,1,.23,1.83,5.85,5.85,0,0,1-.32,2,4.37,4.37,0,0,1-.83,1.47,3.48,3.48,0,0,1-1.2.91,3.36,3.36,0,0,1-1.43.32,2.94,2.94,0,0,1-1.2-.27,4.91,4.91,0,0,1-1.2-.76l0,1.53v3H536Zm3.58,7.66a2.26,2.26,0,0,0,1-.23,2.43,2.43,0,0,0,.79-.68,3.1,3.1,0,0,0,.52-1.08,5.36,5.36,0,0,0,.19-1.45A6.53,6.53,0,0,0,542,36a3.24,3.24,0,0,0-.4-1,1.85,1.85,0,0,0-.71-.65,2.23,2.23,0,0,0-1-.23,2.39,2.39,0,0,0-1.13.3,5.79,5.79,0,0,0-1.21.9v4.54a3.56,3.56,0,0,0,1.15.71A2.72,2.72,0,0,0,539.62,40.73Z" style="fill: rgb(118, 118, 118);"/>
  <path d="M547.68,42a2.7,2.7,0,0,1-1-.18,2.26,2.26,0,0,1-.8-.5,2.33,2.33,0,0,1-.53-.8,2.74,2.74,0,0,1-.19-1.06A2.52,2.52,0,0,1,546.54,37a9,9,0,0,1,4-.75,4.47,4.47,0,0,0-.08-.82,2,2,0,0,0-.28-.7,1.54,1.54,0,0,0-.55-.49,1.94,1.94,0,0,0-.88-.18,4.34,4.34,0,0,0-1.48.25,4.88,4.88,0,0,0-1.21.6l-.58-1a7.85,7.85,0,0,1,1.53-.71,5.79,5.79,0,0,1,2-.32,3.37,3.37,0,0,1,1.36.25,2.41,2.41,0,0,1,.93.73,3.21,3.21,0,0,1,.54,1.13,5.48,5.48,0,0,1,.18,1.45v5.35h-1.2l-.13-.95h0a5.62,5.62,0,0,1-1.35.84A3.87,3.87,0,0,1,547.68,42Zm.42-1.19a3.16,3.16,0,0,0,1.2-.22,4.32,4.32,0,0,0,1.2-.79V37.2a14.92,14.92,0,0,0-1.91.23,4.05,4.05,0,0,0-1.21.41,1.4,1.4,0,0,0-.62.61,1.91,1.91,0,0,0-.18.86,1.36,1.36,0,0,0,.43,1.11A1.65,1.65,0,0,0,548.1,40.78Z" style="fill: rgb(118, 118, 118);"/>
  <path d="M555.6,45.5,557,41.68l-3.48-8.61H555l1.77,4.74c.13.37.27.77.41,1.2s.29.83.42,1.23h.08l.37-1.23.37-1.2L560,33.07h1.42L557,45.5Z" style="fill: rgb(118, 118, 118);"/>
  <path d="M122.36,42a5,5,0,0,1-2-.41,4.51,4.51,0,0,1-1.62-1.19,5.68,5.68,0,0,1-1.08-1.92,8,8,0,0,1-.38-2.55,7.76,7.76,0,0,1,.39-2.55,5.8,5.8,0,0,1,1.09-1.92,4.59,4.59,0,0,1,1.65-1.21,5,5,0,0,1,2.07-.41,4.17,4.17,0,0,1,1,.12,4.93,4.93,0,0,1,.89.32,4.81,4.81,0,0,1,.73.47,4.4,4.4,0,0,1,.59.54l-.8,1a4.1,4.1,0,0,0-1-.81,2.92,2.92,0,0,0-1.35-.31,3.46,3.46,0,0,0-1.52.33,3.28,3.28,0,0,0-1.16.94,4.51,4.51,0,0,0-.76,1.5,7.14,7.14,0,0,0-.26,2,7.23,7.23,0,0,0,.26,2,4.56,4.56,0,0,0,.72,1.52,3.2,3.2,0,0,0,1.15,1,3.27,3.27,0,0,0,1.52.34,3.19,3.19,0,0,0,1.5-.35,5,5,0,0,0,1.22-1l.81.93a5,5,0,0,1-1.57,1.24A4.5,4.5,0,0,1,122.36,42Z" style="fill: rgb(118, 118, 118);"/>
  <path d="M128,41.76V29h1.46V41.76Z" style="fill: rgb(118, 118, 118);"/>
  <path d="M133.12,31.28a1,1,0,0,1-.72-.27,1,1,0,0,1,0-1.37,1,1,0,0,1,.72-.25,1.07,1.07,0,0,1,.72.25,1,1,0,0,1,0,1.37A1,1,0,0,1,133.12,31.28Zm-.74,1.79h1.46v8.69h-1.46Z" style="fill: rgb(118, 118, 118);"/>
  <path d="M140.28,42a4.4,4.4,0,0,1-1.62-.31,3.63,3.63,0,0,1-1.32-.89,4.19,4.19,0,0,1-.89-1.43,5.69,5.69,0,0,1,0-3.82,4.32,4.32,0,0,1,.88-1.44,3.69,3.69,0,0,1,1.25-.91,3.48,3.48,0,0,1,1.47-.32,3.62,3.62,0,0,1,1.48.28,3,3,0,0,1,1.08.83,3.76,3.76,0,0,1,.67,1.29,5.5,5.5,0,0,1,.24,1.68c0,.16,0,.31,0,.45a3.22,3.22,0,0,1-.05.38h-5.87a3.33,3.33,0,0,0,.86,2.21,2.66,2.66,0,0,0,2,.81,3.59,3.59,0,0,0,1.17-.18,4.17,4.17,0,0,0,1-.51l.52,1a6.65,6.65,0,0,1-1.28.64A4.44,4.44,0,0,1,140.28,42Zm1.94-5.24a3.09,3.09,0,0,0-.57-2,2,2,0,0,0-1.59-.69,2.25,2.25,0,0,0-.89.18,2.61,2.61,0,0,0-.76.53,2.92,2.92,0,0,0-.56.85,4,4,0,0,0-.29,1.14Z" style="fill: rgb(118, 118, 118);"/>
  <path d="M145.64,33.07h1.2l.13,1.25H147a7.93,7.93,0,0,1,1.32-1,2.91,2.91,0,0,1,1.59-.43,2.34,2.34,0,0,1,2,.86,4.28,4.28,0,0,1,.64,2.54v5.51h-1.46V36.45a3.13,3.13,0,0,0-.39-1.78,1.45,1.45,0,0,0-1.26-.54,2.26,2.26,0,0,0-1.2.33,8.23,8.23,0,0,0-1.18,1v6.31h-1.46Z" style="fill: rgb(118, 118, 118);"/>
  <path d="M158.16,42a2.9,2.9,0,0,1-1.18-.21,1.8,1.8,0,0,1-.76-.59,2.47,2.47,0,0,1-.42-.91,5.38,5.38,0,0,1-.12-1.19V34.25h-1.3v-1.1l1.36-.08.17-2.43h1.22v2.43h2.35v1.18h-2.35V39.1a2.26,2.26,0,0,0,.29,1.25,1.17,1.17,0,0,0,1.06.43,1.86,1.86,0,0,0,.49-.07l.5-.15.29,1.09c-.25.08-.51.16-.79.22A3.9,3.9,0,0,1,158.16,42Z" style="fill: rgb(118, 118, 118);"/>
  <path d="M165.16,30h3.49a7.6,7.6,0,0,1,1.64.16,4,4,0,0,1,1.27.5,2.53,2.53,0,0,1,.83.89,2.79,2.79,0,0,1,.29,1.31,2.84,2.84,0,0,1-.45,1.58,2.31,2.31,0,0,1-1.27,1v.08a3.22,3.22,0,0,1,1.72.9,2.62,2.62,0,0,1,.67,1.9,3.29,3.29,0,0,1-.32,1.51,3,3,0,0,1-.92,1.07,3.85,3.85,0,0,1-1.4.64,6.83,6.83,0,0,1-1.8.22h-3.75Zm3.23,5a3.53,3.53,0,0,0,2.18-.52,1.68,1.68,0,0,0,.66-1.41,1.54,1.54,0,0,0-.7-1.45,3.94,3.94,0,0,0-2.07-.43h-1.81V35Zm.31,5.55a4.27,4.27,0,0,0,2.36-.55,1.94,1.94,0,0,0,.84-1.75,1.76,1.76,0,0,0-.82-1.61,4.69,4.69,0,0,0-2.38-.5h-2v4.41Z" style="fill: rgb(118, 118, 118);"/>
  <path d="M175.55,33.07h1.2l.12,1.58h0a4.4,4.4,0,0,1,1.1-1.32,2.22,2.22,0,0,1,1.37-.48,2.47,2.47,0,0,1,.5,0,1.12,1.12,0,0,1,.42.15L180,34.32a2.73,2.73,0,0,0-.4-.11,2.48,2.48,0,0,0-.45,0,1.64,1.64,0,0,0-.56.11,2.05,2.05,0,0,0-.59.33,3.13,3.13,0,0,0-.56.62,4.34,4.34,0,0,0-.48.94v5.59h-1.45Z" style="fill: rgb(118, 118, 118);"/>
  <path d="M185.13,42a4,4,0,0,1-1.53-.31,3.88,3.88,0,0,1-1.29-.89,4.07,4.07,0,0,1-.88-1.42,5.81,5.81,0,0,1,0-3.86,4.16,4.16,0,0,1,.88-1.44,3.77,3.77,0,0,1,1.29-.9,4.05,4.05,0,0,1,3.06,0,3.77,3.77,0,0,1,1.29.9,4.16,4.16,0,0,1,.88,1.44,5.81,5.81,0,0,1,0,3.86,4.07,4.07,0,0,1-.88,1.42,3.88,3.88,0,0,1-1.29.89A4,4,0,0,1,185.13,42Zm0-1.24a2.28,2.28,0,0,0,1-.23,2.45,2.45,0,0,0,.8-.67,3,3,0,0,0,.52-1,4.43,4.43,0,0,0,.19-1.36,4.47,4.47,0,0,0-.19-1.36A3.18,3.18,0,0,0,187,35a2.26,2.26,0,0,0-.8-.68,2.16,2.16,0,0,0-1-.24,2.19,2.19,0,0,0-1,.24,2.26,2.26,0,0,0-.8.68,3.87,3.87,0,0,0-.51,1.06,4.81,4.81,0,0,0-.18,1.36,4.76,4.76,0,0,0,.18,1.36,3.67,3.67,0,0,0,.51,1,2.45,2.45,0,0,0,.8.67A2.31,2.31,0,0,0,185.13,40.73Z" style="fill: rgb(118, 118, 118);"/>
  <path d="M190.41,33.07h1.49l1.29,5c.09.42.18.83.26,1.23s.17.8.26,1.21h.08c.09-.41.19-.81.28-1.22s.19-.81.31-1.22l1.34-5h1.43l1.36,5,.3,1.23.3,1.21h.07c.09-.41.19-.81.27-1.21l.27-1.23,1.28-5h1.38L200,41.76h-1.76L197,37.07c-.12-.4-.22-.81-.31-1.22s-.18-.83-.28-1.28h-.08c-.1.45-.19.88-.28,1.29s-.2.83-.32,1.24l-1.21,4.66h-1.71Z" style="fill: rgb(118, 118, 118);"/>
  <path d="M206.55,42a4.66,4.66,0,0,1-1.77-.35,5.51,5.51,0,0,1-1.47-.85l.72-1a5.22,5.22,0,0,0,1.17.74,3.3,3.3,0,0,0,1.4.28,1.8,1.8,0,0,0,1.29-.4,1.29,1.29,0,0,0,.42-1,1,1,0,0,0-.17-.58,1.91,1.91,0,0,0-.46-.43,3.21,3.21,0,0,0-.64-.34l-.71-.3a8,8,0,0,1-.92-.37,3.67,3.67,0,0,1-.83-.5,2.49,2.49,0,0,1-.61-.69,1.88,1.88,0,0,1-.23-.95,2.27,2.27,0,0,1,.78-1.74,2.73,2.73,0,0,1,.95-.53,3.79,3.79,0,0,1,1.26-.19,3.85,3.85,0,0,1,1.5.28,5.3,5.3,0,0,1,1.2.68l-.7.94a5.35,5.35,0,0,0-.94-.55,2.42,2.42,0,0,0-1.06-.22,1.72,1.72,0,0,0-1.2.37,1.17,1.17,0,0,0-.38.88.85.85,0,0,0,.16.54,1.46,1.46,0,0,0,.43.38,3.17,3.17,0,0,0,.61.31l.72.28c.32.12.63.25,1,.39a3.59,3.59,0,0,1,.85.5,2.59,2.59,0,0,1,.61.71,2.09,2.09,0,0,1,.24,1,2.46,2.46,0,0,1-.21,1,2.17,2.17,0,0,1-.6.81,2.93,2.93,0,0,1-1,.56A4,4,0,0,1,206.55,42Z" style="fill: rgb(118, 118, 118);"/>
  <path d="M215.27,42a4.4,4.4,0,0,1-1.62-.31,3.63,3.63,0,0,1-1.32-.89,4.19,4.19,0,0,1-.89-1.43,5.69,5.69,0,0,1,0-3.82,4.32,4.32,0,0,1,.88-1.44,3.63,3.63,0,0,1,1.26-.91,3.41,3.41,0,0,1,1.46-.32,3.62,3.62,0,0,1,1.48.28,3,3,0,0,1,1.08.83,3.76,3.76,0,0,1,.67,1.29,5.5,5.5,0,0,1,.24,1.68c0,.16,0,.31,0,.45a3.22,3.22,0,0,1-.05.38h-5.87a3.33,3.33,0,0,0,.86,2.21,2.66,2.66,0,0,0,2,.81,3.59,3.59,0,0,0,1.17-.18,4.17,4.17,0,0,0,1-.51l.52,1a6.65,6.65,0,0,1-1.28.64A4.44,4.44,0,0,1,215.27,42Zm1.94-5.24a3.09,3.09,0,0,0-.57-2,2,2,0,0,0-1.59-.69,2.25,2.25,0,0,0-.89.18,2.61,2.61,0,0,0-.76.53,2.92,2.92,0,0,0-.56.85,4,4,0,0,0-.29,1.14Z" style="fill: rgb(118, 118, 118);"/>
  <path d="M220.63,33.07h1.2l.13,1.58h0a4.26,4.26,0,0,1,1.1-1.32,2.19,2.19,0,0,1,1.36-.48,2.57,2.57,0,0,1,.51,0,1.18,1.18,0,0,1,.42.15l-.27,1.28a2.73,2.73,0,0,0-.4-.11,2.68,2.68,0,0,0-.45,0,1.74,1.74,0,0,0-.57.11,2.14,2.14,0,0,0-.58.33,3.13,3.13,0,0,0-.56.62,4.34,4.34,0,0,0-.48.94v5.59h-1.46Z" style="fill: rgb(118, 118, 118);"/>
  <line class="cls-4" x1="532.38" y1="241.96" x2="352.35" y2="241.96"/>
  <path class="cls-4" d="M531.88,181.92a30,30,0,0,1,0,60"/>
  <polygon class="cls-5" points="537.79 234.76 537.79 249.16 525.79 241.97 537.79 234.76"/>
  <line class="cls-4" x1="531.74" y1="381.89" x2="351.72" y2="381.89"/>
  <line class="cls-4" x1="531.74" y1="321.88" x2="351.72" y2="321.88"/>
  <path class="cls-6" d="M427.48,397c-.48.09-1,.16-1.46.21s-1,.1-1.47.13V401h-.94v-3.62l-1.46,0-1.36,0-.13-.83h1.56c.56,0,1.13,0,1.71,0s1.16-.06,1.75-.1,1.17-.11,1.73-.2Zm-6.34-1.92a3.83,3.83,0,0,0,1-.37,3.17,3.17,0,0,0,.78-.58,2.33,2.33,0,0,0,.51-.71,2.16,2.16,0,0,0,.17-.83v0h-2.25v-.76h2.24V390.6h.94v1.21h2.25v.76h-2.25v0a1.84,1.84,0,0,0,.17.77,2.3,2.3,0,0,0,.5.67,3.32,3.32,0,0,0,.77.54,4.23,4.23,0,0,0,1,.37l-.38.77a4.68,4.68,0,0,1-1.53-.7,3.1,3.1,0,0,1-1-1.13,3.33,3.33,0,0,1-1,1.23,4.35,4.35,0,0,1-1.56.75Zm7.93-4.5v10.77h-.93V390.59Z"/>
  <path class="cls-6" d="M440.45,399.14v.8h-9.28v-.8h4.13v-2.62h.93v2.62Zm-.85-2.49a6,6,0,0,1-1.17-.4,6.19,6.19,0,0,1-1.08-.65,5.48,5.48,0,0,1-.92-.88,4,4,0,0,1-.66-1.07,4.54,4.54,0,0,1-.66,1.07,5.12,5.12,0,0,1-.92.88,6.28,6.28,0,0,1-1.09.65,5.7,5.7,0,0,1-1.16.4l-.39-.81a4.77,4.77,0,0,0,1.34-.47,5.62,5.62,0,0,0,1.2-.84,4.36,4.36,0,0,0,.86-1.11,2.69,2.69,0,0,0,.33-1.29v-.83h1v.83a2.69,2.69,0,0,0,.33,1.29,4.36,4.36,0,0,0,.86,1.11,5.44,5.44,0,0,0,1.21.84,4.67,4.67,0,0,0,1.34.47Z"/>
  <path class="cls-6" d="M453.45,395.81v.79h-9.24v-.79Zm-4.62-4.95a6.74,6.74,0,0,1,1.49.14,3.65,3.65,0,0,1,1.13.4,2,2,0,0,1,.72.65,1.6,1.6,0,0,1,0,1.72,2.15,2.15,0,0,1-.72.64,3.65,3.65,0,0,1-1.13.4,7.4,7.4,0,0,1-1.49.14,7.55,7.55,0,0,1-1.49-.14,3.75,3.75,0,0,1-1.13-.4,2.15,2.15,0,0,1-.72-.64,1.6,1.6,0,0,1,0-1.72,2,2,0,0,1,.72-.65,3.75,3.75,0,0,1,1.13-.4A6.86,6.86,0,0,1,448.83,390.86Zm0,6.63a5.46,5.46,0,0,1,2.56.5,1.56,1.56,0,0,1,0,2.86,5.46,5.46,0,0,1-2.56.5,8,8,0,0,1-1.46-.13,4.3,4.3,0,0,1-1.1-.37,2,2,0,0,1-.69-.61,1.54,1.54,0,0,1,0-1.65,2.05,2.05,0,0,1,.69-.6,3.94,3.94,0,0,1,1.1-.37A8,8,0,0,1,448.83,397.49Zm0-5.86a4.62,4.62,0,0,0-1.93.33,1,1,0,0,0,0,1.89,5.78,5.78,0,0,0,3.85,0,1,1,0,0,0,0-1.89A4.6,4.6,0,0,0,448.84,391.63Zm0,6.63a4.53,4.53,0,0,0-1.88.31.88.88,0,0,0,0,1.71,4.72,4.72,0,0,0,1.88.3,4.67,4.67,0,0,0,1.87-.3.88.88,0,0,0,0-1.71A4.48,4.48,0,0,0,448.84,398.26Z"/>
  <path class="cls-6" d="M460.72,395.58c-.35.08-.69.14-1,.19l-1.07.11c-.37,0-.77.05-1.21.06L456,396h-.8v-4.67h4.5v.79H456.1v3.07h1.37l1.15-.06c.35,0,.69-.06,1-.11a9.44,9.44,0,0,0,1-.18Zm1,1.33h.93v4.26h-6.45v-4.26h.93v1.34h4.59Zm0,2.11h-4.59v1.34h4.59Zm2.44-5.1h-1.51v2.4h-.94v-5.74h.94v2.53h1.51Z"/>
  <path class="cls-6" d="M411.84,335.9h-4.71v-4.64h4.71Zm-.45,1.29a7.49,7.49,0,0,1,1.4.13,3.55,3.55,0,0,1,1.06.39,1.88,1.88,0,0,1,.67.64,1.63,1.63,0,0,1,0,1.7,1.85,1.85,0,0,1-.67.63,3.55,3.55,0,0,1-1.06.39,7.07,7.07,0,0,1-2.8,0,3.59,3.59,0,0,1-1.05-.39,1.89,1.89,0,0,1-.68-.63,1.69,1.69,0,0,1,0-1.7,1.91,1.91,0,0,1,.68-.64,3.59,3.59,0,0,1,1.05-.39A7.41,7.41,0,0,1,411.39,337.19Zm-.47-5.13h-2.87v3h2.87Zm.47,8.38a4,4,0,0,0,1.78-.33,1,1,0,0,0,0-1.82,5,5,0,0,0-3.56,0,1,1,0,0,0,0,1.82A4,4,0,0,0,411.39,340.44Zm4.77-7.29v.8h-1.52v2.86h-.93v-6.34h.93v2.68Z"/>
  <path class="cls-6" d="M424,336.88c-.48.09-1,.16-1.46.21l-1.47.13v3.68h-.93v-3.62l-1.47,0H417.3l-.13-.82h1.56c.56,0,1.13,0,1.71,0l1.75-.1c.59-.05,1.17-.11,1.73-.2ZM417.65,335a4.06,4.06,0,0,0,1-.38,3.27,3.27,0,0,0,.78-.57,2.39,2.39,0,0,0,.5-.72,2,2,0,0,0,.17-.83v0h-2.25v-.77h2.24v-1.2H421v1.2h2.26v.77H421v0a1.89,1.89,0,0,0,.17.78,2.29,2.29,0,0,0,.51.67,3.5,3.5,0,0,0,.77.54,4,4,0,0,0,1,.37l-.38.76a4.47,4.47,0,0,1-1.53-.69,3.1,3.1,0,0,1-1-1.13,3.33,3.33,0,0,1-1,1.23,4.35,4.35,0,0,1-1.56.75Zm7.94-4.5v10.76h-.94V330.46Z"/>
  <path class="cls-6" d="M437,339v.81h-9.28V339h4.13v-2.61h.94V339Zm-.85-2.48a5.7,5.7,0,0,1-1.16-.4,5.46,5.46,0,0,1-1.09-.66,5.05,5.05,0,0,1-.92-.87,4.75,4.75,0,0,1-.66-1.07,4.85,4.85,0,0,1-1.58,1.94,5.72,5.72,0,0,1-2.25,1.06l-.39-.82a4.64,4.64,0,0,0,1.34-.46,6.44,6.44,0,0,0,1.2-.84,4.36,4.36,0,0,0,.86-1.11,2.75,2.75,0,0,0,.33-1.29v-.83h1V332a2.75,2.75,0,0,0,.33,1.29,4.19,4.19,0,0,0,.87,1.11,5.84,5.84,0,0,0,1.2.84,4.64,4.64,0,0,0,1.34.46Z"/>
  <path class="cls-6" d="M445.09,337.64h-3l-.81,2.68h-1.07l2.83-8.79h1.18l2.84,8.79h-1.12Zm-.26-.89-.4-1.35c-.15-.51-.3-1-.43-1.49s-.28-1-.41-1.49h0c-.13.52-.26,1-.4,1.5s-.28,1-.43,1.48l-.41,1.35Z"/>
  <path class="cls-6" d="M448.18,331.53h2.39a5.6,5.6,0,0,1,1.28.13,2.5,2.5,0,0,1,1,.44,2,2,0,0,1,.64.8,2.87,2.87,0,0,1,.23,1.21,3,3,0,0,1-.22,1.21,2.18,2.18,0,0,1-.64.85,2.63,2.63,0,0,1-1,.5,4.53,4.53,0,0,1-1.26.16h-1.38v3.49h-1.06Zm2.3,4.41a2.49,2.49,0,0,0,1.64-.44,1.72,1.72,0,0,0,.53-1.39,1.48,1.48,0,0,0-.55-1.33,3.08,3.08,0,0,0-1.66-.36h-1.2v3.52Z"/>
  <path class="cls-6" d="M455.39,331.53h1.06v8.79h-1.06Z"/>
  <path class="cls-6" d="M467.46,339.15v.8h-9.27v-.8h4.16v-1.51a4.13,4.13,0,0,1-2.12-.62,1.72,1.72,0,0,1-.54-2.29,1.93,1.93,0,0,1,.66-.64,4,4,0,0,1,1.06-.4,6.73,6.73,0,0,1,1.4-.13,6.47,6.47,0,0,1,1.38.13,3.9,3.9,0,0,1,1.05.4,1.93,1.93,0,0,1,.66.64,1.63,1.63,0,0,1,.24.87,1.65,1.65,0,0,1-.76,1.42,4.21,4.21,0,0,1-2.09.62v1.51Zm-.51-6.33h-8.3V332h3.7v-1.4h.94V332H467Zm-6.56,2.77a1,1,0,0,0,.65.94,3.79,3.79,0,0,0,1.77.34,3.7,3.7,0,0,0,1.75-.34,1,1,0,0,0,0-1.87,3.83,3.83,0,0,0-1.75-.34,3.92,3.92,0,0,0-1.77.34A1,1,0,0,0,460.39,335.59Z"/>
  <path class="cls-6" d="M473.77,336v1h3v2.35h-6v1h6.32v.74h-7.24v-2.47h6v-.91h-6V337h3.05v-1h-4.14v-.77h9.22V336Zm-4.6-2a8,8,0,0,0,1.34-.2,6.12,6.12,0,0,0,1.12-.38,2.79,2.79,0,0,0,.79-.56,1.37,1.37,0,0,0,.36-.72h-3.16v-.74h3.22v-1h.93v1H477v.74h-3.15a1.37,1.37,0,0,0,.36.72,2.53,2.53,0,0,0,.79.56,5.76,5.76,0,0,0,1.11.38,7.84,7.84,0,0,0,1.34.2l-.28.74a7.91,7.91,0,0,1-1.23-.18,5.9,5.9,0,0,1-1.1-.34,4.47,4.47,0,0,1-.89-.5,2.79,2.79,0,0,1-.62-.67,2.65,2.65,0,0,1-.63.67,4.29,4.29,0,0,1-.9.5,5.79,5.79,0,0,1-1.09.34,8.18,8.18,0,0,1-1.25.18Z"/>
  <path class="cls-6" d="M430.12,295.86h2a4.43,4.43,0,0,1,1.07.12,2.11,2.11,0,0,1,.82.36,1.6,1.6,0,0,1,.53.67,2.3,2.3,0,0,1,.19,1,2.55,2.55,0,0,1-.18,1,1.82,1.82,0,0,1-.53.71,2.23,2.23,0,0,1-.81.42,3.87,3.87,0,0,1-1.05.13H431v2.91h-.88Zm1.92,3.69a2.14,2.14,0,0,0,1.36-.37,1.47,1.47,0,0,0,.44-1.17,1.22,1.22,0,0,0-.46-1.1,2.56,2.56,0,0,0-1.38-.31h-1v2.95Z"/>
  <path class="cls-6" d="M438.69,303.32a2.7,2.7,0,0,1-1.2-.26,2.84,2.84,0,0,1-.94-.76,3.76,3.76,0,0,1-.61-1.2,5.32,5.32,0,0,1-.22-1.59,5.11,5.11,0,0,1,.22-1.58,3.76,3.76,0,0,1,.61-1.2,2.94,2.94,0,0,1,.94-.75,3,3,0,0,1,2.41,0,2.94,2.94,0,0,1,.94.75,3.76,3.76,0,0,1,.61,1.2,5.11,5.11,0,0,1,.22,1.58,5.32,5.32,0,0,1-.22,1.59,3.76,3.76,0,0,1-.61,1.2,2.84,2.84,0,0,1-.94.76A2.71,2.71,0,0,1,438.69,303.32Zm0-.8a1.77,1.77,0,0,0,.86-.22,2,2,0,0,0,.65-.61,2.91,2.91,0,0,0,.42-.94,4.73,4.73,0,0,0,.15-1.24,4.68,4.68,0,0,0-.15-1.24,3,3,0,0,0-.42-.94,1.91,1.91,0,0,0-.65-.59,1.77,1.77,0,0,0-.86-.21,1.73,1.73,0,0,0-.85.21,1.91,1.91,0,0,0-.65.59,3,3,0,0,0-.42.94,4.68,4.68,0,0,0-.15,1.24,4.73,4.73,0,0,0,.15,1.24,2.91,2.91,0,0,0,.42.94,2,2,0,0,0,.65.61A1.73,1.73,0,0,0,438.69,302.52Z"/>
  <path class="cls-6" d="M445.11,303.32a3.12,3.12,0,0,1-1.37-.29,3.23,3.23,0,0,1-1.07-.8l.52-.63a2.71,2.71,0,0,0,.88.67,2.45,2.45,0,0,0,1.05.25,1.67,1.67,0,0,0,1.07-.33,1.09,1.09,0,0,0,.39-.88,1.13,1.13,0,0,0-.09-.47,1,1,0,0,0-.25-.34,1.66,1.66,0,0,0-.36-.26l-.46-.22-1-.46c-.16-.08-.33-.17-.49-.27a2.32,2.32,0,0,1-.46-.38,1.69,1.69,0,0,1-.33-.53,1.71,1.71,0,0,1-.13-.7,1.89,1.89,0,0,1,.16-.79,2.18,2.18,0,0,1,.46-.62,2.23,2.23,0,0,1,.69-.4,2.54,2.54,0,0,1,.88-.14,2.63,2.63,0,0,1,1.16.25,2.56,2.56,0,0,1,.89.66l-.46.59a2.45,2.45,0,0,0-.71-.51,2.07,2.07,0,0,0-.88-.19,1.48,1.48,0,0,0-.95.29,1,1,0,0,0-.35.79.89.89,0,0,0,.11.46,1.06,1.06,0,0,0,.26.33,1.31,1.31,0,0,0,.37.24l.41.2,1,.44a4.3,4.3,0,0,1,.56.32,1.94,1.94,0,0,1,.46.39,1.78,1.78,0,0,1,.3.54,1.93,1.93,0,0,1,.11.71,2,2,0,0,1-.16.82,2,2,0,0,1-.47.66,2.24,2.24,0,0,1-.75.45A3,3,0,0,1,445.11,303.32Z"/>
  <path class="cls-6" d="M450.09,296.64H448v-.78h5.1v.78H451v6.55h-.88Z"/>
  <path class="cls-6" d="M390.87,306.77h.63l-2.84,9.71H388Z"/>
  <path class="cls-6" d="M391.77,309.77h.9l1,3.08.24.82q.12.4.24.78h0c.08-.25.15-.51.24-.78l.24-.82,1-3.08h.86l-1.83,5.42h-1Z"/>
  <path class="cls-6" d="M401.59,314.45v.74h-3.76v-.74h1.55v-5.52l-1.26,1.18-.46-.59,1.87-1.7h.69v6.63Z"/>
  <path class="cls-6" d="M405.21,306.77h.63L403,316.48h-.63Z"/>
  <path class="cls-6" d="M406.85,309.77h.71l.08.62h0a4.81,4.81,0,0,1,.77-.54,1.81,1.81,0,0,1,.87-.22,1.93,1.93,0,0,1,.88.19,1.86,1.86,0,0,1,.65.57,2.68,2.68,0,0,1,.39.87,4.44,4.44,0,0,1,.13,1.13,4,4,0,0,1-.18,1.25,3,3,0,0,1-.49.92,2.16,2.16,0,0,1-.72.57,1.92,1.92,0,0,1-.85.19,1.7,1.7,0,0,1-.71-.16,3,3,0,0,1-.71-.47l0,.95v1.84h-.87Zm2.13,4.79a1.2,1.2,0,0,0,.59-.15A1.47,1.47,0,0,0,410,314a1.89,1.89,0,0,0,.31-.67,3.2,3.2,0,0,0,.11-.91,4.18,4.18,0,0,0-.07-.82,2,2,0,0,0-.24-.63,1.18,1.18,0,0,0-.42-.41,1.22,1.22,0,0,0-.63-.15,1.45,1.45,0,0,0-.67.19,4,4,0,0,0-.71.56V314a2.12,2.12,0,0,0,.68.44A1.7,1.7,0,0,0,409,314.56Z"/>
  <path class="cls-6" d="M413.77,315.32a1.64,1.64,0,0,1-.6-.1,1.55,1.55,0,0,1-.48-.32,1.57,1.57,0,0,1-.31-.5,1.94,1.94,0,0,1-.11-.66,1.57,1.57,0,0,1,.82-1.5,5.06,5.06,0,0,1,2.35-.48,2.94,2.94,0,0,0-.05-.51,1.29,1.29,0,0,0-.16-.44,1,1,0,0,0-.33-.3,1,1,0,0,0-.52-.12,2.59,2.59,0,0,0-.88.16,2.72,2.72,0,0,0-.72.38l-.34-.66a4.07,4.07,0,0,1,.91-.44,3.2,3.2,0,0,1,1.17-.2,2,2,0,0,1,.81.15,1.45,1.45,0,0,1,.55.46,2.14,2.14,0,0,1,.32.7,3.73,3.73,0,0,1,.1.91v3.34h-.71l-.07-.59h0a3.37,3.37,0,0,1-.8.53A2.23,2.23,0,0,1,413.77,315.32Zm.25-.73a1.71,1.71,0,0,0,.71-.15,2.33,2.33,0,0,0,.71-.49v-1.6a8.66,8.66,0,0,0-1.13.14,2.39,2.39,0,0,0-.72.25.91.91,0,0,0-.37.39,1.27,1.27,0,0,0-.11.54.88.88,0,0,0,.26.69A1,1,0,0,0,414,314.59Z"/>
  <path class="cls-6" d="M418.47,317.53l.81-2.39-2.07-5.37h.9l1.05,3,.25.75c.08.26.17.52.25.76h0c.06-.24.14-.5.21-.76s.15-.51.22-.75l.92-3h.85l-2.63,7.76Z"/>
  <path class="cls-6" d="M422.9,309.77h.71l.08.79h0a3.87,3.87,0,0,1,.74-.67,1.61,1.61,0,0,1,.87-.26,1.43,1.43,0,0,1,.93.27,1.75,1.75,0,0,1,.5.77,4,4,0,0,1,.81-.75,1.46,1.46,0,0,1,.89-.29,1.34,1.34,0,0,1,1.18.54,2.69,2.69,0,0,1,.38,1.59v3.43h-.86v-3.31a2,2,0,0,0-.23-1.11.82.82,0,0,0-.73-.34,1.89,1.89,0,0,0-1.3.83v3.93H426v-3.31a2,2,0,0,0-.23-1.11.81.81,0,0,0-.73-.34,1.86,1.86,0,0,0-1.3.83v3.93h-.86Z"/>
  <path class="cls-6" d="M433.77,315.32a2.56,2.56,0,0,1-1-.18,2.29,2.29,0,0,1-.78-.56,2.7,2.7,0,0,1-.53-.89,3.53,3.53,0,0,1-.19-1.21,3.4,3.4,0,0,1,.19-1.18,2.78,2.78,0,0,1,.52-.91,2.33,2.33,0,0,1,.75-.57,2,2,0,0,1,.87-.19,2,2,0,0,1,.87.18,1.8,1.8,0,0,1,.65.51,2.56,2.56,0,0,1,.4.81,3.77,3.77,0,0,1,.13,1.05,2.62,2.62,0,0,1,0,.28,1.4,1.4,0,0,1,0,.23h-3.49a2.15,2.15,0,0,0,.51,1.39,1.54,1.54,0,0,0,1.2.51,1.92,1.92,0,0,0,.69-.12,2.48,2.48,0,0,0,.6-.32l.31.61a4.1,4.1,0,0,1-.75.4A2.61,2.61,0,0,1,433.77,315.32Zm1.15-3.26a2,2,0,0,0-.33-1.26,1.14,1.14,0,0,0-.95-.44,1.24,1.24,0,0,0-.53.12,1.73,1.73,0,0,0-.45.33,1.84,1.84,0,0,0-.33.53,2.54,2.54,0,0,0-.17.72Z"/>
  <path class="cls-6" d="M437,309.77h.71l.08.78h0a4.39,4.39,0,0,1,.79-.66,1.75,1.75,0,0,1,.94-.26,1.36,1.36,0,0,1,1.2.54,2.76,2.76,0,0,1,.38,1.59v3.43h-.86v-3.31a1.94,1.94,0,0,0-.24-1.11.82.82,0,0,0-.74-.34,1.2,1.2,0,0,0-.72.21,4,4,0,0,0-.7.62v3.93H437Z"/>
  <path class="cls-6" d="M444.39,315.32a1.59,1.59,0,0,1-.7-.13,1,1,0,0,1-.45-.36,1.48,1.48,0,0,1-.25-.57,3.36,3.36,0,0,1-.08-.74v-3h-.77v-.7l.81,0,.11-1.53h.72v1.53h1.39v.74h-1.39v3a1.37,1.37,0,0,0,.17.78.68.68,0,0,0,.63.28,1.18,1.18,0,0,0,.29,0,1.63,1.63,0,0,0,.29-.1l.18.69-.47.14A2,2,0,0,1,444.39,315.32Z"/>
  <path class="cls-6" d="M447.69,315.32a2.66,2.66,0,0,1-1.05-.21,3.1,3.1,0,0,1-.88-.54l.43-.59a3.13,3.13,0,0,0,.7.46,1.84,1.84,0,0,0,.83.17,1,1,0,0,0,.76-.25.79.79,0,0,0,.26-.59.67.67,0,0,0-.11-.37,1.34,1.34,0,0,0-.27-.26,2,2,0,0,0-.38-.22l-.42-.19c-.18-.06-.37-.14-.55-.22a2.76,2.76,0,0,1-.49-.32,1.48,1.48,0,0,1-.36-.43,1.2,1.2,0,0,1-.14-.59,1.54,1.54,0,0,1,.12-.61,1.48,1.48,0,0,1,.35-.49,1.69,1.69,0,0,1,.56-.33,2.47,2.47,0,0,1,.75-.11,2.17,2.17,0,0,1,.89.17,2.92,2.92,0,0,1,.71.43l-.42.58a4.1,4.1,0,0,0-.55-.34,1.45,1.45,0,0,0-.63-.13,1,1,0,0,0-.72.23.74.74,0,0,0-.22.55.58.58,0,0,0,.09.33.87.87,0,0,0,.26.24,1.75,1.75,0,0,0,.36.19l.43.18c.19.07.37.15.56.24a2.23,2.23,0,0,1,.5.31,1.59,1.59,0,0,1,.37.45,1.28,1.28,0,0,1,.14.65,1.68,1.68,0,0,1-.12.63,1.32,1.32,0,0,1-.36.51,1.79,1.79,0,0,1-.59.34A2.22,2.22,0,0,1,447.69,315.32Z"/>
  <path class="cls-6" d="M452.87,306.77h.63l-2.84,9.71H450Z"/>
  <path class="cls-6" d="M454.51,309.77h.72l.07.78h0a4.71,4.71,0,0,1,.78-.66,1.78,1.78,0,0,1,.95-.26,1.38,1.38,0,0,1,1.2.54,2.76,2.76,0,0,1,.38,1.59v3.43h-.87v-3.31a2,2,0,0,0-.23-1.11.84.84,0,0,0-.75-.34,1.19,1.19,0,0,0-.71.21,3.65,3.65,0,0,0-.7.62v3.93h-.87Z"/>
  <path class="cls-6" d="M462.4,315.32a2.61,2.61,0,0,1-1-.18,2.29,2.29,0,0,1-.78-.56,2.7,2.7,0,0,1-.53-.89,3.53,3.53,0,0,1-.19-1.21,3.4,3.4,0,0,1,.19-1.18,3,3,0,0,1,.52-.91,2.57,2.57,0,0,1,.75-.57,2,2,0,0,1,.87-.19,2.07,2.07,0,0,1,.88.18,1.86,1.86,0,0,1,.64.51,2.36,2.36,0,0,1,.4.81,3.76,3.76,0,0,1,.14,1.05c0,.09,0,.19,0,.28s0,.17,0,.23h-3.49a2.15,2.15,0,0,0,.51,1.39,1.55,1.55,0,0,0,1.2.51,1.94,1.94,0,0,0,.7-.12,2.62,2.62,0,0,0,.59-.32l.32.61a4.2,4.2,0,0,1-.76.4A2.59,2.59,0,0,1,462.4,315.32Zm1.15-3.26a2,2,0,0,0-.34-1.26,1.14,1.14,0,0,0-.95-.44,1.17,1.17,0,0,0-.52.12,1.45,1.45,0,0,0-.45.33,1.67,1.67,0,0,0-.34.53,2.54,2.54,0,0,0-.17.72Z"/>
  <path class="cls-6" d="M467.2,315.32a1.57,1.57,0,0,1-.69-.13,1,1,0,0,1-.45-.36,1.48,1.48,0,0,1-.25-.57,3.36,3.36,0,0,1-.08-.74v-3H465v-.7l.81,0,.1-1.53h.73v1.53H468v.74H466.6v3a1.37,1.37,0,0,0,.17.78.68.68,0,0,0,.62.28,1.17,1.17,0,0,0,.3,0l.29-.1.17.69-.46.14A2.09,2.09,0,0,1,467.2,315.32Z"/>
  <path class="cls-6" d="M471.19,315.32a2.47,2.47,0,0,1-.95-.18,2.25,2.25,0,0,1-.77-.56,2.5,2.5,0,0,1-.51-.89,3.45,3.45,0,0,1-.19-1.21,3.3,3.3,0,0,1,.21-1.21,2.56,2.56,0,0,1,.54-.89,2.35,2.35,0,0,1,.8-.57,2.5,2.5,0,0,1,.94-.18,1.87,1.87,0,0,1,.88.19,3,3,0,0,1,.63.45l-.45.62a2.18,2.18,0,0,0-.47-.36,1.13,1.13,0,0,0-.56-.14,1.44,1.44,0,0,0-.65.15,1.57,1.57,0,0,0-.5.43,2.06,2.06,0,0,0-.34.66,3,3,0,0,0,0,1.71,1.74,1.74,0,0,0,.33.65,1.54,1.54,0,0,0,.5.42,1.38,1.38,0,0,0,.65.15,1.54,1.54,0,0,0,.67-.16,2.57,2.57,0,0,0,.55-.38l.37.61a2.58,2.58,0,0,1-.77.51A2.33,2.33,0,0,1,471.19,315.32Z"/>
  <path class="cls-6" d="M475.17,315.32a1.63,1.63,0,0,1-.59-.1,1.35,1.35,0,0,1-.48-.32,1.41,1.41,0,0,1-.31-.5,1.73,1.73,0,0,1-.12-.66,1.58,1.58,0,0,1,.83-1.5,5,5,0,0,1,2.35-.48,2.94,2.94,0,0,0-.05-.51,1.3,1.3,0,0,0-.17-.44,1,1,0,0,0-.32-.3,1.07,1.07,0,0,0-.53-.12,2.58,2.58,0,0,0-.87.16,2.72,2.72,0,0,0-.72.38l-.34-.66a4.19,4.19,0,0,1,.9-.44,3.29,3.29,0,0,1,1.18-.2,2,2,0,0,1,.8.15,1.41,1.41,0,0,1,.56.46,2.14,2.14,0,0,1,.32.7,3.73,3.73,0,0,1,.1.91v3.34H477l-.08-.59h0a3,3,0,0,1-.8.53A2.2,2.2,0,0,1,475.17,315.32Zm.25-.73a1.67,1.67,0,0,0,.71-.15,2.36,2.36,0,0,0,.72-.49v-1.6a8.84,8.84,0,0,0-1.14.14,2.5,2.5,0,0,0-.72.25,1,1,0,0,0-.37.39,1.27,1.27,0,0,0-.1.54.84.84,0,0,0,.26.69A.93.93,0,0,0,475.42,314.59Z"/>
  <path class="cls-6" d="M479.35,309.77h.72l.07.78h0a4.39,4.39,0,0,1,.79-.66,1.75,1.75,0,0,1,.94-.26,1.37,1.37,0,0,1,1.2.54,2.76,2.76,0,0,1,.38,1.59v3.43h-.87v-3.31a2,2,0,0,0-.23-1.11.82.82,0,0,0-.75-.34,1.19,1.19,0,0,0-.71.21,3.65,3.65,0,0,0-.7.62v3.93h-.87Z"/>
  <path class="cls-6" d="M487.19,315.32a2.47,2.47,0,0,1-.95-.18,2.25,2.25,0,0,1-.77-.56,2.68,2.68,0,0,1-.52-.89,3.71,3.71,0,0,1-.18-1.21,3.53,3.53,0,0,1,.2-1.21,2.74,2.74,0,0,1,.55-.89,2.31,2.31,0,0,1,.79-.57,2.55,2.55,0,0,1,.95-.18,1.8,1.8,0,0,1,.87.19,3,3,0,0,1,.64.45l-.45.62a2.18,2.18,0,0,0-.47-.36,1.16,1.16,0,0,0-.56-.14,1.41,1.41,0,0,0-.65.15,1.5,1.5,0,0,0-.51.43,2.27,2.27,0,0,0-.33.66,2.57,2.57,0,0,0-.13.85,2.88,2.88,0,0,0,.12.86,1.88,1.88,0,0,0,.32.65,1.57,1.57,0,0,0,.51.42,1.38,1.38,0,0,0,.65.15,1.46,1.46,0,0,0,.66-.16,2.15,2.15,0,0,0,.55-.38l.37.61a2.35,2.35,0,0,1-.77.51A2.25,2.25,0,0,1,487.19,315.32Z"/>
  <path class="cls-6" d="M491.85,315.32a2.58,2.58,0,0,1-1-.18,2.29,2.29,0,0,1-.78-.56,2.7,2.7,0,0,1-.53-.89,3.53,3.53,0,0,1-.19-1.21,3.4,3.4,0,0,1,.19-1.18,2.78,2.78,0,0,1,.52-.91,2.57,2.57,0,0,1,.75-.57,2,2,0,0,1,.87-.19,2.07,2.07,0,0,1,.88.18,1.86,1.86,0,0,1,.64.51,2.36,2.36,0,0,1,.4.81,3.76,3.76,0,0,1,.14,1.05c0,.09,0,.19,0,.28s0,.17,0,.23h-3.49a2.15,2.15,0,0,0,.51,1.39,1.55,1.55,0,0,0,1.2.51,1.88,1.88,0,0,0,.69-.12,2.48,2.48,0,0,0,.6-.32l.32.61a4.2,4.2,0,0,1-.76.4A2.59,2.59,0,0,1,491.85,315.32Zm1.15-3.26a2,2,0,0,0-.34-1.26,1.14,1.14,0,0,0-1-.44,1.17,1.17,0,0,0-.52.12,1.62,1.62,0,0,0-.46.33,1.84,1.84,0,0,0-.33.53,2.54,2.54,0,0,0-.17.72Z"/>
  <path class="cls-6" d="M495,315.19v-8h.86v8Z"/>
  <path class="cls-6" d="M573,348.49c-.47.09-1,.16-1.45.21s-1,.1-1.47.13v3.68h-.94v-3.62l-1.46,0-1.37,0-.12-.83h1.56c.55,0,1.12,0,1.7,0s1.17-.06,1.76-.1,1.16-.11,1.73-.2Zm-6.33-1.92a4,4,0,0,0,1-.38,3.27,3.27,0,0,0,.78-.57,2.22,2.22,0,0,0,.5-.72,2,2,0,0,0,.18-.82v0h-2.26v-.77h2.25v-1.2H570v1.2h2.26v.77H570v0a1.71,1.71,0,0,0,.18.77,2.14,2.14,0,0,0,.5.67,3.12,3.12,0,0,0,.77.54,4.31,4.31,0,0,0,1,.37l-.37.77a4.64,4.64,0,0,1-1.54-.7,3.07,3.07,0,0,1-1-1.13,3.25,3.25,0,0,1-1,1.23,4.31,4.31,0,0,1-1.55.75Zm7.93-4.5v10.77h-.93V342.07Z"/>
  <path class="cls-6" d="M586,350.62v.8h-9.28v-.8h4.13V348h.93v2.62Zm-.86-2.49a6.15,6.15,0,0,1-1.16-.4,6.28,6.28,0,0,1-1.09-.65,5.89,5.89,0,0,1-.92-.88,4.54,4.54,0,0,1-.66-1.07,4.5,4.5,0,0,1-.65,1.07,5.48,5.48,0,0,1-.92.88,6.68,6.68,0,0,1-1.09.65,5.58,5.58,0,0,1-1.17.4l-.39-.81a4.67,4.67,0,0,0,1.34-.47,5.16,5.16,0,0,0,1.2-.84,4.36,4.36,0,0,0,.86-1.11,2.69,2.69,0,0,0,.33-1.29v-.83h1v.83a2.69,2.69,0,0,0,.33,1.29A4.19,4.19,0,0,0,583,346a5.62,5.62,0,0,0,1.2.84,4.77,4.77,0,0,0,1.34.47Z"/>
  <path class="cls-6" d="M569.72,359.94a4.54,4.54,0,0,0,.2,1.32,5.54,5.54,0,0,0,.55,1.21,4.52,4.52,0,0,0,.83,1,4.05,4.05,0,0,0,1.05.71l-.52.75a4.55,4.55,0,0,1-1.55-1.24,5.88,5.88,0,0,1-1-1.9,6.11,6.11,0,0,1-1,2,4.53,4.53,0,0,1-1.54,1.34l-.53-.76a4.35,4.35,0,0,0,1-.75,5.71,5.71,0,0,0,.83-1.06,5.34,5.34,0,0,0,.54-1.27,4.92,4.92,0,0,0,.19-1.37v-.83h-2.31v-.79h2.3v-1.67h.93v1.67H572v.79h-2.27Zm4.89-3.49v10.8h-.93v-5.67h-2.21v-.8h2.21v-4.33Z"/>
  <path class="cls-6" d="M578.21,363.83l1.23,0,1.2-.06,1.24-.12c.41-.05.85-.11,1.3-.19l.09.8c-.47.08-.91.15-1.34.2l-1.27.12-1.26.05c-.42,0-.84,0-1.29,0h-.84V360.5H581v-2.24h-3.79v-.8H582v3.85h-3.76Zm6.86-7.38v10.79h-.94V356.45Z"/>
  <path class="cls-4" d="M529.37,321.94a30,30,0,0,1,0,60"/>
  <polygon class="cls-5" points="524.74 329.08 524.74 314.68 536.74 321.88 524.74 329.08"/>
  <polygon class="cls-5" points="536.74 374.33 536.74 388.73 524.74 381.53 536.74 374.33"/>
  <path class="cls-6" d="M411.62,257.74c.55,0,1.09,0,1.62-.08a14.24,14.24,0,0,0,1.69-.26l.12.83a15.86,15.86,0,0,1-1.89.29c-.59,0-1.2.07-1.81.07h-.65V251.7h.92Zm4.2-6.92h.89v9.95h-.89V255h-2.28v-.81h2.28Zm3.06-.28v10.77H418V250.54Z"/>
  <path class="cls-6" d="M430,259.12v.8h-9.28v-.8Zm-1.07-2h-7v-5.67h6.91v.8h-6v1.59h5.74v.77h-5.74v1.72h6.07Z"/>
  <path class="cls-6" d="M437.92,256.61c-.5.09-1,.16-1.52.21s-1,.09-1.51.12V261H434v-4l-1.4,0h-1.3l-.11-.83h1.55c.55,0,1.12,0,1.7,0s1.17-.05,1.76-.1,1.16-.11,1.71-.2Zm-3.46-1.29a3.39,3.39,0,0,1-1-.15,2.42,2.42,0,0,1-.81-.43,2,2,0,0,1-.52-.67,2,2,0,0,1-.19-.88,1.9,1.9,0,0,1,.19-.86,2,2,0,0,1,.52-.67,2.42,2.42,0,0,1,.81-.43,3.68,3.68,0,0,1,2.08,0,2.24,2.24,0,0,1,.81.43,2,2,0,0,1,.52.67,1.9,1.9,0,0,1,.19.86,2,2,0,0,1-.19.88,2,2,0,0,1-.52.67,2.24,2.24,0,0,1-.81.43A3.39,3.39,0,0,1,434.46,255.32Zm0-3.48a2,2,0,0,0-1.22.37,1.28,1.28,0,0,0,0,2,2,2,0,0,0,1.22.37,2,2,0,0,0,1.23-.37,1.3,1.3,0,0,0,0-2A2,2,0,0,0,434.46,251.84Zm5.11-1.28v10.76h-.93v-2.65h-2.32v-.77h2.32v-7.34Z"/>
  <path class="cls-6" d="M450.92,259v.8h-9.25V259Zm-2.08-4.38c0-.28,0-.56,0-.84v-1.35h-6.09v-.8h7V253c0,.4,0,.79,0,1.18s0,.79,0,1.21-.07.87-.13,1.34-.15,1-.26,1.53l-.92-.1c.11-.52.19-1,.25-1.45s.11-.88.14-1.3l-6.17.36-.14-.81Z"/>
  <path class="cls-6" d="M464,257.48h-2.42v3.83h-.93v-3.83H458v3.83h-.94v-3.83H454.7v-.8H464Zm-4.64-1.81a5.91,5.91,0,0,1-1.45-.16,3.53,3.53,0,0,1-1.13-.47,2.15,2.15,0,0,1-.73-.74,1.82,1.82,0,0,1-.26-1,1.79,1.79,0,0,1,.26-1,2.15,2.15,0,0,1,.73-.74,3.77,3.77,0,0,1,1.13-.47,5.91,5.91,0,0,1,1.45-.16,6,6,0,0,1,1.46.16,3.66,3.66,0,0,1,1.13.47,2.27,2.27,0,0,1,.74.74,1.88,1.88,0,0,1,.26,1,1.91,1.91,0,0,1-.26,1,2.27,2.27,0,0,1-.74.74,3.43,3.43,0,0,1-1.13.47A6,6,0,0,1,459.31,255.67Zm0-3.9a4.84,4.84,0,0,0-1.05.11,3,3,0,0,0-.83.31,1.58,1.58,0,0,0-.53.49,1.1,1.1,0,0,0-.19.64,1.13,1.13,0,0,0,.19.65,1.58,1.58,0,0,0,.53.49,2.71,2.71,0,0,0,.83.31,4.84,4.84,0,0,0,1.05.11,5.1,5.1,0,0,0,1.07-.11,2.71,2.71,0,0,0,.83-.31,1.58,1.58,0,0,0,.53-.49,1.13,1.13,0,0,0,.19-.65,1.1,1.1,0,0,0-.19-.64,1.58,1.58,0,0,0-.53-.49,3,3,0,0,0-.83-.31A5.1,5.1,0,0,0,459.31,251.77Z"/>
  <path class="cls-6" d="M470.91,255.82a4.37,4.37,0,0,1-1.55-1,4.21,4.21,0,0,1-1-1.51,4.47,4.47,0,0,1-1,1.64,4.52,4.52,0,0,1-1.59,1l-.48-.77a4.17,4.17,0,0,0,1.06-.57,4,4,0,0,0,.82-.83,3.81,3.81,0,0,0,.53-1,3.68,3.68,0,0,0,.19-1.14v-.82h.93v.82a3.08,3.08,0,0,0,.2,1.08,3.49,3.49,0,0,0,.53,1,4.11,4.11,0,0,0,1.86,1.32Zm3,4.59v.77H467v-2.66h5.68v-1.07H467v-.77h6.62v2.58H467.9v1.15Zm-.35-4.28h-.94v-5.57h.94Z"/>
  <path class="cls-6" d="M432.37,270.1h-4.74v-4.72h.92v1.55h2.9v-1.55h.92Zm-.92-2.4h-2.9v1.6h2.9Zm-1.85,7.11h5.93v.77h-6.85V272.9h5.54v-1.1h-5.58V271h6.5v2.61H429.6Zm7.06-7.53v.8h-1.52v2.44h-.93V265h.93v2.31Z"/>
  <path class="cls-6" d="M442.31,270.76a3.73,3.73,0,0,1-1.23-.86,4.24,4.24,0,0,1-.79-1.23,4.79,4.79,0,0,1-.8,1.4,3.77,3.77,0,0,1-1.28,1l-.51-.77a3.08,3.08,0,0,0,.9-.6,4.25,4.25,0,0,0,.67-.8,3.81,3.81,0,0,0,.42-.89,3.06,3.06,0,0,0,.15-.93v-1.45h.9v1.45a2.66,2.66,0,0,0,.14.88,3.18,3.18,0,0,0,.4.83,3.63,3.63,0,0,0,.65.71,3.32,3.32,0,0,0,.88.51Zm.64,1.08a6.87,6.87,0,0,1,1.42.13,3.62,3.62,0,0,1,1.07.38,1.86,1.86,0,0,1,.69.6,1.5,1.5,0,0,1,0,1.63,1.88,1.88,0,0,1-.69.61,3.93,3.93,0,0,1-1.07.38,7.82,7.82,0,0,1-2.84,0,3.93,3.93,0,0,1-1.07-.38,1.93,1.93,0,0,1-.68-.61,1.5,1.5,0,0,1,0-1.63,1.9,1.9,0,0,1,.68-.6,3.62,3.62,0,0,1,1.07-.38A6.8,6.8,0,0,1,443,271.84Zm0,3.09a4.52,4.52,0,0,0,1.83-.3.94.94,0,0,0,.66-.87.93.93,0,0,0-.66-.86,5.7,5.7,0,0,0-3.65,0,1,1,0,0,0-.67.86,1,1,0,0,0,.67.87A4.5,4.5,0,0,0,443,274.93Zm1.17-3.68h-.89v-6.09h.89v2.68h1.3V265h.9v6.64h-.9v-3h-1.3Z"/>
  <path class="cls-6" d="M451.81,267.82a5.21,5.21,0,0,0,.21,1.46,6,6,0,0,0,.59,1.34,5.92,5.92,0,0,0,.87,1.11,3.55,3.55,0,0,0,1.06.75l-.56.8a5,5,0,0,1-1.57-1.35,6.59,6.59,0,0,1-1.06-2.06A6.84,6.84,0,0,1,450.3,272a4.9,4.9,0,0,1-1.59,1.44l-.57-.8a4.55,4.55,0,0,0,1.06-.8,5.61,5.61,0,0,0,.87-1.15,6.49,6.49,0,0,0,.6-1.4,5.56,5.56,0,0,0,.21-1.51v-1.94h.93Zm4.74-2.87v10.79h-.94V265Z"/>
  <path class="cls-6" d="M576.13,105.55a2.65,2.65,0,0,1-.21,1.07,2.47,2.47,0,0,1-.56.84,2.67,2.67,0,0,1-.86.56,2.81,2.81,0,0,1-1.06.19,2.76,2.76,0,0,1-1.05-.19,2.62,2.62,0,0,1-.85-.56,2.34,2.34,0,0,1-.56-.84,2.94,2.94,0,0,1,0-2.13,2.34,2.34,0,0,1,.56-.84,2.45,2.45,0,0,1,.85-.55,3,3,0,0,1,1.05-.19,3,3,0,0,1,1.06.19,2.47,2.47,0,0,1,1.42,1.39A2.64,2.64,0,0,1,576.13,105.55Zm-4.43,0a2.15,2.15,0,0,0,.13.73,1.65,1.65,0,0,0,.37.58,1.62,1.62,0,0,0,.55.37,1.73,1.73,0,0,0,.69.13,1.78,1.78,0,0,0,.7-.13,1.66,1.66,0,0,0,.56-.37,1.52,1.52,0,0,0,.37-.58,1.93,1.93,0,0,0,.13-.73,1.88,1.88,0,0,0-.13-.72,1.52,1.52,0,0,0-.37-.56,1.68,1.68,0,0,0-.56-.38,2,2,0,0,0-.7-.13,1.93,1.93,0,0,0-.69.13,1.64,1.64,0,0,0-.55.38,1.66,1.66,0,0,0-.37.56A2.09,2.09,0,0,0,571.7,105.55Zm7.54,6.32v.81h-6.89v-3.46h.94v2.65Zm-.31-1.84H578v-7.86h.93Z"/>
  <path class="cls-6" d="M590.27,107.28v.79H581v-.79Zm-8.72-1.44a6.22,6.22,0,0,0,1.31-.28A5.33,5.33,0,0,0,584,105a2.67,2.67,0,0,0,.78-.7,1.5,1.5,0,0,0,.31-.84h-3.17v-.79h7.56v.79h-3.18a1.43,1.43,0,0,0,.31.84,3,3,0,0,0,.78.7,5.19,5.19,0,0,0,1.11.52,6.13,6.13,0,0,0,1.3.28l-.33.78a8.29,8.29,0,0,1-1.22-.27,5.33,5.33,0,0,1-1.09-.46,4.85,4.85,0,0,1-.88-.64,2.6,2.6,0,0,1-.58-.8,3.05,3.05,0,0,1-.6.8,4.85,4.85,0,0,1-.88.64,5.24,5.24,0,0,1-1.08.46,8,8,0,0,1-1.22.27Zm4.09,3.17a8,8,0,0,1,1.46.12,3.83,3.83,0,0,1,1.1.38,1.89,1.89,0,0,1,.69.61,1.56,1.56,0,0,1,0,1.66,1.82,1.82,0,0,1-.69.62,3.55,3.55,0,0,1-1.1.38,7.92,7.92,0,0,1-1.46.13,5.4,5.4,0,0,1-2.57-.51,1.59,1.59,0,0,1,0-2.89A5.41,5.41,0,0,1,585.64,109Zm0,3.13a4.69,4.69,0,0,0,1.88-.3,1,1,0,0,0,.68-.88,1,1,0,0,0-.68-.88,4.67,4.67,0,0,0-1.88-.31,4.76,4.76,0,0,0-1.89.31,1,1,0,0,0-.67.88,1,1,0,0,0,.67.88A4.78,4.78,0,0,0,585.64,112.14Z"/>
  <path class="cls-6" d="M574.07,120a4.54,4.54,0,0,0,.2,1.32,5.61,5.61,0,0,0,.55,1.22,4.7,4.7,0,0,0,.83,1,3.82,3.82,0,0,0,1.05.71l-.52.76a4.58,4.58,0,0,1-1.55-1.25,5.87,5.87,0,0,1-1-1.9,5.92,5.92,0,0,1-1,2,4.53,4.53,0,0,1-1.54,1.34l-.53-.75a4.7,4.7,0,0,0,1-.76,5.12,5.12,0,0,0,.83-1.06,5.44,5.44,0,0,0,.54-1.26,4.94,4.94,0,0,0,.19-1.38v-.82h-2.31v-.8h2.3v-1.66h.93v1.66h2.27v.8h-2.27Zm4.9-3.49v10.8H578v-5.66h-2.21v-.81H578v-4.33Z"/>
  <path class="cls-6" d="M582.56,123.92c.41,0,.82,0,1.23,0l1.21-.06q.6,0,1.23-.12l1.3-.18.09.8c-.47.08-.91.14-1.34.19l-1.27.12q-.63,0-1.26.06l-1.28,0h-.85V120.6h3.76v-2.25h-3.79v-.8h4.73v3.85h-3.76Zm6.86-7.38v10.79h-.94V116.54Z"/>
  <path class="cls-6" d="M 579.18 197.906 L 579.18 198.706 L 569.93 198.706 L 569.93 197.906 Z M 578.3 197.056 C 577.905 196.988 577.516 196.885 577.14 196.746 C 576.791 196.608 576.457 196.437 576.14 196.236 C 575.817 196.043 575.518 195.811 575.25 195.546 C 574.999 195.299 574.787 195.016 574.62 194.706 C 574.448 195.019 574.233 195.305 573.98 195.556 C 573.707 195.813 573.409 196.041 573.09 196.236 C 572.755 196.442 572.4 196.613 572.03 196.746 C 571.653 196.885 571.265 196.988 570.87 197.056 L 570.53 196.286 C 570.987 196.217 571.433 196.093 571.86 195.916 C 572.27 195.759 572.657 195.547 573.01 195.286 C 573.329 195.055 573.604 194.767 573.82 194.436 C 574.021 194.141 574.129 193.793 574.13 193.436 L 574.13 192.956 L 575.13 192.956 L 575.13 193.436 C 575.128 193.794 575.236 194.143 575.44 194.436 C 575.659 194.764 575.933 195.052 576.25 195.286 C 576.604 195.552 576.99 195.77 577.4 195.936 C 577.828 196.108 578.274 196.232 578.73 196.306 Z M 574.55 199.726 C 575.43 199.68 576.309 199.848 577.11 200.216 C 577.676 200.461 578.042 201.019 578.04 201.636 C 578.045 201.931 577.961 202.22 577.8 202.466 C 577.618 202.716 577.382 202.921 577.11 203.066 C 576.768 203.245 576.4 203.37 576.02 203.436 C 575.536 203.53 575.043 203.573 574.55 203.566 C 573.666 203.608 572.784 203.436 571.98 203.066 C 571.414 202.816 571.049 202.255 571.05 201.636 C 571.047 201.348 571.13 201.066 571.29 200.826 C 571.466 200.572 571.704 200.366 571.98 200.226 C 572.328 200.043 572.702 199.915 573.09 199.846 C 573.572 199.762 574.061 199.722 574.55 199.726 Z M 574.55 202.796 C 575.19 202.823 575.828 202.725 576.43 202.506 C 576.814 202.392 577.083 202.046 577.1 201.646 C 577.108 201.211 576.813 200.829 576.39 200.726 C 575.79 200.499 575.151 200.397 574.51 200.426 C 573.866 200.398 573.223 200.5 572.62 200.726 C 572.17 200.926 571.94 201.206 571.94 201.576 C 571.975 201.973 572.242 202.311 572.62 202.436 C 573.238 202.659 573.894 202.757 574.55 202.726 Z"/>
  <path class="cls-6" d="M 586 196.166 C 586.008 196.533 585.94 196.897 585.8 197.236 C 585.669 197.552 585.475 197.838 585.23 198.076 C 584.986 198.317 584.697 198.507 584.38 198.636 C 583.696 198.89 582.944 198.89 582.26 198.636 C 581.947 198.504 581.662 198.314 581.42 198.076 C 581.174 197.84 580.983 197.554 580.86 197.236 C 580.594 196.551 580.594 195.791 580.86 195.106 C 580.983 194.789 581.174 194.502 581.42 194.266 C 581.66 194.028 581.946 193.841 582.26 193.716 C 582.944 193.463 583.696 193.463 584.38 193.716 C 584.698 193.838 584.988 194.026 585.23 194.266 C 585.475 194.504 585.669 194.79 585.8 195.106 C 585.939 195.442 586.007 195.803 586 196.166 Z M 581.58 196.166 C 581.576 196.416 581.62 196.664 581.71 196.896 C 581.791 197.114 581.917 197.311 582.08 197.476 C 582.234 197.638 582.422 197.765 582.63 197.846 C 582.849 197.936 583.083 197.981 583.32 197.976 C 583.56 197.979 583.797 197.935 584.02 197.846 C 584.461 197.665 584.801 197.3 584.95 196.846 C 585.04 196.614 585.084 196.366 585.08 196.116 C 585.084 195.87 585.04 195.625 584.95 195.396 C 584.866 195.186 584.74 194.996 584.58 194.836 C 584.421 194.673 584.23 194.544 584.02 194.456 C 583.796 194.371 583.559 194.327 583.32 194.326 C 583.084 194.327 582.85 194.371 582.63 194.456 C 582.421 194.541 582.233 194.671 582.08 194.836 C 581.92 194.996 581.794 195.186 581.71 195.396 C 581.613 195.641 581.569 195.903 581.58 196.166 Z M 589.12 202.486 L 589.12 203.296 L 582.23 203.296 L 582.23 199.836 L 583.17 199.836 L 583.17 202.486 Z M 588.81 200.646 L 587.87 200.646 L 587.87 192.786 L 588.81 192.786 Z"/>
  <path class="cls-6" d="M 573.46 210.646 C 573.461 211.094 573.529 211.539 573.66 211.966 C 573.794 212.393 573.979 212.803 574.21 213.186 C 574.439 213.556 574.718 213.893 575.04 214.186 C 575.348 214.48 575.703 214.72 576.09 214.896 L 575.57 215.656 C 574.968 215.358 574.439 214.932 574.02 214.406 C 573.573 213.84 573.234 213.196 573.02 212.506 C 572.817 213.23 572.477 213.909 572.02 214.506 C 571.615 215.064 571.089 215.523 570.48 215.846 L 569.95 215.096 C 570.316 214.889 570.652 214.633 570.95 214.336 C 571.272 214.021 571.551 213.665 571.78 213.276 C 572.012 212.881 572.194 212.457 572.32 212.016 C 572.448 211.568 572.512 211.103 572.51 210.636 L 572.51 209.816 L 570.2 209.816 L 570.2 209.016 L 572.5 209.016 L 572.5 207.356 L 573.43 207.356 L 573.43 209.016 L 575.7 209.016 L 575.7 209.816 L 573.43 209.816 Z M 578.36 207.156 L 578.36 217.956 L 577.39 217.956 L 577.39 212.296 L 575.18 212.296 L 575.18 211.486 L 577.39 211.486 L 577.39 207.156 Z"/>
  <path class="cls-6" d="M 581.95 214.536 C 582.36 214.536 582.77 214.536 583.18 214.536 L 584.39 214.476 C 584.79 214.476 585.2 214.436 585.62 214.356 L 586.92 214.176 L 587.01 214.976 C 586.54 215.056 586.1 215.116 585.67 215.166 L 584.4 215.286 C 583.98 215.286 583.56 215.306 583.14 215.346 L 581.86 215.346 L 581.01 215.346 L 581.01 211.216 L 584.77 211.216 L 584.77 208.966 L 580.98 208.966 L 580.98 208.166 L 585.71 208.166 L 585.71 212.016 L 581.95 212.016 Z M 588.81 207.156 L 588.81 217.946 L 587.87 217.946 L 587.87 207.156 Z"/>
  <path class="cls-4" d="M531.88,82a30,30,0,0,1,0,60"/>
  <path class="cls-7" d="M529.37,182c-16.57,0-30-3.43-30-20s13.43-20,30-20"/>
  <polygon class="cls-8" points="356.75 374.33 356.75 388.73 344.75 381.53 356.75 374.33"/>
  <polygon class="cls-8" points="344.75 329.08 344.75 314.68 356.75 321.88 344.75 329.08"/>
  <path class="cls-1" d="M 350.32 231.82 L 350.32 231.82 C 355.843 231.82 360.32 236.297 360.32 241.82 L 360.32 241.82 C 360.32 247.343 355.843 251.82 350.32 251.82 L 350.32 251.82 C 344.797 251.82 340.32 247.343 340.32 241.82 L 340.32 241.82 C 340.32 236.297 344.797 231.82 350.32 231.82 Z"/>
  <path class="cls-8" d="M 352.91 237.82 L 350.32 240.41 L 347.73 237.82 L 346.32 239.23 L 348.91 241.82 L 346.32 244.41 L 347.73 245.82 L 350.32 243.23 L 352.91 245.82 L 354.32 244.41 L 351.73 241.82 L 354.32 239.23 Z M 350.32 231.82 C 342.622 231.82 337.811 240.153 341.66 246.82 C 345.509 253.487 355.131 253.487 358.98 246.82 C 359.858 245.3 360.32 243.575 360.32 241.82 C 360.32 236.297 355.843 231.82 350.32 231.82 Z M 350.32 249.82 C 344.162 249.82 340.313 243.153 343.392 237.82 C 346.471 232.487 354.169 232.487 357.248 237.82 C 357.95 239.036 358.32 240.416 358.32 241.82 C 358.32 246.238 354.738 249.82 350.32 249.82 Z"/>
  <line class="cls-4" x1="530.17" y1="82.03" x2="170.17" y2="82.03"/>
  <path class="cls-6" d="M 197.902 101.56 C 197.425 101.577 196.952 101.455 196.542 101.21 C 196.146 100.965 195.822 100.62 195.602 100.21 L 196.352 99.65 C 196.5 99.95 196.72 100.208 196.992 100.4 C 197.235 100.553 197.516 100.632 197.802 100.63 C 198.185 100.655 198.557 100.495 198.802 100.2 C 199.06 99.766 199.175 99.263 199.132 98.76 L 199.132 92.61 L 200.192 92.61 L 200.192 98.83 C 200.193 99.188 200.145 99.545 200.052 99.89 C 199.977 100.203 199.841 100.499 199.652 100.76 C 199.46 101.009 199.214 101.21 198.932 101.35 C 198.609 101.497 198.257 101.569 197.902 101.56 Z"/>
  <path class="cls-6" d="M 204.782 101.56 C 204.217 101.568 203.658 101.452 203.142 101.22 C 202.651 100.974 202.213 100.634 201.852 100.22 L 202.482 99.46 C 202.778 99.795 203.139 100.067 203.542 100.26 C 203.932 100.449 204.359 100.548 204.792 100.55 C 205.254 100.573 205.71 100.436 206.082 100.16 C 206.376 99.911 206.548 99.546 206.552 99.16 C 206.555 98.965 206.518 98.77 206.442 98.59 C 206.366 98.437 206.265 98.299 206.142 98.18 C 206.009 98.062 205.861 97.961 205.702 97.88 L 205.152 97.6 L 203.952 97.05 C 203.746 96.955 203.546 96.848 203.352 96.73 C 203.15 96.605 202.967 96.45 202.812 96.27 C 202.637 96.088 202.498 95.874 202.402 95.64 C 202.298 95.369 202.247 95.081 202.252 94.79 C 202.246 94.469 202.314 94.15 202.452 93.86 C 202.578 93.576 202.762 93.32 202.992 93.11 C 203.239 92.898 203.524 92.735 203.832 92.63 C 204.169 92.508 204.524 92.447 204.882 92.45 C 205.362 92.446 205.837 92.548 206.272 92.75 C 206.68 92.941 207.044 93.213 207.342 93.55 L 206.792 94.25 C 206.539 94.006 206.249 93.804 205.932 93.65 C 205.619 93.505 205.277 93.43 204.932 93.43 C 204.524 93.406 204.12 93.526 203.792 93.77 C 203.498 94.016 203.342 94.388 203.372 94.77 C 203.366 94.961 203.407 95.15 203.492 95.32 C 203.573 95.472 203.682 95.608 203.812 95.72 C 203.948 95.837 204.1 95.934 204.262 96.01 L 204.752 96.24 L 205.952 96.78 C 206.185 96.885 206.409 97.009 206.622 97.15 C 206.832 97.277 207.018 97.439 207.172 97.63 C 207.334 97.819 207.46 98.036 207.542 98.27 C 207.631 98.548 207.675 98.838 207.672 99.13 C 207.676 99.474 207.608 99.815 207.472 100.13 C 207.334 100.427 207.141 100.696 206.902 100.92 C 206.645 101.156 206.342 101.337 206.012 101.45 C 205.612 101.562 205.195 101.599 204.782 101.56 Z"/>
  <path class="cls-6" d="M 214.142 101.56 C 213.577 101.568 213.018 101.452 212.502 101.22 C 212.01 100.976 211.571 100.636 211.212 100.22 L 211.842 99.46 C 212.138 99.795 212.499 100.067 212.902 100.26 C 213.292 100.449 213.719 100.548 214.152 100.55 C 214.614 100.573 215.07 100.436 215.442 100.16 C 215.734 99.91 215.902 99.545 215.902 99.16 C 215.908 98.965 215.874 98.771 215.802 98.59 C 215.726 98.437 215.625 98.299 215.502 98.18 C 215.369 98.062 215.221 97.961 215.062 97.88 L 214.512 97.6 L 213.312 97.05 C 213.106 96.955 212.906 96.848 212.712 96.73 C 212.51 96.605 212.327 96.45 212.172 96.27 C 211.997 96.088 211.858 95.874 211.762 95.64 C 211.658 95.369 211.607 95.081 211.612 94.79 C 211.606 94.469 211.674 94.15 211.812 93.86 C 211.938 93.576 212.122 93.32 212.352 93.11 C 212.599 92.898 212.884 92.735 213.192 92.63 C 213.513 92.514 213.851 92.453 214.192 92.45 C 214.672 92.446 215.147 92.548 215.582 92.75 C 215.99 92.941 216.354 93.213 216.652 93.55 L 216.092 94.25 C 215.844 94.004 215.557 93.801 215.242 93.65 C 214.913 93.498 214.554 93.423 214.192 93.43 C 213.784 93.406 213.38 93.526 213.052 93.77 C 212.758 94.016 212.602 94.388 212.632 94.77 C 212.626 94.961 212.667 95.15 212.752 95.32 C 212.833 95.472 212.942 95.608 213.072 95.72 C 213.208 95.837 213.36 95.934 213.522 96.01 L 214.012 96.24 L 215.212 96.78 C 215.445 96.885 215.669 97.009 215.882 97.15 C 216.09 97.28 216.276 97.442 216.432 97.63 C 216.594 97.819 216.72 98.036 216.802 98.27 C 216.891 98.548 216.935 98.838 216.932 99.13 C 216.936 99.474 216.868 99.815 216.732 100.13 C 216.594 100.427 216.401 100.696 216.162 100.92 C 215.905 101.156 215.602 101.337 215.272 101.45 C 214.904 101.549 214.522 101.586 214.142 101.56 Z"/>
  <path class="cls-6" d="M 218.622 92.61 L 220.712 92.61 C 221.811 92.536 222.886 92.949 223.652 93.74 C 224.376 94.659 224.733 95.813 224.652 96.98 C 224.661 97.61 224.573 98.237 224.392 98.84 C 224.242 99.354 223.987 99.831 223.642 100.24 C 223.311 100.624 222.892 100.922 222.422 101.11 C 221.894 101.319 221.33 101.421 220.762 101.41 L 218.622 101.41 Z M 220.622 100.48 C 221.467 100.546 222.292 100.204 222.842 99.56 C 223.368 98.803 223.625 97.891 223.572 96.97 C 223.633 96.052 223.375 95.141 222.842 94.39 C 222.281 93.764 221.46 93.435 220.622 93.5 L 219.682 93.5 L 219.682 100.5 Z"/>
  <path class="cls-6" d="M 226.452 92.61 L 227.532 92.61 L 227.532 97.03 L 227.532 97.03 L 231.022 92.61 L 232.212 92.61 L 229.602 95.96 L 232.602 101.41 L 231.412 101.41 L 228.922 96.82 L 227.532 98.62 L 227.532 101.41 L 226.472 101.41 Z"/>
  <path class="cls-6" d="M 242.532 96.54 L 242.532 97.28 L 233.262 97.28 L 233.262 96.54 Z M 235.312 101.44 L 241.692 101.44 L 241.692 102.15 L 234.392 102.15 L 234.392 99.74 L 240.452 99.74 L 240.452 98.84 L 234.362 98.84 L 234.362 98.14 L 241.362 98.14 L 241.362 100.43 L 235.332 100.43 Z M 240.422 92.54 L 234.422 92.54 L 234.422 91.84 L 241.342 91.84 L 241.342 94.09 L 235.342 94.09 L 235.342 95.01 L 241.532 95.01 L 241.532 95.74 L 234.452 95.74 L 234.452 93.44 L 240.452 93.44 Z"/>
  <path class="cls-6" d="M 255.532 97.23 L 255.532 98.02 L 246.272 98.02 L 246.272 97.23 L 250.432 97.23 L 250.432 96.23 L 247.532 96.23 L 247.532 91.84 L 254.422 91.84 L 254.422 92.61 L 248.422 92.61 L 248.422 93.61 L 254.112 93.61 L 254.112 94.35 L 248.422 94.35 L 248.422 95.41 L 254.422 95.41 L 254.422 96.18 L 251.342 96.18 L 251.342 97.18 Z M 250.902 98.84 C 251.784 98.799 252.664 98.949 253.482 99.28 C 254.467 99.61 254.726 100.884 253.947 101.572 C 253.812 101.691 253.654 101.783 253.482 101.84 C 251.809 102.427 249.985 102.427 248.312 101.84 C 247.327 101.486 247.094 100.199 247.893 99.522 C 248.017 99.417 248.159 99.335 248.312 99.28 C 249.146 98.943 250.044 98.793 250.942 98.84 Z M 250.902 101.54 C 251.545 101.568 252.188 101.483 252.802 101.29 C 253.242 101.13 253.462 100.88 253.462 100.55 C 253.462 100.22 253.242 99.99 252.802 99.82 C 251.554 99.487 250.24 99.487 248.992 99.82 C 248.552 99.99 248.332 100.24 248.332 100.55 C 248.332 100.86 248.552 101.13 248.992 101.29 C 249.622 101.488 250.282 101.573 250.942 101.54 Z"/>
  <path class="cls-6" d="M 259.792 93.37 L 261.872 93.37 L 261.872 94.17 L 256.802 94.17 L 256.802 93.37 L 258.872 93.37 L 258.872 91.84 L 259.792 91.84 Z M 259.342 94.89 C 259.943 94.873 260.519 95.126 260.912 95.58 C 261.11 95.806 261.263 96.067 261.362 96.35 C 261.591 96.997 261.591 97.703 261.362 98.35 C 261.261 98.635 261.108 98.9 260.912 99.13 C 260.716 99.339 260.482 99.509 260.222 99.63 C 259.66 99.87 259.024 99.87 258.462 99.63 C 258.199 99.515 257.964 99.344 257.772 99.13 C 257.573 98.9 257.417 98.636 257.312 98.35 C 257.096 97.701 257.096 96.999 257.312 96.35 C 257.415 96.066 257.571 95.805 257.772 95.58 C 257.961 95.361 258.197 95.187 258.462 95.07 C 258.739 94.948 259.039 94.887 259.342 94.89 Z M 259.342 99 C 259.532 99.002 259.72 98.961 259.892 98.88 C 260.054 98.792 260.196 98.673 260.312 98.53 C 260.435 98.374 260.529 98.198 260.592 98.01 C 260.725 97.58 260.725 97.12 260.592 96.69 C 260.532 96.504 260.437 96.331 260.312 96.18 C 260.199 96.037 260.055 95.921 259.892 95.84 C 259.72 95.759 259.532 95.718 259.342 95.72 C 258.954 95.703 258.581 95.874 258.342 96.18 C 258.081 96.509 257.946 96.921 257.962 97.34 C 257.957 97.568 257.991 97.794 258.062 98.01 C 258.121 98.2 258.216 98.377 258.342 98.53 C 258.459 98.676 258.606 98.795 258.772 98.88 C 258.95 98.964 259.145 99.005 259.342 99 Z M 265.472 91.52 L 265.472 102.28 L 264.532 102.28 L 264.532 96.87 L 263.212 96.87 L 263.212 101.74 L 262.342 101.74 L 262.342 91.74 L 263.212 91.74 L 263.212 96.04 L 264.532 96.04 L 264.532 91.52 Z"/>
  <path class="cls-6" d="M 274.812 93.86 C 274.49 94.712 273.928 95.453 273.192 95.99 C 272.341 96.603 271.375 97.038 270.352 97.27 L 270.012 96.46 C 271.084 96.248 272.087 95.774 272.932 95.08 C 273.599 94.523 274.02 93.725 274.102 92.86 L 270.532 92.86 L 270.532 92.06 L 275.112 92.06 C 275.109 92.396 275.072 92.731 275.002 93.06 L 277.322 93.06 L 277.322 91.53 L 278.252 91.53 L 278.252 97.03 L 277.322 97.03 L 277.322 95.91 L 274.652 95.91 L 274.652 95.14 L 277.322 95.14 L 277.322 93.86 Z M 278.622 101.41 L 278.622 102.18 L 271.712 102.18 L 271.712 99.42 L 277.342 99.42 L 277.342 98.31 L 271.682 98.31 L 271.682 97.52 L 278.262 97.52 L 278.262 100.16 L 272.632 100.16 L 272.632 101.41 Z"/>
  <path class="cls-6" d="M 283.342 94.57 C 283.339 95.037 283.386 95.503 283.482 95.96 C 283.57 96.404 283.708 96.837 283.892 97.25 C 284.073 97.643 284.302 98.012 284.572 98.35 C 284.834 98.672 285.153 98.943 285.512 99.15 L 284.942 99.87 C 284.426 99.543 283.991 99.102 283.672 98.58 C 283.321 98.006 283.058 97.383 282.892 96.73 C 282.732 97.435 282.462 98.11 282.092 98.73 C 281.766 99.286 281.318 99.761 280.782 100.12 L 280.212 99.39 C 280.576 99.165 280.898 98.877 281.162 98.54 C 281.443 98.184 281.678 97.795 281.862 97.38 C 282.049 96.942 282.193 96.486 282.292 96.02 C 282.384 95.539 282.431 95.05 282.432 94.56 L 282.432 93.56 L 280.532 93.56 L 280.532 92.76 L 285.192 92.76 L 285.192 93.56 L 283.372 93.56 Z M 286.072 91.77 L 286.962 91.77 L 286.962 101.77 L 286.072 101.77 L 286.072 96.2 L 284.382 96.2 L 284.382 95.39 L 286.072 95.39 Z M 289.022 91.52 L 289.022 102.28 L 288.122 102.28 L 288.122 91.52 Z"/>
  <path class="cls-6" d="M 296.372 97.58 C 295.814 97.4 295.298 97.111 294.852 96.73 C 294.424 96.362 294.083 95.905 293.852 95.39 C 293.637 95.96 293.295 96.473 292.852 96.89 C 292.405 97.33 291.87 97.671 291.282 97.89 L 290.822 97.11 C 291.18 96.992 291.517 96.82 291.822 96.6 C 292.12 96.382 292.391 96.13 292.632 95.85 C 292.852 95.568 293.027 95.255 293.152 94.92 C 293.267 94.599 293.328 94.261 293.332 93.92 L 293.332 93.7 L 291.062 93.7 L 291.062 92.84 L 293.332 92.84 L 293.332 91.48 L 294.262 91.48 L 294.262 92.84 L 296.532 92.84 L 296.532 93.63 L 294.272 93.63 L 294.272 93.85 C 294.266 94.192 294.327 94.532 294.452 94.85 C 294.575 95.156 294.747 95.44 294.962 95.69 C 295.188 95.956 295.451 96.188 295.742 96.38 C 296.053 96.583 296.389 96.745 296.742 96.86 Z M 295.512 98.39 C 295.985 98.389 296.457 98.433 296.922 98.52 C 297.29 98.591 297.644 98.72 297.972 98.9 C 298.239 99.05 298.468 99.258 298.642 99.51 C 298.949 100.021 298.949 100.66 298.642 101.17 C 298.471 101.422 298.241 101.628 297.972 101.77 C 297.645 101.952 297.29 102.077 296.922 102.14 C 296.458 102.233 295.985 102.276 295.512 102.27 C 294.657 102.312 293.804 102.14 293.032 101.77 C 291.927 101.225 291.827 99.689 292.851 99.005 C 292.909 98.966 292.969 98.931 293.032 98.9 C 293.807 98.517 294.669 98.341 295.532 98.39 Z M 295.512 101.5 C 296.12 101.528 296.727 101.425 297.292 101.2 C 297.958 101.009 298.167 100.168 297.668 99.687 C 297.563 99.585 297.433 99.511 297.292 99.47 C 296.138 99.057 294.876 99.057 293.722 99.47 C 293.056 99.662 292.847 100.502 293.346 100.983 C 293.452 101.085 293.581 101.16 293.722 101.2 C 294.297 101.43 294.914 101.532 295.532 101.5 Z M 300.282 94.33 L 300.282 95.13 L 298.762 95.13 L 298.762 98.13 L 297.822 98.13 L 297.822 91.54 L 298.762 91.54 L 298.762 94.33 Z"/>
  <path class="cls-6" d="M 313.132 100.23 L 313.132 101.04 L 303.872 101.04 L 303.872 100.23 L 308.032 100.23 L 308.032 98.74 C 307.281 98.729 306.546 98.519 305.902 98.13 C 305.414 97.82 305.122 97.278 305.132 96.7 C 305.127 96.396 305.211 96.098 305.372 95.84 C 305.531 95.569 305.759 95.345 306.032 95.19 C 306.362 95.004 306.72 94.873 307.092 94.8 C 307.553 94.704 308.022 94.657 308.492 94.66 C 308.956 94.657 309.419 94.704 309.872 94.8 C 310.224 94.877 310.561 95.008 310.872 95.19 C 311.146 95.348 311.376 95.571 311.542 95.84 C 311.992 96.619 311.765 97.613 311.022 98.12 C 310.39 98.511 309.665 98.725 308.922 98.74 L 308.922 100.25 Z M 312.622 93.91 L 304.322 93.91 L 304.322 93.1 L 308.032 93.1 L 308.032 91.74 L 308.962 91.74 L 308.962 93.14 L 312.622 93.14 Z M 306.072 96.67 C 306.065 97.09 306.321 97.469 306.712 97.62 C 307.272 97.865 307.881 97.978 308.492 97.95 C 309.093 97.978 309.692 97.865 310.242 97.62 C 310.966 97.358 311.134 96.41 310.544 95.915 C 310.455 95.839 310.352 95.78 310.242 95.74 C 309.692 95.496 309.093 95.383 308.492 95.41 C 307.881 95.383 307.272 95.496 306.712 95.74 C 306.327 95.889 306.073 96.258 306.072 96.67 Z"/>
  <path class="cls-6" d="M 319.452 97.06 L 319.452 98.06 L 322.452 98.06 L 322.452 100.41 L 316.452 100.41 L 316.452 101.41 L 322.762 101.41 L 322.762 102.16 L 315.532 102.16 L 315.532 99.74 L 321.532 99.74 L 321.532 98.83 L 315.532 98.83 L 315.532 98.1 L 318.532 98.1 L 318.532 97.1 L 314.402 97.1 L 314.402 96.34 L 323.622 96.34 L 323.622 97.1 Z M 314.842 95.06 C 315.294 95.037 315.743 94.97 316.182 94.86 C 316.57 94.782 316.947 94.655 317.302 94.48 C 317.598 94.343 317.865 94.154 318.092 93.92 C 318.291 93.727 318.421 93.474 318.462 93.2 L 315.302 93.2 L 315.302 92.46 L 318.532 92.46 L 318.532 91.46 L 319.472 91.46 L 319.472 92.46 L 322.672 92.46 L 322.672 93.2 L 319.532 93.2 C 319.569 93.474 319.695 93.727 319.892 93.92 C 320.115 94.154 320.38 94.344 320.672 94.48 C 321.026 94.65 321.399 94.778 321.782 94.86 C 322.225 94.97 322.677 95.037 323.132 95.06 L 322.842 95.81 C 322.428 95.781 322.017 95.721 321.612 95.63 C 321.238 95.55 320.873 95.433 320.522 95.28 C 320.202 95.158 319.903 94.99 319.632 94.78 C 319.382 94.598 319.169 94.371 319.002 94.11 C 318.836 94.368 318.626 94.595 318.382 94.78 C 318.108 94.99 317.805 95.158 317.482 95.28 C 317.128 95.433 316.759 95.55 316.382 95.63 C 315.974 95.723 315.56 95.783 315.142 95.81 Z"/>
  <path class="cls-6" d="M 200.482 107.888 L 201.232 107.888 L 197.822 119.558 L 197.062 119.558 Z"/>
  <path class="cls-6" d="M 209.822 109.248 C 209.824 110.013 209.754 110.776 209.612 111.528 C 209.316 113.054 208.554 114.451 207.432 115.528 C 206.757 116.168 205.993 116.707 205.162 117.128 L 204.672 116.338 C 205.524 115.917 206.301 115.359 206.972 114.688 C 207.537 114.106 207.994 113.429 208.322 112.688 L 204.872 113.028 L 204.712 112.168 L 208.602 111.888 C 208.783 111.273 208.887 110.638 208.912 109.998 L 205.232 109.998 L 205.232 109.198 Z M 214.072 113.338 L 212.422 113.338 L 212.422 118.918 L 211.492 118.918 L 211.492 108.138 L 212.422 108.138 L 212.422 112.508 L 214.072 112.508 Z"/>
  <path class="cls-6" d="M 224.312 116.638 L 224.312 117.438 L 215.032 117.438 L 215.032 116.638 Z M 223.242 114.098 L 216.242 114.098 L 216.242 109.098 L 223.162 109.098 L 223.162 109.898 L 217.162 109.898 L 217.162 113.338 L 223.262 113.338 Z"/>
  <path class="cls-6" d="M 228.972 110.998 C 228.969 111.475 229.037 111.95 229.172 112.408 C 229.306 112.868 229.494 113.312 229.732 113.728 C 229.957 114.134 230.237 114.507 230.562 114.838 C 230.855 115.143 231.192 115.403 231.562 115.608 L 230.982 116.388 C 230.701 116.229 230.439 116.038 230.202 115.818 C 229.95 115.582 229.719 115.325 229.512 115.048 C 229.297 114.75 229.106 114.436 228.942 114.108 C 228.768 113.764 228.624 113.406 228.512 113.038 C 228.307 113.801 227.968 114.522 227.512 115.168 C 227.107 115.752 226.582 116.243 225.972 116.608 L 225.412 115.818 C 225.785 115.6 226.122 115.327 226.412 115.008 C 226.739 114.657 227.021 114.267 227.252 113.848 C 227.488 113.409 227.675 112.946 227.812 112.468 C 227.943 111.988 228.01 111.494 228.012 110.998 L 228.012 109.068 L 228.942 109.068 Z M 235.092 113.338 L 233.402 113.338 L 233.402 118.918 L 232.462 118.918 L 232.462 108.148 L 233.402 108.148 L 233.402 112.508 L 235.092 112.508 Z"/>
  <path class="cls-6" d="M 244.162 111.528 C 244.166 111.894 244.098 112.257 243.962 112.598 C 243.832 112.914 243.638 113.2 243.392 113.438 C 243.15 113.678 242.861 113.865 242.542 113.988 C 242.206 114.126 241.846 114.194 241.482 114.188 C 241.119 114.195 240.758 114.127 240.422 113.988 C 240.105 113.863 239.816 113.676 239.572 113.438 C 239.33 113.199 239.139 112.913 239.012 112.598 C 238.877 112.257 238.809 111.894 238.812 111.528 C 238.809 111.165 238.877 110.805 239.012 110.468 C 239.139 110.152 239.33 109.866 239.572 109.628 C 239.816 109.389 240.105 109.202 240.422 109.078 C 240.76 108.947 241.12 108.882 241.482 108.888 C 241.845 108.883 242.204 108.948 242.542 109.078 C 242.861 109.2 243.15 109.387 243.392 109.628 C 243.638 109.866 243.832 110.152 243.962 110.468 C 244.098 110.805 244.166 111.165 244.162 111.528 Z M 239.742 111.528 C 239.738 111.777 239.782 112.025 239.872 112.258 C 239.956 112.471 240.078 112.668 240.232 112.838 C 240.39 112.995 240.577 113.121 240.782 113.208 C 241.233 113.381 241.732 113.381 242.182 113.208 C 242.391 113.121 242.581 112.996 242.742 112.838 C 242.903 112.671 243.029 112.474 243.112 112.258 C 243.198 112.024 243.242 111.777 243.242 111.528 C 243.244 111.282 243.2 111.038 243.112 110.808 C 243.029 110.595 242.903 110.401 242.742 110.238 C 242.581 110.08 242.391 109.954 242.182 109.868 C 241.732 109.694 241.233 109.694 240.782 109.868 C 240.577 109.954 240.39 110.08 240.232 110.238 C 240.078 110.404 239.956 110.597 239.872 110.808 C 239.78 111.036 239.736 111.281 239.742 111.528 Z M 247.272 117.848 L 247.272 118.648 L 240.392 118.648 L 240.392 115.198 L 241.322 115.198 L 241.322 117.848 Z M 246.972 115.998 L 246.032 115.998 L 246.032 108.138 L 246.972 108.138 Z"/>
  <path class="cls-6" d="M 258.312 113.258 L 258.312 114.048 L 249.062 114.048 L 249.062 113.258 Z M 249.592 111.818 C 250.035 111.768 250.471 111.671 250.892 111.528 C 251.281 111.402 251.654 111.231 252.002 111.018 C 252.299 110.832 252.56 110.595 252.772 110.318 C 252.962 110.077 253.073 109.784 253.092 109.478 L 249.922 109.478 L 249.922 108.678 L 257.482 108.678 L 257.482 109.478 L 254.302 109.478 C 254.309 109.783 254.414 110.077 254.602 110.318 C 254.821 110.593 255.085 110.83 255.382 111.018 C 255.733 111.227 256.105 111.398 256.492 111.528 C 256.917 111.672 257.356 111.769 257.802 111.818 L 257.462 112.598 C 257.05 112.537 256.642 112.447 256.242 112.328 C 255.866 112.215 255.504 112.061 255.162 111.868 C 254.844 111.691 254.549 111.476 254.282 111.228 C 254.034 110.999 253.834 110.724 253.692 110.418 C 253.547 110.724 253.344 111 253.092 111.228 C 252.829 111.476 252.537 111.69 252.222 111.868 C 251.876 112.059 251.511 112.213 251.132 112.328 C 250.737 112.449 250.332 112.54 249.922 112.598 Z M 253.672 114.978 C 254.165 114.976 254.657 115.019 255.142 115.108 C 255.524 115.175 255.892 115.303 256.232 115.488 C 256.514 115.627 256.755 115.838 256.932 116.098 C 257.095 116.343 257.179 116.633 257.172 116.928 C 257.177 117.222 257.094 117.511 256.932 117.758 C 256.756 118.021 256.515 118.234 256.232 118.378 C 255.89 118.558 255.523 118.686 255.142 118.758 C 254.657 118.842 254.165 118.882 253.672 118.878 C 252.791 118.924 251.912 118.753 251.112 118.378 C 250.543 118.121 250.178 117.552 250.182 116.928 C 250.177 116.305 250.543 115.739 251.112 115.488 C 251.911 115.109 252.79 114.934 253.672 114.978 Z M 253.672 118.108 C 254.316 118.136 254.959 118.034 255.562 117.808 C 256.236 117.615 256.449 116.766 255.945 116.279 C 255.838 116.175 255.706 116.099 255.562 116.058 C 254.34 115.645 253.015 115.645 251.792 116.058 C 251.119 116.22 250.873 117.05 251.351 117.553 C 251.47 117.678 251.624 117.767 251.792 117.808 C 252.392 118.033 253.032 118.135 253.672 118.108 Z"/>
  <polygon class="cls-9" points="164.17 89.23 164.17 74.83 176.17 82.03 164.17 89.23"/>
  <polygon class="cls-5" points="525.79 89.23 525.79 74.83 537.79 82.03 525.79 89.23"/>
  <polygon class="cls-5" points="537.79 134.47 537.79 148.88 525.79 141.68 537.79 134.47"/>
  <polygon class="cls-5" points="525.79 189.12 525.79 174.72 537.79 181.92 525.79 189.12"/>
</svg>