<?xml version="1.0" encoding="utf-8"?>
<svg id="_迹_1" data-name="卵迹_1" viewBox="111.344 23.811 502.21 358.666" xmlns="http://www.w3.org/2000/svg">
  <defs>
    <style>.cls-1{fill:#f7f7f7;}.cls-2{fill:#f6f6f6;stroke:#4064c3;opacity:0.4;}.cls-2,.cls-3,.cls-4{stroke-miterlimit:10;}.cls-2,.cls-3{stroke-width:2px;}.cls-3,.cls-4{fill:none;}.cls-3{stroke:#ffc64b;}.cls-4{stroke:#9e9e9e;}.cls-5{fill:#233976;}.cls-6{fill:#767676;}.cls-7{fill:#c1411a;}</style>
  </defs>
  <title>비대면 플랫폼 웹메뉴얼_outline</title>
  <rect class="cls-1" x="155.87" y="72.32" width="30" height="290" rx="15"/>
  <rect class="cls-1" x="516.79" y="72.32" width="30" height="290" rx="15"/>
  <rect class="cls-3" x="139.401" y="215.547" width="456.699" height="124.243" rx="12" style=""/>
  <path d="M151.47,52a5.63,5.63,0,0,1-2.3-.47,5.42,5.42,0,0,1-1.81-1.28l.88-1a4.76,4.76,0,0,0,1.48,1.07,4.21,4.21,0,0,0,1.76.39,2.83,2.83,0,0,0,1.81-.53,1.68,1.68,0,0,0,.66-1.39,1.75,1.75,0,0,0-.15-.76,1.71,1.71,0,0,0-.42-.54,2.78,2.78,0,0,0-.62-.41l-.76-.37-1.7-.74a5,5,0,0,1-.83-.42,3.45,3.45,0,0,1-.77-.61,2.69,2.69,0,0,1-.78-2,2.76,2.76,0,0,1,.28-1.25,2.85,2.85,0,0,1,.76-1,3.5,3.5,0,0,1,1.17-.65,4.42,4.42,0,0,1,1.48-.23,4.76,4.76,0,0,1,3.46,1.45l-.79,1a4.38,4.38,0,0,0-1.2-.81,3.45,3.45,0,0,0-1.47-.3,2.54,2.54,0,0,0-1.6.47,1.53,1.53,0,0,0-.59,1.26,1.45,1.45,0,0,0,.18.74,1.69,1.69,0,0,0,.44.52,2.8,2.8,0,0,0,.63.39c.23.1.46.21.69.3l1.68.72a8.51,8.51,0,0,1,1,.5,3.41,3.41,0,0,1,.77.64,3,3,0,0,1,.51.85,3.35,3.35,0,0,1,.18,1.15,3,3,0,0,1-.28,1.3,3.38,3.38,0,0,1-.79,1.06,3.67,3.67,0,0,1-1.26.71A5,5,0,0,1,151.47,52Z" style="fill: rgb(118, 118, 118);"/>
  <path d="M161.13,52a4.37,4.37,0,0,1-1.62-.31,3.63,3.63,0,0,1-1.32-.89,4,4,0,0,1-.89-1.43,5.69,5.69,0,0,1,0-3.82,4.47,4.47,0,0,1,.87-1.44,3.83,3.83,0,0,1,1.26-.91,3.48,3.48,0,0,1,1.47-.32,3.54,3.54,0,0,1,1.47.28,3.08,3.08,0,0,1,1.09.83,3.67,3.67,0,0,1,.67,1.29,5.51,5.51,0,0,1,.23,1.68c0,.16,0,.31,0,.45a3.22,3.22,0,0,1,0,.38h-5.87a3.38,3.38,0,0,0,.85,2.21,2.7,2.7,0,0,0,2,.81,3.68,3.68,0,0,0,1.17-.18,4.11,4.11,0,0,0,1-.51l.53,1a6.65,6.65,0,0,1-1.28.64A4.44,4.44,0,0,1,161.13,52Zm1.94-5.23a3.1,3.1,0,0,0-.57-2,2,2,0,0,0-1.59-.69,2.25,2.25,0,0,0-.89.18,2.48,2.48,0,0,0-.76.53,2.92,2.92,0,0,0-.56.85,3.66,3.66,0,0,0-.29,1.15Z" style="fill: rgb(118, 118, 118);"/>
  <path d="M166.49,43.07h1.2l.13,1.58h.05A4.38,4.38,0,0,1,169,43.33a2.22,2.22,0,0,1,1.37-.48,2.47,2.47,0,0,1,.5,0,1.16,1.16,0,0,1,.43.15L171,44.32a3.11,3.11,0,0,0-.4-.11,2.68,2.68,0,0,0-.45,0,1.74,1.74,0,0,0-.57.11,2,2,0,0,0-.58.33,2.85,2.85,0,0,0-.56.62,4.34,4.34,0,0,0-.48.94v5.59h-1.46Z" style="fill: rgb(118, 118, 118);"/>
  <path d="M171.9,43.07h1.52L175.05,48c.14.43.27.86.41,1.3s.27.86.41,1.26h.06l.4-1.26c.14-.44.27-.87.4-1.3l1.65-4.94h1.44l-3.09,8.69H175Z" style="fill: rgb(118, 118, 118);"/>
  <path d="M185,52a4.37,4.37,0,0,1-1.62-.31,3.63,3.63,0,0,1-1.32-.89,4.19,4.19,0,0,1-.89-1.43,5.69,5.69,0,0,1,0-3.82,4.47,4.47,0,0,1,.87-1.44,3.83,3.83,0,0,1,1.26-.91,3.48,3.48,0,0,1,1.47-.32,3.62,3.62,0,0,1,1.48.28,3.13,3.13,0,0,1,1.08.83,3.67,3.67,0,0,1,.67,1.29,5.51,5.51,0,0,1,.23,1.68c0,.16,0,.31,0,.45a3.22,3.22,0,0,1-.05.38H182.3a3.38,3.38,0,0,0,.85,2.21,2.7,2.7,0,0,0,2,.81,3.68,3.68,0,0,0,1.17-.18,4.11,4.11,0,0,0,1-.51l.53,1a6.65,6.65,0,0,1-1.28.64A4.44,4.44,0,0,1,185,52Zm1.94-5.23a3.1,3.1,0,0,0-.57-2,2,2,0,0,0-1.59-.69,2.25,2.25,0,0,0-.89.18,2.48,2.48,0,0,0-.76.53,2.92,2.92,0,0,0-.56.85,3.66,3.66,0,0,0-.29,1.15Z" style="fill: rgb(118, 118, 118);"/>
  <path d="M190.36,43.07h1.2l.13,1.58h.05a4.38,4.38,0,0,1,1.09-1.32,2.24,2.24,0,0,1,1.37-.48,2.64,2.64,0,0,1,.51,0,1.18,1.18,0,0,1,.42.15l-.27,1.28a2.73,2.73,0,0,0-.4-.11,2.68,2.68,0,0,0-.45,0,1.74,1.74,0,0,0-.57.11,2,2,0,0,0-.58.33,3.13,3.13,0,0,0-.56.62,4.34,4.34,0,0,0-.48.94v5.59h-1.46Z" style="fill: rgb(118, 118, 118);"/>
  <path d="M503.59,40h1.53l4.28,7.39,1.24,2.42h.08c0-.6-.08-1.21-.12-1.85s-.07-1.25-.07-1.86V40h1.41V51.76h-1.52l-4.27-7.4L504.88,42h-.06c0,.6.07,1.2.11,1.81S505,45,505,45.61v6.15h-1.41Z" style="fill: rgb(118, 118, 118);"/>
  <path d="M515.75,41.28A1,1,0,0,1,515,41a1,1,0,0,1,0-1.37,1.16,1.16,0,0,1,1.44,0,1,1,0,0,1,0,1.37A1,1,0,0,1,515.75,41.28ZM515,43.07h1.46v8.69H515Z" style="fill: rgb(118, 118, 118);"/>
  <path d="M522.84,52a4.24,4.24,0,0,1-1.61-.31,3.64,3.64,0,0,1-1.3-.89,4,4,0,0,1-.86-1.42,5.47,5.47,0,0,1-.31-1.93,5.07,5.07,0,0,1,.34-1.93,4.4,4.4,0,0,1,.92-1.44,3.69,3.69,0,0,1,1.34-.9,4.24,4.24,0,0,1,1.59-.3,3.32,3.32,0,0,1,1.47.3,5.17,5.17,0,0,1,1.07.73l-.75,1a4.2,4.2,0,0,0-.8-.57,2.06,2.06,0,0,0-.94-.21,2.47,2.47,0,0,0-2,.92,3.47,3.47,0,0,0-.57,1.06,4.84,4.84,0,0,0,0,2.72,3.08,3.08,0,0,0,.55,1,2.63,2.63,0,0,0,.85.67,2.56,2.56,0,0,0,1.09.24,2.59,2.59,0,0,0,1.12-.25,4,4,0,0,0,.93-.62l.63,1a4.33,4.33,0,0,1-1.3.82A3.86,3.86,0,0,1,522.84,52Z" style="fill: rgb(118, 118, 118);"/>
  <path d="M530.68,52a4.42,4.42,0,0,1-1.63-.31,3.71,3.71,0,0,1-1.32-.89,4.19,4.19,0,0,1-.89-1.43,5.86,5.86,0,0,1,0-3.82,4.32,4.32,0,0,1,.88-1.44,3.63,3.63,0,0,1,1.26-.91,3.41,3.41,0,0,1,1.46-.32,3.62,3.62,0,0,1,1.48.28A3,3,0,0,1,533,44a3.69,3.69,0,0,1,.68,1.29,5.83,5.83,0,0,1,.23,1.68c0,.16,0,.31,0,.45a3.22,3.22,0,0,1,0,.38H528a3.33,3.33,0,0,0,.86,2.21,2.67,2.67,0,0,0,2,.81A3.59,3.59,0,0,0,532,50.6a4.17,4.17,0,0,0,1-.51l.53,1a7,7,0,0,1-1.28.64A4.47,4.47,0,0,1,530.68,52Zm1.93-5.23a3.1,3.1,0,0,0-.57-2,1.94,1.94,0,0,0-1.59-.69,2.28,2.28,0,0,0-.89.18,2.61,2.61,0,0,0-.76.53,2.92,2.92,0,0,0-.56.85,3.66,3.66,0,0,0-.28,1.15Z" style="fill: rgb(118, 118, 118);"/>
  <path d="M536,43.07h1.2l.12,1h0a8.32,8.32,0,0,1,1.3-.85,3.37,3.37,0,0,1,2.95,0,3.13,3.13,0,0,1,1.09.89,4.17,4.17,0,0,1,.66,1.39,6.94,6.94,0,0,1,.23,1.83,5.81,5.81,0,0,1-.32,2,4.37,4.37,0,0,1-.83,1.47,3.48,3.48,0,0,1-1.2.91,3.36,3.36,0,0,1-1.43.32,2.94,2.94,0,0,1-1.2-.27,5.18,5.18,0,0,1-1.2-.75l0,1.52v3H536Zm3.58,7.67a2.12,2.12,0,0,0,1-.25,2.29,2.29,0,0,0,.79-.67,3.19,3.19,0,0,0,.52-1.08,5.36,5.36,0,0,0,.19-1.45A6.53,6.53,0,0,0,542,46a3.24,3.24,0,0,0-.4-1,1.85,1.85,0,0,0-.71-.65,2.23,2.23,0,0,0-1-.23,2.39,2.39,0,0,0-1.13.3,5.79,5.79,0,0,0-1.21.9v4.54a3.75,3.75,0,0,0,1.15.71A2.75,2.75,0,0,0,539.62,50.74Z" style="fill: rgb(118, 118, 118);"/>
  <path d="M547.68,52a2.7,2.7,0,0,1-1-.18,2.26,2.26,0,0,1-.8-.5,2.33,2.33,0,0,1-.53-.8,2.74,2.74,0,0,1-.19-1.06A2.52,2.52,0,0,1,546.54,47a9,9,0,0,1,4-.75,4.47,4.47,0,0,0-.08-.82,2,2,0,0,0-.28-.7,1.54,1.54,0,0,0-.55-.49,1.94,1.94,0,0,0-.88-.18,4.24,4.24,0,0,0-1.47.25,4.79,4.79,0,0,0-1.22.6l-.58-1a7.85,7.85,0,0,1,1.53-.71,5.83,5.83,0,0,1,2-.32,3.37,3.37,0,0,1,1.36.25,2.41,2.41,0,0,1,.93.73,3.29,3.29,0,0,1,.54,1.13,5.48,5.48,0,0,1,.18,1.45v5.35h-1.2l-.13-.94h0a5.91,5.91,0,0,1-1.35.83A3.87,3.87,0,0,1,547.68,52Zm.42-1.19a3.16,3.16,0,0,0,1.2-.22,4.32,4.32,0,0,0,1.2-.79V47.2a14.92,14.92,0,0,0-1.91.23,4.05,4.05,0,0,0-1.21.41,1.4,1.4,0,0,0-.62.61,1.91,1.91,0,0,0-.18.86,1.36,1.36,0,0,0,.43,1.11A1.65,1.65,0,0,0,548.1,50.78Z" style="fill: rgb(118, 118, 118);"/>
  <path d="M555.6,55.5,557,51.68l-3.48-8.61H555l1.77,4.74c.13.37.27.77.41,1.2s.29.83.42,1.23h.08l.37-1.23.37-1.2L560,43.07h1.43L557,55.5Z" style="fill: rgb(118, 118, 118);"/>
  <line class="cls-4" x1="532.23" y1="172.08" x2="171.29" y2="172.08"/>
  <line class="cls-4" x1="532.23" y1="102.03" x2="171.29" y2="102.03"/>
  <path class="cls-4" d="M532.23,102c16.57,0,30,18.43,30,35s-13.43,35-30,35"/>
  <polygon class="cls-5" points="538.14 164.88 538.14 179.28 526.14 172.08 538.14 164.88"/>
  <line class="cls-4" x1="530.96" y1="312" x2="170.01" y2="312"/>
  <line class="cls-4" x1="530.96" y1="251.99" x2="170.01" y2="251.99"/>
  <path class="cls-6" d="M335.62,327.12c-.48.09-1,.16-1.46.21s-1,.1-1.47.13v3.68h-.93v-3.62l-1.47,0h-1.36l-.13-.83h1.57c.55,0,1.12,0,1.7,0s1.17-.06,1.76-.1,1.16-.11,1.72-.2Zm-6.34-1.92a4,4,0,0,0,1-.37,3.92,3.92,0,0,0,.78-.57,2.67,2.67,0,0,0,.5-.72,2,2,0,0,0,.18-.83v0h-2.26v-.76h2.24v-1.2h.94v1.2h2.26v.76h-2.26v0a1.71,1.71,0,0,0,.18.77,2,2,0,0,0,.5.67,2.94,2.94,0,0,0,.77.54,4,4,0,0,0,1,.37l-.38.77a4.48,4.48,0,0,1-1.53-.7,3.1,3.1,0,0,1-1-1.13,3.33,3.33,0,0,1-1,1.23,4.35,4.35,0,0,1-1.56.75Zm7.94-4.5v10.77h-.94V320.7Z"/>
  <path class="cls-6" d="M348.59,329.25v.8h-9.28v-.8h4.13v-2.62h.94v2.62Zm-.85-2.49a5.15,5.15,0,0,1-1.16-.4,6.28,6.28,0,0,1-1.09-.65,5.48,5.48,0,0,1-.92-.88,4.54,4.54,0,0,1-.66-1.07,4.54,4.54,0,0,1-.66,1.07,5.42,5.42,0,0,1-.91.88,7.13,7.13,0,0,1-1.09.65,5.4,5.4,0,0,1-1.17.4l-.39-.81a4.67,4.67,0,0,0,1.34-.47,5.38,5.38,0,0,0,1.2-.84,4.36,4.36,0,0,0,.86-1.11,2.69,2.69,0,0,0,.33-1.29v-.83h1v.83a2.69,2.69,0,0,0,.33,1.29,4.19,4.19,0,0,0,.87,1.11,5.16,5.16,0,0,0,1.2.84,4.67,4.67,0,0,0,1.34.47Z"/>
  <path class="cls-6" d="M361.59,325.92v.8h-9.23v-.8ZM357,321a6.83,6.83,0,0,1,1.5.14,3.85,3.85,0,0,1,1.13.4,1.87,1.87,0,0,1,.71.65,1.6,1.6,0,0,1,0,1.72,2,2,0,0,1-.71.64,3.85,3.85,0,0,1-1.13.4,8,8,0,0,1-3,0,3.72,3.72,0,0,1-1.14-.4,2.15,2.15,0,0,1-.72-.64,1.6,1.6,0,0,1,0-1.72,2,2,0,0,1,.72-.65,3.72,3.72,0,0,1,1.14-.4A6.77,6.77,0,0,1,357,321Zm0,6.63a5.53,5.53,0,0,1,2.57.5,1.57,1.57,0,0,1,0,2.86,5.53,5.53,0,0,1-2.57.5,8,8,0,0,1-1.46-.13,3.87,3.87,0,0,1-1.09-.37,1.92,1.92,0,0,1-.7-.61,1.44,1.44,0,0,1-.24-.82,1.41,1.41,0,0,1,.24-.82,1.92,1.92,0,0,1,.7-.61,4.22,4.22,0,0,1,1.09-.37A8,8,0,0,1,357,327.6Zm0-5.86a4.6,4.6,0,0,0-1.92.33,1,1,0,0,0,0,1.89,5.75,5.75,0,0,0,3.84,0,1,1,0,0,0,0-1.89A4.6,4.6,0,0,0,357,321.74Zm0,6.63a4.56,4.56,0,0,0-1.88.31.88.88,0,0,0,0,1.71,6,6,0,0,0,3.76,0,.88.88,0,0,0,0-1.71A4.56,4.56,0,0,0,357,328.37Z"/>
  <path class="cls-6" d="M368.86,325.69c-.35.08-.69.14-1,.19s-.69.08-1.06.11-.78.05-1.21.06l-1.45,0h-.8V321.4h4.5v.79h-3.56v3.07h1.36c.41,0,.8,0,1.15-.06s.69-.06,1-.11a8.58,8.58,0,0,0,1-.18Zm1,1.33h.93v4.26h-6.44V327h.92v1.34h4.59Zm0,2.11h-4.59v1.34h4.59Zm2.44-5.1h-1.51v2.4h-.94v-5.74h.94v2.53h1.51Z"/>
  <path class="cls-6" d="M319.12,266.1h-4.71v-4.64h4.71Zm-.45,1.29a7.41,7.41,0,0,1,1.4.13,3.55,3.55,0,0,1,1.06.39,1.91,1.91,0,0,1,.68.64,1.69,1.69,0,0,1,0,1.7,1.89,1.89,0,0,1-.68.63,3.85,3.85,0,0,1-1.06.4,6.67,6.67,0,0,1-1.4.13,6.51,6.51,0,0,1-1.39-.13,3.85,3.85,0,0,1-1.06-.4,1.78,1.78,0,0,1-.67-.63,1.63,1.63,0,0,1,0-1.7,1.8,1.8,0,0,1,.67-.64,3.55,3.55,0,0,1,1.06-.39A7.22,7.22,0,0,1,318.67,267.39Zm-.47-5.13h-2.87v3h2.87Zm.47,8.39a4,4,0,0,0,1.79-.34,1,1,0,0,0,0-1.82,4,4,0,0,0-1.79-.33,4,4,0,0,0-1.78.33,1,1,0,0,0,0,1.82A3.94,3.94,0,0,0,318.67,270.65Zm4.77-7.3v.8h-1.52V267H321v-6.34h.93v2.68Z"/>
  <path class="cls-6" d="M331.27,267.08c-.48.09-1,.16-1.46.21s-1,.1-1.47.13v3.68h-.93v-3.62l-1.47,0h-1.36l-.12-.82H326c.55,0,1.12,0,1.7,0l1.76-.1c.59-.05,1.16-.11,1.72-.2Zm-6.34-1.92a4.06,4.06,0,0,0,1-.38,3.27,3.27,0,0,0,.78-.57,2.39,2.39,0,0,0,.5-.72,2,2,0,0,0,.18-.83v0h-2.26v-.77h2.24v-1.2h.94v1.2h2.26v.77h-2.26v0a1.75,1.75,0,0,0,.18.78,2.1,2.1,0,0,0,.5.67,3.2,3.2,0,0,0,.77.54,4,4,0,0,0,1,.37l-.38.76a4.47,4.47,0,0,1-1.53-.69,3.2,3.2,0,0,1-1-1.13,3.23,3.23,0,0,1-1,1.23,4.35,4.35,0,0,1-1.56.75Zm7.94-4.5v10.76h-.94V260.66Z"/>
  <path class="cls-6" d="M344.25,269.2V270H335v-.81h4.12v-2.61H340v2.61Zm-.86-2.48a5.7,5.7,0,0,1-1.16-.4,5.76,5.76,0,0,1-1.09-.66,5.05,5.05,0,0,1-.92-.87,4.75,4.75,0,0,1-.66-1.07,4.75,4.75,0,0,1-.66,1.07,5,5,0,0,1-.91.87,6.46,6.46,0,0,1-1.09.66,6,6,0,0,1-1.17.4l-.39-.82a4.64,4.64,0,0,0,1.34-.46,6.13,6.13,0,0,0,1.2-.84,4.36,4.36,0,0,0,.86-1.11,2.72,2.72,0,0,0,.33-1.29v-.83h1v.83a2.72,2.72,0,0,0,.33,1.29,4.19,4.19,0,0,0,.87,1.11,5.84,5.84,0,0,0,1.2.84,4.64,4.64,0,0,0,1.34.46Z"/>
  <path class="cls-6" d="M349.87,270.68a1.88,1.88,0,0,1-.72-.13,1.59,1.59,0,0,1-.57-.38,1.67,1.67,0,0,1-.38-.6,2.18,2.18,0,0,1-.14-.79,1.91,1.91,0,0,1,1-1.81,6.2,6.2,0,0,1,2.82-.57,3.15,3.15,0,0,0-.06-.61,1.4,1.4,0,0,0-.19-.52,1.1,1.1,0,0,0-.4-.37,1.31,1.31,0,0,0-.63-.14,3,3,0,0,0-1,.19,3.55,3.55,0,0,0-.87.45l-.41-.78a5.27,5.27,0,0,1,1.09-.54,4,4,0,0,1,1.41-.24,2.19,2.19,0,0,1,1,.19,1.65,1.65,0,0,1,.67.55,2.48,2.48,0,0,1,.38.84,4.2,4.2,0,0,1,.13,1.1v4h-.86l-.09-.7h0a3.84,3.84,0,0,1-1,.62A2.63,2.63,0,0,1,349.87,270.68Zm.29-.89a2.06,2.06,0,0,0,.86-.17,3,3,0,0,0,.85-.58V267.1a11.37,11.37,0,0,0-1.36.18,2.85,2.85,0,0,0-.86.3,1.18,1.18,0,0,0-.45.47,1.56,1.56,0,0,0-.12.64,1,1,0,0,0,.31.83A1.11,1.11,0,0,0,350.16,269.79Z"/>
  <path class="cls-6" d="M354.88,264h.86l.09.74h0a5.06,5.06,0,0,1,.93-.63,2.06,2.06,0,0,1,1-.28,2.27,2.27,0,0,1,1.06.24,2.15,2.15,0,0,1,.77.67,3.18,3.18,0,0,1,.48,1.05,5.64,5.64,0,0,1,.16,1.36,4.59,4.59,0,0,1-.23,1.5,3.3,3.3,0,0,1-.59,1.1,2.64,2.64,0,0,1-.85.69,2.45,2.45,0,0,1-1,.23,2.07,2.07,0,0,1-.86-.2,3.33,3.33,0,0,1-.85-.57l0,1.15v2.21h-1Zm2.56,5.75a1.47,1.47,0,0,0,.71-.18,1.8,1.8,0,0,0,.56-.51,2.53,2.53,0,0,0,.37-.81,4,4,0,0,0,.13-1.09,5,5,0,0,0-.09-1,2.27,2.27,0,0,0-.28-.76,1.38,1.38,0,0,0-.5-.49,1.5,1.5,0,0,0-.76-.18,1.66,1.66,0,0,0-.8.23,4.3,4.3,0,0,0-.86.67v3.41a2.59,2.59,0,0,0,.81.54A2.06,2.06,0,0,0,357.44,269.76Z"/>
  <path class="cls-6" d="M362.47,262.66a.72.72,0,0,1-.51-.19.69.69,0,0,1-.2-.51.67.67,0,0,1,.2-.53.76.76,0,0,1,.51-.18.77.77,0,0,1,.52.18.71.71,0,0,1,.2.53.67.67,0,0,1-.72.7ZM362,264h1v6.51h-1Z"/>
  <path class="cls-6" d="M376.46,269.35v.8h-9.27v-.8h4.16v-1.51a4.23,4.23,0,0,1-2.12-.61,1.67,1.67,0,0,1-.77-1.43,1.71,1.71,0,0,1,.23-.87,2,2,0,0,1,.67-.64,3.55,3.55,0,0,1,1.06-.39,6,6,0,0,1,1.4-.14,5.83,5.83,0,0,1,1.37.14,3.59,3.59,0,0,1,1.05.39,2,2,0,0,1,.67.64,1.71,1.71,0,0,1,.23.87,1.63,1.63,0,0,1-.76,1.42,4.21,4.21,0,0,1-2.09.62v1.51ZM376,263h-8.3v-.8h3.7v-1.4h.94v1.4H376Zm-6.56,2.77a1,1,0,0,0,.65.94,3.81,3.81,0,0,0,1.78.34,3.66,3.66,0,0,0,1.74-.34,1,1,0,0,0,0-1.87,3.78,3.78,0,0,0-1.74-.34,3.94,3.94,0,0,0-1.78.34A1,1,0,0,0,369.39,265.79Z"/>
  <path class="cls-6" d="M382.78,266.18v1h3v2.35h-6v1h6.32v.74h-7.24v-2.47h6v-.91h-6v-.73h3v-1h-4.14v-.77h9.23v.77Zm-4.61-2a8,8,0,0,0,1.34-.2,5.87,5.87,0,0,0,1.12-.38,2.66,2.66,0,0,0,.79-.56,1.24,1.24,0,0,0,.36-.72h-3.15v-.74h3.21v-1h.94v1H386v.74h-3.15a1.37,1.37,0,0,0,.36.72,2.66,2.66,0,0,0,.79.56,5.76,5.76,0,0,0,1.11.38,8,8,0,0,0,1.35.2l-.29.74a8.1,8.1,0,0,1-1.23-.18,5.57,5.57,0,0,1-1.09-.34,4,4,0,0,1-.89-.5,2.65,2.65,0,0,1-.63-.67,2.65,2.65,0,0,1-.63.67,4.21,4.21,0,0,1-.89.5,6.14,6.14,0,0,1-1.1.34,8.18,8.18,0,0,1-1.25.18Z"/>
  <path class="cls-6" d="M334.15,115.91h-4.79v-4.73h.93v1.56h2.94v-1.56h.92Zm-.92-2.4h-2.94v1.6h2.94Zm4.33,7.12v.77h-6.94v-2.64h5.67v-1.05h-5.7v-.77h6.63v2.54h-5.68v1.15Zm-.35-4.24h-.94v-5.62h.94Z"/>
  <path class="cls-6" d="M344.75,111.87a11.48,11.48,0,0,1-.22,2.29,7.43,7.43,0,0,1-2.22,4,9.74,9.74,0,0,1-2.29,1.6l-.5-.78a8.52,8.52,0,0,0,2.31-1.63,6.65,6.65,0,0,0,1.37-2l-3.49.35-.16-.86,3.95-.28a5.86,5.86,0,0,0,.22-.92,9.37,9.37,0,0,0,.11-1h-3.75v-.81Zm3-1.11v10.76h-.94V110.76Z"/>
  <path class="cls-6" d="M361.6,115.89v.81h-9.24v-.81Zm-.88-.85a5.73,5.73,0,0,1-1.15-.3,6.1,6.1,0,0,1-1.06-.51,5,5,0,0,1-.88-.69,3.39,3.39,0,0,1-.64-.85,3.07,3.07,0,0,1-.64.85,4.63,4.63,0,0,1-.88.69,6.1,6.1,0,0,1-1.06.51,6,6,0,0,1-1.16.3l-.35-.77a6.33,6.33,0,0,0,1.34-.36,5.1,5.1,0,0,0,1.15-.64,3.42,3.42,0,0,0,.81-.85,1.86,1.86,0,0,0,.31-1v-.48h1v.48a1.79,1.79,0,0,0,.3,1,3.46,3.46,0,0,0,.82.85,4.76,4.76,0,0,0,1.15.65,5.59,5.59,0,0,0,1.33.37ZM357,117.68a5.46,5.46,0,0,1,2.56.5,1.54,1.54,0,0,1,.92,1.42,1.44,1.44,0,0,1-.24.82,1.86,1.86,0,0,1-.69.6,3.76,3.76,0,0,1-1.09.38,8.06,8.06,0,0,1-1.46.12,5.41,5.41,0,0,1-2.57-.5,1.55,1.55,0,0,1-.94-1.42,1.44,1.44,0,0,1,.24-.82,2,2,0,0,1,.7-.6,3.84,3.84,0,0,1,1.1-.37A8,8,0,0,1,357,117.68Zm0,3.07a4.75,4.75,0,0,0,1.88-.29.88.88,0,0,0,0-1.71,4.72,4.72,0,0,0-1.88-.3,4.8,4.8,0,0,0-1.9.3.88.88,0,0,0,0,1.71A4.82,4.82,0,0,0,357,120.75Z"/>
  <path class="cls-6" d="M368.43,114.15a2.7,2.7,0,0,1-.21,1.08,2.53,2.53,0,0,1-.56.84,2.6,2.6,0,0,1-.85.55,2.86,2.86,0,0,1-1.06.2,2.78,2.78,0,0,1-1.06-.2,2.6,2.6,0,0,1-.85-.55,2.69,2.69,0,0,1-.56-.84,2.88,2.88,0,0,1-.2-1.08,2.86,2.86,0,0,1,.2-1.06,2.69,2.69,0,0,1,.56-.84,2.42,2.42,0,0,1,.85-.54,2.78,2.78,0,0,1,1.06-.2,2.86,2.86,0,0,1,1.06.2,2.42,2.42,0,0,1,.85.54,2.53,2.53,0,0,1,.56.84A2.67,2.67,0,0,1,368.43,114.15Zm-4.42,0a2,2,0,0,0,.13.74,1.85,1.85,0,0,0,.36.57,1.57,1.57,0,0,0,.55.37,1.78,1.78,0,0,0,.7.14,1.74,1.74,0,0,0,.69-.14,1.56,1.56,0,0,0,.57-.37,1.7,1.7,0,0,0,.37-.57,2.21,2.21,0,0,0,.13-.74,2.09,2.09,0,0,0-.13-.72,1.76,1.76,0,0,0-.37-.56,1.7,1.7,0,0,0-.57-.37,1.73,1.73,0,0,0-.69-.13,1.78,1.78,0,0,0-.7.13,1.72,1.72,0,0,0-.55.37,1.92,1.92,0,0,0-.36.56A1.88,1.88,0,0,0,364,114.15Zm7.53,6.33v.8h-6.88v-3.45h.93v2.65Zm-.31-1.85h-.93v-7.86h.93Z"/>
  <path class="cls-6" d="M 281.453 238.25 L 283.453 238.25 C 283.813 238.243 284.172 238.28 284.523 238.36 C 284.819 238.42 285.099 238.543 285.343 238.72 C 285.577 238.894 285.763 239.124 285.883 239.39 C 286.015 239.707 286.079 240.047 286.073 240.39 C 286.075 240.732 286.011 241.072 285.883 241.39 C 285.766 241.666 285.584 241.909 285.353 242.1 C 285.112 242.287 284.837 242.427 284.543 242.51 C 284.218 242.601 283.881 242.648 283.543 242.65 L 282.393 242.65 L 282.393 245.56 L 281.513 245.56 Z M 283.373 241.93 C 283.856 241.965 284.335 241.835 284.733 241.56 C 285.051 241.262 285.214 240.834 285.173 240.4 C 285.221 239.975 285.048 239.556 284.713 239.29 C 284.29 239.063 283.812 238.959 283.333 238.99 L 282.333 238.99 L 282.333 241.93 Z"/>
  <path class="cls-6" d="M 290.033 245.69 C 289.618 245.695 289.207 245.603 288.833 245.42 C 288.464 245.24 288.14 244.98 287.883 244.66 C 287.609 244.3 287.403 243.893 287.273 243.46 C 287.125 242.943 287.051 242.408 287.053 241.87 C 287.048 241.335 287.123 240.803 287.273 240.29 C 287.401 239.859 287.608 239.455 287.883 239.1 C 288.407 238.453 289.201 238.084 290.033 238.1 C 290.448 238.093 290.859 238.182 291.233 238.36 C 291.601 238.533 291.923 238.79 292.173 239.11 C 292.453 239.463 292.66 239.867 292.783 240.3 C 292.939 240.812 293.013 241.345 293.003 241.88 C 293.011 242.418 292.937 242.954 292.783 243.47 C 292.658 243.905 292.451 244.312 292.173 244.67 C 291.92 244.99 291.599 245.249 291.233 245.43 C 290.858 245.607 290.448 245.696 290.033 245.69 Z M 290.033 244.88 C 290.331 244.884 290.625 244.808 290.883 244.66 C 291.142 244.511 291.364 244.306 291.533 244.06 C 291.726 243.769 291.868 243.448 291.953 243.11 C 292.058 242.705 292.108 242.288 292.103 241.87 C 292.109 241.452 292.058 241.035 291.953 240.63 C 291.868 240.295 291.726 239.977 291.533 239.69 C 291.365 239.445 291.143 239.243 290.883 239.1 C 290.344 238.834 289.712 238.834 289.173 239.1 C 288.914 239.243 288.691 239.445 288.523 239.69 C 288.33 239.977 288.188 240.295 288.103 240.63 C 288.002 241.035 287.955 241.452 287.963 241.87 C 287.955 242.288 288.002 242.705 288.103 243.11 C 288.188 243.448 288.33 243.769 288.523 244.06 C 288.692 244.306 288.915 244.511 289.173 244.66 C 289.435 244.81 289.732 244.886 290.033 244.88 Z"/>
  <path class="cls-6" d="M 296.443 245.69 C 295.974 245.693 295.51 245.595 295.083 245.4 C 294.672 245.21 294.305 244.938 294.003 244.6 L 294.523 243.97 C 294.771 244.245 295.07 244.47 295.403 244.63 C 295.73 244.79 296.089 244.876 296.453 244.88 C 296.838 244.902 297.218 244.784 297.523 244.55 C 297.781 244.336 297.925 244.015 297.913 243.68 C 297.918 243.515 297.888 243.352 297.823 243.2 C 297.765 243.07 297.68 242.954 297.573 242.86 C 297.468 242.758 297.346 242.673 297.213 242.61 C 297.073 242.53 296.923 242.46 296.753 242.38 L 295.753 241.92 C 295.583 241.84 295.423 241.75 295.253 241.65 C 295.085 241.546 294.934 241.418 294.803 241.27 C 294.656 241.117 294.541 240.937 294.463 240.74 C 294.371 240.518 294.327 240.28 294.333 240.04 C 294.336 239.507 294.56 239 294.953 238.64 C 295.158 238.459 295.396 238.32 295.653 238.23 C 295.934 238.137 296.228 238.089 296.523 238.09 C 296.924 238.084 297.321 238.169 297.683 238.34 C 298.026 238.495 298.333 238.719 298.583 239 L 298.113 239.59 C 297.911 239.377 297.67 239.204 297.403 239.08 C 297.127 238.956 296.826 238.895 296.523 238.9 C 296.182 238.881 295.846 238.984 295.573 239.19 C 295.343 239.387 295.214 239.677 295.223 239.98 C 295.223 240.14 295.26 240.298 295.333 240.44 C 295.405 240.561 295.493 240.672 295.593 240.77 C 295.707 240.863 295.831 240.944 295.963 241.01 L 296.373 241.2 L 297.373 241.65 C 297.572 241.737 297.762 241.841 297.943 241.96 C 298.114 242.069 298.265 242.204 298.393 242.36 C 298.525 242.518 298.63 242.697 298.703 242.89 C 298.776 243.123 298.81 243.366 298.803 243.61 C 298.807 243.888 298.752 244.164 298.643 244.42 C 298.533 244.67 298.373 244.894 298.173 245.08 C 297.955 245.278 297.7 245.431 297.423 245.53 C 297.108 245.637 296.777 245.691 296.443 245.69 Z"/>
  <path class="cls-6" d="M 301.423 239.01 L 299.313 239.01 L 299.313 238.25 L 304.413 238.25 L 304.413 239.03 L 302.303 239.03 L 302.303 245.58 L 301.423 245.58 Z"/>
  <path class="cls-6" d="M 313 236.88 L 313.63 236.88 L 310.79 246.6 L 310.15 246.6 Z"/>
  <path class="cls-6" d="M 313.91 239.88 L 314.81 239.88 L 315.81 242.97 C 315.89 243.23 315.97 243.5 316.05 243.78 L 316.29 244.57 L 316.29 244.57 L 316.53 243.78 C 316.61 243.5 316.69 243.23 316.77 242.97 L 317.77 239.88 L 318.62 239.88 L 316.79 245.31 L 315.79 245.31 Z"/>
  <path class="cls-6" d="M 323.73 244.57 L 323.73 245.31 L 320 245.31 L 320 244.57 L 321.55 244.57 L 321.55 239.29 C 321.545 239.207 321.545 239.123 321.55 239.04 L 320.28 240.23 L 319.82 239.64 L 321.69 237.94 L 322.38 237.94 L 322.38 244.57 Z"/>
  <path class="cls-6" d="M 327.35 236.88 L 328 236.88 L 325.16 246.6 L 324.52 246.6 Z"/>
  <path class="cls-6" d="M 329 239.88 L 329.72 239.88 L 329.79 240.5 L 329.79 240.5 C 330.026 240.295 330.284 240.117 330.56 239.97 C 330.824 239.817 331.125 239.738 331.43 239.74 C 331.736 239.73 332.039 239.799 332.31 239.94 C 332.568 240.073 332.79 240.265 332.96 240.5 C 333.141 240.764 333.273 241.059 333.35 241.37 C 333.446 241.742 333.493 242.126 333.49 242.51 C 333.493 242.931 333.429 243.349 333.3 243.75 C 333.192 244.083 333.026 244.394 332.81 244.67 C 332.614 244.909 332.368 245.104 332.09 245.24 C 331.826 245.372 331.535 245.44 331.24 245.44 C 330.994 245.435 330.752 245.377 330.53 245.27 C 330.272 245.148 330.033 244.99 329.82 244.8 L 329.82 245.75 L 329.82 247.6 L 329 247.6 Z M 331.13 244.67 C 331.339 244.671 331.546 244.62 331.73 244.52 C 331.916 244.413 332.077 244.266 332.2 244.09 C 332.34 243.887 332.442 243.66 332.5 243.42 C 332.58 243.124 332.617 242.817 332.61 242.51 C 332.614 242.235 332.59 241.96 332.54 241.69 C 332.496 241.468 332.415 241.255 332.3 241.06 C 332.197 240.89 332.052 240.749 331.88 240.65 C 331.69 240.549 331.475 240.501 331.26 240.51 C 331.023 240.511 330.792 240.576 330.59 240.7 C 330.326 240.849 330.083 241.034 329.87 241.25 L 329.87 244.1 C 330.066 244.289 330.297 244.438 330.55 244.54 C 330.731 244.615 330.924 244.659 331.12 244.67 Z"/>
  <path class="cls-6" d="M 335.91 245.44 C 335.705 245.44 335.502 245.403 335.31 245.33 C 335.133 245.257 334.973 245.148 334.84 245.01 C 334.698 244.869 334.588 244.698 334.52 244.51 C 334.445 244.298 334.407 244.075 334.41 243.85 C 334.363 243.232 334.685 242.644 335.23 242.35 C 335.965 242.009 336.77 241.844 337.58 241.87 C 337.583 241.699 337.566 241.527 337.53 241.36 C 337.506 241.207 337.451 241.061 337.37 240.93 C 337.288 240.8 337.175 240.694 337.04 240.62 C 336.88 240.537 336.7 240.499 336.52 240.51 C 336.22 240.508 335.922 240.559 335.64 240.66 C 335.383 240.752 335.141 240.88 334.92 241.04 L 334.58 240.39 C 334.861 240.199 335.167 240.047 335.49 239.94 C 335.864 239.801 336.261 239.733 336.66 239.74 C 336.939 239.732 337.215 239.787 337.47 239.9 C 337.692 239.995 337.883 240.151 338.02 240.35 C 338.174 240.562 338.283 240.804 338.34 241.06 C 338.415 241.357 338.452 241.663 338.45 241.97 L 338.45 245.31 L 337.73 245.31 L 337.66 244.72 L 337.66 244.72 C 337.417 244.928 337.148 245.102 336.86 245.24 C 336.562 245.375 336.237 245.444 335.91 245.44 Z M 336.16 244.7 C 336.404 244.7 336.645 244.652 336.87 244.56 C 337.131 244.435 337.371 244.27 337.58 244.07 L 337.58 242.46 C 337.201 242.482 336.823 242.529 336.45 242.6 C 336.197 242.644 335.953 242.732 335.73 242.86 C 335.569 242.943 335.439 243.077 335.36 243.24 C 335.284 243.41 335.247 243.594 335.25 243.78 C 335.231 244.037 335.327 244.289 335.51 244.47 C 335.693 244.621 335.923 244.703 336.16 244.7 Z"/>
  <path class="cls-6" d="M 340.61 247.65 L 341.42 245.26 L 339.35 239.88 L 340.25 239.88 L 341.31 242.88 C 341.377 243.107 341.457 243.357 341.55 243.63 C 341.63 243.89 341.72 244.15 341.8 244.4 L 341.85 244.4 C 341.92 244.15 341.99 243.89 342.07 243.63 L 342.28 242.88 L 343.21 239.88 L 344.05 239.88 L 341.42 247.65 Z"/>
  <path class="cls-6" d="M 345 239.88 L 345.71 239.88 L 345.79 240.67 L 345.79 240.67 C 346.001 240.417 346.247 240.194 346.52 240.01 C 346.776 239.834 347.079 239.74 347.39 239.74 C 347.724 239.718 348.054 239.817 348.32 240.02 C 348.554 240.222 348.727 240.485 348.82 240.78 C 349.054 240.494 349.327 240.241 349.63 240.03 C 349.887 239.838 350.2 239.736 350.52 239.74 C 350.98 239.703 351.427 239.907 351.7 240.28 C 351.987 240.758 352.12 241.314 352.08 241.87 L 352.08 245.31 L 351.22 245.31 L 351.22 242 C 351.252 241.616 351.172 241.23 350.99 240.89 C 350.823 240.657 350.546 240.528 350.26 240.55 C 349.728 240.629 349.256 240.931 348.96 241.38 L 348.96 245.32 L 348.09 245.32 L 348.09 242 C 348.122 241.616 348.042 241.23 347.86 240.89 C 347.697 240.657 347.423 240.527 347.14 240.55 C 346.604 240.624 346.126 240.927 345.83 241.38 L 345.83 245.32 L 345 245.32 Z"/>
  <path class="cls-6" d="M 355.92 245.44 C 355.577 245.444 355.237 245.379 354.92 245.25 C 354.623 245.121 354.358 244.93 354.14 244.69 C 353.908 244.43 353.728 244.128 353.61 243.8 C 353.477 243.414 353.413 243.008 353.42 242.6 C 353.412 242.195 353.477 241.792 353.61 241.41 C 353.722 241.078 353.899 240.772 354.13 240.51 C 354.337 240.27 354.593 240.075 354.88 239.94 C 355.15 239.806 355.448 239.737 355.75 239.74 C 356.053 239.735 356.353 239.796 356.63 239.92 C 356.879 240.04 357.097 240.215 357.27 240.43 C 357.454 240.672 357.59 240.947 357.67 241.24 C 357.761 241.566 357.809 241.902 357.81 242.24 C 357.81 242.34 357.81 242.43 357.81 242.52 C 357.81 242.61 357.81 242.69 357.81 242.76 L 354.32 242.76 C 354.322 243.266 354.502 243.755 354.83 244.14 C 355.136 244.478 355.574 244.665 356.03 244.65 C 356.265 244.654 356.5 244.613 356.72 244.53 C 356.932 244.451 357.133 244.347 357.32 244.22 L 357.64 244.82 C 357.401 244.979 357.146 245.113 356.88 245.22 C 356.577 245.354 356.251 245.429 355.92 245.44 Z M 357.07 242.17 C 357.101 241.724 356.981 241.28 356.73 240.91 C 356.492 240.605 356.115 240.443 355.73 240.48 C 355.55 240.476 355.372 240.514 355.21 240.59 C 355.04 240.67 354.887 240.782 354.76 240.92 C 354.616 241.075 354.501 241.255 354.42 241.45 C 354.328 241.68 354.271 241.923 354.25 242.17 Z"/>
  <path class="cls-6" d="M 359.1 239.88 L 359.81 239.88 L 359.89 240.66 L 359.89 240.66 C 360.121 240.411 360.383 240.193 360.67 240.01 C 360.95 239.829 361.277 239.735 361.61 239.74 C 362.076 239.702 362.53 239.906 362.81 240.28 C 363.097 240.758 363.23 241.314 363.19 241.87 L 363.19 245.31 L 362.33 245.31 L 362.33 242 C 362.363 241.614 362.279 241.228 362.09 240.89 C 361.921 240.654 361.639 240.524 361.35 240.55 C 361.097 240.546 360.85 240.619 360.64 240.76 C 360.38 240.938 360.142 241.146 359.93 241.38 L 359.93 245.32 L 359.07 245.32 Z"/>
  <path class="cls-6" d="M 366.53 245.44 C 366.29 245.444 366.052 245.4 365.83 245.31 C 365.649 245.229 365.494 245.102 365.38 244.94 C 365.257 244.77 365.172 244.576 365.13 244.37 C 365.08 244.127 365.056 243.878 365.06 243.63 L 365.06 240.63 L 364.29 240.63 L 364.29 239.94 L 365.09 239.89 L 365.2 238.37 L 365.92 238.37 L 365.92 239.89 L 367.32 239.89 L 367.32 240.63 L 365.92 240.63 L 365.92 243.63 C 365.905 243.901 365.964 244.17 366.09 244.41 C 366.236 244.607 366.477 244.71 366.72 244.68 C 366.816 244.693 366.914 244.693 367.01 244.68 L 367.31 244.59 L 367.48 245.27 C 367.33 245.27 367.18 245.37 367.01 245.41 C 366.852 245.439 366.691 245.449 366.53 245.44 Z"/>
  <path class="cls-6" d="M 369.83 245.44 C 369.469 245.437 369.112 245.363 368.78 245.22 C 368.461 245.09 368.164 244.911 367.9 244.69 L 368.33 244.09 C 368.543 244.272 368.778 244.426 369.03 244.55 C 369.289 244.674 369.573 244.736 369.86 244.73 C 370.139 244.748 370.414 244.658 370.63 244.48 C 370.789 244.32 370.878 244.105 370.88 243.88 C 370.882 243.751 370.844 243.625 370.77 243.52 C 370.696 243.416 370.604 243.324 370.5 243.25 C 370.383 243.161 370.256 243.087 370.12 243.03 L 369.7 242.85 L 369.15 242.62 C 368.976 242.531 368.812 242.424 368.66 242.3 C 368.514 242.181 368.391 242.035 368.3 241.87 C 368.204 241.689 368.155 241.485 368.16 241.28 C 368.157 241.074 368.198 240.869 368.28 240.68 C 368.36 240.494 368.48 240.326 368.63 240.19 C 368.793 240.044 368.983 239.931 369.19 239.86 C 369.431 239.777 369.685 239.736 369.94 239.74 C 370.245 239.738 370.547 239.796 370.83 239.91 C 371.086 240.019 371.325 240.164 371.54 240.34 L 371.13 240.93 C 370.955 240.796 370.767 240.678 370.57 240.58 C 370.372 240.49 370.157 240.446 369.94 240.45 C 369.681 240.423 369.424 240.506 369.23 240.68 C 369.076 240.821 368.992 241.022 369 241.23 C 368.996 241.347 369.028 241.462 369.09 241.56 C 369.162 241.655 369.25 241.736 369.35 241.8 C 369.466 241.877 369.59 241.941 369.72 241.99 L 370.14 242.17 C 370.331 242.24 370.518 242.32 370.7 242.41 C 370.884 242.493 371.055 242.6 371.21 242.73 C 371.356 242.853 371.478 243.002 371.57 243.17 C 371.672 243.371 371.72 243.595 371.71 243.82 C 371.711 244.036 371.67 244.25 371.59 244.45 C 371.513 244.646 371.389 244.821 371.23 244.96 C 371.056 245.112 370.856 245.231 370.64 245.31 C 370.379 245.398 370.105 245.442 369.83 245.44 Z"/>
  <path class="cls-6" d="M 375 236.88 L 375.63 236.88 L 372.79 246.6 L 372.15 246.6 Z"/>
  <path class="cls-6" d="M 376.65 239.88 L 377.37 239.88 L 377.44 240.66 L 377.44 240.66 C 377.677 240.413 377.942 240.195 378.23 240.01 C 378.509 239.828 378.837 239.734 379.17 239.74 C 379.636 239.704 380.088 239.907 380.37 240.28 C 380.653 240.76 380.786 241.314 380.75 241.87 L 380.75 245.31 L 379.88 245.31 L 379.88 242 C 379.912 241.616 379.832 241.23 379.65 240.89 C 379.477 240.653 379.192 240.525 378.9 240.55 C 378.648 240.547 378.4 240.62 378.19 240.76 C 377.933 240.939 377.698 241.147 377.49 241.38 L 377.49 245.32 L 376.62 245.32 Z"/>
  <path class="cls-6" d="M 384.54 245.44 C 384.198 245.442 383.858 245.377 383.54 245.25 C 383.243 245.121 382.978 244.93 382.76 244.69 C 382.528 244.43 382.348 244.128 382.23 243.8 C 382.097 243.414 382.033 243.008 382.04 242.6 C 382.032 242.195 382.097 241.792 382.23 241.41 C 382.346 241.08 382.522 240.775 382.75 240.51 C 382.957 240.27 383.213 240.075 383.5 239.94 C 383.77 239.806 384.068 239.737 384.37 239.74 C 384.673 239.735 384.973 239.796 385.25 239.92 C 385.5 240.038 385.719 240.212 385.89 240.43 C 386.078 240.669 386.214 240.945 386.29 241.24 C 386.381 241.566 386.429 241.902 386.43 242.24 C 386.43 242.34 386.43 242.43 386.43 242.52 C 386.43 242.61 386.43 242.69 386.43 242.76 L 382.94 242.76 C 382.947 243.265 383.127 243.752 383.45 244.14 C 383.756 244.478 384.194 244.665 384.65 244.65 C 384.889 244.653 385.126 244.613 385.35 244.53 C 385.562 244.451 385.763 244.347 385.95 244.22 L 386.26 244.82 C 386.021 244.979 385.766 245.113 385.5 245.22 C 385.197 245.354 384.871 245.429 384.54 245.44 Z M 385.69 242.17 C 385.721 241.724 385.601 241.28 385.35 240.91 C 385.127 240.621 384.775 240.46 384.41 240.48 C 384.227 240.476 384.046 240.513 383.88 240.59 C 383.71 240.67 383.557 240.782 383.43 240.92 C 383.286 241.073 383.174 241.253 383.1 241.45 C 383.005 241.68 382.944 241.922 382.92 242.17 Z"/>
  <path class="cls-6" d="M 389.35 245.44 C 389.11 245.445 388.872 245.401 388.65 245.31 C 388.469 245.229 388.314 245.102 388.2 244.94 C 388.077 244.77 387.992 244.576 387.95 244.37 C 387.896 244.127 387.869 243.879 387.87 243.63 L 387.87 240.63 L 387.1 240.63 L 387.1 239.94 L 387.91 239.89 L 388.02 238.37 L 388.74 238.37 L 388.74 239.89 L 390.13 239.89 L 390.13 240.63 L 388.74 240.63 L 388.74 243.63 C 388.72 243.901 388.779 244.172 388.91 244.41 C 389.056 244.607 389.297 244.71 389.54 244.68 C 389.636 244.692 389.734 244.692 389.83 244.68 L 390.12 244.59 L 390.3 245.27 L 389.83 245.41 C 389.672 245.439 389.511 245.449 389.35 245.44 Z"/>
  <path class="cls-6" d="M 393.34 245.44 C 392.997 245.445 392.657 245.38 392.34 245.25 C 392.048 245.118 391.786 244.927 391.57 244.69 C 391.34 244.432 391.167 244.129 391.06 243.8 C 390.931 243.413 390.866 243.008 390.87 242.6 C 390.862 242.187 390.933 241.776 391.08 241.39 C 391.199 241.057 391.382 240.751 391.62 240.49 C 391.841 240.246 392.115 240.054 392.42 239.93 C 392.717 239.802 393.037 239.737 393.36 239.74 C 393.665 239.729 393.967 239.795 394.24 239.93 C 394.471 240.052 394.683 240.207 394.87 240.39 L 394.43 241 C 394.287 240.859 394.125 240.738 393.95 240.64 C 393.778 240.549 393.585 240.504 393.39 240.51 C 393.165 240.508 392.942 240.56 392.74 240.66 C 392.543 240.759 392.372 240.903 392.24 241.08 C 392.088 241.278 391.972 241.501 391.9 241.74 C 391.747 242.3 391.747 242.89 391.9 243.45 C 391.967 243.686 392.079 243.907 392.23 244.1 C 392.365 244.274 392.535 244.417 392.73 244.52 C 392.931 244.622 393.154 244.674 393.38 244.67 C 393.613 244.668 393.842 244.613 394.05 244.51 C 394.249 244.408 394.434 244.28 394.6 244.13 L 394.97 244.74 C 394.746 244.955 394.485 245.128 394.2 245.25 C 393.93 245.373 393.637 245.437 393.34 245.44 Z"/>
  <path class="cls-6" d="M 397.32 245.44 C 397.115 245.441 396.911 245.404 396.72 245.33 C 396.54 245.257 396.377 245.148 396.24 245.01 C 396.104 244.866 395.999 244.696 395.93 244.51 C 395.846 244.3 395.805 244.076 395.81 243.85 C 395.768 243.23 396.093 242.643 396.64 242.35 C 397.375 242.009 398.18 241.844 398.99 241.87 C 398.988 241.699 398.971 241.528 398.94 241.36 C 398.913 241.207 398.855 241.061 398.77 240.93 C 398.695 240.798 398.584 240.691 398.45 240.62 C 398.286 240.539 398.103 240.501 397.92 240.51 C 397.624 240.509 397.329 240.56 397.05 240.66 C 396.792 240.75 396.55 240.878 396.33 241.04 L 395.99 240.39 C 396.269 240.2 396.571 240.049 396.89 239.94 C 397.268 239.802 397.668 239.734 398.07 239.74 C 398.345 239.731 398.619 239.785 398.87 239.9 C 399.095 239.995 399.289 240.151 399.43 240.35 C 399.58 240.565 399.688 240.806 399.75 241.06 C 399.822 241.358 399.855 241.664 399.85 241.97 L 399.85 245.31 L 399.14 245.31 L 399.06 244.72 L 399.06 244.72 C 398.815 244.93 398.543 245.105 398.25 245.24 C 397.958 245.374 397.641 245.442 397.32 245.44 Z M 397.56 244.7 C 397.807 244.7 398.051 244.653 398.28 244.56 C 398.54 244.433 398.779 244.267 398.99 244.07 L 398.99 242.46 C 398.607 242.482 398.227 242.529 397.85 242.6 C 397.599 242.642 397.359 242.73 397.14 242.86 C 396.979 242.943 396.849 243.077 396.77 243.24 C 396.694 243.41 396.657 243.594 396.66 243.78 C 396.641 244.037 396.737 244.289 396.92 244.47 C 397.097 244.625 397.325 244.707 397.56 244.7 Z"/>
  <path class="cls-6" d="M 401.5 239.88 L 402.21 239.88 L 402.28 240.66 L 402.28 240.66 C 402.517 240.413 402.782 240.195 403.07 240.01 C 403.349 239.828 403.677 239.734 404.01 239.74 C 404.476 239.702 404.93 239.906 405.21 240.28 C 405.493 240.76 405.626 241.314 405.59 241.87 L 405.59 245.31 L 404.72 245.31 L 404.72 242 C 404.752 241.616 404.672 241.23 404.49 240.89 C 404.321 240.654 404.039 240.524 403.75 240.55 C 403.494 240.546 403.243 240.619 403.03 240.76 C 402.773 240.939 402.538 241.147 402.33 241.38 L 402.33 245.32 L 401.47 245.32 Z"/>
  <path class="cls-6" d="M 409.33 245.44 C 409.004 245.44 408.681 245.375 408.38 245.25 C 408.086 245.12 407.824 244.929 407.61 244.69 C 407.38 244.432 407.207 244.129 407.1 243.8 C 406.966 243.414 406.902 243.008 406.91 242.6 C 406.902 242.187 406.973 241.776 407.12 241.39 C 407.235 241.055 407.419 240.749 407.66 240.49 C 407.878 240.246 408.148 240.054 408.45 239.93 C 408.751 239.803 409.074 239.738 409.4 239.74 C 409.701 239.729 410 239.795 410.27 239.93 C 410.504 240.052 410.72 240.207 410.91 240.39 L 410.46 241 C 410.32 240.859 410.162 240.738 409.99 240.64 C 409.817 240.55 409.625 240.506 409.43 240.51 C 409.204 240.507 408.982 240.559 408.78 240.66 C 408.582 240.762 408.408 240.905 408.27 241.08 C 408.125 241.281 408.013 241.503 407.94 241.74 C 407.848 242.017 407.805 242.308 407.81 242.6 C 407.807 242.888 407.847 243.174 407.93 243.45 C 407.993 243.688 408.105 243.909 408.26 244.1 C 408.395 244.274 408.565 244.417 408.76 244.52 C 408.961 244.622 409.184 244.674 409.41 244.67 C 409.64 244.669 409.866 244.614 410.07 244.51 C 410.274 244.41 410.462 244.282 410.63 244.13 L 411 244.74 C 410.776 244.955 410.515 245.128 410.23 245.25 C 409.947 245.377 409.64 245.442 409.33 245.44 Z"/>
  <path class="cls-6" d="M 414 245.44 C 413.657 245.443 413.318 245.378 413 245.25 C 412.703 245.121 412.438 244.93 412.22 244.69 C 411.988 244.43 411.808 244.128 411.69 243.8 C 411.557 243.414 411.493 243.008 411.5 242.6 C 411.492 242.195 411.557 241.792 411.69 241.41 C 411.806 241.08 411.982 240.775 412.21 240.51 C 412.417 240.27 412.673 240.075 412.96 239.94 C 413.23 239.806 413.528 239.737 413.83 239.74 C 414.133 239.735 414.433 239.796 414.71 239.92 C 414.959 240.04 415.177 240.215 415.35 240.43 C 415.534 240.672 415.67 240.947 415.75 241.24 C 415.841 241.566 415.889 241.902 415.89 242.24 C 415.89 242.34 415.89 242.43 415.89 242.52 C 415.89 242.61 415.89 242.69 415.89 242.76 L 412.4 242.76 C 412.402 243.266 412.582 243.755 412.91 244.14 C 413.216 244.478 413.654 244.665 414.11 244.65 C 414.349 244.653 414.586 244.613 414.81 244.53 C 415.021 244.449 415.222 244.345 415.41 244.22 L 415.72 244.82 C 415.481 244.979 415.226 245.113 414.96 245.22 C 414.657 245.354 414.331 245.429 414 245.44 Z M 415.15 242.17 C 415.181 241.724 415.061 241.28 414.81 240.91 C 414.583 240.619 414.228 240.458 413.86 240.48 C 413.681 240.477 413.503 240.515 413.34 240.59 C 413.17 240.67 413.017 240.782 412.89 240.92 C 412.746 241.075 412.631 241.255 412.55 241.45 C 412.463 241.682 412.406 241.924 412.38 242.17 Z"/>
  <path class="cls-6" d="M 417.17 245.31 L 417.17 237.31 L 418 237.31 L 418 245.31 Z"/>
  <path class="cls-6" d="M 572.34 275.6 C 571.86 275.69 571.34 275.76 570.88 275.81 C 570.42 275.86 569.88 275.91 569.41 275.94 L 569.41 279.62 L 568.47 279.62 L 568.47 276 L 567 276 L 565.64 276 L 565.51 275.17 L 567.07 275.17 C 567.63 275.17 568.2 275.17 568.78 275.17 C 569.36 275.17 569.94 275.11 570.53 275.07 C 571.12 275.03 571.7 274.96 572.26 274.87 Z M 566 273.68 C 566.348 273.602 566.685 273.477 567 273.31 C 567.286 273.158 567.548 272.966 567.78 272.74 C 567.992 272.535 568.161 272.29 568.28 272.02 C 568.399 271.759 568.46 271.476 568.46 271.19 L 568.46 271.19 L 566.2 271.19 L 566.2 270.43 L 568.45 270.43 L 568.45 269.23 L 569.39 269.23 L 569.39 270.43 L 571.64 270.43 L 571.64 271.19 L 569.39 271.19 L 569.39 271.19 C 569.386 271.456 569.444 271.72 569.56 271.96 C 569.684 272.212 569.854 272.439 570.06 272.63 C 570.29 272.846 570.549 273.027 570.83 273.17 C 571.147 273.334 571.483 273.459 571.83 273.54 L 571.46 274.31 C 570.907 274.175 570.385 273.938 569.92 273.61 C 569.501 273.319 569.158 272.932 568.92 272.48 C 568.693 272.966 568.35 273.389 567.92 273.71 C 567.46 274.064 566.933 274.319 566.37 274.46 Z M 573.93 269.18 L 573.93 280 L 573 280 L 573 269.18 Z"/>
  <path class="cls-6" d="M 585.31 277.73 L 585.31 278.53 L 576 278.53 L 576 277.73 L 580.13 277.73 L 580.13 275.11 L 581.06 275.11 L 581.06 277.73 Z M 584.46 275.24 C 584.056 275.152 583.663 275.018 583.29 274.84 C 582.906 274.661 582.54 274.443 582.2 274.19 C 581.866 273.931 581.56 273.636 581.29 273.31 C 581.015 272.99 580.792 272.629 580.63 272.24 C 580.461 272.626 580.239 272.986 579.97 273.31 C 579.699 273.638 579.39 273.933 579.05 274.19 C 578.71 274.443 578.344 274.661 577.96 274.84 C 577.591 275.019 577.201 275.153 576.8 275.24 L 576.41 274.43 C 576.878 274.341 577.329 274.183 577.75 273.96 C 578.183 273.736 578.584 273.453 578.94 273.12 C 579.288 272.802 579.578 272.426 579.8 272.01 C 580.019 271.615 580.136 271.172 580.14 270.72 L 580.14 269.89 L 581.14 269.89 L 581.14 270.72 C 581.14 271.171 581.254 271.614 581.47 272.01 C 581.695 272.424 581.985 272.799 582.33 273.12 C 582.693 273.454 583.1 273.736 583.54 273.96 C 583.957 274.183 584.406 274.341 584.87 274.43 Z"/>
  <path class="cls-6" d="M 569.08 287.05 C 569.076 287.498 569.144 287.943 569.28 288.37 C 569.406 288.795 569.588 289.202 569.82 289.58 C 570.05 289.949 570.329 290.286 570.65 290.58 C 570.961 290.87 571.315 291.11 571.7 291.29 L 571.19 292.05 C 570.585 291.757 570.054 291.33 569.64 290.8 C 569.191 290.234 568.852 289.59 568.64 288.9 C 568.433 289.623 568.094 290.301 567.64 290.9 C 567.235 291.458 566.709 291.916 566.1 292.24 L 565.58 291.48 C 565.948 291.28 566.285 291.027 566.58 290.73 C 566.903 290.416 567.182 290.059 567.41 289.67 C 567.642 289.274 567.824 288.851 567.95 288.41 C 568.077 287.961 568.141 287.497 568.14 287.03 L 568.14 286.2 L 565.83 286.2 L 565.83 285.41 L 568.13 285.41 L 568.13 283.74 L 569.07 283.74 L 569.07 285.41 L 571.34 285.41 L 571.34 286.2 L 569.07 286.2 Z M 573.97 283.56 L 573.97 294.36 L 573 294.36 L 573 288.7 L 570.79 288.7 L 570.79 287.89 L 573 287.89 L 573 283.56 Z"/>
  <path class="cls-6" d="M 577.56 290.94 L 578.79 290.94 C 579.19 290.94 579.6 290.94 580 290.88 L 581.23 290.76 L 582.53 290.58 L 582.62 291.37 C 582.16 291.45 581.71 291.52 581.28 291.57 L 580.01 291.69 L 578.76 291.75 L 576.62 291.75 L 576.62 287.63 L 580.39 287.63 L 580.39 285.38 L 576.59 285.38 L 576.59 284.58 L 581.32 284.58 L 581.32 288.43 L 577.56 288.43 Z M 584.42 283.56 L 584.42 294.35 L 583.49 294.35 L 583.49 283.56 Z"/>
  <path class="cls-4" d="M529.72,252.05a30,30,0,0,1,0,60"/>
  <polygon class="cls-5" points="525.09 259.19 525.09 244.79 537.09 251.99 525.09 259.19"/>
  <polygon class="cls-5" points="537.09 304.44 537.09 318.84 525.09 311.64 537.09 304.44"/>
  <path class="cls-6" d="M 303.596 188.171 L 301.596 184.441 L 300.086 184.441 L 300.086 188.171 L 299.026 188.171 L 299.026 179.401 L 301.656 179.401 C 302.052 179.398 302.448 179.438 302.836 179.521 C 303.167 179.599 303.48 179.742 303.756 179.941 C 304.02 180.143 304.23 180.408 304.366 180.711 C 304.519 181.078 304.594 181.473 304.586 181.871 C 304.615 182.462 304.431 183.045 304.066 183.511 C 303.707 183.928 303.223 184.219 302.686 184.341 L 304.826 188.191 Z M 300.046 183.551 L 301.476 183.551 C 302.011 183.585 302.542 183.441 302.986 183.141 C 303.349 182.815 303.541 182.338 303.506 181.851 C 303.553 181.376 303.358 180.91 302.986 180.611 C 302.527 180.351 302.002 180.23 301.476 180.261 L 300.066 180.261 Z"/>
  <path class="cls-6" d="M 308.636 188.331 C 308.238 188.332 307.843 188.254 307.476 188.101 C 307.116 187.952 306.794 187.722 306.536 187.431 C 306.255 187.121 306.04 186.757 305.906 186.361 C 305.586 185.431 305.586 184.421 305.906 183.491 C 306.043 183.096 306.254 182.729 306.526 182.411 C 306.777 182.126 307.083 181.895 307.426 181.731 C 307.738 181.581 308.079 181.499 308.426 181.491 C 308.787 181.483 309.145 181.555 309.476 181.701 C 309.781 181.844 310.048 182.056 310.256 182.321 C 310.477 182.622 310.639 182.961 310.736 183.321 C 310.849 183.731 310.903 184.156 310.896 184.581 C 310.896 184.701 310.896 184.811 310.896 184.921 C 310.896 185.031 310.896 185.121 310.896 185.201 L 306.706 185.201 C 306.708 185.809 306.924 186.396 307.316 186.861 C 307.682 187.267 308.209 187.491 308.756 187.471 C 309.042 187.473 309.326 187.426 309.596 187.331 C 309.849 187.238 310.088 187.111 310.306 186.951 L 310.686 187.681 C 310.398 187.869 310.093 188.029 309.776 188.161 C 309.409 188.287 309.023 188.345 308.636 188.331 Z M 310.016 184.401 C 310.05 183.866 309.906 183.335 309.606 182.891 C 309.328 182.558 308.909 182.376 308.476 182.401 C 308.259 182.399 308.044 182.443 307.846 182.531 C 307.639 182.628 307.452 182.764 307.296 182.931 C 307.125 183.117 306.992 183.334 306.906 183.571 C 306.79 183.841 306.719 184.128 306.696 184.421 Z"/>
  <path class="cls-6" d="M 313.686 188.331 C 313.44 188.33 313.196 188.286 312.966 188.201 C 312.752 188.114 312.559 187.984 312.396 187.821 C 312.231 187.648 312.102 187.444 312.016 187.221 C 311.924 186.964 311.88 186.693 311.886 186.421 C 311.839 185.677 312.23 184.975 312.886 184.621 C 313.771 184.212 314.741 184.016 315.716 184.051 C 315.716 183.846 315.696 183.642 315.656 183.441 C 315.62 183.257 315.552 183.081 315.456 182.921 C 315.359 182.763 315.221 182.635 315.056 182.551 C 314.864 182.452 314.651 182.404 314.436 182.411 C 314.077 182.407 313.721 182.472 313.386 182.601 C 313.076 182.71 312.784 182.862 312.516 183.051 L 312.106 182.271 C 312.445 182.046 312.811 181.864 313.196 181.731 C 313.648 181.569 314.125 181.488 314.606 181.491 C 314.949 181.477 315.291 181.542 315.606 181.681 C 315.871 181.807 316.101 181.996 316.276 182.231 C 316.453 182.485 316.582 182.77 316.656 183.071 C 316.739 183.428 316.779 183.794 316.776 184.161 L 316.776 188.161 L 315.926 188.161 L 315.836 187.451 L 315.836 187.451 C 315.535 187.709 315.198 187.922 314.836 188.081 C 314.477 188.252 314.083 188.337 313.686 188.331 Z M 313.986 187.441 C 314.278 187.441 314.566 187.383 314.836 187.271 C 315.154 187.125 315.445 186.925 315.696 186.681 L 315.696 184.751 C 315.235 184.779 314.778 184.839 314.326 184.931 C 314.024 184.98 313.733 185.081 313.466 185.231 C 313.276 185.336 313.122 185.497 313.026 185.691 C 312.933 185.895 312.888 186.117 312.896 186.341 C 312.864 186.651 312.979 186.958 313.206 187.171 C 313.429 187.341 313.706 187.423 313.986 187.401 Z"/>
  <path class="cls-6" d="M 320.806 188.331 C 320.443 188.334 320.084 188.256 319.756 188.101 C 319.439 187.951 319.164 187.724 318.956 187.441 C 318.733 187.127 318.571 186.774 318.476 186.401 C 318.349 185.928 318.289 185.44 318.296 184.951 C 318.288 184.465 318.362 183.982 318.516 183.521 C 318.651 183.131 318.85 182.766 319.106 182.441 C 319.339 182.158 319.628 181.926 319.956 181.761 C 320.266 181.605 320.608 181.523 320.956 181.521 C 321.28 181.514 321.602 181.583 321.896 181.721 C 322.184 181.88 322.452 182.071 322.696 182.291 L 322.646 181.161 L 322.646 178.651 L 323.646 178.651 L 323.646 188.201 L 322.806 188.201 L 322.706 187.431 L 322.706 187.431 C 322.462 187.694 322.179 187.917 321.866 188.091 C 321.54 188.264 321.174 188.347 320.806 188.331 Z M 321.036 187.401 C 321.324 187.403 321.607 187.327 321.856 187.181 C 322.146 187 322.406 186.773 322.626 186.511 L 322.626 183.091 C 322.402 182.878 322.146 182.702 321.866 182.571 C 321.63 182.464 321.374 182.409 321.116 182.411 C 320.871 182.41 320.63 182.472 320.416 182.591 C 320.19 182.716 319.995 182.89 319.846 183.101 C 319.674 183.34 319.545 183.608 319.466 183.891 C 319.372 184.216 319.325 184.553 319.326 184.891 C 319.288 185.539 319.445 186.183 319.776 186.741 C 320.049 187.169 320.528 187.42 321.036 187.401 Z"/>
  <path class="cls-6" d="M 325.286 183.321 L 329.056 183.321 L 329.056 184.181 L 325.286 184.181 Z"/>
  <path class="cls-6" d="M 332.616 188.331 C 332.33 188.342 332.046 188.287 331.786 188.171 C 331.566 188.076 331.376 187.924 331.236 187.731 C 331.094 187.526 330.995 187.295 330.946 187.051 C 330.884 186.758 330.853 186.46 330.856 186.161 L 330.856 182.541 L 329.926 182.541 L 329.926 181.721 L 330.926 181.661 L 331.056 179.831 L 331.916 179.831 L 331.916 181.661 L 333.596 181.661 L 333.596 182.541 L 331.916 182.541 L 331.916 186.181 C 331.896 186.508 331.969 186.834 332.126 187.121 C 332.304 187.35 332.587 187.471 332.876 187.441 C 332.995 187.454 333.116 187.454 333.236 187.441 L 333.586 187.321 L 333.786 188.141 L 333.236 188.311 C 333.03 188.339 332.823 188.345 332.616 188.331 Z"/>
  <path class="cls-6" d="M 335.476 180.311 C 335.075 180.329 334.744 180.002 334.756 179.601 C 334.748 179.407 334.82 179.219 334.956 179.081 C 335.101 178.959 335.286 178.895 335.476 178.901 C 335.662 178.896 335.844 178.961 335.986 179.081 C 336.126 179.216 336.199 179.407 336.186 179.601 C 336.196 179.792 336.123 179.978 335.986 180.111 C 335.851 180.245 335.666 180.318 335.476 180.311 Z M 334.946 181.661 L 335.946 181.661 L 335.946 188.171 L 334.946 188.171 Z"/>
  <path class="cls-6" d="M 338.106 181.661 L 338.956 181.661 L 339.046 182.601 L 339.046 182.601 C 339.302 182.299 339.598 182.033 339.926 181.811 C 340.222 181.611 340.569 181.5 340.926 181.491 C 341.326 181.465 341.723 181.582 342.046 181.821 C 342.324 182.067 342.528 182.386 342.636 182.741 C 342.93 182.4 343.266 182.098 343.636 181.841 C 343.941 181.612 344.314 181.489 344.696 181.491 C 345.253 181.443 345.796 181.689 346.126 182.141 C 346.467 182.714 346.627 183.376 346.586 184.041 L 346.586 188.171 L 345.586 188.171 L 345.586 184.171 C 345.624 183.71 345.527 183.248 345.306 182.841 C 345.105 182.565 344.777 182.41 344.436 182.431 C 343.798 182.53 343.232 182.893 342.876 183.431 L 342.876 188.161 L 341.876 188.161 L 341.876 184.161 C 341.909 183.7 341.812 183.239 341.596 182.831 C 341.395 182.555 341.067 182.4 340.726 182.421 C 340.084 182.516 339.513 182.88 339.156 183.421 L 339.156 188.151 L 338.156 188.151 Z"/>
  <path class="cls-6" d="M 351.156 188.331 C 350.758 188.332 350.363 188.254 349.996 188.101 C 349.636 187.952 349.314 187.722 349.056 187.431 C 348.801 187.126 348.604 186.777 348.476 186.401 C 348.169 185.469 348.169 184.463 348.476 183.531 C 348.617 183.137 348.827 182.772 349.096 182.451 C 349.347 182.166 349.653 181.935 349.996 181.771 C 350.308 181.621 350.649 181.539 350.996 181.531 C 351.357 181.525 351.715 181.597 352.046 181.741 C 352.346 181.887 352.609 182.099 352.816 182.361 C 353.04 182.66 353.203 182.999 353.296 183.361 C 353.409 183.771 353.463 184.196 353.456 184.621 C 353.456 184.741 353.456 184.851 353.456 184.961 C 353.456 185.071 353.456 185.161 353.456 185.241 L 349.266 185.241 C 349.268 185.849 349.484 186.436 349.876 186.901 C 350.244 187.31 350.776 187.534 351.326 187.511 C 351.608 187.513 351.889 187.465 352.156 187.371 C 352.411 187.276 352.653 187.149 352.876 186.991 L 353.246 187.721 C 352.958 187.909 352.653 188.069 352.336 188.201 C 351.954 188.319 351.554 188.363 351.156 188.331 Z M 352.536 184.401 C 352.57 183.866 352.426 183.335 352.126 182.891 C 351.854 182.548 351.433 182.358 350.996 182.381 C 350.779 182.379 350.564 182.423 350.366 182.511 C 350.163 182.611 349.981 182.747 349.826 182.911 C 349.652 183.096 349.516 183.314 349.426 183.551 C 349.31 183.821 349.239 184.108 349.216 184.401 Z"/>
  <path class="cls-6" d="M 357.376 188.331 C 357.004 188.331 356.636 188.253 356.296 188.101 C 355.942 187.951 355.627 187.722 355.376 187.431 C 355.095 187.125 354.88 186.764 354.746 186.371 C 354.426 185.431 354.426 184.411 354.746 183.471 C 354.878 183.071 355.092 182.703 355.376 182.391 C 355.884 181.821 356.612 181.493 357.376 181.491 C 357.752 181.486 358.124 181.565 358.466 181.721 C 358.818 181.874 359.132 182.102 359.386 182.391 C 359.669 182.703 359.884 183.071 360.016 183.471 C 360.336 184.411 360.336 185.431 360.016 186.371 C 359.881 186.764 359.667 187.125 359.386 187.431 C 359.132 187.72 358.818 187.948 358.466 188.101 C 358.122 188.253 357.751 188.331 357.376 188.331 Z M 357.376 187.401 C 357.63 187.404 357.882 187.342 358.106 187.221 C 358.333 187.103 358.529 186.931 358.676 186.721 C 358.85 186.488 358.976 186.223 359.046 185.941 C 359.225 185.286 359.225 184.596 359.046 183.941 C 358.972 183.654 358.846 183.383 358.676 183.141 C 358.526 182.93 358.332 182.756 358.106 182.631 C 357.882 182.51 357.63 182.448 357.376 182.451 C 357.121 182.449 356.87 182.511 356.646 182.631 C 356.423 182.756 356.231 182.931 356.086 183.141 C 355.918 183.384 355.796 183.655 355.726 183.941 C 355.547 184.596 355.547 185.286 355.726 185.941 C 355.792 186.223 355.915 186.488 356.086 186.721 C 356.229 186.931 356.421 187.102 356.646 187.221 C 356.87 187.341 357.121 187.403 357.376 187.401 Z"/>
  <path class="cls-6" d="M 363.686 188.331 C 363.129 188.375 362.588 188.13 362.256 187.681 C 361.918 187.107 361.761 186.445 361.806 185.781 L 361.806 181.661 L 362.806 181.661 L 362.806 185.661 C 362.773 186.119 362.87 186.576 363.086 186.981 C 363.291 187.264 363.628 187.419 363.976 187.391 C 364.28 187.399 364.578 187.308 364.826 187.131 C 365.143 186.897 365.42 186.613 365.646 186.291 L 365.646 181.661 L 366.646 181.661 L 366.646 188.171 L 365.776 188.171 L 365.696 187.171 L 365.696 187.171 C 365.433 187.498 365.123 187.785 364.776 188.021 C 364.45 188.227 364.071 188.335 363.686 188.331 Z"/>
  <path class="cls-6" d="M 370.756 188.331 C 370.467 188.343 370.18 188.288 369.916 188.171 C 369.697 188.079 369.51 187.926 369.376 187.731 C 369.227 187.529 369.124 187.297 369.076 187.051 C 369.014 186.758 368.983 186.46 368.986 186.161 L 368.986 182.541 L 368.066 182.541 L 368.066 181.721 L 369.066 181.661 L 369.186 179.831 L 370.056 179.831 L 370.056 181.661 L 371.726 181.661 L 371.726 182.541 L 370.056 182.541 L 370.056 186.181 C 370.033 186.507 370.103 186.833 370.256 187.121 C 370.434 187.35 370.717 187.471 371.006 187.441 C 371.125 187.454 371.246 187.454 371.366 187.441 L 371.716 187.321 L 371.926 188.141 C 371.746 188.201 371.566 188.261 371.366 188.311 C 371.164 188.338 370.959 188.345 370.756 188.331 Z"/>
  <path class="cls-6" d="M 382.274 183.623 L 377.534 183.623 L 377.534 178.913 L 378.454 178.913 L 378.454 180.463 L 381.354 180.463 L 381.354 178.913 L 382.274 178.913 Z M 381.354 181.223 L 378.454 181.223 L 378.454 182.833 L 381.354 182.833 Z M 379.504 188.343 L 385.434 188.343 L 385.434 189.113 L 378.584 189.113 L 378.584 186.433 L 384.124 186.433 L 384.124 185.333 L 378.544 185.333 L 378.544 184.563 L 385.044 184.563 L 385.044 187.183 L 379.504 187.183 Z M 386.564 180.803 L 386.564 181.613 L 385.044 181.613 L 385.044 184.043 L 384.114 184.043 L 384.114 178.503 L 385.044 178.503 L 385.044 180.803 Z"/>
  <path class="cls-6" d="M 392.214 184.283 C 391.749 184.089 391.33 183.8 390.984 183.433 C 390.652 183.071 390.384 182.655 390.194 182.203 C 390.011 182.709 389.74 183.18 389.394 183.593 C 389.051 184.021 388.613 184.363 388.114 184.593 L 387.614 183.833 C 387.941 183.681 388.241 183.478 388.504 183.233 C 388.762 182.997 388.988 182.728 389.174 182.433 C 389.354 182.153 389.495 181.85 389.594 181.533 C 389.692 181.236 389.742 180.925 389.744 180.613 L 389.744 179.183 L 390.644 179.183 L 390.644 180.633 C 390.646 180.931 390.693 181.228 390.784 181.513 C 390.882 181.807 391.02 182.086 391.194 182.343 C 391.373 182.612 391.592 182.851 391.844 183.053 C 392.106 183.267 392.4 183.439 392.714 183.563 Z M 392.854 185.363 C 393.331 185.36 393.807 185.406 394.274 185.503 C 394.651 185.571 395.015 185.696 395.354 185.873 C 395.625 186.021 395.858 186.229 396.034 186.483 C 396.355 186.978 396.355 187.617 396.034 188.113 C 395.858 188.366 395.625 188.574 395.354 188.723 C 395.014 188.899 394.65 189.027 394.274 189.103 C 393.335 189.276 392.373 189.276 391.434 189.103 C 391.061 189.028 390.701 188.9 390.364 188.723 C 390.093 188.574 389.861 188.366 389.684 188.113 C 389.363 187.617 389.363 186.978 389.684 186.483 C 389.861 186.229 390.093 186.021 390.364 185.873 C 390.699 185.694 391.06 185.569 391.434 185.503 C 391.901 185.406 392.377 185.36 392.854 185.363 Z M 392.854 188.463 C 393.482 188.489 394.108 188.387 394.694 188.163 C 395.067 188.029 395.326 187.688 395.354 187.293 C 395.338 186.895 395.074 186.551 394.694 186.433 C 394.108 186.208 393.482 186.106 392.854 186.133 C 392.233 186.107 391.614 186.209 391.034 186.433 C 390.66 186.562 390.398 186.899 390.364 187.293 C 390.394 187.69 390.657 188.032 391.034 188.163 C 391.614 188.386 392.233 188.488 392.854 188.463 Z M 394.024 184.783 L 393.144 184.783 L 393.144 178.693 L 394.024 178.693 L 394.024 181.373 L 395.324 181.373 L 395.324 178.493 L 396.224 178.493 L 396.224 185.123 L 395.324 185.123 L 395.324 182.183 L 394.024 182.183 Z"/>
  <path class="cls-6" d="M 401.764 181.343 C 401.764 181.84 401.834 182.335 401.974 182.813 C 402.117 183.281 402.315 183.731 402.564 184.153 C 402.809 184.556 403.101 184.929 403.434 185.263 C 403.741 185.572 404.1 185.826 404.494 186.013 L 403.944 186.803 C 403.324 186.474 402.785 186.013 402.364 185.453 C 401.89 184.839 401.531 184.144 401.304 183.403 C 401.09 184.184 400.734 184.919 400.254 185.573 C 399.837 186.164 399.294 186.656 398.664 187.013 L 398.094 186.203 C 398.487 185.996 398.844 185.73 399.154 185.413 C 399.493 185.066 399.788 184.68 400.034 184.263 C 400.285 183.821 400.483 183.351 400.624 182.863 C 400.764 182.368 400.834 181.856 400.834 181.343 L 400.834 179.413 L 401.764 179.413 Z M 406.504 178.483 L 406.504 189.263 L 405.574 189.263 L 405.574 178.483 Z"/>
  <polygon class="cls-7" points="175.04 304.44 175.04 318.84 163.04 311.64 175.04 304.44"/>
  <polygon class="cls-7" points="163.04 259.19 163.04 244.79 175.04 251.99 163.04 259.19"/>
  <path class="cls-1" d="M170.61,161.93h0a10,10,0,0,1,10,10h0a10,10,0,0,1-10,10h0a10,10,0,0,1-10-10h0A10,10,0,0,1,170.61,161.93Z"/>
  <path class="cls-7" d="M173.2,167.93l-2.59,2.59L168,167.93l-1.41,1.41,2.59,2.59-2.59,2.59,1.41,1.41,2.59-2.59,2.59,2.59,1.41-1.41L172,171.93l2.59-2.59Zm-2.59-6a10,10,0,1,0,10,10A10,10,0,0,0,170.61,161.93Zm0,18a8,8,0,1,1,8-8A8,8,0,0,1,170.61,179.93Z"/>
  <polygon class="cls-5" points="526.14 109.23 526.14 94.83 538.14 102.03 526.14 109.23"/>
  <path class="cls-4" d="M169.9,102.22c-16.57,0-30,6.71-30,15s13.43,15,30,15"/>
  <circle class="cls-7" cx="167.52" cy="132.22" r="5"/>
  <polygon class="cls-7" points="165.09 94.83 165.09 109.23 177.09 102.03 165.09 94.83"/>
  <path class="cls-6" d="M 269.263 86.791 L 271.263 86.791 C 271.622 86.789 271.981 86.826 272.333 86.901 C 272.629 86.961 272.908 87.084 273.153 87.261 C 273.385 87.437 273.57 87.667 273.693 87.931 C 273.824 88.248 273.889 88.588 273.883 88.931 C 273.886 89.274 273.821 89.614 273.693 89.931 C 273.578 90.208 273.396 90.452 273.163 90.641 C 272.924 90.832 272.648 90.972 272.353 91.051 C 272.027 91.142 271.691 91.189 271.353 91.191 L 270.203 91.191 L 270.203 94.101 L 269.323 94.101 Z M 271.183 90.471 C 271.665 90.512 272.147 90.381 272.543 90.101 C 272.862 89.804 273.025 89.375 272.983 88.941 C 273.033 88.519 272.858 88.102 272.523 87.841 C 272.103 87.605 271.623 87.498 271.143 87.531 L 270.143 87.531 L 270.143 90.471 Z"/>
  <path class="cls-6" d="M 277.843 94.251 C 277.011 94.264 276.219 93.896 275.693 93.251 C 275.419 92.891 275.212 92.485 275.083 92.051 C 274.933 91.535 274.858 90.999 274.863 90.461 C 274.858 89.927 274.933 89.394 275.083 88.881 C 275.212 88.451 275.419 88.048 275.693 87.691 C 275.947 87.371 276.272 87.114 276.643 86.941 C 277.018 86.766 277.428 86.677 277.843 86.681 C 278.24 86.669 278.635 86.741 279.003 86.891 C 279.37 87.065 279.692 87.321 279.943 87.641 C 280.22 87.995 280.427 88.399 280.553 88.831 C 280.707 89.343 280.782 89.876 280.773 90.411 C 280.782 90.949 280.707 91.486 280.553 92.001 C 280.427 92.436 280.22 92.843 279.943 93.201 C 279.692 93.524 279.37 93.784 279.003 93.961 C 278.642 94.143 278.246 94.242 277.843 94.251 Z M 277.843 93.441 C 278.141 93.445 278.434 93.369 278.693 93.221 C 278.951 93.072 279.173 92.867 279.343 92.621 C 279.541 92.315 279.683 91.977 279.763 91.621 C 279.963 90.807 279.963 89.956 279.763 89.141 C 279.678 88.806 279.536 88.488 279.343 88.201 C 279.172 87.959 278.95 87.757 278.693 87.611 C 278.154 87.345 277.521 87.345 276.983 87.611 C 276.725 87.757 276.503 87.959 276.333 88.201 C 276.139 88.488 275.997 88.806 275.913 89.141 C 275.726 89.957 275.726 90.805 275.913 91.621 C 275.992 91.977 276.134 92.315 276.333 92.621 C 276.502 92.867 276.724 93.072 276.983 93.221 C 277.244 93.372 277.541 93.448 277.843 93.441 Z"/>
  <path class="cls-6" d="M 284.253 94.251 C 283.784 94.255 283.319 94.156 282.893 93.961 C 282.48 93.775 282.111 93.502 281.813 93.161 L 282.333 92.531 C 282.58 92.807 282.879 93.031 283.213 93.191 C 283.538 93.356 283.898 93.442 284.263 93.441 C 284.647 93.463 285.027 93.346 285.333 93.111 C 285.59 92.897 285.735 92.576 285.723 92.241 C 285.728 92.077 285.697 91.913 285.633 91.761 C 285.574 91.631 285.489 91.515 285.383 91.421 C 285.274 91.322 285.153 91.238 285.023 91.171 L 284.563 90.941 L 283.563 90.481 C 283.388 90.407 283.221 90.316 283.063 90.211 C 282.895 90.107 282.743 89.979 282.613 89.831 C 282.465 89.679 282.35 89.498 282.273 89.301 C 282.18 89.08 282.135 88.841 282.143 88.601 C 282.145 88.068 282.37 87.561 282.763 87.201 C 282.97 87.024 283.207 86.885 283.463 86.791 C 283.743 86.698 284.037 86.651 284.333 86.651 C 284.733 86.645 285.13 86.731 285.493 86.901 C 285.831 87.063 286.136 87.287 286.393 87.561 L 285.923 88.151 C 285.715 87.944 285.475 87.772 285.213 87.641 C 284.936 87.517 284.636 87.456 284.333 87.461 C 283.992 87.446 283.657 87.549 283.383 87.751 C 283.152 87.948 283.024 88.238 283.033 88.541 C 283.032 88.701 283.07 88.859 283.143 89.001 C 283.21 89.125 283.298 89.237 283.403 89.331 C 283.517 89.425 283.641 89.505 283.773 89.571 L 284.183 89.761 L 285.183 90.211 C 285.379 90.302 285.569 90.406 285.753 90.521 C 285.921 90.633 286.072 90.767 286.203 90.921 C 286.335 91.079 286.439 91.258 286.513 91.451 C 286.584 91.684 286.618 91.927 286.613 92.171 C 286.616 92.449 286.562 92.725 286.453 92.981 C 286.343 93.231 286.183 93.456 285.983 93.641 C 285.765 93.839 285.51 93.992 285.233 94.091 C 284.918 94.203 284.586 94.257 284.253 94.251 Z"/>
  <path class="cls-6" d="M 289.233 87.571 L 287.123 87.571 L 287.123 86.791 L 292.223 86.791 L 292.223 87.571 L 290.113 87.571 L 290.113 94.121 L 289.233 94.121 Z"/>
  <path class="cls-6" d="M 298.91 85.8 L 299.54 85.8 L 296.7 95.52 L 296.06 95.52 Z"/>
  <path class="cls-6" d="M 299.81 88.8 L 300.71 88.8 L 301.71 91.89 L 301.95 92.7 C 302.03 92.97 302.11 93.24 302.19 93.49 L 302.19 93.49 C 302.26 93.24 302.34 92.97 302.43 92.7 C 302.52 92.43 302.59 92.16 302.66 91.89 L 303.66 88.8 L 304.52 88.8 L 302.68 94.23 L 301.68 94.23 Z"/>
  <path class="cls-6" d="M 309.63 93.49 L 309.63 94.23 L 305.87 94.23 L 305.87 93.49 L 307.41 93.49 L 307.41 88.21 C 307.41 88.12 307.41 88.03 307.41 87.96 L 306.15 89.15 L 305.68 88.56 L 307.56 86.86 L 308.25 86.86 L 308.25 93.49 Z"/>
  <path class="cls-6" d="M 313.25 85.8 L 313.87 85.8 L 311 95.52 L 310.37 95.52 Z"/>
  <path class="cls-6" d="M 316.24 94.36 C 315.878 94.364 315.52 94.288 315.19 94.14 C 314.871 94.01 314.574 93.831 314.31 93.61 L 314.74 93.01 C 314.949 93.197 315.185 93.352 315.44 93.47 C 315.699 93.594 315.983 93.656 316.27 93.65 C 316.547 93.676 316.822 93.585 317.03 93.4 C 317.192 93.243 317.283 93.026 317.28 92.8 C 317.285 92.672 317.25 92.547 317.18 92.44 C 317.106 92.336 317.014 92.244 316.91 92.17 C 316.789 92.087 316.662 92.013 316.53 91.95 L 316.11 91.77 C 315.923 91.704 315.739 91.627 315.56 91.54 C 315.384 91.455 315.219 91.347 315.07 91.22 C 314.921 91.103 314.799 90.957 314.71 90.79 C 314.609 90.61 314.56 90.406 314.57 90.2 C 314.569 89.994 314.61 89.79 314.69 89.6 C 314.767 89.414 314.883 89.247 315.03 89.11 C 315.194 88.966 315.384 88.854 315.59 88.78 C 315.831 88.698 316.085 88.658 316.34 88.66 C 316.649 88.656 316.956 88.717 317.24 88.84 C 317.494 88.949 317.732 89.09 317.95 89.26 L 317.53 89.85 C 317.358 89.716 317.174 89.599 316.98 89.5 C 316.779 89.409 316.56 89.365 316.34 89.37 C 316.083 89.352 315.828 89.435 315.63 89.6 C 315.482 89.744 315.399 89.943 315.4 90.15 C 315.4 90.271 315.434 90.389 315.5 90.49 C 315.569 90.587 315.658 90.669 315.76 90.73 C 315.873 90.805 315.994 90.869 316.12 90.92 L 316.54 91.09 L 317.11 91.33 C 317.289 91.417 317.457 91.524 317.61 91.65 C 317.759 91.773 317.885 91.922 317.98 92.09 C 318.078 92.296 318.126 92.522 318.12 92.75 C 318.122 92.963 318.081 93.173 318 93.37 C 317.915 93.562 317.793 93.736 317.64 93.88 C 317.467 94.033 317.267 94.152 317.05 94.23 C 316.79 94.322 316.516 94.366 316.24 94.36 Z"/>
  <path class="cls-6" d="M 320.84 94.36 C 320.374 94.396 319.922 94.193 319.64 93.82 C 319.362 93.342 319.233 92.792 319.27 92.24 L 319.27 88.8 L 320.13 88.8 L 320.13 92.14 C 320.104 92.521 320.183 92.902 320.36 93.24 C 320.529 93.476 320.811 93.606 321.1 93.58 C 321.357 93.586 321.61 93.509 321.82 93.36 C 322.081 93.162 322.31 92.926 322.5 92.66 L 322.5 88.8 L 323.36 88.8 L 323.36 94.23 L 322.64 94.23 L 322.58 93.38 L 322.58 93.38 C 322.359 93.653 322.1 93.892 321.81 94.09 C 321.522 94.278 321.183 94.372 320.84 94.36 Z"/>
  <path class="cls-6" d="M 327.37 94.36 C 327.113 94.356 326.86 94.295 326.63 94.18 C 326.36 94.048 326.113 93.872 325.9 93.66 L 325.9 93.66 L 325.83 94.23 L 325.13 94.23 L 325.13 86.23 L 326 86.23 L 326 88.41 L 326 89.41 C 326.233 89.196 326.492 89.011 326.77 88.86 C 327.027 88.718 327.316 88.642 327.61 88.64 C 327.918 88.634 328.224 88.703 328.5 88.84 C 328.758 88.973 328.98 89.165 329.15 89.4 C 329.331 89.664 329.463 89.959 329.54 90.27 C 329.635 90.639 329.682 91.019 329.68 91.4 C 329.683 91.824 329.619 92.246 329.49 92.65 C 329.384 92.984 329.218 93.296 329 93.57 C 328.804 93.809 328.558 94.004 328.28 94.14 C 327.999 94.287 327.687 94.362 327.37 94.36 Z M 327.23 93.59 C 327.436 93.592 327.64 93.541 327.82 93.44 C 328.009 93.337 328.173 93.193 328.3 93.02 C 328.439 92.813 328.541 92.583 328.6 92.34 C 328.681 92.044 328.718 91.737 328.71 91.43 C 328.714 91.158 328.69 90.887 328.64 90.62 C 328.599 90.394 328.517 90.177 328.4 89.98 C 328.294 89.812 328.15 89.672 327.98 89.57 C 327.566 89.367 327.077 89.386 326.68 89.62 C 326.415 89.768 326.175 89.957 325.97 90.18 L 325.97 93 C 326.163 93.189 326.39 93.338 326.64 93.44 C 326.825 93.528 327.025 93.579 327.23 93.59 Z"/>
  <path class="cls-6" d="M 332.32 94.36 C 331.958 94.362 331.6 94.287 331.27 94.14 C 330.951 94.01 330.654 93.831 330.39 93.61 L 330.82 93.01 C 331.031 93.195 331.266 93.35 331.52 93.47 C 331.779 93.594 332.063 93.656 332.35 93.65 C 332.63 93.673 332.907 93.583 333.12 93.4 C 333.279 93.24 333.368 93.025 333.37 92.8 C 333.372 92.671 333.334 92.545 333.26 92.44 C 333.186 92.336 333.094 92.244 332.99 92.17 C 332.871 92.084 332.744 92.011 332.61 91.95 L 332.19 91.77 C 332.01 91.7 331.82 91.63 331.64 91.54 C 331.464 91.455 331.299 91.347 331.15 91.22 C 331.001 91.103 330.879 90.957 330.79 90.79 C 330.694 90.609 330.645 90.405 330.65 90.2 C 330.649 89.994 330.69 89.79 330.77 89.6 C 330.847 89.412 330.967 89.244 331.12 89.11 C 331.283 88.964 331.473 88.851 331.68 88.78 C 332.216 88.601 332.799 88.623 333.32 88.84 C 333.574 88.949 333.812 89.09 334.03 89.26 L 333.62 89.85 C 333.445 89.716 333.257 89.598 333.06 89.5 C 332.862 89.41 332.647 89.366 332.43 89.37 C 332.173 89.352 331.918 89.435 331.72 89.6 C 331.569 89.742 331.485 89.942 331.49 90.15 C 331.487 90.27 331.518 90.388 331.58 90.49 C 331.652 90.585 331.74 90.666 331.84 90.73 C 331.956 90.801 332.076 90.865 332.2 90.92 L 332.63 91.09 L 333.19 91.33 C 333.372 91.417 333.543 91.524 333.7 91.65 C 333.849 91.77 333.972 91.92 334.06 92.09 C 334.162 92.294 334.21 92.522 334.2 92.75 C 334.202 92.963 334.161 93.173 334.08 93.37 C 334.003 93.566 333.879 93.741 333.72 93.88 C 333.547 94.033 333.347 94.152 333.13 94.23 C 332.87 94.323 332.596 94.367 332.32 94.36 Z"/>
  <path class="cls-6" d="M 337.45 94.36 C 337.123 94.365 336.8 94.3 336.5 94.17 C 336.204 94.044 335.941 93.853 335.73 93.61 C 335.5 93.352 335.327 93.049 335.22 92.72 C 335.086 92.334 335.022 91.928 335.03 91.52 C 335.025 91.108 335.092 90.698 335.23 90.31 C 335.357 89.979 335.543 89.674 335.78 89.41 C 336 89.169 336.27 88.978 336.57 88.85 C 336.871 88.723 337.194 88.658 337.52 88.66 C 337.821 88.649 338.12 88.715 338.39 88.85 C 338.624 88.972 338.84 89.127 339.03 89.31 L 338.58 89.92 C 338.44 89.779 338.282 89.658 338.11 89.56 C 337.937 89.47 337.745 89.426 337.55 89.43 C 337.324 89.427 337.102 89.479 336.9 89.58 C 336.701 89.685 336.527 89.832 336.39 90.01 C 336.24 90.208 336.128 90.431 336.06 90.67 C 335.968 90.944 335.925 91.231 335.93 91.52 C 335.927 91.808 335.967 92.094 336.05 92.37 C 336.112 92.606 336.22 92.827 336.37 93.02 C 336.511 93.192 336.684 93.335 336.88 93.44 C 337.081 93.542 337.304 93.594 337.53 93.59 C 337.76 93.594 337.987 93.539 338.19 93.43 C 338.394 93.33 338.582 93.202 338.75 93.05 L 339.12 93.66 C 338.896 93.878 338.636 94.054 338.35 94.18 C 338.065 94.299 337.759 94.36 337.45 94.36 Z"/>
  <path class="cls-6" d="M 340.26 88.8 L 341 88.8 L 341.07 89.8 L 341.07 89.8 C 341.232 89.485 341.453 89.203 341.72 88.97 C 341.95 88.777 342.24 88.671 342.54 88.67 L 342.83 88.67 C 342.921 88.69 343.009 88.724 343.09 88.77 L 342.93 89.57 C 342.852 89.54 342.772 89.517 342.69 89.5 L 342.42 89.5 C 342.304 89.501 342.189 89.522 342.08 89.56 C 341.958 89.615 341.844 89.686 341.74 89.77 C 341.609 89.884 341.495 90.015 341.4 90.16 C 341.285 90.346 341.192 90.544 341.12 90.75 L 341.12 94.24 L 340.26 94.24 Z"/>
  <path class="cls-6" d="M 344.38 87.68 C 344.22 87.683 344.065 87.622 343.95 87.51 C 343.838 87.4 343.776 87.247 343.78 87.09 C 343.773 86.926 343.835 86.767 343.95 86.65 C 344.07 86.548 344.223 86.495 344.38 86.5 C 344.537 86.496 344.69 86.549 344.81 86.65 C 344.925 86.767 344.987 86.926 344.98 87.09 C 344.984 87.247 344.922 87.4 344.81 87.51 C 344.695 87.621 344.54 87.682 344.38 87.68 Z M 343.94 88.8 L 344.81 88.8 L 344.81 94.23 L 343.94 94.23 Z"/>
  <path class="cls-6" d="M 348.82 94.36 C 348.563 94.355 348.31 94.294 348.08 94.18 C 347.81 94.048 347.563 93.872 347.35 93.66 L 347.35 93.66 L 347.28 94.23 L 346.58 94.23 L 346.58 86.23 L 347.45 86.23 L 347.45 88.41 L 347.45 89.41 C 347.683 89.196 347.942 89.011 348.22 88.86 C 348.48 88.716 348.773 88.641 349.07 88.64 C 349.375 88.635 349.677 88.704 349.95 88.84 C 350.208 88.973 350.43 89.165 350.6 89.4 C 350.781 89.664 350.913 89.959 350.99 90.27 C 351.085 90.639 351.132 91.019 351.13 91.4 C 351.133 91.824 351.069 92.246 350.94 92.65 C 350.834 92.984 350.668 93.296 350.45 93.57 C 350.254 93.809 350.008 94.004 349.73 94.14 C 349.45 94.288 349.137 94.364 348.82 94.36 Z M 348.68 93.59 C 348.89 93.593 349.096 93.541 349.28 93.44 C 349.464 93.334 349.624 93.191 349.75 93.02 C 349.889 92.813 349.991 92.583 350.05 92.34 C 350.131 92.044 350.168 91.737 350.16 91.43 C 350.164 91.158 350.14 90.887 350.09 90.62 C 350.049 90.394 349.967 90.177 349.85 89.98 C 349.744 89.812 349.6 89.672 349.43 89.57 C 349.238 89.474 349.025 89.425 348.81 89.43 C 348.57 89.432 348.336 89.497 348.13 89.62 C 347.866 89.77 347.627 89.959 347.42 90.18 L 347.42 93 C 347.613 93.189 347.84 93.338 348.09 93.44 C 348.275 93.528 348.475 93.579 348.68 93.59 Z"/>
  <path class="cls-6" d="M 354.51 94.36 C 354.167 94.369 353.826 94.304 353.51 94.17 C 353.211 94.044 352.945 93.853 352.73 93.61 C 352.498 93.35 352.318 93.048 352.2 92.72 C 351.946 91.944 351.946 91.106 352.2 90.33 C 352.316 90.001 352.493 89.695 352.72 89.43 C 352.925 89.187 353.181 88.993 353.47 88.86 C 353.741 88.729 354.039 88.66 354.34 88.66 C 354.64 88.654 354.937 88.716 355.21 88.84 C 355.463 88.957 355.686 89.132 355.86 89.35 C 356.036 89.596 356.172 89.87 356.26 90.16 C 356.348 90.486 356.392 90.822 356.39 91.16 C 356.395 91.253 356.395 91.347 356.39 91.44 C 356.396 91.52 356.396 91.6 356.39 91.68 L 352.9 91.68 C 352.902 92.186 353.082 92.675 353.41 93.06 C 353.716 93.398 354.154 93.585 354.61 93.57 C 354.845 93.573 355.079 93.532 355.3 93.45 C 355.513 93.375 355.715 93.271 355.9 93.14 L 356.22 93.74 C 355.982 93.901 355.727 94.035 355.46 94.14 C 355.16 94.273 354.838 94.347 354.51 94.36 Z M 355.65 91.09 C 355.679 90.645 355.563 90.203 355.32 89.83 C 355.092 89.54 354.738 89.38 354.37 89.4 C 354.191 89.401 354.014 89.438 353.85 89.51 C 353.678 89.592 353.523 89.704 353.39 89.84 C 353.253 89.998 353.142 90.177 353.06 90.37 C 352.968 90.6 352.911 90.843 352.89 91.09 Z"/>
  <path class="cls-6" d="M 359.77 85.8 L 360.39 85.8 L 357.56 95.52 L 356.92 95.52 Z"/>
  <path class="cls-6" d="M 362.41 95.33 C 362.261 95.287 362.126 95.204 362.02 95.09 C 361.908 94.957 361.829 94.799 361.79 94.63 C 361.737 94.394 361.713 94.152 361.72 93.91 C 361.72 93.71 361.72 93.52 361.72 93.34 L 361.72 92.81 C 361.72 92.64 361.72 92.47 361.72 92.3 C 361.72 92.13 361.72 91.95 361.72 91.76 C 361.735 91.654 361.735 91.546 361.72 91.44 C 361.692 91.339 361.644 91.243 361.58 91.16 C 361.503 91.073 361.408 91.004 361.3 90.96 C 361.157 90.904 361.004 90.877 360.85 90.88 L 360.85 90.31 C 361.004 90.313 361.157 90.286 361.3 90.23 C 361.408 90.186 361.503 90.117 361.58 90.03 C 361.644 89.947 361.692 89.851 361.72 89.75 C 361.735 89.647 361.735 89.543 361.72 89.44 C 361.72 89.25 361.72 89.07 361.72 88.9 C 361.72 88.73 361.72 88.55 361.72 88.38 L 361.72 87.85 C 361.72 87.67 361.72 87.48 361.72 87.28 C 361.713 87.038 361.737 86.796 361.79 86.56 C 361.829 86.391 361.908 86.233 362.02 86.1 C 362.126 85.986 362.261 85.903 362.41 85.86 C 362.589 85.809 362.774 85.785 362.96 85.79 L 363.43 85.79 L 363.43 86.3 L 363.15 86.3 C 362.931 86.271 362.712 86.362 362.58 86.54 C 362.464 86.786 362.412 87.058 362.43 87.33 C 362.43 87.67 362.43 88 362.43 88.33 C 362.43 88.66 362.43 88.99 362.43 89.33 C 362.448 89.611 362.4 89.891 362.29 90.15 C 362.191 90.345 362.012 90.488 361.8 90.54 L 361.8 90.54 C 362.012 90.592 362.191 90.735 362.29 90.93 C 362.4 91.192 362.448 91.476 362.43 91.76 C 362.43 92.14 362.43 92.49 362.43 92.76 C 362.43 93.03 362.43 93.41 362.43 93.76 C 362.41 94.029 362.462 94.298 362.58 94.54 C 362.712 94.718 362.931 94.809 363.15 94.78 L 363.43 94.78 L 363.43 95.3 L 363 95.3 C 362.806 95.342 362.607 95.352 362.41 95.33 Z"/>
  <path class="cls-6" d="M 366.89 94.36 C 366.633 94.356 366.38 94.295 366.15 94.18 C 365.88 94.048 365.633 93.872 365.42 93.66 L 365.42 93.66 L 365.35 94.23 L 364.65 94.23 L 364.65 86.23 L 365.52 86.23 L 365.52 88.41 L 365.52 89.41 C 365.753 89.196 366.012 89.011 366.29 88.86 C 366.547 88.718 366.836 88.642 367.13 88.64 C 367.438 88.634 367.744 88.703 368.02 88.84 C 368.278 88.973 368.5 89.165 368.67 89.4 C 368.851 89.664 368.983 89.959 369.06 90.27 C 369.155 90.639 369.202 91.019 369.2 91.4 C 369.203 91.824 369.139 92.246 369.01 92.65 C 368.904 92.984 368.738 93.296 368.52 93.57 C 368.324 93.809 368.078 94.004 367.8 94.14 C 367.519 94.287 367.207 94.362 366.89 94.36 Z M 366.75 93.59 C 366.956 93.592 367.16 93.541 367.34 93.44 C 367.526 93.336 367.686 93.193 367.81 93.02 C 367.956 92.816 368.062 92.585 368.12 92.34 C 368.201 92.044 368.238 91.737 368.23 91.43 C 368.234 91.158 368.21 90.887 368.16 90.62 C 368.119 90.394 368.037 90.177 367.92 89.98 C 367.814 89.812 367.67 89.672 367.5 89.57 C 367.086 89.367 366.597 89.386 366.2 89.62 C 365.935 89.768 365.695 89.957 365.49 90.18 L 365.49 93 C 365.683 93.189 365.91 93.338 366.16 93.44 C 366.345 93.528 366.545 93.579 366.75 93.59 Z"/>
  <path class="cls-6" d="M 370.93 87.68 C 370.77 87.682 370.615 87.621 370.5 87.51 C 370.388 87.4 370.326 87.247 370.33 87.09 C 370.323 86.926 370.385 86.767 370.5 86.65 C 370.752 86.45 371.108 86.45 371.36 86.65 C 371.475 86.767 371.537 86.926 371.53 87.09 C 371.534 87.247 371.472 87.4 371.36 87.51 C 371.245 87.621 371.09 87.682 370.93 87.68 Z M 370.49 88.8 L 371.36 88.8 L 371.36 94.23 L 370.49 94.23 Z"/>
  <path class="cls-6" d="M 374.86 94.36 C 374.556 94.364 374.255 94.299 373.98 94.17 C 373.719 94.038 373.49 93.85 373.31 93.62 C 373.117 93.351 372.975 93.05 372.89 92.73 C 372.785 92.335 372.734 91.928 372.74 91.52 C 372.734 91.116 372.795 90.714 372.92 90.33 C 373.031 90.004 373.196 89.7 373.41 89.43 C 373.6 89.188 373.843 88.993 374.12 88.86 C 374.384 88.729 374.675 88.661 374.97 88.66 C 375.24 88.655 375.507 88.713 375.75 88.83 C 375.992 88.958 376.217 89.116 376.42 89.3 L 376.37 88.36 L 376.37 86.27 L 377.24 86.27 L 377.24 94.27 L 376.54 94.27 L 376.45 93.63 L 376.45 93.63 C 376.244 93.842 376.008 94.024 375.75 94.17 C 375.475 94.31 375.168 94.375 374.86 94.36 Z M 375.05 93.59 C 375.29 93.592 375.526 93.526 375.73 93.4 C 375.974 93.252 376.191 93.062 376.37 92.84 L 376.37 90 C 376.187 89.819 375.973 89.67 375.74 89.56 C 375.545 89.472 375.334 89.428 375.12 89.43 C 374.917 89.429 374.717 89.481 374.54 89.58 C 374.351 89.683 374.187 89.827 374.06 90 C 373.916 90.2 373.808 90.423 373.74 90.66 C 373.666 90.934 373.63 91.216 373.63 91.5 C 373.606 92.025 373.734 92.546 374 93 C 374.217 93.372 374.619 93.598 375.05 93.59 Z"/>
  <path class="cls-6" d="M 378.45 94.88 L 378.72 94.88 C 378.943 94.911 379.164 94.819 379.3 94.64 C 379.409 94.395 379.457 94.127 379.44 93.86 C 379.44 93.52 379.44 93.19 379.44 92.86 C 379.44 92.53 379.44 92.2 379.44 91.86 C 379.425 91.575 379.476 91.291 379.59 91.03 C 379.692 90.837 379.869 90.696 380.08 90.64 L 380.08 90.64 C 379.869 90.584 379.692 90.443 379.59 90.25 C 379.476 89.992 379.425 89.711 379.44 89.43 C 379.44 89.043 379.44 88.71 379.44 88.43 C 379.44 88.12 379.44 87.79 379.44 87.43 C 379.456 87.159 379.408 86.889 379.3 86.64 C 379.164 86.461 378.943 86.369 378.72 86.4 L 378.45 86.4 L 378.45 85.89 L 378.92 85.89 C 379.106 85.885 379.291 85.909 379.47 85.96 C 379.617 86.009 379.75 86.091 379.86 86.2 C 379.972 86.333 380.051 86.491 380.09 86.66 C 380.143 86.896 380.167 87.138 380.16 87.38 C 380.16 87.58 380.16 87.77 380.16 87.95 L 380.16 88.48 L 380.16 89 C 380.16 89.17 380.16 89.35 380.16 89.54 C 380.145 89.643 380.145 89.747 380.16 89.85 C 380.18 89.955 380.228 90.052 380.3 90.13 C 380.377 90.217 380.472 90.286 380.58 90.33 C 380.719 90.387 380.869 90.414 381.02 90.41 L 381.02 90.98 C 380.869 90.976 380.719 91.003 380.58 91.06 C 380.472 91.104 380.377 91.173 380.3 91.26 C 380.228 91.338 380.18 91.435 380.16 91.54 C 380.145 91.646 380.145 91.754 380.16 91.86 C 380.16 92.05 380.16 92.23 380.16 92.4 L 380.16 92.91 L 380.16 93.44 C 380.16 93.62 380.16 93.81 380.16 94.01 C 380.167 94.252 380.143 94.494 380.09 94.73 C 380.051 94.899 379.972 95.057 379.86 95.19 C 379.75 95.299 379.617 95.381 379.47 95.43 C 379.291 95.481 379.106 95.505 378.92 95.5 L 378.45 95.5 Z"/>
  <path class="cls-6" d="M 384.29 85.8 L 384.91 85.8 L 382.07 95.52 L 381.44 95.52 Z"/>
  <path class="cls-6" d="M 385.93 88.8 L 386.64 88.8 L 386.72 89.42 L 386.72 89.42 C 386.956 89.215 387.214 89.037 387.49 88.89 C 387.756 88.742 388.055 88.663 388.36 88.66 C 388.665 88.656 388.967 88.725 389.24 88.86 C 389.498 88.993 389.72 89.185 389.89 89.42 C 390.071 89.684 390.203 89.979 390.28 90.29 C 390.372 90.663 390.416 91.046 390.41 91.43 C 390.417 91.85 390.356 92.269 390.23 92.67 C 390.125 93.006 389.955 93.319 389.73 93.59 C 389.54 93.832 389.297 94.027 389.02 94.16 C 388.756 94.291 388.465 94.359 388.17 94.36 C 387.924 94.355 387.682 94.297 387.46 94.19 C 387.202 94.068 386.963 93.91 386.75 93.72 L 386.75 94.72 L 386.75 96.57 L 385.88 96.57 Z M 388.06 93.59 C 388.266 93.592 388.469 93.54 388.65 93.44 C 388.836 93.336 388.996 93.193 389.12 93.02 C 389.266 92.816 389.372 92.585 389.43 92.34 C 389.506 92.043 389.543 91.737 389.54 91.43 C 389.544 91.158 389.52 90.887 389.47 90.62 C 389.424 90.395 389.343 90.179 389.23 89.98 C 389.124 89.812 388.98 89.672 388.81 89.57 C 388.396 89.367 387.907 89.386 387.51 89.62 C 387.248 89.773 387.01 89.961 386.8 90.18 L 386.8 93 C 386.996 93.189 387.227 93.338 387.48 93.44 C 387.661 93.528 387.859 93.58 388.06 93.59 Z"/>
  <path class="cls-6" d="M 392.85 94.36 C 392.645 94.361 392.441 94.324 392.25 94.25 C 392.071 94.18 391.907 94.075 391.77 93.94 C 391.638 93.793 391.533 93.624 391.46 93.44 C 391.381 93.226 391.343 92.998 391.35 92.77 C 391.303 92.152 391.625 91.564 392.17 91.27 C 392.905 90.928 393.71 90.767 394.52 90.8 C 394.536 90.63 394.536 90.46 394.52 90.29 C 394.496 90.134 394.441 89.985 394.36 89.85 C 394.278 89.72 394.165 89.614 394.03 89.54 C 393.867 89.464 393.689 89.426 393.51 89.43 C 393.21 89.428 392.912 89.479 392.63 89.58 C 392.374 89.673 392.132 89.801 391.91 89.96 L 391.57 89.31 C 391.856 89.126 392.161 88.975 392.48 88.86 C 392.855 88.726 393.251 88.658 393.65 88.66 C 393.929 88.652 394.205 88.707 394.46 88.82 C 394.676 88.924 394.865 89.079 395.01 89.27 C 395.158 89.486 395.266 89.726 395.33 89.98 C 395.401 90.278 395.435 90.584 395.43 90.89 L 395.43 94.23 L 394.72 94.23 L 394.65 93.64 L 394.65 93.64 C 394.408 93.853 394.135 94.029 393.84 94.16 C 393.53 94.304 393.191 94.373 392.85 94.36 Z M 393.09 93.62 C 393.337 93.621 393.581 93.573 393.81 93.48 C 394.073 93.359 394.313 93.193 394.52 92.99 L 394.52 91.38 C 394.137 91.403 393.757 91.449 393.38 91.52 C 393.131 91.567 392.891 91.655 392.67 91.78 C 392.511 91.866 392.382 91.999 392.3 92.16 C 392.224 92.33 392.187 92.514 392.19 92.7 C 392.171 92.957 392.267 93.209 392.45 93.39 C 392.627 93.545 392.855 93.627 393.09 93.62 Z"/>
  <path class="cls-6" d="M 397.55 96.57 L 398.36 94.18 L 396.29 88.8 L 397.19 88.8 L 398.24 91.8 L 398.49 92.55 C 398.57 92.82 398.65 93.07 398.74 93.32 L 398.74 93.32 C 398.81 93.07 398.89 92.82 398.96 92.55 C 399.03 92.28 399.11 92.04 399.18 91.8 L 400.1 88.8 L 401 88.8 L 398.37 96.57 Z"/>
  <path class="cls-6" d="M 402 88.8 L 402.71 88.8 L 402.79 89.59 L 402.79 89.59 C 403.007 89.339 403.256 89.117 403.53 88.93 C 403.786 88.754 404.089 88.66 404.4 88.66 C 404.734 88.638 405.064 88.737 405.33 88.94 C 405.562 89.142 405.732 89.405 405.82 89.7 C 406.06 89.416 406.336 89.164 406.64 88.95 C 406.896 88.764 407.204 88.663 407.52 88.66 C 407.983 88.623 408.433 88.827 408.71 89.2 C 408.997 89.678 409.13 90.234 409.09 90.79 L 409.09 94.23 L 408.23 94.23 L 408.23 90.91 C 408.262 90.526 408.182 90.14 408 89.8 C 407.839 89.565 407.564 89.435 407.28 89.46 C 406.75 89.544 406.279 89.845 405.98 90.29 L 405.98 94.23 L 405.11 94.23 L 405.11 90.91 C 405.137 90.526 405.057 90.142 404.88 89.8 C 404.713 89.567 404.436 89.438 404.15 89.46 C 403.618 89.539 403.146 89.841 402.85 90.29 L 402.85 94.23 L 402 94.23 Z"/>
  <path class="cls-6" d="M 412.85 94.36 C 412.507 94.37 412.166 94.305 411.85 94.17 C 411.551 94.044 411.285 93.853 411.07 93.61 C 410.834 93.353 410.654 93.05 410.54 92.72 C 410.273 91.946 410.273 91.104 410.54 90.33 C 410.656 90.001 410.833 89.695 411.06 89.43 C 411.263 89.185 411.52 88.99 411.81 88.86 C 412.081 88.729 412.379 88.66 412.68 88.66 C 412.98 88.654 413.277 88.716 413.55 88.84 C 413.802 88.955 414.022 89.13 414.19 89.35 C 414.374 89.594 414.512 89.868 414.6 90.16 C 414.688 90.486 414.732 90.822 414.73 91.16 C 414.735 91.253 414.735 91.347 414.73 91.44 C 414.741 91.52 414.741 91.6 414.73 91.68 L 411.25 91.68 C 411.252 92.186 411.432 92.675 411.76 93.06 C 412.063 93.402 412.504 93.589 412.96 93.57 C 413.195 93.573 413.429 93.532 413.65 93.45 C 413.863 93.375 414.065 93.271 414.25 93.14 L 414.56 93.74 C 414.324 93.905 414.069 94.039 413.8 94.14 C 413.501 94.274 413.178 94.349 412.85 94.36 Z M 414 91.09 C 414.029 90.645 413.913 90.203 413.67 89.83 C 413.442 89.54 413.088 89.38 412.72 89.4 C 412.538 89.402 412.358 89.439 412.19 89.51 C 412.023 89.595 411.871 89.706 411.74 89.84 C 411.603 89.998 411.492 90.177 411.41 90.37 C 411.314 90.599 411.256 90.842 411.24 91.09 Z"/>
  <path class="cls-6" d="M 416 88.8 L 416.71 88.8 L 416.78 89.58 L 416.78 89.58 C 417.019 89.336 417.284 89.118 417.57 88.93 C 417.849 88.748 418.177 88.654 418.51 88.66 C 418.976 88.622 419.43 88.826 419.71 89.2 C 419.993 89.68 420.126 90.234 420.09 90.79 L 420.09 94.23 L 419.22 94.23 L 419.22 90.91 C 419.252 90.526 419.172 90.14 418.99 89.8 C 418.821 89.564 418.539 89.434 418.25 89.46 C 417.994 89.456 417.743 89.529 417.53 89.67 C 417.276 89.852 417.041 90.06 416.83 90.29 L 416.83 94.23 L 416 94.23 Z"/>
  <path class="cls-6" d="M 423.47 94.36 C 423.23 94.37 422.991 94.326 422.77 94.23 C 422.589 94.149 422.434 94.022 422.32 93.86 C 422.194 93.692 422.108 93.497 422.07 93.29 C 422.016 93.047 421.989 92.799 421.99 92.55 L 421.99 89.55 L 421.22 89.55 L 421.22 88.86 L 422.03 88.86 L 422.14 87.34 L 422.86 87.34 L 422.86 88.8 L 424.25 88.8 L 424.25 89.54 L 422.86 89.54 L 422.86 92.54 C 422.84 92.811 422.899 93.082 423.03 93.32 C 423.173 93.515 423.41 93.619 423.65 93.59 C 423.752 93.586 423.853 93.57 423.95 93.54 L 424.24 93.45 L 424.42 94.13 L 423.95 94.27 C 423.794 94.319 423.633 94.349 423.47 94.36 Z"/>
  <path class="cls-6" d="M 426.77 94.36 C 426.425 94.356 426.085 94.282 425.77 94.14 C 425.451 94.01 425.154 93.831 424.89 93.61 L 425.32 93.01 C 425.529 93.197 425.765 93.352 426.02 93.47 C 426.279 93.594 426.563 93.656 426.85 93.65 C 427.127 93.676 427.402 93.585 427.61 93.4 C 427.775 93.244 427.869 93.027 427.87 92.8 C 427.872 92.671 427.834 92.545 427.76 92.44 C 427.686 92.336 427.594 92.244 427.49 92.17 C 427.369 92.087 427.242 92.013 427.11 91.95 L 426.69 91.77 C 426.503 91.704 426.319 91.627 426.14 91.54 C 425.964 91.455 425.799 91.347 425.65 91.22 C 425.501 91.103 425.379 90.957 425.29 90.79 C 425.189 90.61 425.14 90.406 425.15 90.2 C 425.149 89.994 425.19 89.79 425.27 89.6 C 425.347 89.414 425.463 89.247 425.61 89.11 C 425.776 88.963 425.97 88.851 426.18 88.78 C 426.716 88.601 427.299 88.623 427.82 88.84 C 428.074 88.949 428.312 89.09 428.53 89.26 L 428.11 89.85 C 427.938 89.716 427.754 89.599 427.56 89.5 C 427.362 89.41 427.147 89.366 426.93 89.37 C 426.669 89.35 426.411 89.432 426.21 89.6 C 426.064 89.745 425.985 89.944 425.99 90.15 C 425.987 90.27 426.018 90.388 426.08 90.49 C 426.149 90.587 426.238 90.669 426.34 90.73 C 426.454 90.803 426.575 90.867 426.7 90.92 L 427.12 91.09 L 427.69 91.33 C 427.869 91.417 428.037 91.524 428.19 91.65 C 428.339 91.773 428.465 91.922 428.56 92.09 C 428.658 92.296 428.706 92.522 428.7 92.75 C 428.702 92.963 428.661 93.173 428.58 93.37 C 428.503 93.566 428.379 93.741 428.22 93.88 C 428.047 94.033 427.847 94.152 427.63 94.23 C 427.354 94.328 427.062 94.372 426.77 94.36 Z"/>
</svg>