<?xml version="1.0" encoding="utf-8"?>
<svg id="_迹_1" data-name="卵迹_1" viewBox="100.989 13.401 523.991 492.872" xmlns="http://www.w3.org/2000/svg">
  <defs>
    <style>.cls-1{fill:#f7f7f7;}.cls-2,.cls-6{fill:none;}.cls-2{stroke:#9e9e9e;}.cls-2,.cls-5,.cls-6{stroke-miterlimit:10;}.cls-3{fill:#767676;}.cls-4{fill:#9e9e9e;}.cls-5{fill:#f6f6f6;opacity:0.4;}.cls-5,.cls-6{stroke:#4064c3;stroke-width:2px;}.cls-7{fill:#233976;}.cls-8{fill:#c1411a;}</style>
  </defs>
  <title>비대면 플랫폼 웹메뉴얼_outline</title>
  <rect class="cls-1" x="155.87" y="62.32" width="30" height="430" rx="15"/>
  <rect class="cls-1" x="335.48" y="62.32" width="30" height="430" rx="15"/>
  <rect class="cls-1" x="516.79" y="62.32" width="30" height="430" rx="15"/>
  <path d="M331.08,42A5.6,5.6,0,0,1,327,40.22l.88-1a4.92,4.92,0,0,0,1.49,1.07,4.18,4.18,0,0,0,1.76.39,2.83,2.83,0,0,0,1.81-.53,1.68,1.68,0,0,0,.66-1.39,1.74,1.74,0,0,0-.16-.76,1.68,1.68,0,0,0-.41-.54,2.78,2.78,0,0,0-.62-.41l-.77-.37-1.69-.74a5,5,0,0,1-.83-.42,3.45,3.45,0,0,1-.77-.61,2.65,2.65,0,0,1-.57-.85,2.8,2.8,0,0,1-.22-1.12,2.9,2.9,0,0,1,.28-1.25,3,3,0,0,1,.77-1,3.5,3.5,0,0,1,1.17-.65,4.42,4.42,0,0,1,1.48-.23,4.61,4.61,0,0,1,1.94.4,4.74,4.74,0,0,1,1.52,1.05l-.79.95a4.38,4.38,0,0,0-1.2-.81,3.51,3.51,0,0,0-1.47-.3,2.52,2.52,0,0,0-1.6.47,1.5,1.5,0,0,0-.59,1.26,1.56,1.56,0,0,0,.17.74,2,2,0,0,0,.45.52,2.8,2.8,0,0,0,.63.39l.68.3,1.68.72a8.67,8.67,0,0,1,1,.5,3.35,3.35,0,0,1,.76.64,2.81,2.81,0,0,1,.52.85,3.35,3.35,0,0,1,.18,1.15,3,3,0,0,1-.28,1.3A3.38,3.38,0,0,1,334,41a3.67,3.67,0,0,1-1.26.71A5.05,5.05,0,0,1,331.08,42Z" style="fill: rgb(118, 118, 118);"/>
  <path d="M340.74,42a4.33,4.33,0,0,1-1.62-.31,3.73,3.73,0,0,1-1.32-.88,4.18,4.18,0,0,1-.89-1.44,5.69,5.69,0,0,1,0-3.82,4.47,4.47,0,0,1,.87-1.44,3.63,3.63,0,0,1,1.26-.91,3.48,3.48,0,0,1,1.47-.32,3.57,3.57,0,0,1,1.47.28,3,3,0,0,1,1.08.83,3.78,3.78,0,0,1,.68,1.29,5.83,5.83,0,0,1,.23,1.68c0,.16,0,.31,0,.45s0,.27,0,.38H338a3.33,3.33,0,0,0,.85,2.21,2.67,2.67,0,0,0,2,.81,3.59,3.59,0,0,0,1.17-.18,4,4,0,0,0,1-.51l.53,1a6.65,6.65,0,0,1-1.28.64A4.44,4.44,0,0,1,340.74,42Zm1.94-5.23a3.1,3.1,0,0,0-.57-2,2,2,0,0,0-1.59-.69,2.25,2.25,0,0,0-.89.18,2.37,2.37,0,0,0-.76.53,2.73,2.73,0,0,0-.56.85,3.66,3.66,0,0,0-.29,1.15Z" style="fill: rgb(118, 118, 118);"/>
  <path d="M346.1,33.07h1.2l.13,1.58h.05a4.24,4.24,0,0,1,1.09-1.32,2.22,2.22,0,0,1,1.37-.48,2.47,2.47,0,0,1,.5,0,1.16,1.16,0,0,1,.43.15l-.28,1.28a2.41,2.41,0,0,0-.84-.15,1.74,1.74,0,0,0-.57.11,2.19,2.19,0,0,0-.59.33,3.1,3.1,0,0,0-.55.62,3.6,3.6,0,0,0-.48.94v5.59H346.1Z" style="fill: rgb(118, 118, 118);"/>
  <path d="M351.51,33.07H353L354.66,38c.14.43.27.86.41,1.3s.27.86.4,1.26h.07l.4-1.26c.14-.44.27-.87.4-1.3L358,33.07h1.44l-3.09,8.69h-1.7Z" style="fill: rgb(118, 118, 118);"/>
  <path d="M364.61,42a4.33,4.33,0,0,1-1.62-.31,3.73,3.73,0,0,1-1.32-.88,4.18,4.18,0,0,1-.89-1.44,5.69,5.69,0,0,1,0-3.82,4.47,4.47,0,0,1,.87-1.44,3.83,3.83,0,0,1,1.26-.91,3.48,3.48,0,0,1,1.47-.32,3.57,3.57,0,0,1,1.47.28,3.08,3.08,0,0,1,1.09.83,3.94,3.94,0,0,1,.67,1.29,5.83,5.83,0,0,1,.23,1.68c0,.16,0,.31,0,.45s0,.27-.05.38h-5.87a3.33,3.33,0,0,0,.85,2.21,2.68,2.68,0,0,0,2,.81A3.57,3.57,0,0,0,366,40.6a4,4,0,0,0,1-.51l.53,1a6.65,6.65,0,0,1-1.28.64A4.44,4.44,0,0,1,364.61,42Zm1.94-5.23a3.1,3.1,0,0,0-.57-2,2,2,0,0,0-1.59-.69,2.25,2.25,0,0,0-.89.18,2.48,2.48,0,0,0-.76.53,2.73,2.73,0,0,0-.56.85,3.66,3.66,0,0,0-.29,1.15Z" style="fill: rgb(118, 118, 118);"/>
  <path d="M370,33.07h1.2l.13,1.58h.05a4.24,4.24,0,0,1,1.09-1.32,2.22,2.22,0,0,1,1.37-.48,2.47,2.47,0,0,1,.5,0,1.16,1.16,0,0,1,.43.15l-.27,1.28a3.11,3.11,0,0,0-.4-.11,2.68,2.68,0,0,0-.45,0,1.74,1.74,0,0,0-.57.11,2,2,0,0,0-.58.33,2.85,2.85,0,0,0-.56.62,3.93,3.93,0,0,0-.48.94v5.59H370Z" style="fill: rgb(118, 118, 118);"/>
  <path d="M503.59,30h1.53l4.28,7.39,1.24,2.42h.08c0-.6-.08-1.21-.12-1.85s-.07-1.25-.07-1.86V30h1.41V41.76h-1.52l-4.27-7.4L504.88,32h-.06c0,.6.07,1.2.11,1.81S505,35,505,35.61v6.15h-1.41Z" style="fill: rgb(118, 118, 118);"/>
  <path d="M515.75,31.28A1,1,0,0,1,515,31a1,1,0,0,1,0-1.37,1.16,1.16,0,0,1,1.44,0,1,1,0,0,1,0,1.37A1,1,0,0,1,515.75,31.28ZM515,33.07h1.46v8.69H515Z" style="fill: rgb(118, 118, 118);"/>
  <path d="M522.84,42a4.24,4.24,0,0,1-1.61-.31,3.74,3.74,0,0,1-1.3-.88,4.17,4.17,0,0,1-.86-1.43,5.47,5.47,0,0,1-.31-1.93,5.07,5.07,0,0,1,.34-1.93,4.4,4.4,0,0,1,.92-1.44,3.69,3.69,0,0,1,1.34-.9,4.24,4.24,0,0,1,1.59-.3,3.29,3.29,0,0,1,1.47.3,4.92,4.92,0,0,1,1.07.73l-.75,1a4.2,4.2,0,0,0-.8-.57,2.06,2.06,0,0,0-.94-.21,2.47,2.47,0,0,0-2,.92,3.47,3.47,0,0,0-.57,1.06,4.84,4.84,0,0,0,0,2.72,3.08,3.08,0,0,0,.55,1,2.63,2.63,0,0,0,.85.67,2.56,2.56,0,0,0,1.09.24,2.59,2.59,0,0,0,1.12-.25,4,4,0,0,0,.93-.62l.63,1a4.33,4.33,0,0,1-1.3.82A3.86,3.86,0,0,1,522.84,42Z" style="fill: rgb(118, 118, 118);"/>
  <path d="M530.68,42a4.42,4.42,0,0,1-1.63-.31,3.92,3.92,0,0,1-1.32-.88,4.34,4.34,0,0,1-.89-1.44,5.44,5.44,0,0,1-.32-1.92,5.19,5.19,0,0,1,.33-1.9,4.14,4.14,0,0,1,.87-1.44,3.63,3.63,0,0,1,1.26-.91,3.41,3.41,0,0,1,1.46-.32,3.62,3.62,0,0,1,1.48.28A3,3,0,0,1,533,34a3.78,3.78,0,0,1,.68,1.29,5.83,5.83,0,0,1,.23,1.68c0,.16,0,.31,0,.45a2,2,0,0,1,0,.38H528a3.38,3.38,0,0,0,.86,2.21,2.67,2.67,0,0,0,2,.81A3.59,3.59,0,0,0,532,40.6a4.17,4.17,0,0,0,1-.51l.53,1a7,7,0,0,1-1.28.64A4.47,4.47,0,0,1,530.68,42Zm1.93-5.23a3.1,3.1,0,0,0-.57-2,1.92,1.92,0,0,0-1.59-.69,2.28,2.28,0,0,0-.89.18,2.61,2.61,0,0,0-.76.53,2.92,2.92,0,0,0-.56.85,4,4,0,0,0-.28,1.15Z" style="fill: rgb(118, 118, 118);"/>
  <path d="M536,33.07h1.2l.12,1h0a8.32,8.32,0,0,1,1.3-.85,3.37,3.37,0,0,1,2.95,0,3.13,3.13,0,0,1,1.09.89,4.17,4.17,0,0,1,.66,1.39,6.94,6.94,0,0,1,.23,1.83,5.81,5.81,0,0,1-.32,2,4.37,4.37,0,0,1-.83,1.47A3.49,3.49,0,0,1,539.86,42a3,3,0,0,1-1.2-.27,4.91,4.91,0,0,1-1.2-.76l0,1.53v3H536Zm3.58,7.67a2.23,2.23,0,0,0,1-.24,2.43,2.43,0,0,0,.79-.68,3.1,3.1,0,0,0,.52-1.08,5,5,0,0,0,.19-1.45A6.53,6.53,0,0,0,542,36a3.24,3.24,0,0,0-.4-1,1.85,1.85,0,0,0-.71-.65,2.23,2.23,0,0,0-1-.23,2.39,2.39,0,0,0-1.13.3,5.79,5.79,0,0,0-1.21.9v4.54a3.56,3.56,0,0,0,1.15.71A2.75,2.75,0,0,0,539.62,40.74Z" style="fill: rgb(118, 118, 118);"/>
  <path d="M547.68,42a2.73,2.73,0,0,1-1-.18,2.26,2.26,0,0,1-.8-.5,2.33,2.33,0,0,1-.53-.8,2.74,2.74,0,0,1-.19-1.06,2.5,2.5,0,0,1,1.38-2.4,8.82,8.82,0,0,1,4-.76,4.47,4.47,0,0,0-.08-.82,2,2,0,0,0-.28-.7,1.54,1.54,0,0,0-.55-.49,1.94,1.94,0,0,0-.88-.18,4.28,4.28,0,0,0-1.47.25,4.79,4.79,0,0,0-1.22.6l-.58-1a7.85,7.85,0,0,1,1.53-.71,5.83,5.83,0,0,1,2-.32,3.37,3.37,0,0,1,1.36.25,2.41,2.41,0,0,1,.93.73,3.29,3.29,0,0,1,.54,1.13,5.48,5.48,0,0,1,.18,1.45v5.35h-1.2l-.13-.94h0a5.91,5.91,0,0,1-1.35.83A3.87,3.87,0,0,1,547.68,42Zm.42-1.19a3.16,3.16,0,0,0,1.2-.22,4.49,4.49,0,0,0,1.2-.78V37.2a15.15,15.15,0,0,0-1.91.23,4.05,4.05,0,0,0-1.21.41,1.4,1.4,0,0,0-.62.61,1.91,1.91,0,0,0-.18.86,1.36,1.36,0,0,0,.43,1.11A1.65,1.65,0,0,0,548.1,40.78Z" style="fill: rgb(118, 118, 118);"/>
  <path d="M555.6,45.5,557,41.68l-3.48-8.61H555l1.77,4.74c.13.37.27.77.41,1.2s.29.83.42,1.23h.08l.37-1.23.37-1.2L560,33.07h1.43L557,45.5Z" style="fill: rgb(118, 118, 118);"/>
  <path d="M122.36,42a5,5,0,0,1-2-.41,4.51,4.51,0,0,1-1.62-1.19,5.68,5.68,0,0,1-1.08-1.92,8,8,0,0,1-.38-2.55,7.76,7.76,0,0,1,.39-2.55,5.8,5.8,0,0,1,1.09-1.92,4.59,4.59,0,0,1,1.65-1.21,5,5,0,0,1,2.07-.41,4.17,4.17,0,0,1,1,.12,4.93,4.93,0,0,1,.89.32,4.81,4.81,0,0,1,.73.47,4.4,4.4,0,0,1,.59.54l-.8,1a4.1,4.1,0,0,0-1-.81,2.92,2.92,0,0,0-1.35-.31,3.46,3.46,0,0,0-1.52.33,3.28,3.28,0,0,0-1.16.94,4.51,4.51,0,0,0-.76,1.5,7.16,7.16,0,0,0-.26,2,7.34,7.34,0,0,0,.26,2,4.61,4.61,0,0,0,.72,1.51,3.2,3.2,0,0,0,1.15,1,3.27,3.27,0,0,0,1.52.34,3.19,3.19,0,0,0,1.5-.35,5,5,0,0,0,1.22-1l.81.93a5,5,0,0,1-1.57,1.24A4.5,4.5,0,0,1,122.36,42Z" style="fill: rgb(118, 118, 118);"/>
  <path d="M128,41.76V29h1.46V41.76Z" style="fill: rgb(118, 118, 118);"/>
  <path d="M133.12,31.28a1,1,0,0,1-.72-.27,1,1,0,0,1,0-1.37,1,1,0,0,1,.72-.25,1.07,1.07,0,0,1,.72.25,1,1,0,0,1,0,1.37A1,1,0,0,1,133.12,31.28Zm-.74,1.79h1.46v8.69h-1.46Z" style="fill: rgb(118, 118, 118);"/>
  <path d="M140.28,42a4.4,4.4,0,0,1-1.62-.31,3.73,3.73,0,0,1-1.32-.88,4.34,4.34,0,0,1-.89-1.44,5.69,5.69,0,0,1,0-3.82,4.32,4.32,0,0,1,.88-1.44,3.69,3.69,0,0,1,1.25-.91,3.48,3.48,0,0,1,1.47-.32,3.62,3.62,0,0,1,1.48.28,3,3,0,0,1,1.08.83,3.76,3.76,0,0,1,.67,1.29,5.5,5.5,0,0,1,.24,1.68c0,.16,0,.31,0,.45a3.22,3.22,0,0,1-.05.38h-5.87a3.33,3.33,0,0,0,.86,2.21,2.66,2.66,0,0,0,2,.81,3.59,3.59,0,0,0,1.17-.18,4.17,4.17,0,0,0,1-.51l.52,1a6.65,6.65,0,0,1-1.28.64A4.44,4.44,0,0,1,140.28,42Zm1.94-5.23a3.1,3.1,0,0,0-.57-2,2,2,0,0,0-1.59-.69,2.25,2.25,0,0,0-.89.18,2.61,2.61,0,0,0-.76.53,2.92,2.92,0,0,0-.56.85,4,4,0,0,0-.29,1.15Z" style="fill: rgb(118, 118, 118);"/>
  <path d="M145.64,33.07h1.2l.13,1.25H147a7.93,7.93,0,0,1,1.32-1,2.91,2.91,0,0,1,1.59-.43,2.34,2.34,0,0,1,2,.86,4.28,4.28,0,0,1,.64,2.54v5.51h-1.46V36.45a3.13,3.13,0,0,0-.39-1.78,1.45,1.45,0,0,0-1.26-.54,2.26,2.26,0,0,0-1.2.33,8.23,8.23,0,0,0-1.18,1v6.31h-1.46Z" style="fill: rgb(118, 118, 118);"/>
  <path d="M158.16,42a2.9,2.9,0,0,1-1.18-.21,1.8,1.8,0,0,1-.76-.59,2.47,2.47,0,0,1-.42-.91,5.38,5.38,0,0,1-.12-1.19V34.25h-1.3v-1.1l1.36-.08.17-2.43h1.22v2.43h2.35v1.18h-2.35V39.1a2.26,2.26,0,0,0,.29,1.25,1.17,1.17,0,0,0,1.06.43,1.86,1.86,0,0,0,.49-.07l.5-.15.29,1.09c-.25.08-.51.16-.79.22A3.9,3.9,0,0,1,158.16,42Z" style="fill: rgb(118, 118, 118);"/>
  <path d="M165.16,30h3.49a7.6,7.6,0,0,1,1.64.16,4,4,0,0,1,1.27.5,2.53,2.53,0,0,1,.83.89,3,3,0,0,1-.16,2.89,2.31,2.31,0,0,1-1.27,1v.08a3.22,3.22,0,0,1,1.72.9,2.62,2.62,0,0,1,.67,1.9,3.26,3.26,0,0,1-.32,1.51,3,3,0,0,1-.92,1.07,3.85,3.85,0,0,1-1.4.64,6.83,6.83,0,0,1-1.8.22h-3.75Zm3.23,5a3.53,3.53,0,0,0,2.18-.52,1.68,1.68,0,0,0,.66-1.41,1.54,1.54,0,0,0-.7-1.45,4,4,0,0,0-2.07-.43h-1.81V35Zm.31,5.55a4.27,4.27,0,0,0,2.36-.55,1.94,1.94,0,0,0,.84-1.75,1.76,1.76,0,0,0-.82-1.61,4.69,4.69,0,0,0-2.38-.5h-2v4.41Z" style="fill: rgb(118, 118, 118);"/>
  <path d="M175.55,33.07h1.2l.12,1.58h0a4.4,4.4,0,0,1,1.1-1.32,2.22,2.22,0,0,1,1.37-.48,2.47,2.47,0,0,1,.5,0,1.12,1.12,0,0,1,.42.15L180,34.32a2.73,2.73,0,0,0-.4-.11,2.48,2.48,0,0,0-.45,0,1.64,1.64,0,0,0-.56.11,2.05,2.05,0,0,0-.59.33,3.13,3.13,0,0,0-.56.62,4.34,4.34,0,0,0-.48.94v5.59h-1.45Z" style="fill: rgb(118, 118, 118);"/>
  <path d="M185.13,42a3.94,3.94,0,0,1-2.82-1.19,4.21,4.21,0,0,1-.88-1.43,5.81,5.81,0,0,1,0-3.86,4.16,4.16,0,0,1,.88-1.44,3.77,3.77,0,0,1,1.29-.9,4.05,4.05,0,0,1,3.06,0,3.77,3.77,0,0,1,1.29.9,4.16,4.16,0,0,1,.88,1.44,5.81,5.81,0,0,1,0,3.86,4.21,4.21,0,0,1-.88,1.43A3.94,3.94,0,0,1,185.13,42Zm0-1.23a2.29,2.29,0,0,0,1-.24,2.45,2.45,0,0,0,.8-.67,3,3,0,0,0,.52-1,4.43,4.43,0,0,0,.19-1.36,4.47,4.47,0,0,0-.19-1.36A3.18,3.18,0,0,0,187,35a2.26,2.26,0,0,0-.8-.68,2.16,2.16,0,0,0-1-.24,2.19,2.19,0,0,0-1,.24,2.26,2.26,0,0,0-.8.68,3.87,3.87,0,0,0-.51,1.06,4.81,4.81,0,0,0-.18,1.36,4.76,4.76,0,0,0,.18,1.36,3.67,3.67,0,0,0,.51,1,2.45,2.45,0,0,0,.8.67A2.32,2.32,0,0,0,185.13,40.74Z" style="fill: rgb(118, 118, 118);"/>
  <path d="M190.41,33.07h1.49l1.29,5c.09.42.18.83.26,1.23s.17.8.26,1.21h.08c.09-.41.19-.81.28-1.22s.19-.81.31-1.22l1.34-5h1.43l1.36,5,.3,1.23.3,1.21h.07c.09-.41.19-.81.27-1.21l.27-1.23,1.28-5h1.38L200,41.76h-1.76L197,37.07c-.12-.4-.22-.81-.31-1.21s-.18-.84-.28-1.29h-.08c-.1.45-.19.88-.28,1.29s-.2.83-.32,1.24l-1.21,4.66h-1.71Z" style="fill: rgb(118, 118, 118);"/>
  <path d="M206.55,42a4.66,4.66,0,0,1-1.77-.35,5.51,5.51,0,0,1-1.47-.85l.72-1a5.22,5.22,0,0,0,1.17.74,3.3,3.3,0,0,0,1.4.28,1.8,1.8,0,0,0,1.29-.4,1.29,1.29,0,0,0,.42-1,.9.9,0,0,0-.17-.57,1.94,1.94,0,0,0-.46-.44,3.21,3.21,0,0,0-.64-.34l-.71-.3a8,8,0,0,1-.92-.37,3.67,3.67,0,0,1-.83-.5,2.49,2.49,0,0,1-.61-.69,1.88,1.88,0,0,1-.23-.95,2.27,2.27,0,0,1,.78-1.74,2.73,2.73,0,0,1,.95-.53,3.79,3.79,0,0,1,1.26-.19,3.85,3.85,0,0,1,1.5.28,5.3,5.3,0,0,1,1.2.68l-.7.94a5.35,5.35,0,0,0-.94-.55,2.42,2.42,0,0,0-1.06-.22,1.72,1.72,0,0,0-1.2.37,1.17,1.17,0,0,0-.38.88.85.85,0,0,0,.16.54,1.46,1.46,0,0,0,.43.38,3.17,3.17,0,0,0,.61.31l.72.28c.32.12.63.25,1,.39a3.59,3.59,0,0,1,.85.5,2.59,2.59,0,0,1,.61.71,2.09,2.09,0,0,1,.24,1,2.46,2.46,0,0,1-.21,1,2.17,2.17,0,0,1-.6.81,2.93,2.93,0,0,1-1,.56A4,4,0,0,1,206.55,42Z" style="fill: rgb(118, 118, 118);"/>
  <path d="M215.27,42a4.4,4.4,0,0,1-1.62-.31,3.73,3.73,0,0,1-1.32-.88,4.34,4.34,0,0,1-.89-1.44,5.69,5.69,0,0,1,0-3.82,4.32,4.32,0,0,1,.88-1.44,3.63,3.63,0,0,1,1.26-.91,3.41,3.41,0,0,1,1.46-.32,3.62,3.62,0,0,1,1.48.28,3,3,0,0,1,1.08.83,3.76,3.76,0,0,1,.67,1.29,5.5,5.5,0,0,1,.24,1.68c0,.16,0,.31,0,.45a3.22,3.22,0,0,1-.05.38h-5.87a3.33,3.33,0,0,0,.86,2.21,2.66,2.66,0,0,0,2,.81,3.59,3.59,0,0,0,1.17-.18,4.17,4.17,0,0,0,1-.51l.52,1a6.65,6.65,0,0,1-1.28.64A4.44,4.44,0,0,1,215.27,42Zm1.94-5.23a3.1,3.1,0,0,0-.57-2,2,2,0,0,0-1.59-.69,2.25,2.25,0,0,0-.89.18,2.61,2.61,0,0,0-.76.53,2.92,2.92,0,0,0-.56.85,4,4,0,0,0-.29,1.15Z" style="fill: rgb(118, 118, 118);"/>
  <path d="M220.63,33.07h1.2l.13,1.58h0a4.26,4.26,0,0,1,1.1-1.32,2.19,2.19,0,0,1,1.36-.48,2.57,2.57,0,0,1,.51,0,1.18,1.18,0,0,1,.42.15l-.27,1.28a2.73,2.73,0,0,0-.4-.11,2.68,2.68,0,0,0-.45,0,1.74,1.74,0,0,0-.57.11,2.14,2.14,0,0,0-.58.33,3.13,3.13,0,0,0-.56.62,4.34,4.34,0,0,0-.48.94v5.59h-1.46Z" style="fill: rgb(118, 118, 118);"/>
  <line class="cls-2" x1="532.72" y1="457.29" x2="352.69" y2="457.29"/>
  <line class="cls-2" x1="532.72" y1="397.28" x2="352.69" y2="397.28"/>
  <path class="cls-3" d="M412.08,471.14h-4.79v-4.73h.92V468h2.94v-1.56h.93Zm-.93-2.4h-2.94v1.6h2.94Zm4.34,7.12v.77h-6.95V474h5.68v-1.05h-5.7v-.77h6.62v2.54h-5.67v1.15Zm-.36-4.24h-.93V466h.93Z"/>
  <path class="cls-3" d="M422.68,467.1a12.26,12.26,0,0,1-.22,2.29,7.61,7.61,0,0,1-2.22,4A9.74,9.74,0,0,1,418,475l-.5-.78a8.52,8.52,0,0,0,2.31-1.63,6.84,6.84,0,0,0,1.37-2l-3.49.35-.16-.86,3.95-.28a7.24,7.24,0,0,0,.22-.92c.05-.3.08-.63.11-1H418v-.81Zm2.95-1.11v10.76h-.93V466Z"/>
  <path class="cls-3" d="M435.74,471.84a4.43,4.43,0,0,1-1.5-1,4.14,4.14,0,0,1-1-1.47,4.79,4.79,0,0,1-1,1.62,4.08,4.08,0,0,1-1.56,1l-.47-.79a3.82,3.82,0,0,0,1.05-.58,4.23,4.23,0,0,0,.8-.84,3.64,3.64,0,0,0,.5-1,3.8,3.8,0,0,0,.18-1.16v-1.12h.94v1.19a3.23,3.23,0,0,0,.18,1.06,3.49,3.49,0,0,0,.51,1,3.6,3.6,0,0,0,.78.78,4.3,4.3,0,0,0,1,.55Zm-4.18,1.22h6.66v3.7h-.94v-2.91h-5.72Zm8.17-3.41h-1.51v2.87h-.94V466h.94v2.83h1.51Z"/>
  <path class="cls-3" d="M443.77,469a7.23,7.23,0,0,0,.14,1.4,6.28,6.28,0,0,0,.42,1.29,4.66,4.66,0,0,0,.68,1.09,3.46,3.46,0,0,0,.94.81l-.57.72A4,4,0,0,1,444.1,473a6.76,6.76,0,0,1-.78-1.86,6.66,6.66,0,0,1-.8,2,4.19,4.19,0,0,1-1.3,1.4l-.57-.73a3.84,3.84,0,0,0,1-.86,5.16,5.16,0,0,0,.69-1.16,6.45,6.45,0,0,0,.43-1.35,7.19,7.19,0,0,0,.15-1.47v-1h-1.94v-.8h4.66v.8h-1.82Zm2.74-2.79h.88v10h-.88v-5.53h-1.69v-.81h1.69Zm2.95-.25v10.76h-.9V466Z"/>
  <path class="cls-3" d="M463.05,471.22V472h-9.24v-.79Zm-4.62-5a7.47,7.47,0,0,1,1.49.14,4,4,0,0,1,1.13.4,2.17,2.17,0,0,1,.72.65,1.55,1.55,0,0,1,.25.87,1.47,1.47,0,0,1-.25.85,2.07,2.07,0,0,1-.72.65,4,4,0,0,1-1.13.4,8,8,0,0,1-3,0,4,4,0,0,1-1.13-.4,2.07,2.07,0,0,1-.72-.65,1.47,1.47,0,0,1-.25-.85,1.55,1.55,0,0,1,.25-.87,2.17,2.17,0,0,1,.72-.65,4,4,0,0,1,1.13-.4A7.55,7.55,0,0,1,458.43,466.26Zm0,6.64a5.49,5.49,0,0,1,2.56.5,1.56,1.56,0,0,1,0,2.85,5.36,5.36,0,0,1-2.56.5,8,8,0,0,1-1.46-.12,3.94,3.94,0,0,1-1.1-.38,1.79,1.79,0,0,1-.69-.61,1.43,1.43,0,0,1-.24-.81,1.45,1.45,0,0,1,.24-.83,1.86,1.86,0,0,1,.69-.6A3.94,3.94,0,0,1,457,473,7.14,7.14,0,0,1,458.43,472.9Zm0-5.87a4.45,4.45,0,0,0-1.93.34,1,1,0,0,0-.7.95,1,1,0,0,0,.7.93,5.62,5.62,0,0,0,3.85,0,1,1,0,0,0,.7-.93,1,1,0,0,0-.7-.95A4.43,4.43,0,0,0,458.44,467Zm0,6.64a4.72,4.72,0,0,0-1.88.3,1,1,0,0,0-.67.86.93.93,0,0,0,.67.85,6,6,0,0,0,3.75,0,.93.93,0,0,0,.67-.85,1,1,0,0,0-.67-.86A4.7,4.7,0,0,0,458.44,473.67Z"/>
  <path class="cls-3" d="M470.32,471c-.35.07-.69.14-1,.18s-.7.09-1.07.12l-1.21.06h-2.24V466.7h4.5v.79H465.7v3.07l1.37,0,1.15-.05c.35,0,.69-.06,1-.11l1-.18Zm1,1.32h.92v4.26h-6.44v-4.26h.93v1.35h4.59Zm0,2.11h-4.59v1.35h4.59Zm2.44-5.1h-1.52v2.4h-.93V466h.93v2.53h1.52Z"/>
  <path class="cls-3" d="M423.84,410.72h-4.78V406H420v1.56h2.94V406h.92Zm-.92-2.4H420v1.61h2.94Zm4.33,7.13v.77h-6.94v-2.64H426v-1.06h-5.7v-.77h6.62v2.55h-5.68v1.15Zm-.35-4.25H426v-5.61h.94Z"/>
  <path class="cls-3" d="M434.44,406.69a11.38,11.38,0,0,1-.22,2.28,7.57,7.57,0,0,1-.76,2.12A8,8,0,0,1,432,413a10.14,10.14,0,0,1-2.3,1.61l-.5-.79a8.74,8.74,0,0,0,2.32-1.63,6.63,6.63,0,0,0,1.36-2l-3.48.35-.16-.87,3.94-.27a6.14,6.14,0,0,0,.22-.92,9.57,9.57,0,0,0,.11-1h-3.75v-.8Zm3-1.12v10.77h-.94V405.57Z"/>
  <path class="cls-3" d="M447.51,411.42a4.41,4.41,0,0,1-1.5-1,4.35,4.35,0,0,1-1-1.48,4.58,4.58,0,0,1-1,1.62,4.22,4.22,0,0,1-1.57,1.05l-.46-.8a3.66,3.66,0,0,0,1-.58,3.54,3.54,0,0,0,.8-.84,3.81,3.81,0,0,0,.51-1,3.75,3.75,0,0,0,.18-1.16v-1.11h.93v1.18a3.19,3.19,0,0,0,.18,1.06,3.78,3.78,0,0,0,.51.95,3.44,3.44,0,0,0,.79.78,3.66,3.66,0,0,0,1,.55Zm-4.19,1.22H450v3.71h-.93v-2.92h-5.73Zm8.18-3.41H450v2.87h-.93v-6.5H450v2.83h1.52Z"/>
  <path class="cls-3" d="M455.53,408.61a6.43,6.43,0,0,0,.15,1.39,5.89,5.89,0,0,0,.41,1.29,4.94,4.94,0,0,0,.68,1.1,3.26,3.26,0,0,0,.94.8l-.57.72a4,4,0,0,1-1.27-1.29,6.14,6.14,0,0,1-.78-1.85,7.16,7.16,0,0,1-.8,2,4.32,4.32,0,0,1-1.31,1.4l-.57-.74a3.65,3.65,0,0,0,.95-.85,5.42,5.42,0,0,0,.7-1.16,7.2,7.2,0,0,0,.43-1.36,7.85,7.85,0,0,0,.14-1.46v-1H452.7v-.81h4.66v.81h-1.83Zm2.74-2.8h.89v10h-.89v-5.53h-1.69v-.8h1.69Zm3-.25v10.76h-.9V405.56Z"/>
  <path class="cls-3" d="M428,371.27h2a4.45,4.45,0,0,1,1.07.11,2,2,0,0,1,.82.36,1.71,1.71,0,0,1,.54.67,2.49,2.49,0,0,1,.19,1,2.46,2.46,0,0,1-.19,1,1.87,1.87,0,0,1-.53.71,2.29,2.29,0,0,1-.81.41,3.74,3.74,0,0,1-1,.14h-1.16v2.91H428Zm1.92,3.68a2.12,2.12,0,0,0,1.36-.37,1.41,1.41,0,0,0,.44-1.16,1.24,1.24,0,0,0-.46-1.11,2.52,2.52,0,0,0-1.38-.3h-1V375Z"/>
  <path class="cls-3" d="M436.53,378.73a2.68,2.68,0,0,1-2.14-1,3.59,3.59,0,0,1-.62-1.2,5.67,5.67,0,0,1-.21-1.59,5.45,5.45,0,0,1,.21-1.58,3.44,3.44,0,0,1,.62-1.19,2.53,2.53,0,0,1,.94-.75,2.9,2.9,0,0,1,2.4,0,2.53,2.53,0,0,1,.94.75,3.43,3.43,0,0,1,.61,1.19,5.11,5.11,0,0,1,.22,1.58,5.32,5.32,0,0,1-.22,1.59,3.57,3.57,0,0,1-.61,1.2,2.68,2.68,0,0,1-2.14,1Zm0-.81a1.76,1.76,0,0,0,.85-.22,1.86,1.86,0,0,0,.65-.6,2.85,2.85,0,0,0,.42-1,4.73,4.73,0,0,0,.15-1.24,4.68,4.68,0,0,0-.15-1.24,2.8,2.8,0,0,0-.42-.94,1.83,1.83,0,0,0-.65-.59,1.93,1.93,0,0,0-1.71,0,1.91,1.91,0,0,0-.65.59,3,3,0,0,0-.42.94,5.16,5.16,0,0,0-.14,1.24,5.22,5.22,0,0,0,.14,1.24,3.07,3.07,0,0,0,.42,1,2,2,0,0,0,.65.6A1.77,1.77,0,0,0,436.53,377.92Z"/>
  <path class="cls-3" d="M442.94,378.73a3.22,3.22,0,0,1-1.36-.29,3.31,3.31,0,0,1-1.08-.8L441,377a2.87,2.87,0,0,0,.89.66,2.38,2.38,0,0,0,1,.25,1.57,1.57,0,0,0,1.07-.33,1.08,1.08,0,0,0,.39-.87,1.14,1.14,0,0,0-.09-.48,1.16,1.16,0,0,0-.24-.34,1.6,1.6,0,0,0-.37-.25l-.45-.23-1-.46c-.17-.08-.33-.17-.5-.27a2.27,2.27,0,0,1-.45-.38,1.79,1.79,0,0,1-.34-.53,1.9,1.9,0,0,1-.13-.7,1.91,1.91,0,0,1,.62-1.4,2.12,2.12,0,0,1,.7-.41,2.5,2.5,0,0,1,.88-.14,2.61,2.61,0,0,1,1.15.25,2.69,2.69,0,0,1,.9.66l-.47.59a2.33,2.33,0,0,0-.71-.51,2.05,2.05,0,0,0-.87-.18,1.4,1.4,0,0,0-.95.29,1.08,1.08,0,0,0-.25,1.25,1.4,1.4,0,0,0,.27.33,1.69,1.69,0,0,0,.37.24l.4.19,1,.45a3.91,3.91,0,0,1,.57.31,1.9,1.9,0,0,1,.45.4,1.85,1.85,0,0,1,.31.53,2.18,2.18,0,0,1,.11.72,2,2,0,0,1-.17.81,2,2,0,0,1-.47.66,2.14,2.14,0,0,1-.75.45A3,3,0,0,1,442.94,378.73Z"/>
  <path class="cls-3" d="M447.92,372.05h-2.11v-.78h5.1v.78H448.8v6.55h-.88Z"/>
  <path class="cls-3" d="M385,382.17h.62l-2.84,9.72h-.63Z"/>
  <path class="cls-3" d="M385.91,385.17h.9l1,3.09q.12.39.24.81c.08.27.16.53.25.79h0l.24-.79.24-.81,1-3.09h.85l-1.83,5.43h-1Z"/>
  <path class="cls-3" d="M395.73,389.86v.74H392v-.74h1.55v-5.28a1.93,1.93,0,0,1,0-.25l-1.27,1.19-.46-.59,1.87-1.7h.69v6.63Z"/>
  <path class="cls-3" d="M399.35,382.17H400l-2.84,9.72h-.64Z"/>
  <path class="cls-3" d="M402.34,390.73a2.74,2.74,0,0,1-1-.22,3.11,3.11,0,0,1-.87-.53l.42-.6a3.38,3.38,0,0,0,.7.46,1.87,1.87,0,0,0,.83.18,1.1,1.1,0,0,0,.77-.25.82.82,0,0,0,.25-.6.61.61,0,0,0-.11-.36,1,1,0,0,0-.27-.27,1.72,1.72,0,0,0-.38-.22l-.42-.18-.54-.23a2.14,2.14,0,0,1-.5-.32,1.48,1.48,0,0,1-.36-.43,1.2,1.2,0,0,1-.14-.59,1.46,1.46,0,0,1,.12-.6,1.42,1.42,0,0,1,.35-.49,1.63,1.63,0,0,1,.56-.33,2.19,2.19,0,0,1,.75-.12,2.35,2.35,0,0,1,.89.17,2.92,2.92,0,0,1,.71.43l-.41.59a3.43,3.43,0,0,0-.56-.35,1.45,1.45,0,0,0-.63-.13.94.94,0,0,0-.71.23.71.71,0,0,0-.23.55.58.58,0,0,0,.09.33,1,1,0,0,0,.26.24,1.84,1.84,0,0,0,.37.19l.42.18a5.55,5.55,0,0,1,.56.24,2.2,2.2,0,0,1,.51.32,1.39,1.39,0,0,1,.36.44,1.3,1.3,0,0,1,.15.65,1.69,1.69,0,0,1-.13.63,1.32,1.32,0,0,1-.36.51,1.88,1.88,0,0,1-.59.35A2.46,2.46,0,0,1,402.34,390.73Z"/>
  <path class="cls-3" d="M406.94,390.73a1.35,1.35,0,0,1-1.19-.54,2.77,2.77,0,0,1-.38-1.58v-3.44h.87v3.33a2,2,0,0,0,.23,1.11.84.84,0,0,0,.74.34,1.27,1.27,0,0,0,.71-.22,2.91,2.91,0,0,0,.68-.71v-3.85h.87v5.43h-.72l-.07-.85h0a3.63,3.63,0,0,1-.77.71A1.65,1.65,0,0,1,406.94,390.73Z"/>
  <path class="cls-3" d="M413.48,390.73a1.67,1.67,0,0,1-.75-.19A2.64,2.64,0,0,1,412,390h0l-.08.57h-.69v-8h.86v2.18l0,1a3.74,3.74,0,0,1,.77-.55,1.77,1.77,0,0,1,.85-.22,1.85,1.85,0,0,1,.89.2,1.8,1.8,0,0,1,.64.56,2.49,2.49,0,0,1,.4.87,4.39,4.39,0,0,1,.13,1.13,3.77,3.77,0,0,1-.19,1.25,2.78,2.78,0,0,1-.49.92,2,2,0,0,1-.71.57A1.93,1.93,0,0,1,413.48,390.73Zm-.14-.77a1.2,1.2,0,0,0,.59-.15,1.37,1.37,0,0,0,.47-.43,2,2,0,0,0,.31-.67,3.6,3.6,0,0,0,.11-.91,4.15,4.15,0,0,0-.08-.82,2,2,0,0,0-.24-.63,1.08,1.08,0,0,0-.41-.41,1.22,1.22,0,0,0-.63-.14,1.38,1.38,0,0,0-.68.19,3.51,3.51,0,0,0-.71.55v2.85a2,2,0,0,0,.68.44A1.75,1.75,0,0,0,413.34,390Z"/>
  <path class="cls-3" d="M418.43,390.73a2.76,2.76,0,0,1-1.06-.22,3.43,3.43,0,0,1-.87-.53l.43-.6a3.13,3.13,0,0,0,.7.46,1.84,1.84,0,0,0,.83.18,1.07,1.07,0,0,0,.76-.25.82.82,0,0,0,.25-.6.61.61,0,0,0-.1-.36,1.15,1.15,0,0,0-.27-.27,2,2,0,0,0-.38-.22l-.43-.18-.54-.23a2.37,2.37,0,0,1-.5-.32,1.65,1.65,0,0,1-.36-.43,1.2,1.2,0,0,1-.13-.59,1.64,1.64,0,0,1,.11-.6,1.42,1.42,0,0,1,.35-.49,1.63,1.63,0,0,1,.56-.33,2.19,2.19,0,0,1,.75-.12,2.44,2.44,0,0,1,.9.17,2.92,2.92,0,0,1,.71.43l-.42.59a3.06,3.06,0,0,0-.56-.35,1.39,1.39,0,0,0-.63-.13.94.94,0,0,0-.71.23.75.75,0,0,0-.23.55.52.52,0,0,0,.1.33,1,1,0,0,0,.25.24,1.84,1.84,0,0,0,.37.19l.42.18.57.24a2.37,2.37,0,0,1,.5.32,1.58,1.58,0,0,1,.37.44,1.42,1.42,0,0,1,.14.65,1.68,1.68,0,0,1-.12.63,1.46,1.46,0,0,1-.37.51,1.78,1.78,0,0,1-.59.35A2.44,2.44,0,0,1,418.43,390.73Z"/>
  <path class="cls-3" d="M423.56,390.73a2.57,2.57,0,0,1-1-.19,2.35,2.35,0,0,1-.77-.56,2.5,2.5,0,0,1-.51-.89,3.69,3.69,0,0,1-.18-1.2,3.23,3.23,0,0,1,.2-1.21,2.68,2.68,0,0,1,.55-.9,2.08,2.08,0,0,1,.79-.56,2.32,2.32,0,0,1,.94-.19,1.82,1.82,0,0,1,.88.19,3,3,0,0,1,.63.45l-.44.62a2,2,0,0,0-.48-.36,1.13,1.13,0,0,0-.56-.13,1.37,1.37,0,0,0-.64.15,1.48,1.48,0,0,0-.51.42,2.22,2.22,0,0,0-.34.67,2.77,2.77,0,0,0-.12.85,3.24,3.24,0,0,0,.11.85,2.09,2.09,0,0,0,.33.65,1.54,1.54,0,0,0,.5.42,1.41,1.41,0,0,0,.65.15,1.5,1.5,0,0,0,.67-.16,2.34,2.34,0,0,0,.55-.38l.37.61a2.46,2.46,0,0,1-.77.51A2.09,2.09,0,0,1,423.56,390.73Z"/>
  <path class="cls-3" d="M426.36,385.17h.71l.08,1h0a2.53,2.53,0,0,1,.65-.83,1.27,1.27,0,0,1,.81-.3,1.42,1.42,0,0,1,.3,0,.87.87,0,0,1,.25.1l-.16.8a.9.9,0,0,0-.24-.07,1,1,0,0,0-.26,0,1.06,1.06,0,0,0-.34.06,1.3,1.3,0,0,0-.35.21,2.24,2.24,0,0,0-.33.39,2.7,2.7,0,0,0-.29.59v3.49h-.86Z"/>
  <path class="cls-3" d="M430.48,384.05a.57.57,0,0,1-.42-.17.6.6,0,0,1,0-.86.6.6,0,0,1,.42-.15.63.63,0,0,1,.43.15.63.63,0,0,1,0,.86A.6.6,0,0,1,430.48,384.05Zm-.43,1.12h.86v5.43h-.86Z"/>
  <path class="cls-3" d="M434.93,390.73a1.67,1.67,0,0,1-.75-.19,2.64,2.64,0,0,1-.72-.51h0l-.08.57h-.69v-8h.86v2.18l0,1a3.74,3.74,0,0,1,.77-.55,1.77,1.77,0,0,1,.85-.22,1.85,1.85,0,0,1,.89.2,1.8,1.8,0,0,1,.64.56,2.49,2.49,0,0,1,.4.87,4.39,4.39,0,0,1,.13,1.13A4.06,4.06,0,0,1,437,389a3,3,0,0,1-.5.92,2,2,0,0,1-.71.57A1.93,1.93,0,0,1,434.93,390.73Zm-.14-.77a1.2,1.2,0,0,0,.59-.15,1.37,1.37,0,0,0,.47-.43,2,2,0,0,0,.31-.67,3.6,3.6,0,0,0,.11-.91,4.15,4.15,0,0,0-.08-.82,2,2,0,0,0-.24-.63,1.08,1.08,0,0,0-.41-.41,1.22,1.22,0,0,0-.63-.14,1.31,1.31,0,0,0-.67.19,3.29,3.29,0,0,0-.72.55v2.85a2.12,2.12,0,0,0,.68.44A1.81,1.81,0,0,0,434.79,390Z"/>
  <path class="cls-3" d="M440.61,390.73a2.57,2.57,0,0,1-1-.19,2.32,2.32,0,0,1-.79-.56,2.7,2.7,0,0,1-.53-.89,3.51,3.51,0,0,1-.19-1.2,3.2,3.2,0,0,1,.2-1.19,2.79,2.79,0,0,1,.51-.9,2.27,2.27,0,0,1,.75-.57,1.91,1.91,0,0,1,.87-.2,2.07,2.07,0,0,1,.88.18,1.77,1.77,0,0,1,.64.51,2.2,2.2,0,0,1,.4.81,3.76,3.76,0,0,1,.14,1.05,2.53,2.53,0,0,1,0,.28l0,.24H439a2.26,2.26,0,0,0,.51,1.38,1.55,1.55,0,0,0,1.2.51,1.94,1.94,0,0,0,.7-.12,2.85,2.85,0,0,0,.6-.31l.31.6a4.2,4.2,0,0,1-.76.4A2.59,2.59,0,0,1,440.61,390.73Zm1.15-3.27a2,2,0,0,0-.34-1.26,1.11,1.11,0,0,0-.94-.43,1.2,1.2,0,0,0-.53.11,1.45,1.45,0,0,0-.45.33,1.65,1.65,0,0,0-.33.53,2.53,2.53,0,0,0-.18.72Z"/>
  <path class="cls-3" d="M445.87,382.17h.63l-2.84,9.72H443Z"/>
  <path class="cls-3" d="M448.51,391.7a.92.92,0,0,1-.39-.24,1.16,1.16,0,0,1-.22-.46,2.86,2.86,0,0,1-.08-.72c0-.2,0-.39,0-.57s0-.36,0-.53l0-.51c0-.18,0-.36,0-.54a1.13,1.13,0,0,0-.05-.32.67.67,0,0,0-.14-.28.75.75,0,0,0-.28-.2,1,1,0,0,0-.45-.08v-.57a1.17,1.17,0,0,0,.45-.08.88.88,0,0,0,.28-.2.74.74,0,0,0,.14-.28,1.12,1.12,0,0,0,.05-.31c0-.19,0-.37,0-.54l0-.52c0-.18,0-.35,0-.53s0-.37,0-.57a2.86,2.86,0,0,1,.08-.72,1,1,0,0,1,.22-.46.76.76,0,0,1,.39-.24,1.88,1.88,0,0,1,.55-.07h.47v.51h-.28a.62.62,0,0,0-.57.24,1.57,1.57,0,0,0-.15.79c0,.34,0,.66,0,1s0,.66,0,1.05a2,2,0,0,1-.14.82.77.77,0,0,1-.5.39v0a.77.77,0,0,1,.5.39,2,2,0,0,1,.14.83c0,.38,0,.72,0,1s0,.65,0,1a1.53,1.53,0,0,0,.15.78.62.62,0,0,0,.57.24h.28v.52h-.47A2.29,2.29,0,0,1,448.51,391.7Z"/>
  <path class="cls-3" d="M453,390.73a1.67,1.67,0,0,1-.75-.19,2.84,2.84,0,0,1-.73-.51h0l-.08.57h-.69v-8h.86v2.18l0,1a3.74,3.74,0,0,1,.77-.55,1.77,1.77,0,0,1,.85-.22,1.85,1.85,0,0,1,.89.2,1.8,1.8,0,0,1,.64.56,2.49,2.49,0,0,1,.4.87,4.39,4.39,0,0,1,.13,1.13,3.77,3.77,0,0,1-.19,1.25,2.78,2.78,0,0,1-.49.92,2.13,2.13,0,0,1-.71.57A1.93,1.93,0,0,1,453,390.73Zm-.15-.77a1.21,1.21,0,0,0,.6-.15,1.37,1.37,0,0,0,.47-.43,2.19,2.19,0,0,0,.31-.67,3.6,3.6,0,0,0,.11-.91,4.15,4.15,0,0,0-.08-.82,2,2,0,0,0-.24-.63,1.08,1.08,0,0,0-.41-.41,1.22,1.22,0,0,0-.63-.14,1.38,1.38,0,0,0-.68.19,3.51,3.51,0,0,0-.71.55v2.85a2,2,0,0,0,.68.44A1.75,1.75,0,0,0,452.85,390Z"/>
  <path class="cls-3" d="M457,384.05a.58.58,0,0,1-.43-.17.63.63,0,0,1,0-.86.61.61,0,0,1,.43-.15.6.6,0,0,1,.42.15.63.63,0,0,1,0,.86A.57.57,0,0,1,457,384.05Zm-.44,1.12h.86v5.43h-.86Z"/>
  <path class="cls-3" d="M461,390.73a2.07,2.07,0,0,1-.88-.19,1.87,1.87,0,0,1-.67-.55,2.73,2.73,0,0,1-.43-.89,4.5,4.5,0,0,1-.15-1.21,3.42,3.42,0,0,1,.19-1.19,2.59,2.59,0,0,1,.49-.9,2,2,0,0,1,.7-.57,1.8,1.8,0,0,1,.85-.2,1.62,1.62,0,0,1,.79.17,3.59,3.59,0,0,1,.67.47l0-.94v-2.09h.86v8h-.7l-.09-.64h0a3.17,3.17,0,0,1-.71.54A1.7,1.7,0,0,1,461,390.73Zm.19-.77a1.27,1.27,0,0,0,.68-.19,2.64,2.64,0,0,0,.64-.56v-2.85a2.21,2.21,0,0,0-.63-.43,1.5,1.5,0,0,0-.62-.13,1.2,1.2,0,0,0-.59.15,1.44,1.44,0,0,0-.47.42,1.85,1.85,0,0,0-.32.66,3.24,3.24,0,0,0,.25,2.38A1.22,1.22,0,0,0,461.16,390Z"/>
  <path class="cls-3" d="M464.55,391.25h.28a.6.6,0,0,0,.57-.24,1.53,1.53,0,0,0,.15-.78q0-.51,0-1c0-.32,0-.66,0-1a2,2,0,0,1,.14-.83.77.77,0,0,1,.5-.39v0a.78.78,0,0,1-.49-.39,2,2,0,0,1-.14-.82c0-.39,0-.74,0-1.05s0-.64,0-1a1.57,1.57,0,0,0-.15-.79.6.6,0,0,0-.57-.24h-.28v-.51H465a1.79,1.79,0,0,1,.55.07.72.72,0,0,1,.39.24,1,1,0,0,1,.23.46,2.86,2.86,0,0,1,.08.72c0,.2,0,.39,0,.57l0,.53,0,.52c0,.17,0,.35,0,.54a1.65,1.65,0,0,0,0,.31.74.74,0,0,0,.14.28,1,1,0,0,0,.28.2,1.1,1.1,0,0,0,.45.08v.57a1,1,0,0,0-.45.08.84.84,0,0,0-.28.2.67.67,0,0,0-.14.28,1.65,1.65,0,0,0,0,.32c0,.18,0,.36,0,.54l0,.51,0,.53c0,.18,0,.37,0,.57a2.86,2.86,0,0,1-.08.72,1.17,1.17,0,0,1-.23.46.86.86,0,0,1-.39.24,2.17,2.17,0,0,1-.55.07h-.47Z"/>
  <path class="cls-3" d="M470.39,382.17H471l-2.84,9.72h-.64Z"/>
  <path class="cls-3" d="M473.78,390.73a2.57,2.57,0,0,1-1-.19A2.29,2.29,0,0,1,472,390a2.54,2.54,0,0,1-.53-.89,3.51,3.51,0,0,1-.2-1.2,3.41,3.41,0,0,1,.2-1.19,2.63,2.63,0,0,1,.52-.9,2.14,2.14,0,0,1,.74-.57,2.11,2.11,0,0,1,1.75,0,1.69,1.69,0,0,1,.64.51,2.2,2.2,0,0,1,.4.81,3.42,3.42,0,0,1,.14,1.05,2.53,2.53,0,0,1,0,.28.88.88,0,0,1,0,.24h-3.48a2.14,2.14,0,0,0,.51,1.38,1.52,1.52,0,0,0,1.2.51,1.92,1.92,0,0,0,.69-.12,2.85,2.85,0,0,0,.6-.31l.31.6a3.89,3.89,0,0,1-.76.4A2.52,2.52,0,0,1,473.78,390.73Zm1.15-3.27a2,2,0,0,0-.33-1.26,1.13,1.13,0,0,0-1-.43,1.23,1.23,0,0,0-.53.11,1.73,1.73,0,0,0-.45.33,1.84,1.84,0,0,0-.33.53,2.24,2.24,0,0,0-.17.72Z"/>
  <path class="cls-3" d="M477.94,387.77l-1.57-2.6h.93l.69,1.2.25.45.27.45h0l.24-.45.23-.45.63-1.2h.91L479,387.86l1.7,2.74h-.95l-.76-1.27-.27-.5-.28-.47h-.05c-.09.15-.18.31-.26.47l-.27.5-.69,1.27h-.92Z"/>
  <path class="cls-3" d="M481.7,385.17h.71l.08.62h0a4.57,4.57,0,0,1,.77-.53,1.73,1.73,0,0,1,.88-.23,1.79,1.79,0,0,1,1.52.76,2.49,2.49,0,0,1,.4.87,4.47,4.47,0,0,1,.13,1.14A3.67,3.67,0,0,1,486,389a2.78,2.78,0,0,1-.49.92,2.13,2.13,0,0,1-.71.57,1.93,1.93,0,0,1-.85.2,1.68,1.68,0,0,1-.71-.17,3.06,3.06,0,0,1-.72-.47l0,1v1.85h-.86Zm2.12,4.79a1.21,1.21,0,0,0,.6-.15,1.37,1.37,0,0,0,.47-.43,2.19,2.19,0,0,0,.31-.67,3.6,3.6,0,0,0,.11-.91,4.15,4.15,0,0,0-.08-.82,2,2,0,0,0-.24-.63,1.08,1.08,0,0,0-.41-.41,1.25,1.25,0,0,0-.63-.14,1.31,1.31,0,0,0-.67.19,3.29,3.29,0,0,0-.72.55v2.85a2.23,2.23,0,0,0,.68.44A1.75,1.75,0,0,0,483.82,390Z"/>
  <path class="cls-3" d="M488,384.05a.57.57,0,0,1-.42-.17.63.63,0,0,1,0-.86.6.6,0,0,1,.42-.15.63.63,0,0,1,.43.15.63.63,0,0,1,0,.86A.6.6,0,0,1,488,384.05Zm-.43,1.12h.86v5.43h-.86Z"/>
  <path class="cls-3" d="M490.2,385.17h.71l.08,1h0a2.53,2.53,0,0,1,.65-.83,1.27,1.27,0,0,1,.81-.3,1.42,1.42,0,0,1,.3,0,.87.87,0,0,1,.25.1l-.16.8a.9.9,0,0,0-.24-.07,1.21,1.21,0,0,0-.6,0,1.3,1.3,0,0,0-.35.21,2.24,2.24,0,0,0-.33.39,2.7,2.7,0,0,0-.29.59v3.49h-.86Z"/>
  <path class="cls-3" d="M496,390.73a2.58,2.58,0,0,1-1-.19,2.29,2.29,0,0,1-.78-.56,2.7,2.7,0,0,1-.53-.89,3.51,3.51,0,0,1-.19-1.2,3.42,3.42,0,0,1,.19-1.19,2.63,2.63,0,0,1,.52-.9,2.27,2.27,0,0,1,.75-.57,1.91,1.91,0,0,1,.87-.2,2,2,0,0,1,.87.18,1.8,1.8,0,0,1,.65.51,2.56,2.56,0,0,1,.4.81,3.76,3.76,0,0,1,.14,1.05c0,.1,0,.19,0,.28l0,.24h-3.49a2.14,2.14,0,0,0,.51,1.38,1.55,1.55,0,0,0,1.2.51,1.88,1.88,0,0,0,.69-.12,2.85,2.85,0,0,0,.6-.31l.32.6a4.56,4.56,0,0,1-.76.4A2.59,2.59,0,0,1,496,390.73Zm1.15-3.27a2,2,0,0,0-.34-1.26,1.13,1.13,0,0,0-.95-.43,1.16,1.16,0,0,0-.52.11,1.62,1.62,0,0,0-.46.33,1.84,1.84,0,0,0-.33.53,2.54,2.54,0,0,0-.17.72Z"/>
  <path class="cls-3" d="M571.38,423.31a4.41,4.41,0,0,1-1.5-1,4.3,4.3,0,0,1-1-1.48,4.46,4.46,0,0,1-1,1.62,4.1,4.1,0,0,1-1.56,1l-.47-.8a3.58,3.58,0,0,0,1.05-.58,3.54,3.54,0,0,0,.8-.84,3.81,3.81,0,0,0,.51-1,3.75,3.75,0,0,0,.18-1.16V418h.93v1.18a3.19,3.19,0,0,0,.18,1.06,3.49,3.49,0,0,0,.51.95,3.44,3.44,0,0,0,.79.78,3.94,3.94,0,0,0,1,.55Zm-4.19,1.22h6.66v3.71h-.93v-2.92h-5.73Zm8.18-3.41h-1.52V424h-.93v-6.5h.93v2.83h1.52Z"/>
  <path class="cls-3" d="M579.4,420.5a6.5,6.5,0,0,0,.15,1.39,5.89,5.89,0,0,0,.41,1.29,4.94,4.94,0,0,0,.68,1.1,3.42,3.42,0,0,0,.94.8l-.57.72a4,4,0,0,1-1.27-1.29,6.14,6.14,0,0,1-.78-1.85,6.89,6.89,0,0,1-.81,2,4.39,4.39,0,0,1-1.3,1.4l-.57-.74a3.82,3.82,0,0,0,1-.85,5.42,5.42,0,0,0,.7-1.16,6.72,6.72,0,0,0,.42-1.36,7.16,7.16,0,0,0,.15-1.46v-1h-1.94v-.81h4.67v.81H579.4Zm2.74-2.8H583v10h-.89v-5.53h-1.69v-.8h1.69Zm3-.25v10.76h-.9V417.45Z"/>
  <path class="cls-3" d="M569.45,435.34a4.54,4.54,0,0,0,.2,1.32,5.1,5.1,0,0,0,.55,1.21,4.77,4.77,0,0,0,.82,1,4.05,4.05,0,0,0,1.05.71l-.51.76A4.58,4.58,0,0,1,570,439.1a5.6,5.6,0,0,1-1-1.9,6.53,6.53,0,0,1-1,2,4.55,4.55,0,0,1-1.55,1.34l-.52-.76a4.35,4.35,0,0,0,1-.75,5,5,0,0,0,.82-1.06,5.44,5.44,0,0,0,.54-1.26,5,5,0,0,0,.2-1.38v-.83h-2.32v-.79h2.31v-1.67h.93v1.67h2.27v.79h-2.27Zm4.89-3.49v10.8h-.93V437H571.2v-.81h2.21v-4.33Z"/>
  <path class="cls-3" d="M577.93,439.23l1.23,0c.41,0,.81,0,1.21-.06l1.23-.12,1.3-.18.09.79c-.46.08-.91.15-1.34.2s-.85.09-1.27.12-.83,0-1.25.06H577v-4.12h3.76v-2.25H577v-.8h4.73v3.85h-3.76Zm6.87-7.38v10.79h-.94V431.85Z"/>
  <polygon class="cls-4" points="356.48 449.73 356.48 464.13 344.48 456.93 356.48 449.73"/>
  <polygon class="cls-4" points="344.48 404.48 344.48 390.08 356.48 397.28 344.48 404.48"/>
  <path class="cls-3" d="M229.74,131.91a11.48,11.48,0,0,1-.22,2.29,7.68,7.68,0,0,1-.74,2.11,7.85,7.85,0,0,1-1.43,1.89,9.81,9.81,0,0,1-2.27,1.6l-.52-.75a9,9,0,0,0,2.3-1.65,6.92,6.92,0,0,0,1.35-2l-3.44.35-.16-.87,3.89-.28a8.29,8.29,0,0,0,.3-1.89h-3.68v-.8ZM234,136h-1.64v5.58h-.94V130.81h.94v4.36H234Z"/>
  <path class="cls-3" d="M244.23,139.3v.81H235v-.81Zm-1.07-2.54h-7v-5h6.92v.8h-6V136h6.1Z"/>
  <path class="cls-3" d="M257.26,135.93v.8H248v-.8Zm-4.65,1.73a8.09,8.09,0,0,1,1.47.12,3.87,3.87,0,0,1,1.09.38,1.92,1.92,0,0,1,.7.61,1.56,1.56,0,0,1,0,1.66,1.92,1.92,0,0,1-.7.61,3.58,3.58,0,0,1-1.09.38,8.32,8.32,0,0,1-2.93,0,3.65,3.65,0,0,1-1.1-.38,2,2,0,0,1-.69-.61,1.56,1.56,0,0,1,0-1.66,2,2,0,0,1,.69-.61,3.94,3.94,0,0,1,1.1-.38A8.06,8.06,0,0,1,252.61,137.66Zm3.55-2.77h-7v-3.66h6.94V132h-6v2.07h6.07Zm-3.55,5.89a4.78,4.78,0,0,0,1.89-.3.91.91,0,0,0,0-1.75,6.07,6.07,0,0,0-3.77,0,.9.9,0,0,0,0,1.75A4.76,4.76,0,0,0,252.61,140.78Z"/>
  <path class="cls-3" d="M267.75,136.71v.8h-9.27v-.8h4.17v-1.13h-3V133h6v-1.11h-6v-.77h6.92v2.62h-6v1.12h6.18v.77h-3.19v1.13Zm-8.23,1.63h7.11v3.12h-.94v-2.31h-6.17Z"/>
  <path class="cls-3" d="M280.81,139.37v.81h-9.29v-.81h2.28v-2.9a2.73,2.73,0,0,1-1-.92,2.41,2.41,0,0,1-.36-1.31,2.28,2.28,0,0,1,.28-1.13,2.52,2.52,0,0,1,.76-.87,3.68,3.68,0,0,1,1.18-.56,5.72,5.72,0,0,1,3,0,3.53,3.53,0,0,1,1.17.56,2.55,2.55,0,0,1,.77.87,2.55,2.55,0,0,1-.08,2.43,2.57,2.57,0,0,1-1,.91v2.92Zm-4.66-7.12a4.14,4.14,0,0,0-1.14.14,3.16,3.16,0,0,0-.89.4,1.94,1.94,0,0,0-.58.63,1.64,1.64,0,0,0-.21.82,1.61,1.61,0,0,0,.21.82,2,2,0,0,0,.58.62,2.92,2.92,0,0,0,.89.41,4.56,4.56,0,0,0,1.14.14,4.43,4.43,0,0,0,1.13-.14,2.87,2.87,0,0,0,.9-.41,1.9,1.9,0,0,0,.58-.62,1.62,1.62,0,0,0,.22-.82,1.65,1.65,0,0,0-.22-.82,1.83,1.83,0,0,0-.58-.63,3.1,3.1,0,0,0-.9-.4A4,4,0,0,0,276.15,132.25Zm-1.42,7.12h2.85v-2.54a6.06,6.06,0,0,1-2.85,0Z"/>
  <path class="cls-3" d="M287.64,136.87a4.59,4.59,0,0,1-1.56-.87,3.94,3.94,0,0,1-1-1.37,4.2,4.2,0,0,1-1,1.55,4.14,4.14,0,0,1-1.57,1l-.46-.75a4.59,4.59,0,0,0,1-.54,3.91,3.91,0,0,0,.8-.77,3.22,3.22,0,0,0,.52-.94,3.13,3.13,0,0,0,.18-1v-.21H282.3v-.79h2.27v-1.34h.94v1.34h2.25v.79h-2.25v.21a2.5,2.5,0,0,0,.19,1,2.86,2.86,0,0,0,.53.86,3.38,3.38,0,0,0,.8.7,4.14,4.14,0,0,0,1,.49Zm-.59.73a6.9,6.9,0,0,1,1.43.13,4.13,4.13,0,0,1,1.08.38,1.92,1.92,0,0,1,.67.62,1.5,1.5,0,0,1,.24.84,1.53,1.53,0,0,1-.24.84,1.92,1.92,0,0,1-.67.62,3.52,3.52,0,0,1-1.08.38,6.86,6.86,0,0,1-1.43.14,6.73,6.73,0,0,1-1.41-.14,3.45,3.45,0,0,1-1.07-.38,2,2,0,0,1-.68-.62,1.6,1.6,0,0,1-.23-.84,1.58,1.58,0,0,1,.23-.84,2,2,0,0,1,.68-.62,4.06,4.06,0,0,1,1.07-.38A6.77,6.77,0,0,1,287.05,137.6Zm0,3.18a4.32,4.32,0,0,0,1.83-.32,1,1,0,0,0,.65-.89,1,1,0,0,0-.65-.89,4.34,4.34,0,0,0-1.83-.31,4.21,4.21,0,0,0-1.81.31,1,1,0,0,0-.65.89,1,1,0,0,0,.65.89A4.19,4.19,0,0,0,287.06,140.78Zm2.44-6.91v-3.06h.93v6.51h-.93v-2.65h-2v-.8Z"/>
  <path class="cls-3" d="M229.74,191.61a11.48,11.48,0,0,1-.22,2.29,7.57,7.57,0,0,1-.74,2.11,7.48,7.48,0,0,1-1.43,1.89,9.83,9.83,0,0,1-2.27,1.61l-.52-.76a9,9,0,0,0,2.3-1.65,6.79,6.79,0,0,0,1.35-2l-3.44.35-.16-.87,3.89-.27a8.47,8.47,0,0,0,.3-1.89h-3.68v-.81Zm4.24,4.07h-1.64v5.58h-.94V190.51h.94v4.37H234Z"/>
  <path class="cls-3" d="M244.23,199v.81H235V199Zm-1.07-2.54h-7v-5h6.92v.81h-6v3.36h6.1Z"/>
  <path class="cls-3" d="M257.26,195.63v.81H248v-.81Zm-4.65,1.73a7.24,7.24,0,0,1,1.47.13,3.87,3.87,0,0,1,1.09.37,1.94,1.94,0,0,1,.7.62,1.54,1.54,0,0,1,0,1.65,1.83,1.83,0,0,1-.7.61,3.58,3.58,0,0,1-1.09.38,8.32,8.32,0,0,1-2.93,0,3.65,3.65,0,0,1-1.1-.38,1.88,1.88,0,0,1-.69-.61,1.54,1.54,0,0,1,0-1.65,2,2,0,0,1,.69-.62,3.94,3.94,0,0,1,1.1-.37A7.2,7.2,0,0,1,252.61,197.36Zm3.55-2.77h-7v-3.66h6.94v.79h-6v2.08h6.07Zm-3.55,5.89a4.78,4.78,0,0,0,1.89-.3.91.91,0,0,0,0-1.75,6.07,6.07,0,0,0-3.77,0,.9.9,0,0,0,0,1.75A4.76,4.76,0,0,0,252.61,200.48Z"/>
  <path class="cls-3" d="M267.75,196.41v.81h-9.27v-.81h4.17v-1.13h-3v-2.62h6v-1.12h-6v-.77h6.92v2.62h-6v1.13h6.18v.76h-3.19v1.13ZM259.52,198h7.11v3.12h-.94v-2.31h-6.17Z"/>
  <path class="cls-3" d="M278,196.7c-.53.1-1.08.19-1.64.25s-1.11.1-1.66.13-1.07,0-1.59,0h-1.42l-.12-.8h1.27l1.39,0v-1.08a2.44,2.44,0,0,1-1.5-.68,1.89,1.89,0,0,1-.57-1.42,2,2,0,0,1,.18-.86,2.12,2.12,0,0,1,.52-.67,2.37,2.37,0,0,1,.8-.43,3.51,3.51,0,0,1,2,0,2.23,2.23,0,0,1,.79.43,2,2,0,0,1,.52.67,2.07,2.07,0,0,1-.37,2.28,2.46,2.46,0,0,1-1.47.67v1.06l1.41-.11c.47,0,.92-.1,1.36-.17Zm-5-3.59a1.23,1.23,0,0,0,.45,1,1.85,1.85,0,0,0,1.2.37,1.81,1.81,0,0,0,1.18-.37,1.31,1.31,0,0,0,0-2,1.82,1.82,0,0,0-1.18-.38,1.85,1.85,0,0,0-1.2.38A1.23,1.23,0,0,0,273,193.11Zm.93,7.09h5.9V201H273v-3h.92Zm7-6v.8h-1.51v3.78h-.93v-8.22h.93v3.64Z"/>
  <path class="cls-3" d="M291.3,199.12v.81H282v-.81h2.6v-2h-1.44v-3.32h6.06v-1.67h-6.08v-.8h7v3.26h-6.07v1.73h6.3v.8h-1.6v2Zm-5.77,0h2.34v-2h-2.34Z"/>
  <line class="cls-2" x1="351.86" y1="182.04" x2="171.83" y2="182.04"/>
  <polygon class="cls-4" points="175.62 174.47 175.62 188.88 163.62 181.68 175.62 174.47"/>
  <polygon class="cls-4" points="164.04 404.11 164.04 389.71 176.04 396.91 164.04 404.11"/>
  <path class="cls-3" d="M229.74,406.69a11.38,11.38,0,0,1-.22,2.28,7.63,7.63,0,0,1-.74,2.12,7.85,7.85,0,0,1-1.43,1.89,9.81,9.81,0,0,1-2.27,1.6l-.52-.75a9,9,0,0,0,2.3-1.65,6.92,6.92,0,0,0,1.35-2l-3.44.35-.16-.87,3.89-.28a8.29,8.29,0,0,0,.3-1.89h-3.68v-.8Zm4.24,4.07h-1.64v5.58h-.94V405.59h.94V410H234Z"/>
  <path class="cls-3" d="M244.23,414.08v.8H235v-.8Zm-1.07-2.54h-7v-5h6.92v.8h-6v3.36h6.1Z"/>
  <path class="cls-3" d="M253.46,411.42a4.41,4.41,0,0,1-1.5-1,4.18,4.18,0,0,1-1-1.48,4.6,4.6,0,0,1-1,1.62,4.26,4.26,0,0,1-1.56,1.05l-.47-.8a3.58,3.58,0,0,0,1.05-.58,4,4,0,0,0,.8-.84,3.91,3.91,0,0,0,.68-2.19v-1.11h.93v1.18a3.2,3.2,0,0,0,.19,1.06,3.75,3.75,0,0,0,.5.95,3.44,3.44,0,0,0,.79.78,3.81,3.81,0,0,0,1,.55Zm-4.18,1.22h6.66v3.71H255v-2.92h-5.72Zm8.17-3.41h-1.51v2.87H255v-6.5h.94v2.83h1.51Z"/>
  <path class="cls-3" d="M261.49,408.61a7.12,7.12,0,0,0,.14,1.39,5.91,5.91,0,0,0,.42,1.29,4.9,4.9,0,0,0,.67,1.1,3.39,3.39,0,0,0,.94.8l-.56.72a4,4,0,0,1-1.28-1.29,6.69,6.69,0,0,1-.78-1.85,6.87,6.87,0,0,1-.8,2,4.32,4.32,0,0,1-1.31,1.4l-.57-.74a3.86,3.86,0,0,0,1-.85,5.39,5.39,0,0,0,.69-1.16,6.54,6.54,0,0,0,.43-1.36,7.09,7.09,0,0,0,.15-1.46v-1h-1.94v-.81h4.66v.81h-1.82Zm2.73-2.8h.89v10h-.89v-5.53h-1.68v-.8h1.68Zm3-.25v10.76h-.9V405.56Z"/>
  <path class="cls-3" d="M280.81,414.15V415h-9.29v-.81h2.28v-2.91a2.57,2.57,0,0,1-1-.92,2.37,2.37,0,0,1-.36-1.3,2.26,2.26,0,0,1,.28-1.13,2.47,2.47,0,0,1,.76-.88,3.89,3.89,0,0,1,1.18-.55,5.73,5.73,0,0,1,3,0,3.72,3.72,0,0,1,1.17.55,2.49,2.49,0,0,1,.77.88,2.55,2.55,0,0,1-.08,2.43,2.57,2.57,0,0,1-1,.91v2.92ZM276.15,407a4.14,4.14,0,0,0-1.14.14,2.91,2.91,0,0,0-.89.4,1.94,1.94,0,0,0-.58.63,1.71,1.71,0,0,0,0,1.64,2,2,0,0,0,.58.62,2.91,2.91,0,0,0,.89.4,4.14,4.14,0,0,0,1.14.15,4,4,0,0,0,1.13-.15,2.86,2.86,0,0,0,.9-.4,1.9,1.9,0,0,0,.58-.62,1.64,1.64,0,0,0,0-1.64,1.83,1.83,0,0,0-.58-.63,2.86,2.86,0,0,0-.9-.4A4,4,0,0,0,276.15,407Zm-1.42,7.12h2.85v-2.54a6.06,6.06,0,0,1-2.85,0Z"/>
  <path class="cls-3" d="M287.64,411.65a4.59,4.59,0,0,1-1.56-.87,3.94,3.94,0,0,1-1-1.37,4.2,4.2,0,0,1-1,1.55,4.14,4.14,0,0,1-1.57,1l-.46-.75a4.59,4.59,0,0,0,1-.54,3.91,3.91,0,0,0,.8-.77,3.22,3.22,0,0,0,.52-.94,3.15,3.15,0,0,0,.18-1.06v-.2H282.3v-.79h2.27v-1.34h.94v1.34h2.25v.79h-2.25v.2a2.52,2.52,0,0,0,.19,1,2.86,2.86,0,0,0,.53.86,3.38,3.38,0,0,0,.8.7,4.14,4.14,0,0,0,1,.49Zm-.59.73a6.9,6.9,0,0,1,1.43.13,3.8,3.8,0,0,1,1.08.38,1.92,1.92,0,0,1,.67.62,1.57,1.57,0,0,1,0,1.67,1.85,1.85,0,0,1-.67.63,3.8,3.8,0,0,1-1.08.38,6.9,6.9,0,0,1-1.43.13,6.77,6.77,0,0,1-1.41-.13,3.73,3.73,0,0,1-1.07-.38,1.89,1.89,0,0,1-.68-.63,1.63,1.63,0,0,1,0-1.67,2,2,0,0,1,.68-.62,3.73,3.73,0,0,1,1.07-.38A6.77,6.77,0,0,1,287.05,412.38Zm0,3.18a4.32,4.32,0,0,0,1.83-.32.93.93,0,0,0,0-1.78,4.32,4.32,0,0,0-1.83-.32,4.19,4.19,0,0,0-1.81.32.93.93,0,0,0,0,1.78A4.19,4.19,0,0,0,287.06,415.56Zm2.44-6.92v-3.05h.93v6.51h-.93v-2.65h-2v-.81Z"/>
  <path class="cls-3" d="M229.74,467.1a11.48,11.48,0,0,1-.22,2.29,7.57,7.57,0,0,1-.74,2.11,7.71,7.71,0,0,1-1.43,1.9,10.12,10.12,0,0,1-2.27,1.6l-.52-.76a9,9,0,0,0,2.3-1.65,6.79,6.79,0,0,0,1.35-2l-3.44.35-.16-.87,3.89-.27a8.29,8.29,0,0,0,.3-1.89h-3.68v-.81Zm4.24,4.07h-1.64v5.58h-.94V466h.94v4.37H234Z"/>
  <path class="cls-3" d="M244.23,474.5v.8H235v-.8ZM243.16,472h-7v-5h6.92v.81h-6v3.36h6.1Z"/>
  <path class="cls-3" d="M257.26,471.12v.81H248v-.81Zm-4.65,1.73a7.24,7.24,0,0,1,1.47.13,3.58,3.58,0,0,1,1.09.38,1.83,1.83,0,0,1,.7.61,1.54,1.54,0,0,1,0,1.65,1.94,1.94,0,0,1-.7.62,3.87,3.87,0,0,1-1.09.37,8.32,8.32,0,0,1-2.93,0,3.94,3.94,0,0,1-1.1-.37,2,2,0,0,1-.69-.62,1.54,1.54,0,0,1,0-1.65,1.88,1.88,0,0,1,.69-.61,3.65,3.65,0,0,1,1.1-.38A7.2,7.2,0,0,1,252.61,472.85Zm3.55-2.77h-7v-3.66h6.94v.79h-6v2.08h6.07ZM252.61,476a4.78,4.78,0,0,0,1.89-.3.91.91,0,0,0,0-1.75,6.07,6.07,0,0,0-3.77,0,.9.9,0,0,0,0,1.75A4.76,4.76,0,0,0,252.61,476Z"/>
  <path class="cls-3" d="M267.75,471.9v.81h-9.27v-.81h4.17v-1.12h-3v-2.63h6V467h-6v-.77h6.92v2.62h-6V470h6.18v.77h-3.19v1.12Zm-8.23,1.64h7.11v3.12h-.94v-2.32h-6.17Z"/>
  <path class="cls-3" d="M278,472.19c-.53.11-1.08.19-1.64.25s-1.11.1-1.66.13-1.07.05-1.59.05l-1.42,0-.12-.81h1.27l1.39,0V470.7a2.49,2.49,0,0,1-1.5-.67,1.93,1.93,0,0,1-.57-1.43,2,2,0,0,1,.18-.85,2.16,2.16,0,0,1,.52-.68,2.56,2.56,0,0,1,.8-.43,3.51,3.51,0,0,1,2,0,2.4,2.4,0,0,1,.79.43,2,2,0,0,1,.52.68,1.86,1.86,0,0,1,.19.85,1.92,1.92,0,0,1-.56,1.42,2.46,2.46,0,0,1-1.47.67v1.06l1.41-.11c.47,0,.92-.1,1.36-.17Zm-5-3.59a1.23,1.23,0,0,0,.45,1,1.85,1.85,0,0,0,1.2.37,1.81,1.81,0,0,0,1.18-.37,1.21,1.21,0,0,0,.46-1,1.23,1.23,0,0,0-.46-1,1.81,1.81,0,0,0-1.18-.37,1.85,1.85,0,0,0-1.2.37A1.25,1.25,0,0,0,273,468.6Zm.93,7.1h5.9v.8H273v-3h.92Zm7-6.05v.8h-1.51v3.78h-.93V466h.93v3.64Z"/>
  <path class="cls-3" d="M291.3,474.62v.8H282v-.8h2.6v-2h-1.44v-3.33h6.06v-1.67h-6.08v-.8h7V470h-6.07v1.73h6.3v.81h-1.6v2Zm-5.77,0h2.34v-2h-2.34Z"/>
  <line class="cls-2" x1="352.01" y1="456.92" x2="171.98" y2="456.92"/>
  <line class="cls-2" x1="352.01" y1="396.91" x2="171.98" y2="396.91"/>
  <polygon class="cls-4" points="175.76 449.35 175.76 463.75 163.76 456.55 175.76 449.35"/>
  <path class="cls-2" d="M529.1,397.34a30,30,0,0,1,0,60"/>
  <polygon class="cls-4" points="524.47 404.48 524.47 390.08 536.47 397.28 524.47 404.48"/>
  <polygon class="cls-4" points="536.47 449.73 536.47 464.13 524.47 456.93 536.47 449.73"/>
  <polygon class="cls-4" points="163.9 129.23 163.9 114.83 175.9 122.03 163.9 129.23"/>
  <line class="cls-2" x1="532.72" y1="182.04" x2="352.69" y2="182.04"/>
  <line class="cls-2" x1="532.72" y1="122.03" x2="352.69" y2="122.03"/>
  <path class="cls-3" d="M411.37,195.64h-4.79v-4.72h.92v1.56h2.94v-1.56h.93Zm-.93-2.4H407.5v1.61h2.94Zm4.33,7.13v.77h-6.94V198.5h5.68v-1.06h-5.7v-.76h6.62v2.54h-5.67v1.15Zm-.35-4.25h-.93v-5.61h.93Z"/>
  <path class="cls-3" d="M422,191.61a12.26,12.26,0,0,1-.22,2.29A7.82,7.82,0,0,1,421,196a7.7,7.7,0,0,1-1.45,1.89,10,10,0,0,1-2.29,1.6l-.51-.78a8.65,8.65,0,0,0,2.32-1.63,6.84,6.84,0,0,0,1.37-2l-3.49.35-.16-.86,3.94-.28a5.9,5.9,0,0,0,.23-.92c0-.31.08-.63.1-1h-3.75v-.81Zm2.95-1.11v10.76H424V190.5Z"/>
  <path class="cls-3" d="M427.91,199.26a12,12,0,0,1,0-6.52,12.26,12.26,0,0,1,1.23-2.83l.65.31a10.43,10.43,0,0,0-1.11,2.77,13.08,13.08,0,0,0,0,6,10.11,10.11,0,0,0,1.11,2.76l-.65.33A12.45,12.45,0,0,1,427.91,199.26Z"/>
  <path class="cls-3" d="M434,200.53a2.05,2.05,0,0,1-.9-.22,3.5,3.5,0,0,1-.87-.62h0l-.09.68h-.84v-9.55h1v2.62l0,1.17a4.93,4.93,0,0,1,.92-.65,2.13,2.13,0,0,1,1-.27,2.27,2.27,0,0,1,1.06.24,2.18,2.18,0,0,1,.78.67,3.2,3.2,0,0,1,.47,1,5.23,5.23,0,0,1,.16,1.36,4.64,4.64,0,0,1-.22,1.5,3.65,3.65,0,0,1-.59,1.11,2.52,2.52,0,0,1-.86.68A2.25,2.25,0,0,1,434,200.53Zm-.17-.93a1.43,1.43,0,0,0,.71-.17,1.72,1.72,0,0,0,.57-.51,2.53,2.53,0,0,0,.37-.81,4.46,4.46,0,0,0,.13-1.09,4.88,4.88,0,0,0-.09-1,2.51,2.51,0,0,0-.29-.76,1.38,1.38,0,0,0-.5-.49,1.49,1.49,0,0,0-.75-.18,1.66,1.66,0,0,0-.81.23,4,4,0,0,0-.86.67v3.41a2.59,2.59,0,0,0,.81.54A2.28,2.28,0,0,0,433.87,199.6Z"/>
  <path class="cls-3" d="M438.88,192.51a.69.69,0,0,1-.51-.2.66.66,0,0,1-.2-.51.66.66,0,0,1,.2-.52.76.76,0,0,1,.51-.18.77.77,0,0,1,.52.18.7.7,0,0,1,.2.52.69.69,0,0,1-.72.71Zm-.52,1.35h1v6.51h-1Z"/>
  <path class="cls-3" d="M443.6,200.53a2.41,2.41,0,0,1-1.05-.23,2.12,2.12,0,0,1-.8-.66,3,3,0,0,1-.52-1.07,5.33,5.33,0,0,1-.18-1.45,4.29,4.29,0,0,1,.22-1.43,3.72,3.72,0,0,1,.59-1.08,2.64,2.64,0,0,1,.85-.68,2.25,2.25,0,0,1,1-.24,2.1,2.1,0,0,1,.94.2,4.26,4.26,0,0,1,.8.57l-.05-1.13v-2.51h1v9.55h-.84l-.1-.77h0a3.41,3.41,0,0,1-.84.66A2.07,2.07,0,0,1,443.6,200.53Zm.23-.93a1.6,1.6,0,0,0,.82-.22,3,3,0,0,0,.77-.67V195.3a2.7,2.7,0,0,0-.76-.53,1.78,1.78,0,0,0-.75-.16,1.43,1.43,0,0,0-.7.18,1.72,1.72,0,0,0-.57.51,2.52,2.52,0,0,0-.38.79,3.62,3.62,0,0,0-.14,1,3.26,3.26,0,0,0,.45,1.85A1.41,1.41,0,0,0,443.83,199.6Z"/>
  <path class="cls-3" d="M448,201.69a10.08,10.08,0,0,0,1.1-2.76,12.76,12.76,0,0,0,0-6,10.34,10.34,0,0,0-1.1-2.76l.64-.31a12.77,12.77,0,0,1,1.25,2.83,12.26,12.26,0,0,1,0,6.51,12.84,12.84,0,0,1-1.25,2.84Z"/>
  <path class="cls-3" d="M463.76,195.73v.79h-9.24v-.79Zm-4.62-5a7.58,7.58,0,0,1,1.5.14,4,4,0,0,1,1.12.4,2,2,0,0,1,.72.65,1.54,1.54,0,0,1,.25.86,1.5,1.5,0,0,1-.25.86,2,2,0,0,1-.72.64,4,4,0,0,1-1.12.41,8.66,8.66,0,0,1-3,0,4,4,0,0,1-1.13-.41,2,2,0,0,1-.72-.64,1.5,1.5,0,0,1-.25-.86,1.54,1.54,0,0,1,.25-.86,2.07,2.07,0,0,1,.72-.65,4,4,0,0,1,1.13-.4A7.55,7.55,0,0,1,459.14,190.77Zm0,6.64a5.46,5.46,0,0,1,2.56.5,1.56,1.56,0,0,1,0,2.85,5.46,5.46,0,0,1-2.56.5,7.2,7.2,0,0,1-1.46-.13,3.49,3.49,0,0,1-1.09-.37,1.83,1.83,0,0,1-.7-.61,1.52,1.52,0,0,1,0-1.64,1.81,1.81,0,0,1,.7-.6,3.49,3.49,0,0,1,1.09-.37A7.2,7.2,0,0,1,459.14,197.41Zm0-5.87a4.4,4.4,0,0,0-1.92.34,1,1,0,0,0,0,1.88,5.59,5.59,0,0,0,3.84,0,1,1,0,0,0,0-1.88A4.43,4.43,0,0,0,459.15,191.54Zm0,6.64a4.72,4.72,0,0,0-1.88.3,1,1,0,0,0-.67.86.93.93,0,0,0,.67.85,4.72,4.72,0,0,0,1.88.3,4.67,4.67,0,0,0,1.87-.3c.45-.2.68-.48.68-.85s-.23-.65-.68-.86A4.67,4.67,0,0,0,459.15,198.18Z"/>
  <path class="cls-3" d="M471,195.49a9.75,9.75,0,0,1-1,.19c-.34,0-.69.09-1.07.12l-1.2.06h-2.25V191.2H470v.8h-3.57v3.07l1.37,0,1.15-.05c.35,0,.69-.06,1-.11s.66-.11,1-.18Zm1,1.33H473v4.26h-6.44v-4.26h.92v1.34H472Zm0,2.11h-4.59v1.35H472Zm2.44-5.1H473v2.4H472V190.5H473V193h1.51Z"/>
  <path class="cls-3" d="M423.84,135.94h-4.78v-4.73H420v1.56h2.94v-1.56h.92Zm-.92-2.4H420v1.61h2.94Zm4.33,7.13v.77h-6.94V138.8H426v-1.06h-5.7V137h6.62v2.55h-5.68v1.15Zm-.35-4.25H426v-5.61h.94Z"/>
  <path class="cls-3" d="M434.44,131.91a11.55,11.55,0,0,1-.22,2.29,7.52,7.52,0,0,1-2.21,4,9.83,9.83,0,0,1-2.3,1.61l-.5-.78a8.76,8.76,0,0,0,2.32-1.64,6.63,6.63,0,0,0,1.36-2l-3.48.35-.16-.87,3.94-.27a6.14,6.14,0,0,0,.22-.92,9.57,9.57,0,0,0,.11-1h-3.75v-.8Zm3-1.12v10.77h-.94V130.79Z"/>
  <path class="cls-3" d="M447.21,135.94h-4.74v-4.71h.92v1.54h2.9v-1.54h.92Zm-.92-2.4h-2.9v1.61h2.9Zm-1.85,7.12h5.93v.77h-6.85v-2.68h5.54v-1.1h-5.58v-.77H450v2.6h-5.54Zm7.06-7.54v.81H450v2.43h-.93v-5.54H450v2.3Z"/>
  <path class="cls-3" d="M461.82,135.19v.8h-9.3v-.8h6.89a11,11,0,0,0,.25-1.74c0-.5,0-.95,0-1.36h-6v-.8h6.91v.78c0,.41,0,.87,0,1.36a12.18,12.18,0,0,1-.23,1.76ZM459.68,137h.93v4.45h-6.88V137h.93v1.42h5Zm0,2.19h-5v1.47h5Z"/>
  <path class="cls-3" d="M428,92.59h2a4.45,4.45,0,0,1,1.07.11,2,2,0,0,1,.82.36,1.71,1.71,0,0,1,.54.67,2.49,2.49,0,0,1,.19,1,2.46,2.46,0,0,1-.19,1,1.87,1.87,0,0,1-.53.71,2.38,2.38,0,0,1-.81.41,3.79,3.79,0,0,1-1,.14h-1.16v2.91H428Zm1.92,3.68a2.06,2.06,0,0,0,1.36-.37,1.41,1.41,0,0,0,.44-1.16,1.21,1.21,0,0,0-.46-1.1,2.43,2.43,0,0,0-1.38-.31h-1v2.94Z"/>
  <path class="cls-3" d="M436.53,100.05a2.65,2.65,0,0,1-1.2-.27,2.55,2.55,0,0,1-.94-.76,3.59,3.59,0,0,1-.62-1.2,5.67,5.67,0,0,1-.21-1.59,5.45,5.45,0,0,1,.21-1.58,3.44,3.44,0,0,1,.62-1.19,2.53,2.53,0,0,1,.94-.75,2.9,2.9,0,0,1,2.4,0,2.61,2.61,0,0,1,.94.75,3.43,3.43,0,0,1,.61,1.19,5.11,5.11,0,0,1,.22,1.58,5.32,5.32,0,0,1-.22,1.59,3.57,3.57,0,0,1-.61,1.2,2.68,2.68,0,0,1-2.14,1Zm0-.81a1.66,1.66,0,0,0,.85-.22,1.86,1.86,0,0,0,.65-.6,2.85,2.85,0,0,0,.42-1,4.73,4.73,0,0,0,.15-1.24,4.68,4.68,0,0,0-.15-1.24,2.8,2.8,0,0,0-.42-.94,1.92,1.92,0,0,0-.65-.59,1.93,1.93,0,0,0-1.71,0,2,2,0,0,0-.65.59,3,3,0,0,0-.42.94,5.16,5.16,0,0,0-.14,1.24,5.22,5.22,0,0,0,.14,1.24,3.07,3.07,0,0,0,.42,1,2,2,0,0,0,.65.6A1.67,1.67,0,0,0,436.53,99.24Z"/>
  <path class="cls-3" d="M442.94,100.05a3.22,3.22,0,0,1-1.36-.29,3.31,3.31,0,0,1-1.08-.8l.52-.63a2.76,2.76,0,0,0,.89.66,2.25,2.25,0,0,0,1,.25,1.59,1.59,0,0,0,1.07-.33,1.08,1.08,0,0,0,.39-.87,1.14,1.14,0,0,0-.09-.48,1.16,1.16,0,0,0-.24-.34,2,2,0,0,0-.37-.25c-.14-.08-.29-.15-.46-.23l-1-.46a4.08,4.08,0,0,1-.5-.27,2.27,2.27,0,0,1-.45-.38,1.79,1.79,0,0,1-.34-.53,1.71,1.71,0,0,1-.13-.7,1.91,1.91,0,0,1,.62-1.4,2.12,2.12,0,0,1,.7-.41,2.75,2.75,0,0,1,.88-.14,2.61,2.61,0,0,1,1.15.25,2.69,2.69,0,0,1,.9.66l-.47.59a2.72,2.72,0,0,0-.71-.51,2.05,2.05,0,0,0-.87-.18,1.4,1.4,0,0,0-.95.29,1.08,1.08,0,0,0-.25,1.25,1.4,1.4,0,0,0,.27.33,1.69,1.69,0,0,0,.37.24l.4.19,1,.45a3.91,3.91,0,0,1,.57.31,1.9,1.9,0,0,1,.45.4,1.85,1.85,0,0,1,.31.53,2.22,2.22,0,0,1,.11.72,2,2,0,0,1-.17.81,2,2,0,0,1-.47.66,2.14,2.14,0,0,1-.75.45A3,3,0,0,1,442.94,100.05Z"/>
  <path class="cls-3" d="M447.92,93.37h-2.11v-.78h5.1v.78H448.8v6.55h-.88Z"/>
  <path class="cls-3" d="M398.47,103.49h.63l-2.85,9.72h-.63Z"/>
  <path class="cls-3" d="M399.36,106.49h.9l1,3.09c.08.26.17.53.25.81s.15.53.24.79h0c.07-.26.15-.52.23-.79s.16-.55.24-.81l1-3.09h.85l-1.83,5.43h-1Z"/>
  <path class="cls-3" d="M409.18,111.18v.74h-3.76v-.74H407V105.9a1.93,1.93,0,0,1,0-.25l-1.26,1.19-.47-.59,1.87-1.7h.7v6.63Z"/>
  <path class="cls-3" d="M412.8,103.49h.63l-2.84,9.72H410Z"/>
  <path class="cls-3" d="M415.8,112.05a2.58,2.58,0,0,1-1.06-.22,3.26,3.26,0,0,1-.87-.53l.43-.6a3,3,0,0,0,.69.46,1.87,1.87,0,0,0,.83.18,1.08,1.08,0,0,0,.77-.25.82.82,0,0,0,.25-.6.61.61,0,0,0-.1-.36,1.15,1.15,0,0,0-.27-.27,3.44,3.44,0,0,0-.38-.22l-.43-.18-.54-.23a2.37,2.37,0,0,1-.5-.32,1.36,1.36,0,0,1-.36-.43,1.2,1.2,0,0,1-.14-.59,1.46,1.46,0,0,1,.12-.6,1.42,1.42,0,0,1,.35-.49,1.63,1.63,0,0,1,.56-.33,2.34,2.34,0,0,1,1.64.06,2.67,2.67,0,0,1,.72.42l-.42.59a3.43,3.43,0,0,0-.56-.35,1.42,1.42,0,0,0-.63-.13.94.94,0,0,0-.71.23.76.76,0,0,0-.23.55.57.57,0,0,0,.1.34.82.82,0,0,0,.25.24,2.55,2.55,0,0,0,.37.19l.42.17.57.24a2.37,2.37,0,0,1,.5.32,1.39,1.39,0,0,1,.36.44,1.3,1.3,0,0,1,.15.65,1.51,1.51,0,0,1-.13.63,1.32,1.32,0,0,1-.36.51,1.71,1.71,0,0,1-.59.35A2.44,2.44,0,0,1,415.8,112.05Z"/>
  <path class="cls-3" d="M420.39,112.05a1.35,1.35,0,0,1-1.19-.54,2.77,2.77,0,0,1-.37-1.58v-3.44h.86v3.33a2.09,2.09,0,0,0,.23,1.11.84.84,0,0,0,.74.34,1.17,1.17,0,0,0,.71-.22,3.26,3.26,0,0,0,.69-.7v-3.86h.86v5.43h-.72l-.07-.85h0a3.4,3.4,0,0,1-.77.71A1.65,1.65,0,0,1,420.39,112.05Z"/>
  <path class="cls-3" d="M426.93,112.05a1.79,1.79,0,0,1-.75-.18,3.12,3.12,0,0,1-.72-.52h0l-.08.57h-.69v-8h.86v2.18l0,1a3.49,3.49,0,0,1,.77-.55,1.73,1.73,0,0,1,.84-.22,1.83,1.83,0,0,1,.89.2,1.72,1.72,0,0,1,.64.56,2.49,2.49,0,0,1,.4.87,4.39,4.39,0,0,1,.13,1.13,4.06,4.06,0,0,1-.18,1.25,3,3,0,0,1-.5.92,2,2,0,0,1-.71.57A1.93,1.93,0,0,1,426.93,112.05Zm-.14-.77a1.2,1.2,0,0,0,.59-.15,1.37,1.37,0,0,0,.47-.43,2,2,0,0,0,.31-.67,3.54,3.54,0,0,0,.11-.91,4,4,0,0,0-.08-.81,2.19,2.19,0,0,0-.23-.64,1.27,1.27,0,0,0-.42-.41,1.33,1.33,0,0,0-.63-.14,1.31,1.31,0,0,0-.67.19,3.07,3.07,0,0,0-.72.56v2.84a2.12,2.12,0,0,0,.68.44A1.58,1.58,0,0,0,426.79,111.28Z"/>
  <path class="cls-3" d="M431.88,112.05a2.58,2.58,0,0,1-1.06-.22,3.43,3.43,0,0,1-.87-.53l.43-.6a2.82,2.82,0,0,0,.7.46,1.84,1.84,0,0,0,.83.18,1.07,1.07,0,0,0,.76-.25.82.82,0,0,0,.25-.6.61.61,0,0,0-.1-.36,1.15,1.15,0,0,0-.27-.27,2.71,2.71,0,0,0-.38-.22l-.42-.18-.55-.23a2.07,2.07,0,0,1-.49-.32,1.36,1.36,0,0,1-.36-.43,1.1,1.1,0,0,1-.14-.59,1.46,1.46,0,0,1,.12-.6,1.39,1.39,0,0,1,.34-.49,1.63,1.63,0,0,1,.56-.33,2.27,2.27,0,0,1,.75-.12,2.23,2.23,0,0,1,.9.18,2.61,2.61,0,0,1,.71.42l-.42.59a3.36,3.36,0,0,0-.55-.35,1.47,1.47,0,0,0-.64-.13.94.94,0,0,0-.71.23.76.76,0,0,0-.23.55.57.57,0,0,0,.1.34,1,1,0,0,0,.25.24,2.55,2.55,0,0,0,.37.19l.42.17.57.24a2.14,2.14,0,0,1,.5.32,1.58,1.58,0,0,1,.37.44,1.42,1.42,0,0,1,.14.65,1.68,1.68,0,0,1-.12.63,1.57,1.57,0,0,1-.36.51,1.81,1.81,0,0,1-.59.35A2.55,2.55,0,0,1,431.88,112.05Z"/>
  <path class="cls-3" d="M437,112.05a2.57,2.57,0,0,1-1-.19,2.21,2.21,0,0,1-.77-.56,2.84,2.84,0,0,1-.51-.89,3.69,3.69,0,0,1-.18-1.2,3.23,3.23,0,0,1,.2-1.21,2.68,2.68,0,0,1,.55-.9,2.08,2.08,0,0,1,.79-.56,2.37,2.37,0,0,1,.95-.19,1.8,1.8,0,0,1,.87.19,3,3,0,0,1,.64.46l-.45.61a2,2,0,0,0-.48-.36,1.13,1.13,0,0,0-.56-.13,1.37,1.37,0,0,0-.64.15,1.48,1.48,0,0,0-.51.42,2.22,2.22,0,0,0-.34.67,2.82,2.82,0,0,0-.12.85,3.24,3.24,0,0,0,.11.85,2.09,2.09,0,0,0,.33.65,1.54,1.54,0,0,0,.5.42,1.43,1.43,0,0,0,.66.15,1.34,1.34,0,0,0,.66-.16,2.34,2.34,0,0,0,.55-.38l.37.61a2.68,2.68,0,0,1-.77.52A2.25,2.25,0,0,1,437,112.05Z"/>
  <path class="cls-3" d="M439.81,106.49h.71l.08,1h0a2.64,2.64,0,0,1,.65-.83,1.27,1.27,0,0,1,.81-.3l.3,0a.77.77,0,0,1,.25.1l-.16.8a1.53,1.53,0,0,0-.24-.07,1,1,0,0,0-.26,0,1.06,1.06,0,0,0-.34.06,1.62,1.62,0,0,0-.35.21,2.24,2.24,0,0,0-.33.39,2.32,2.32,0,0,0-.28.59v3.49h-.87Z"/>
  <path class="cls-3" d="M443.94,105.37a.58.58,0,0,1-.43-.17.54.54,0,0,1-.17-.42.55.55,0,0,1,.17-.44.61.61,0,0,1,.43-.15.6.6,0,0,1,.42.15.55.55,0,0,1,.17.44.54.54,0,0,1-.17.42A.57.57,0,0,1,443.94,105.37Zm-.44,1.12h.86v5.43h-.86Z"/>
  <path class="cls-3" d="M448.38,112.05a1.71,1.71,0,0,1-.74-.18,3,3,0,0,1-.73-.52h0l-.08.57h-.69v-8H447v2.18l0,1a3.49,3.49,0,0,1,.77-.55,1.73,1.73,0,0,1,.84-.22,1.82,1.82,0,0,1,1.54.76,2.68,2.68,0,0,1,.39.87,4.39,4.39,0,0,1,.13,1.13,4.06,4.06,0,0,1-.18,1.25,3,3,0,0,1-.5.92,2,2,0,0,1-.71.57A1.93,1.93,0,0,1,448.38,112.05Zm-.14-.77a1.2,1.2,0,0,0,.59-.15,1.37,1.37,0,0,0,.47-.43,1.81,1.81,0,0,0,.31-.67,3.54,3.54,0,0,0,.11-.91,4,4,0,0,0-.08-.81,2.19,2.19,0,0,0-.23-.64,1.27,1.27,0,0,0-.42-.41,1.37,1.37,0,0,0-1.3,0,3.07,3.07,0,0,0-.72.56v2.84a2.12,2.12,0,0,0,.68.44A1.58,1.58,0,0,0,448.24,111.28Z"/>
  <path class="cls-3" d="M454.06,112.05a2.57,2.57,0,0,1-1-.19,2.28,2.28,0,0,1-.79-.56,2.68,2.68,0,0,1-.52-.89,3.51,3.51,0,0,1-.2-1.2,3.41,3.41,0,0,1,.2-1.19,2.63,2.63,0,0,1,.52-.9,2.14,2.14,0,0,1,.74-.57,2,2,0,0,1,.87-.2,2,2,0,0,1,.88.18,1.77,1.77,0,0,1,.64.51,2.28,2.28,0,0,1,.4.81,3.42,3.42,0,0,1,.14,1.05,2.53,2.53,0,0,1,0,.28,1.57,1.57,0,0,1,0,.24h-3.48a2.19,2.19,0,0,0,.5,1.38,1.56,1.56,0,0,0,1.21.51,1.92,1.92,0,0,0,.69-.12,2.44,2.44,0,0,0,.6-.31l.31.6a3.65,3.65,0,0,1-.76.4A2.55,2.55,0,0,1,454.06,112.05Zm1.15-3.27a2,2,0,0,0-.34-1.26,1.11,1.11,0,0,0-.94-.43,1.36,1.36,0,0,0-.53.11,1.45,1.45,0,0,0-.45.33,2,2,0,0,0-.33.53,2.24,2.24,0,0,0-.17.72Z"/>
  <path class="cls-3" d="M459.32,103.49H460l-2.84,9.72h-.64Z"/>
  <path class="cls-3" d="M461,106.49h.71l.08,1h0a2.81,2.81,0,0,1,.66-.83,1.27,1.27,0,0,1,.81-.3l.3,0a.87.87,0,0,1,.25.1l-.16.8a1.53,1.53,0,0,0-.24-.07,1.06,1.06,0,0,0-.27,0,1,1,0,0,0-.33.06,1.41,1.41,0,0,0-.35.21,2.24,2.24,0,0,0-.33.39,2.32,2.32,0,0,0-.29.59v3.49H461Z"/>
  <path class="cls-3" d="M466.73,112.05a2.57,2.57,0,0,1-1-.19,2.16,2.16,0,0,1-.78-.56,2.7,2.7,0,0,1-.53-.89,3.51,3.51,0,0,1-.2-1.2,3.41,3.41,0,0,1,.2-1.19,2.63,2.63,0,0,1,.52-.9,2.08,2.08,0,0,1,.75-.57,1.91,1.91,0,0,1,.87-.2,2,2,0,0,1,.87.18,1.8,1.8,0,0,1,.65.51,2.67,2.67,0,0,1,.4.81,3.77,3.77,0,0,1,.13,1.05,2.53,2.53,0,0,1,0,.28,1.66,1.66,0,0,1,0,.24h-3.49a2.14,2.14,0,0,0,.51,1.38,1.54,1.54,0,0,0,1.2.51,1.92,1.92,0,0,0,.69-.12,2.44,2.44,0,0,0,.6-.31l.31.6a3.42,3.42,0,0,1-.76.4A2.52,2.52,0,0,1,466.73,112.05Zm1.15-3.27a2,2,0,0,0-.33-1.26,1.13,1.13,0,0,0-.95-.43,1.4,1.4,0,0,0-.53.11,1.73,1.73,0,0,0-.45.33,2,2,0,0,0-.33.53,2.24,2.24,0,0,0-.17.72Z"/>
  <path class="cls-3" d="M471.65,114.42a3.41,3.41,0,0,1-.87-.1,1.93,1.93,0,0,1-.67-.28,1.29,1.29,0,0,1-.44-.46,1.26,1.26,0,0,1-.15-.62,1.25,1.25,0,0,1,.2-.67,2.1,2.1,0,0,1,.58-.57v0a1,1,0,0,1-.35-.35,1.1,1.1,0,0,1,.06-1.14,2.58,2.58,0,0,1,.39-.41v0a2.05,2.05,0,0,1-.46-.59,1.74,1.74,0,0,1-.21-.86,2.09,2.09,0,0,1,.15-.81,2,2,0,0,1,.43-.61,1.77,1.77,0,0,1,.61-.39,2.06,2.06,0,0,1,.74-.13,1.78,1.78,0,0,1,.41,0,1.62,1.62,0,0,1,.31.1h1.8v.71h-1.06a1.16,1.16,0,0,1,.3.48,1.61,1.61,0,0,1,.12.63,2,2,0,0,1-.15.79,1.87,1.87,0,0,1-.4.59,1.71,1.71,0,0,1-.6.38,2.2,2.2,0,0,1-.73.13,1.72,1.72,0,0,1-.77-.19,1.43,1.43,0,0,0-.23.27.62.62,0,0,0-.1.37.54.54,0,0,0,.19.42,1.13,1.13,0,0,0,.71.17h1a2.31,2.31,0,0,1,1.34.31,1.11,1.11,0,0,1,.45,1,1.48,1.48,0,0,1-.18.72,2,2,0,0,1-.52.61,2.74,2.74,0,0,1-.82.41A3.61,3.61,0,0,1,471.65,114.42Zm.13-.62a2,2,0,0,0,.67-.1,1.52,1.52,0,0,0,.51-.25.94.94,0,0,0,.33-.36.78.78,0,0,0,.12-.41.55.55,0,0,0-.27-.53,1.78,1.78,0,0,0-.78-.14h-.88l-.32,0-.34-.07a1.51,1.51,0,0,0-.41.44,1.07,1.07,0,0,0-.12.48.81.81,0,0,0,.39.7A2,2,0,0,0,471.78,113.8Zm-.13-4.22a1,1,0,0,0,.42-.09,1,1,0,0,0,.35-.26,1.38,1.38,0,0,0,.24-.41,1.44,1.44,0,0,0,.09-.53,1.34,1.34,0,0,0-.32-.94,1.08,1.08,0,0,0-1.55,0,1.3,1.3,0,0,0-.33.94,1.44,1.44,0,0,0,.09.53,1.38,1.38,0,0,0,.24.41,1,1,0,0,0,.35.26A1,1,0,0,0,471.65,109.58Z"/>
  <path class="cls-3" d="M475.7,105.37a.61.61,0,0,1-.43-.17.57.57,0,0,1-.17-.42.59.59,0,0,1,.17-.44.64.64,0,0,1,.43-.15.63.63,0,0,1,.43.15.59.59,0,0,1,.17.44.57.57,0,0,1-.17.42A.6.6,0,0,1,475.7,105.37Zm-.43,1.12h.86v5.43h-.86Z"/>
  <path class="cls-3" d="M479.23,112.05a2.58,2.58,0,0,1-1.06-.22,3.26,3.26,0,0,1-.87-.53l.43-.6a3,3,0,0,0,.69.46,1.87,1.87,0,0,0,.83.18,1.08,1.08,0,0,0,.77-.25.82.82,0,0,0,.25-.6.61.61,0,0,0-.1-.36,1.15,1.15,0,0,0-.27-.27,3.44,3.44,0,0,0-.38-.22l-.43-.18-.54-.23a2.37,2.37,0,0,1-.5-.32,1.36,1.36,0,0,1-.36-.43,1.2,1.2,0,0,1-.14-.59,1.46,1.46,0,0,1,.12-.6,1.42,1.42,0,0,1,.35-.49,1.63,1.63,0,0,1,.56-.33,2.34,2.34,0,0,1,1.64.06,2.67,2.67,0,0,1,.72.42l-.42.59a3.43,3.43,0,0,0-.56-.35,1.42,1.42,0,0,0-.63-.13.94.94,0,0,0-.71.23.76.76,0,0,0-.23.55.64.64,0,0,0,.09.34,1,1,0,0,0,.26.24,2.55,2.55,0,0,0,.37.19l.42.17.57.24a2.37,2.37,0,0,1,.5.32,1.39,1.39,0,0,1,.36.44,1.3,1.3,0,0,1,.15.65,1.51,1.51,0,0,1-.13.63,1.32,1.32,0,0,1-.36.51,1.71,1.71,0,0,1-.59.35A2.44,2.44,0,0,1,479.23,112.05Z"/>
  <path class="cls-3" d="M483.74,112.05a1.78,1.78,0,0,1-.7-.13,1.1,1.1,0,0,1-.45-.37,1.49,1.49,0,0,1-.25-.57,3.38,3.38,0,0,1-.07-.74v-3h-.77v-.69l.8-.05.11-1.52h.72v1.52h1.4v.74h-1.4v3a1.5,1.5,0,0,0,.17.78.69.69,0,0,0,.63.27,1.1,1.1,0,0,0,.29,0l.3-.09.17.68c-.15.05-.3.1-.47.14A2,2,0,0,1,483.74,112.05Z"/>
  <line class="cls-2" x1="351.86" y1="122.03" x2="171.83" y2="122.03"/>
  <polygon class="cls-4" points="344.48 129.23 344.48 114.83 356.48 122.03 344.48 129.23"/>
  <polygon class="cls-4" points="356.48 174.47 356.48 188.88 344.48 181.68 356.48 174.47"/>
  <path class="cls-3" d="M579.51,147.29v.8h-9.24v-.8Zm-.87-.85a6.39,6.39,0,0,1-1.16-.31,6.1,6.1,0,0,1-1.06-.51,5,5,0,0,1-.88-.69,3.6,3.6,0,0,1-.64-.84,3.41,3.41,0,0,1-.63.85,5.5,5.5,0,0,1-.89.68,6.1,6.1,0,0,1-1.06.51,6.86,6.86,0,0,1-1.16.31l-.35-.77a5.67,5.67,0,0,0,1.34-.37,4.87,4.87,0,0,0,1.15-.63,3.6,3.6,0,0,0,.81-.85,1.87,1.87,0,0,0,.31-1v-.48h1v.48a1.79,1.79,0,0,0,.3,1,3.64,3.64,0,0,0,.82.85,5.12,5.12,0,0,0,1.15.65,6.11,6.11,0,0,0,1.33.37Zm-3.75,2.64a5.47,5.47,0,0,1,2.56.49,1.53,1.53,0,0,1,.92,1.42,1.45,1.45,0,0,1-.24.83,1.92,1.92,0,0,1-.68.6,3.84,3.84,0,0,1-1.1.37,7.14,7.14,0,0,1-1.46.13,5.53,5.53,0,0,1-2.57-.5,1.56,1.56,0,0,1-.93-1.43,1.42,1.42,0,0,1,.23-.81,1.89,1.89,0,0,1,.7-.6,3.83,3.83,0,0,1,1.1-.38A8.09,8.09,0,0,1,574.89,149.08Zm0,3.07a4.94,4.94,0,0,0,1.88-.29.94.94,0,0,0,.67-.86.93.93,0,0,0-.67-.85,4.72,4.72,0,0,0-1.88-.3,4.83,4.83,0,0,0-1.9.3.93.93,0,0,0-.67.85.94.94,0,0,0,.67.86A5,5,0,0,0,574.89,152.15Z"/>
  <path class="cls-3" d="M586.34,145.55a2.83,2.83,0,0,1-.2,1.07,2.5,2.5,0,0,1-.57.84,2.62,2.62,0,0,1-.85.56,2.85,2.85,0,0,1-1.06.19,2.81,2.81,0,0,1-1.06-.19,2.58,2.58,0,0,1-.84-.56,2.5,2.5,0,0,1-.57-.84,3.08,3.08,0,0,1,0-2.13,2.5,2.5,0,0,1,.57-.84,2.4,2.4,0,0,1,.84-.55,2.81,2.81,0,0,1,1.06-.19,2.85,2.85,0,0,1,1.06.19,2.45,2.45,0,0,1,.85.55,2.5,2.5,0,0,1,.57.84A2.82,2.82,0,0,1,586.34,145.55Zm-4.42,0a1.93,1.93,0,0,0,.13.73,1.78,1.78,0,0,0,.36.58,1.72,1.72,0,0,0,.55.37,1.95,1.95,0,0,0,1.4,0,1.76,1.76,0,0,0,.56-.37,1.65,1.65,0,0,0,.37-.58,2.15,2.15,0,0,0,.13-.73,2.09,2.09,0,0,0-.13-.72,1.66,1.66,0,0,0-.37-.56,1.79,1.79,0,0,0-.56-.38,1.95,1.95,0,0,0-1.4,0,1.75,1.75,0,0,0-.55.38,1.8,1.8,0,0,0-.36.56A1.88,1.88,0,0,0,581.92,145.55Zm7.53,6.32v.81h-6.88v-3.46h.93v2.65Zm-.3-1.84h-.94v-7.86h.94Z"/>
  <path class="cls-3" d="M573.8,160a4.54,4.54,0,0,0,.2,1.32,5.18,5.18,0,0,0,.55,1.22,4.7,4.7,0,0,0,.83,1,3.63,3.63,0,0,0,1,.71l-.51.76a4.58,4.58,0,0,1-1.55-1.25,5.51,5.51,0,0,1-1-1.9,6.11,6.11,0,0,1-1,2,4.55,4.55,0,0,1-1.55,1.34l-.52-.75a4.7,4.7,0,0,0,1-.76,4.77,4.77,0,0,0,.82-1.06,5.07,5.07,0,0,0,.55-1.26,5.34,5.34,0,0,0,.19-1.38v-.82h-2.32v-.8h2.31v-1.66h.93v1.66h2.27v.8H573.8Zm4.89-3.49v10.8h-.93v-5.66h-2.21v-.81h2.21v-4.33Z"/>
  <path class="cls-3" d="M582.28,163.92c.42,0,.83,0,1.23,0s.81,0,1.21-.06.82-.06,1.23-.12l1.3-.18.1.8c-.47.08-.91.14-1.34.19l-1.28.12c-.41,0-.83,0-1.25.06l-1.29,0h-.84V160.6h3.76v-2.25h-3.8v-.8h4.74v3.85h-3.77Zm6.87-7.38v10.79h-.94V156.54Z"/>
  <path class="cls-2" d="M531.61,122a30,30,0,0,1,0,60"/>
  <polygon class="cls-4" points="525.52 129.23 525.52 114.83 537.52 122.03 525.52 129.23"/>
  <polygon class="cls-4" points="537.52 175.12 537.52 189.52 525.52 182.32 537.52 175.12"/>
  <rect class="cls-6" x="245.502" y="215.88" width="335.188" height="130" rx="12" style=""/>
  <line class="cls-2" x1="532.11" y1="317.37" x2="352.08" y2="317.37"/>
  <line class="cls-2" x1="532.11" y1="257.34" x2="352.08" y2="257.34"/>
  <path class="cls-2" d="M531.61,257.32a30,30,0,0,1,0,60"/>
  <path class="cls-2" d="M351.86,287.32c-16.57,0-30-6.71-30-15s13.43-15,30-15"/>
  <polygon class="cls-7" points="525.52 264.52 525.52 250.12 537.52 257.32 525.52 264.52"/>
  <polygon class="cls-7" points="537.52 310.17 537.52 324.57 525.52 317.37 537.52 310.17"/>
  <polygon class="cls-8" points="344.48 264.52 344.48 250.12 356.48 257.32 344.48 264.52"/>
  <path class="cls-3" d="M423.84,271.51h-4.78v-4.73H420v1.56h2.94v-1.56h.92Zm-.92-2.4H420v1.61h2.94Zm4.33,7.13V277h-6.94v-2.64H426v-1.06h-5.7v-.76h6.62v2.54h-5.68v1.15ZM426.9,272H426v-5.61h.94Z"/>
  <path class="cls-3" d="M434.44,267.48a11.55,11.55,0,0,1-.22,2.29,7.62,7.62,0,0,1-.76,2.11,7.8,7.8,0,0,1-1.45,1.9,10.12,10.12,0,0,1-2.3,1.6l-.5-.78a9,9,0,0,0,2.32-1.63,6.8,6.8,0,0,0,1.36-2l-3.48.35-.16-.87,3.94-.27a6.14,6.14,0,0,0,.22-.92,9.57,9.57,0,0,0,.11-1h-3.75v-.8Zm3-1.12v10.77h-.94V266.36Z"/>
  <path class="cls-3" d="M451.29,271.5v.8h-9.24v-.8Zm-.87-.85a5.84,5.84,0,0,1-1.16-.31,6.1,6.1,0,0,1-1.06-.51,5,5,0,0,1-.88-.69,3.6,3.6,0,0,1-.64-.84,3.41,3.41,0,0,1-.63.85,5.5,5.5,0,0,1-.89.68,6.1,6.1,0,0,1-1.06.51,6,6,0,0,1-1.16.31l-.34-.77a5.73,5.73,0,0,0,1.33-.37,4.87,4.87,0,0,0,1.15-.63,3.41,3.41,0,0,0,.81-.85,1.78,1.78,0,0,0,.31-1v-.48h1V267a1.72,1.72,0,0,0,.31,1,3.24,3.24,0,0,0,.81.85,5.12,5.12,0,0,0,1.15.65,6.11,6.11,0,0,0,1.33.37Zm-3.75,2.64a5.47,5.47,0,0,1,2.56.49,1.54,1.54,0,0,1,.92,1.42,1.45,1.45,0,0,1-.24.83,1.92,1.92,0,0,1-.68.6,3.84,3.84,0,0,1-1.1.37,7.14,7.14,0,0,1-1.46.13,5.53,5.53,0,0,1-2.57-.5,1.56,1.56,0,0,1-.93-1.43,1.42,1.42,0,0,1,.23-.81,1.89,1.89,0,0,1,.7-.6,3.55,3.55,0,0,1,1.1-.37A7.31,7.31,0,0,1,446.67,273.29Zm0,3.07a4.94,4.94,0,0,0,1.88-.29.88.88,0,0,0,0-1.71,4.72,4.72,0,0,0-1.88-.3,4.83,4.83,0,0,0-1.9.3.88.88,0,0,0,0,1.71A5,5,0,0,0,446.67,276.36Z"/>
  <path class="cls-3" d="M458.12,269.76a2.92,2.92,0,0,1-.2,1.08,2.56,2.56,0,0,1-.57.83,2.62,2.62,0,0,1-.85.56,2.85,2.85,0,0,1-1.06.19,2.81,2.81,0,0,1-1.06-.19,2.58,2.58,0,0,1-.84-.56,2.39,2.39,0,0,1-.56-.83,2.73,2.73,0,0,1-.2-1.08,2.63,2.63,0,0,1,.2-1.06,2.34,2.34,0,0,1,.56-.84,2.4,2.4,0,0,1,.84-.55,3,3,0,0,1,1.06-.19,3.07,3.07,0,0,1,1.06.19,2.45,2.45,0,0,1,.85.55,2.5,2.5,0,0,1,.57.84A2.82,2.82,0,0,1,458.12,269.76Zm-4.42,0a1.9,1.9,0,0,0,.13.73,1.78,1.78,0,0,0,.36.58,1.72,1.72,0,0,0,.55.37,1.95,1.95,0,0,0,1.4,0,1.76,1.76,0,0,0,.56-.37,1.65,1.65,0,0,0,.37-.58,2.09,2.09,0,0,0,0-1.45,1.66,1.66,0,0,0-.37-.56,1.79,1.79,0,0,0-.56-.38,1.95,1.95,0,0,0-1.4,0,1.75,1.75,0,0,0-.55.38,1.8,1.8,0,0,0-.36.56A1.88,1.88,0,0,0,453.7,269.76Zm7.53,6.33v.8h-6.88v-3.46h.93v2.66Zm-.3-1.85H460v-7.86h.94Z"/>
  <path class="cls-3" d="M 264.72 268.38 L 260.72 268.38 L 260.72 264.44 L 261.49 264.44 L 261.49 265.74 L 264 265.74 L 264 264.44 L 264.77 264.44 Z M 263.95 266.38 L 261.5 266.38 L 261.5 267.72 L 264 267.72 Z M 267.56 272.32 L 267.56 273 L 261.77 273 L 261.77 270.8 L 266.51 270.8 L 266.51 269.92 L 261.76 269.92 L 261.76 269.28 L 267.28 269.28 L 267.28 271.4 L 262.54 271.4 L 262.54 272.4 Z M 267.27 268.78 L 266.49 268.78 L 266.49 264.1 L 267.27 264.1 Z"/>
  <path class="cls-3" d="M 273.55 265 C 273.551 265.641 273.491 266.281 273.37 266.91 C 273.11 268.187 272.464 269.352 271.52 270.25 C 270.95 270.783 270.307 271.23 269.61 271.58 L 269.19 270.93 C 269.906 270.589 270.558 270.129 271.12 269.57 C 271.602 269.09 271.989 268.523 272.26 267.9 L 269.36 268.19 L 269.22 267.47 L 272.51 267.24 C 272.59 266.988 272.65 266.731 272.69 266.47 C 272.74 266.206 272.773 265.938 272.79 265.67 L 269.66 265.67 L 269.66 265 Z M 276.02 264.07 L 276.02 273.07 L 275.24 273.07 L 275.24 264.07 Z"/>
  <path class="cls-3" d="M 285.49 268.26 L 285.49 268.88 L 277.76 268.88 L 277.76 268.26 Z M 279.49 272.35 L 284.81 272.35 L 284.81 272.94 L 278.7 272.94 L 278.7 270.94 L 283.76 270.94 L 283.76 270.19 L 278.68 270.19 L 278.68 269.6 L 284.53 269.6 L 284.53 271.51 L 279.47 271.51 Z M 283.75 264.93 L 278.75 264.93 L 278.75 264.35 L 284.52 264.35 L 284.52 266.22 L 279.52 266.22 L 279.52 267 L 284.65 267 L 284.65 267.59 L 278.75 267.59 L 278.75 265.67 L 283.75 265.67 Z"/>
  <path class="cls-3" d="M 296.33 268.84 L 296.33 269.5 L 288.62 269.5 L 288.62 268.84 L 292.09 268.84 L 292.09 268 L 289.64 268 L 289.64 264.39 L 295.38 264.39 L 295.38 265 L 290.38 265 L 290.38 265.83 L 295.12 265.83 L 295.12 266.45 L 290.38 266.45 L 290.38 267.33 L 295.38 267.33 L 295.38 268 L 292.82 268 L 292.82 268.88 Z M 292.48 270.18 C 293.215 270.144 293.949 270.27 294.63 270.55 C 295.082 270.707 295.387 271.131 295.39 271.61 C 295.383 272.092 295.082 272.521 294.63 272.69 C 293.947 272.963 293.214 273.086 292.48 273.05 C 291.743 273.085 291.006 272.962 290.32 272.69 C 289.868 272.521 289.567 272.092 289.56 271.61 C 289.563 271.131 289.868 270.707 290.32 270.55 C 291.004 270.268 291.741 270.142 292.48 270.18 Z M 292.48 272.43 C 293.014 272.45 293.548 272.383 294.06 272.23 C 294.43 272.09 294.62 271.88 294.62 271.61 C 294.62 271.34 294.43 271.14 294.06 271 C 293.55 270.838 293.015 270.767 292.48 270.79 C 291.942 270.768 291.404 270.839 290.89 271 C 290.52 271.14 290.34 271.34 290.34 271.61 C 290.34 271.88 290.52 272.09 290.89 272.23 C 291.406 272.382 291.943 272.449 292.48 272.43 Z"/>
  <path class="cls-3" d="M 302.42 265.85 L 297.42 265.85 L 297.42 265.19 L 299.54 265.19 L 299.54 264.1 L 300.32 264.1 L 300.32 265.19 L 302.44 265.19 Z M 302 268 C 302.003 268.238 301.951 268.474 301.85 268.69 C 301.751 268.896 301.608 269.077 301.43 269.22 C 301.238 269.368 301.022 269.48 300.79 269.55 C 300.521 269.633 300.241 269.673 299.96 269.67 C 299.679 269.674 299.399 269.633 299.13 269.55 C 298.898 269.48 298.682 269.368 298.49 269.22 C 298.312 269.077 298.169 268.896 298.07 268.69 C 297.969 268.474 297.917 268.238 297.92 268 C 297.917 267.765 297.969 267.532 298.07 267.32 C 298.167 267.116 298.311 266.937 298.49 266.8 C 298.679 266.646 298.897 266.531 299.13 266.46 C 299.399 266.377 299.679 266.336 299.96 266.34 C 300.241 266.337 300.521 266.377 300.79 266.46 C 301.023 266.531 301.241 266.646 301.43 266.8 C 301.609 266.937 301.753 267.116 301.85 267.32 C 301.951 267.532 302.003 267.765 302 268 Z M 298.66 268 C 298.65 268.297 298.784 268.58 299.02 268.76 C 299.294 268.954 299.625 269.049 299.96 269.03 C 300.294 269.045 300.624 268.95 300.9 268.76 C 301.136 268.58 301.27 268.297 301.26 268 C 301.27 267.709 301.135 267.432 300.9 267.26 C 300.628 267.063 300.296 266.964 299.96 266.98 C 299.623 266.959 299.29 267.058 299.02 267.26 C 298.766 267.42 298.611 267.7 298.61 268 Z M 299.51 272.18 L 304.41 272.18 L 304.41 272.85 L 298.73 272.85 L 298.73 270.28 L 299.51 270.28 Z M 305.3 267.04 L 305.3 267.73 L 304 267.73 L 304 270.81 L 303.22 270.81 L 303.22 264.1 L 304 264.1 L 304 267.05 Z"/>
  <path class="cls-3" d="M264.85,281.18h-4v-4.44h.77v1.5h2.42v-1.5h.77Zm-.77-2.3h-2.42v1.64h2.42Zm-1.45,5.31h4.91v.67h-5.69v-2.81h.78Zm5.79-5.38v.69h-1.26v3.18h-.78V276.1h.78v2.71Z"/>
  <path class="cls-3" d="M277,280.72v.67h-7.72v-.67h3.48v-1.07H270.3V276.3h.77v1h4.14v-1H276v3.35h-2.45v1.07Zm-6.85,1.54H276v2.8h-.78v-2.14h-5.12Zm.93-3.25h4.14V278h-4.14Z"/>
  <path class="cls-3" d="M284.79,281.1a3.57,3.57,0,0,1-1.25-.8,3.72,3.72,0,0,1-.81-1.22,3.89,3.89,0,0,1-.83,1.38,3.66,3.66,0,0,1-1.31.9l-.41-.65a3.1,3.1,0,0,0,.87-.49,3.75,3.75,0,0,0,.68-.7,3.49,3.49,0,0,0,.44-.86,3,3,0,0,0,.16-.94v-.31h-1.9v-.66H285v.66H283.1v.31a2.51,2.51,0,0,0,.16.85,2.94,2.94,0,0,0,.42.78,3.33,3.33,0,0,0,.65.65,3.17,3.17,0,0,0,.85.46Zm-.44.61a6,6,0,0,1,1.18.11,2.66,2.66,0,0,1,.89.33,1.61,1.61,0,0,1,.57.52,1.44,1.44,0,0,1,0,1.43,1.61,1.61,0,0,1-.57.52,2.66,2.66,0,0,1-.89.33,6,6,0,0,1-1.18.11,6.07,6.07,0,0,1-1.18-.11,2.75,2.75,0,0,1-.89-.33,1.66,1.66,0,0,1-.56-.52,1.38,1.38,0,0,1,0-1.43,1.66,1.66,0,0,1,.56-.52,2.75,2.75,0,0,1,.89-.33A6.07,6.07,0,0,1,284.35,281.71Zm0,2.71a3.46,3.46,0,0,0,1.51-.27.8.8,0,0,0,0-1.52,3.31,3.31,0,0,0-1.51-.28,3.35,3.35,0,0,0-1.52.28.8.8,0,0,0,0,1.52A3.51,3.51,0,0,0,284.36,284.42Zm2-6V276.1h.78v5.34h-.78v-2.35H284.7v-.67Z"/>
  <path class="cls-3" d="M293.37,277.06a7.8,7.8,0,0,1-.22,1.88,6,6,0,0,1-.69,1.71,6.59,6.59,0,0,1-1.22,1.5,8.41,8.41,0,0,1-1.82,1.24l-.42-.67a6.6,6.6,0,0,0,2.6-2.13,5.85,5.85,0,0,0,1-2.87h-3.21v-.66Zm2.51-1v9h-.78v-9Z"/>
  <path class="cls-3" d="M301.76,278a3.85,3.85,0,0,1-1.35,1.78,6.5,6.5,0,0,1-2.36,1.06l-.29-.67a5.61,5.61,0,0,0,2.44-1.15,2.79,2.79,0,0,0,1-1.85h-3v-.67H302a4.12,4.12,0,0,1-.09.86h1.93v-1.3h.78v4.58h-.78v-.93h-2.22v-.64h2.22V278Zm3.18,6.29V285h-5.76v-2.3h4.69v-.92h-4.71v-.66h5.48v2.2H300v1Z"/>
  <path class="cls-3" d="M308.87,278.62a5.64,5.64,0,0,0,.12,1.16,5.44,5.44,0,0,0,.34,1.08,4.23,4.23,0,0,0,.57.91,2.78,2.78,0,0,0,.78.67l-.47.6a3.39,3.39,0,0,1-1.06-1.07,5.24,5.24,0,0,1-.65-1.55,6,6,0,0,1-.67,1.68,3.69,3.69,0,0,1-1.09,1.16l-.47-.61a3.31,3.31,0,0,0,.79-.71,4.7,4.7,0,0,0,.58-1,5.73,5.73,0,0,0,.35-1.13,5.56,5.56,0,0,0,.13-1.22v-.81H306.5v-.67h3.89v.67h-1.52Zm2.28-2.33h.74v8.3h-.74V280h-1.41v-.67h1.41Zm2.46-.21v9h-.75v-9Z"/>
  <path class="cls-3" d="M428,227.2h2a5,5,0,0,1,1.07.11,2.21,2.21,0,0,1,.82.37,1.75,1.75,0,0,1,.54.66,2.53,2.53,0,0,1,.19,1,2.4,2.4,0,0,1-.19,1,1.73,1.73,0,0,1-.53.71,2.15,2.15,0,0,1-.81.42,3.75,3.75,0,0,1-1,.13h-1.16v2.91H428Zm1.92,3.68a2.06,2.06,0,0,0,1.36-.37,1.4,1.4,0,0,0,.44-1.16,1.21,1.21,0,0,0-.46-1.1,2.43,2.43,0,0,0-1.38-.31h-1v2.94Z"/>
  <path class="cls-3" d="M436.53,234.66a2.78,2.78,0,0,1-1.2-.26,2.66,2.66,0,0,1-.94-.76,3.54,3.54,0,0,1-.62-1.21,6.09,6.09,0,0,1,0-3.17,3.63,3.63,0,0,1,.62-1.19,2.74,2.74,0,0,1,.94-.75,2.9,2.9,0,0,1,2.4,0,2.74,2.74,0,0,1,.94.75,3.62,3.62,0,0,1,.61,1.19,5.82,5.82,0,0,1,0,3.17,3.53,3.53,0,0,1-.61,1.21,2.66,2.66,0,0,1-.94.76A2.78,2.78,0,0,1,436.53,234.66Zm0-.81a1.76,1.76,0,0,0,.85-.21A2,2,0,0,0,438,233a2.8,2.8,0,0,0,.42-.94,4.81,4.81,0,0,0,.15-1.25,4.73,4.73,0,0,0-.15-1.24,2.74,2.74,0,0,0-.42-.93,1.79,1.79,0,0,0-1.5-.8,1.77,1.77,0,0,0-.86.21,1.82,1.82,0,0,0-.65.59,3,3,0,0,0-.42.93,5.22,5.22,0,0,0-.14,1.24,5.31,5.31,0,0,0,.14,1.25,3,3,0,0,0,.42.94,2.09,2.09,0,0,0,.65.61A1.77,1.77,0,0,0,436.53,233.85Z"/>
  <path class="cls-3" d="M442.94,234.66a3.07,3.07,0,0,1-1.36-.29,3.17,3.17,0,0,1-1.08-.8l.52-.63a3.07,3.07,0,0,0,.89.67,2.37,2.37,0,0,0,1,.24,1.57,1.57,0,0,0,1.07-.33,1.08,1.08,0,0,0,.39-.87,1.13,1.13,0,0,0-.09-.47,1,1,0,0,0-.24-.34,2,2,0,0,0-.37-.26l-.45-.23-1-.46a4,4,0,0,1-.5-.26,2.67,2.67,0,0,1-.45-.38,1.93,1.93,0,0,1-.34-.53,2,2,0,0,1-.13-.71,1.85,1.85,0,0,1,.17-.78,2,2,0,0,1,.45-.62,2.1,2.1,0,0,1,.7-.4,2.5,2.5,0,0,1,.88-.15,2.76,2.76,0,0,1,1.15.25,3,3,0,0,1,.9.66l-.47.59a2.47,2.47,0,0,0-.71-.5,1.92,1.92,0,0,0-.87-.19,1.46,1.46,0,0,0-.95.29,1,1,0,0,0-.35.79.92.92,0,0,0,.1.46,1.09,1.09,0,0,0,.27.33,1.18,1.18,0,0,0,.37.24l.4.19,1,.45c.2.1.39.2.57.31a2.47,2.47,0,0,1,.45.4,1.91,1.91,0,0,1,.31.54,2.16,2.16,0,0,1,.11.71,2,2,0,0,1-.17.82,2,2,0,0,1-.47.66,2,2,0,0,1-.75.44A2.76,2.76,0,0,1,442.94,234.66Z"/>
  <path class="cls-3" d="M447.92,228h-2.11v-.78h5.1V228H448.8v6.55h-.88Z"/>
  <path class="cls-3" d="M376.6,238.1h.63l-2.84,9.72h-.64Z"/>
  <path class="cls-3" d="M377.5,241.1h.9l1,3.09.24.81c.08.28.16.54.24.79h0c.08-.25.16-.51.24-.79l.24-.81,1-3.09h.85l-1.83,5.43h-1Z"/>
  <path class="cls-3" d="M387.32,245.79v.74h-3.76v-.74h1.55v-5.27a2.09,2.09,0,0,1,0-.26l-1.27,1.19-.46-.59,1.87-1.7H386v6.63Z"/>
  <path class="cls-3" d="M390.94,238.1h.63l-2.84,9.72h-.64Z"/>
  <path class="cls-3" d="M393.93,246.66a2.66,2.66,0,0,1-1.05-.21,3.35,3.35,0,0,1-.88-.54l.43-.6a3.07,3.07,0,0,0,.7.47,2,2,0,0,0,.83.17,1.05,1.05,0,0,0,.77-.25.82.82,0,0,0,.25-.6.61.61,0,0,0-.11-.36,1.15,1.15,0,0,0-.27-.27,2,2,0,0,0-.38-.21l-.42-.19a4.28,4.28,0,0,1-.55-.23,2.26,2.26,0,0,1-.49-.31,1.62,1.62,0,0,1-.36-.43,1.24,1.24,0,0,1-.14-.6,1.53,1.53,0,0,1,.12-.6,1.38,1.38,0,0,1,.35-.49,1.54,1.54,0,0,1,.56-.33,2.34,2.34,0,0,1,1.64.06,3.25,3.25,0,0,1,.71.42l-.42.59a3.28,3.28,0,0,0-.55-.34,1.46,1.46,0,0,0-.63-.14,1,1,0,0,0-.72.23.77.77,0,0,0-.22.55.59.59,0,0,0,.09.34.87.87,0,0,0,.26.24,3,3,0,0,0,.36.19l.43.18c.19.07.37.15.56.24a2.17,2.17,0,0,1,.51.31,1.59,1.59,0,0,1,.36.45,1.28,1.28,0,0,1,.14.65,1.59,1.59,0,0,1-.12.62,1.43,1.43,0,0,1-.36.52,2,2,0,0,1-.59.34A2.22,2.22,0,0,1,393.93,246.66Z"/>
  <path class="cls-3" d="M398.53,246.66a1.34,1.34,0,0,1-1.19-.54,2.75,2.75,0,0,1-.38-1.58V241.1h.87v3.34a2,2,0,0,0,.23,1.1.81.81,0,0,0,.74.34,1.26,1.26,0,0,0,.71-.21,3.11,3.11,0,0,0,.68-.71V241.1h.87v5.43h-.72l-.07-.85h0a3.38,3.38,0,0,1-.77.71A1.67,1.67,0,0,1,398.53,246.66Z"/>
  <path class="cls-3" d="M405.07,246.66a1.79,1.79,0,0,1-.75-.18,2.52,2.52,0,0,1-.73-.52h0l-.07.57h-.69v-8h.86v2.18l0,1a4.1,4.1,0,0,1,.77-.54,1.78,1.78,0,0,1,.85-.23,2,2,0,0,1,.89.2,1.91,1.91,0,0,1,.64.56,2.69,2.69,0,0,1,.4.87,4.94,4.94,0,0,1,.13,1.13,3.69,3.69,0,0,1-.19,1.25,2.92,2.92,0,0,1-.49.93,2.13,2.13,0,0,1-.71.57A2,2,0,0,1,405.07,246.66Zm-.15-.77a1.21,1.21,0,0,0,.6-.15,1.55,1.55,0,0,0,.47-.42,2.25,2.25,0,0,0,.31-.68,3.46,3.46,0,0,0,.11-.9,4.15,4.15,0,0,0-.08-.82,1.8,1.8,0,0,0-.24-.63,1,1,0,0,0-.42-.41,1.21,1.21,0,0,0-.62-.15,1.49,1.49,0,0,0-.68.19,3.33,3.33,0,0,0-.71.56v2.84a2.13,2.13,0,0,0,.67.45A1.82,1.82,0,0,0,404.92,245.89Z"/>
  <path class="cls-3" d="M410,246.66a2.75,2.75,0,0,1-1.06-.21,3.29,3.29,0,0,1-.87-.54l.43-.6a3,3,0,0,0,.69.47,2,2,0,0,0,.83.17,1,1,0,0,0,.77-.25.79.79,0,0,0,.25-.6.61.61,0,0,0-.1-.36,1.15,1.15,0,0,0-.27-.27,2.32,2.32,0,0,0-.38-.21l-.43-.19a4.16,4.16,0,0,1-.54-.23,2.33,2.33,0,0,1-.5-.31,1.62,1.62,0,0,1-.36-.43,1.24,1.24,0,0,1-.14-.6,1.45,1.45,0,0,1,.47-1.09,1.63,1.63,0,0,1,.56-.33,2.34,2.34,0,0,1,1.64.06,3.33,3.33,0,0,1,.72.42l-.42.59a3.35,3.35,0,0,0-.56-.34,1.46,1.46,0,0,0-.63-.14,1,1,0,0,0-.71.23.78.78,0,0,0-.23.55.59.59,0,0,0,.09.34,1,1,0,0,0,.26.24,2.55,2.55,0,0,0,.37.19l.42.18.57.24a2.33,2.33,0,0,1,.5.31,1.43,1.43,0,0,1,.36.45,1.28,1.28,0,0,1,.15.65,1.6,1.6,0,0,1-.13.62,1.43,1.43,0,0,1-.36.52,1.87,1.87,0,0,1-.59.34A2.2,2.2,0,0,1,410,246.66Z"/>
  <path class="cls-3" d="M415.15,246.66a2.32,2.32,0,0,1-1-.19,2.18,2.18,0,0,1-.77-.55,2.59,2.59,0,0,1-.51-.89,3.45,3.45,0,0,1-.19-1.21,3.3,3.3,0,0,1,.21-1.21,2.88,2.88,0,0,1,.54-.9,2.46,2.46,0,0,1,.8-.56,2.5,2.5,0,0,1,.94-.19,2,2,0,0,1,.88.19,2.69,2.69,0,0,1,.63.46l-.44.61a2.55,2.55,0,0,0-.48-.35,1.13,1.13,0,0,0-.56-.14,1.39,1.39,0,0,0-1.15.58,2,2,0,0,0-.34.66,2.86,2.86,0,0,0-.12.85,2.82,2.82,0,0,0,.11.85,1.73,1.73,0,0,0,.33.65,1.54,1.54,0,0,0,.5.42,1.38,1.38,0,0,0,.65.15,1.53,1.53,0,0,0,.67-.15,2.62,2.62,0,0,0,.55-.39l.37.61a2.44,2.44,0,0,1-.77.52A2.28,2.28,0,0,1,415.15,246.66Z"/>
  <path class="cls-3" d="M418,241.1h.71l.08,1h0a2.59,2.59,0,0,1,.65-.82,1.23,1.23,0,0,1,.81-.31,1.39,1.39,0,0,1,.3,0,.84.84,0,0,1,.25.09l-.16.8-.24-.07-.27,0a.82.82,0,0,0-.33.07,1,1,0,0,0-.35.21,1.84,1.84,0,0,0-.33.38,2.5,2.5,0,0,0-.29.59v3.49H418Z"/>
  <path class="cls-3" d="M422.07,240a.6.6,0,0,1-.43-.16.58.58,0,0,1-.17-.43.56.56,0,0,1,.17-.43.66.66,0,0,1,.86,0,.56.56,0,0,1,.17.43.58.58,0,0,1-.17.43A.6.6,0,0,1,422.07,240Zm-.44,1.12h.87v5.43h-.87Z"/>
  <path class="cls-3" d="M426.52,246.66a1.79,1.79,0,0,1-.75-.18A2.52,2.52,0,0,1,425,246h0l-.08.57h-.69v-8h.86v2.18l0,1a4.1,4.1,0,0,1,.77-.54,1.78,1.78,0,0,1,.85-.23,2,2,0,0,1,.89.2,1.91,1.91,0,0,1,.64.56,2.49,2.49,0,0,1,.4.87,4.94,4.94,0,0,1,.13,1.13,3.69,3.69,0,0,1-.19,1.25,2.74,2.74,0,0,1-.49.93,2.13,2.13,0,0,1-.71.57A2,2,0,0,1,426.52,246.66Zm-.15-.77a1.21,1.21,0,0,0,.6-.15,1.44,1.44,0,0,0,.47-.42,2.25,2.25,0,0,0,.31-.68,3.46,3.46,0,0,0,.11-.9,4.15,4.15,0,0,0-.08-.82,1.8,1.8,0,0,0-.24-.63,1,1,0,0,0-.42-.41,1.21,1.21,0,0,0-.62-.15,1.49,1.49,0,0,0-.68.19,3.59,3.59,0,0,0-.71.56v2.84a2.06,2.06,0,0,0,.68.45A1.72,1.72,0,0,0,426.37,245.89Z"/>
  <path class="cls-3" d="M432.2,246.66a2.43,2.43,0,0,1-1-.19,2.13,2.13,0,0,1-.78-.55,2.75,2.75,0,0,1-.53-.9,3.85,3.85,0,0,1,0-2.39,3,3,0,0,1,.52-.9,2.57,2.57,0,0,1,.75-.57,2.11,2.11,0,0,1,1.75,0,1.77,1.77,0,0,1,.64.52,2.4,2.4,0,0,1,.4.8,3.86,3.86,0,0,1,.14,1c0,.1,0,.2,0,.29s0,.17,0,.23h-3.49a2.1,2.1,0,0,0,.51,1.38,1.55,1.55,0,0,0,1.2.51,2.19,2.19,0,0,0,.7-.11,2.62,2.62,0,0,0,.59-.32l.32.6a3.65,3.65,0,0,1-.76.4A2.4,2.4,0,0,1,432.2,246.66Zm1.15-3.27a2.06,2.06,0,0,0-.34-1.26,1.15,1.15,0,0,0-.95-.43,1.35,1.35,0,0,0-1,.45,1.67,1.67,0,0,0-.34.53,3,3,0,0,0-.17.71Z"/>
  <path class="cls-3" d="M437.46,238.1h.63l-2.84,9.72h-.64Z"/>
  <path class="cls-3" d="M440.1,247.63a.72.72,0,0,1-.39-.24,1.06,1.06,0,0,1-.23-.45,3,3,0,0,1-.07-.73c0-.2,0-.39,0-.57s0-.35,0-.52l0-.52c0-.17,0-.35,0-.54a1.22,1.22,0,0,0,0-.32.92.92,0,0,0-.14-.28.88.88,0,0,0-.28-.2,1.17,1.17,0,0,0-.45-.08v-.57a1,1,0,0,0,.45-.08.75.75,0,0,0,.28-.2.87.87,0,0,0,.14-.27,1.17,1.17,0,0,0,0-.32c0-.18,0-.36,0-.54l0-.52c0-.17,0-.35,0-.53s0-.37,0-.57a3,3,0,0,1,.07-.72,1.17,1.17,0,0,1,.23-.46.86.86,0,0,1,.39-.24,2.23,2.23,0,0,1,.55-.07h.47v.51h-.28a.6.6,0,0,0-.57.25,1.53,1.53,0,0,0-.15.78c0,.34,0,.67,0,1s0,.67,0,1a2,2,0,0,1-.14.83.73.73,0,0,1-.5.38v0a.82.82,0,0,1,.5.4,2,2,0,0,1,.14.82q0,.57,0,1.05c0,.31,0,.64,0,1a1.53,1.53,0,0,0,.15.78.62.62,0,0,0,.57.24h.28v.52h-.47A1.84,1.84,0,0,1,440.1,247.63Z"/>
  <path class="cls-3" d="M444.59,246.66a1.79,1.79,0,0,1-.75-.18,2.52,2.52,0,0,1-.73-.52h0l-.07.57h-.7v-8h.87v2.18l0,1a4.1,4.1,0,0,1,.77-.54,1.78,1.78,0,0,1,.85-.23,1.9,1.9,0,0,1,.88.2,1.85,1.85,0,0,1,.65.56,2.48,2.48,0,0,1,.39.87,4.43,4.43,0,0,1,.14,1.13,3.69,3.69,0,0,1-.19,1.25,2.92,2.92,0,0,1-.49.93,2.23,2.23,0,0,1-.71.57A2,2,0,0,1,444.59,246.66Zm-.15-.77a1.21,1.21,0,0,0,.6-.15,1.55,1.55,0,0,0,.47-.42,2.25,2.25,0,0,0,.31-.68,3.46,3.46,0,0,0,.11-.9,4.15,4.15,0,0,0-.08-.82,1.8,1.8,0,0,0-.24-.63,1.1,1.1,0,0,0-.42-.41,1.21,1.21,0,0,0-.62-.15,1.49,1.49,0,0,0-.68.19,3.33,3.33,0,0,0-.71.56v2.84a2.13,2.13,0,0,0,.67.45A1.82,1.82,0,0,0,444.44,245.89Z"/>
  <path class="cls-3" d="M448.62,240a.57.57,0,0,1-.42-.16.55.55,0,0,1-.18-.43.54.54,0,0,1,.18-.43.57.57,0,0,1,.42-.16.59.59,0,0,1,.43.16.56.56,0,0,1,.17.43.58.58,0,0,1-.17.43A.59.59,0,0,1,448.62,240Zm-.43,1.12h.86v5.43h-.86Z"/>
  <path class="cls-3" d="M452.56,246.66a1.93,1.93,0,0,1-.88-.19,1.7,1.7,0,0,1-.67-.55,2.46,2.46,0,0,1-.43-.89,4.4,4.4,0,0,1-.15-1.21,3.72,3.72,0,0,1,.18-1.19,3.22,3.22,0,0,1,.49-.9,2.41,2.41,0,0,1,.71-.57,1.93,1.93,0,0,1,.85-.2,1.7,1.7,0,0,1,.78.17,3.42,3.42,0,0,1,.67.47l0-.94v-2.09h.86v8h-.7l-.09-.64h0a2.71,2.71,0,0,1-.7.55A1.72,1.72,0,0,1,452.56,246.66Zm.19-.77a1.38,1.38,0,0,0,.68-.18,2.71,2.71,0,0,0,.64-.57V242.3a2.42,2.42,0,0,0-.63-.44,1.73,1.73,0,0,0-.63-.13,1.17,1.17,0,0,0-.58.15,1.49,1.49,0,0,0-.48.43,2.06,2.06,0,0,0-.31.65,2.86,2.86,0,0,0-.12.85,2.66,2.66,0,0,0,.37,1.53A1.2,1.2,0,0,0,452.75,245.89Z"/>
  <path class="cls-3" d="M456.14,247.18h.27a.62.62,0,0,0,.58-.24,1.53,1.53,0,0,0,.15-.78c0-.34,0-.67,0-1s0-.67,0-1.05a2,2,0,0,1,.14-.82.83.83,0,0,1,.49-.4v0a.74.74,0,0,1-.49-.38,2,2,0,0,1-.14-.83c0-.38,0-.73,0-1s0-.64,0-1a1.53,1.53,0,0,0-.15-.78.6.6,0,0,0-.58-.25h-.27v-.51h.47a2.23,2.23,0,0,1,.55.07.86.86,0,0,1,.39.24,1.17,1.17,0,0,1,.23.46,3,3,0,0,1,.08.72c0,.2,0,.39,0,.57l0,.53c0,.18,0,.35,0,.52s0,.36,0,.54a1.17,1.17,0,0,0,0,.32.59.59,0,0,0,.14.27.75.75,0,0,0,.28.2.94.94,0,0,0,.44.08v.57a1.08,1.08,0,0,0-.44.08.88.88,0,0,0-.28.2.62.62,0,0,0-.14.28,1.22,1.22,0,0,0,0,.32c0,.19,0,.37,0,.54s0,.35,0,.52l0,.52c0,.18,0,.37,0,.57a2.89,2.89,0,0,1-.08.73,1.06,1.06,0,0,1-.23.45.72.72,0,0,1-.39.24,1.84,1.84,0,0,1-.55.07h-.47Z"/>
  <path class="cls-3" d="M462,238.1h.63l-2.84,9.72h-.64Z"/>
  <path class="cls-3" d="M463.62,241.1h.72l.07.62h0a5.25,5.25,0,0,1,.77-.53,1.83,1.83,0,0,1,.87-.23,1.9,1.9,0,0,1,.88.2,1.85,1.85,0,0,1,.65.56,2.68,2.68,0,0,1,.39.87,4.45,4.45,0,0,1,.14,1.14A4,4,0,0,1,468,245a3,3,0,0,1-.49.92,2.16,2.16,0,0,1-.72.57,1.89,1.89,0,0,1-.85.19,1.57,1.57,0,0,1-.71-.17,2.73,2.73,0,0,1-.71-.47l0,1v1.84h-.87Zm2.13,4.79a1.24,1.24,0,0,0,.6-.15,1.55,1.55,0,0,0,.47-.42,2,2,0,0,0,.3-.68,3.08,3.08,0,0,0,.11-.9,4.18,4.18,0,0,0-.07-.82,1.8,1.8,0,0,0-.24-.63,1.1,1.1,0,0,0-.42-.41,1.21,1.21,0,0,0-.62-.15,1.39,1.39,0,0,0-.67.19,3.36,3.36,0,0,0-.72.56v2.84a2.16,2.16,0,0,0,.68.45A1.72,1.72,0,0,0,465.75,245.89Z"/>
  <path class="cls-3" d="M470.54,246.66a1.49,1.49,0,0,1-.6-.11,1.38,1.38,0,0,1-.47-.31,1.43,1.43,0,0,1-.32-.5,2,2,0,0,1-.11-.66,1.59,1.59,0,0,1,.82-1.51,5.08,5.08,0,0,1,2.35-.47,2.21,2.21,0,0,0,0-.51,1.21,1.21,0,0,0-.16-.44.8.8,0,0,0-.33-.3,1,1,0,0,0-.52-.12,2.37,2.37,0,0,0-.88.16,3.24,3.24,0,0,0-.72.37l-.34-.65a4.53,4.53,0,0,1,.91-.45,3.42,3.42,0,0,1,1.17-.2,2,2,0,0,1,.81.16,1.38,1.38,0,0,1,.55.46,1.88,1.88,0,0,1,.32.7,3.72,3.72,0,0,1,.11.91v3.34h-.72l-.07-.59h0a3.32,3.32,0,0,1-.8.52A2.09,2.09,0,0,1,470.54,246.66Zm.25-.74a1.7,1.7,0,0,0,.71-.14,2.33,2.33,0,0,0,.71-.49v-1.61a8.68,8.68,0,0,0-1.13.15,2.5,2.5,0,0,0-.72.25.91.91,0,0,0-.37.39,1.25,1.25,0,0,0-.11.53.88.88,0,0,0,.26.7A1,1,0,0,0,470.79,245.92Z"/>
  <path class="cls-3" d="M475.24,248.87l.81-2.39L474,241.1h.9l1.06,3q.1.36.24.75c.08.27.17.53.25.77h.05c.07-.24.14-.5.22-.76s.14-.52.21-.76l.93-3h.84l-2.63,7.77Z"/>
  <path class="cls-3" d="M479.67,241.1h.71l.08.79h0a3.49,3.49,0,0,1,.73-.66,1.54,1.54,0,0,1,.87-.27,1.43,1.43,0,0,1,.93.28,1.72,1.72,0,0,1,.5.76,4.68,4.68,0,0,1,.81-.75,1.53,1.53,0,0,1,.89-.29,1.33,1.33,0,0,1,1.18.54,2.71,2.71,0,0,1,.38,1.59v3.44h-.86v-3.32a2.09,2.09,0,0,0-.23-1.11.85.85,0,0,0-.73-.34,1.93,1.93,0,0,0-1.3.83v3.94h-.87v-3.32a2,2,0,0,0-.23-1.11.83.83,0,0,0-.72-.34,1.91,1.91,0,0,0-1.31.83v3.94h-.86Z"/>
  <path class="cls-3" d="M490.55,246.66a2.4,2.4,0,0,1-1-.19,2.13,2.13,0,0,1-.78-.55,2.75,2.75,0,0,1-.53-.9,3.85,3.85,0,0,1,0-2.39,2.84,2.84,0,0,1,.52-.9,2.57,2.57,0,0,1,.75-.57,2,2,0,0,1,.87-.2,2,2,0,0,1,.87.18,1.73,1.73,0,0,1,.65.52,2.4,2.4,0,0,1,.4.8,3.86,3.86,0,0,1,.14,1c0,.1,0,.2,0,.29s0,.17,0,.23h-3.49a2.1,2.1,0,0,0,.51,1.38,1.55,1.55,0,0,0,1.2.51,2.12,2.12,0,0,0,.69-.11,2.48,2.48,0,0,0,.6-.32l.32.6a3.92,3.92,0,0,1-.76.4A2.4,2.4,0,0,1,490.55,246.66Zm1.15-3.27a2.06,2.06,0,0,0-.34-1.26,1.24,1.24,0,0,0-1.47-.31,1.19,1.19,0,0,0-.45.33,1.67,1.67,0,0,0-.34.53,2.55,2.55,0,0,0-.17.71Z"/>
  <path class="cls-3" d="M493.73,241.1h.71l.08.78h0a4.34,4.34,0,0,1,.78-.65,1.67,1.67,0,0,1,.94-.27,1.36,1.36,0,0,1,1.2.54,2.71,2.71,0,0,1,.38,1.59v3.44H497v-3.32a2,2,0,0,0-.24-1.11.84.84,0,0,0-.74-.34,1.24,1.24,0,0,0-.71.21,4.52,4.52,0,0,0-.71.62v3.94h-.86Z"/>
  <path class="cls-3" d="M501.16,246.66a1.62,1.62,0,0,1-.7-.13,1.08,1.08,0,0,1-.45-.36,1.48,1.48,0,0,1-.25-.57,3.48,3.48,0,0,1-.07-.75v-3h-.77v-.69l.8-.05.11-1.52h.72v1.52H502v.74h-1.4v3a1.5,1.5,0,0,0,.17.78.68.68,0,0,0,.63.27,1.06,1.06,0,0,0,.29,0l.3-.1.17.68a3.23,3.23,0,0,1-.47.14A2,2,0,0,1,501.16,246.66Z"/>
  <path class="cls-3" d="M504.46,246.66a2.7,2.7,0,0,1-1-.21,3.35,3.35,0,0,1-.88-.54l.43-.6a3.07,3.07,0,0,0,.7.47,2,2,0,0,0,.83.17,1.05,1.05,0,0,0,.77-.25.82.82,0,0,0,.25-.6.61.61,0,0,0-.11-.36,1.15,1.15,0,0,0-.27-.27,1.71,1.71,0,0,0-.38-.21l-.42-.19a4.28,4.28,0,0,1-.55-.23,2.26,2.26,0,0,1-.49-.31,1.62,1.62,0,0,1-.36-.43,1.24,1.24,0,0,1-.14-.6,1.53,1.53,0,0,1,.12-.6,1.38,1.38,0,0,1,.35-.49,1.63,1.63,0,0,1,.56-.33,2.34,2.34,0,0,1,1.64.06,3.25,3.25,0,0,1,.71.42l-.41.59a3.35,3.35,0,0,0-.56-.34,1.46,1.46,0,0,0-.63-.14,1,1,0,0,0-.71.23.74.74,0,0,0-.23.55.59.59,0,0,0,.09.34,1,1,0,0,0,.26.24,2.55,2.55,0,0,0,.37.19l.42.18a5.55,5.55,0,0,1,.56.24,2.17,2.17,0,0,1,.51.31,1.59,1.59,0,0,1,.36.45,1.28,1.28,0,0,1,.14.65,1.59,1.59,0,0,1-.12.62,1.43,1.43,0,0,1-.36.52,1.87,1.87,0,0,1-.59.34A2.22,2.22,0,0,1,504.46,246.66Z"/>
  <path class="cls-3" d="M413.42,331v.8h-9.24V331Zm-.87-.86a5.65,5.65,0,0,1-1.16-.3,6.1,6.1,0,0,1-1.06-.51,5,5,0,0,1-.88-.69,3.45,3.45,0,0,1-.64-.85,3.24,3.24,0,0,1-.63.85,5,5,0,0,1-.89.69,6.1,6.1,0,0,1-1.06.51,6,6,0,0,1-1.16.3l-.34-.76a6.92,6.92,0,0,0,1.33-.37,4.56,4.56,0,0,0,1.15-.64,3.42,3.42,0,0,0,.81-.85,1.76,1.76,0,0,0,.31-1V326h1v.48a1.79,1.79,0,0,0,.3,1,3.5,3.5,0,0,0,.82.86,5.1,5.1,0,0,0,1.15.64,6.13,6.13,0,0,0,1.33.38Zm-3.75,2.64a5.46,5.46,0,0,1,2.56.5,1.53,1.53,0,0,1,.92,1.42,1.41,1.41,0,0,1-.24.82,1.86,1.86,0,0,1-.69.6,3.66,3.66,0,0,1-1.09.38,8,8,0,0,1-1.46.12,5.41,5.41,0,0,1-2.57-.5,1.55,1.55,0,0,1-.94-1.42,1.44,1.44,0,0,1,.24-.82,2,2,0,0,1,.7-.6,3.84,3.84,0,0,1,1.1-.37A8,8,0,0,1,408.8,332.78Zm0,3.08a4.72,4.72,0,0,0,1.88-.3.92.92,0,0,0,.67-.86.94.94,0,0,0-.67-.85,4.72,4.72,0,0,0-1.88-.3,4.8,4.8,0,0,0-1.9.3.94.94,0,0,0-.67.85.92.92,0,0,0,.67.86A4.8,4.8,0,0,0,408.8,335.86Z"/>
  <path class="cls-3" d="M420.25,329.26a2.83,2.83,0,0,1-.2,1.07,2.71,2.71,0,0,1-.57.84,2.45,2.45,0,0,1-.85.55,2.86,2.86,0,0,1-1.06.2,2.82,2.82,0,0,1-1.06-.2,2.54,2.54,0,0,1-.85-.55,2.69,2.69,0,0,1-.56-.84,2.83,2.83,0,0,1-.2-1.07,2.87,2.87,0,0,1,.2-1.07,2.44,2.44,0,0,1,1.41-1.38,2.81,2.81,0,0,1,1.06-.19,2.85,2.85,0,0,1,1.06.19,2.57,2.57,0,0,1,.85.54,2.71,2.71,0,0,1,.57.84A2.87,2.87,0,0,1,420.25,329.26Zm-4.42,0a2,2,0,0,0,.13.73,1.85,1.85,0,0,0,.36.57,1.75,1.75,0,0,0,.55.38,1.95,1.95,0,0,0,1.4,0,1.79,1.79,0,0,0,.56-.38,1.7,1.7,0,0,0,.37-.57,2.2,2.2,0,0,0,.13-.73,2,2,0,0,0-.13-.72,1.7,1.7,0,0,0-.37-.57,1.76,1.76,0,0,0-.56-.37,1.95,1.95,0,0,0-1.4,0,1.72,1.72,0,0,0-.55.37,1.85,1.85,0,0,0-.36.57A1.81,1.81,0,0,0,415.83,329.26Zm7.53,6.32v.8h-6.88v-3.45h.93v2.65Zm-.3-1.85h-.94v-7.86h.94Z"/>
  <path class="cls-3" d="M426,334.62a12.3,12.3,0,0,1,0-6.52,13.4,13.4,0,0,1,1.23-2.83l.65.31a10.21,10.21,0,0,0-1.1,2.77,12.76,12.76,0,0,0,0,6,10,10,0,0,0,1.1,2.76l-.65.32A13.18,13.18,0,0,1,426,334.62Z"/>
  <path class="cls-3" d="M434,328.19a4.69,4.69,0,0,1-1.62,2.13,7.82,7.82,0,0,1-2.84,1.28l-.34-.81a6.68,6.68,0,0,0,2.92-1.38,3.34,3.34,0,0,0,1.17-2.22H429.7v-.8h4.57a5.07,5.07,0,0,1-.1,1h2.31v-1.56h.94v5.5h-.94v-1.12h-2.66v-.77h2.66v-1.28Zm3.8,7.55v.76h-6.91v-2.76h5.64v-1.1h-5.66v-.79h6.58v2.64h-5.63v1.25Z"/>
  <path class="cls-3" d="M442.49,328.9a6.5,6.5,0,0,0,.15,1.39,6.26,6.26,0,0,0,.41,1.29,4.94,4.94,0,0,0,.68,1.1,3.6,3.6,0,0,0,.94.8l-.57.72a3.92,3.92,0,0,1-1.27-1.29,6.25,6.25,0,0,1-.78-1.85,7.18,7.18,0,0,1-.81,2,4.25,4.25,0,0,1-1.3,1.39l-.57-.73a3.67,3.67,0,0,0,.95-.86,5.12,5.12,0,0,0,.7-1.15,7.42,7.42,0,0,0,.42-1.36,7.16,7.16,0,0,0,.15-1.46v-1h-1.94v-.8h4.67v.8h-1.83Zm2.74-2.8h.89v10h-.89v-5.53h-1.69v-.81h1.69Zm2.95-.25v10.76h-.9V325.85Z"/>
  <path class="cls-3" d="M449.87,337.06a10.69,10.69,0,0,0,1.1-2.76,12.73,12.73,0,0,0,.36-3,12.57,12.57,0,0,0-.36-3,10.9,10.9,0,0,0-1.1-2.77l.64-.31a12.94,12.94,0,0,1,1.24,2.83,12.3,12.3,0,0,1,0,6.52,12.94,12.94,0,0,1-1.24,2.83Z"/>
  <path class="cls-3" d="M465.62,331.09v.79h-9.23v-.79ZM461,326.14a7.51,7.51,0,0,1,1.49.13,4,4,0,0,1,1.13.41,2,2,0,0,1,.72.64,1.64,1.64,0,0,1,.25.87,1.6,1.6,0,0,1-.25.86,2.15,2.15,0,0,1-.72.64,4,4,0,0,1-1.13.4,8,8,0,0,1-3,0,4,4,0,0,1-1.14-.4,2,2,0,0,1-.71-.64,1.53,1.53,0,0,1-.26-.86,1.56,1.56,0,0,1,.26-.87,1.93,1.93,0,0,1,.71-.64,4,4,0,0,1,1.14-.41A7.51,7.51,0,0,1,461,326.14Zm0,6.63a5.49,5.49,0,0,1,2.56.5,1.56,1.56,0,0,1,0,2.85,5.36,5.36,0,0,1-2.56.5,7.9,7.9,0,0,1-1.46-.12,3.83,3.83,0,0,1-1.1-.38,1.78,1.78,0,0,1-.69-.6,1.54,1.54,0,0,1,0-1.65,2,2,0,0,1,.69-.6,3.84,3.84,0,0,1,1.1-.37A7.07,7.07,0,0,1,461,332.77Zm0-5.87a4.59,4.59,0,0,0-1.92.34,1,1,0,0,0-.71.95,1,1,0,0,0,.71.93,5.59,5.59,0,0,0,3.84,0,1,1,0,0,0,.71-.93,1,1,0,0,0-.71-.95A4.59,4.59,0,0,0,461,326.9Zm0,6.64a4.56,4.56,0,0,0-1.88.31.88.88,0,0,0,0,1.71,6,6,0,0,0,3.76,0,.88.88,0,0,0,0-1.71A4.56,4.56,0,0,0,461,333.54Z"/>
  <path class="cls-3" d="M472.9,330.86c-.35.08-.7.14-1,.19l-1.06.11c-.37,0-.78,0-1.21.06l-1.45,0h-.8v-4.67h4.51v.79h-3.57v3.07c.5,0,1,0,1.37,0l1.14-.05c.36,0,.69-.06,1-.11l1-.18Zm1,1.32h.92v4.26h-6.44v-4.26h.92v1.35h4.6Zm0,2.12h-4.6v1.34h4.6Zm2.44-5.1h-1.52v2.4h-.93v-5.74h.93v2.53h1.52Z"/>
  <circle class="cls-8" cx="349.48" cy="287.04" r="5"/>
  <polygon class="cls-8" points="356.48 310.17 356.48 324.57 344.48 317.37 356.48 310.17"/>
</svg>