<?xml version="1.0" encoding="utf-8"?>
<svg id="_迹_1" data-name="卵迹_1" viewBox="67.258 12.423 631.356 203.031" xmlns="http://www.w3.org/2000/svg" xmlns:xlink="http://www.w3.org/1999/xlink">
  <defs>
    <style>.cls-1{fill:#f7f7f7;}.cls-2,.cls-3{fill:none;stroke:#9e9e9e;stroke-miterlimit:10;}.cls-3{stroke-dasharray:4;}.cls-4{fill:#233976;}.cls-5{fill:#767676;}.cls-6{fill:#c1411a;}</style>
    <pattern x="0" y="0" width="25" height="25" patternUnits="userSpaceOnUse" viewBox="0 0 100 100" id="pattern-0">
      <rect x="0" y="0" width="50" height="100" style="fill: black;"/>
    </pattern>
    <pattern id="pattern-0-0" patternTransform="matrix(0.494921, 0, 0, 1, 252.846369, 139.580002)" xlink:href="#pattern-0"/>
  </defs>
  <title>비대면 플랫폼 웹메뉴얼_outline</title>
  <rect class="cls-1" x="155.87" y="62.32" width="30" height="130" rx="15"/>
  <rect class="cls-1" x="516.79" y="62.32" width="30" height="130" rx="15"/>
  <path d="M151.47,42a5.63,5.63,0,0,1-2.3-.47,5.56,5.56,0,0,1-1.82-1.28l.88-1a5.06,5.06,0,0,0,1.49,1.06,4.21,4.21,0,0,0,1.76.39,2.77,2.77,0,0,0,1.81-.53,1.68,1.68,0,0,0,.66-1.39,1.75,1.75,0,0,0-.15-.76,1.71,1.71,0,0,0-.42-.54,2.78,2.78,0,0,0-.62-.41l-.76-.37-1.7-.73a6,6,0,0,1-.83-.43,3.45,3.45,0,0,1-.77-.61,2.71,2.71,0,0,1-.57-.84,3.08,3.08,0,0,1,.06-2.38,3.11,3.11,0,0,1,.77-1,3.5,3.5,0,0,1,1.17-.65,4.42,4.42,0,0,1,1.48-.23,4.69,4.69,0,0,1,1.95.4,4.81,4.81,0,0,1,1.51,1.05l-.79.95a4.38,4.38,0,0,0-1.2-.81,3.48,3.48,0,0,0-1.47-.3,2.54,2.54,0,0,0-1.6.47,1.53,1.53,0,0,0-.59,1.26,1.42,1.42,0,0,0,.18.74,1.86,1.86,0,0,0,.44.53,2.78,2.78,0,0,0,.63.38l.68.3,1.69.72a8.51,8.51,0,0,1,1,.5,3.41,3.41,0,0,1,.77.64,2.92,2.92,0,0,1,.51.86,3.25,3.25,0,0,1,.18,1.14,3,3,0,0,1-.28,1.3,3.27,3.27,0,0,1-.79,1.06,3.67,3.67,0,0,1-1.26.71A5,5,0,0,1,151.47,42Z" style="fill: rgb(118, 118, 118);"/>
  <path d="M161.13,42a4.17,4.17,0,0,1-1.62-.31,3.73,3.73,0,0,1-1.32-.88,4.18,4.18,0,0,1-.89-1.44,5.69,5.69,0,0,1,0-3.82,4.47,4.47,0,0,1,.87-1.44,3.83,3.83,0,0,1,1.26-.91,3.48,3.48,0,0,1,1.47-.32,3.38,3.38,0,0,1,1.47.29,2.94,2.94,0,0,1,1.09.82,3.76,3.76,0,0,1,.67,1.29,5.51,5.51,0,0,1,.23,1.68c0,.16,0,.31,0,.45a3.22,3.22,0,0,1,0,.38h-5.87a3.38,3.38,0,0,0,.85,2.21,2.7,2.7,0,0,0,2,.81,3.68,3.68,0,0,0,1.17-.18,4.45,4.45,0,0,0,1-.5l.53,1a6.65,6.65,0,0,1-1.28.64A4.44,4.44,0,0,1,161.13,42Zm1.94-5.23a3.1,3.1,0,0,0-.57-2,2,2,0,0,0-1.59-.69,2.09,2.09,0,0,0-.89.19,2.29,2.29,0,0,0-.76.52,2.86,2.86,0,0,0-.56.85,3.66,3.66,0,0,0-.29,1.15Z" style="fill: rgb(118, 118, 118);"/>
  <path d="M166.49,33.07h1.2l.13,1.59h.05A4.14,4.14,0,0,1,169,33.34a2.17,2.17,0,0,1,1.37-.49,2.47,2.47,0,0,1,.5,0,1.16,1.16,0,0,1,.43.15L171,34.32a3.11,3.11,0,0,0-.4-.11,2.81,2.81,0,0,0-.45,0,1.71,1.71,0,0,0-.57.1,1.83,1.83,0,0,0-.58.34,2.78,2.78,0,0,0-.56.61,4.2,4.2,0,0,0-.48,1v5.58h-1.46Z" style="fill: rgb(118, 118, 118);"/>
  <path d="M171.9,33.07h1.52l1.63,5c.14.42.27.85.41,1.29s.27.86.41,1.27h.06l.4-1.27c.14-.44.27-.87.4-1.29l1.65-5h1.44l-3.09,8.69H175Z" style="fill: rgb(118, 118, 118);"/>
  <path d="M185,42a4.17,4.17,0,0,1-1.62-.31,3.73,3.73,0,0,1-1.32-.88,4.34,4.34,0,0,1-.89-1.44,5.69,5.69,0,0,1,0-3.82,4.47,4.47,0,0,1,.87-1.44,3.83,3.83,0,0,1,1.26-.91,3.72,3.72,0,0,1,2.95,0,3,3,0,0,1,1.08.82,3.76,3.76,0,0,1,.67,1.29,5.51,5.51,0,0,1,.23,1.68c0,.16,0,.31,0,.45a3.22,3.22,0,0,1-.05.38H182.3a3.38,3.38,0,0,0,.85,2.21,2.7,2.7,0,0,0,2,.81,3.68,3.68,0,0,0,1.17-.18,4.45,4.45,0,0,0,1-.5l.53,1a6.65,6.65,0,0,1-1.28.64A4.44,4.44,0,0,1,185,42Zm1.94-5.23a3.1,3.1,0,0,0-.57-2,2,2,0,0,0-1.59-.69,2.09,2.09,0,0,0-.89.19,2.29,2.29,0,0,0-.76.52,3.06,3.06,0,0,0-.56.85,3.66,3.66,0,0,0-.29,1.15Z" style="fill: rgb(118, 118, 118);"/>
  <path d="M190.36,33.07h1.2l.13,1.59h.05a4.14,4.14,0,0,1,1.09-1.32,2.19,2.19,0,0,1,1.37-.49,2.64,2.64,0,0,1,.51,0,1.18,1.18,0,0,1,.42.15l-.27,1.28a3.11,3.11,0,0,0-.4-.11,2.81,2.81,0,0,0-.45,0,1.71,1.71,0,0,0-.57.1,1.83,1.83,0,0,0-.58.34,3.05,3.05,0,0,0-.56.61,4.2,4.2,0,0,0-.48,1v5.58h-1.46Z" style="fill: rgb(118, 118, 118);"/>
  <path d="M503.59,30h1.53l4.28,7.39,1.24,2.42h.08c0-.6-.08-1.21-.12-1.85s-.07-1.25-.07-1.86V30h1.41V41.76h-1.52l-4.27-7.4L504.88,32h-.06c0,.6.07,1.2.11,1.81S505,35,505,35.61v6.15h-1.41Z" style="fill: rgb(118, 118, 118);"/>
  <path d="M515.75,31.28A1,1,0,0,1,515,31a.91.91,0,0,1-.29-.68.88.88,0,0,1,.29-.7,1.16,1.16,0,0,1,1.44,0,.88.88,0,0,1,.29.7.91.91,0,0,1-.29.68A1,1,0,0,1,515.75,31.28ZM515,33.07h1.46v8.69H515Z" style="fill: rgb(118, 118, 118);"/>
  <path d="M522.84,42a4.05,4.05,0,0,1-1.61-.31,3.74,3.74,0,0,1-1.3-.88,4.17,4.17,0,0,1-.86-1.43,5.47,5.47,0,0,1-.31-1.93,5.07,5.07,0,0,1,.34-1.93,4.4,4.4,0,0,1,.92-1.44,3.69,3.69,0,0,1,1.34-.9,4.24,4.24,0,0,1,1.59-.3,3.19,3.19,0,0,1,1.47.31,4.77,4.77,0,0,1,1.07.72l-.75,1a3.74,3.74,0,0,0-.8-.56,2,2,0,0,0-.94-.22,2.45,2.45,0,0,0-1.09.24,2.57,2.57,0,0,0-.86.68,3.47,3.47,0,0,0-.57,1.06,4.46,4.46,0,0,0-.2,1.36,4.54,4.54,0,0,0,.19,1.37,3.13,3.13,0,0,0,.55,1,2.63,2.63,0,0,0,.85.67,2.42,2.42,0,0,0,1.09.24,2.59,2.59,0,0,0,1.12-.25,4,4,0,0,0,.93-.62l.63,1a4.36,4.36,0,0,1-1.3.83A4,4,0,0,1,522.84,42Z" style="fill: rgb(118, 118, 118);"/>
  <path d="M530.68,42a4.22,4.22,0,0,1-1.63-.31,3.82,3.82,0,0,1-1.32-.88,4.34,4.34,0,0,1-.89-1.44,5.86,5.86,0,0,1,0-3.82,4.32,4.32,0,0,1,.88-1.44,3.63,3.63,0,0,1,1.26-.91,3.41,3.41,0,0,1,1.46-.32,3.46,3.46,0,0,1,1.48.29A2.83,2.83,0,0,1,533,34a3.78,3.78,0,0,1,.68,1.29,5.83,5.83,0,0,1,.23,1.68c0,.16,0,.31,0,.45a3.22,3.22,0,0,1,0,.38H528a3.33,3.33,0,0,0,.86,2.21,2.67,2.67,0,0,0,2,.81A3.59,3.59,0,0,0,532,40.6a4.52,4.52,0,0,0,1-.5l.53,1a7,7,0,0,1-1.28.64A4.47,4.47,0,0,1,530.68,42Zm1.93-5.23a3.1,3.1,0,0,0-.57-2,1.94,1.94,0,0,0-1.59-.69,2.13,2.13,0,0,0-.89.19,2.4,2.4,0,0,0-.76.52,3.06,3.06,0,0,0-.56.85,3.66,3.66,0,0,0-.28,1.15Z" style="fill: rgb(118, 118, 118);"/>
  <path d="M536,33.07h1.2l.12,1h0a7.61,7.61,0,0,1,1.3-.84,3.08,3.08,0,0,1,1.47-.37,3.22,3.22,0,0,1,1.48.32,3.13,3.13,0,0,1,1.09.89,4.13,4.13,0,0,1,.66,1.4,6.81,6.81,0,0,1,.23,1.82,5.81,5.81,0,0,1-.32,2,4.37,4.37,0,0,1-.83,1.47,3.64,3.64,0,0,1-1.2.92,3.5,3.5,0,0,1-1.43.31,2.94,2.94,0,0,1-1.2-.27,5.18,5.18,0,0,1-1.2-.75l0,1.52v3H536Zm3.58,7.67a2.11,2.11,0,0,0,1-.24,2.43,2.43,0,0,0,.79-.68,3,3,0,0,0,.52-1.08,5.36,5.36,0,0,0,.19-1.45A6.53,6.53,0,0,0,542,36a3.09,3.09,0,0,0-.4-1,1.87,1.87,0,0,0-.71-.66,2.23,2.23,0,0,0-1-.23,2.39,2.39,0,0,0-1.13.3,5.79,5.79,0,0,0-1.21.9v4.55a4,4,0,0,0,1.15.71A3,3,0,0,0,539.62,40.74Z" style="fill: rgb(118, 118, 118);"/>
  <path d="M547.68,42a2.7,2.7,0,0,1-1-.18,2.26,2.26,0,0,1-.8-.5,2.33,2.33,0,0,1-.53-.8,2.74,2.74,0,0,1-.19-1.06,2.5,2.5,0,0,1,1.38-2.4,8.82,8.82,0,0,1,4-.76,4.47,4.47,0,0,0-.08-.82,2,2,0,0,0-.28-.7,1.54,1.54,0,0,0-.55-.49,1.94,1.94,0,0,0-.88-.18,4.24,4.24,0,0,0-1.47.25,4.79,4.79,0,0,0-1.22.6l-.58-1a8.49,8.49,0,0,1,1.53-.71,6.09,6.09,0,0,1,2-.32,3.37,3.37,0,0,1,1.36.25,2.41,2.41,0,0,1,.93.73,3.29,3.29,0,0,1,.54,1.13,5.48,5.48,0,0,1,.18,1.45v5.35h-1.2l-.13-.94h0a5.91,5.91,0,0,1-1.35.83A3.87,3.87,0,0,1,547.68,42Zm.42-1.19a3.16,3.16,0,0,0,1.2-.22,4.49,4.49,0,0,0,1.2-.78V37.2a14.92,14.92,0,0,0-1.91.23,4.05,4.05,0,0,0-1.21.41,1.42,1.42,0,0,0-.62.62,1.87,1.87,0,0,0-.18.85,1.36,1.36,0,0,0,.43,1.11A1.65,1.65,0,0,0,548.1,40.78Z" style="fill: rgb(118, 118, 118);"/>
  <path d="M555.6,45.5,557,41.68l-3.48-8.61H555l1.77,4.74c.13.37.27.77.41,1.2s.29.83.42,1.23h.08l.37-1.22c.13-.43.25-.83.37-1.21L560,33.07h1.43L557,45.5Z" style="fill: rgb(118, 118, 118);"/>
  <line class="cls-2" x1="348.886" y1="152.08" x2="169.18" y2="152.08" style="fill: url(#pattern-0-0); stroke-dasharray: 8px;"/>
  <line class="cls-2" x1="532.28" y1="92.03" x2="169.18" y2="92.03"/>
  <path class="cls-3" d="M 537.436 92 C 556.63 92 568.627 103.9 559.03 113.419 C 554.576 117.838 546.344 120.559 537.436 120.559" style=""/>
  <path class="cls-2" d="M168.62,152a30,30,0,0,1,0-60"/>
  <path class="cls-5" d="M 255.019 73.406 L 257.409 73.406 C 257.843 73.4 258.276 73.444 258.699 73.536 C 259.061 73.607 259.402 73.758 259.699 73.976 C 259.979 74.182 260.199 74.458 260.339 74.776 C 260.508 75.156 260.586 75.57 260.569 75.986 C 260.58 76.4 260.505 76.812 260.349 77.196 C 260.21 77.525 259.994 77.816 259.719 78.046 C 259.425 78.281 259.084 78.451 258.719 78.546 C 258.312 78.657 257.891 78.711 257.469 78.706 L 256.079 78.706 L 256.079 82.196 L 255.019 82.196 Z M 257.329 77.816 C 257.907 77.864 258.484 77.708 258.959 77.376 C 259.343 77.02 259.539 76.506 259.489 75.986 C 259.548 75.477 259.34 74.974 258.939 74.656 C 258.431 74.382 257.856 74.258 257.279 74.296 L 256.079 74.296 L 256.079 77.816 Z"/>
  <path class="cls-5" d="M 264.229 82.346 C 263.857 82.346 263.489 82.267 263.149 82.116 C 262.798 81.966 262.484 81.74 262.229 81.456 C 261.951 81.144 261.737 80.78 261.599 80.386 C 261.279 79.445 261.279 78.426 261.599 77.486 C 261.736 77.088 261.95 76.721 262.229 76.406 C 262.481 76.115 262.795 75.885 263.149 75.736 C 263.489 75.584 263.857 75.506 264.229 75.506 C 264.605 75.506 264.976 75.584 265.319 75.736 C 265.673 75.885 265.988 76.115 266.239 76.406 C 266.518 76.721 266.732 77.088 266.869 77.486 C 267.189 78.426 267.189 79.445 266.869 80.386 C 266.732 80.78 266.518 81.144 266.239 81.456 C 265.985 81.74 265.671 81.966 265.319 82.116 C 264.976 82.267 264.605 82.345 264.229 82.346 Z M 264.229 81.426 C 264.484 81.429 264.735 81.367 264.959 81.246 C 265.185 81.12 265.38 80.946 265.529 80.736 C 265.703 80.501 265.832 80.237 265.909 79.956 C 265.995 79.629 266.038 79.293 266.039 78.956 C 266.038 78.618 265.994 78.282 265.909 77.956 C 265.83 77.672 265.701 77.405 265.529 77.166 C 265.383 76.95 265.188 76.771 264.959 76.646 C 264.506 76.406 263.963 76.406 263.509 76.646 C 263.279 76.769 263.083 76.948 262.939 77.166 C 262.774 77.406 262.652 77.673 262.579 77.956 C 262.49 78.281 262.446 78.618 262.449 78.956 C 262.445 79.293 262.489 79.63 262.579 79.956 C 262.65 80.235 262.772 80.5 262.939 80.736 C 263.086 80.948 263.282 81.123 263.509 81.246 C 263.732 81.359 263.98 81.414 264.229 81.406 Z"/>
  <path class="cls-5" d="M 270.359 82.346 C 269.923 82.345 269.491 82.257 269.089 82.086 C 268.708 81.929 268.354 81.713 268.039 81.446 L 268.559 80.726 C 268.809 80.949 269.088 81.138 269.389 81.286 C 269.703 81.429 270.045 81.5 270.389 81.496 C 270.724 81.522 271.055 81.414 271.309 81.196 C 271.503 81.006 271.611 80.746 271.609 80.476 C 271.614 80.323 271.572 80.173 271.489 80.046 C 271.395 79.921 271.284 79.81 271.159 79.716 C 271.015 79.615 270.861 79.527 270.699 79.456 L 270.199 79.236 C 269.979 79.156 269.759 79.066 269.539 78.966 C 269.329 78.862 269.13 78.735 268.949 78.586 C 268.774 78.441 268.628 78.265 268.519 78.066 C 268.401 77.848 268.343 77.603 268.349 77.356 C 268.349 77.109 268.396 76.864 268.489 76.636 C 268.587 76.412 268.73 76.211 268.909 76.046 C 269.104 75.87 269.332 75.734 269.579 75.646 C 269.87 75.551 270.174 75.503 270.479 75.506 C 270.847 75.501 271.211 75.572 271.549 75.716 C 271.856 75.849 272.145 76.02 272.409 76.226 L 271.909 76.936 C 271.7 76.774 271.476 76.634 271.239 76.516 C 271 76.409 270.741 76.354 270.479 76.356 C 270.169 76.327 269.861 76.428 269.629 76.636 C 269.446 76.805 269.344 77.046 269.349 77.296 C 269.344 77.438 269.386 77.579 269.469 77.696 C 269.551 77.813 269.656 77.912 269.779 77.986 C 269.916 78.074 270.06 78.151 270.209 78.216 L 270.719 78.426 C 270.949 78.516 271.179 78.606 271.399 78.716 C 271.617 78.812 271.819 78.94 271.999 79.096 C 272.18 79.241 272.33 79.421 272.439 79.626 C 272.563 79.866 272.622 80.135 272.609 80.406 C 272.609 80.665 272.562 80.923 272.469 81.166 C 272.368 81.398 272.218 81.606 272.029 81.776 C 271.825 81.957 271.587 82.096 271.329 82.186 C 271.019 82.298 270.69 82.352 270.359 82.346 Z"/>
  <path class="cls-5" d="M 275.789 82.346 C 275.501 82.355 275.214 82.301 274.949 82.186 C 274.737 82.088 274.552 81.941 274.409 81.756 C 274.265 81.548 274.167 81.313 274.119 81.066 C 274.048 80.774 274.015 80.475 274.019 80.176 L 274.019 76.566 L 273.099 76.566 L 273.099 75.736 L 274.099 75.676 L 274.229 73.846 L 275.089 73.846 L 275.089 75.676 L 276.769 75.676 L 276.769 76.566 L 275.089 76.566 L 275.089 80.196 C 275.07 80.522 275.143 80.848 275.299 81.136 C 275.474 81.369 275.76 81.492 276.049 81.456 C 276.166 81.469 276.283 81.469 276.399 81.456 L 276.759 81.336 L 276.959 82.156 C 276.789 82.216 276.599 82.276 276.399 82.326 C 276.198 82.359 275.993 82.365 275.789 82.346 Z"/>
  <path class="cls-5" d="M 280.059 78.286 L 280.059 77.486 L 284.649 74.116 L 284.649 75.206 L 280.959 77.906 L 284.649 80.446 L 284.649 81.556 Z"/>
  <path class="cls-5" d="M 288.229 77.206 C 287.819 77.206 287.429 77.206 287.049 77.206 L 286.049 77.206 L 285.929 76.436 L 287.129 76.436 L 288.519 76.436 L 289.959 76.336 C 290.449 76.336 290.899 76.236 291.329 76.166 L 291.389 76.856 C 291.049 76.926 290.679 76.986 290.309 77.036 L 289.159 77.156 L 289.159 78.936 L 288.269 78.936 Z M 288.649 75.886 C 288.346 75.892 288.043 75.855 287.749 75.776 C 287.5 75.708 287.264 75.6 287.049 75.456 C 286.862 75.327 286.708 75.155 286.599 74.956 C 286.49 74.749 286.435 74.519 286.439 74.286 C 286.434 74.052 286.489 73.821 286.599 73.616 C 286.71 73.418 286.864 73.247 287.049 73.116 C 287.266 72.976 287.502 72.868 287.749 72.796 C 288.043 72.721 288.346 72.684 288.649 72.686 C 289.221 72.657 289.787 72.807 290.269 73.116 C 290.661 73.374 290.892 73.816 290.879 74.286 C 290.889 74.757 290.66 75.201 290.269 75.466 C 289.784 75.766 289.219 75.913 288.649 75.886 Z M 288.649 73.386 C 288.3 73.365 287.952 73.448 287.649 73.626 C 287.152 73.925 287.152 74.646 287.649 74.946 C 287.952 75.123 288.3 75.206 288.649 75.186 C 288.999 75.201 289.345 75.118 289.649 74.946 C 290.147 74.646 290.147 73.925 289.649 73.626 C 289.343 73.46 288.997 73.384 288.649 73.406 Z M 293.649 79.386 L 294.559 79.386 L 294.559 82.966 L 287.689 82.966 L 287.689 79.406 L 288.609 79.406 L 288.609 80.406 L 293.609 80.406 Z M 293.649 81.166 L 288.649 81.166 L 288.649 82.166 L 293.649 82.166 Z M 291.789 77.646 L 291.789 72.506 L 292.659 72.506 L 292.659 78.946 L 291.789 78.946 L 291.789 78.346 L 289.999 78.346 L 289.999 77.646 Z M 294.529 72.326 L 294.529 78.976 L 293.639 78.976 L 293.639 72.326 Z"/>
  <path class="cls-5" d="M 301.549 78.986 L 301.549 80.076 L 304.479 80.076 L 304.479 83.076 L 303.539 83.076 L 303.539 80.846 L 297.439 80.846 L 297.439 80.076 L 300.609 80.076 L 300.609 78.986 L 296.449 78.986 L 296.449 78.216 L 305.679 78.216 L 305.679 78.986 Z M 305.159 73.986 L 296.929 73.986 L 296.929 73.216 L 300.609 73.216 L 300.609 72.126 L 301.549 72.126 L 301.549 73.216 L 305.159 73.216 Z M 297.769 75.986 C 297.779 75.45 298.123 74.978 298.629 74.806 C 300.212 74.272 301.926 74.272 303.509 74.806 C 304.018 74.976 304.363 75.449 304.369 75.986 C 304.361 76.516 304.015 76.983 303.509 77.146 C 301.926 77.679 300.212 77.679 298.629 77.146 C 298.147 76.979 297.814 76.535 297.789 76.026 Z M 303.399 75.986 C 303.399 75.706 303.209 75.486 302.809 75.336 C 302.249 75.169 301.664 75.094 301.079 75.116 C 300.491 75.097 299.904 75.171 299.339 75.336 C 298.939 75.486 298.739 75.706 298.739 75.986 C 298.739 76.266 298.939 76.476 299.339 76.616 C 299.903 76.785 300.491 76.86 301.079 76.836 C 301.664 76.862 302.25 76.787 302.809 76.616 C 303.209 76.516 303.399 76.306 303.399 76.026 Z"/>
  <path class="cls-5" d="M 310.029 73.406 L 314.849 73.406 L 314.849 74.336 L 311.089 74.336 L 311.089 77.116 L 314.259 77.116 L 314.259 78.046 L 311.089 78.046 L 311.089 81.266 L 314.979 81.266 L 314.979 82.196 L 310.029 82.196 Z"/>
  <path class="cls-5" d="M 316.639 75.676 L 317.489 75.676 L 317.589 76.606 L 317.589 76.606 C 317.876 76.315 318.191 76.054 318.529 75.826 C 318.867 75.612 319.26 75.501 319.659 75.506 C 320.219 75.462 320.762 75.707 321.099 76.156 C 321.441 76.732 321.601 77.397 321.559 78.066 L 321.559 82.186 L 320.559 82.186 L 320.559 78.186 C 320.598 77.724 320.501 77.262 320.279 76.856 C 320.075 76.573 319.737 76.418 319.389 76.446 C 319.084 76.439 318.784 76.527 318.529 76.696 C 318.223 76.915 317.942 77.166 317.689 77.446 L 317.689 82.166 L 316.689 82.166 Z"/>
  <path class="cls-5" d="M 325.709 82.346 C 325.347 82.348 324.988 82.269 324.659 82.116 C 324.342 81.965 324.067 81.738 323.859 81.456 C 323.619 81.135 323.443 80.772 323.339 80.386 C 323.212 79.913 323.152 79.425 323.159 78.936 C 323.151 78.45 323.226 77.966 323.379 77.506 C 323.515 77.115 323.714 76.75 323.969 76.426 C 324.202 76.142 324.492 75.911 324.819 75.746 C 325.13 75.589 325.472 75.507 325.819 75.506 C 326.144 75.499 326.466 75.567 326.759 75.706 C 327.047 75.864 327.316 76.055 327.559 76.276 L 327.509 75.146 L 327.509 72.636 L 328.509 72.636 L 328.509 82.186 L 327.669 82.186 L 327.569 81.426 L 327.569 81.426 C 327.317 81.68 327.031 81.899 326.719 82.076 C 326.411 82.25 326.064 82.343 325.709 82.346 Z M 325.939 81.426 C 326.228 81.424 326.512 81.344 326.759 81.196 C 327.052 81.018 327.313 80.791 327.529 80.526 L 327.529 77.116 C 327.308 76.896 327.051 76.717 326.769 76.586 C 326.533 76.483 326.278 76.428 326.019 76.426 C 325.774 76.425 325.533 76.487 325.319 76.606 C 325.094 76.731 324.899 76.905 324.749 77.116 C 324.58 77.356 324.451 77.623 324.369 77.906 C 324.276 78.231 324.229 78.567 324.229 78.906 C 324.192 79.553 324.349 80.197 324.679 80.756 C 324.953 81.181 325.434 81.429 325.939 81.406 Z"/>
  <path class="cls-5" d="M 330.189 77.346 L 333.959 77.346 L 333.959 78.196 L 330.189 78.196 Z"/>
  <path class="cls-5" d="M 335.569 75.676 L 336.429 75.676 L 336.519 76.416 L 336.519 76.416 C 336.802 76.172 337.11 75.961 337.439 75.786 C 337.758 75.6 338.121 75.504 338.489 75.506 C 338.854 75.5 339.214 75.582 339.539 75.746 C 339.849 75.903 340.117 76.133 340.319 76.416 C 340.534 76.719 340.693 77.057 340.789 77.416 C 340.903 77.86 340.956 78.317 340.949 78.776 C 340.959 79.284 340.884 79.791 340.729 80.276 C 340.596 80.673 340.397 81.045 340.139 81.376 C 339.904 81.663 339.611 81.898 339.279 82.066 C 338.967 82.214 338.625 82.293 338.279 82.296 C 337.982 82.29 337.689 82.222 337.419 82.096 C 337.11 81.948 336.823 81.756 336.569 81.526 L 336.569 82.676 L 336.569 84.886 L 335.569 84.886 Z M 338.129 81.426 C 338.378 81.428 338.622 81.366 338.839 81.246 C 339.065 81.12 339.26 80.946 339.409 80.736 C 339.576 80.487 339.701 80.214 339.779 79.926 C 339.867 79.569 339.911 79.203 339.909 78.836 C 339.914 78.5 339.884 78.165 339.819 77.836 C 339.765 77.568 339.667 77.311 339.529 77.076 C 339.408 76.872 339.235 76.703 339.029 76.586 C 338.8 76.461 338.541 76.399 338.279 76.406 C 337.994 76.411 337.715 76.491 337.469 76.636 C 337.157 76.824 336.868 77.049 336.609 77.306 L 336.609 80.716 C 336.846 80.945 337.125 81.129 337.429 81.256 C 337.652 81.347 337.889 81.398 338.129 81.406 Z"/>
  <path class="cls-5" d="M 345.049 82.346 C 344.674 82.345 344.303 82.266 343.959 82.116 C 343.609 81.963 343.296 81.738 343.039 81.456 C 342.764 81.142 342.55 80.779 342.409 80.386 C 342.103 79.443 342.103 78.428 342.409 77.486 C 342.55 77.09 342.764 76.723 343.039 76.406 C 343.293 76.117 343.607 75.888 343.959 75.736 C 344.654 75.429 345.445 75.429 346.139 75.736 C 346.489 75.888 346.8 76.117 347.049 76.406 C 347.328 76.723 347.545 77.089 347.689 77.486 C 347.996 78.428 347.996 79.443 347.689 80.386 C 347.545 80.779 347.328 81.142 347.049 81.456 C 346.797 81.738 346.486 81.963 346.139 82.116 C 345.796 82.266 345.425 82.345 345.049 82.346 Z M 345.049 81.426 C 345.304 81.428 345.555 81.366 345.779 81.246 C 346.005 81.12 346.2 80.946 346.349 80.736 C 346.52 80.501 346.645 80.236 346.719 79.956 C 346.81 79.63 346.854 79.293 346.849 78.956 C 346.853 78.618 346.809 78.281 346.719 77.956 C 346.643 77.673 346.518 77.405 346.349 77.166 C 346.203 76.95 346.008 76.771 345.779 76.646 C 345.555 76.525 345.304 76.463 345.049 76.466 C 344.795 76.462 344.543 76.524 344.319 76.646 C 344.091 76.771 343.896 76.95 343.749 77.166 C 343.588 77.408 343.467 77.675 343.389 77.956 C 343.3 78.281 343.256 78.618 343.259 78.956 C 343.255 79.293 343.299 79.63 343.389 79.956 C 343.465 80.234 343.586 80.498 343.749 80.736 C 343.899 80.946 344.094 81.12 344.319 81.246 C 344.545 81.36 344.796 81.415 345.049 81.406 Z"/>
  <path class="cls-5" d="M 350.079 74.326 C 349.678 74.356 349.34 74.028 349.359 73.626 C 349.35 73.429 349.422 73.237 349.559 73.096 C 349.705 72.974 349.89 72.909 350.079 72.916 C 350.266 72.911 350.447 72.975 350.589 73.096 C 350.731 73.234 350.804 73.428 350.789 73.626 C 350.796 73.816 350.724 74 350.589 74.136 C 350.451 74.263 350.268 74.331 350.079 74.326 Z M 349.549 75.676 L 350.549 75.676 L 350.549 82.186 L 349.549 82.186 Z"/>
  <path class="cls-5" d="M 352.689 75.676 L 353.539 75.676 L 353.629 76.606 L 353.629 76.606 C 353.914 76.313 354.229 76.051 354.569 75.826 C 354.906 75.608 355.299 75.497 355.699 75.506 C 356.258 75.465 356.8 75.71 357.139 76.156 C 357.477 76.733 357.633 77.398 357.589 78.066 L 357.589 82.186 L 356.589 82.186 L 356.589 78.186 C 356.623 77.725 356.526 77.264 356.309 76.856 C 356.103 76.57 355.761 76.414 355.409 76.446 C 355.107 76.439 354.81 76.527 354.559 76.696 C 354.25 76.914 353.965 77.166 353.709 77.446 L 353.709 82.166 L 352.709 82.166 Z"/>
  <path class="cls-5" d="M 361.599 82.346 C 361.311 82.355 361.024 82.301 360.759 82.186 C 360.547 82.088 360.362 81.941 360.219 81.756 C 360.077 81.547 359.975 81.312 359.919 81.066 C 359.857 80.773 359.826 80.475 359.829 80.176 L 359.829 76.566 L 358.909 76.566 L 358.909 75.736 L 359.909 75.676 L 360.029 73.846 L 360.899 73.846 L 360.899 75.676 L 362.579 75.676 L 362.579 76.566 L 360.899 76.566 L 360.899 80.196 C 360.88 80.522 360.953 80.848 361.109 81.136 C 361.284 81.369 361.57 81.492 361.859 81.456 C 361.976 81.468 362.093 81.468 362.209 81.456 L 362.569 81.336 L 362.769 82.156 C 362.599 82.216 362.409 82.276 362.209 82.326 C 362.008 82.359 361.803 82.365 361.599 82.346 Z"/>
  <path class="cls-5" d="M 363.619 81.556 L 363.619 80.406 L 367.309 77.866 L 363.619 75.166 L 363.619 74.076 L 368.209 77.446 L 368.209 78.246 Z"/>
  <path class="cls-5" d="M 384.622 78.17 L 384.622 78.98 L 375.372 78.98 L 375.372 78.17 Z M 383.742 77.32 C 383.346 77.26 382.958 77.16 382.582 77.02 C 382.234 76.882 381.899 76.711 381.582 76.51 C 381.261 76.315 380.962 76.083 380.692 75.82 C 380.442 75.57 380.229 75.283 380.062 74.97 C 379.894 75.285 379.678 75.571 379.422 75.82 C 379.155 76.085 378.856 76.317 378.532 76.51 C 377.852 76.923 377.098 77.198 376.312 77.32 L 375.972 76.55 C 376.428 76.48 376.874 76.359 377.302 76.19 C 377.714 76.032 378.101 75.817 378.452 75.55 C 378.774 75.321 379.049 75.033 379.262 74.7 C 379.464 74.406 379.572 74.057 379.572 73.7 L 379.572 73.22 L 380.572 73.22 L 380.572 73.73 C 380.569 74.088 380.678 74.437 380.882 74.73 C 381.098 75.061 381.373 75.349 381.692 75.58 C 382.045 75.847 382.432 76.065 382.842 76.23 C 383.269 76.407 383.716 76.531 384.172 76.6 Z M 379.992 79.96 C 380.877 79.918 381.759 80.089 382.562 80.46 C 383.125 80.708 383.487 81.266 383.482 81.88 C 383.487 82.172 383.404 82.458 383.242 82.7 C 383.066 82.955 382.829 83.161 382.552 83.3 C 382.211 83.482 381.843 83.611 381.462 83.68 C 380.977 83.765 380.485 83.805 379.992 83.8 C 379.108 83.847 378.225 83.675 377.422 83.3 C 376.858 83.054 376.493 82.496 376.492 81.88 C 376.488 81.589 376.571 81.303 376.732 81.06 C 376.914 80.811 377.15 80.606 377.422 80.46 C 377.772 80.282 378.146 80.157 378.532 80.09 C 379.013 79.997 379.503 79.954 379.992 79.96 Z M 379.992 83.03 C 380.632 83.063 381.272 82.964 381.872 82.74 C 382.531 82.58 382.768 81.767 382.301 81.277 C 382.184 81.156 382.036 81.07 381.872 81.03 C 381.273 80.803 380.633 80.701 379.992 80.73 C 379.349 80.702 378.706 80.804 378.102 81.03 C 377.652 81.23 377.422 81.51 377.422 81.88 C 377.441 82.283 377.715 82.629 378.102 82.74 C 378.707 82.963 379.349 83.061 379.992 83.03 Z"/>
  <path class="cls-5" d="M 391.452 76.43 C 391.465 77.15 391.183 77.843 390.672 78.35 C 390.428 78.588 390.139 78.774 389.822 78.9 C 389.485 79.035 389.125 79.102 388.762 79.1 C 388.4 79.101 388.04 79.034 387.702 78.9 C 387.39 78.772 387.105 78.585 386.862 78.35 C 386.621 78.111 386.431 77.825 386.302 77.51 C 386.167 77.166 386.099 76.8 386.102 76.43 C 386.101 76.067 386.169 75.708 386.302 75.37 C 386.431 75.056 386.621 74.77 386.862 74.53 C 387.103 74.295 387.389 74.111 387.702 73.99 C 388.04 73.857 388.4 73.789 388.762 73.79 C 389.125 73.788 389.485 73.856 389.822 73.99 C 390.141 74.109 390.43 74.293 390.672 74.53 C 390.914 74.772 391.107 75.057 391.242 75.37 C 391.384 75.706 391.455 76.066 391.452 76.43 Z M 387.022 76.43 C 387.023 76.683 387.067 76.933 387.152 77.17 C 387.236 77.383 387.362 77.577 387.522 77.74 C 387.676 77.903 387.864 78.03 388.072 78.11 C 388.291 78.204 388.525 78.251 388.762 78.25 C 389.003 78.25 389.241 78.203 389.462 78.11 C 389.674 78.03 389.866 77.904 390.022 77.74 C 390.183 77.577 390.309 77.383 390.392 77.17 C 390.482 76.934 390.526 76.683 390.522 76.43 C 390.527 76.184 390.483 75.939 390.392 75.71 C 390.306 75.502 390.181 75.312 390.022 75.15 C 389.863 74.99 389.672 74.864 389.462 74.78 C 389.24 74.691 389.002 74.647 388.762 74.65 C 388.526 74.646 388.291 74.69 388.072 74.78 C 387.866 74.864 387.678 74.99 387.522 75.15 C 387.364 75.312 387.239 75.502 387.152 75.71 C 387.067 75.941 387.023 76.185 387.022 76.43 Z M 394.562 82.76 L 394.562 83.56 L 387.672 83.56 L 387.672 80.11 L 388.612 80.11 L 388.612 82.73 Z M 394.252 80.91 L 393.312 80.91 L 393.312 73.05 L 394.252 73.05 Z"/>
  <path class="cls-5" d="M 408.142 78.27 L 408.142 79.06 L 398.902 79.06 L 398.902 78.27 Z M 403.522 73.27 C 404.023 73.267 404.522 73.314 405.012 73.41 C 405.407 73.486 405.788 73.621 406.142 73.81 C 406.428 73.97 406.675 74.192 406.862 74.46 C 407.03 74.719 407.118 75.022 407.112 75.33 C 407.119 75.633 407.031 75.929 406.862 76.18 C 406.677 76.451 406.431 76.674 406.142 76.83 C 405.788 77.02 405.407 77.154 405.012 77.23 C 404.021 77.419 403.004 77.419 402.012 77.23 C 401.618 77.154 401.237 77.02 400.882 76.83 C 400.591 76.679 400.343 76.455 400.162 76.18 C 399.994 75.929 399.906 75.633 399.912 75.33 C 399.907 75.022 399.994 74.719 400.162 74.46 C 400.345 74.188 400.593 73.965 400.882 73.81 C 401.237 73.621 401.618 73.486 402.012 73.41 C 402.511 73.326 403.017 73.292 403.522 73.31 Z M 403.522 79.91 C 404.404 79.869 405.282 80.04 406.082 80.41 C 407.179 80.899 407.336 82.392 406.364 83.098 C 406.276 83.161 406.182 83.216 406.082 83.26 C 405.283 83.635 404.404 83.807 403.522 83.76 C 403.033 83.765 402.544 83.725 402.062 83.64 C 401.679 83.57 401.308 83.442 400.962 83.26 C 400.707 83.138 400.484 82.956 400.312 82.73 C 400.153 82.491 400.069 82.208 400.072 81.92 C 400.066 81.626 400.15 81.336 400.312 81.09 C 400.489 80.836 400.726 80.63 401.002 80.49 C 401.346 80.307 401.718 80.182 402.102 80.12 C 402.569 80.016 403.045 79.959 403.522 79.95 Z M 403.522 74.04 C 402.865 74.01 402.209 74.126 401.602 74.38 C 401.169 74.516 400.882 74.927 400.902 75.38 C 400.913 75.808 401.194 76.182 401.602 76.31 C 402.209 76.565 402.865 76.681 403.522 76.65 C 404.183 76.681 404.842 76.565 405.452 76.31 C 405.861 76.182 406.142 75.808 406.152 75.38 C 406.173 74.927 405.886 74.516 405.452 74.38 C 404.839 74.14 404.18 74.037 403.522 74.08 Z M 403.522 80.68 C 402.885 80.652 402.249 80.754 401.652 80.98 C 401.279 81.109 401.016 81.446 400.982 81.84 C 401.001 82.238 401.27 82.579 401.652 82.69 C 402.249 82.917 402.885 83.019 403.522 82.99 C 404.163 83.019 404.803 82.917 405.402 82.69 C 405.785 82.579 406.054 82.238 406.072 81.84 C 406.039 81.446 405.776 81.109 405.402 80.98 C 404.799 80.771 404.16 80.686 403.522 80.73 Z"/>
  <path class="cls-5" d="M 415.412 78.04 C 415.062 78.11 414.712 78.18 414.412 78.23 L 413.342 78.34 L 412.132 78.4 L 409.892 78.4 L 409.892 73.73 L 414.392 73.73 L 414.392 74.52 L 410.822 74.52 L 410.822 77.59 L 412.192 77.59 L 413.332 77.59 C 413.692 77.59 414.032 77.53 414.332 77.48 L 415.332 77.3 Z M 416.412 79.36 L 417.312 79.36 L 417.312 83.62 L 410.872 83.62 L 410.872 79.36 L 411.802 79.36 L 411.802 80.73 L 416.392 80.73 Z M 416.412 81.47 L 411.812 81.47 L 411.812 82.82 L 416.402 82.82 Z M 418.852 76.37 L 417.312 76.37 L 417.312 78.73 L 416.382 78.73 L 416.382 73 L 417.312 73 L 417.312 75.53 L 418.832 75.53 Z"/>
  <path class="cls-5" d="M 427.982 79.31 C 427.416 79.094 426.907 78.752 426.492 78.31 C 426.061 77.895 425.721 77.394 425.492 76.84 C 425.276 77.444 424.935 77.996 424.492 78.46 C 424.046 78.906 423.506 79.247 422.912 79.46 L 422.422 78.7 C 422.799 78.555 423.153 78.357 423.472 78.11 C 423.777 77.873 424.049 77.597 424.282 77.29 C 424.51 76.987 424.689 76.649 424.812 76.29 C 424.94 75.934 425.004 75.559 425.002 75.18 L 425.002 74.73 L 422.722 74.73 L 422.722 73.92 L 428.182 73.92 L 428.182 74.73 L 425.932 74.73 L 425.932 75.26 C 425.94 75.602 426.004 75.94 426.122 76.26 C 426.243 76.593 426.411 76.906 426.622 77.19 C 426.847 77.487 427.113 77.749 427.412 77.97 C 427.714 78.208 428.052 78.397 428.412 78.53 Z M 431.132 82.76 L 431.132 83.56 L 424.312 83.56 L 424.312 80.24 L 425.252 80.24 L 425.252 82.73 Z M 429.912 76.01 L 429.912 73.01 L 430.842 73.01 L 430.842 80.89 L 429.912 80.89 L 429.912 76.78 L 427.862 76.78 L 427.862 75.97 Z"/>
  <path class="cls-5" d="M 438.952 77.67 C 438.592 77.75 438.242 77.81 437.892 77.86 C 437.542 77.91 437.192 77.95 436.812 77.98 L 435.602 78.04 L 433.372 78.04 L 433.372 73.65 L 437.892 73.65 L 437.892 74.44 L 434.312 74.44 L 434.312 77.25 C 434.802 77.25 435.252 77.25 435.662 77.25 C 436.072 77.25 436.452 77.25 436.802 77.19 C 437.152 77.13 437.512 77.13 437.802 77.08 L 438.802 76.9 Z M 435.302 82.87 L 441.232 82.87 L 441.232 83.66 L 434.392 83.66 L 434.392 80.91 L 439.932 80.91 L 439.932 79.78 L 434.312 79.78 L 434.312 79.01 L 440.812 79.01 L 440.812 81.65 L 435.312 81.65 Z M 442.372 75.31 L 442.372 76.11 L 440.852 76.11 L 440.852 78.45 L 439.922 78.45 L 439.922 73.04 L 440.852 73.04 L 440.852 75.31 Z"/>
  <path class="cls-5" d="M 556.815 138.618 L 554.815 134.888 L 553.305 134.888 L 553.305 138.618 L 552.305 138.618 L 552.305 129.818 L 554.925 129.818 C 555.322 129.812 555.718 129.856 556.105 129.948 C 556.44 130.015 556.754 130.159 557.025 130.368 C 557.293 130.565 557.504 130.831 557.635 131.138 C 557.788 131.501 557.863 131.893 557.855 132.288 C 557.882 132.882 557.698 133.467 557.335 133.938 C 556.973 134.352 556.49 134.642 555.955 134.768 L 558.095 138.618 Z M 553.265 133.998 L 554.705 133.998 C 555.241 134.034 555.774 133.886 556.215 133.578 C 556.578 133.251 556.77 132.775 556.735 132.288 C 556.785 131.815 556.588 131.351 556.215 131.058 C 555.756 130.798 555.231 130.677 554.705 130.708 L 553.295 130.708 Z"/>
  <path class="cls-5" d="M 561.855 138.768 C 561.457 138.772 561.063 138.697 560.695 138.548 C 560.339 138.391 560.019 138.163 559.755 137.878 C 559.477 137.565 559.263 137.202 559.125 136.808 C 558.962 136.342 558.884 135.851 558.895 135.358 C 558.885 134.874 558.963 134.393 559.125 133.938 C 559.262 133.542 559.472 133.175 559.745 132.858 C 559.993 132.567 560.299 132.332 560.645 132.168 C 560.957 132.017 561.298 131.935 561.645 131.928 C 562.013 131.94 562.375 132.032 562.705 132.198 C 563.007 132.34 563.271 132.553 563.475 132.818 C 563.7 133.115 563.863 133.456 563.955 133.818 C 564.067 134.228 564.121 134.652 564.115 135.078 C 564.115 135.198 564.115 135.318 564.115 135.418 C 564.115 135.518 564.115 135.628 564.115 135.708 L 559.925 135.708 C 559.929 136.315 560.144 136.902 560.535 137.368 C 560.903 137.77 561.429 137.993 561.975 137.978 C 562.261 137.98 562.545 137.933 562.815 137.838 C 563.068 137.745 563.307 137.617 563.525 137.458 L 563.905 138.178 C 563.621 138.373 563.316 138.534 562.995 138.658 C 562.626 138.769 562.238 138.806 561.855 138.768 Z M 563.235 134.848 C 563.271 134.313 563.126 133.781 562.825 133.338 C 562.557 132.988 562.134 132.793 561.695 132.818 C 561.477 132.819 561.262 132.866 561.065 132.958 C 560.857 133.053 560.67 133.189 560.515 133.358 C 560.35 133.544 560.218 133.757 560.125 133.988 C 560.009 134.261 559.938 134.552 559.915 134.848 Z"/>
  <path class="cls-5" d="M 567.295 138.768 C 566.859 138.77 566.427 138.685 566.025 138.518 C 565.645 138.354 565.291 138.135 564.975 137.868 L 565.495 137.148 C 565.742 137.375 566.022 137.563 566.325 137.708 C 566.638 137.851 566.98 137.922 567.325 137.918 C 567.659 137.944 567.99 137.836 568.245 137.618 C 568.438 137.428 568.546 137.168 568.545 136.898 C 568.549 136.745 568.507 136.595 568.425 136.468 C 568.333 136.344 568.221 136.236 568.095 136.148 C 567.955 136.039 567.8 135.952 567.635 135.888 L 567.135 135.658 C 566.91 135.581 566.689 135.49 566.475 135.388 C 566.265 135.282 566.067 135.155 565.885 135.008 C 565.71 134.863 565.564 134.687 565.455 134.488 C 565.337 134.27 565.278 134.025 565.285 133.778 C 565.285 133.531 565.332 133.286 565.425 133.058 C 565.525 132.835 565.668 132.635 565.845 132.468 C 566.04 132.295 566.268 132.163 566.515 132.078 C 566.803 131.974 567.108 131.924 567.415 131.928 C 567.783 131.921 568.149 131.996 568.485 132.148 C 568.794 132.277 569.083 132.449 569.345 132.658 L 568.845 133.358 C 568.635 133.199 568.411 133.062 568.175 132.948 C 567.938 132.833 567.678 132.775 567.415 132.778 C 567.105 132.754 566.799 132.854 566.565 133.058 C 566.384 133.229 566.283 133.468 566.285 133.718 C 566.28 133.864 566.322 134.007 566.405 134.128 C 566.488 134.241 566.594 134.336 566.715 134.408 C 566.85 134.498 566.994 134.575 567.145 134.638 L 567.655 134.848 L 568.335 135.138 C 568.55 135.238 568.752 135.366 568.935 135.518 C 569.116 135.667 569.265 135.85 569.375 136.058 C 569.499 136.298 569.558 136.567 569.545 136.838 C 569.549 137.094 569.501 137.35 569.405 137.588 C 569.304 137.82 569.154 138.028 568.965 138.198 C 568.758 138.378 568.521 138.521 568.265 138.618 C 567.952 138.721 567.624 138.771 567.295 138.768 Z"/>
  <path class="cls-5" d="M 571.005 132.098 L 571.865 132.098 L 571.955 132.848 L 571.955 132.848 C 572.24 132.601 572.552 132.386 572.885 132.208 C 573.19 132.035 573.534 131.939 573.885 131.928 C 574.232 131.93 574.574 132.012 574.885 132.168 C 575.195 132.329 575.462 132.562 575.665 132.848 C 575.878 133.151 576.037 133.49 576.135 133.848 C 576.243 134.296 576.297 134.756 576.295 135.218 C 576.3 135.723 576.226 136.226 576.075 136.708 C 575.944 137.111 575.741 137.488 575.475 137.818 C 575.245 138.104 574.954 138.336 574.625 138.498 C 574.314 138.651 573.971 138.729 573.625 138.728 C 573.327 138.726 573.033 138.658 572.765 138.528 C 572.456 138.383 572.17 138.194 571.915 137.968 L 571.915 139.108 L 571.915 141.318 L 570.915 141.318 Z M 573.565 137.848 C 573.813 137.85 574.058 137.788 574.275 137.668 C 574.498 137.542 574.689 137.368 574.835 137.158 C 575.009 136.914 575.135 136.639 575.205 136.348 C 575.301 135.992 575.348 135.626 575.345 135.258 C 575.346 134.922 575.312 134.587 575.245 134.258 C 575.196 133.99 575.101 133.733 574.965 133.498 C 574.84 133.296 574.669 133.128 574.465 133.008 C 574.231 132.885 573.969 132.826 573.705 132.838 C 573.424 132.841 573.148 132.917 572.905 133.058 C 572.593 133.247 572.304 133.472 572.045 133.728 L 572.045 137.198 C 572.283 137.424 572.561 137.603 572.865 137.728 C 573.089 137.809 573.326 137.85 573.565 137.848 Z"/>
  <path class="cls-5" d="M 580.485 138.768 C 580.11 138.771 579.739 138.696 579.395 138.548 C 579.046 138.388 578.734 138.16 578.475 137.878 C 578.194 137.568 577.979 137.204 577.845 136.808 C 577.676 136.343 577.594 135.852 577.605 135.358 C 577.597 134.864 577.678 134.373 577.845 133.908 C 577.982 133.51 578.196 133.143 578.475 132.828 C 579.254 131.957 580.505 131.687 581.575 132.158 C 581.922 132.314 582.232 132.542 582.485 132.828 C 582.763 133.145 582.98 133.511 583.125 133.908 C 583.283 134.375 583.36 134.865 583.355 135.358 C 583.362 135.851 583.284 136.341 583.125 136.808 C 582.983 137.202 582.765 137.566 582.485 137.878 C 582.23 138.16 581.92 138.388 581.575 138.548 C 581.23 138.695 580.859 138.77 580.485 138.768 Z M 580.485 137.848 C 580.739 137.85 580.99 137.788 581.215 137.668 C 581.438 137.543 581.632 137.373 581.785 137.168 C 581.951 136.93 582.076 136.667 582.155 136.388 C 582.319 135.731 582.319 135.044 582.155 134.388 C 582.076 134.105 581.951 133.838 581.785 133.598 C 581.635 133.387 581.441 133.213 581.215 133.088 C 580.99 132.967 580.739 132.906 580.485 132.908 C 580.23 132.904 579.979 132.966 579.755 133.088 C 579.529 133.213 579.334 133.387 579.185 133.598 C 579.025 133.841 578.904 134.108 578.825 134.388 C 578.66 135.044 578.66 135.731 578.825 136.388 C 578.904 136.665 579.025 136.928 579.185 137.168 C 579.337 137.373 579.532 137.543 579.755 137.668 C 579.979 137.789 580.23 137.851 580.485 137.848 Z"/>
  <path class="cls-5" d="M 584.985 132.098 L 585.835 132.098 L 585.935 133.038 L 585.935 133.038 C 586.216 132.742 586.532 132.48 586.875 132.258 C 587.21 132.037 587.603 131.922 588.005 131.928 C 588.564 131.884 589.108 132.129 589.445 132.578 C 589.786 133.154 589.946 133.819 589.905 134.488 L 589.905 138.618 L 588.905 138.618 L 588.905 134.618 C 588.942 134.157 588.845 133.695 588.625 133.288 C 588.42 133.005 588.083 132.85 587.735 132.878 C 587.428 132.874 587.128 132.965 586.875 133.138 C 586.566 133.35 586.284 133.599 586.035 133.878 L 586.035 138.608 L 585.035 138.608 Z"/>
  <path class="cls-5" d="M 593.565 138.768 C 593.132 138.771 592.703 138.686 592.305 138.518 C 591.925 138.354 591.571 138.135 591.255 137.868 L 591.765 137.148 C 592.017 137.373 592.3 137.561 592.605 137.708 C 592.918 137.853 593.26 137.925 593.605 137.918 C 593.936 137.945 594.264 137.837 594.515 137.618 C 594.712 137.43 594.824 137.17 594.825 136.898 C 594.831 136.744 594.785 136.592 594.695 136.468 C 594.609 136.342 594.5 136.233 594.375 136.148 C 594.232 136.043 594.078 135.956 593.915 135.888 L 593.405 135.658 C 593.183 135.58 592.966 135.49 592.755 135.388 C 592.542 135.287 592.344 135.159 592.165 135.008 C 591.987 134.864 591.837 134.687 591.725 134.488 C 591.61 134.269 591.555 134.024 591.565 133.778 C 591.56 133.53 591.608 133.285 591.705 133.058 C 591.798 132.831 591.941 132.63 592.125 132.468 C 592.319 132.293 592.547 132.16 592.795 132.078 C 593.083 131.973 593.388 131.922 593.695 131.928 C 594.063 131.922 594.428 131.997 594.765 132.148 C 595.074 132.277 595.363 132.449 595.625 132.658 L 595.115 133.358 C 594.909 133.2 594.688 133.063 594.455 132.948 C 594.218 132.834 593.958 132.776 593.695 132.778 C 593.383 132.755 593.074 132.856 592.835 133.058 C 592.661 133.233 592.563 133.471 592.565 133.718 C 592.562 133.862 592.6 134.004 592.675 134.128 C 592.761 134.238 592.866 134.333 592.985 134.408 C 593.124 134.498 593.271 134.575 593.425 134.638 L 593.935 134.848 L 594.615 135.138 C 594.829 135.241 595.03 135.368 595.215 135.518 C 595.396 135.667 595.545 135.85 595.655 136.058 C 595.775 136.3 595.833 136.568 595.825 136.838 C 595.825 137.095 595.774 137.35 595.675 137.588 C 595.577 137.82 595.431 138.028 595.245 138.198 C 595.035 138.379 594.794 138.521 594.535 138.618 C 594.222 138.723 593.894 138.774 593.565 138.768 Z"/>
  <path class="cls-5" d="M 599.785 138.768 C 599.387 138.772 598.993 138.697 598.625 138.548 C 598.267 138.394 597.947 138.165 597.685 137.878 C 597.404 137.568 597.189 137.204 597.055 136.808 C 596.888 136.343 596.807 135.851 596.815 135.358 C 596.808 134.874 596.889 134.393 597.055 133.938 C 597.188 133.54 597.398 133.173 597.675 132.858 C 597.923 132.567 598.229 132.332 598.575 132.168 C 598.886 132.015 599.228 131.933 599.575 131.928 C 599.968 131.926 600.355 132.019 600.705 132.198 C 601.009 132.337 601.274 132.55 601.475 132.818 C 601.7 133.115 601.863 133.456 601.955 133.818 C 602.07 134.228 602.128 134.652 602.125 135.078 C 602.125 135.198 602.125 135.318 602.125 135.418 C 602.132 135.514 602.132 135.611 602.125 135.708 L 597.945 135.708 C 597.949 136.315 598.164 136.902 598.555 137.368 C 598.923 137.77 599.449 137.993 599.995 137.978 C 600.277 137.98 600.558 137.933 600.825 137.838 C 601.08 137.743 601.322 137.615 601.545 137.458 L 601.925 138.178 C 601.64 138.371 601.335 138.532 601.015 138.658 C 600.617 138.779 600.198 138.817 599.785 138.768 Z M 601.165 134.848 C 601.201 134.313 601.056 133.781 600.755 133.338 C 600.485 132.991 600.064 132.797 599.625 132.818 C 599.172 132.82 598.743 133.017 598.445 133.358 C 598.276 133.543 598.141 133.756 598.045 133.988 C 597.937 134.263 597.87 134.553 597.845 134.848 Z"/>
  <path class="cls-5" d="M 608.875 138.768 C 608.565 138.764 608.26 138.689 607.985 138.548 C 607.66 138.395 607.365 138.185 607.115 137.928 L 607.115 137.928 L 607.025 138.618 L 606.195 138.618 L 606.195 129.068 L 607.195 129.068 L 607.195 131.678 L 607.195 132.858 C 607.475 132.598 607.787 132.376 608.125 132.198 C 608.43 132.026 608.774 131.933 609.125 131.928 C 609.496 131.921 609.863 132.003 610.195 132.168 C 610.5 132.332 610.763 132.565 610.965 132.848 C 611.185 133.147 611.345 133.487 611.435 133.848 C 611.547 134.289 611.601 134.743 611.595 135.198 C 611.606 135.706 611.531 136.213 611.375 136.698 C 611.25 137.105 611.05 137.485 610.785 137.818 C 610.551 138.104 610.257 138.336 609.925 138.498 C 609.602 138.672 609.242 138.765 608.875 138.768 Z M 608.705 137.848 C 608.956 137.85 609.204 137.788 609.425 137.668 C 609.645 137.539 609.836 137.365 609.985 137.158 C 610.155 136.912 610.28 136.637 610.355 136.348 C 610.448 135.992 610.492 135.625 610.485 135.258 C 610.488 134.922 610.458 134.587 610.395 134.258 C 610.343 133.989 610.245 133.732 610.105 133.498 C 609.986 133.292 609.813 133.123 609.605 133.008 C 609.375 132.884 609.116 132.825 608.855 132.838 C 608.57 132.84 608.291 132.916 608.045 133.058 C 607.735 133.245 607.449 133.47 607.195 133.728 L 607.195 137.198 C 607.428 137.425 607.703 137.605 608.005 137.728 C 608.229 137.809 608.466 137.85 608.705 137.848 Z"/>
  <path class="cls-5" d="M 615.605 138.768 C 615.23 138.77 614.859 138.695 614.515 138.548 C 614.166 138.388 613.854 138.16 613.595 137.878 C 613.321 137.563 613.107 137.2 612.965 136.808 C 612.799 136.343 612.721 135.851 612.735 135.358 C 612.724 134.864 612.802 134.373 612.965 133.908 C 613.11 133.513 613.323 133.148 613.595 132.828 C 614.386 131.966 615.641 131.712 616.705 132.198 C 617.052 132.354 617.362 132.582 617.615 132.868 C 617.893 133.185 618.11 133.551 618.255 133.948 C 618.413 134.415 618.49 134.905 618.485 135.398 C 618.492 135.891 618.414 136.381 618.255 136.848 C 618.113 137.242 617.895 137.606 617.615 137.918 C 617.36 138.2 617.05 138.428 616.705 138.588 C 616.354 138.723 615.98 138.784 615.605 138.768 Z M 615.605 137.848 C 615.859 137.85 616.11 137.788 616.335 137.668 C 616.558 137.543 616.752 137.373 616.905 137.168 C 617.071 136.93 617.196 136.667 617.275 136.388 C 617.439 135.731 617.439 135.044 617.275 134.388 C 617.196 134.105 617.071 133.838 616.905 133.598 C 616.755 133.387 616.561 133.213 616.335 133.088 C 616.11 132.967 615.859 132.906 615.605 132.908 C 615.35 132.904 615.099 132.966 614.875 133.088 C 614.649 133.213 614.454 133.387 614.305 133.598 C 614.145 133.841 614.024 134.108 613.945 134.388 C 613.78 135.044 613.78 135.731 613.945 136.388 C 614.024 136.665 614.145 136.928 614.305 137.168 C 614.457 137.373 614.652 137.543 614.875 137.668 C 615.099 137.789 615.35 137.851 615.605 137.848 Z"/>
  <path class="cls-5" d="M 622.215 138.768 C 621.489 138.793 620.795 138.465 620.355 137.888 C 620.12 137.566 619.947 137.203 619.845 136.818 C 619.718 136.341 619.658 135.85 619.665 135.358 C 619.657 134.875 619.731 134.395 619.885 133.938 C 620.012 133.544 620.212 133.177 620.475 132.858 C 620.702 132.566 620.993 132.331 621.325 132.168 C 621.635 132.012 621.977 131.929 622.325 131.928 C 622.651 131.92 622.973 131.992 623.265 132.138 C 623.555 132.289 623.823 132.477 624.065 132.698 L 624.005 131.568 L 624.005 129.068 L 625.005 129.068 L 625.005 138.618 L 624.165 138.618 L 624.055 137.848 L 624.055 137.848 C 623.811 138.107 623.527 138.327 623.215 138.498 C 622.909 138.67 622.565 138.763 622.215 138.768 Z M 622.445 137.848 C 622.73 137.851 623.01 137.775 623.255 137.628 C 623.547 137.445 623.807 137.215 624.025 136.948 L 624.025 133.538 C 623.805 133.317 623.547 133.138 623.265 133.008 C 623.031 132.907 622.779 132.856 622.525 132.858 C 622.28 132.855 622.038 132.917 621.825 133.038 C 621.599 133.163 621.404 133.337 621.255 133.548 C 621.079 133.784 620.95 134.053 620.875 134.338 C 620.775 134.661 620.728 134.999 620.735 135.338 C 620.699 135.981 620.852 136.62 621.175 137.178 C 621.449 137.611 621.932 137.866 622.445 137.848 Z"/>
  <path class="cls-5" d="M 627.805 141.428 L 628.805 138.558 L 626.315 132.098 L 627.395 132.098 L 628.665 135.648 L 628.955 136.548 C 629.055 136.868 629.155 137.178 629.255 137.478 L 629.315 137.478 C 629.395 137.178 629.485 136.878 629.575 136.558 L 629.835 135.648 L 630.945 132.098 L 631.945 132.098 L 628.795 141.428 Z"/>
  <path class="cls-5" d="M 638.435 128.978 L 639.325 128.978 L 639.325 138.978 L 638.435 138.978 L 638.435 133.728 L 637.145 133.728 C 637.135 134.211 637.068 134.691 636.945 135.158 C 636.857 135.536 636.708 135.897 636.505 136.228 C 636.337 136.503 636.108 136.736 635.835 136.908 C 635.578 137.06 635.284 137.14 634.985 137.138 C 634.663 137.141 634.347 137.05 634.075 136.878 C 633.791 136.683 633.555 136.427 633.385 136.128 C 633.182 135.757 633.034 135.36 632.945 134.948 C 632.84 134.428 632.789 133.898 632.795 133.368 C 632.79 132.847 632.84 132.328 632.945 131.818 C 633.034 131.405 633.182 131.008 633.385 130.638 C 633.553 130.34 633.789 130.086 634.075 129.898 C 634.613 129.572 635.287 129.572 635.825 129.898 C 636.089 130.064 636.315 130.286 636.485 130.548 C 636.678 130.86 636.829 131.196 636.935 131.548 C 637.05 131.996 637.121 132.455 637.145 132.918 L 638.435 132.918 Z M 634.985 136.198 C 635.446 136.184 635.848 135.879 635.985 135.438 C 636.253 134.775 636.376 134.062 636.345 133.348 C 636.35 132.959 636.317 132.57 636.245 132.188 C 636.195 131.881 636.108 131.582 635.985 131.298 C 635.889 131.081 635.746 130.89 635.565 130.738 C 635.413 130.612 635.222 130.545 635.025 130.548 C 634.568 130.566 634.17 130.864 634.025 131.298 C 633.773 131.933 633.653 132.614 633.675 133.298 C 633.645 134.011 633.764 134.723 634.025 135.388 C 634.147 135.83 634.528 136.152 634.985 136.198 Z M 641.355 128.718 L 641.355 139.488 L 640.465 139.488 L 640.465 128.738 Z"/>
  <path class="cls-5" d="M 553.445 143.018 C 553.157 143.205 552.912 143.45 552.725 143.738 C 552.552 144.024 552.465 144.354 552.475 144.688 L 552.585 144.688 C 552.757 144.687 552.923 144.747 553.055 144.858 C 553.195 144.984 553.269 145.169 553.255 145.358 C 553.266 145.554 553.202 145.747 553.075 145.898 C 552.945 146.026 552.767 146.095 552.585 146.088 C 552.347 146.094 552.124 145.977 551.995 145.778 C 551.839 145.508 551.765 145.199 551.785 144.888 C 551.775 144.401 551.895 143.921 552.135 143.498 C 552.386 143.091 552.729 142.749 553.135 142.498 Z M 555.675 143.018 C 555.392 143.208 555.151 143.452 554.965 143.738 C 554.796 144.026 554.71 144.354 554.715 144.688 L 554.825 144.688 C 554.996 144.689 555.162 144.749 555.295 144.858 C 555.439 144.982 555.517 145.167 555.505 145.358 C 555.513 145.555 555.445 145.749 555.315 145.898 C 554.993 146.194 554.484 146.137 554.235 145.778 C 554.087 145.505 554.018 145.197 554.035 144.888 C 554.019 144.401 554.141 143.919 554.385 143.498 C 554.637 143.092 554.979 142.75 555.385 142.498 Z"/>
  <path class="cls-5" d="M 560.705 153.198 C 559.701 153.222 558.745 152.765 558.135 151.968 C 557.798 151.539 557.547 151.051 557.395 150.528 C 557.216 149.907 557.129 149.264 557.135 148.618 C 557.128 147.975 557.215 147.335 557.395 146.718 C 557.549 146.202 557.8 145.72 558.135 145.298 C 558.434 144.909 558.821 144.597 559.265 144.388 C 559.716 144.18 560.208 144.074 560.705 144.078 C 561.201 144.076 561.693 144.182 562.145 144.388 C 562.588 144.597 562.975 144.909 563.275 145.298 C 563.606 145.72 563.854 146.202 564.005 146.718 C 564.192 147.333 564.283 147.974 564.275 148.618 C 564.283 149.264 564.192 149.908 564.005 150.528 C 563.856 151.05 563.608 151.539 563.275 151.968 C 562.973 152.356 562.587 152.671 562.145 152.888 C 561.694 153.098 561.202 153.204 560.705 153.198 Z M 560.705 152.198 C 561.055 152.196 561.398 152.107 561.705 151.938 C 562.02 151.762 562.29 151.515 562.495 151.218 C 562.724 150.868 562.893 150.483 562.995 150.078 C 563.225 149.091 563.225 148.064 562.995 147.078 C 562.891 146.679 562.722 146.301 562.495 145.958 C 562.29 145.663 562.019 145.42 561.705 145.248 C 561.073 144.944 560.337 144.944 559.705 145.248 C 559.395 145.423 559.128 145.666 558.925 145.958 C 558.697 146.301 558.528 146.679 558.425 147.078 C 558.182 148.063 558.182 149.092 558.425 150.078 C 558.527 150.483 558.696 150.868 558.925 151.218 C 559.128 151.512 559.395 151.758 559.705 151.938 C 560.011 152.106 560.355 152.196 560.705 152.198 Z"/>
  <path class="cls-5" d="M 566.085 144.198 L 567.145 144.198 L 567.145 148.618 L 567.145 148.618 L 570.705 144.198 L 571.895 144.198 L 569.285 147.548 L 572.285 152.998 L 571.095 152.998 L 568.605 148.408 L 567.165 150.208 L 567.165 152.998 L 566.105 152.998 Z"/>
  <path class="cls-5" d="M 572.875 145.548 C 573.158 145.355 573.402 145.111 573.595 144.828 C 573.756 144.541 573.839 144.217 573.835 143.888 L 573.705 143.888 C 573.534 143.891 573.368 143.826 573.245 143.708 C 573.1 143.58 573.025 143.39 573.045 143.198 C 573.034 143.001 573.098 142.808 573.225 142.658 C 573.352 142.532 573.526 142.463 573.705 142.468 C 573.944 142.463 574.168 142.585 574.295 142.788 C 574.453 143.056 574.53 143.366 574.515 143.678 C 574.526 144.164 574.405 144.645 574.165 145.068 C 573.919 145.478 573.575 145.822 573.165 146.068 Z M 575.115 145.548 C 575.398 145.355 575.642 145.111 575.835 144.828 C 576.004 144.544 576.091 144.218 576.085 143.888 L 575.965 143.888 C 575.794 143.888 575.63 143.824 575.505 143.708 C 575.357 143.581 575.28 143.391 575.295 143.198 C 575.282 142.999 575.351 142.804 575.485 142.658 C 575.612 142.532 575.786 142.463 575.965 142.468 C 576.204 142.463 576.428 142.585 576.555 142.788 C 576.71 143.058 576.783 143.367 576.765 143.678 C 576.776 144.164 576.655 144.645 576.415 145.068 C 576.169 145.478 575.825 145.822 575.415 146.068 Z"/>
  <path class="cls-5" d="M 589.925 148.648 L 589.925 149.438 L 585.815 149.438 L 585.815 151.608 L 584.885 151.608 L 584.885 149.438 L 580.635 149.438 L 580.635 148.648 Z M 582.765 152.858 L 588.895 152.858 L 588.895 153.658 L 581.815 153.658 L 581.815 150.588 L 582.765 150.588 Z M 588.765 147.428 L 581.885 147.428 L 581.885 143.648 L 588.705 143.648 Z M 587.835 144.428 L 582.835 144.428 L 582.835 146.618 L 587.835 146.618 Z"/>
  <path class="cls-5" d="M 594.585 146.428 C 594.588 146.868 594.656 147.306 594.785 147.728 C 594.923 148.163 595.115 148.579 595.355 148.968 C 595.59 149.354 595.872 149.711 596.195 150.028 C 596.485 150.331 596.822 150.584 597.195 150.778 L 596.665 151.578 C 596.367 151.425 596.092 151.233 595.845 151.008 C 595.582 150.773 595.341 150.515 595.125 150.238 C 594.902 149.949 594.704 149.641 594.535 149.318 C 594.361 148.997 594.214 148.662 594.095 148.318 C 593.984 148.707 593.837 149.086 593.655 149.448 C 593.487 149.801 593.282 150.136 593.045 150.448 C 592.825 150.744 592.581 151.022 592.315 151.278 C 592.066 151.51 591.786 151.709 591.485 151.868 L 590.935 151.088 C 591.31 150.882 591.648 150.615 591.935 150.298 C 592.265 149.956 592.554 149.577 592.795 149.168 C 593.034 148.75 593.229 148.307 593.375 147.848 C 593.515 147.397 593.589 146.929 593.595 146.458 L 593.595 145.088 L 591.255 145.088 L 591.255 144.288 L 596.785 144.288 L 596.785 145.088 L 594.515 145.088 Z M 600.695 148.308 L 599.005 148.308 L 599.005 153.908 L 598.075 153.908 L 598.075 143.198 L 599.005 143.198 L 599.005 147.538 L 600.705 147.538 Z"/>
  <path class="cls-5" d="M 606.565 147.438 C 606.32 147.741 606.008 147.984 605.655 148.148 C 605.269 148.324 604.848 148.41 604.425 148.398 C 604.063 148.402 603.704 148.341 603.365 148.218 C 603.054 148.103 602.769 147.93 602.525 147.708 C 602.295 147.494 602.111 147.235 601.985 146.948 C 601.712 146.309 601.712 145.586 601.985 144.948 C 602.108 144.656 602.292 144.393 602.525 144.178 C 602.769 143.955 603.054 143.782 603.365 143.668 C 603.704 143.544 604.063 143.483 604.425 143.488 C 604.841 143.486 605.253 143.571 605.635 143.738 C 605.984 143.891 606.292 144.124 606.535 144.418 L 609.105 144.418 L 609.105 143.118 L 610.045 143.118 L 610.045 148.638 L 609.105 148.638 L 609.105 147.418 Z M 602.705 145.958 C 602.705 146.184 602.749 146.408 602.835 146.618 C 602.922 146.812 603.044 146.988 603.195 147.138 C 603.354 147.294 603.545 147.413 603.755 147.488 C 603.979 147.569 604.216 147.61 604.455 147.608 C 604.69 147.61 604.924 147.57 605.145 147.488 C 605.351 147.411 605.538 147.292 605.695 147.138 C 605.846 146.988 605.968 146.812 606.055 146.618 C 606.14 146.408 606.184 146.184 606.185 145.958 C 606.183 145.728 606.139 145.501 606.055 145.288 C 605.968 145.094 605.846 144.917 605.695 144.768 C 605.534 144.623 605.348 144.511 605.145 144.438 C 604.924 144.356 604.69 144.315 604.455 144.318 C 604.216 144.316 603.979 144.356 603.755 144.438 C 603.548 144.509 603.357 144.621 603.195 144.768 C 603.044 144.917 602.922 145.094 602.835 145.288 C 602.75 145.501 602.706 145.728 602.705 145.958 Z M 610.455 152.958 L 610.455 153.728 L 603.455 153.728 L 603.455 151.028 L 609.095 151.028 L 609.095 149.958 L 603.435 149.958 L 603.435 149.198 L 610.025 149.198 L 610.025 151.778 L 604.375 151.778 L 604.375 152.958 Z M 606.945 145.198 C 607.009 145.446 607.043 145.701 607.045 145.958 C 607.044 146.197 607.014 146.436 606.955 146.668 L 609.105 146.668 L 609.105 145.198 Z"/>
  <path class="cls-5" d="M 615.095 143.968 C 615.461 143.966 615.822 144.055 616.145 144.228 C 616.471 144.417 616.751 144.677 616.965 144.988 C 617.202 145.351 617.381 145.749 617.495 146.168 C 617.761 147.187 617.761 148.258 617.495 149.278 C 617.381 149.696 617.202 150.095 616.965 150.458 C 616.751 150.768 616.471 151.028 616.145 151.218 C 615.488 151.564 614.702 151.564 614.045 151.218 C 613.715 151.033 613.434 150.773 613.225 150.458 C 612.98 150.097 612.797 149.698 612.685 149.278 C 612.431 148.256 612.431 147.189 612.685 146.168 C 612.797 145.747 612.98 145.348 613.225 144.988 C 613.434 144.673 613.715 144.412 614.045 144.228 C 614.368 144.055 614.729 143.966 615.095 143.968 Z M 615.095 144.858 C 614.85 144.853 614.609 144.923 614.405 145.058 C 614.183 145.208 613.999 145.406 613.865 145.638 C 613.695 145.915 613.573 146.219 613.505 146.538 C 613.345 147.32 613.345 148.126 613.505 148.908 C 613.576 149.225 613.698 149.529 613.865 149.808 C 613.999 150.039 614.183 150.237 614.405 150.388 C 614.609 150.523 614.85 150.592 615.095 150.588 C 615.337 150.594 615.574 150.524 615.775 150.388 C 615.994 150.235 616.178 150.037 616.315 149.808 C 616.478 149.528 616.596 149.224 616.665 148.908 C 616.838 148.127 616.838 147.318 616.665 146.538 C 616.6 146.22 616.481 145.916 616.315 145.638 C 616.178 145.408 615.994 145.211 615.775 145.058 C 615.574 144.922 615.337 144.852 615.095 144.858 Z M 620.485 143.138 L 620.485 153.928 L 619.545 153.928 L 619.545 143.138 Z"/>
  <path class="cls-5" d="M 630.555 146.478 C 630.515 146.776 630.42 147.064 630.275 147.328 C 630.136 147.587 629.945 147.815 629.715 147.998 C 629.486 148.191 629.221 148.337 628.935 148.428 C 628.612 148.532 628.274 148.583 627.935 148.578 C 627.574 148.581 627.215 148.52 626.875 148.398 C 626.564 148.283 626.279 148.11 626.035 147.888 C 625.802 147.665 625.618 147.396 625.495 147.098 C 625.36 146.782 625.291 146.441 625.295 146.098 C 625.294 145.754 625.362 145.414 625.495 145.098 C 625.618 144.806 625.802 144.543 626.035 144.328 C 626.279 144.105 626.564 143.932 626.875 143.818 C 627.215 143.696 627.574 143.635 627.935 143.638 C 628.274 143.631 628.612 143.681 628.935 143.788 C 629.222 143.873 629.49 144.013 629.725 144.198 C 629.95 144.374 630.14 144.591 630.285 144.838 C 630.439 145.094 630.538 145.381 630.575 145.678 L 632.665 145.678 L 632.665 143.198 L 633.605 143.198 L 633.605 148.888 L 632.665 148.888 L 632.665 146.528 Z M 627.955 147.768 C 628.193 147.77 628.43 147.729 628.655 147.648 C 628.859 147.567 629.045 147.448 629.205 147.298 C 629.356 147.144 629.478 146.965 629.565 146.768 C 629.738 146.338 629.738 145.857 629.565 145.428 C 629.478 145.231 629.356 145.051 629.205 144.898 C 629.047 144.747 628.86 144.631 628.655 144.558 C 628.43 144.476 628.193 144.436 627.955 144.438 C 627.716 144.434 627.479 144.475 627.255 144.558 C 627.045 144.628 626.854 144.744 626.695 144.898 C 626.543 145.051 626.421 145.231 626.335 145.428 C 626.161 145.857 626.161 146.338 626.335 146.768 C 626.421 146.965 626.543 147.144 626.695 147.298 C 626.856 147.45 627.047 147.569 627.255 147.648 C 627.479 147.73 627.716 147.771 627.955 147.768 Z M 628.955 149.448 L 629.825 149.448 L 629.825 153.758 L 626.285 153.758 L 626.285 149.448 L 627.145 149.448 L 627.145 150.808 L 628.955 150.808 Z M 628.955 151.538 L 627.145 151.538 L 627.145 152.988 L 628.955 152.988 Z M 632.735 150.288 C 632.735 150.578 632.776 150.868 632.855 151.148 C 632.936 151.425 633.054 151.691 633.205 151.938 C 633.362 152.193 633.558 152.422 633.785 152.618 C 634.024 152.827 634.298 152.993 634.595 153.108 L 634.125 153.858 C 633.682 153.665 633.286 153.378 632.965 153.018 C 632.653 152.674 632.418 152.268 632.275 151.828 C 632.106 152.263 631.862 152.666 631.555 153.018 C 631.244 153.373 630.863 153.659 630.435 153.858 L 629.955 153.108 C 630.248 152.983 630.518 152.811 630.755 152.598 C 630.98 152.397 631.176 152.164 631.335 151.908 C 631.492 151.668 631.61 151.405 631.685 151.128 C 631.764 150.855 631.805 150.572 631.805 150.288 L 631.805 149.378 L 632.735 149.378 Z"/>
  <path class="cls-5" d="M 644.905 148.618 L 644.905 149.418 L 635.635 149.418 L 635.635 148.618 Z M 637.755 152.838 L 643.895 152.838 L 643.895 153.638 L 636.815 153.638 L 636.815 150.498 L 637.755 150.498 Z M 643.845 147.188 L 636.845 147.188 L 636.845 143.538 L 637.785 143.538 L 637.785 146.378 L 643.785 146.378 Z"/>
  <path class="cls-5" d="M 653.615 145.928 C 653.274 146.8 652.712 147.568 651.985 148.158 C 651.157 148.81 650.209 149.293 649.195 149.578 L 648.825 148.808 C 649.395 148.626 649.948 148.392 650.475 148.108 C 650.923 147.859 651.336 147.554 651.705 147.198 C 652.045 146.87 652.329 146.488 652.545 146.068 C 652.745 145.656 652.874 145.213 652.925 144.758 L 649.315 144.758 L 649.315 143.968 L 653.935 143.968 C 653.945 144.164 653.945 144.361 653.935 144.558 C 653.935 144.758 653.885 144.948 653.855 145.128 L 656.165 145.128 L 656.165 143.128 L 657.095 143.128 L 657.095 149.558 L 656.165 149.558 L 656.165 148.198 L 653.485 148.198 L 653.485 147.388 L 656.165 147.388 L 656.165 145.958 Z M 653.765 149.718 C 654.235 149.715 654.704 149.761 655.165 149.858 C 655.538 149.936 655.896 150.075 656.225 150.268 C 656.504 150.422 656.738 150.646 656.905 150.918 C 657.065 151.179 657.148 151.481 657.145 151.788 C 657.15 152.095 657.067 152.397 656.905 152.658 C 656.735 152.927 656.502 153.15 656.225 153.308 C 655.895 153.497 655.537 153.632 655.165 153.708 C 654.706 153.812 654.236 153.863 653.765 153.858 C 653.294 153.862 652.824 153.812 652.365 153.708 C 651.992 153.632 651.634 153.497 651.305 153.308 C 651.03 153.148 650.797 152.925 650.625 152.658 C 650.463 152.397 650.38 152.095 650.385 151.788 C 650.381 151.481 650.464 151.179 650.625 150.918 C 650.794 150.648 651.028 150.425 651.305 150.268 C 651.634 150.075 651.992 149.936 652.365 149.858 C 652.825 149.762 653.294 149.715 653.765 149.718 Z M 653.765 153.088 C 654.381 153.114 654.994 152.994 655.555 152.738 C 656.29 152.509 656.502 151.571 655.937 151.048 C 655.828 150.947 655.697 150.872 655.555 150.828 C 654.398 150.374 653.112 150.374 651.955 150.828 C 651.533 150.974 651.26 151.382 651.285 151.828 C 651.282 152.267 651.547 152.663 651.955 152.828 C 652.532 153.057 653.156 153.146 653.775 153.088 Z"/>
  <path class="cls-5" d="M 668.435 150.118 L 664.245 150.118 L 664.245 153.918 L 663.315 153.918 L 663.315 150.118 L 659.175 150.118 L 659.175 149.318 L 668.435 149.318 Z M 663.785 148.288 C 663.296 148.291 662.809 148.234 662.335 148.118 C 661.933 148.021 661.548 147.862 661.195 147.648 C 660.899 147.455 660.649 147.199 660.465 146.898 C 660.107 146.279 660.107 145.516 660.465 144.898 C 660.65 144.602 660.899 144.353 661.195 144.168 C 661.545 143.945 661.93 143.783 662.335 143.688 C 662.809 143.571 663.296 143.514 663.785 143.518 C 664.277 143.514 664.767 143.571 665.245 143.688 C 665.646 143.781 666.029 143.943 666.375 144.168 C 666.672 144.35 666.922 144.6 667.105 144.898 C 667.484 145.51 667.484 146.285 667.105 146.898 C 666.923 147.201 666.673 147.458 666.375 147.648 C 666.026 147.865 665.644 148.024 665.245 148.118 C 664.767 148.234 664.277 148.291 663.785 148.288 Z M 663.785 144.358 C 663.428 144.356 663.073 144.393 662.725 144.468 C 662.438 144.53 662.161 144.635 661.905 144.778 C 661.689 144.901 661.504 145.072 661.365 145.278 C 661.126 145.674 661.126 146.171 661.365 146.568 C 661.504 146.773 661.689 146.944 661.905 147.068 C 662.159 147.218 662.436 147.326 662.725 147.388 C 663.424 147.534 664.146 147.534 664.845 147.388 C 665.14 147.327 665.424 147.219 665.685 147.068 C 665.9 146.947 666.082 146.775 666.215 146.568 C 666.468 146.175 666.468 145.67 666.215 145.278 C 666.082 145.07 665.9 144.899 665.685 144.778 C 665.421 144.634 665.138 144.529 664.845 144.468 C 664.496 144.393 664.141 144.356 663.785 144.358 Z"/>
  <path class="cls-5" d="M 557.065 166.528 L 557.065 167.418 L 552.555 167.418 L 552.555 166.528 L 554.415 166.528 L 554.415 160.198 C 554.409 160.094 554.409 159.991 554.415 159.888 L 552.895 161.318 L 552.335 160.608 L 554.585 158.608 L 555.415 158.608 L 555.415 166.608 Z"/>
  <path class="cls-5" d="M 567.705 163.198 L 567.705 163.988 L 563.605 163.988 L 563.605 166.078 L 562.705 166.078 L 562.705 163.988 L 558.455 163.988 L 558.455 163.198 Z M 560.525 167.198 L 566.705 167.198 L 566.705 168.008 L 559.645 168.008 L 559.645 165.078 L 560.565 165.078 Z M 566.505 162.198 L 559.705 162.198 L 559.705 157.888 L 560.635 157.888 L 560.635 159.198 L 565.635 159.198 L 565.635 157.838 L 566.555 157.838 Z M 565.585 160.018 L 560.585 160.018 L 560.585 161.428 L 565.585 161.428 Z"/>
  <path class="cls-5" d="M 576.705 158.378 C 576.727 159.69 576.264 160.965 575.405 161.958 C 574.972 162.464 574.463 162.9 573.895 163.248 C 573.271 163.643 572.599 163.956 571.895 164.178 L 571.525 163.398 C 572.091 163.209 572.637 162.964 573.155 162.668 C 573.627 162.397 574.058 162.06 574.435 161.668 C 574.785 161.326 575.078 160.931 575.305 160.498 C 575.517 160.093 575.653 159.652 575.705 159.198 L 571.945 159.198 L 571.945 158.388 Z M 574.005 167.258 L 579.885 167.258 L 579.885 168.068 L 573.075 168.068 L 573.075 164.608 L 574.005 164.608 Z M 581.005 160.818 L 581.005 161.618 L 579.485 161.618 L 579.485 165.398 L 578.555 165.398 L 578.555 157.548 L 579.485 157.548 L 579.485 160.818 Z"/>
  <path class="cls-5" d="M 590.415 157.538 L 590.415 163.958 L 589.475 163.958 L 589.475 162.538 L 586.835 162.538 L 586.835 161.738 L 589.475 161.738 L 589.475 160.268 L 586.975 160.268 C 586.625 161.124 586.056 161.872 585.325 162.438 C 584.486 163.071 583.536 163.543 582.525 163.828 L 582.145 163.038 C 582.725 162.873 583.288 162.652 583.825 162.378 C 584.289 162.135 584.719 161.832 585.105 161.478 C 585.453 161.156 585.744 160.777 585.965 160.358 C 586.172 159.955 586.305 159.518 586.355 159.068 L 582.705 159.068 L 582.705 158.258 L 587.375 158.258 C 587.38 158.662 587.333 159.065 587.235 159.458 L 589.495 159.458 L 589.495 157.538 Z M 583.585 164.438 L 590.415 164.438 L 590.415 168.278 L 589.475 168.278 L 589.475 165.198 L 583.585 165.198 Z"/>
  <path class="cls-5" d="M 600.435 166.528 L 600.435 167.418 L 595.915 167.418 L 595.915 166.528 L 597.775 166.528 L 597.775 160.198 C 597.769 160.094 597.769 159.991 597.775 159.888 L 596.265 161.318 L 595.705 160.608 L 597.945 158.608 L 598.785 158.608 L 598.785 166.608 Z"/>
  <path class="cls-5" d="M 607.705 163.038 C 607.714 163.712 607.633 164.385 607.465 165.038 C 607.336 165.543 607.116 166.021 606.815 166.448 C 606.556 166.806 606.213 167.095 605.815 167.288 C 605.045 167.634 604.164 167.634 603.395 167.288 C 602.999 167.091 602.656 166.803 602.395 166.448 C 602.094 166.021 601.874 165.543 601.745 165.038 C 601.438 163.698 601.438 162.307 601.745 160.968 C 601.874 160.459 602.094 159.978 602.395 159.548 C 602.654 159.192 602.997 158.907 603.395 158.718 C 604.161 158.358 605.048 158.358 605.815 158.718 C 606.214 158.903 606.559 159.189 606.815 159.548 C 607.115 159.978 607.336 160.459 607.465 160.968 C 607.639 161.643 607.72 162.34 607.705 163.038 Z M 606.645 163.038 C 606.657 162.453 606.603 161.87 606.485 161.298 C 606.402 160.898 606.25 160.515 606.035 160.168 C 605.877 159.913 605.657 159.703 605.395 159.558 C 604.916 159.305 604.343 159.305 603.865 159.558 C 603.605 159.706 603.385 159.915 603.225 160.168 C 603.018 160.518 602.869 160.9 602.785 161.298 C 602.571 162.444 602.571 163.621 602.785 164.768 C 602.871 165.165 603.019 165.547 603.225 165.898 C 603.665 166.653 604.622 166.926 605.395 166.518 C 605.661 166.374 605.883 166.159 606.035 165.898 C 606.248 165.549 606.4 165.167 606.485 164.768 C 606.624 164.198 606.697 163.614 606.705 163.028 Z"/>
  <path class="cls-5" d="M 612.485 165.348 L 613.945 165.258 C 614.425 165.258 614.945 165.158 615.375 165.098 L 615.445 165.828 C 614.875 165.928 614.295 166.008 613.715 166.068 C 613.135 166.128 612.555 166.168 611.985 166.198 C 611.415 166.228 610.865 166.198 610.335 166.248 L 608.825 166.248 L 608.685 165.418 L 610.055 165.418 L 611.545 165.418 L 611.545 164.198 C 611.004 164.15 610.494 163.925 610.095 163.558 C 609.734 163.207 609.538 162.72 609.555 162.218 C 609.553 161.935 609.611 161.656 609.725 161.398 C 609.845 161.149 610.019 160.93 610.235 160.758 C 610.465 160.574 610.731 160.438 611.015 160.358 C 611.339 160.262 611.676 160.215 612.015 160.218 C 612.353 160.216 612.69 160.263 613.015 160.358 C 613.295 160.44 613.556 160.576 613.785 160.758 C 614 160.928 614.172 161.147 614.285 161.398 C 614.407 161.653 614.469 161.934 614.465 162.218 C 614.48 162.715 614.288 163.197 613.935 163.548 C 613.535 163.915 613.025 164.14 612.485 164.188 Z M 615.115 159.648 L 608.905 159.648 L 608.905 158.858 L 611.545 158.858 L 611.545 157.548 L 612.485 157.548 L 612.485 158.858 L 615.115 158.858 Z M 610.445 162.258 C 610.433 162.607 610.593 162.94 610.875 163.148 C 611.568 163.587 612.452 163.587 613.145 163.148 C 613.426 162.94 613.587 162.607 613.575 162.258 C 613.592 161.902 613.431 161.56 613.145 161.348 C 612.452 160.908 611.568 160.908 610.875 161.348 C 610.589 161.56 610.428 161.902 610.445 162.258 Z M 616.965 157.548 L 616.965 168.308 L 616.025 168.308 L 616.025 157.548 Z"/>
  <path class="cls-5" d="M 624.705 160.458 C 624.702 160.934 624.745 161.41 624.835 161.878 C 624.92 162.316 625.058 162.742 625.245 163.148 C 625.424 163.529 625.656 163.882 625.935 164.198 C 626.207 164.502 626.528 164.758 626.885 164.958 L 626.345 165.708 C 625.836 165.41 625.398 165.004 625.065 164.518 C 624.703 163.997 624.433 163.419 624.265 162.808 C 624.11 163.493 623.843 164.149 623.475 164.748 C 623.143 165.29 622.687 165.746 622.145 166.078 L 621.575 165.338 C 621.952 165.123 622.291 164.846 622.575 164.518 C 622.853 164.173 623.085 163.793 623.265 163.388 C 623.46 162.95 623.601 162.49 623.685 162.018 C 623.786 161.504 623.836 160.981 623.835 160.458 L 623.835 159.618 L 621.835 159.618 L 621.835 158.808 L 626.575 158.808 L 626.575 159.618 L 624.705 159.618 Z M 630.405 157.538 L 630.405 168.308 L 629.505 168.308 L 629.505 162.698 L 628.145 162.698 L 628.145 167.778 L 627.275 167.778 L 627.275 157.778 L 628.145 157.778 L 628.145 161.888 L 629.505 161.888 L 629.505 157.528 Z"/>
  <path class="cls-5" d="M 637.705 163.818 C 637.142 163.595 636.634 163.254 636.215 162.818 C 635.787 162.399 635.447 161.9 635.215 161.348 C 635.002 161.956 634.661 162.512 634.215 162.978 C 633.774 163.438 633.238 163.796 632.645 164.028 L 632.155 163.258 C 632.514 163.113 632.851 162.917 633.155 162.678 C 633.461 162.439 633.734 162.16 633.965 161.848 C 634.194 161.545 634.373 161.207 634.495 160.848 C 634.623 160.488 634.688 160.109 634.685 159.728 L 634.685 159.198 L 632.405 159.198 L 632.405 158.398 L 637.865 158.398 L 637.865 159.198 L 635.705 159.198 L 635.705 159.728 C 635.707 160.069 635.768 160.407 635.885 160.728 C 636.005 161.066 636.177 161.383 636.395 161.668 C 636.616 161.964 636.879 162.227 637.175 162.448 C 637.48 162.679 637.816 162.864 638.175 162.998 Z M 640.855 167.258 L 640.855 168.068 L 634.035 168.068 L 634.035 164.738 L 634.975 164.738 L 634.975 167.258 Z M 639.635 160.518 L 639.635 157.518 L 640.575 157.518 L 640.575 165.408 L 639.635 165.408 L 639.635 161.288 L 637.635 161.288 L 637.635 160.488 Z"/>
  <path class="cls-5" d="M 651.895 162.878 L 651.895 163.668 L 642.645 163.668 L 642.645 162.878 L 646.795 162.878 L 646.795 161.298 L 647.705 161.298 L 647.705 162.878 Z M 650.975 161.878 C 650.586 161.808 650.205 161.705 649.835 161.568 C 649.466 161.432 649.111 161.261 648.775 161.058 C 648.457 160.865 648.161 160.637 647.895 160.378 C 648.046 159.893 647.616 159.426 647.12 159.537 C 646.744 159.621 646.52 160.009 646.635 160.378 C 646.37 160.639 646.075 160.868 645.755 161.058 C 645.438 161.259 645.103 161.429 644.755 161.568 C 644.381 161.705 643.996 161.808 643.605 161.878 L 643.255 161.098 C 643.712 161.038 644.16 160.917 644.585 160.738 C 644.992 160.574 645.376 160.355 645.725 160.088 C 646.044 159.852 646.319 159.561 646.535 159.228 C 646.727 158.929 646.831 158.583 646.835 158.228 L 646.835 157.748 L 647.835 157.748 L 647.835 158.198 C 647.839 158.553 647.943 158.899 648.135 159.198 C 648.348 159.533 648.623 159.825 648.945 160.058 C 649.675 160.593 650.527 160.937 651.425 161.058 Z M 647.255 164.578 C 648.137 164.536 649.017 164.7 649.825 165.058 C 650.891 165.501 651.077 166.932 650.16 167.634 C 650.057 167.713 649.944 167.778 649.825 167.828 C 648.171 168.468 646.338 168.468 644.685 167.828 C 643.619 167.384 643.432 165.953 644.349 165.251 C 644.452 165.173 644.565 165.107 644.685 165.058 C 645.491 164.693 646.371 164.522 647.255 164.558 Z M 647.255 167.578 C 647.898 167.606 648.54 167.507 649.145 167.288 C 649.595 167.108 649.815 166.828 649.815 166.478 C 649.815 166.128 649.595 165.848 649.145 165.658 C 648.539 165.444 647.897 165.349 647.255 165.378 C 646.613 165.349 645.971 165.444 645.365 165.658 C 644.925 165.848 644.695 166.118 644.695 166.478 C 644.721 166.864 644.991 167.19 645.365 167.288 C 645.974 167.488 646.615 167.57 647.255 167.528 Z"/>
  <path class="cls-5" d="M93.05,113.08v2.84h3v-2.84h.92v7.25H92.13v-7.25Zm0,6.44h3v-2.83h-3Zm6.86-7.36v10.77H99V112.16Z"/>
  <path class="cls-5" d="M111.31,120.69v.8H102v-.8ZM102.48,118a4.91,4.91,0,0,0,1.32-.45,5.47,5.47,0,0,0,1.19-.79,4.09,4.09,0,0,0,.86-1.06,2.46,2.46,0,0,0,.33-1.22V114H102.8v-.81h7.74V114h-3.39v.47a2.4,2.4,0,0,0,.33,1.21,3.93,3.93,0,0,0,.87,1.05,4.89,4.89,0,0,0,1.2.79,5.19,5.19,0,0,0,1.33.44l-.38.79a6,6,0,0,1-1.16-.38,5.62,5.62,0,0,1-1.09-.63,5.74,5.74,0,0,1-.93-.84,3.92,3.92,0,0,1-.65-1,3.78,3.78,0,0,1-.65,1,5.63,5.63,0,0,1-.91.85,7.25,7.25,0,0,1-1.08.63,5.5,5.5,0,0,1-1.15.37Z"/>
  <path class="cls-5" d="M114.09,119.28a23.57,23.57,0,0,0,2.36-.11,23.31,23.31,0,0,0,2.47-.39l.1.84a21.32,21.32,0,0,1-2.57.41c-.81.07-1.63.11-2.45.11h-.84v-7h.93Zm6.81-7.12v10.75H120V112.16Z"/>
  <path class="cls-5" d="M132.28,120.68v.8H123v-.8Zm-.89-2.3a5.22,5.22,0,0,1-1.16-.42,6.06,6.06,0,0,1-1.08-.67,6.52,6.52,0,0,1-.91-.91,4.33,4.33,0,0,1-.64-1.1,4.2,4.2,0,0,1-.65,1.09,5.53,5.53,0,0,1-.91.9A5.75,5.75,0,0,1,125,118a5.15,5.15,0,0,1-1.15.42l-.42-.81a5,5,0,0,0,1.33-.5,5.4,5.4,0,0,0,1.19-.86,4.55,4.55,0,0,0,.86-1.15,2.81,2.81,0,0,0,.33-1.32v-.83h1v.83a2.81,2.81,0,0,0,.33,1.32,4.55,4.55,0,0,0,.86,1.15,5.75,5.75,0,0,0,1.2.87,4.84,4.84,0,0,0,1.34.49Z"/>
  <path class="cls-5" d="M98.26,135.18V136H89v-.81h4.16v-2h-3v-3.33h6.07v-1.68H90.12v-.8h7v3.27H91.07v1.74h6.28v.8H94.08v2Z"/>
  <path class="cls-5" d="M105.28,132.59a4.35,4.35,0,0,1-1.55-1,4.29,4.29,0,0,1-1-1.49,4.39,4.39,0,0,1-1,1.62,4.29,4.29,0,0,1-1.58,1l-.49-.76a4.54,4.54,0,0,0,1.06-.58,3.89,3.89,0,0,0,.81-.81,3.84,3.84,0,0,0,.53-1,3.47,3.47,0,0,0,.18-1.1v-.44H99.87v-.79h5.62v.79h-2.32v.44a3.09,3.09,0,0,0,.19,1,3.66,3.66,0,0,0,.53.94,4.19,4.19,0,0,0,.81.76,3.78,3.78,0,0,0,1,.53Zm-4.25,1h6.84v3.68h-.93v-2.89H101Zm6.84-7.08v6.51h-.93v-6.51Z"/>
  <path class="cls-5" d="M116.06,130a4.32,4.32,0,0,0,.2,1.32,5.26,5.26,0,0,0,.54,1.21,5,5,0,0,0,.83,1,4,4,0,0,0,1.05.7l-.52.76a4.58,4.58,0,0,1-1.55-1.25,5.92,5.92,0,0,1-1-1.89,6.11,6.11,0,0,1-1,2,4.6,4.6,0,0,1-1.54,1.33l-.53-.75a4.7,4.7,0,0,0,1-.76,5.33,5.33,0,0,0,.83-1,5.71,5.71,0,0,0,.54-1.27,4.92,4.92,0,0,0,.19-1.37v-.83h-2.31v-.8h2.3v-1.66h.94v1.66h2.26v.8h-2.26Zm4.89-3.5v10.8H120v-5.66H117.8v-.81H120v-4.33Z"/>
  <path class="cls-5" d="M124.54,133.92h1.23l1.21-.06,1.23-.12,1.3-.19.09.8c-.46.08-.91.14-1.34.19l-1.27.12-1.26.06-1.28,0h-.85V130.6h3.76v-2.24h-3.79v-.81h4.73v3.85h-3.76Zm6.86-7.38v10.79h-.94V126.54Z"/>
  <path class="cls-5" d="M 218.189 159.406 L 219.189 159.406 L 219.189 163.086 L 223.089 163.086 L 223.089 159.406 L 224.189 159.406 L 224.189 168.196 L 223.129 168.196 L 223.129 164.046 L 219.189 164.046 L 219.189 168.196 L 218.189 168.196 Z"/>
  <path class="cls-5" d="M 228.319 168.336 C 228.03 168.348 227.743 168.293 227.479 168.176 C 227.263 168.084 227.077 167.935 226.939 167.746 C 226.792 167.539 226.69 167.304 226.639 167.056 C 226.576 166.763 226.546 166.465 226.549 166.166 L 226.549 162.556 L 225.629 162.556 L 225.629 161.726 L 226.629 161.666 L 226.749 159.836 L 227.619 159.836 L 227.619 161.666 L 229.289 161.666 L 229.289 162.556 L 227.589 162.556 L 227.589 166.186 C 227.572 166.511 227.641 166.835 227.789 167.126 C 227.967 167.355 228.25 167.476 228.539 167.446 C 228.659 167.459 228.779 167.459 228.899 167.446 L 229.249 167.326 L 229.459 168.146 C 229.279 168.206 229.099 168.266 228.899 168.316 C 228.707 168.346 228.512 168.353 228.319 168.336 Z"/>
  <path class="cls-5" d="M 232.359 168.336 C 232.074 168.347 231.79 168.292 231.529 168.176 C 231.312 168.082 231.123 167.934 230.979 167.746 C 230.84 167.536 230.741 167.302 230.689 167.056 C 230.626 166.763 230.596 166.465 230.599 166.166 L 230.599 162.556 L 229.669 162.556 L 229.669 161.726 L 230.669 161.666 L 230.799 159.836 L 231.659 159.836 L 231.659 161.666 L 233.339 161.666 L 233.339 162.556 L 231.659 162.556 L 231.659 166.186 C 231.64 166.513 231.712 166.838 231.869 167.126 C 232.047 167.355 232.33 167.476 232.619 167.446 C 232.739 167.459 232.859 167.459 232.979 167.446 L 233.329 167.326 L 233.529 168.146 L 232.979 168.316 C 232.774 168.349 232.566 168.355 232.359 168.336 Z"/>
  <path class="cls-5" d="M 234.709 161.666 L 235.569 161.666 L 235.659 162.406 L 235.659 162.406 C 235.945 162.162 236.257 161.951 236.589 161.776 C 236.908 161.591 237.27 161.494 237.639 161.496 C 237.986 161.498 238.329 161.58 238.639 161.736 C 238.948 161.891 239.212 162.122 239.409 162.406 C 239.632 162.724 239.794 163.079 239.889 163.456 C 239.997 163.901 240.051 164.358 240.049 164.816 C 240.053 165.324 239.979 165.83 239.829 166.316 C 239.697 166.715 239.493 167.088 239.229 167.416 C 238.999 167.705 238.709 167.94 238.379 168.106 C 238.066 168.252 237.725 168.331 237.379 168.336 C 237.081 168.33 236.788 168.262 236.519 168.136 C 236.208 167.991 235.921 167.798 235.669 167.566 L 235.669 168.716 L 235.669 170.926 L 234.669 170.926 Z M 237.269 167.416 C 237.517 167.417 237.761 167.355 237.979 167.236 C 238.202 167.11 238.393 166.936 238.539 166.726 C 238.713 166.482 238.839 166.207 238.909 165.916 C 239.002 165.56 239.046 165.193 239.039 164.826 C 239.043 164.49 239.013 164.155 238.949 163.826 C 238.902 163.558 238.807 163.3 238.669 163.066 C 238.547 162.862 238.375 162.693 238.169 162.576 C 237.936 162.45 237.674 162.388 237.409 162.396 C 237.127 162.403 236.852 162.482 236.609 162.626 C 236.295 162.812 236.006 163.037 235.749 163.296 L 235.749 166.706 C 235.982 166.935 236.257 167.119 236.559 167.246 C 236.784 167.341 237.025 167.395 237.269 167.406 Z"/>
  <path class="cls-5" d="M 245.949 168.336 C 245.516 168.336 245.087 168.247 244.689 168.076 C 244.306 167.921 243.952 167.705 243.639 167.436 L 244.149 166.716 C 244.404 166.937 244.686 167.125 244.989 167.276 C 245.302 167.421 245.644 167.493 245.989 167.486 C 246.32 167.513 246.649 167.405 246.899 167.186 C 247.096 166.998 247.208 166.738 247.209 166.466 C 247.215 166.312 247.169 166.161 247.079 166.036 C 246.991 165.909 246.883 165.798 246.759 165.706 C 246.612 165.609 246.458 165.522 246.299 165.446 L 245.789 165.226 C 245.569 165.146 245.349 165.056 245.139 164.956 C 244.925 164.853 244.724 164.725 244.539 164.576 C 244.367 164.428 244.222 164.252 244.109 164.056 C 243.994 163.837 243.939 163.592 243.949 163.346 C 243.943 163.098 243.991 162.853 244.089 162.626 C 244.179 162.401 244.32 162.199 244.499 162.036 C 244.698 161.86 244.929 161.724 245.179 161.636 C 245.469 161.539 245.773 161.492 246.079 161.496 C 246.446 161.492 246.81 161.563 247.149 161.706 C 247.456 161.833 247.742 162.005 247.999 162.216 L 247.499 162.926 C 247.293 162.765 247.072 162.624 246.839 162.506 C 246.6 162.4 246.341 162.346 246.079 162.346 C 245.766 162.319 245.456 162.42 245.219 162.626 C 245.042 162.799 244.944 163.038 244.949 163.286 C 244.946 163.427 244.984 163.566 245.059 163.686 C 245.142 163.802 245.247 163.901 245.369 163.976 C 245.508 164.066 245.655 164.143 245.809 164.206 L 246.319 164.416 C 246.549 164.506 246.769 164.596 246.999 164.706 C 247.215 164.805 247.417 164.933 247.599 165.086 C 247.777 165.234 247.926 165.414 248.039 165.616 C 248.158 165.858 248.216 166.126 248.209 166.396 C 248.211 166.657 248.16 166.915 248.059 167.156 C 247.961 167.388 247.815 167.596 247.629 167.766 C 247.421 167.947 247.18 168.086 246.919 168.176 C 246.609 168.29 246.279 168.344 245.949 168.336 Z"/>
  <path class="cls-5" d="M 251.369 168.336 C 251.08 168.348 250.793 168.293 250.529 168.176 C 250.315 168.081 250.129 167.933 249.989 167.746 C 249.842 167.539 249.74 167.304 249.689 167.056 C 249.626 166.763 249.596 166.465 249.599 166.166 L 249.599 162.556 L 248.679 162.556 L 248.679 161.726 L 249.679 161.666 L 249.799 159.836 L 250.669 159.836 L 250.669 161.666 L 252.339 161.666 L 252.339 162.556 L 250.669 162.556 L 250.669 166.186 C 250.652 166.511 250.721 166.835 250.869 167.126 C 251.049 167.358 251.337 167.479 251.629 167.446 C 251.745 167.458 251.863 167.458 251.979 167.446 L 252.329 167.326 L 252.539 168.146 C 252.359 168.206 252.179 168.266 251.979 168.316 C 251.777 168.349 251.572 168.355 251.369 168.336 Z"/>
  <path class="cls-5" d="M 254.859 168.336 C 254.613 168.34 254.368 168.296 254.139 168.206 C 253.926 168.118 253.732 167.989 253.569 167.826 C 253.401 167.655 253.271 167.451 253.189 167.226 C 253.094 166.973 253.046 166.705 253.049 166.436 C 252.999 165.689 253.39 164.981 254.049 164.626 C 254.931 164.217 255.897 164.022 256.869 164.056 C 256.867 163.851 256.851 163.648 256.819 163.446 C 256.783 163.262 256.715 163.086 256.619 162.926 C 256.519 162.771 256.381 162.644 256.219 162.556 C 256.028 162.457 255.814 162.409 255.599 162.416 C 255.257 162.423 254.919 162.487 254.599 162.606 C 254.288 162.711 253.994 162.862 253.729 163.056 L 253.319 162.276 C 253.66 162.054 254.026 161.873 254.409 161.736 C 254.861 161.573 255.338 161.491 255.819 161.496 C 256.162 161.483 256.504 161.548 256.819 161.686 C 257.083 161.809 257.31 161.998 257.479 162.236 C 257.659 162.489 257.788 162.774 257.859 163.076 C 257.951 163.435 257.994 163.805 257.989 164.176 L 257.989 168.176 L 257.129 168.176 L 257.039 167.476 L 257.039 167.476 C 256.737 167.729 256.4 167.938 256.039 168.096 C 255.669 168.266 255.266 168.348 254.859 168.336 Z M 255.189 167.406 C 255.485 167.411 255.778 167.353 256.049 167.236 C 256.364 167.093 256.651 166.897 256.899 166.656 L 256.899 164.716 C 256.442 164.743 255.987 164.803 255.539 164.896 C 255.238 164.949 254.948 165.05 254.679 165.196 C 254.488 165.307 254.332 165.47 254.229 165.666 C 254.144 165.868 254.104 166.086 254.109 166.306 C 254.077 166.616 254.192 166.922 254.419 167.136 C 254.632 167.32 254.907 167.417 255.189 167.406 Z"/>
  <path class="cls-5" d="M 261.819 168.336 C 261.531 168.346 261.244 168.291 260.979 168.176 C 260.767 168.079 260.581 167.931 260.439 167.746 C 260.295 167.539 260.196 167.304 260.149 167.056 C 260.078 166.765 260.044 166.465 260.049 166.166 L 260.049 162.556 L 259.129 162.556 L 259.129 161.726 L 260.129 161.666 L 260.259 159.836 L 261.119 159.836 L 261.119 161.666 L 262.799 161.666 L 262.799 162.556 L 261.089 162.556 L 261.089 166.186 C 261.07 166.513 261.142 166.838 261.299 167.126 C 261.473 167.36 261.76 167.482 262.049 167.446 C 262.165 167.459 262.283 167.459 262.399 167.446 L 262.759 167.326 L 262.959 168.146 C 262.789 168.206 262.599 168.266 262.399 168.316 C 262.207 168.347 262.012 168.354 261.819 168.336 Z"/>
  <path class="cls-5" d="M 265.969 168.336 C 265.412 168.378 264.873 168.133 264.539 167.686 C 264.203 167.115 264.046 166.457 264.089 165.796 L 264.089 161.666 L 265.089 161.666 L 265.089 165.666 C 265.054 166.122 265.148 166.579 265.359 166.986 C 265.564 167.268 265.901 167.424 266.249 167.396 C 266.554 167.401 266.854 167.314 267.109 167.146 C 267.421 166.902 267.697 166.616 267.929 166.296 L 267.929 161.666 L 268.929 161.666 L 268.929 168.176 L 268.189 168.176 L 268.109 167.176 L 268.109 167.176 C 267.848 167.508 267.538 167.798 267.189 168.036 C 266.825 168.264 266.397 168.369 265.969 168.336 Z"/>
  <path class="cls-5" d="M 272.709 168.336 C 272.273 168.334 271.841 168.246 271.439 168.076 C 271.058 167.919 270.703 167.703 270.389 167.436 L 270.909 166.716 C 271.161 166.942 271.444 167.13 271.749 167.276 C 272.062 167.421 272.404 167.493 272.749 167.486 C 273.083 167.512 273.414 167.404 273.669 167.186 C 273.862 166.996 273.971 166.736 273.969 166.466 C 273.974 166.314 273.932 166.164 273.849 166.036 C 273.754 165.911 273.643 165.8 273.519 165.706 C 273.376 165.607 273.226 165.52 273.069 165.446 L 272.559 165.226 C 272.339 165.146 272.119 165.056 271.899 164.956 C 271.689 164.85 271.492 164.723 271.309 164.576 C 271.134 164.431 270.988 164.255 270.879 164.056 C 270.761 163.838 270.702 163.593 270.709 163.346 C 270.708 163.099 270.756 162.854 270.849 162.626 C 270.947 162.402 271.09 162.201 271.269 162.036 C 271.464 161.86 271.692 161.724 271.939 161.636 C 272.229 161.541 272.533 161.494 272.839 161.496 C 273.209 161.492 273.577 161.563 273.919 161.706 C 274.225 161.835 274.511 162.007 274.769 162.216 L 274.269 162.926 C 274.061 162.762 273.837 162.622 273.599 162.506 C 273.36 162.398 273.101 162.343 272.839 162.346 C 272.529 162.318 272.222 162.419 271.989 162.626 C 271.812 162.799 271.714 163.038 271.719 163.286 C 271.711 163.428 271.75 163.568 271.829 163.686 C 271.912 163.802 272.017 163.901 272.139 163.976 C 272.277 164.068 272.424 164.145 272.579 164.206 L 273.079 164.416 C 273.309 164.506 273.539 164.596 273.759 164.706 C 273.979 164.802 274.185 164.93 274.369 165.086 C 274.544 165.234 274.69 165.414 274.799 165.616 C 274.926 165.855 274.988 166.124 274.979 166.396 C 274.981 166.657 274.93 166.915 274.829 167.156 C 274.728 167.388 274.578 167.596 274.389 167.766 C 274.185 167.947 273.947 168.086 273.689 168.176 C 273.375 168.29 273.043 168.344 272.709 168.336 Z"/>
  <path class="cls-5" d="M 284.189 167.206 L 284.189 168.206 L 278.569 168.206 L 278.569 167.406 L 281.459 164.486 C 281.679 164.246 281.879 164.006 282.069 163.786 C 282.244 163.574 282.405 163.35 282.549 163.116 C 282.673 162.902 282.777 162.678 282.859 162.446 C 282.936 162.21 282.973 161.963 282.969 161.716 C 282.97 161.48 282.929 161.247 282.849 161.026 C 282.775 160.844 282.662 160.68 282.519 160.546 C 282.377 160.417 282.21 160.318 282.029 160.256 C 281.838 160.194 281.639 160.164 281.439 160.166 C 281.235 160.163 281.033 160.194 280.839 160.256 C 280.664 160.321 280.502 160.416 280.359 160.536 C 280.227 160.656 280.112 160.794 280.019 160.946 C 279.916 161.106 279.848 161.287 279.819 161.476 C 279.807 161.615 279.807 161.756 279.819 161.896 L 278.819 161.716 C 278.857 161.34 278.962 160.974 279.129 160.636 C 279.275 160.341 279.479 160.08 279.729 159.866 C 279.973 159.654 280.254 159.492 280.559 159.386 C 281.207 159.163 281.911 159.163 282.559 159.386 C 282.865 159.487 283.145 159.654 283.379 159.876 C 283.612 160.091 283.796 160.354 283.919 160.646 C 284.047 160.963 284.112 161.303 284.109 161.646 C 284.115 161.958 284.068 162.269 283.969 162.566 C 283.874 162.851 283.743 163.123 283.579 163.376 C 283.412 163.637 283.228 163.888 283.029 164.126 L 282.359 164.866 L 279.899 167.406 C 280.059 167.354 280.223 167.317 280.389 167.296 C 280.542 167.281 280.696 167.281 280.849 167.296 Z"/>
  <path class="cls-5" d="M 291.189 163.796 C 291.199 164.47 291.118 165.143 290.949 165.796 C 290.82 166.304 290.6 166.786 290.299 167.216 C 290.04 167.572 289.696 167.857 289.299 168.046 C 288.115 168.636 286.678 168.285 285.899 167.216 C 285.598 166.786 285.378 166.304 285.249 165.796 C 284.942 164.46 284.942 163.072 285.249 161.736 C 285.376 161.226 285.596 160.745 285.899 160.316 C 286.158 159.958 286.501 159.669 286.899 159.476 C 287.666 159.116 288.552 159.116 289.319 159.476 C 289.719 159.665 290.064 159.954 290.319 160.316 C 290.621 160.745 290.842 161.226 290.969 161.736 C 291.136 162.409 291.21 163.102 291.189 163.796 Z M 290.129 163.796 C 290.141 163.212 290.087 162.628 289.969 162.056 C 289.886 161.656 289.734 161.273 289.519 160.926 C 289.364 160.669 289.143 160.458 288.879 160.316 C 288.642 160.19 288.377 160.124 288.109 160.126 C 287.844 160.125 287.582 160.19 287.349 160.316 C 287.085 160.458 286.864 160.669 286.709 160.926 C 286.502 161.276 286.353 161.658 286.269 162.056 C 286.151 162.628 286.097 163.212 286.109 163.796 C 286.097 164.373 286.151 164.95 286.269 165.516 C 286.354 165.917 286.502 166.302 286.709 166.656 C 286.994 167.158 287.531 167.465 288.109 167.456 C 288.376 167.456 288.64 167.394 288.879 167.276 C 289.143 167.129 289.364 166.915 289.519 166.656 C 289.734 166.305 289.886 165.919 289.969 165.516 C 290.107 164.953 290.181 164.376 290.189 163.796 Z"/>
  <path class="cls-5" d="M 298.019 163.796 C 298.029 164.47 297.948 165.143 297.779 165.796 C 297.646 166.303 297.426 166.783 297.129 167.216 C 296.869 167.571 296.526 167.856 296.129 168.046 C 295.752 168.228 295.338 168.32 294.919 168.316 C 294.5 168.318 294.087 168.226 293.709 168.046 C 293.313 167.854 292.97 167.569 292.709 167.216 C 292.404 166.788 292.184 166.306 292.059 165.796 C 291.739 164.461 291.739 163.07 292.059 161.736 C 292.182 161.225 292.402 160.743 292.709 160.316 C 292.967 159.957 293.311 159.668 293.709 159.476 C 294.087 159.296 294.5 159.204 294.919 159.206 C 295.338 159.201 295.752 159.294 296.129 159.476 C 296.528 159.666 296.873 159.955 297.129 160.316 C 297.428 160.747 297.648 161.228 297.779 161.736 C 297.953 162.408 298.034 163.101 298.019 163.796 Z M 296.959 163.796 C 296.968 163.211 296.911 162.627 296.789 162.056 C 296.705 161.658 296.556 161.276 296.349 160.926 C 296.19 160.668 295.966 160.458 295.699 160.316 C 295.465 160.19 295.204 160.125 294.939 160.126 C 294.671 160.124 294.406 160.19 294.169 160.316 C 293.908 160.459 293.691 160.67 293.539 160.926 C 293.328 161.274 293.179 161.656 293.099 162.056 C 292.977 162.627 292.92 163.211 292.929 163.796 C 292.92 164.374 292.977 164.951 293.099 165.516 C 293.179 165.918 293.328 166.304 293.539 166.656 C 293.69 166.915 293.908 167.129 294.169 167.276 C 294.408 167.394 294.672 167.456 294.939 167.456 C 295.203 167.456 295.463 167.394 295.699 167.276 C 295.966 167.13 296.19 166.916 296.349 166.656 C 296.556 166.302 296.704 165.917 296.789 165.516 C 296.911 164.951 296.968 164.374 296.959 163.796 Z"/>
  <path class="cls-5" d="M 218.533 172.775 L 220.923 172.775 C 221.357 172.769 221.79 172.813 222.213 172.905 C 222.575 172.977 222.916 173.127 223.213 173.345 C 223.493 173.551 223.713 173.827 223.853 174.145 C 224.022 174.525 224.1 174.939 224.083 175.355 C 224.094 175.769 224.02 176.181 223.863 176.565 C 223.724 176.894 223.508 177.186 223.233 177.415 C 222.939 177.65 222.598 177.82 222.233 177.915 C 221.826 178.027 221.406 178.08 220.983 178.075 L 219.593 178.075 L 219.593 181.565 L 218.533 181.565 Z M 220.843 177.185 C 221.422 177.233 221.998 177.078 222.473 176.745 C 222.857 176.389 223.053 175.875 223.003 175.355 C 223.063 174.846 222.855 174.343 222.453 174.025 C 221.945 173.752 221.37 173.627 220.793 173.665 L 219.593 173.665 L 219.593 177.185 Z"/>
  <path class="cls-5" d="M 225.653 175.055 L 226.503 175.055 L 226.593 176.245 L 226.593 176.245 C 226.781 175.861 227.046 175.52 227.373 175.245 C 227.649 175.001 228.006 174.869 228.373 174.875 C 228.493 174.863 228.614 174.863 228.733 174.875 C 228.838 174.896 228.939 174.934 229.033 174.985 L 228.843 175.985 L 228.563 175.905 C 228.457 175.894 228.35 175.894 228.243 175.905 C 228.104 175.905 227.965 175.928 227.833 175.975 C 227.683 176.037 227.544 176.125 227.423 176.235 C 227.268 176.368 227.133 176.523 227.023 176.695 C 226.877 176.916 226.76 177.154 226.673 177.405 L 226.673 181.585 L 225.673 181.585 Z"/>
  <path class="cls-5" d="M 230.593 173.705 C 230.405 173.711 230.222 173.642 230.083 173.515 C 229.949 173.38 229.877 173.195 229.883 173.005 C 229.868 172.807 229.942 172.613 230.083 172.475 C 230.226 172.354 230.407 172.29 230.593 172.295 C 230.783 172.289 230.968 172.353 231.113 172.475 C 231.251 172.616 231.323 172.808 231.313 173.005 C 231.333 173.407 230.995 173.735 230.593 173.705 Z M 230.073 175.055 L 231.073 175.055 L 231.073 181.565 L 230.073 181.565 Z"/>
  <path class="cls-5" d="M 233.203 175.055 L 234.063 175.055 L 234.153 175.985 L 234.153 175.985 C 234.436 175.69 234.751 175.428 235.093 175.205 C 235.43 174.987 235.823 174.876 236.223 174.885 C 236.782 174.845 237.324 175.089 237.663 175.535 C 238.001 176.112 238.157 176.778 238.113 177.445 L 238.113 181.565 L 237.113 181.565 L 237.113 177.565 C 237.149 177.105 237.056 176.644 236.843 176.235 C 236.637 175.949 236.295 175.793 235.943 175.825 C 235.641 175.819 235.344 175.906 235.093 176.075 C 234.782 176.291 234.497 176.543 234.243 176.825 L 234.243 181.545 L 233.243 181.545 Z"/>
  <path class="cls-5" d="M 242.123 181.725 C 241.835 181.736 241.548 181.681 241.283 181.565 C 241.071 181.468 240.886 181.32 240.743 181.135 C 240.596 180.928 240.494 180.693 240.443 180.445 C 240.381 180.152 240.351 179.854 240.353 179.555 L 240.353 175.945 L 239.423 175.945 L 239.423 175.115 L 240.423 175.055 L 240.543 173.225 L 241.423 173.225 L 241.423 175.055 L 243.103 175.055 L 243.103 175.945 L 241.423 175.945 L 241.423 179.575 C 241.406 179.9 241.475 180.225 241.623 180.515 C 241.803 180.747 242.092 180.868 242.383 180.835 C 242.502 180.831 242.619 180.814 242.733 180.785 L 243.083 180.665 L 243.293 181.485 C 243.113 181.545 242.933 181.605 242.733 181.655 C 242.534 181.705 242.329 181.728 242.123 181.725 Z"/>
  <path class="cls-5" d="M 248.343 171.575 C 248.059 171.759 247.817 172.001 247.633 172.285 C 247.453 172.586 247.363 172.934 247.373 173.285 L 247.493 173.285 C 247.667 173.285 247.834 173.349 247.963 173.465 C 248.102 173.593 248.175 173.777 248.163 173.965 C 248.176 174.163 248.108 174.358 247.973 174.505 C 247.846 174.631 247.673 174.699 247.493 174.695 C 247.257 174.7 247.034 174.583 246.903 174.385 C 246.748 174.115 246.675 173.806 246.693 173.495 C 246.682 173.008 246.803 172.528 247.043 172.105 C 247.289 171.694 247.633 171.351 248.043 171.105 Z M 250.583 171.575 C 250.304 171.764 250.063 172.005 249.873 172.285 C 249.697 172.588 249.61 172.934 249.623 173.285 L 249.723 173.285 C 249.9 173.284 250.071 173.348 250.203 173.465 C 250.349 173.589 250.427 173.774 250.413 173.965 C 250.424 174.165 250.351 174.36 250.213 174.505 C 250.081 174.629 249.905 174.698 249.723 174.695 C 249.489 174.7 249.269 174.582 249.143 174.385 C 248.992 174.114 248.923 173.805 248.943 173.495 C 248.929 173.009 249.046 172.529 249.283 172.105 C 249.534 171.698 249.876 171.355 250.283 171.105 Z"/>
  <path class="cls-5" d="M 255.623 181.725 C 255.122 181.729 254.626 181.62 254.173 181.405 C 253.735 181.192 253.351 180.881 253.053 180.495 C 252.719 180.062 252.468 179.57 252.313 179.045 C 251.967 177.802 251.967 176.488 252.313 175.245 C 252.468 174.726 252.719 174.241 253.053 173.815 C 253.354 173.435 253.737 173.127 254.173 172.915 C 255.092 172.501 256.145 172.501 257.063 172.915 C 257.503 173.127 257.889 173.434 258.193 173.815 C 258.525 174.241 258.773 174.726 258.923 175.245 C 259.283 176.486 259.283 177.804 258.923 179.045 C 258.772 179.569 258.525 180.061 258.193 180.495 C 257.892 180.881 257.505 181.193 257.063 181.405 C 256.614 181.619 256.121 181.728 255.623 181.725 Z M 255.623 180.725 C 255.973 180.723 256.317 180.634 256.623 180.465 C 256.938 180.287 257.206 180.037 257.403 179.735 C 257.638 179.391 257.811 179.008 257.913 178.605 C 258.143 177.618 258.143 176.592 257.913 175.605 C 257.813 175.204 257.64 174.824 257.403 174.485 C 257.205 174.188 256.937 173.944 256.623 173.775 C 255.981 173.442 255.216 173.442 254.573 173.775 C 254.262 173.947 253.994 174.19 253.793 174.485 C 253.56 174.825 253.391 175.204 253.293 175.605 C 253.05 176.59 253.05 177.62 253.293 178.605 C 253.393 179.008 253.562 179.39 253.793 179.735 C 253.994 180.035 254.261 180.285 254.573 180.465 C 254.892 180.652 255.254 180.752 255.623 180.755 Z"/>
  <path class="cls-5" d="M 260.993 172.775 L 262.053 172.775 L 262.053 177.185 L 262.053 177.185 L 265.543 172.775 L 266.723 172.775 L 264.113 176.125 L 267.113 181.565 L 265.933 181.565 L 263.433 176.985 L 262.003 178.785 L 262.003 181.565 L 260.943 181.565 Z"/>
  <path class="cls-5" d="M 267.783 174.105 C 268.066 173.915 268.308 173.67 268.493 173.385 C 268.672 173.083 268.759 172.735 268.743 172.385 L 268.623 172.385 C 268.454 172.388 268.29 172.328 268.163 172.215 C 268.026 172.082 267.953 171.896 267.963 171.705 C 267.951 171.506 268.019 171.311 268.153 171.165 C 268.275 171.036 268.447 170.967 268.623 170.975 C 268.866 170.967 269.095 171.089 269.223 171.295 C 269.379 171.565 269.452 171.874 269.433 172.185 C 269.448 172.67 269.331 173.151 269.093 173.575 C 268.839 173.979 268.497 174.321 268.093 174.575 Z M 270.013 174.105 C 270.297 173.912 270.541 173.668 270.733 173.385 C 270.917 173.085 271.004 172.736 270.983 172.385 L 270.873 172.385 C 270.701 172.39 270.533 172.329 270.403 172.215 C 270.266 172.082 270.193 171.896 270.203 171.705 C 270.191 171.506 270.259 171.311 270.393 171.165 C 270.518 171.035 270.693 170.965 270.873 170.975 C 271.114 170.966 271.34 171.089 271.463 171.295 C 271.619 171.565 271.692 171.874 271.673 172.185 C 271.685 172.671 271.564 173.152 271.323 173.575 C 271.072 173.981 270.73 174.323 270.323 174.575 Z"/>
  <polygon class="cls-4" points="538.28 84.83 538.28 99.23 526.28 92.03 538.28 84.83"/>
  <polygon class="cls-6" points="176.68 99.23 176.68 84.83 164.68 92.03 176.68 99.23"/>
  <polygon class="cls-6" points="164.68 144.83 164.68 159.23 176.68 152.03 164.68 144.83"/>
  <path class="cls-1" d="M 348.547 141.961 L 348.547 141.961 C 354.069 141.961 358.547 146.439 358.547 151.961 L 358.547 151.961 C 358.547 157.484 354.069 161.961 348.547 161.961 L 348.547 161.961 C 343.024 161.961 338.547 157.484 338.547 151.961 L 338.547 151.961 C 338.547 146.439 343.024 141.961 348.547 141.961 Z"/>
  <path class="cls-7" d="M 351.137 147.961 L 348.547 150.551 L 345.937 147.961 L 344.527 149.371 L 347.117 151.961 L 344.527 154.551 L 345.937 155.961 L 348.527 153.371 L 351.117 155.961 L 352.527 154.551 L 349.937 151.961 L 352.527 149.371 Z M 348.547 141.961 C 340.849 141.961 336.037 150.295 339.886 156.961 C 343.735 163.628 353.358 163.628 357.207 156.961 C 358.084 155.441 358.547 153.717 358.547 151.961 C 358.547 146.439 354.069 141.961 348.547 141.961 Z M 348.547 159.961 C 342.388 159.961 338.539 153.295 341.618 147.961 C 344.698 142.628 352.396 142.628 355.475 147.961 C 356.177 149.178 356.547 150.557 356.547 151.961 C 356.547 156.38 352.965 159.961 348.547 159.961 Z" style="fill: rgb(193, 65, 26);"/>
  <circle class="cls-7" cx="533.191" cy="120.768" r="5" style="fill: rgb(35, 57, 118);"/>
</svg>