<?xml version="1.0" encoding="utf-8"?>
<svg id="_迹_1" data-name="卵迹_1" viewBox="96.531 24.57 526.499 392.94" xmlns="http://www.w3.org/2000/svg">
  <defs>
    <style>.cls-1{fill:#f7f7f7;}.cls-2{fill:#767676;}.cls-3,.cls-4,.cls-8{fill:none;}.cls-3,.cls-4{stroke:#9e9e9e;}.cls-3,.cls-4,.cls-7,.cls-8{stroke-miterlimit:10;}.cls-4{stroke-dasharray:4;}.cls-5{fill:#233976;}.cls-6{fill:#0f7c48;}.cls-7{fill:#f6f6f6;opacity:0.4;}.cls-7,.cls-8{stroke:#4064c3;stroke-width:2px;}.cls-9{fill:#c1411a;}</style>
  </defs>
  <title>비대면 플랫폼 웹메뉴얼_outline</title>
  <rect class="cls-1" x="155.87" y="74.32" width="30" height="326" rx="15"/>
  <rect class="cls-1" x="335.48" y="74.32" width="30" height="326" rx="15"/>
  <rect class="cls-1" x="516.79" y="74.32" width="30" height="326" rx="15"/>
  <path d="M331.08,54A5.6,5.6,0,0,1,327,52.22l.88-1a5.06,5.06,0,0,0,1.49,1.06,4.18,4.18,0,0,0,1.76.39,2.77,2.77,0,0,0,1.81-.53,1.68,1.68,0,0,0,.66-1.39,1.61,1.61,0,0,0-.16-.76,1.68,1.68,0,0,0-.41-.54,2.78,2.78,0,0,0-.62-.41l-.77-.37-1.69-.73a6,6,0,0,1-.83-.43,3.45,3.45,0,0,1-.77-.61,2.71,2.71,0,0,1-.57-.84,3,3,0,0,1,.06-2.38,3.11,3.11,0,0,1,.77-1,3.5,3.5,0,0,1,1.17-.65,4.42,4.42,0,0,1,1.48-.23,4.61,4.61,0,0,1,1.94.4,4.74,4.74,0,0,1,1.52,1l-.79,1a4.38,4.38,0,0,0-1.2-.81,3.51,3.51,0,0,0-1.47-.3,2.52,2.52,0,0,0-1.6.47,1.53,1.53,0,0,0-.59,1.26,1.56,1.56,0,0,0,.17.74,2.08,2.08,0,0,0,.45.53,3.19,3.19,0,0,0,.63.38l.68.3,1.68.72a7.86,7.86,0,0,1,1,.5,3.35,3.35,0,0,1,.76.64,2.75,2.75,0,0,1,.52.86,3.25,3.25,0,0,1,.18,1.14,3,3,0,0,1-.28,1.3A3.27,3.27,0,0,1,334,53a3.67,3.67,0,0,1-1.26.71A5.05,5.05,0,0,1,331.08,54Z" style="fill: rgb(118, 118, 118);"/>
  <path d="M340.74,54a4.14,4.14,0,0,1-1.62-.31,3.73,3.73,0,0,1-1.32-.88,4.18,4.18,0,0,1-.89-1.44,5.69,5.69,0,0,1,0-3.82,4.47,4.47,0,0,1,.87-1.44,3.73,3.73,0,0,1,1.26-.91,3.48,3.48,0,0,1,1.47-.32,3.42,3.42,0,0,1,1.47.29,2.94,2.94,0,0,1,1.09.82,3.94,3.94,0,0,1,.67,1.29,5.83,5.83,0,0,1,.23,1.68c0,.16,0,.31,0,.45s0,.27,0,.38H338a3.33,3.33,0,0,0,.85,2.21,2.68,2.68,0,0,0,2,.81,3.57,3.57,0,0,0,1.16-.18,4.32,4.32,0,0,0,1-.5l.53,1a6.65,6.65,0,0,1-1.28.64A4.44,4.44,0,0,1,340.74,54Zm1.94-5.23a3.1,3.1,0,0,0-.57-2,2,2,0,0,0-1.59-.69,2.09,2.09,0,0,0-.89.19,2.19,2.19,0,0,0-.76.52,2.86,2.86,0,0,0-.56.85,3.66,3.66,0,0,0-.29,1.15Z" style="fill: rgb(118, 118, 118);"/>
  <path d="M346.1,45.07h1.2l.13,1.59h.05a4,4,0,0,1,1.09-1.32,2.17,2.17,0,0,1,1.37-.49,2.47,2.47,0,0,1,.5,0,1.16,1.16,0,0,1,.43.15l-.27,1.28a3.11,3.11,0,0,0-.4-.11,2.81,2.81,0,0,0-.45,0,1.71,1.71,0,0,0-.57.1,1.83,1.83,0,0,0-.58.34,2.78,2.78,0,0,0-.56.61,3.52,3.52,0,0,0-.48,1v5.58H346.1Z" style="fill: rgb(118, 118, 118);"/>
  <path d="M351.51,45.07H353l1.63,5c.14.42.27.85.41,1.29s.27.86.4,1.27h.07l.4-1.27c.14-.44.27-.87.4-1.29l1.65-5h1.44l-3.09,8.69h-1.7Z" style="fill: rgb(118, 118, 118);"/>
  <path d="M364.61,54a4.14,4.14,0,0,1-1.62-.31,3.73,3.73,0,0,1-1.32-.88,4.18,4.18,0,0,1-.89-1.44,5.69,5.69,0,0,1,0-3.82,4.47,4.47,0,0,1,.87-1.44,3.83,3.83,0,0,1,1.26-.91,3.48,3.48,0,0,1,1.47-.32,3.38,3.38,0,0,1,1.47.29,2.94,2.94,0,0,1,1.09.82,3.94,3.94,0,0,1,.67,1.29,5.51,5.51,0,0,1,.23,1.68c0,.16,0,.31,0,.45a3.22,3.22,0,0,1-.05.38h-5.87a3.33,3.33,0,0,0,.85,2.21,2.68,2.68,0,0,0,2,.81A3.57,3.57,0,0,0,366,52.6a4.32,4.32,0,0,0,1-.5l.53,1a6.65,6.65,0,0,1-1.28.64A4.44,4.44,0,0,1,364.61,54Zm1.94-5.23a3.1,3.1,0,0,0-.57-2,2,2,0,0,0-1.59-.69,2.09,2.09,0,0,0-.89.19,2.29,2.29,0,0,0-.76.52,2.86,2.86,0,0,0-.56.85,3.66,3.66,0,0,0-.29,1.15Z" style="fill: rgb(118, 118, 118);"/>
  <path d="M370,45.07h1.2l.13,1.59h.05a4.14,4.14,0,0,1,1.09-1.32,2.17,2.17,0,0,1,1.37-.49,2.47,2.47,0,0,1,.5,0,1.16,1.16,0,0,1,.43.15l-.27,1.28a3.11,3.11,0,0,0-.4-.11,2.81,2.81,0,0,0-.45,0,1.71,1.71,0,0,0-.57.1,1.83,1.83,0,0,0-.58.34,2.78,2.78,0,0,0-.56.61,3.83,3.83,0,0,0-.48,1v5.58H370Z" style="fill: rgb(118, 118, 118);"/>
  <path d="M503.59,42h1.53l4.28,7.39,1.24,2.42h.08c0-.6-.08-1.21-.12-1.85s-.07-1.25-.07-1.86V42h1.41V53.76h-1.52l-4.27-7.4L504.88,44h-.06c0,.6.07,1.2.11,1.81S505,47,505,47.61v6.15h-1.41Z" style="fill: rgb(118, 118, 118);"/>
  <path d="M515.75,43.28A1,1,0,0,1,515,43a.91.91,0,0,1-.29-.68.88.88,0,0,1,.29-.7,1.16,1.16,0,0,1,1.44,0,.88.88,0,0,1,.29.7.91.91,0,0,1-.29.68A1,1,0,0,1,515.75,43.28ZM515,45.07h1.46v8.69H515Z" style="fill: rgb(118, 118, 118);"/>
  <path d="M522.84,54a4.05,4.05,0,0,1-1.61-.31,3.74,3.74,0,0,1-1.3-.88,4.17,4.17,0,0,1-.86-1.43,5.47,5.47,0,0,1-.31-1.93,5.07,5.07,0,0,1,.34-1.93,4.4,4.4,0,0,1,.92-1.44,3.69,3.69,0,0,1,1.34-.9,4.24,4.24,0,0,1,1.59-.3,3.19,3.19,0,0,1,1.47.31,4.77,4.77,0,0,1,1.07.72l-.75,1a3.74,3.74,0,0,0-.8-.56,2,2,0,0,0-.94-.22,2.45,2.45,0,0,0-1.09.24,2.57,2.57,0,0,0-.86.68,3.47,3.47,0,0,0-.57,1.06,4.84,4.84,0,0,0,0,2.72,3.08,3.08,0,0,0,.55,1,2.63,2.63,0,0,0,.85.67,2.42,2.42,0,0,0,1.09.24,2.59,2.59,0,0,0,1.12-.25,4,4,0,0,0,.93-.62l.63,1a4.36,4.36,0,0,1-1.3.83A4,4,0,0,1,522.84,54Z" style="fill: rgb(118, 118, 118);"/>
  <path d="M530.68,54a4.22,4.22,0,0,1-1.63-.31,3.82,3.82,0,0,1-1.32-.88,4.34,4.34,0,0,1-.89-1.44,5.86,5.86,0,0,1,0-3.82,4.32,4.32,0,0,1,.88-1.44,3.63,3.63,0,0,1,1.26-.91,3.41,3.41,0,0,1,1.46-.32,3.46,3.46,0,0,1,1.48.29A2.83,2.83,0,0,1,533,46a3.78,3.78,0,0,1,.68,1.29,5.83,5.83,0,0,1,.23,1.68c0,.16,0,.31,0,.45a3.22,3.22,0,0,1,0,.38H528a3.33,3.33,0,0,0,.86,2.21,2.67,2.67,0,0,0,2,.81A3.59,3.59,0,0,0,532,52.6a4.52,4.52,0,0,0,1-.5l.53,1a7,7,0,0,1-1.28.64A4.47,4.47,0,0,1,530.68,54Zm1.93-5.23a3.1,3.1,0,0,0-.57-2,1.94,1.94,0,0,0-1.59-.69,2.13,2.13,0,0,0-.89.19,2.4,2.4,0,0,0-.76.52,3.06,3.06,0,0,0-.56.85,3.66,3.66,0,0,0-.28,1.15Z" style="fill: rgb(118, 118, 118);"/>
  <path d="M536,45.07h1.2l.12,1h0a7.61,7.61,0,0,1,1.3-.84,3.08,3.08,0,0,1,1.47-.37,3.22,3.22,0,0,1,1.48.32,3.13,3.13,0,0,1,1.09.89,4.13,4.13,0,0,1,.66,1.4,6.81,6.81,0,0,1,.23,1.82,5.81,5.81,0,0,1-.32,2,4.37,4.37,0,0,1-.83,1.47,3.64,3.64,0,0,1-1.2.92,3.5,3.5,0,0,1-1.43.31,2.94,2.94,0,0,1-1.2-.27,5.18,5.18,0,0,1-1.2-.75l0,1.52v3H536Zm3.58,7.67a2.11,2.11,0,0,0,1-.24,2.43,2.43,0,0,0,.79-.68,3.1,3.1,0,0,0,.52-1.08,5.36,5.36,0,0,0,.19-1.45A6.53,6.53,0,0,0,542,48a3.18,3.18,0,0,0-.4-1,1.87,1.87,0,0,0-.71-.66,2.23,2.23,0,0,0-1-.23,2.39,2.39,0,0,0-1.13.3,6.17,6.17,0,0,0-1.21.9v4.55a4,4,0,0,0,1.15.71A3,3,0,0,0,539.62,52.74Z" style="fill: rgb(118, 118, 118);"/>
  <path d="M547.68,54a2.7,2.7,0,0,1-1-.18,2.26,2.26,0,0,1-.8-.5,2.33,2.33,0,0,1-.53-.8,2.74,2.74,0,0,1-.19-1.06,2.5,2.5,0,0,1,1.38-2.4,8.82,8.82,0,0,1,4-.76,4.47,4.47,0,0,0-.08-.82,2,2,0,0,0-.28-.7,1.54,1.54,0,0,0-.55-.49,1.94,1.94,0,0,0-.88-.18,4.24,4.24,0,0,0-1.47.25,4.79,4.79,0,0,0-1.22.6l-.58-1a8.49,8.49,0,0,1,1.53-.71,6.09,6.09,0,0,1,2-.32,3.37,3.37,0,0,1,1.36.25,2.41,2.41,0,0,1,.93.73,3.29,3.29,0,0,1,.54,1.13,5.51,5.51,0,0,1,.18,1.46v5.34h-1.2l-.13-.94h0a5.91,5.91,0,0,1-1.35.83A3.87,3.87,0,0,1,547.68,54Zm.42-1.19a3.16,3.16,0,0,0,1.2-.22,4.49,4.49,0,0,0,1.2-.78V49.2a14.92,14.92,0,0,0-1.91.23,4.05,4.05,0,0,0-1.21.41,1.42,1.42,0,0,0-.62.62,1.87,1.87,0,0,0-.18.85,1.36,1.36,0,0,0,.43,1.11A1.65,1.65,0,0,0,548.1,52.78Z" style="fill: rgb(118, 118, 118);"/>
  <path d="M555.6,57.5,557,53.68l-3.48-8.61H555l1.77,4.74c.13.37.27.77.41,1.2s.29.83.42,1.23h.08l.37-1.22c.13-.43.25-.83.37-1.21L560,45.07h1.43L557,57.5Z" style="fill: rgb(118, 118, 118);"/>
  <path d="M122.36,54a5,5,0,0,1-2-.41,4.51,4.51,0,0,1-1.62-1.19,5.73,5.73,0,0,1-1.08-1.91,8.15,8.15,0,0,1-.38-2.56,7.76,7.76,0,0,1,.39-2.55,5.8,5.8,0,0,1,1.09-1.92,4.59,4.59,0,0,1,1.65-1.21,5.2,5.2,0,0,1,2.07-.41,4.17,4.17,0,0,1,1,.12,4.29,4.29,0,0,1,.89.33,4.11,4.11,0,0,1,.73.46,4.4,4.4,0,0,1,.59.54l-.8,1a3.85,3.85,0,0,0-1-.8,2.81,2.81,0,0,0-1.35-.32,3.46,3.46,0,0,0-1.52.33,3.2,3.2,0,0,0-1.16,1,4.36,4.36,0,0,0-.76,1.49,7.16,7.16,0,0,0-.26,2,7.34,7.34,0,0,0,.26,2,4.76,4.76,0,0,0,.72,1.52,3.2,3.2,0,0,0,2.67,1.29,3.19,3.19,0,0,0,1.5-.35,4.73,4.73,0,0,0,1.22-1l.81.93a5.13,5.13,0,0,1-1.57,1.25A4.63,4.63,0,0,1,122.36,54Z" style="fill: rgb(118, 118, 118);"/>
  <path d="M128,53.76V41h1.46V53.76Z" style="fill: rgb(118, 118, 118);"/>
  <path d="M133.12,43.28a1,1,0,0,1-.72-.26.87.87,0,0,1-.29-.68.85.85,0,0,1,.29-.7,1,1,0,0,1,.72-.25,1.07,1.07,0,0,1,.72.25.87.87,0,0,1,.28.7.9.9,0,0,1-.28.68A1.08,1.08,0,0,1,133.12,43.28Zm-.74,1.79h1.46v8.69h-1.46Z" style="fill: rgb(118, 118, 118);"/>
  <path d="M140.28,54a4.21,4.21,0,0,1-1.62-.31,3.73,3.73,0,0,1-1.32-.88,4.34,4.34,0,0,1-.89-1.44,5.69,5.69,0,0,1,0-3.82,4.32,4.32,0,0,1,.88-1.44,3.69,3.69,0,0,1,1.25-.91,3.72,3.72,0,0,1,2.95,0,2.9,2.9,0,0,1,1.08.82,3.76,3.76,0,0,1,.67,1.29,5.5,5.5,0,0,1,.24,1.68c0,.16,0,.31,0,.45a3.22,3.22,0,0,1-.05.38h-5.87a3.33,3.33,0,0,0,.86,2.21,2.66,2.66,0,0,0,2,.81,3.59,3.59,0,0,0,1.17-.18,4.52,4.52,0,0,0,1-.5l.52,1a6.65,6.65,0,0,1-1.28.64A4.44,4.44,0,0,1,140.28,54Zm1.94-5.23a3.1,3.1,0,0,0-.57-2,2,2,0,0,0-1.59-.69,2.09,2.09,0,0,0-.89.19,2.4,2.4,0,0,0-.76.52,3.06,3.06,0,0,0-.56.85,4,4,0,0,0-.29,1.15Z" style="fill: rgb(118, 118, 118);"/>
  <path d="M145.64,45.07h1.2l.13,1.25H147a7.93,7.93,0,0,1,1.32-1,2.91,2.91,0,0,1,1.59-.43,2.37,2.37,0,0,1,2,.86,4.32,4.32,0,0,1,.64,2.55v5.5h-1.46V48.45a3.13,3.13,0,0,0-.39-1.78,1.45,1.45,0,0,0-1.26-.54,2.26,2.26,0,0,0-1.2.33,7.76,7.76,0,0,0-1.18,1v6.3h-1.46Z" style="fill: rgb(118, 118, 118);"/>
  <path d="M158.16,54a2.9,2.9,0,0,1-1.18-.21,1.86,1.86,0,0,1-.76-.58,2.59,2.59,0,0,1-.42-.92,5.38,5.38,0,0,1-.12-1.19V46.26h-1.3V45.15l1.36-.08.17-2.43h1.22v2.43h2.35v1.19h-2.35V51.1a2.26,2.26,0,0,0,.29,1.25,1.17,1.17,0,0,0,1.06.43,1.86,1.86,0,0,0,.49-.07l.5-.15.29,1.09c-.25.08-.51.16-.79.22A3.32,3.32,0,0,1,158.16,54Z" style="fill: rgb(118, 118, 118);"/>
  <path d="M165.16,42h3.49a8.29,8.29,0,0,1,1.64.16,3.75,3.75,0,0,1,1.27.51,2.42,2.42,0,0,1,.83.88,3,3,0,0,1-.16,2.89,2.26,2.26,0,0,1-1.27,1v.08a3.22,3.22,0,0,1,1.72.9,2.62,2.62,0,0,1,.67,1.9,3.26,3.26,0,0,1-.32,1.51,3,3,0,0,1-.92,1.07,3.85,3.85,0,0,1-1.4.64,6.83,6.83,0,0,1-1.8.22h-3.75Zm3.23,5a3.6,3.6,0,0,0,2.18-.51,1.71,1.71,0,0,0,.66-1.41,1.55,1.55,0,0,0-.7-1.46,4.06,4.06,0,0,0-2.07-.42h-1.81V47Zm.31,5.56a4.27,4.27,0,0,0,2.36-.56,1.93,1.93,0,0,0,.84-1.75,1.77,1.77,0,0,0-.82-1.61,4.69,4.69,0,0,0-2.38-.5h-2v4.42Z" style="fill: rgb(118, 118, 118);"/>
  <path d="M175.55,45.07h1.2l.12,1.59h0a4.17,4.17,0,0,1,1.1-1.32,2.17,2.17,0,0,1,1.37-.49,2.47,2.47,0,0,1,.5,0,1.12,1.12,0,0,1,.42.15L180,46.32a2.73,2.73,0,0,0-.4-.11,2.64,2.64,0,0,0-.45,0,1.62,1.62,0,0,0-.56.1,1.88,1.88,0,0,0-.59.34,3.05,3.05,0,0,0-.56.61,4.2,4.2,0,0,0-.48,1v5.58h-1.45Z" style="fill: rgb(118, 118, 118);"/>
  <path d="M185.13,54a3.84,3.84,0,0,1-1.53-.31,4,4,0,0,1-1.29-.88,4.21,4.21,0,0,1-.88-1.43,5.81,5.81,0,0,1,0-3.86,4.16,4.16,0,0,1,.88-1.44,3.77,3.77,0,0,1,1.29-.9,4.05,4.05,0,0,1,3.06,0,3.77,3.77,0,0,1,1.29.9,4.16,4.16,0,0,1,.88,1.44,5.81,5.81,0,0,1,0,3.86,4.21,4.21,0,0,1-.88,1.43,4,4,0,0,1-1.29.88A3.84,3.84,0,0,1,185.13,54Zm0-1.23a2.16,2.16,0,0,0,1-.24,2.45,2.45,0,0,0,.8-.67,3,3,0,0,0,.52-1,4.43,4.43,0,0,0,.19-1.36,4.47,4.47,0,0,0-.19-1.36A3.18,3.18,0,0,0,187,47a2.36,2.36,0,0,0-.8-.68,2.16,2.16,0,0,0-1-.24,2.19,2.19,0,0,0-1,.24,2.36,2.36,0,0,0-.8.68,3.87,3.87,0,0,0-.51,1.06,4.81,4.81,0,0,0-.18,1.36,4.76,4.76,0,0,0,.18,1.36,3.67,3.67,0,0,0,.51,1,2.45,2.45,0,0,0,.8.67A2.19,2.19,0,0,0,185.13,52.74Z" style="fill: rgb(118, 118, 118);"/>
  <path d="M190.41,45.07h1.49l1.29,5c.09.41.18.82.26,1.22s.17.8.26,1.21h.08c.09-.41.19-.81.28-1.22s.19-.81.31-1.21l1.34-5h1.43l1.36,5,.3,1.22.3,1.21h.07c.09-.41.19-.81.27-1.21l.27-1.22,1.28-5h1.38L200,53.76h-1.76L197,49.07c-.12-.4-.22-.81-.31-1.21s-.18-.84-.28-1.28h-.08c-.1.44-.19.87-.28,1.28s-.2.83-.32,1.24l-1.21,4.66h-1.71Z" style="fill: rgb(118, 118, 118);"/>
  <path d="M206.55,54a4.66,4.66,0,0,1-1.77-.35,5.51,5.51,0,0,1-1.47-.85l.72-1a5.22,5.22,0,0,0,1.17.74,3.3,3.3,0,0,0,1.4.28,1.8,1.8,0,0,0,1.29-.4,1.29,1.29,0,0,0,.42-1,.92.92,0,0,0-.17-.57,1.94,1.94,0,0,0-.46-.44,3.82,3.82,0,0,0-.64-.34l-.71-.3c-.31-.1-.62-.23-.92-.36a4.11,4.11,0,0,1-.83-.51,2.49,2.49,0,0,1-.61-.69,1.88,1.88,0,0,1-.23-.95,2.27,2.27,0,0,1,.78-1.74,2.73,2.73,0,0,1,.95-.53,3.79,3.79,0,0,1,1.26-.19,3.85,3.85,0,0,1,1.5.28,5.3,5.3,0,0,1,1.2.68l-.7.94a5.35,5.35,0,0,0-.94-.55,2.57,2.57,0,0,0-1.06-.22,1.72,1.72,0,0,0-1.2.37,1.17,1.17,0,0,0-.38.88.85.85,0,0,0,.16.54,1.49,1.49,0,0,0,.43.39,3.85,3.85,0,0,0,.61.3l.72.28c.32.12.63.25,1,.39a3.59,3.59,0,0,1,.85.5,2.59,2.59,0,0,1,.61.71,2.09,2.09,0,0,1,.24,1,2.46,2.46,0,0,1-.21,1,2.29,2.29,0,0,1-.6.82,3.09,3.09,0,0,1-1,.55A4,4,0,0,1,206.55,54Z" style="fill: rgb(118, 118, 118);"/>
  <path d="M215.27,54a4.21,4.21,0,0,1-1.62-.31,3.73,3.73,0,0,1-1.32-.88,4.34,4.34,0,0,1-.89-1.44,5.69,5.69,0,0,1,0-3.82,4.32,4.32,0,0,1,.88-1.44,3.63,3.63,0,0,1,1.26-.91,3.41,3.41,0,0,1,1.46-.32,3.46,3.46,0,0,1,1.48.29,2.9,2.9,0,0,1,1.08.82,3.76,3.76,0,0,1,.67,1.29,5.5,5.5,0,0,1,.24,1.68c0,.16,0,.31,0,.45a3.22,3.22,0,0,1-.05.38h-5.87a3.33,3.33,0,0,0,.86,2.21,2.66,2.66,0,0,0,2,.81,3.59,3.59,0,0,0,1.17-.18,4.52,4.52,0,0,0,1-.5l.52,1a6.65,6.65,0,0,1-1.28.64A4.44,4.44,0,0,1,215.27,54Zm1.94-5.23a3.1,3.1,0,0,0-.57-2,2,2,0,0,0-1.59-.69,2.09,2.09,0,0,0-.89.19,2.4,2.4,0,0,0-.76.52,3.06,3.06,0,0,0-.56.85,4,4,0,0,0-.29,1.15Z" style="fill: rgb(118, 118, 118);"/>
  <path d="M220.63,45.07h1.2l.13,1.59h0a4,4,0,0,1,1.1-1.32,2.15,2.15,0,0,1,1.36-.49,2.57,2.57,0,0,1,.51,0,1.18,1.18,0,0,1,.42.15l-.27,1.28a2.73,2.73,0,0,0-.4-.11,2.81,2.81,0,0,0-.45,0,1.71,1.71,0,0,0-.57.1,2,2,0,0,0-.58.34,3.05,3.05,0,0,0-.56.61,4.2,4.2,0,0,0-.48,1v5.58h-1.46Z" style="fill: rgb(118, 118, 118);"/>
  <path class="cls-2" d="M574.78,115.83a2.68,2.68,0,0,1-.77,1.91,2.49,2.49,0,0,1-.86.55,2.63,2.63,0,0,1-1.06.2,2.67,2.67,0,0,1-1.06-.2,2.5,2.5,0,0,1-.84-.55,2.34,2.34,0,0,1-.56-.84,2.83,2.83,0,0,1-.2-1.07,2.78,2.78,0,0,1,.2-1.06,2.34,2.34,0,0,1,.56-.84,2.5,2.5,0,0,1,.84-.55,2.85,2.85,0,0,1,1.06-.19,2.81,2.81,0,0,1,1.06.19,2.49,2.49,0,0,1,.86.55,2.68,2.68,0,0,1,.77,1.9Zm-4.43,0a2.15,2.15,0,0,0,.13.73,1.75,1.75,0,0,0,.37.58,1.62,1.62,0,0,0,.55.37,1.73,1.73,0,0,0,.69.13,1.82,1.82,0,0,0,.7-.13,1.66,1.66,0,0,0,.56-.37,1.6,1.6,0,0,0,.37-.58,1.93,1.93,0,0,0,.13-.73,1.81,1.81,0,0,0-.13-.72,1.56,1.56,0,0,0-.37-.57,1.66,1.66,0,0,0-.56-.37,1.82,1.82,0,0,0-.7-.13,1.73,1.73,0,0,0-.69.13,1.62,1.62,0,0,0-.55.37,1.7,1.7,0,0,0-.37.57A2,2,0,0,0,570.35,115.83Zm7.54,6.32V123H571V119.5h.94v2.65Zm-.31-1.85h-.93v-7.86h.93Z"/>
  <path class="cls-2" d="M588.92,117.56v.79h-9.24v-.79Zm-8.72-1.44a6.23,6.23,0,0,0,1.31-.29,5.32,5.32,0,0,0,1.1-.51,3,3,0,0,0,.78-.7,1.5,1.5,0,0,0,.31-.85h-3.17V113h7.56v.79h-3.18a1.43,1.43,0,0,0,.31.85,3.14,3.14,0,0,0,.78.7,5.32,5.32,0,0,0,1.1.51,6.23,6.23,0,0,0,1.31.29l-.33.78a8.29,8.29,0,0,1-1.22-.27,5.33,5.33,0,0,1-1.09-.46,4.85,4.85,0,0,1-.88-.64,2.52,2.52,0,0,1-.58-.81,2.94,2.94,0,0,1-.6.81,4.85,4.85,0,0,1-.88.64,5.24,5.24,0,0,1-1.08.46,8,8,0,0,1-1.22.27Zm4.09,3.16a7.92,7.92,0,0,1,1.46.13,3.55,3.55,0,0,1,1.1.38,1.89,1.89,0,0,1,.69.61,1.56,1.56,0,0,1,0,1.66,1.82,1.82,0,0,1-.69.62,3.83,3.83,0,0,1-1.1.38,8,8,0,0,1-1.46.12,5.41,5.41,0,0,1-2.57-.5,1.57,1.57,0,0,1-.92-1.45,1.55,1.55,0,0,1,.92-1.44A5.4,5.4,0,0,1,584.29,119.28Zm0,3.14a4.67,4.67,0,0,0,1.88-.31.9.9,0,0,0,0-1.75,4.5,4.5,0,0,0-1.88-.31,4.58,4.58,0,0,0-1.89.31.91.91,0,0,0,0,1.75A4.76,4.76,0,0,0,584.29,122.42Z"/>
  <path class="cls-2" d="M572.72,130.31a4.54,4.54,0,0,0,.2,1.32,5.54,5.54,0,0,0,.55,1.21,4.52,4.52,0,0,0,.83,1,4.05,4.05,0,0,0,1.05.71l-.52.75a4.43,4.43,0,0,1-1.55-1.24,5.78,5.78,0,0,1-1-1.9,6.11,6.11,0,0,1-1,2,4.53,4.53,0,0,1-1.54,1.34l-.53-.76a4.35,4.35,0,0,0,1-.75,5.71,5.71,0,0,0,.83-1.06,5.44,5.44,0,0,0,.54-1.26,5,5,0,0,0,.19-1.38v-.83h-2.31v-.79h2.3V127h.93v1.67H575v.79h-2.27Zm4.89-3.49v10.8h-.93V132h-2.21v-.81h2.21v-4.33Z"/>
  <path class="cls-2" d="M581.21,134.2l1.23,0,1.2-.06,1.24-.12c.41-.05.85-.11,1.3-.19l.09.8c-.47.08-.91.15-1.34.2l-1.27.12-1.26.06h-2.13v-4.12H584v-2.25h-3.79v-.8H585v3.85h-3.76Zm6.86-7.38v10.79h-.94V126.82Z"/>
  <path class="cls-2" d="M578.44,194.57v.8h-9.25v-.8Zm-.88-.86a5.82,5.82,0,0,1-1.16-.3,5.68,5.68,0,0,1-1-.51,4.7,4.7,0,0,1-.89-.69,3.72,3.72,0,0,1-.64-.85,3.24,3.24,0,0,1-.63.85,5,5,0,0,1-.89.69,6.09,6.09,0,0,1-2.22.81l-.34-.76a6.92,6.92,0,0,0,1.33-.37,4.56,4.56,0,0,0,1.15-.64,3.1,3.1,0,0,0,.81-.85,1.76,1.76,0,0,0,.31-1v-.48h1v.48a1.72,1.72,0,0,0,.31,1,3.28,3.28,0,0,0,.81.86,5.1,5.1,0,0,0,1.15.64,6.29,6.29,0,0,0,1.33.38Zm-3.75,2.64a5.43,5.43,0,0,1,2.56.5,1.54,1.54,0,0,1,.93,1.42,1.41,1.41,0,0,1-.24.82,2,2,0,0,1-.69.61,4.22,4.22,0,0,1-1.09.37,8.09,8.09,0,0,1-1.47.12,5.54,5.54,0,0,1-2.57-.49,1.57,1.57,0,0,1-.93-1.43,1.38,1.38,0,0,1,.24-.81,2,2,0,0,1,.69-.61,4.12,4.12,0,0,1,1.11-.37A8,8,0,0,1,573.81,196.35Zm0,3.08a4.69,4.69,0,0,0,1.88-.3.92.92,0,0,0,.67-.86.94.94,0,0,0-.67-.85,4.69,4.69,0,0,0-1.88-.3,4.78,4.78,0,0,0-1.89.3,1,1,0,0,0-.68.85.93.93,0,0,0,.68.86A4.78,4.78,0,0,0,573.81,199.43Z"/>
  <path class="cls-2" d="M585.26,192.83a2.65,2.65,0,0,1-.2,1.07,2.71,2.71,0,0,1-.57.84,2.45,2.45,0,0,1-.85.55,2.91,2.91,0,0,1-2.12,0,2.5,2.5,0,0,1-.84-.55,2.53,2.53,0,0,1-.56-.84,2.65,2.65,0,0,1-.2-1.07,2.68,2.68,0,0,1,.2-1.07,2.53,2.53,0,0,1,.56-.84,2.63,2.63,0,0,1,.84-.54,3.05,3.05,0,0,1,2.12,0,2.57,2.57,0,0,1,.85.54,2.71,2.71,0,0,1,.57.84A2.68,2.68,0,0,1,585.26,192.83Zm-4.42,0a1.93,1.93,0,0,0,.13.73,1.7,1.7,0,0,0,.37.57,1.55,1.55,0,0,0,.55.38,1.93,1.93,0,0,0,.69.13,2,2,0,0,0,.7-.13,1.79,1.79,0,0,0,.56-.38,1.7,1.7,0,0,0,.37-.57,1.93,1.93,0,0,0,.13-.73,1.81,1.81,0,0,0-.13-.72,1.7,1.7,0,0,0-.37-.57,1.76,1.76,0,0,0-.56-.37,1.82,1.82,0,0,0-.7-.13,1.73,1.73,0,0,0-.69.13,1.53,1.53,0,0,0-.55.37,1.7,1.7,0,0,0-.37.57A1.81,1.81,0,0,0,580.84,192.83Zm7.54,6.32v.8h-6.89V196.5h.94v2.65Zm-.31-1.85h-.94v-7.86h.94Z"/>
  <path class="cls-2" d="M572.72,207.31a4.54,4.54,0,0,0,.2,1.32,5.54,5.54,0,0,0,.55,1.21,4.76,4.76,0,0,0,.83,1,4.05,4.05,0,0,0,1.05.71l-.52.75a4.55,4.55,0,0,1-1.55-1.24,5.88,5.88,0,0,1-1-1.9,6.11,6.11,0,0,1-1,2,4.64,4.64,0,0,1-1.54,1.34l-.53-.76a4.35,4.35,0,0,0,1-.75,5.71,5.71,0,0,0,.83-1.06,5.34,5.34,0,0,0,.54-1.27,4.92,4.92,0,0,0,.19-1.37v-.83h-2.31v-.79h2.3V204h.93v1.67H575v.79h-2.27Zm4.89-3.49v10.8h-.93V209h-2.21v-.8h2.21v-4.33Z"/>
  <path class="cls-2" d="M581.21,211.2l1.23,0,1.2-.06,1.24-.12c.41-.05.85-.11,1.3-.19l.09.8c-.47.08-.91.15-1.34.2l-1.27.12-1.26,0c-.42,0-.84,0-1.29,0h-.84v-4.13H584v-2.24h-3.79v-.8H585v3.85h-3.76Zm6.86-7.38v10.79h-.94V203.82Z"/>
  <line class="cls-3" x1="528" y1="104.32" x2="168" y2="104.32"/>
  <path class="cls-3" d="M531.88,104c16.57,0,30,3.43,30,20s-13.43,20-30,20"/>
  <line class="cls-3" x1="532.38" y1="224.37" x2="174.35" y2="224.37"/>
  <path class="cls-3" d="M531.88,184.32c16.57,0,30,3.43,30,20s-13.43,20-30,20"/>
  <path class="cls-4" d="M531.79,184.52c-16.57,0-30-3.43-30-20s13.43-20,30-20"/>
  <polygon class="cls-5" points="525.79 111.23 525.79 96.83 537.79 104.03 525.79 111.23"/>
  <polygon class="cls-5" points="525.79 191.52 525.79 177.12 537.79 184.32 525.79 191.52"/>
  <polygon class="cls-5" points="537.79 137.12 537.79 151.52 525.79 144.32 537.79 137.12"/>
  <polygon class="cls-5" points="537.79 217.17 537.79 231.57 525.79 224.37 537.79 217.17"/>
  <polygon class="cls-6" points="176.17 217.17 176.17 231.57 164.17 224.37 176.17 217.17"/>
  <polygon class="cls-6" points="164.17 111.23 164.17 96.83 176.17 104.03 164.17 111.23"/>
  <path class="cls-2" d="M 199.211 120.708 C 198.732 120.721 198.26 120.596 197.851 120.348 C 197.453 120.106 197.128 119.76 196.911 119.348 L 197.661 118.788 C 197.812 119.088 198.031 119.348 198.301 119.548 C 198.544 119.698 198.825 119.774 199.111 119.768 C 199.493 119.793 199.865 119.633 200.111 119.338 C 200.368 118.904 200.483 118.401 200.441 117.898 L 200.441 111.748 L 201.501 111.748 L 201.501 117.948 C 201.502 118.306 201.454 118.663 201.361 119.008 C 201.285 119.321 201.149 119.617 200.961 119.878 C 200.77 120.129 200.524 120.331 200.241 120.468 C 199.92 120.626 199.568 120.708 199.211 120.708 Z"/>
  <path class="cls-2" d="M 206.091 120.708 C 204.97 120.719 203.9 120.24 203.161 119.398 L 203.791 118.638 C 204.087 118.973 204.447 119.245 204.851 119.438 C 205.239 119.632 205.667 119.731 206.101 119.728 C 206.563 119.751 207.019 119.613 207.391 119.338 C 207.686 119.09 207.858 118.724 207.861 118.338 C 207.864 118.143 207.826 117.948 207.751 117.768 C 207.677 117.617 207.575 117.481 207.451 117.368 C 207.32 117.244 207.172 117.139 207.011 117.058 L 206.461 116.778 L 205.261 116.228 C 205.053 116.137 204.852 116.03 204.661 115.908 C 204.46 115.784 204.279 115.633 204.121 115.458 C 203.944 115.273 203.805 115.056 203.711 114.818 C 203.605 114.551 203.554 114.265 203.561 113.978 C 203.557 113.338 203.826 112.727 204.301 112.298 C 204.547 112.083 204.832 111.917 205.141 111.808 C 205.478 111.689 205.833 111.632 206.191 111.638 C 207.129 111.632 208.025 112.029 208.651 112.728 L 208.101 113.438 C 207.85 113.188 207.56 112.982 207.241 112.828 C 206.927 112.683 206.586 112.608 206.241 112.608 C 205.831 112.582 205.425 112.707 205.101 112.958 C 204.82 113.188 204.665 113.536 204.681 113.898 C 204.676 114.092 204.717 114.284 204.801 114.458 C 204.885 114.605 204.993 114.737 205.121 114.848 C 205.257 114.965 205.408 115.062 205.571 115.138 L 206.061 115.368 L 207.261 115.908 C 207.493 116.013 207.717 116.137 207.931 116.278 C 208.136 116.411 208.321 116.573 208.481 116.758 C 208.643 116.947 208.768 117.164 208.851 117.398 C 208.939 117.676 208.983 117.966 208.981 118.258 C 208.989 118.931 208.709 119.576 208.211 120.028 C 207.956 120.267 207.652 120.448 207.321 120.558 C 206.923 120.683 206.506 120.734 206.091 120.708 Z"/>
  <path class="cls-2" d="M 215.451 120.708 C 214.885 120.712 214.325 120.593 213.811 120.358 C 213.314 120.122 212.873 119.781 212.521 119.358 L 213.151 118.598 C 213.447 118.933 213.807 119.205 214.211 119.398 C 214.599 119.592 215.027 119.691 215.461 119.688 C 215.923 119.711 216.379 119.573 216.751 119.298 C 217.043 119.049 217.211 118.683 217.211 118.298 C 217.217 118.103 217.183 117.909 217.111 117.728 C 217.037 117.577 216.935 117.441 216.811 117.328 C 216.68 117.204 216.532 117.099 216.371 117.018 L 215.821 116.738 L 214.621 116.188 C 214.413 116.097 214.212 115.99 214.021 115.868 C 213.82 115.744 213.639 115.593 213.481 115.418 C 213.304 115.233 213.165 115.016 213.071 114.778 C 212.965 114.511 212.914 114.225 212.921 113.938 C 212.917 113.298 213.186 112.687 213.661 112.258 C 213.907 112.043 214.192 111.877 214.501 111.768 C 214.822 111.655 215.16 111.598 215.501 111.598 C 216.439 111.592 217.335 111.989 217.961 112.688 L 217.401 113.398 C 217.155 113.147 216.867 112.94 216.551 112.788 C 216.222 112.636 215.863 112.561 215.501 112.568 C 215.091 112.542 214.685 112.667 214.361 112.918 C 214.08 113.148 213.925 113.496 213.941 113.858 C 213.936 114.052 213.977 114.244 214.061 114.418 C 214.145 114.565 214.253 114.697 214.381 114.808 C 214.517 114.925 214.668 115.022 214.831 115.098 L 215.321 115.328 L 216.521 115.868 C 216.753 115.973 216.977 116.097 217.191 116.238 C 217.394 116.374 217.579 116.535 217.741 116.718 C 217.903 116.907 218.028 117.124 218.111 117.358 C 218.199 117.636 218.243 117.926 218.241 118.218 C 218.249 118.891 217.969 119.536 217.471 119.988 C 217.216 120.227 216.912 120.408 216.581 120.518 C 216.217 120.644 215.835 120.708 215.451 120.708 Z"/>
  <path class="cls-2" d="M 219.931 111.748 L 222.021 111.748 C 223.119 111.674 224.195 112.087 224.961 112.878 C 225.685 113.797 226.041 114.951 225.961 116.118 C 225.968 116.751 225.88 117.381 225.701 117.988 C 225.551 118.499 225.295 118.973 224.951 119.378 C 224.619 119.761 224.201 120.06 223.731 120.248 C 223.203 120.457 222.638 120.559 222.071 120.548 L 219.931 120.548 Z M 221.931 119.628 C 222.776 119.69 223.601 119.344 224.151 118.698 C 224.678 117.941 224.935 117.029 224.881 116.108 C 224.939 115.193 224.681 114.286 224.151 113.538 C 223.594 112.904 222.771 112.571 221.931 112.638 L 220.991 112.638 L 220.991 119.638 Z"/>
  <path class="cls-2" d="M 227.761 111.748 L 228.841 111.748 L 228.841 116.168 L 228.841 116.168 L 232.331 111.748 L 233.521 111.748 L 230.911 115.098 L 233.911 120.548 L 232.721 120.548 L 230.261 115.948 L 228.821 117.748 L 228.821 120.528 L 227.761 120.528 Z"/>
  <path class="cls-2" d="M 243.841 115.678 L 243.841 116.418 L 234.571 116.418 L 234.571 115.678 Z M 236.621 120.588 L 243.001 120.588 L 243.001 121.288 L 235.701 121.288 L 235.701 118.948 L 241.761 118.948 L 241.761 118.048 L 235.671 118.048 L 235.671 117.338 L 242.671 117.338 L 242.671 119.628 L 236.641 119.628 Z M 241.731 111.678 L 235.731 111.678 L 235.731 110.948 L 242.651 110.948 L 242.651 113.188 L 236.651 113.188 L 236.651 114.108 L 242.841 114.108 L 242.841 114.818 L 235.761 114.818 L 235.761 112.518 L 241.761 112.518 Z"/>
  <path class="cls-2" d="M 256.841 116.368 L 256.841 117.168 L 247.581 117.168 L 247.581 116.368 L 251.741 116.368 L 251.741 115.368 L 248.841 115.368 L 248.841 110.948 L 255.731 110.948 L 255.731 111.708 L 249.731 111.708 L 249.731 112.708 L 255.421 112.708 L 255.421 113.448 L 249.731 113.448 L 249.731 114.508 L 255.731 114.508 L 255.731 115.278 L 252.651 115.278 L 252.651 116.278 Z M 252.251 117.948 C 253.132 117.907 254.012 118.057 254.831 118.388 C 255.82 118.731 256.067 120.016 255.275 120.701 C 255.145 120.814 254.994 120.902 254.831 120.958 C 253.157 121.545 251.334 121.545 249.661 120.958 C 248.671 120.615 248.424 119.33 249.216 118.645 C 249.346 118.532 249.497 118.445 249.661 118.388 C 250.482 118.057 251.366 117.907 252.251 117.948 Z M 252.251 120.648 C 252.893 120.673 253.535 120.592 254.151 120.408 C 254.591 120.238 254.811 119.998 254.811 119.668 C 254.811 119.338 254.591 119.098 254.151 118.938 C 252.904 118.592 251.587 118.592 250.341 118.938 C 249.901 119.098 249.681 119.348 249.681 119.668 C 249.681 119.988 249.901 120.238 250.341 120.408 C 250.958 120.603 251.603 120.694 252.251 120.678 Z"/>
  <path class="cls-2" d="M 261.101 112.508 L 263.181 112.508 L 263.181 113.308 L 258.111 113.308 L 258.111 112.508 L 260.181 112.508 L 260.181 110.948 L 261.101 110.948 Z M 260.651 114.028 C 261.251 114.011 261.827 114.264 262.221 114.718 C 262.419 114.944 262.571 115.205 262.671 115.488 C 262.899 116.135 262.899 116.841 262.671 117.488 C 262.569 117.773 262.417 118.038 262.221 118.268 C 262.024 118.477 261.79 118.647 261.531 118.768 C 260.968 119.008 260.333 119.008 259.771 118.768 C 259.507 118.653 259.272 118.482 259.081 118.268 C 258.881 118.038 258.725 117.774 258.621 117.488 C 258.405 116.839 258.405 116.137 258.621 115.488 C 258.723 115.204 258.879 114.943 259.081 114.718 C 259.27 114.499 259.505 114.325 259.771 114.208 C 260.048 114.086 260.348 114.025 260.651 114.028 Z M 260.651 118.138 C 260.841 118.14 261.029 118.099 261.201 118.018 C 261.362 117.934 261.505 117.818 261.621 117.678 C 261.743 117.519 261.838 117.339 261.901 117.148 C 262.034 116.722 262.034 116.265 261.901 115.838 C 261.84 115.649 261.745 115.473 261.621 115.318 C 261.505 115.178 261.362 115.062 261.201 114.978 C 261.029 114.897 260.841 114.856 260.651 114.858 C 260.263 114.845 259.893 115.016 259.651 115.318 C 259.39 115.651 259.255 116.065 259.271 116.488 C 259.267 116.712 259.3 116.935 259.371 117.148 C 259.429 117.341 259.524 117.521 259.651 117.678 C 259.768 117.821 259.915 117.937 260.081 118.018 C 260.259 118.102 260.454 118.143 260.651 118.138 Z M 266.781 110.658 L 266.781 121.428 L 265.841 121.428 L 265.841 116.008 L 264.521 116.008 L 264.521 120.948 L 263.651 120.948 L 263.651 110.948 L 264.521 110.948 L 264.521 115.248 L 265.841 115.248 L 265.841 110.698 Z"/>
  <path class="cls-2" d="M 276.121 112.998 C 275.799 113.85 275.236 114.591 274.501 115.128 C 273.649 115.741 272.683 116.176 271.661 116.408 L 271.321 115.608 C 272.392 115.388 273.394 114.911 274.241 114.218 C 274.905 113.663 275.326 112.87 275.411 112.008 L 271.841 112.008 L 271.841 111.198 L 276.421 111.198 C 276.418 111.534 276.381 111.869 276.311 112.198 L 278.631 112.198 L 278.631 110.638 L 279.561 110.638 L 279.561 116.138 L 278.631 116.138 L 278.631 115.048 L 275.961 115.048 L 275.961 114.288 L 278.631 114.288 L 278.631 112.998 Z M 279.931 120.548 L 279.931 121.318 L 273.021 121.318 L 273.021 118.558 L 278.651 118.558 L 278.651 117.448 L 272.991 117.448 L 272.991 116.658 L 279.571 116.658 L 279.571 119.298 L 273.941 119.298 L 273.941 120.548 Z"/>
  <path class="cls-2" d="M 284.651 113.708 C 284.647 114.175 284.694 114.641 284.791 115.098 C 284.877 115.542 285.015 115.975 285.201 116.388 C 285.379 116.782 285.608 117.152 285.881 117.488 C 286.14 117.812 286.459 118.084 286.821 118.288 L 286.251 119.008 C 285.734 118.681 285.3 118.24 284.981 117.718 C 284.627 117.145 284.364 116.521 284.201 115.868 C 284.041 116.573 283.771 117.248 283.401 117.868 C 283.074 118.427 282.627 118.905 282.091 119.268 L 281.521 118.538 C 281.885 118.309 282.206 118.018 282.471 117.678 C 282.751 117.322 282.987 116.933 283.171 116.518 C 283.359 116.08 283.503 115.625 283.601 115.158 C 283.693 114.677 283.74 114.188 283.741 113.698 L 283.741 112.698 L 281.841 112.698 L 281.841 111.948 L 286.501 111.948 L 286.501 112.758 L 284.681 112.758 Z M 287.381 110.908 L 288.271 110.908 L 288.271 120.908 L 287.381 120.908 L 287.381 115.378 L 285.691 115.378 L 285.691 114.578 L 287.381 114.578 Z M 290.331 110.658 L 290.331 121.428 L 289.431 121.428 L 289.431 110.658 Z"/>
  <path class="cls-2" d="M 297.681 116.718 C 297.121 116.542 296.603 116.253 296.161 115.868 C 295.735 115.502 295.394 115.048 295.161 114.538 C 294.94 115.105 294.599 115.617 294.161 116.038 C 293.711 116.475 293.177 116.816 292.591 117.038 L 292.131 116.258 C 292.488 116.14 292.825 115.968 293.131 115.748 C 293.433 115.535 293.705 115.283 293.941 114.998 C 294.16 114.716 294.335 114.403 294.461 114.068 C 294.577 113.747 294.638 113.409 294.641 113.068 L 294.641 112.848 L 292.371 112.848 L 292.371 111.948 L 294.641 111.948 L 294.641 110.598 L 295.571 110.598 L 295.571 111.948 L 297.841 111.948 L 297.841 112.738 L 295.581 112.738 L 295.581 112.948 C 295.58 113.273 295.641 113.596 295.761 113.898 C 295.883 114.204 296.056 114.488 296.271 114.738 C 296.497 115.004 296.759 115.236 297.051 115.428 C 297.361 115.631 297.698 115.793 298.051 115.908 Z M 296.821 117.538 C 297.293 117.534 297.765 117.574 298.231 117.658 C 298.598 117.729 298.953 117.857 299.281 118.038 C 299.548 118.188 299.777 118.396 299.951 118.648 C 300.258 119.159 300.258 119.797 299.951 120.308 C 299.777 120.56 299.548 120.769 299.281 120.918 C 298.95 121.091 298.596 121.216 298.231 121.288 C 297.765 121.372 297.293 121.412 296.821 121.408 C 295.965 121.457 295.111 121.285 294.341 120.908 C 293.236 120.363 293.135 118.827 294.159 118.143 C 294.217 118.104 294.278 118.069 294.341 118.038 C 295.119 117.665 295.979 117.493 296.841 117.538 Z M 296.821 120.648 C 297.43 120.678 298.037 120.572 298.601 120.338 C 299.266 120.147 299.475 119.306 298.977 118.825 C 298.871 118.723 298.742 118.649 298.601 118.608 C 297.444 118.208 296.187 118.208 295.031 118.608 C 294.365 118.799 294.156 119.64 294.654 120.121 C 294.76 120.223 294.889 120.298 295.031 120.338 C 295.603 120.577 296.222 120.683 296.841 120.648 Z M 301.591 113.468 L 301.591 114.268 L 300.071 114.268 L 300.071 117.268 L 299.131 117.268 L 299.131 110.688 L 300.071 110.688 L 300.071 113.468 Z"/>
  <path class="cls-2" d="M 314.441 119.368 L 314.441 120.178 L 305.181 120.178 L 305.181 119.368 L 309.341 119.368 L 309.341 117.858 C 308.588 117.852 307.852 117.641 307.211 117.248 C 306.722 116.938 306.431 116.396 306.441 115.818 C 306.436 115.514 306.519 115.216 306.681 114.958 C 306.84 114.69 307.068 114.47 307.341 114.318 C 307.668 114.125 308.027 113.989 308.401 113.918 C 308.861 113.822 309.33 113.775 309.801 113.778 C 310.264 113.775 310.727 113.822 311.181 113.918 C 311.534 113.994 311.872 114.129 312.181 114.318 C 312.454 114.472 312.684 114.692 312.851 114.958 C 313.005 115.218 313.084 115.516 313.081 115.818 C 313.097 116.39 312.813 116.929 312.331 117.238 C 311.699 117.629 310.973 117.843 310.231 117.858 L 310.231 119.368 Z M 313.931 113.048 L 305.631 113.048 L 305.631 112.248 L 309.341 112.248 L 309.341 110.838 L 310.271 110.838 L 310.271 112.248 L 313.931 112.248 Z M 307.381 115.818 C 307.378 116.234 307.632 116.608 308.021 116.758 C 308.581 117.003 309.19 117.116 309.801 117.088 C 310.402 117.116 311.001 117.003 311.551 116.758 C 311.939 116.608 312.193 116.234 312.191 115.818 C 312.189 115.406 311.935 115.037 311.551 114.888 C 311.003 114.635 310.403 114.518 309.801 114.548 C 309.188 114.517 308.578 114.633 308.021 114.888 C 307.636 115.037 307.382 115.406 307.381 115.818 Z"/>
  <path class="cls-2" d="M 320.761 116.208 L 320.761 117.208 L 323.761 117.208 L 323.761 119.558 L 317.761 119.558 L 317.761 120.558 L 324.071 120.558 L 324.071 121.308 L 316.841 121.308 L 316.841 118.848 L 322.841 118.848 L 322.841 117.948 L 316.841 117.948 L 316.841 117.218 L 319.841 117.218 L 319.841 116.218 L 315.711 116.218 L 315.711 115.448 L 324.931 115.448 L 324.931 116.218 Z M 316.151 114.208 C 316.602 114.175 317.05 114.108 317.491 114.008 C 317.878 113.923 318.254 113.792 318.611 113.618 C 318.905 113.485 319.173 113.298 319.401 113.068 C 319.596 112.873 319.726 112.621 319.771 112.348 L 316.611 112.348 L 316.611 111.598 L 319.841 111.598 L 319.841 110.598 L 320.781 110.598 L 320.781 111.598 L 323.981 111.598 L 323.981 112.348 L 320.841 112.348 C 320.881 112.62 321.007 112.872 321.201 113.068 C 321.424 113.298 321.689 113.485 321.981 113.618 C 322.336 113.787 322.708 113.918 323.091 114.008 C 323.535 114.108 323.986 114.175 324.441 114.208 L 324.151 114.948 C 323.737 114.919 323.325 114.859 322.921 114.768 C 322.548 114.686 322.183 114.573 321.831 114.428 C 321.512 114.299 321.213 114.127 320.941 113.918 C 320.691 113.739 320.478 113.515 320.311 113.258 C 320.144 113.513 319.935 113.736 319.691 113.918 C 319.414 114.127 319.112 114.299 318.791 114.428 C 318.434 114.573 318.066 114.686 317.691 114.768 C 317.283 114.86 316.868 114.921 316.451 114.948 Z"/>
  <path class="cls-2" d="M 201.978 126.833 L 202.728 126.833 L 199.318 138.503 L 198.558 138.503 Z"/>
  <path class="cls-2" d="M 211.318 128.193 C 211.32 128.961 211.25 129.728 211.108 130.483 C 210.962 131.219 210.71 131.93 210.358 132.593 C 209.983 133.294 209.501 133.932 208.928 134.483 C 208.253 135.124 207.489 135.663 206.658 136.083 L 206.168 135.353 C 207.016 134.925 207.791 134.369 208.468 133.703 C 209.032 133.121 209.489 132.444 209.818 131.703 L 206.368 132.053 L 206.208 131.183 L 210.098 130.903 C 210.279 130.288 210.383 129.654 210.408 129.013 L 206.728 129.013 L 206.728 128.213 Z M 215.568 132.263 L 213.918 132.263 L 213.918 137.843 L 212.988 137.843 L 212.988 127.093 L 213.918 127.093 L 213.918 131.453 L 215.568 131.453 Z"/>
  <path class="cls-2" d="M 225.808 135.583 L 225.808 136.353 L 216.528 136.353 L 216.528 135.543 Z M 224.738 133.043 L 217.738 133.043 L 217.738 128.043 L 224.658 128.043 L 224.658 128.843 L 218.658 128.843 L 218.658 132.203 L 224.758 132.203 Z"/>
  <path class="cls-2" d="M 230.468 129.953 C 230.466 130.43 230.533 130.905 230.668 131.363 C 230.805 131.823 230.993 132.266 231.228 132.683 C 231.453 133.086 231.732 133.457 232.058 133.783 C 232.351 134.089 232.688 134.349 233.058 134.553 L 232.478 135.333 C 232.197 135.175 231.935 134.983 231.698 134.763 C 231.443 134.53 231.212 134.272 231.008 133.993 C 230.793 133.696 230.602 133.382 230.438 133.053 C 230.266 132.712 230.122 132.358 230.008 131.993 C 229.798 132.755 229.459 133.475 229.008 134.123 C 228.604 134.705 228.078 135.193 227.468 135.553 L 226.908 134.763 C 227.281 134.545 227.618 134.272 227.908 133.953 C 228.235 133.602 228.517 133.213 228.748 132.793 C 228.984 132.354 229.171 131.892 229.308 131.413 C 229.439 130.937 229.506 130.447 229.508 129.953 L 229.508 128.013 L 230.438 128.013 Z M 236.588 132.263 L 234.898 132.263 L 234.898 137.843 L 233.958 137.843 L 233.958 127.103 L 234.898 127.103 L 234.898 131.453 L 236.588 131.453 Z"/>
  <path class="cls-2" d="M 245.658 130.473 C 245.662 130.839 245.594 131.203 245.458 131.543 C 245.328 131.859 245.134 132.145 244.888 132.383 C 244.644 132.624 244.356 132.814 244.038 132.943 C 243.7 133.073 243.341 133.138 242.978 133.133 C 242.616 133.139 242.256 133.074 241.918 132.943 C 241.602 132.812 241.314 132.622 241.068 132.383 C 240.826 132.145 240.635 131.859 240.508 131.543 C 240.242 130.858 240.242 130.098 240.508 129.413 C 240.635 129.098 240.826 128.812 241.068 128.573 C 241.312 128.335 241.601 128.148 241.918 128.023 C 242.256 127.892 242.616 127.828 242.978 127.833 C 243.341 127.829 243.7 127.893 244.038 128.023 C 244.357 128.145 244.646 128.333 244.888 128.573 C 245.134 128.811 245.328 129.097 245.458 129.413 C 245.593 129.75 245.661 130.11 245.658 130.473 Z M 241.238 130.473 C 241.234 130.723 241.278 130.971 241.368 131.203 C 241.45 131.418 241.572 131.615 241.728 131.783 C 241.886 131.941 242.073 132.067 242.278 132.153 C 242.729 132.327 243.228 132.327 243.678 132.153 C 243.887 132.067 244.077 131.941 244.238 131.783 C 244.401 131.618 244.527 131.42 244.608 131.203 C 244.694 130.969 244.738 130.722 244.738 130.473 C 244.738 130.227 244.694 129.984 244.608 129.753 C 244.524 129.543 244.399 129.353 244.238 129.193 C 244.078 129.032 243.887 128.903 243.678 128.813 C 243.228 128.64 242.729 128.64 242.278 128.813 C 242.072 128.903 241.886 129.032 241.728 129.193 C 241.575 129.356 241.452 129.546 241.368 129.753 C 241.278 129.982 241.234 130.227 241.238 130.473 Z M 248.768 136.793 L 248.768 137.603 L 241.888 137.603 L 241.888 134.143 L 242.818 134.143 L 242.818 136.793 Z M 248.468 134.953 L 247.528 134.953 L 247.528 127.093 L 248.468 127.093 Z"/>
  <path class="cls-2" d="M 259.808 132.203 L 259.808 132.993 L 250.558 132.993 L 250.558 132.203 Z M 251.088 130.763 C 251.531 130.717 251.966 130.623 252.388 130.483 C 252.778 130.354 253.15 130.18 253.498 129.963 C 253.797 129.781 254.058 129.543 254.268 129.263 C 254.458 129.022 254.569 128.729 254.588 128.423 L 251.418 128.423 L 251.418 127.633 L 258.978 127.633 L 258.978 128.423 L 255.798 128.423 C 255.805 128.728 255.91 129.023 256.098 129.263 C 256.315 129.541 256.579 129.777 256.878 129.963 C 257.229 130.176 257.601 130.35 257.988 130.483 C 258.413 130.624 258.853 130.718 259.298 130.763 L 258.958 131.543 C 258.546 131.483 258.138 131.393 257.738 131.273 C 257.362 131.161 257 131.007 256.658 130.813 C 256.34 130.636 256.045 130.421 255.778 130.173 C 255.533 129.946 255.332 129.675 255.188 129.373 C 255.041 129.675 254.837 129.947 254.588 130.173 C 254.325 130.421 254.033 130.636 253.718 130.813 C 253.372 131.005 253.007 131.159 252.628 131.273 C 252.233 131.395 251.828 131.485 251.418 131.543 Z M 255.168 133.933 C 255.661 133.928 256.153 133.969 256.638 134.053 C 257.019 134.125 257.386 134.253 257.728 134.433 C 258.008 134.576 258.248 134.786 258.428 135.043 C 258.747 135.551 258.747 136.196 258.428 136.703 C 258.252 136.966 258.011 137.18 257.728 137.323 C 257.388 137.508 257.02 137.636 256.638 137.703 C 256.153 137.792 255.661 137.835 255.168 137.833 C 254.286 137.877 253.406 137.702 252.608 137.323 C 251.496 136.813 251.354 135.289 252.352 134.581 C 252.433 134.524 252.518 134.474 252.608 134.433 C 253.407 134.058 254.287 133.887 255.168 133.933 Z M 255.168 137.063 C 255.812 137.092 256.455 136.99 257.058 136.763 C 257.736 136.585 257.966 135.74 257.473 135.243 C 257.359 135.127 257.215 135.045 257.058 135.003 C 255.836 134.59 254.511 134.59 253.288 135.003 C 252.904 135.132 252.636 135.479 252.608 135.883 C 252.636 136.287 252.904 136.635 253.288 136.763 C 253.888 136.989 254.528 137.091 255.168 137.063 Z"/>
  <rect class="cls-8" x="290.989" y="269.34" width="309.371" height="110" rx="12" style=""/>
  <line class="cls-3" x1="532.99" y1="344.29" x2="352.97" y2="344.29"/>
  <line class="cls-3" x1="532.99" y1="304.28" x2="352.97" y2="304.28"/>
  <path class="cls-2" d="M423.67,352.47a4.69,4.69,0,0,1-1.62,2.13,7.59,7.59,0,0,1-2.84,1.28l-.34-.8a6.79,6.79,0,0,0,2.93-1.39,3.33,3.33,0,0,0,1.16-2.21h-3.55v-.81H424a5.91,5.91,0,0,1-.1,1h2.31v-1.56h.94v5.49h-.94v-1.11h-2.67v-.77h2.67v-1.29Zm3.81,7.55v.77h-6.91V358h5.63v-1.1h-5.65v-.8h6.58v2.64h-5.64V360Z"/>
  <path class="cls-2" d="M432.19,357.69c.56,0,1.12-.05,1.67-.09s1.1-.09,1.62-.16l.06.72c-.53.08-1.08.15-1.63.21s-1.11.1-1.65.12l-1.6.06H429.2l-.1-.81h1l1.12,0v-3.31h.93Zm1.41-1.6a22.31,22.31,0,0,0,.26-2.33c0-.66.05-1.2.05-1.63h-4.25v-.81h5.17v.59c0,.43,0,1,0,1.7a24.75,24.75,0,0,1-.26,2.57Zm5.07-.62H437v5.44h-.93V350.15H437v4.5h1.63Z"/>
  <path class="cls-2" d="M451.48,355.38v.79h-9.24v-.79Zm-4.62-5a7.47,7.47,0,0,1,1.49.14,4,4,0,0,1,1.13.4,2.07,2.07,0,0,1,.72.65,1.52,1.52,0,0,1,.25.86,1.5,1.5,0,0,1-.25.86,2,2,0,0,1-.72.64,4,4,0,0,1-1.13.41,8.6,8.6,0,0,1-3,0,4,4,0,0,1-1.13-.41,2,2,0,0,1-.72-.64,1.5,1.5,0,0,1-.25-.86,1.52,1.52,0,0,1,.25-.86,2.07,2.07,0,0,1,.72-.65,4,4,0,0,1,1.13-.4A7.55,7.55,0,0,1,446.86,350.42Zm0,6.64a5.49,5.49,0,0,1,2.56.5,1.56,1.56,0,0,1,0,2.85,5.49,5.49,0,0,1-2.56.5,7.14,7.14,0,0,1-1.46-.13,3.84,3.84,0,0,1-1.1-.37,1.88,1.88,0,0,1-.69-.61,1.52,1.52,0,0,1,0-1.64,1.86,1.86,0,0,1,.69-.6,3.55,3.55,0,0,1,1.1-.37A7.14,7.14,0,0,1,446.86,357.06Zm0-5.87a4.43,4.43,0,0,0-1.92.34,1,1,0,0,0,0,1.88,5.62,5.62,0,0,0,3.85,0,1,1,0,0,0,0-1.88A4.45,4.45,0,0,0,446.86,351.19Zm0,6.64a4.7,4.7,0,0,0-1.87.3,1,1,0,0,0-.67.86.93.93,0,0,0,.67.85,6,6,0,0,0,3.75,0,.93.93,0,0,0,.67-.85,1,1,0,0,0-.67-.86A4.72,4.72,0,0,0,446.86,357.83Z"/>
  <path class="cls-2" d="M458.75,355.14a9.75,9.75,0,0,1-1,.19c-.34.05-.7.09-1.07.12l-1.21.05c-.43,0-.91,0-1.45,0h-.79v-4.67h4.5v.8h-3.57v3.07l1.37,0,1.14-.05c.36,0,.7-.06,1-.11l1-.18Zm1,1.33h.92v4.26h-6.44v-4.26h.93v1.34h4.59Zm0,2.11h-4.59v1.35h4.59Zm2.44-5.1h-1.52v2.4h-.93v-5.73h.93v2.53h1.52Z"/>
  <path class="cls-2" d="M425.38,315.46v.8h-9.24v-.8Zm-.88-.85a6.51,6.51,0,0,1-1.15-.31,6.1,6.1,0,0,1-1.06-.51,4.63,4.63,0,0,1-.88-.69,3.35,3.35,0,0,1-.64-.84,3.22,3.22,0,0,1-.64.85,5.42,5.42,0,0,1-.88.68,6.1,6.1,0,0,1-1.06.51,6.72,6.72,0,0,1-1.17.31l-.34-.77a5.81,5.81,0,0,0,1.34-.37,5.07,5.07,0,0,0,1.15-.63A3.6,3.6,0,0,0,420,312a1.87,1.87,0,0,0,.31-1v-.48h1V311a1.81,1.81,0,0,0,.31,1,3.64,3.64,0,0,0,.82.85,5.12,5.12,0,0,0,1.15.65,6.11,6.11,0,0,0,1.33.37Zm-3.74,2.64a5.5,5.5,0,0,1,2.56.49,1.55,1.55,0,0,1,.92,1.42,1.45,1.45,0,0,1-.24.83,2.05,2.05,0,0,1-.69.6,3.76,3.76,0,0,1-1.09.37,7.2,7.2,0,0,1-1.46.13,5.53,5.53,0,0,1-2.57-.5,1.55,1.55,0,0,1-.94-1.43,1.43,1.43,0,0,1,.24-.81,1.81,1.81,0,0,1,.7-.6,3.83,3.83,0,0,1,1.1-.38A8.09,8.09,0,0,1,420.76,317.25Zm0,3.07a4.94,4.94,0,0,0,1.88-.29,1,1,0,0,0,.67-.86.94.94,0,0,0-.67-.85,4.72,4.72,0,0,0-1.88-.3,4.8,4.8,0,0,0-1.9.3.93.93,0,0,0-.67.85.94.94,0,0,0,.67.86A5,5,0,0,0,420.76,320.32Z"/>
  <path class="cls-2" d="M432.21,313.72a2.65,2.65,0,0,1-.21,1.07,2.34,2.34,0,0,1-.56.84,2.73,2.73,0,0,1-.85.56,2.87,2.87,0,0,1-1.07.19,2.76,2.76,0,0,1-1-.19,2.62,2.62,0,0,1-.85-.56,2.47,2.47,0,0,1-.56-.84,2.94,2.94,0,0,1,0-2.13,2.47,2.47,0,0,1,.56-.84,2.45,2.45,0,0,1,.85-.55,2.76,2.76,0,0,1,1-.19,2.87,2.87,0,0,1,1.07.19,2.54,2.54,0,0,1,.85.55,2.34,2.34,0,0,1,.56.84A2.64,2.64,0,0,1,432.21,313.72Zm-4.42,0a1.93,1.93,0,0,0,.13.73,1.63,1.63,0,0,0,.36.58,1.69,1.69,0,0,0,1.24.5,1.78,1.78,0,0,0,.7-.13,1.7,1.7,0,0,0,.57-.37,1.8,1.8,0,0,0,.37-.58,2.15,2.15,0,0,0,.13-.73,2.09,2.09,0,0,0-.13-.72,1.82,1.82,0,0,0-.37-.56,1.73,1.73,0,0,0-.57-.38,2,2,0,0,0-.7-.13,1.93,1.93,0,0,0-.69.13,1.75,1.75,0,0,0-.55.38,1.63,1.63,0,0,0-.36.56A1.88,1.88,0,0,0,427.79,313.72Zm7.53,6.32v.81h-6.88v-3.46h.93V320ZM435,318.2h-.93v-7.86H435Z"/>
  <path class="cls-2" d="M438,319.08a12.26,12.26,0,0,1,0-6.51,13.18,13.18,0,0,1,1.23-2.83l.65.31a10,10,0,0,0-1.1,2.76,12.76,12.76,0,0,0,0,6,9.78,9.78,0,0,0,1.1,2.76l-.65.33A13.26,13.26,0,0,1,438,319.08Z"/>
  <path class="cls-2" d="M445.92,312.65a4.69,4.69,0,0,1-1.62,2.13,7.77,7.77,0,0,1-2.83,1.28l-.35-.8a6.79,6.79,0,0,0,2.93-1.39,3.39,3.39,0,0,0,1.17-2.21h-3.56v-.81h4.57a5,5,0,0,1-.1,1h2.31v-1.56h.94v5.5h-.94V314.7h-2.67v-.76h2.67v-1.29Zm3.81,7.55V321h-6.91v-2.76h5.63V317.1H442.8v-.79h6.58V319h-5.63v1.25Z"/>
  <path class="cls-2" d="M454.45,313.36a7.12,7.12,0,0,0,.14,1.39A6.5,6.5,0,0,0,455,316a4.72,4.72,0,0,0,.68,1.1,3.26,3.26,0,0,0,.94.8l-.57.72a3.92,3.92,0,0,1-1.27-1.29,6,6,0,0,1-.78-1.85,7.18,7.18,0,0,1-.81,2,4.29,4.29,0,0,1-1.3,1.4l-.57-.73a4.05,4.05,0,0,0,.95-.86,5,5,0,0,0,.69-1.16,6.54,6.54,0,0,0,.43-1.36,7.09,7.09,0,0,0,.15-1.46v-1h-1.94v-.81h4.66v.81h-1.82Zm2.74-2.8h.89v10h-.89V315H455.5v-.8h1.69Zm2.95-.25v10.77h-.9V310.31Z"/>
  <path class="cls-2" d="M461.83,321.52a10.69,10.69,0,0,0,1.1-2.76,13.12,13.12,0,0,0,0-6,10.69,10.69,0,0,0-1.1-2.76l.63-.32a12.39,12.39,0,0,1,1.25,2.84,12.26,12.26,0,0,1,0,6.51,12.32,12.32,0,0,1-1.25,2.83Z"/>
  <path class="cls-2" d="M428,329.26v.79H418.7v-.79h6.87a11.13,11.13,0,0,0,.26-1.77c0-.51,0-1,0-1.4h-6v-.79h6.9v.79c0,.43,0,.89,0,1.39a11.13,11.13,0,0,1-.24,1.78Zm-8.14,2.26h7v3.82h-7Zm.92,3h5.13v-2.24h-5.13Z"/>
  <path class="cls-2" d="M434,327.94a2.82,2.82,0,0,1-.18,1,2.39,2.39,0,0,1-.49.8,2.2,2.2,0,0,1-.74.52,2.34,2.34,0,0,1-.93.18,2.41,2.41,0,0,1-.93-.18,2.26,2.26,0,0,1-.73-.52,2.39,2.39,0,0,1-.49-.8,3,3,0,0,1,0-2.06,2.54,2.54,0,0,1,.49-.81,2.26,2.26,0,0,1,.73-.52,2.41,2.41,0,0,1,.93-.18,2.34,2.34,0,0,1,.93.18,2.2,2.2,0,0,1,.74.52,2.54,2.54,0,0,1,.49.81A2.82,2.82,0,0,1,434,327.94Zm-3.82,0a1.88,1.88,0,0,0,.42,1.24,1.31,1.31,0,0,0,.46.35,1.35,1.35,0,0,0,.6.13,1.31,1.31,0,0,0,.59-.13,1.41,1.41,0,0,0,.46-.35,1.72,1.72,0,0,0,.3-.55,2,2,0,0,0,.12-.69,2,2,0,0,0-.12-.7,1.57,1.57,0,0,0-.3-.54,1.34,1.34,0,0,0-1.05-.49,1.5,1.5,0,0,0-.6.13,1.34,1.34,0,0,0-.46.36,1.78,1.78,0,0,0-.31.54A2,2,0,0,0,430.15,328Zm.81,3.79h6.87v3.76h-.94v-3H431Zm6.87-7v6.41h-.9V328.3h-1.31v2.77h-.87v-6.14h.87v2.57h1.31v-2.78Z"/>
  <path class="cls-2" d="M445.22,328a6.12,6.12,0,0,0,.14,1.28,5.64,5.64,0,0,0,.44,1.21,4.88,4.88,0,0,0,.69,1,3.49,3.49,0,0,0,.93.75l-.54.74a3.91,3.91,0,0,1-1.28-1.22,6.11,6.11,0,0,1-.82-1.75A6.5,6.5,0,0,1,444,332a4.08,4.08,0,0,1-1.28,1.33l-.55-.73a4,4,0,0,0,.92-.82,5.18,5.18,0,0,0,.68-1.1,5.94,5.94,0,0,0,.43-1.27,6.58,6.58,0,0,0,.14-1.32v-.52h-1.89v-.8h1.89v-1.6h.9v1.6h1.88v.8h-1.89ZM448,325h.88v9.93H448v-5.13h-1.57V329H448Zm2.95-.27v10.76H450V324.72Z"/>
  <path class="cls-2" d="M462,333.18V334h-9.25v-.81Zm-2.08-4.38c0-.28,0-.55,0-.83v-1.35h-6.1v-.8h7v1.32c0,.4,0,.79,0,1.18s0,.79-.05,1.21-.08.86-.13,1.33-.15,1-.26,1.53l-.92-.09c.11-.52.19-1,.25-1.46s.11-.88.14-1.29l-6.17.36-.14-.82Z"/>
  <path class="cls-2" d="M377.48,290.62h2a5,5,0,0,1,1.07.11,2.21,2.21,0,0,1,.82.37,1.75,1.75,0,0,1,.54.66,2.53,2.53,0,0,1,.19,1,2.4,2.4,0,0,1-.19,1,1.73,1.73,0,0,1-.53.71,2.15,2.15,0,0,1-.81.42,3.75,3.75,0,0,1-1,.13h-1.16V298h-.88Zm1.92,3.68a2.13,2.13,0,0,0,1.36-.36,1.43,1.43,0,0,0,.44-1.17,1.21,1.21,0,0,0-.46-1.1,2.51,2.51,0,0,0-1.38-.31h-1v2.94Z"/>
  <path class="cls-2" d="M386.06,298.08a2.78,2.78,0,0,1-1.2-.26,2.66,2.66,0,0,1-.94-.76,3.54,3.54,0,0,1-.62-1.21,6.09,6.09,0,0,1,0-3.17,3.63,3.63,0,0,1,.62-1.19,2.74,2.74,0,0,1,.94-.75,2.9,2.9,0,0,1,2.4,0,2.74,2.74,0,0,1,.94.75,3.62,3.62,0,0,1,.61,1.19,5.82,5.82,0,0,1,0,3.17,3.53,3.53,0,0,1-.61,1.21,2.66,2.66,0,0,1-.94.76A2.78,2.78,0,0,1,386.06,298.08Zm0-.81a1.76,1.76,0,0,0,.85-.21,2,2,0,0,0,.65-.61,2.62,2.62,0,0,0,.42-.94,4.81,4.81,0,0,0,.15-1.25A4.73,4.73,0,0,0,388,293a2.57,2.57,0,0,0-.42-.93,1.79,1.79,0,0,0-1.5-.8,1.77,1.77,0,0,0-.86.21,1.82,1.82,0,0,0-.65.59,2.73,2.73,0,0,0-.41.93,4.73,4.73,0,0,0-.15,1.24,4.81,4.81,0,0,0,.15,1.25,2.79,2.79,0,0,0,.41.94,2.09,2.09,0,0,0,.65.61A1.77,1.77,0,0,0,386.06,297.27Z"/>
  <path class="cls-2" d="M392.47,298.08a3.07,3.07,0,0,1-1.36-.29A3.17,3.17,0,0,1,390,297l.52-.63a3.07,3.07,0,0,0,.89.67,2.37,2.37,0,0,0,1,.24,1.62,1.62,0,0,0,1.08-.33,1.11,1.11,0,0,0,.38-.87,1.13,1.13,0,0,0-.09-.47,1,1,0,0,0-.24-.34,2,2,0,0,0-.37-.26l-.45-.23-1-.46a4,4,0,0,1-.5-.26,2.67,2.67,0,0,1-.45-.38,1.93,1.93,0,0,1-.34-.53,2,2,0,0,1-.13-.71,1.85,1.85,0,0,1,.17-.78A2,2,0,0,1,391,291a2.1,2.1,0,0,1,.7-.4,2.5,2.5,0,0,1,.88-.15,2.73,2.73,0,0,1,1.15.25,3,3,0,0,1,.9.66l-.47.59a2.47,2.47,0,0,0-.71-.5,1.92,1.92,0,0,0-.87-.19,1.46,1.46,0,0,0-.95.29,1,1,0,0,0-.35.79.92.92,0,0,0,.1.46,1.09,1.09,0,0,0,.27.33,1.18,1.18,0,0,0,.37.24l.4.19,1,.45c.2.1.39.2.57.31a2.47,2.47,0,0,1,.45.4,1.91,1.91,0,0,1,.31.54,2.16,2.16,0,0,1,.11.71,2,2,0,0,1-.17.82,2,2,0,0,1-.47.66,2,2,0,0,1-.75.44A2.76,2.76,0,0,1,392.47,298.08Z"/>
  <path class="cls-2" d="M397.45,291.4h-2.11v-.78h5.1v.78h-2.11V298h-.88Z"/>
  <path class="cls-2" d="M403,292.52h.9l1,3.09.24.81c.08.28.16.54.24.79h0c.08-.25.16-.51.24-.79l.24-.81,1-3.09h.85L405.86,298h-1Z"/>
  <path class="cls-2" d="M412.81,297.21V298h-3.76v-.74h1.55v-5.27a2.09,2.09,0,0,1,0-.26l-1.27,1.19-.46-.59,1.87-1.7h.69v6.63Z"/>
  <path class="cls-2" d="M416.43,289.52h.63l-2.84,9.72h-.64Z"/>
  <path class="cls-2" d="M419.77,298.08a2.3,2.3,0,0,1-.95-.19,2.1,2.1,0,0,1-.77-.55,2.59,2.59,0,0,1-.51-.89,3.45,3.45,0,0,1-.19-1.21,3.3,3.3,0,0,1,.21-1.21,2.7,2.7,0,0,1,.54-.9,2.46,2.46,0,0,1,.8-.56,2.5,2.5,0,0,1,.94-.19,1.87,1.87,0,0,1,.88.2,2.66,2.66,0,0,1,.63.45l-.45.61a2.49,2.49,0,0,0-.47-.35,1.13,1.13,0,0,0-.56-.14,1.39,1.39,0,0,0-1.15.58,2.06,2.06,0,0,0-.34.66,2.86,2.86,0,0,0-.13.85,2.82,2.82,0,0,0,.12.85,1.71,1.71,0,0,0,.33.66,1.64,1.64,0,0,0,.5.41,1.38,1.38,0,0,0,.65.15,1.53,1.53,0,0,0,.67-.15,2.62,2.62,0,0,0,.55-.39l.37.61a2.44,2.44,0,0,1-.77.52A2.33,2.33,0,0,1,419.77,298.08Z"/>
  <path class="cls-2" d="M422.58,290h.86v2.18l0,1.12a4.15,4.15,0,0,1,.77-.64,1.69,1.69,0,0,1,.94-.27,1.36,1.36,0,0,1,1.2.54,2.78,2.78,0,0,1,.38,1.59V298h-.86v-3.32a2,2,0,0,0-.24-1.11.84.84,0,0,0-.74-.34,1.27,1.27,0,0,0-.72.21,5,5,0,0,0-.7.62V298h-.86Z"/>
  <path class="cls-2" d="M430.42,298.08a2.38,2.38,0,0,1-1-.19,2.13,2.13,0,0,1-.78-.55,2.59,2.59,0,0,1-.53-.9,3.67,3.67,0,0,1,0-2.39,2.84,2.84,0,0,1,.52-.9,2.33,2.33,0,0,1,.75-.57,2,2,0,0,1,.87-.2,2,2,0,0,1,.87.18,1.73,1.73,0,0,1,.65.52,2.61,2.61,0,0,1,.4.8,3.87,3.87,0,0,1,.13,1.05,2.71,2.71,0,0,1,0,.29,1.4,1.4,0,0,1,0,.23h-3.49a2.15,2.15,0,0,0,.51,1.39,1.55,1.55,0,0,0,1.2.5,2.17,2.17,0,0,0,.69-.11,2.48,2.48,0,0,0,.6-.32l.31.61a4.52,4.52,0,0,1-.76.4A2.52,2.52,0,0,1,430.42,298.08Zm1.15-3.27a2.06,2.06,0,0,0-.33-1.26,1.16,1.16,0,0,0-.95-.43,1.24,1.24,0,0,0-.53.12,1.37,1.37,0,0,0-.45.33,1.84,1.84,0,0,0-.33.53,2.24,2.24,0,0,0-.17.71Z"/>
  <path class="cls-2" d="M435.64,298.08a2.3,2.3,0,0,1-.95-.19,2,2,0,0,1-.77-.55,2.79,2.79,0,0,1-.52-.89,3.71,3.71,0,0,1-.18-1.21,3.3,3.3,0,0,1,.2-1.21,2.9,2.9,0,0,1,.55-.9,2.42,2.42,0,0,1,.79-.56,2.56,2.56,0,0,1,.95-.19,1.8,1.8,0,0,1,.87.2,2.94,2.94,0,0,1,.64.45l-.45.61a2.49,2.49,0,0,0-.47-.35,1.2,1.2,0,0,0-.57-.14,1.37,1.37,0,0,0-.64.15,1.4,1.4,0,0,0-.51.43,2.57,2.57,0,0,0-.34.66,2.86,2.86,0,0,0-.12.85,3.18,3.18,0,0,0,.11.85,2,2,0,0,0,.33.66,1.64,1.64,0,0,0,.5.41,1.53,1.53,0,0,0,1.32,0,2.38,2.38,0,0,0,.55-.39l.37.61a2.33,2.33,0,0,1-.77.52A2.25,2.25,0,0,1,435.64,298.08Z"/>
  <path class="cls-2" d="M438.44,290h.86v5.4h0l2.21-2.87h1l-1.73,2.18,2,3.25h-.94l-1.51-2.62-1,1.19V298h-.86Z"/>
  <path class="cls-2" d="M443.29,293.91h3.13v.71h-3.13Z"/>
  <path class="cls-2" d="M449,298.08a1.46,1.46,0,0,1-.6-.11,1.38,1.38,0,0,1-.47-.31,1.43,1.43,0,0,1-.32-.5,2,2,0,0,1-.11-.66,1.59,1.59,0,0,1,.82-1.51,5.08,5.08,0,0,1,2.35-.47,2.94,2.94,0,0,0-.05-.51,1.21,1.21,0,0,0-.16-.44.87.87,0,0,0-.33-.3,1,1,0,0,0-.52-.12,2.37,2.37,0,0,0-.88.16,3,3,0,0,0-.72.37l-.34-.65a4.07,4.07,0,0,1,.91-.44,3.2,3.2,0,0,1,1.17-.21,2,2,0,0,1,.81.16,1.45,1.45,0,0,1,.55.46,2.05,2.05,0,0,1,.32.7,3.73,3.73,0,0,1,.1.91V298h-.71l-.07-.59h0a3.32,3.32,0,0,1-.8.52A2.09,2.09,0,0,1,449,298.08Zm.25-.74a1.7,1.7,0,0,0,.71-.14,2.33,2.33,0,0,0,.71-.49V295.1a8.45,8.45,0,0,0-1.13.15,2.5,2.5,0,0,0-.72.25.91.91,0,0,0-.37.39,1.25,1.25,0,0,0-.11.53.88.88,0,0,0,.26.7A1,1,0,0,0,449.2,297.34Z"/>
  <path class="cls-2" d="M453.13,292.52h.71l.08.79h0a3.81,3.81,0,0,1,.74-.66,1.54,1.54,0,0,1,.87-.27,1.43,1.43,0,0,1,.93.28,1.72,1.72,0,0,1,.5.76,4.68,4.68,0,0,1,.81-.75,1.53,1.53,0,0,1,.89-.29,1.34,1.34,0,0,1,1.18.54,2.71,2.71,0,0,1,.38,1.59V298h-.86v-3.32a2.09,2.09,0,0,0-.23-1.11.85.85,0,0,0-.73-.34,1.93,1.93,0,0,0-1.3.83V298h-.87v-3.32a2,2,0,0,0-.23-1.11.83.83,0,0,0-.73-.34,1.89,1.89,0,0,0-1.3.83V298h-.86Z"/>
  <path class="cls-2" d="M463.93,298.08a2.18,2.18,0,0,1-.91-.19,2.15,2.15,0,0,1-.76-.55,2.81,2.81,0,0,1-.53-.89,3.45,3.45,0,0,1-.19-1.21,3.53,3.53,0,0,1,.19-1.21,2.86,2.86,0,0,1,.53-.9,2.31,2.31,0,0,1,.76-.56,2.27,2.27,0,0,1,1.82,0,2.42,2.42,0,0,1,.76.56,2.86,2.86,0,0,1,.53.9,3.53,3.53,0,0,1,.19,1.21,3.45,3.45,0,0,1-.19,1.21,2.81,2.81,0,0,1-.53.89,2.24,2.24,0,0,1-.76.55A2.18,2.18,0,0,1,463.93,298.08Zm0-.77a1.28,1.28,0,0,0,.61-.15,1.53,1.53,0,0,0,.47-.41,1.84,1.84,0,0,0,.31-.66,3.18,3.18,0,0,0,.11-.85,3.24,3.24,0,0,0-.11-.85,2,2,0,0,0-.31-.66,1.37,1.37,0,0,0-.47-.43,1.32,1.32,0,0,0-1.22,0,1.37,1.37,0,0,0-.47.43,2.22,2.22,0,0,0-.3.66,2.87,2.87,0,0,0-.11.85,2.82,2.82,0,0,0,.11.85,2,2,0,0,0,.3.66,1.53,1.53,0,0,0,.47.41A1.28,1.28,0,0,0,463.93,297.31Z"/>
  <path class="cls-2" d="M469.18,298.08a1.35,1.35,0,0,1-1.19-.54,2.75,2.75,0,0,1-.37-1.58v-3.44h.86v3.34a2,2,0,0,0,.23,1.1.82.82,0,0,0,.74.34,1.24,1.24,0,0,0,.71-.21,3.35,3.35,0,0,0,.69-.71v-3.86h.86V298H471l-.07-.85h0a3.19,3.19,0,0,1-.77.71A1.65,1.65,0,0,1,469.18,298.08Z"/>
  <path class="cls-2" d="M473.45,292.52h.71l.08.78h0a4.34,4.34,0,0,1,.78-.65,1.67,1.67,0,0,1,.94-.27,1.36,1.36,0,0,1,1.2.54,2.78,2.78,0,0,1,.38,1.59V298h-.86v-3.32a2,2,0,0,0-.24-1.11.84.84,0,0,0-.74-.34,1.24,1.24,0,0,0-.71.21,4.52,4.52,0,0,0-.71.62V298h-.86Z"/>
  <path class="cls-2" d="M480.88,298.08a1.62,1.62,0,0,1-.7-.13,1.08,1.08,0,0,1-.45-.36,1.48,1.48,0,0,1-.25-.57,3.45,3.45,0,0,1-.08-.75v-3h-.76v-.69l.8-.05.11-1.52h.72v1.52h1.4v.74h-1.4v3a1.5,1.5,0,0,0,.17.78.68.68,0,0,0,.63.27,1.06,1.06,0,0,0,.29,0l.3-.1.17.68a3.23,3.23,0,0,1-.47.14A2,2,0,0,1,480.88,298.08Z"/>
  <path class="cls-2" d="M484.91,289.52h.63l-2.84,9.72h-.64Z"/>
  <path class="cls-2" d="M487.56,299.05a.72.72,0,0,1-.39-.24,1.06,1.06,0,0,1-.23-.45,2.89,2.89,0,0,1-.08-.73c0-.2,0-.39,0-.57l0-.52,0-.52c0-.17,0-.35,0-.54a1.87,1.87,0,0,0,0-.32.76.76,0,0,0-.15-.28.78.78,0,0,0-.28-.2,1.15,1.15,0,0,0-.44-.08V294a1,1,0,0,0,.44-.08.67.67,0,0,0,.28-.2.72.72,0,0,0,.15-.27,1.75,1.75,0,0,0,0-.32c0-.18,0-.36,0-.54l0-.52,0-.53c0-.18,0-.37,0-.57a3,3,0,0,1,.08-.72,1.17,1.17,0,0,1,.23-.46.86.86,0,0,1,.39-.24,2.17,2.17,0,0,1,.55-.07h.46V290h-.27a.61.61,0,0,0-.58.25,1.55,1.55,0,0,0-.14.78c0,.34,0,.67,0,1s0,.67,0,1.05a2,2,0,0,1-.14.83.74.74,0,0,1-.49.38v0a.83.83,0,0,1,.49.4,2,2,0,0,1,.14.82q0,.57,0,1.05c0,.31,0,.64,0,1a1.55,1.55,0,0,0,.14.78.63.63,0,0,0,.58.24h.27v.52h-.46A1.79,1.79,0,0,1,487.56,299.05Z"/>
  <path class="cls-2" d="M491.39,298.08a1.57,1.57,0,0,1-.69-.13,1.18,1.18,0,0,1-.46-.36A1.63,1.63,0,0,1,490,297a3.45,3.45,0,0,1-.08-.75v-3h-.77v-.69l.81-.05.1-1.52h.73v1.52h1.39v.74h-1.39v3a1.41,1.41,0,0,0,.17.78.67.67,0,0,0,.62.27,1.13,1.13,0,0,0,.3,0l.29-.1.17.68a3.09,3.09,0,0,1-.46.14A2.12,2.12,0,0,1,491.39,298.08Z"/>
  <path class="cls-2" d="M493.79,291.4a.59.59,0,0,1-.43-.16.58.58,0,0,1-.17-.43.56.56,0,0,1,.17-.43.59.59,0,0,1,.43-.16.6.6,0,0,1,.43.16.56.56,0,0,1,.17.43.58.58,0,0,1-.17.43A.6.6,0,0,1,493.79,291.4Zm-.44,1.12h.87V298h-.87Z"/>
  <path class="cls-2" d="M497.72,298.08a2,2,0,0,1-.88-.19,1.85,1.85,0,0,1-.67-.55,2.84,2.84,0,0,1-.43-.89,4.4,4.4,0,0,1-.15-1.21,3.46,3.46,0,0,1,.19-1.19,2.78,2.78,0,0,1,.49-.9,2.29,2.29,0,0,1,.71-.57,1.89,1.89,0,0,1,.84-.2,1.74,1.74,0,0,1,.79.17,3.74,3.74,0,0,1,.67.47l0-.94V290h.87v8h-.71l-.08-.64h0a2.89,2.89,0,0,1-.7.55A1.76,1.76,0,0,1,497.72,298.08Zm.19-.77a1.36,1.36,0,0,0,.68-.18,2.35,2.35,0,0,0,.64-.57v-2.84a2.5,2.5,0,0,0-.63-.44,1.68,1.68,0,0,0-.62-.13,1.2,1.2,0,0,0-.59.15,1.37,1.37,0,0,0-.47.43,2.08,2.08,0,0,0-.32.65,2.87,2.87,0,0,0-.11.85,2.66,2.66,0,0,0,.37,1.53A1.17,1.17,0,0,0,497.91,297.31Z"/>
  <path class="cls-2" d="M501.3,298.6h.28a.63.63,0,0,0,.58-.24,1.66,1.66,0,0,0,.14-.78c0-.34,0-.67,0-1s0-.67,0-1.05a1.79,1.79,0,0,1,.15-.82.8.8,0,0,1,.49-.4v0a.71.71,0,0,1-.49-.38,1.84,1.84,0,0,1-.15-.83q0-.57,0-1.05c0-.31,0-.64,0-1a1.66,1.66,0,0,0-.14-.78.61.61,0,0,0-.58-.25h-.28v-.51h.48a2.23,2.23,0,0,1,.55.07.88.88,0,0,1,.38.24,1.05,1.05,0,0,1,.23.46,2.55,2.55,0,0,1,.08.72c0,.2,0,.39,0,.57l0,.53,0,.52c0,.18,0,.36,0,.54a1.17,1.17,0,0,0,0,.32.59.59,0,0,0,.14.27.79.79,0,0,0,.27.2,1,1,0,0,0,.45.08v.57a1.17,1.17,0,0,0-.45.08,1,1,0,0,0-.27.2.62.62,0,0,0-.14.28,1.22,1.22,0,0,0,0,.32c0,.19,0,.37,0,.54l0,.52,0,.52c0,.18,0,.37,0,.57a2.5,2.5,0,0,1-.08.73,1,1,0,0,1-.23.45.73.73,0,0,1-.38.24,1.84,1.84,0,0,1-.55.07h-.48Z"/>
  <path class="cls-2" d="M578.44,315.6v.8h-9.25v-.8Zm-.88-.85a6.62,6.62,0,0,1-1.16-.31,5.68,5.68,0,0,1-1-.51,4.7,4.7,0,0,1-.89-.69,3.72,3.72,0,0,1-.64-.85,3.28,3.28,0,0,1-.63.86,5.5,5.5,0,0,1-.89.68,5.77,5.77,0,0,1-1.06.51,6.62,6.62,0,0,1-1.16.31l-.34-.77a6.27,6.27,0,0,0,1.33-.37,4.87,4.87,0,0,0,1.15-.63,3.28,3.28,0,0,0,.81-.86,1.76,1.76,0,0,0,.31-1v-.48h1v.48a1.75,1.75,0,0,0,.31,1,3.4,3.4,0,0,0,.81.85,5.54,5.54,0,0,0,1.15.65,6.27,6.27,0,0,0,1.33.37Zm-3.75,2.64a5.44,5.44,0,0,1,2.56.49,1.54,1.54,0,0,1,.93,1.42,1.41,1.41,0,0,1-.24.82,2,2,0,0,1-.69.61,3.87,3.87,0,0,1-1.09.37,8,8,0,0,1-1.47.13,5.53,5.53,0,0,1-2.57-.5,1.57,1.57,0,0,1-.93-1.43,1.38,1.38,0,0,1,.24-.81,1.86,1.86,0,0,1,.69-.6,3.8,3.8,0,0,1,1.11-.38A8.06,8.06,0,0,1,573.81,317.39Zm0,3.07a4.69,4.69,0,0,0,1.88-.3.92.92,0,0,0,.67-.85.94.94,0,0,0-.67-.86,4.69,4.69,0,0,0-1.88-.3,4.78,4.78,0,0,0-1.89.3,1,1,0,0,0-.68.86.93.93,0,0,0,.68.85A4.78,4.78,0,0,0,573.81,320.46Z"/>
  <path class="cls-2" d="M585.26,313.86a2.65,2.65,0,0,1-.2,1.07,2.5,2.5,0,0,1-.57.84,2.45,2.45,0,0,1-.85.55,2.91,2.91,0,0,1-2.12,0,2.5,2.5,0,0,1-.84-.55,2.34,2.34,0,0,1-.56-.84,2.65,2.65,0,0,1-.2-1.07,2.6,2.6,0,0,1,.2-1.06,2.34,2.34,0,0,1,.56-.84,2.5,2.5,0,0,1,.84-.55,3.05,3.05,0,0,1,2.12,0,2.45,2.45,0,0,1,.85.55,2.5,2.5,0,0,1,.57.84A2.6,2.6,0,0,1,585.26,313.86Zm-4.42,0a1.93,1.93,0,0,0,.13.73,1.75,1.75,0,0,0,.37.58,1.53,1.53,0,0,0,.55.37,1.73,1.73,0,0,0,.69.13,1.82,1.82,0,0,0,.7-.13,1.76,1.76,0,0,0,.56-.37,1.75,1.75,0,0,0,.37-.58,1.93,1.93,0,0,0,.13-.73,1.81,1.81,0,0,0-.13-.72,1.7,1.7,0,0,0-.37-.57,1.76,1.76,0,0,0-.56-.37,1.82,1.82,0,0,0-.7-.13,1.73,1.73,0,0,0-.69.13,1.53,1.53,0,0,0-.55.37,1.7,1.7,0,0,0-.37.57A1.81,1.81,0,0,0,580.84,313.86Zm7.54,6.32V321h-6.89v-3.46h.94v2.65Zm-.31-1.85h-.94v-7.86h.94Z"/>
  <path class="cls-2" d="M572.17,328.17a6.21,6.21,0,0,0,.14,1.29,5.56,5.56,0,0,0,.44,1.2,5,5,0,0,0,.69,1,3.93,3.93,0,0,0,.93.75l-.54.74a4,4,0,0,1-1.28-1.22,6.05,6.05,0,0,1-.82-1.76,6.45,6.45,0,0,1-.79,1.88,4.08,4.08,0,0,1-1.28,1.33l-.55-.73a3.79,3.79,0,0,0,.92-.83,4.87,4.87,0,0,0,.68-1.09,5.57,5.57,0,0,0,.42-1.27,6,6,0,0,0,.15-1.33v-.51h-1.9v-.81h1.9v-1.59h.9v1.59h1.88v.81h-1.89Zm2.75-3h.89v9.93h-.89v-5.13h-1.56v-.81h1.56Zm3-.27v10.75H577V324.86Z"/>
  <path class="cls-2" d="M588.94,333.32v.81h-9.25v-.81Zm-2.08-4.38c0-.28,0-.56,0-.83v-1.35h-6.1V326h7v1.32c0,.4,0,.8,0,1.19s0,.79,0,1.21-.08.86-.13,1.33-.15,1-.26,1.53l-.92-.1c.1-.52.19-1,.25-1.45s.11-.88.14-1.29l-6.17.36-.14-.82Z"/>
  <polygon class="cls-9" points="356.75 336.73 356.75 351.13 344.75 343.93 356.75 336.73"/>
  <path class="cls-3" d="M529.37,304.34c16.57,0,30,3.43,30,20s-13.43,20-30,20"/>
  <polygon class="cls-9" points="344.75 311.48 344.75 297.08 356.75 304.28 344.75 311.48"/>
  <polygon class="cls-5" points="524.74 311.48 524.74 297.08 536.74 304.28 524.74 311.48"/>
  <polygon class="cls-5" points="536.74 336.73 536.74 351.13 524.74 343.93 536.74 336.73"/>
  <path class="cls-2" d="M 390.213 233.337 L 391.073 233.337 L 391.163 234.527 L 391.163 234.527 C 391.352 234.141 391.621 233.8 391.953 233.527 C 392.228 233.283 392.585 233.151 392.953 233.157 C 393.073 233.145 393.193 233.145 393.313 233.157 C 393.418 233.18 393.518 233.217 393.613 233.267 L 393.423 234.267 L 393.133 234.187 C 393.027 234.175 392.919 234.175 392.813 234.187 C 392.676 234.19 392.541 234.217 392.413 234.267 C 392.259 234.327 392.116 234.416 391.993 234.527 C 391.841 234.662 391.706 234.817 391.593 234.987 C 391.452 235.206 391.338 235.441 391.253 235.687 L 391.253 239.847 L 390.253 239.847 Z"/>
  <path class="cls-2" d="M 397.133 240.007 C 396.738 240.007 396.348 239.928 395.983 239.777 C 395.624 239.63 395.303 239.404 395.043 239.117 C 394.762 238.801 394.545 238.435 394.403 238.037 C 394.096 237.105 394.096 236.099 394.403 235.167 C 394.548 234.773 394.761 234.407 395.033 234.087 C 395.281 233.802 395.583 233.571 395.923 233.407 C 396.251 233.25 396.61 233.168 396.973 233.167 C 397.319 233.167 397.66 233.242 397.973 233.387 C 398.273 233.529 398.537 233.737 398.743 233.997 C 398.967 234.295 399.13 234.635 399.223 234.997 C 399.339 235.407 399.396 235.831 399.393 236.257 C 399.393 236.377 399.393 236.487 399.393 236.597 C 399.405 236.69 399.405 236.784 399.393 236.877 L 395.213 236.877 C 395.21 237.486 395.427 238.075 395.823 238.537 C 396.189 238.943 396.717 239.166 397.263 239.147 C 397.546 239.153 397.828 239.106 398.093 239.007 C 398.348 238.916 398.591 238.791 398.813 238.637 L 399.193 239.357 C 398.902 239.545 398.594 239.705 398.273 239.837 C 397.907 239.965 397.52 240.022 397.133 240.007 Z M 398.513 236.077 C 398.55 235.543 398.409 235.012 398.113 234.567 C 397.669 234.068 396.95 233.918 396.343 234.197 C 396.139 234.29 395.956 234.422 395.803 234.587 C 395.635 234.776 395.5 234.993 395.403 235.227 C 395.292 235.498 395.225 235.785 395.203 236.077 Z"/>
  <path class="cls-2" d="M 402.903 240.007 C 402.615 240.017 402.328 239.962 402.063 239.847 C 401.848 239.749 401.662 239.598 401.523 239.407 C 401.381 239.202 401.283 238.971 401.233 238.727 C 401.163 238.436 401.129 238.137 401.133 237.837 L 401.133 234.227 L 400.213 234.227 L 400.213 233.397 L 401.213 233.337 L 401.343 231.507 L 402.203 231.507 L 402.203 233.337 L 403.883 233.337 L 403.883 234.227 L 402.203 234.227 L 402.203 237.847 C 402.184 238.174 402.257 238.499 402.413 238.787 C 402.587 239.021 402.874 239.143 403.163 239.107 C 403.281 239.104 403.399 239.087 403.513 239.057 L 403.873 238.937 L 404.073 239.757 C 403.903 239.817 403.713 239.877 403.513 239.927 C 403.314 239.981 403.109 240.008 402.903 240.007 Z"/>
  <path class="cls-2" d="M 407.053 240.007 C 406.497 240.049 405.957 239.804 405.623 239.357 C 405.286 238.783 405.129 238.121 405.173 237.457 L 405.173 233.337 L 406.173 233.337 L 406.173 237.337 C 406.139 237.793 406.232 238.251 406.443 238.657 C 406.648 238.94 406.985 239.095 407.333 239.067 C 407.64 239.073 407.941 238.982 408.193 238.807 C 408.508 238.57 408.784 238.287 409.013 237.967 L 409.013 233.337 L 410.013 233.337 L 410.013 239.847 L 409.153 239.847 L 409.073 238.847 L 409.073 238.847 C 408.813 239.179 408.502 239.469 408.153 239.707 C 407.823 239.912 407.441 240.016 407.053 240.007 Z"/>
  <path class="cls-2" d="M 412.173 233.337 L 413.003 233.337 L 413.103 234.527 L 413.103 234.527 C 413.29 234.143 413.556 233.802 413.883 233.527 C 414.16 233.285 414.516 233.154 414.883 233.157 C 415.003 233.146 415.123 233.146 415.243 233.157 C 415.348 233.18 415.448 233.217 415.543 233.267 L 415.343 234.267 C 415.252 234.234 415.158 234.207 415.063 234.187 C 414.957 234.175 414.85 234.175 414.743 234.187 C 414.603 234.19 414.464 234.217 414.333 234.267 C 414.181 234.325 414.041 234.414 413.923 234.527 C 413.768 234.66 413.633 234.815 413.523 234.987 C 413.382 235.206 413.268 235.441 413.183 235.687 L 413.183 239.847 L 412.183 239.847 Z"/>
  <path class="cls-2" d="M 416.593 233.337 L 417.453 233.337 L 417.543 234.267 L 417.543 234.267 C 417.83 233.976 418.145 233.715 418.483 233.487 C 418.824 233.272 419.22 233.161 419.623 233.167 C 420.18 233.124 420.719 233.37 421.053 233.817 C 421.399 234.391 421.56 235.058 421.513 235.727 L 421.513 239.847 L 420.513 239.847 L 420.513 235.847 C 420.552 235.386 420.454 234.923 420.233 234.517 C 420.028 234.234 419.691 234.079 419.343 234.107 C 419.038 234.101 418.738 234.188 418.483 234.357 C 418.18 234.575 417.898 234.823 417.643 235.097 L 417.643 239.847 L 416.643 239.847 Z"/>
  <path class="cls-2" d="M 426.613 240.007 C 426.212 240.012 425.813 239.948 425.433 239.817 C 425.064 239.689 424.736 239.464 424.483 239.167 C 424.19 238.827 423.971 238.428 423.843 237.997 C 423.681 237.418 423.607 236.818 423.623 236.217 L 423.623 231.057 L 424.683 231.057 L 424.683 236.247 C 424.671 236.694 424.718 237.142 424.823 237.577 C 424.902 237.888 425.042 238.18 425.233 238.437 C 425.397 238.641 425.611 238.799 425.853 238.897 C 426.096 238.99 426.353 239.038 426.613 239.037 C 426.883 239.038 427.15 238.99 427.403 238.897 C 427.649 238.799 427.866 238.641 428.033 238.437 C 428.232 238.183 428.375 237.89 428.453 237.577 C 428.571 237.144 428.625 236.696 428.613 236.247 L 428.613 231.057 L 429.613 231.057 L 429.613 236.217 C 429.632 236.819 429.554 237.42 429.383 237.997 C 429.263 238.429 429.048 238.829 428.753 239.167 C 428.485 239.471 428.14 239.696 427.753 239.817 C 427.386 239.943 427.001 240.007 426.613 240.007 Z"/>
  <path class="cls-2" d="M 431.783 233.337 L 432.633 233.337 L 432.723 234.527 L 432.723 234.527 C 432.91 234.143 433.176 233.802 433.503 233.527 C 433.778 233.283 434.135 233.151 434.503 233.157 C 434.623 233.145 434.743 233.145 434.863 233.157 C 434.968 233.177 435.07 233.214 435.163 233.267 L 434.973 234.267 L 434.693 234.187 C 434.587 234.175 434.48 234.175 434.373 234.187 C 434.233 234.19 434.094 234.217 433.963 234.267 C 433.811 234.325 433.671 234.414 433.553 234.527 C 433.398 234.66 433.263 234.815 433.153 234.987 C 433.009 235.205 432.891 235.44 432.803 235.687 L 432.803 239.847 L 431.803 239.847 Z"/>
  <path class="cls-2" d="M 436.203 239.847 L 436.203 230.297 L 437.203 230.297 L 437.203 239.847 Z"/>
  <path class="cls-2" d="M 450.693 238.607 L 450.693 239.407 L 441.413 239.407 L 441.413 238.607 L 445.573 238.607 L 445.573 236.607 L 442.573 236.607 L 442.573 233.247 L 448.643 233.247 L 448.643 231.567 L 442.553 231.567 L 442.553 230.767 L 449.553 230.767 L 449.553 234.037 L 443.503 234.037 L 443.503 235.787 L 449.783 235.787 L 449.783 236.577 L 446.513 236.577 L 446.513 238.577 Z"/>
  <path class="cls-2" d="M 457.443 230.847 C 457.81 230.84 458.172 230.93 458.493 231.107 C 458.821 231.294 459.102 231.554 459.313 231.867 C 459.556 232.227 459.736 232.626 459.843 233.047 C 460.11 234.066 460.11 235.137 459.843 236.157 C 459.734 236.577 459.555 236.976 459.313 237.337 C 459.101 237.647 458.821 237.904 458.493 238.087 C 457.839 238.446 457.047 238.446 456.393 238.087 C 456.066 237.904 455.785 237.647 455.573 237.337 C 455.328 236.977 455.146 236.578 455.033 236.157 C 454.78 235.136 454.78 234.068 455.033 233.047 C 455.144 232.625 455.326 232.226 455.573 231.867 C 455.785 231.554 456.065 231.294 456.393 231.107 C 456.714 230.93 457.076 230.84 457.443 230.847 Z M 457.443 231.727 C 457.197 231.726 456.957 231.799 456.753 231.937 C 456.53 232.081 456.345 232.276 456.213 232.507 C 456.049 232.791 455.928 233.097 455.853 233.417 C 455.769 233.804 455.729 234.2 455.733 234.597 C 455.729 234.993 455.77 235.389 455.853 235.777 C 455.929 236.093 456.051 236.396 456.213 236.677 C 456.344 236.913 456.529 237.115 456.753 237.267 C 456.96 237.398 457.199 237.467 457.443 237.467 C 457.685 237.468 457.921 237.399 458.123 237.267 C 458.347 237.115 458.532 236.913 458.663 236.677 C 458.827 236.397 458.945 236.093 459.013 235.777 C 459.105 235.39 459.149 234.994 459.143 234.597 C 459.149 234.2 459.106 233.803 459.013 233.417 C 458.947 233.097 458.829 232.789 458.663 232.507 C 458.532 232.276 458.346 232.081 458.123 231.937 C 457.929 231.783 457.691 231.696 457.443 231.687 Z M 462.833 230.017 L 462.833 240.807 L 461.903 240.807 L 461.903 229.977 Z"/>
  <path class="cls-2" d="M 474.213 235.287 L 474.213 236.077 L 465.003 236.077 L 465.003 235.287 L 469.163 235.287 L 469.163 234.037 L 466.163 234.037 L 466.163 230.467 L 473.003 230.467 L 473.003 231.257 L 467.003 231.257 L 467.003 233.257 L 473.073 233.257 L 473.073 234.047 L 470.013 234.047 L 470.013 235.297 Z M 469.573 236.847 C 470.063 236.845 470.552 236.889 471.033 236.977 C 471.418 237.042 471.79 237.171 472.133 237.357 C 472.407 237.504 472.644 237.713 472.823 237.967 C 472.985 238.213 473.068 238.502 473.063 238.797 C 473.07 239.088 472.986 239.375 472.823 239.617 C 472.648 239.877 472.411 240.09 472.133 240.237 C 471.788 240.419 471.417 240.547 471.033 240.617 C 470.551 240.701 470.062 240.741 469.573 240.737 C 468.689 240.778 467.807 240.607 467.003 240.237 C 466.437 239.981 466.073 239.418 466.073 238.797 C 466.068 238.174 466.434 237.608 467.003 237.357 C 467.805 236.979 468.688 236.803 469.573 236.847 Z M 469.573 239.967 C 470.214 239.996 470.854 239.894 471.453 239.667 C 472.127 239.474 472.339 238.625 471.836 238.138 C 471.729 238.034 471.597 237.958 471.453 237.917 C 470.854 237.689 470.214 237.587 469.573 237.617 C 468.929 237.588 468.287 237.691 467.683 237.917 C 467.01 238.079 466.764 238.91 467.241 239.412 C 467.361 239.538 467.514 239.626 467.683 239.667 C 468.287 239.893 468.929 239.995 469.573 239.967 Z"/>
  <path d="M 312.253 286.781 L 319.783 299.791 L 304.723 299.791 L 312.253 286.781 M 312.253 282.791 L 301.253 301.791 L 323.253 301.791 L 312.253 282.791 Z M 313.253 296.791 L 311.253 296.791 L 311.253 298.791 L 313.253 298.791 L 313.253 296.791 Z M 313.253 290.791 L 311.253 290.791 L 311.253 294.791 L 313.253 294.791 L 313.253 290.791 Z" style="fill: rgb(64, 100, 195);"/>
</svg>