<?xml version="1.0" encoding="utf-8"?>
<svg id="_迹_1" data-name="卵迹_1" viewBox="98.815 14.888 537.727 490.38" xmlns="http://www.w3.org/2000/svg">
  <defs>
    <style>.cls-1{fill:#f7f7f7;}.cls-2,.cls-6{fill:none;}.cls-2{stroke:#9e9e9e;}.cls-2,.cls-5,.cls-6{stroke-miterlimit:10;}.cls-3{fill:#9e9e9e;}.cls-4{fill:#767676;}.cls-5{fill:#f6f6f6;opacity:0.4;}.cls-5,.cls-6{stroke:#4064c3;stroke-width:2px;}.cls-7{fill:#c1411a;}.cls-8{fill:#233976;}</style>
  </defs>
  <title>비대면 플랫폼 웹메뉴얼_outline</title>
  <rect class="cls-1" x="155.87" y="62.32" width="30" height="430" rx="15"/>
  <rect class="cls-1" x="335.48" y="62.32" width="30" height="430" rx="15"/>
  <rect class="cls-1" x="516.79" y="62.32" width="30" height="430" rx="15"/>
  <path d="M331.08,42A5.6,5.6,0,0,1,327,40.22l.88-1a4.92,4.92,0,0,0,1.49,1.07,4.18,4.18,0,0,0,1.76.39,2.83,2.83,0,0,0,1.81-.53,1.68,1.68,0,0,0,.66-1.39,1.74,1.74,0,0,0-.16-.76,1.68,1.68,0,0,0-.41-.54,2.78,2.78,0,0,0-.62-.41l-.77-.37-1.69-.74a5,5,0,0,1-.83-.42,3.45,3.45,0,0,1-.77-.61,2.65,2.65,0,0,1-.57-.85,2.8,2.8,0,0,1-.22-1.12,2.9,2.9,0,0,1,.28-1.25,3,3,0,0,1,.77-1,3.5,3.5,0,0,1,1.17-.65,4.42,4.42,0,0,1,1.48-.23,4.61,4.61,0,0,1,1.94.4,4.74,4.74,0,0,1,1.52,1.05l-.79.95a4.38,4.38,0,0,0-1.2-.81,3.51,3.51,0,0,0-1.47-.3,2.52,2.52,0,0,0-1.6.47,1.5,1.5,0,0,0-.59,1.26,1.56,1.56,0,0,0,.17.74,2,2,0,0,0,.45.52,2.8,2.8,0,0,0,.63.39l.68.3,1.68.72a8.67,8.67,0,0,1,1,.5,3.35,3.35,0,0,1,.76.64,2.81,2.81,0,0,1,.52.85,3.35,3.35,0,0,1,.18,1.15,3,3,0,0,1-.28,1.3A3.38,3.38,0,0,1,334,41a3.67,3.67,0,0,1-1.26.71A5.05,5.05,0,0,1,331.08,42Z" style="fill: rgb(118, 118, 118);"/>
  <path d="M340.74,42a4.33,4.33,0,0,1-1.62-.31,3.63,3.63,0,0,1-1.32-.89,4,4,0,0,1-.89-1.43,5.69,5.69,0,0,1,0-3.82,4.47,4.47,0,0,1,.87-1.44,3.63,3.63,0,0,1,1.26-.91,3.48,3.48,0,0,1,1.47-.32,3.57,3.57,0,0,1,1.47.28,3,3,0,0,1,1.08.83,3.69,3.69,0,0,1,.68,1.29,5.83,5.83,0,0,1,.23,1.68c0,.16,0,.31,0,.45s0,.27,0,.38H338a3.33,3.33,0,0,0,.85,2.21,2.67,2.67,0,0,0,2,.81,3.59,3.59,0,0,0,1.17-.18,4,4,0,0,0,1-.51l.53,1a6.65,6.65,0,0,1-1.28.64A4.44,4.44,0,0,1,340.74,42Zm1.94-5.24a3.09,3.09,0,0,0-.57-2,2,2,0,0,0-1.59-.69,2.25,2.25,0,0,0-.89.18,2.37,2.37,0,0,0-.76.53,2.73,2.73,0,0,0-.56.85,3.67,3.67,0,0,0-.29,1.14Z" style="fill: rgb(118, 118, 118);"/>
  <path d="M346.1,33.07h1.2l.13,1.58h.05a4.24,4.24,0,0,1,1.09-1.32,2.22,2.22,0,0,1,1.37-.48,2.47,2.47,0,0,1,.5,0,1.16,1.16,0,0,1,.43.15l-.28,1.28a1.73,1.73,0,0,0-.4-.11,1.78,1.78,0,0,0-.44,0,1.74,1.74,0,0,0-.57.11,2.19,2.19,0,0,0-.59.33,3.1,3.1,0,0,0-.55.62,3.6,3.6,0,0,0-.48.94v5.59H346.1Z" style="fill: rgb(118, 118, 118);"/>
  <path d="M351.51,33.07H353L354.66,38c.14.43.27.86.41,1.3s.27.86.4,1.26h.07l.4-1.26c.14-.44.27-.87.4-1.3L358,33.07h1.44l-3.09,8.69h-1.7Z" style="fill: rgb(118, 118, 118);"/>
  <path d="M364.61,42a4.33,4.33,0,0,1-1.62-.31,3.63,3.63,0,0,1-1.32-.89,4,4,0,0,1-.89-1.43,5.69,5.69,0,0,1,0-3.82,4.47,4.47,0,0,1,.87-1.44,3.83,3.83,0,0,1,1.26-.91,3.48,3.48,0,0,1,1.47-.32,3.54,3.54,0,0,1,1.47.28,3.08,3.08,0,0,1,1.09.83,3.85,3.85,0,0,1,.67,1.29,5.51,5.51,0,0,1,.23,1.68c0,.16,0,.31,0,.45a3.22,3.22,0,0,1-.05.38h-5.87a3.33,3.33,0,0,0,.85,2.21,2.68,2.68,0,0,0,2,.81A3.57,3.57,0,0,0,366,40.6a4,4,0,0,0,1-.51l.53,1a6.65,6.65,0,0,1-1.28.64A4.44,4.44,0,0,1,364.61,42Zm1.94-5.24a3.09,3.09,0,0,0-.57-2,2,2,0,0,0-1.59-.69,2.25,2.25,0,0,0-.89.18,2.48,2.48,0,0,0-.76.53,2.73,2.73,0,0,0-.56.85,3.67,3.67,0,0,0-.29,1.14Z" style="fill: rgb(118, 118, 118);"/>
  <path d="M370,33.07h1.2l.13,1.58h.05a4.38,4.38,0,0,1,1.09-1.32,2.22,2.22,0,0,1,1.37-.48,2.47,2.47,0,0,1,.5,0,1.16,1.16,0,0,1,.43.15l-.27,1.28a2,2,0,0,0-.4-.11,1.92,1.92,0,0,0-.45,0,1.74,1.74,0,0,0-.57.11,2,2,0,0,0-.58.33,2.85,2.85,0,0,0-.56.62,3.93,3.93,0,0,0-.48.94v5.59H370Z" style="fill: rgb(118, 118, 118);"/>
  <path d="M503.59,30h1.53l4.28,7.39,1.24,2.42h.08c0-.6-.08-1.22-.12-1.85s-.07-1.26-.07-1.86V30h1.41V41.76h-1.52l-4.27-7.4L504.88,32h-.06c0,.6.07,1.2.11,1.81S505,35,505,35.61v6.15h-1.41Z" style="fill: rgb(118, 118, 118);"/>
  <path d="M515.75,31.28A1,1,0,0,1,515,31a1,1,0,0,1,0-1.37,1,1,0,0,1,.72-.25,1.05,1.05,0,0,1,.72.25,1,1,0,0,1,0,1.37A1,1,0,0,1,515.75,31.28ZM515,33.07h1.46v8.69H515Z" style="fill: rgb(118, 118, 118);"/>
  <path d="M522.84,42a4.24,4.24,0,0,1-1.61-.31,3.64,3.64,0,0,1-1.3-.89,3.89,3.89,0,0,1-.86-1.42,5.47,5.47,0,0,1-.31-1.93,5.07,5.07,0,0,1,.34-1.93,4.4,4.4,0,0,1,.92-1.44,3.73,3.73,0,0,1,1.33-.9,4.33,4.33,0,0,1,1.6-.3,3.32,3.32,0,0,1,1.47.3,5.17,5.17,0,0,1,1.07.73l-.75,1a4.2,4.2,0,0,0-.8-.57,2.06,2.06,0,0,0-.94-.21,2.47,2.47,0,0,0-2,.92,3.47,3.47,0,0,0-.57,1.06,4.17,4.17,0,0,0-.21,1.36,4.46,4.46,0,0,0,.2,1.36,3.08,3.08,0,0,0,.55,1,2.63,2.63,0,0,0,.85.67,2.72,2.72,0,0,0,2.21,0,4.19,4.19,0,0,0,.93-.62l.63,1a4.33,4.33,0,0,1-1.3.82A3.86,3.86,0,0,1,522.84,42Z" style="fill: rgb(118, 118, 118);"/>
  <path d="M530.68,42a4.42,4.42,0,0,1-1.63-.31,3.63,3.63,0,0,1-1.32-.89,4.19,4.19,0,0,1-.89-1.43,5.86,5.86,0,0,1,0-3.82,4.32,4.32,0,0,1,.88-1.44,3.63,3.63,0,0,1,1.26-.91,3.41,3.41,0,0,1,1.46-.32,3.62,3.62,0,0,1,1.48.28A3,3,0,0,1,533,34a3.69,3.69,0,0,1,.68,1.29,5.83,5.83,0,0,1,.23,1.68c0,.16,0,.31,0,.45a3.22,3.22,0,0,1,0,.38H528a3.33,3.33,0,0,0,.86,2.21,2.66,2.66,0,0,0,2,.81A3.59,3.59,0,0,0,532,40.6a4.17,4.17,0,0,0,1-.51l.53,1a7.28,7.28,0,0,1-1.28.64A4.47,4.47,0,0,1,530.68,42Zm1.93-5.24a3.09,3.09,0,0,0-.57-2,2,2,0,0,0-1.59-.69,2.28,2.28,0,0,0-.89.18,2.61,2.61,0,0,0-.76.53,2.92,2.92,0,0,0-.56.85,3.67,3.67,0,0,0-.28,1.14Z" style="fill: rgb(118, 118, 118);"/>
  <path d="M536,33.07h1.19l.13,1h0a8.32,8.32,0,0,1,1.3-.85,3.37,3.37,0,0,1,2.95,0,3.13,3.13,0,0,1,1.09.89,4.17,4.17,0,0,1,.66,1.39,6.94,6.94,0,0,1,.23,1.83,5.85,5.85,0,0,1-.32,2,4.55,4.55,0,0,1-.83,1.47,3.48,3.48,0,0,1-1.2.91,3.36,3.36,0,0,1-1.43.32,2.9,2.9,0,0,1-1.2-.27,4.91,4.91,0,0,1-1.2-.76l0,1.53v3H536Zm3.58,7.66a2.14,2.14,0,0,0,1-.24,2.29,2.29,0,0,0,.79-.67,3.19,3.19,0,0,0,.52-1.08,5.38,5.38,0,0,0,.18-1.45A6.57,6.57,0,0,0,542,36a3.24,3.24,0,0,0-.4-1,1.85,1.85,0,0,0-.71-.65,2.23,2.23,0,0,0-1-.23,2.39,2.39,0,0,0-1.13.3,5.79,5.79,0,0,0-1.21.9v4.54a3.75,3.75,0,0,0,1.15.71A2.72,2.72,0,0,0,539.62,40.73Z" style="fill: rgb(118, 118, 118);"/>
  <path d="M547.68,42a2.7,2.7,0,0,1-1-.18,2.26,2.26,0,0,1-.8-.5,2.33,2.33,0,0,1-.53-.8,2.74,2.74,0,0,1-.19-1.06A2.52,2.52,0,0,1,546.54,37a9,9,0,0,1,4-.75,4.47,4.47,0,0,0-.08-.82,2,2,0,0,0-.28-.7,1.46,1.46,0,0,0-.55-.49,1.94,1.94,0,0,0-.88-.18,4.3,4.3,0,0,0-1.48.25,4.88,4.88,0,0,0-1.21.6l-.58-1a7.85,7.85,0,0,1,1.53-.71,5.79,5.79,0,0,1,2-.32,3.37,3.37,0,0,1,1.36.25,2.41,2.41,0,0,1,.93.73,3.21,3.21,0,0,1,.54,1.13,5.48,5.48,0,0,1,.18,1.45v5.35h-1.2l-.13-.95h0a5.62,5.62,0,0,1-1.35.84A3.87,3.87,0,0,1,547.68,42Zm.42-1.19a3.16,3.16,0,0,0,1.2-.22,4.32,4.32,0,0,0,1.2-.79V37.2a14.92,14.92,0,0,0-1.91.23,4.05,4.05,0,0,0-1.21.41,1.4,1.4,0,0,0-.62.61,1.91,1.91,0,0,0-.18.86,1.36,1.36,0,0,0,.43,1.11A1.65,1.65,0,0,0,548.1,40.78Z" style="fill: rgb(118, 118, 118);"/>
  <path d="M555.6,45.5,557,41.68l-3.48-8.61H555l1.77,4.74c.13.37.27.77.41,1.2l.42,1.23h.08l.37-1.23.37-1.2L560,33.07h1.42L557,45.5Z" style="fill: rgb(118, 118, 118);"/>
  <path d="M122.36,42a5,5,0,0,1-2-.41,4.51,4.51,0,0,1-1.62-1.19,5.68,5.68,0,0,1-1.08-1.92,8,8,0,0,1-.38-2.55,7.76,7.76,0,0,1,.39-2.55,5.8,5.8,0,0,1,1.09-1.92,4.59,4.59,0,0,1,1.65-1.21,5,5,0,0,1,2.07-.41,4.17,4.17,0,0,1,1,.12,4.93,4.93,0,0,1,.89.32,4.81,4.81,0,0,1,.73.47,4.4,4.4,0,0,1,.59.54l-.8,1a4.1,4.1,0,0,0-1-.81,2.92,2.92,0,0,0-1.35-.31,3.46,3.46,0,0,0-1.52.33,3.28,3.28,0,0,0-1.16.94,4.41,4.41,0,0,0-.76,1.5,7.14,7.14,0,0,0-.26,2,7.23,7.23,0,0,0,.26,2,4.56,4.56,0,0,0,.72,1.52,3.2,3.2,0,0,0,1.15,1,3.27,3.27,0,0,0,1.52.34,3.19,3.19,0,0,0,1.5-.35,5,5,0,0,0,1.22-1l.81.93a5,5,0,0,1-1.57,1.24A4.5,4.5,0,0,1,122.36,42Z" style="fill: rgb(118, 118, 118);"/>
  <path d="M128,41.76V29h1.46V41.76Z" style="fill: rgb(118, 118, 118);"/>
  <path d="M133.12,31.28a1,1,0,0,1-.72-.27,1,1,0,0,1,0-1.37,1,1,0,0,1,.72-.25,1.07,1.07,0,0,1,.72.25,1,1,0,0,1,0,1.37A1,1,0,0,1,133.12,31.28Zm-.74,1.79h1.46v8.69h-1.46Z" style="fill: rgb(118, 118, 118);"/>
  <path d="M140.28,42a4.4,4.4,0,0,1-1.62-.31,3.63,3.63,0,0,1-1.32-.89,4.19,4.19,0,0,1-.89-1.43,5.69,5.69,0,0,1,0-3.82,4.32,4.32,0,0,1,.88-1.44,3.69,3.69,0,0,1,1.25-.91,3.48,3.48,0,0,1,1.47-.32,3.62,3.62,0,0,1,1.48.28,3,3,0,0,1,1.08.83,3.67,3.67,0,0,1,.67,1.29,5.5,5.5,0,0,1,.24,1.68c0,.16,0,.31,0,.45a3.22,3.22,0,0,1-.05.38h-5.87a3.33,3.33,0,0,0,.86,2.21,2.66,2.66,0,0,0,2,.81,3.59,3.59,0,0,0,1.17-.18,4.17,4.17,0,0,0,1-.51l.52,1a6.65,6.65,0,0,1-1.28.64A4.44,4.44,0,0,1,140.28,42Zm1.94-5.24a3.09,3.09,0,0,0-.57-2,2,2,0,0,0-1.59-.69,2.25,2.25,0,0,0-.89.18,2.61,2.61,0,0,0-.76.53,2.92,2.92,0,0,0-.56.85,4,4,0,0,0-.29,1.14Z" style="fill: rgb(118, 118, 118);"/>
  <path d="M145.64,33.07h1.2l.13,1.25H147a7.93,7.93,0,0,1,1.32-1,2.91,2.91,0,0,1,1.59-.43,2.34,2.34,0,0,1,2,.86,4.28,4.28,0,0,1,.64,2.54v5.51h-1.46V36.45a3.11,3.11,0,0,0-.39-1.78,1.45,1.45,0,0,0-1.26-.54,2.26,2.26,0,0,0-1.2.33,8.23,8.23,0,0,0-1.18,1v6.31h-1.46Z" style="fill: rgb(118, 118, 118);"/>
  <path d="M158.16,42a2.9,2.9,0,0,1-1.18-.21,1.8,1.8,0,0,1-.76-.59,2.47,2.47,0,0,1-.42-.91,5.38,5.38,0,0,1-.12-1.19V34.25h-1.3v-1.1l1.36-.08.17-2.43h1.22v2.43h2.35v1.18h-2.35V39.1a2.26,2.26,0,0,0,.29,1.25,1.17,1.17,0,0,0,1.06.43,1.86,1.86,0,0,0,.49-.07l.5-.15.29,1.09c-.25.08-.51.16-.79.22A3.9,3.9,0,0,1,158.16,42Z" style="fill: rgb(118, 118, 118);"/>
  <path d="M165.16,30h3.49a7.6,7.6,0,0,1,1.64.16,3.75,3.75,0,0,1,1.27.5,2.53,2.53,0,0,1,.83.89,2.79,2.79,0,0,1,.29,1.31,2.84,2.84,0,0,1-.45,1.58,2.31,2.31,0,0,1-1.27,1v.08a3.22,3.22,0,0,1,1.72.9,2.62,2.62,0,0,1,.67,1.9,3.29,3.29,0,0,1-.32,1.51,3,3,0,0,1-.92,1.07,4,4,0,0,1-1.4.64,6.83,6.83,0,0,1-1.8.22h-3.75Zm3.23,5a3.53,3.53,0,0,0,2.18-.52,1.68,1.68,0,0,0,.66-1.41,1.54,1.54,0,0,0-.7-1.45,3.94,3.94,0,0,0-2.07-.43h-1.81V35Zm.31,5.55a4.27,4.27,0,0,0,2.36-.55,1.94,1.94,0,0,0,.84-1.75,1.76,1.76,0,0,0-.82-1.61,4.69,4.69,0,0,0-2.38-.5h-2v4.41Z" style="fill: rgb(118, 118, 118);"/>
  <path d="M175.55,33.07h1.2l.12,1.58h0a4.4,4.4,0,0,1,1.1-1.32,2.22,2.22,0,0,1,1.37-.48,2.47,2.47,0,0,1,.5,0,1.12,1.12,0,0,1,.42.15L180,34.32a1.87,1.87,0,0,0-.4-.11,1.82,1.82,0,0,0-.45,0,1.64,1.64,0,0,0-.56.11,2.05,2.05,0,0,0-.59.33,3.13,3.13,0,0,0-.56.62,4.34,4.34,0,0,0-.48.94v5.59h-1.45Z" style="fill: rgb(118, 118, 118);"/>
  <path d="M185.13,42a4,4,0,0,1-1.53-.31,3.88,3.88,0,0,1-1.29-.89,4.07,4.07,0,0,1-.88-1.42,5.81,5.81,0,0,1,0-3.86,4.16,4.16,0,0,1,.88-1.44,3.77,3.77,0,0,1,1.29-.9,4.05,4.05,0,0,1,3.06,0,3.77,3.77,0,0,1,1.29.9,4.16,4.16,0,0,1,.88,1.44,5.81,5.81,0,0,1,0,3.86,4.07,4.07,0,0,1-.88,1.42,3.88,3.88,0,0,1-1.29.89A4,4,0,0,1,185.13,42Zm0-1.24a2.28,2.28,0,0,0,1-.23,2.45,2.45,0,0,0,.8-.67,3,3,0,0,0,.52-1,5,5,0,0,0,0-2.72A3.18,3.18,0,0,0,187,35a2.26,2.26,0,0,0-.8-.68,2.16,2.16,0,0,0-1-.24,2.19,2.19,0,0,0-1,.24,2.26,2.26,0,0,0-.8.68,3.87,3.87,0,0,0-.51,1.06,5.23,5.23,0,0,0,0,2.72,3.67,3.67,0,0,0,.51,1,2.45,2.45,0,0,0,.8.67A2.31,2.31,0,0,0,185.13,40.73Z" style="fill: rgb(118, 118, 118);"/>
  <path d="M190.41,33.07h1.49l1.29,5c.09.42.18.83.26,1.23s.17.8.26,1.21h.08c.09-.41.19-.81.28-1.22s.19-.81.31-1.22l1.34-5h1.43l1.36,5,.3,1.23.3,1.21h.07c.09-.41.19-.81.27-1.21l.27-1.23,1.28-5h1.38L200,41.76h-1.76L197,37.07c-.12-.41-.22-.81-.31-1.22s-.18-.83-.28-1.28h-.08c-.1.45-.19.88-.28,1.29s-.2.83-.32,1.24l-1.21,4.66h-1.71Z" style="fill: rgb(118, 118, 118);"/>
  <path d="M206.55,42a4.66,4.66,0,0,1-1.77-.35,5.51,5.51,0,0,1-1.47-.85l.72-1a5.22,5.22,0,0,0,1.17.74,3.3,3.3,0,0,0,1.4.28,1.8,1.8,0,0,0,1.29-.4,1.29,1.29,0,0,0,.42-1,1,1,0,0,0-.17-.58,1.91,1.91,0,0,0-.46-.43,3.21,3.21,0,0,0-.64-.34l-.71-.3a8,8,0,0,1-.92-.37,3.67,3.67,0,0,1-.83-.5,2.49,2.49,0,0,1-.61-.69,1.88,1.88,0,0,1-.23-.95,2.27,2.27,0,0,1,.78-1.74,2.73,2.73,0,0,1,.95-.53,3.79,3.79,0,0,1,1.26-.19,3.85,3.85,0,0,1,1.5.28,5.3,5.3,0,0,1,1.2.68l-.7.94a5.35,5.35,0,0,0-.94-.55,2.42,2.42,0,0,0-1.06-.22,1.72,1.72,0,0,0-1.2.37,1.17,1.17,0,0,0-.38.88.85.85,0,0,0,.16.54,1.46,1.46,0,0,0,.43.38,3.17,3.17,0,0,0,.61.31l.72.28,1,.38a4,4,0,0,1,.85.51,2.59,2.59,0,0,1,.61.71,2.09,2.09,0,0,1,.24,1,2.46,2.46,0,0,1-.21,1,2.26,2.26,0,0,1-.6.81,3.1,3.1,0,0,1-1,.56A4,4,0,0,1,206.55,42Z" style="fill: rgb(118, 118, 118);"/>
  <path d="M215.27,42a4.4,4.4,0,0,1-1.62-.31,3.63,3.63,0,0,1-1.32-.89,4.19,4.19,0,0,1-.89-1.43,5.69,5.69,0,0,1,0-3.82,4.32,4.32,0,0,1,.88-1.44,3.63,3.63,0,0,1,1.26-.91,3.41,3.41,0,0,1,1.46-.32,3.62,3.62,0,0,1,1.48.28,3,3,0,0,1,1.08.83,3.67,3.67,0,0,1,.67,1.29,5.5,5.5,0,0,1,.24,1.68c0,.16,0,.31,0,.45a3.22,3.22,0,0,1-.05.38h-5.87a3.33,3.33,0,0,0,.86,2.21,2.66,2.66,0,0,0,2,.81,3.59,3.59,0,0,0,1.17-.18,4.17,4.17,0,0,0,1-.51l.52,1a6.65,6.65,0,0,1-1.28.64A4.44,4.44,0,0,1,215.27,42Zm1.94-5.24a3.09,3.09,0,0,0-.57-2,2,2,0,0,0-1.59-.69,2.25,2.25,0,0,0-.89.18,2.61,2.61,0,0,0-.76.53,2.92,2.92,0,0,0-.56.85,4,4,0,0,0-.29,1.14Z" style="fill: rgb(118, 118, 118);"/>
  <path d="M220.63,33.07h1.2l.13,1.58h0a4.26,4.26,0,0,1,1.1-1.32,2.19,2.19,0,0,1,1.36-.48,2.57,2.57,0,0,1,.51,0,1.18,1.18,0,0,1,.42.15l-.27,1.28a1.87,1.87,0,0,0-.4-.11,1.92,1.92,0,0,0-.45,0,1.74,1.74,0,0,0-.57.11,2.14,2.14,0,0,0-.58.33,3.13,3.13,0,0,0-.56.62,4.34,4.34,0,0,0-.48.94v5.59h-1.46Z" style="fill: rgb(118, 118, 118);"/>
  <line class="cls-2" x1="532.38" y1="317.37" x2="352.35" y2="317.37"/>
  <line class="cls-2" x1="532.38" y1="257.34" x2="352.35" y2="257.34"/>
  <path class="cls-2" d="M531.88,257.32a30,30,0,0,1,0,60"/>
  <path class="cls-2" d="M352.13,287.32c-16.57,0-30-6.71-30-15s13.43-15,30-15"/>
  <polygon class="cls-3" points="525.79 264.52 525.79 250.12 537.79 257.32 525.79 264.52"/>
  <polygon class="cls-3" points="537.79 310.17 537.79 324.57 525.79 317.37 537.79 310.17"/>
  <polygon class="cls-3" points="344.75 264.52 344.75 250.12 356.75 257.32 344.75 264.52"/>
  <line class="cls-2" x1="532.99" y1="457.29" x2="352.97" y2="457.29"/>
  <line class="cls-2" x1="532.99" y1="397.28" x2="352.97" y2="397.28"/>
  <path class="cls-4" d="M412.35,471.14h-4.79v-4.73h.93V468h2.94v-1.56h.92Zm-.92-2.4h-2.94v1.6h2.94Zm4.33,7.12v.77h-6.94V474h5.67v-1.05h-5.7v-.77h6.63v2.54h-5.68v1.15Zm-.35-4.24h-.94V466h.94Z"/>
  <path class="cls-4" d="M423,467.1a11.48,11.48,0,0,1-.22,2.29,7.68,7.68,0,0,1-.76,2.12,8,8,0,0,1-1.46,1.89,9.74,9.74,0,0,1-2.29,1.6l-.5-.78a8.52,8.52,0,0,0,2.31-1.63,6.65,6.65,0,0,0,1.37-2l-3.49.35-.16-.86,3.95-.28a5.86,5.86,0,0,0,.22-.92,9.37,9.37,0,0,0,.11-1h-3.75v-.81ZM425.9,466v10.76H425V466Z"/>
  <path class="cls-4" d="M436,471.84a4.43,4.43,0,0,1-1.5-1,4.17,4.17,0,0,1-1-1.47,4.63,4.63,0,0,1-1,1.62,4.08,4.08,0,0,1-1.56,1l-.47-.79a3.82,3.82,0,0,0,1.05-.58,4.23,4.23,0,0,0,.8-.84,4,4,0,0,0,.51-1,4.12,4.12,0,0,0,.17-1.16v-1.12H434v1.19a3.23,3.23,0,0,0,.18,1.06,3.49,3.49,0,0,0,.51,1,3.66,3.66,0,0,0,.79.78,4,4,0,0,0,1,.55Zm-4.19,1.22h6.66v3.7h-.93v-2.91h-5.73Zm8.18-3.41h-1.52v2.87h-.93V466h.93v2.83H440Z"/>
  <path class="cls-4" d="M444,469a7.23,7.23,0,0,0,.14,1.4,7,7,0,0,0,.42,1.29,4.66,4.66,0,0,0,.68,1.09,3.46,3.46,0,0,0,.94.81l-.57.72a3.92,3.92,0,0,1-1.27-1.29,6.2,6.2,0,0,1-.78-1.86,6.94,6.94,0,0,1-.81,2,4.19,4.19,0,0,1-1.3,1.4l-.57-.73a3.67,3.67,0,0,0,.95-.86,4.81,4.81,0,0,0,.69-1.16,6.45,6.45,0,0,0,.43-1.35,7.19,7.19,0,0,0,.15-1.47v-1H441.2v-.8h4.67v.8H444Zm2.74-2.79h.89v10h-.89v-5.53h-1.69v-.81h1.69Zm3-.25v10.76h-.9V466Z"/>
  <path class="cls-4" d="M463.32,471.22V472h-9.24v-.79Zm-4.62-5a7.58,7.58,0,0,1,1.5.14,4,4,0,0,1,1.12.4,2,2,0,0,1,.72.65,1.55,1.55,0,0,1,.25.87,1.47,1.47,0,0,1-.25.85,1.91,1.91,0,0,1-.72.65,4,4,0,0,1-1.12.4,8.05,8.05,0,0,1-3,0,4,4,0,0,1-1.13-.4,2.07,2.07,0,0,1-.72-.65,1.47,1.47,0,0,1-.25-.85,1.55,1.55,0,0,1,.25-.87,2.17,2.17,0,0,1,.72-.65,4,4,0,0,1,1.13-.4A7.55,7.55,0,0,1,458.7,466.26Zm0,6.64a5.46,5.46,0,0,1,2.56.5,1.56,1.56,0,0,1,0,2.85,5.34,5.34,0,0,1-2.56.5,8.06,8.06,0,0,1-1.46-.12,3.94,3.94,0,0,1-1.1-.38,1.86,1.86,0,0,1-.69-.6,1.48,1.48,0,0,1-.24-.82,1.45,1.45,0,0,1,.24-.83,2,2,0,0,1,.69-.6,3.94,3.94,0,0,1,1.1-.37A7.2,7.2,0,0,1,458.7,472.9Zm0-5.87a4.43,4.43,0,0,0-1.92.34,1,1,0,0,0-.71.95,1,1,0,0,0,.71.93,5.59,5.59,0,0,0,3.84,0,1,1,0,0,0,.71-.93,1,1,0,0,0-.71-.95A4.43,4.43,0,0,0,458.71,467Zm0,6.64a4.72,4.72,0,0,0-1.88.3,1,1,0,0,0-.67.86.93.93,0,0,0,.67.85,4.72,4.72,0,0,0,1.88.3,4.67,4.67,0,0,0,1.87-.3c.45-.2.68-.48.68-.85s-.23-.65-.68-.86A4.67,4.67,0,0,0,458.71,473.67Z"/>
  <path class="cls-4" d="M470.59,471c-.35.08-.69.14-1,.19l-1.07.11q-.56,0-1.2.06H465V466.7h4.5v.79H466v3.07l1.36,0,1.15-.05c.35,0,.69-.06,1-.11l1-.18Zm1,1.32h.93v4.26h-6.44v-4.26H467v1.35h4.59Zm0,2.11H467v1.35h4.59Zm2.44-5.1h-1.51v2.4h-.94V466h.94v2.53H474Z"/>
  <path class="cls-4" d="M424.12,410.72h-4.79V406h.92v1.56h2.94V406h.93Zm-.93-2.4h-2.94v1.61h2.94Zm4.33,7.13v.77h-6.94v-2.64h5.68v-1.06h-5.7v-.77h6.62v2.55H421.5v1.15Zm-.35-4.25h-.93v-5.61h.93Z"/>
  <path class="cls-4" d="M434.72,406.69a11.37,11.37,0,0,1-.23,2.28,7.27,7.27,0,0,1-.76,2.12,7.7,7.7,0,0,1-1.45,1.89,10.06,10.06,0,0,1-2.29,1.61l-.51-.78a8.6,8.6,0,0,0,2.32-1.64,6.67,6.67,0,0,0,1.37-2l-3.49.35-.16-.87,3.94-.27a6.19,6.19,0,0,0,.23-.92c0-.31.08-.63.1-1H430v-.8Zm2.95-1.12v10.77h-.94V405.57Z"/>
  <path class="cls-4" d="M447.78,411.42a4.41,4.41,0,0,1-1.5-1,4.18,4.18,0,0,1-1-1.48,4.6,4.6,0,0,1-1,1.62,4.14,4.14,0,0,1-1.56,1.05l-.47-.79a3.85,3.85,0,0,0,1.05-.59,3.7,3.7,0,0,0,.79-.84,3.54,3.54,0,0,0,.51-1,3.75,3.75,0,0,0,.18-1.16v-1.11h.93v1.19a2.91,2.91,0,0,0,.19,1.05,3.59,3.59,0,0,0,.5.95,3.7,3.7,0,0,0,.79.79,4.08,4.08,0,0,0,1,.54Zm-4.18,1.22h6.66v3.71h-.94v-2.92H443.6Zm8.17-3.41h-1.51v2.87h-.94v-6.5h.94v2.83h1.51Z"/>
  <path class="cls-4" d="M455.81,408.61A6.43,6.43,0,0,0,456,410a5.42,5.42,0,0,0,.42,1.29,4.69,4.69,0,0,0,.67,1.1,3.39,3.39,0,0,0,.94.8l-.57.72a4,4,0,0,1-1.27-1.29,6.57,6.57,0,0,1-.78-1.85,6.87,6.87,0,0,1-.8,2,4.32,4.32,0,0,1-1.31,1.4l-.57-.73a4.12,4.12,0,0,0,1-.86,5.83,5.83,0,0,0,.69-1.16,6.54,6.54,0,0,0,.43-1.36,7.09,7.09,0,0,0,.15-1.46v-1H453v-.81h4.66v.81h-1.82Zm2.73-2.8h.89v10h-.89v-5.53h-1.68v-.8h1.68Zm3-.25v10.77h-.9V405.56Z"/>
  <path class="cls-4" d="M428.22,371.27h2a4.4,4.4,0,0,1,1.07.11,2.16,2.16,0,0,1,.83.36,1.69,1.69,0,0,1,.53.67,2.33,2.33,0,0,1,.19,1,2.46,2.46,0,0,1-.19,1,1.85,1.85,0,0,1-.52.71,2.34,2.34,0,0,1-.82.41,3.74,3.74,0,0,1-1,.14h-1.15v2.91h-.89Zm1.92,3.68a2.16,2.16,0,0,0,1.37-.37,1.44,1.44,0,0,0,.44-1.16,1.27,1.27,0,0,0-.46-1.11,2.59,2.59,0,0,0-1.39-.3h-1V375Z"/>
  <path class="cls-4" d="M436.8,378.73a2.68,2.68,0,0,1-2.14-1,3.57,3.57,0,0,1-.61-1.2,5.32,5.32,0,0,1-.22-1.59,5.11,5.11,0,0,1,.22-1.58,3.43,3.43,0,0,1,.61-1.19,2.61,2.61,0,0,1,.94-.75,2.9,2.9,0,0,1,2.4,0,2.53,2.53,0,0,1,.94.75,3.44,3.44,0,0,1,.62,1.19,5.43,5.43,0,0,1,.22,1.58,5.66,5.66,0,0,1-.22,1.59,3.59,3.59,0,0,1-.62,1.2,2.55,2.55,0,0,1-.94.76A2.65,2.65,0,0,1,436.8,378.73Zm0-.81a1.66,1.66,0,0,0,.85-.22,1.89,1.89,0,0,0,.66-.6,3.07,3.07,0,0,0,.42-1,5.22,5.22,0,0,0,.14-1.24,5.16,5.16,0,0,0-.14-1.24,3,3,0,0,0-.42-.94,1.78,1.78,0,0,0-1.51-.79,1.81,1.81,0,0,0-.85.2,1.83,1.83,0,0,0-.65.59,3,3,0,0,0-.42.94,4.68,4.68,0,0,0-.15,1.24,4.73,4.73,0,0,0,.15,1.24,3.07,3.07,0,0,0,.42,1,1.86,1.86,0,0,0,.65.6A1.61,1.61,0,0,0,436.8,377.92Z"/>
  <path class="cls-4" d="M443.21,378.73a3.25,3.25,0,0,1-1.36-.29,3.53,3.53,0,0,1-1.08-.8l.53-.63a2.72,2.72,0,0,0,.88.66,2.25,2.25,0,0,0,1,.25,1.62,1.62,0,0,0,1.08-.33,1.08,1.08,0,0,0,.39-.87,1.14,1.14,0,0,0-.09-.48,1.2,1.2,0,0,0-.25-.34,2,2,0,0,0-.37-.25l-.45-.23-1-.46a4,4,0,0,1-.49-.27,2.07,2.07,0,0,1-.46-.38,1.79,1.79,0,0,1-.34-.53,1.9,1.9,0,0,1-.13-.7,1.85,1.85,0,0,1,.17-.78,1.76,1.76,0,0,1,.46-.62,2,2,0,0,1,.69-.41,2.75,2.75,0,0,1,.88-.14,2.76,2.76,0,0,1,2.05.91l-.46.59a2.7,2.7,0,0,0-.72-.51,2.05,2.05,0,0,0-.87-.18,1.4,1.4,0,0,0-.95.29,1,1,0,0,0-.35.79,1,1,0,0,0,.1.46,1.4,1.4,0,0,0,.27.33,2,2,0,0,0,.37.24l.41.19,1,.45a3.09,3.09,0,0,1,.57.31,1.77,1.77,0,0,1,.46.4,1.62,1.62,0,0,1,.3.53,2.22,2.22,0,0,1,.11.72,2,2,0,0,1-.17.81,1.9,1.9,0,0,1-.47.66,2.19,2.19,0,0,1-.74.45A3.11,3.11,0,0,1,443.21,378.73Z"/>
  <path class="cls-4" d="M448.19,372.05h-2.11v-.78h5.1v.78h-2.1v6.55h-.89Z"/>
  <path class="cls-4" d="M385.29,382.17h.63l-2.84,9.72h-.64Z"/>
  <path class="cls-4" d="M386.18,385.17h.9l1,3.09c.09.26.17.53.25.81l.24.79h0c.07-.26.15-.52.23-.79s.17-.55.24-.81l1-3.09h.86l-1.84,5.43h-1Z"/>
  <path class="cls-4" d="M396,389.86v.74h-3.76v-.74h1.55v-5.28a1.93,1.93,0,0,1,0-.25l-1.26,1.19-.47-.59,1.87-1.7h.7v6.63Z"/>
  <path class="cls-4" d="M399.62,382.17h.63l-2.84,9.72h-.64Z"/>
  <path class="cls-4" d="M402.62,390.73a2.76,2.76,0,0,1-1.06-.22,3.43,3.43,0,0,1-.87-.53l.43-.6a3.32,3.32,0,0,0,.69.46,1.87,1.87,0,0,0,.83.18,1.08,1.08,0,0,0,.77-.25.82.82,0,0,0,.25-.6.61.61,0,0,0-.1-.36,1.15,1.15,0,0,0-.27-.27,2.71,2.71,0,0,0-.38-.22l-.43-.18-.54-.23a2.37,2.37,0,0,1-.5-.32,1.5,1.5,0,0,1-.36-.43,1.2,1.2,0,0,1-.14-.59,1.46,1.46,0,0,1,.12-.6,1.42,1.42,0,0,1,.35-.49,1.63,1.63,0,0,1,.56-.33,2.19,2.19,0,0,1,.75-.12,2.35,2.35,0,0,1,.89.17,3,3,0,0,1,.72.43l-.42.59a3.06,3.06,0,0,0-.56-.35,1.39,1.39,0,0,0-.63-.13.94.94,0,0,0-.71.23.76.76,0,0,0-.23.55.52.52,0,0,0,.1.33,1,1,0,0,0,.25.25,2.55,2.55,0,0,0,.37.18l.42.18.57.24a2.37,2.37,0,0,1,.5.32,1.58,1.58,0,0,1,.37.44,1.42,1.42,0,0,1,.14.65,1.51,1.51,0,0,1-.13.63,1.32,1.32,0,0,1-.36.51,1.88,1.88,0,0,1-.59.35A2.44,2.44,0,0,1,402.62,390.73Z"/>
  <path class="cls-4" d="M407.22,390.73a1.36,1.36,0,0,1-1.2-.54,2.77,2.77,0,0,1-.37-1.58v-3.44h.86v3.33a2.09,2.09,0,0,0,.23,1.11.84.84,0,0,0,.74.34,1.17,1.17,0,0,0,.71-.22,3.12,3.12,0,0,0,.69-.71v-3.85h.86v5.43H409l-.07-.85h0a3.4,3.4,0,0,1-.77.71A1.64,1.64,0,0,1,407.22,390.73Z"/>
  <path class="cls-4" d="M413.75,390.73a1.6,1.6,0,0,1-.74-.19,2.68,2.68,0,0,1-.73-.51h0l-.08.57h-.69v-8h.86v2.18l0,1a3.49,3.49,0,0,1,.77-.55,1.73,1.73,0,0,1,.84-.22,1.82,1.82,0,0,1,1.54.76,2.68,2.68,0,0,1,.39.87,4.39,4.39,0,0,1,.13,1.13,4.06,4.06,0,0,1-.18,1.25,3,3,0,0,1-.5.92,2,2,0,0,1-.71.57A1.93,1.93,0,0,1,413.75,390.73Zm-.14-.77a1.2,1.2,0,0,0,.59-.15,1.37,1.37,0,0,0,.47-.43,1.81,1.81,0,0,0,.31-.67,3.6,3.6,0,0,0,.11-.91A4.15,4.15,0,0,0,415,387a2,2,0,0,0-.23-.63,1.18,1.18,0,0,0-.42-.41,1.37,1.37,0,0,0-1.3.05,3.07,3.07,0,0,0-.72.56v2.84a2.12,2.12,0,0,0,.68.44A1.58,1.58,0,0,0,413.61,390Z"/>
  <path class="cls-4" d="M418.7,390.73a2.67,2.67,0,0,1-1.05-.22,3.32,3.32,0,0,1-.88-.53l.43-.6a3.13,3.13,0,0,0,.7.46,1.84,1.84,0,0,0,.83.18,1.05,1.05,0,0,0,.76-.25.83.83,0,0,0,.26-.6.61.61,0,0,0-.11-.36,1.15,1.15,0,0,0-.27-.27,2.71,2.71,0,0,0-.38-.22l-.42-.18-.55-.23a2.3,2.3,0,0,1-.49-.32,1.36,1.36,0,0,1-.36-.43,1.1,1.1,0,0,1-.14-.59,1.46,1.46,0,0,1,.12-.6,1.39,1.39,0,0,1,.34-.49,1.68,1.68,0,0,1,.57-.33,2.19,2.19,0,0,1,.75-.12,2.35,2.35,0,0,1,.89.17,2.92,2.92,0,0,1,.71.43l-.42.59a3.36,3.36,0,0,0-.55-.35,1.45,1.45,0,0,0-.63-.13,1,1,0,0,0-.72.23.76.76,0,0,0-.23.55.59.59,0,0,0,.1.33,1,1,0,0,0,.26.25,2.41,2.41,0,0,0,.36.18l.42.18.57.24a2.14,2.14,0,0,1,.5.32,1.58,1.58,0,0,1,.37.44,1.42,1.42,0,0,1,.14.65,1.68,1.68,0,0,1-.12.63,1.32,1.32,0,0,1-.36.51,2,2,0,0,1-.59.35A2.55,2.55,0,0,1,418.7,390.73Z"/>
  <path class="cls-4" d="M423.83,390.73a2.48,2.48,0,0,1-.95-.19,2.16,2.16,0,0,1-.77-.56,2.68,2.68,0,0,1-.52-.89,3.69,3.69,0,0,1-.18-1.2,3.45,3.45,0,0,1,.2-1.21,2.68,2.68,0,0,1,.55-.9,2.16,2.16,0,0,1,.79-.56,2.37,2.37,0,0,1,.95-.19,1.8,1.8,0,0,1,.87.19,3,3,0,0,1,.64.46l-.45.61a2.18,2.18,0,0,0-.47-.36,1.18,1.18,0,0,0-.56-.13,1.41,1.41,0,0,0-.65.15,1.48,1.48,0,0,0-.51.42,2.48,2.48,0,0,0-.34.67,2.77,2.77,0,0,0-.12.85,3.24,3.24,0,0,0,.11.85,2.09,2.09,0,0,0,.33.65,1.48,1.48,0,0,0,.51.42,1.38,1.38,0,0,0,.65.15,1.34,1.34,0,0,0,.66-.16,2.34,2.34,0,0,0,.55-.38l.37.61a2.46,2.46,0,0,1-.77.51A2.09,2.09,0,0,1,423.83,390.73Z"/>
  <path class="cls-4" d="M426.63,385.17h.72l.07,1h0a2.64,2.64,0,0,1,.65-.83,1.27,1.27,0,0,1,.81-.3l.3,0a.77.77,0,0,1,.25.1l-.16.8a.9.9,0,0,0-.24-.07,1,1,0,0,0-.26,0,1.06,1.06,0,0,0-.34.06,1.62,1.62,0,0,0-.35.21,2.24,2.24,0,0,0-.33.39,2.32,2.32,0,0,0-.28.59v3.49h-.87Z"/>
  <path class="cls-4" d="M430.76,384.05a.58.58,0,0,1-.43-.17.54.54,0,0,1-.17-.42.55.55,0,0,1,.17-.44.61.61,0,0,1,.43-.15.6.6,0,0,1,.42.15.55.55,0,0,1,.17.44.54.54,0,0,1-.17.42A.57.57,0,0,1,430.76,384.05Zm-.44,1.12h.86v5.43h-.86Z"/>
  <path class="cls-4" d="M435.2,390.73a1.6,1.6,0,0,1-.74-.19,2.68,2.68,0,0,1-.73-.51h0l-.08.57h-.69v-8h.87v2.18l0,1a3.49,3.49,0,0,1,.77-.55,1.73,1.73,0,0,1,.84-.22,1.82,1.82,0,0,1,1.54.76,2.68,2.68,0,0,1,.39.87,4.39,4.39,0,0,1,.13,1.13,4.06,4.06,0,0,1-.18,1.25,2.8,2.8,0,0,1-.5.92,2,2,0,0,1-.71.57A1.93,1.93,0,0,1,435.2,390.73Zm-.14-.77a1.2,1.2,0,0,0,.59-.15,1.37,1.37,0,0,0,.47-.43,1.81,1.81,0,0,0,.31-.67,3.6,3.6,0,0,0,.11-.91,4.18,4.18,0,0,0-.07-.82,2.23,2.23,0,0,0-.24-.63,1.18,1.18,0,0,0-.42-.41,1.37,1.37,0,0,0-1.3.05,2.85,2.85,0,0,0-.71.56v2.84a2,2,0,0,0,.67.44A1.58,1.58,0,0,0,435.06,390Z"/>
  <path class="cls-4" d="M440.88,390.73a2.57,2.57,0,0,1-1-.19,2.29,2.29,0,0,1-.78-.56,2.54,2.54,0,0,1-.53-.89,3.51,3.51,0,0,1-.2-1.2,3.41,3.41,0,0,1,.2-1.19,2.63,2.63,0,0,1,.52-.9,2.14,2.14,0,0,1,.74-.57,2,2,0,0,1,.87-.2,2,2,0,0,1,.88.18,1.69,1.69,0,0,1,.64.51,2.28,2.28,0,0,1,.4.81,3.42,3.42,0,0,1,.14,1.05,2.53,2.53,0,0,1,0,.28.88.88,0,0,1,0,.24h-3.48a2.14,2.14,0,0,0,.51,1.38,1.52,1.52,0,0,0,1.2.51,1.92,1.92,0,0,0,.69-.12,2.44,2.44,0,0,0,.6-.31l.31.6a4.2,4.2,0,0,1-.76.4A2.55,2.55,0,0,1,440.88,390.73Zm1.15-3.27a2,2,0,0,0-.34-1.26,1.11,1.11,0,0,0-.94-.43,1.4,1.4,0,0,0-.53.11,1.58,1.58,0,0,0-.45.33,1.84,1.84,0,0,0-.33.53,2.24,2.24,0,0,0-.17.72Z"/>
  <path class="cls-4" d="M446.14,382.17h.63l-2.84,9.72h-.63Z"/>
  <path class="cls-4" d="M448.79,391.7a.86.86,0,0,1-.39-.24,1.17,1.17,0,0,1-.23-.46,2.86,2.86,0,0,1-.08-.72c0-.2,0-.39,0-.57l0-.53,0-.51c0-.18,0-.36,0-.54a1.13,1.13,0,0,0-.05-.32.57.57,0,0,0-.14-.28.67.67,0,0,0-.28-.2,1,1,0,0,0-.44-.08v-.57a1.15,1.15,0,0,0,.44-.08.78.78,0,0,0,.28-.2.62.62,0,0,0,.14-.28,1.12,1.12,0,0,0,.05-.31c0-.19,0-.37,0-.54l0-.52,0-.53c0-.18,0-.37,0-.57a2.86,2.86,0,0,1,.08-.72,1,1,0,0,1,.23-.46.72.72,0,0,1,.39-.24,1.79,1.79,0,0,1,.55-.07h.46v.51h-.27a.63.63,0,0,0-.58.24,1.62,1.62,0,0,0-.14.79c0,.34,0,.66,0,1s0,.66,0,1.05a2,2,0,0,1-.14.82.75.75,0,0,1-.49.39v0a.75.75,0,0,1,.49.39,2,2,0,0,1,.14.83c0,.38,0,.73,0,1s0,.65,0,1a1.55,1.55,0,0,0,.14.78.63.63,0,0,0,.58.24h.27v.52h-.46A2.17,2.17,0,0,1,448.79,391.7Z"/>
  <path class="cls-4" d="M453.27,390.73a1.67,1.67,0,0,1-.75-.19,2.8,2.8,0,0,1-.72-.51h0l-.08.57H451v-8h.86v2.18l0,1a3.49,3.49,0,0,1,.77-.55,1.73,1.73,0,0,1,.84-.22,1.83,1.83,0,0,1,.89.2,1.72,1.72,0,0,1,.64.56,2.49,2.49,0,0,1,.4.87,4.39,4.39,0,0,1,.13,1.13,4.06,4.06,0,0,1-.18,1.25,3,3,0,0,1-.5.92,2,2,0,0,1-.71.57A1.93,1.93,0,0,1,453.27,390.73Zm-.14-.77a1.2,1.2,0,0,0,.59-.15,1.37,1.37,0,0,0,.47-.43,2,2,0,0,0,.31-.67,3.6,3.6,0,0,0,.11-.91,4.15,4.15,0,0,0-.08-.82,2.23,2.23,0,0,0-.23-.63,1.18,1.18,0,0,0-.42-.41,1.37,1.37,0,0,0-1.3.05,3.07,3.07,0,0,0-.72.56v2.84a2.12,2.12,0,0,0,.68.44A1.58,1.58,0,0,0,453.13,390Z"/>
  <path class="cls-4" d="M457.31,384.05a.6.6,0,0,1-.43-.17.57.57,0,0,1-.17-.42.59.59,0,0,1,.17-.44.63.63,0,0,1,.43-.15.6.6,0,0,1,.42.15.56.56,0,0,1,.18.44.54.54,0,0,1-.18.42A.57.57,0,0,1,457.31,384.05Zm-.44,1.12h.86v5.43h-.86Z"/>
  <path class="cls-4" d="M461.24,390.73a2.14,2.14,0,0,1-.88-.19,2,2,0,0,1-.67-.55,3,3,0,0,1-.43-.89,4.5,4.5,0,0,1-.15-1.21,3.42,3.42,0,0,1,.19-1.19,2.59,2.59,0,0,1,.49-.9,2.1,2.1,0,0,1,.7-.57,1.84,1.84,0,0,1,.86-.2,1.6,1.6,0,0,1,.78.17,3.29,3.29,0,0,1,.67.47l-.05-.94v-2.09h.87v8h-.71l-.08-.64h0a3.11,3.11,0,0,1-.7.54A1.77,1.77,0,0,1,461.24,390.73Zm.19-.77a1.27,1.27,0,0,0,.68-.19,2.47,2.47,0,0,0,.64-.56v-2.84a2.07,2.07,0,0,0-.63-.44,1.5,1.5,0,0,0-.62-.13,1.2,1.2,0,0,0-.59.15,1.44,1.44,0,0,0-.47.42,2,2,0,0,0-.32.66,2.8,2.8,0,0,0-.11.84,2.72,2.72,0,0,0,.37,1.54A1.2,1.2,0,0,0,461.43,390Z"/>
  <path class="cls-4" d="M464.82,391.25h.28a.63.63,0,0,0,.58-.24,1.66,1.66,0,0,0,.14-.78c0-.34,0-.67,0-1s0-.66,0-1a1.84,1.84,0,0,1,.15-.83.75.75,0,0,1,.49-.39v0a.75.75,0,0,1-.49-.39,1.79,1.79,0,0,1-.15-.82q0-.59,0-1.05c0-.32,0-.64,0-1a1.74,1.74,0,0,0-.14-.79.63.63,0,0,0-.58-.24h-.28v-.51h.48a1.84,1.84,0,0,1,.55.07.73.73,0,0,1,.38.24,1.05,1.05,0,0,1,.24.46,2.92,2.92,0,0,1,.07.72c0,.2,0,.39,0,.57l0,.53,0,.52c0,.17,0,.35,0,.54a1.63,1.63,0,0,0,0,.31.76.76,0,0,0,.15.28,1,1,0,0,0,.27.2,1.17,1.17,0,0,0,.45.08v.57a1,1,0,0,0-.45.08.79.79,0,0,0-.27.2.69.69,0,0,0-.15.28,1.66,1.66,0,0,0,0,.32c0,.18,0,.36,0,.54l0,.51,0,.53c0,.18,0,.37,0,.57a2.92,2.92,0,0,1-.07.72,1.18,1.18,0,0,1-.24.46.88.88,0,0,1-.38.24,2.23,2.23,0,0,1-.55.07h-.48Z"/>
  <path class="cls-4" d="M470.66,382.17h.63l-2.84,9.72h-.64Z"/>
  <path class="cls-4" d="M474.06,390.73a2.58,2.58,0,0,1-1-.19,2.29,2.29,0,0,1-.78-.56,2.7,2.7,0,0,1-.53-.89,3.51,3.51,0,0,1-.19-1.2,3.42,3.42,0,0,1,.19-1.19,2.63,2.63,0,0,1,.52-.9,2.27,2.27,0,0,1,.75-.57,1.91,1.91,0,0,1,.87-.2,2.07,2.07,0,0,1,.88.18,1.86,1.86,0,0,1,.64.51,2.46,2.46,0,0,1,.4.81,3.76,3.76,0,0,1,.14,1.05c0,.1,0,.19,0,.28l0,.24h-3.49a2.14,2.14,0,0,0,.51,1.38,1.55,1.55,0,0,0,1.2.51,1.92,1.92,0,0,0,.69-.12,2.44,2.44,0,0,0,.6-.31l.32.6a4.2,4.2,0,0,1-.76.4A2.59,2.59,0,0,1,474.06,390.73Zm1.15-3.27a2,2,0,0,0-.34-1.26,1.13,1.13,0,0,0-.95-.43,1.31,1.31,0,0,0-.52.11,1.62,1.62,0,0,0-.46.33,1.84,1.84,0,0,0-.33.53,2.54,2.54,0,0,0-.17.72Z"/>
  <path class="cls-4" d="M478.21,387.77l-1.57-2.6h.93l.69,1.2.26.45.26.45h0l.23-.45c.08-.15.16-.3.23-.45l.64-1.2h.9l-1.57,2.69,1.7,2.74H480l-.76-1.27-.27-.5c-.09-.16-.18-.32-.28-.47h-.05l-.26.47-.27.5-.69,1.27h-.91Z"/>
  <path class="cls-4" d="M482,385.17h.71l.08.62h0a4.2,4.2,0,0,1,.77-.53,1.69,1.69,0,0,1,.87-.23,1.81,1.81,0,0,1,.88.2,1.93,1.93,0,0,1,.65.56,2.68,2.68,0,0,1,.39.87,4.47,4.47,0,0,1,.13,1.14,4,4,0,0,1-.18,1.24,2.88,2.88,0,0,1-.5.92,2,2,0,0,1-.71.57,1.93,1.93,0,0,1-.85.2,1.72,1.72,0,0,1-.71-.17,3.28,3.28,0,0,1-.72-.47l0,1v1.85H482ZM484.1,390a1.2,1.2,0,0,0,.59-.15,1.37,1.37,0,0,0,.47-.43,1.81,1.81,0,0,0,.31-.67,3.6,3.6,0,0,0,.11-.91,4.15,4.15,0,0,0-.08-.82,2.23,2.23,0,0,0-.23-.63,1.18,1.18,0,0,0-.42-.41,1.37,1.37,0,0,0-1.3.05,3.54,3.54,0,0,0-.72.56v2.84a2.35,2.35,0,0,0,.68.44A1.58,1.58,0,0,0,484.1,390Z"/>
  <path class="cls-4" d="M488.3,384.05a.6.6,0,0,1-.43-.17.57.57,0,0,1-.17-.42.59.59,0,0,1,.17-.44.63.63,0,0,1,.43-.15.6.6,0,0,1,.42.15.55.55,0,0,1,.17.44.54.54,0,0,1-.17.42A.57.57,0,0,1,488.3,384.05Zm-.44,1.12h.86v5.43h-.86Z"/>
  <path class="cls-4" d="M490.47,385.17h.71l.08,1h0a2.64,2.64,0,0,1,.65-.83,1.27,1.27,0,0,1,.81-.3l.3,0a.77.77,0,0,1,.25.1l-.16.8a.9.9,0,0,0-.24-.07,1,1,0,0,0-.26,0,1.06,1.06,0,0,0-.34.06,1.62,1.62,0,0,0-.35.21,2.24,2.24,0,0,0-.33.39,2.32,2.32,0,0,0-.28.59v3.49h-.87Z"/>
  <path class="cls-4" d="M496.24,390.73a2.62,2.62,0,0,1-1-.19,2.29,2.29,0,0,1-.78-.56,2.7,2.7,0,0,1-.53-.89,3.51,3.51,0,0,1-.19-1.2,3.42,3.42,0,0,1,.19-1.19,2.8,2.8,0,0,1,.52-.9,2.27,2.27,0,0,1,.75-.57,1.91,1.91,0,0,1,.87-.2,2.07,2.07,0,0,1,.88.18,1.77,1.77,0,0,1,.64.51,2.46,2.46,0,0,1,.4.81,3.76,3.76,0,0,1,.14,1.05c0,.1,0,.19,0,.28l0,.24h-3.49a2.14,2.14,0,0,0,.51,1.38,1.55,1.55,0,0,0,1.2.51,1.94,1.94,0,0,0,.7-.12,2.44,2.44,0,0,0,.6-.31l.31.6a4.2,4.2,0,0,1-.76.4A2.59,2.59,0,0,1,496.24,390.73Zm1.15-3.27a2,2,0,0,0-.34-1.26,1.11,1.11,0,0,0-.94-.43,1.36,1.36,0,0,0-.53.11,1.45,1.45,0,0,0-.45.33,1.49,1.49,0,0,0-.33.53,2.53,2.53,0,0,0-.18.72Z"/>
  <path class="cls-4" d="M571.65,423.31a4.41,4.41,0,0,1-1.5-1,4.27,4.27,0,0,1-1-1.48,4.6,4.6,0,0,1-1,1.62,4.26,4.26,0,0,1-1.56,1l-.47-.8a3.79,3.79,0,0,0,1.84-1.42,3.81,3.81,0,0,0,.51-1,3.75,3.75,0,0,0,.18-1.16V418h.93v1.18a3.19,3.19,0,0,0,.18,1.06,4.13,4.13,0,0,0,.51.95,3.44,3.44,0,0,0,.79.78,4.11,4.11,0,0,0,1,.55Zm-4.18,1.22h6.65v3.71h-.93v-2.92h-5.72Zm8.17-3.41h-1.52V424h-.93v-6.5h.93v2.83h1.52Z"/>
  <path class="cls-4" d="M579.68,420.5a6.49,6.49,0,0,0,.14,1.39,5.89,5.89,0,0,0,.41,1.29,5.34,5.34,0,0,0,.68,1.1,3.57,3.57,0,0,0,.94.8l-.57.72a4,4,0,0,1-1.27-1.29,6.69,6.69,0,0,1-.78-1.85,6.87,6.87,0,0,1-.8,2,4.42,4.42,0,0,1-1.31,1.4l-.57-.74a3.65,3.65,0,0,0,1-.85,5.42,5.42,0,0,0,.7-1.16,6.74,6.74,0,0,0,.43-1.36,7.16,7.16,0,0,0,.15-1.46v-1h-1.94v-.81h4.66v.81h-1.82Zm2.73-2.8h.89v10h-.89v-5.53h-1.68v-.8h1.68Zm3-.25v10.76h-.9V417.45Z"/>
  <path class="cls-4" d="M569.72,435.34a4.54,4.54,0,0,0,.2,1.32,5.54,5.54,0,0,0,.55,1.21,4.52,4.52,0,0,0,.83,1,4.05,4.05,0,0,0,1.05.71l-.52.76a4.58,4.58,0,0,1-1.55-1.25,5.78,5.78,0,0,1-1-1.9,6.11,6.11,0,0,1-1,2,4.53,4.53,0,0,1-1.54,1.34l-.53-.76a4.35,4.35,0,0,0,1-.75,5,5,0,0,0,.82-1.06,5.07,5.07,0,0,0,.55-1.26,5,5,0,0,0,.19-1.38v-.83h-2.31v-.79h2.3v-1.67h.93v1.67H572v.79h-2.27Zm4.89-3.49v10.8h-.93V437h-2.21v-.81h2.21v-4.33Z"/>
  <path class="cls-4" d="M578.21,439.23l1.23,0q.6,0,1.2-.06l1.24-.12,1.3-.18.09.79c-.47.08-.91.15-1.34.2l-1.27.12q-.63,0-1.26.06h-2.13v-4.12H581v-2.25h-3.79v-.8H582v3.85h-3.76Zm6.86-7.38v10.79h-.94V431.85Z"/>
  <polygon class="cls-3" points="356.75 449.73 356.75 464.13 344.75 456.93 356.75 449.73"/>
  <polygon class="cls-3" points="344.75 404.48 344.75 390.08 356.75 397.28 344.75 404.48"/>
  <path class="cls-4" d="M424.12,271.51h-4.79v-4.73h.92v1.57h2.94v-1.57h.93Zm-.93-2.4h-2.94v1.61h2.94Zm4.33,7.13V277h-6.94v-2.64h5.68v-1.06h-5.7v-.76h6.62v2.54H421.5v1.15Zm-.35-4.25h-.93v-5.61h.93Z"/>
  <path class="cls-4" d="M434.72,267.48a11.55,11.55,0,0,1-.23,2.29,7.48,7.48,0,0,1-.76,2.12,7.7,7.7,0,0,1-1.45,1.89,10,10,0,0,1-2.29,1.6l-.51-.78A8.81,8.81,0,0,0,431.8,273a6.84,6.84,0,0,0,1.37-2l-3.49.35-.16-.86,3.94-.28a5.9,5.9,0,0,0,.23-.92c0-.31.08-.63.1-1H430v-.8Zm2.95-1.11v10.76h-.94V266.37Z"/>
  <path class="cls-4" d="M451.57,271.5v.81h-9.25v-.81Zm-.88-.85a5.84,5.84,0,0,1-1.16-.31,5.68,5.68,0,0,1-1-.51,4.7,4.7,0,0,1-.89-.69,3.55,3.55,0,0,1-.63-.84,3.72,3.72,0,0,1-.64.85,4.65,4.65,0,0,1-.89.68,5.77,5.77,0,0,1-1.06.51,5.84,5.84,0,0,1-1.16.31l-.34-.77a5.73,5.73,0,0,0,1.33-.37,4.68,4.68,0,0,0,1.15-.63,3.24,3.24,0,0,0,.81-.85,1.78,1.78,0,0,0,.31-1v-.48h1V267a1.72,1.72,0,0,0,.31,1,3.24,3.24,0,0,0,.81.85,5.12,5.12,0,0,0,1.15.65,6.27,6.27,0,0,0,1.33.37Zm-3.75,2.64a5.44,5.44,0,0,1,2.56.49,1.55,1.55,0,0,1,.93,1.42,1.45,1.45,0,0,1-.24.83,2.05,2.05,0,0,1-.69.6,3.87,3.87,0,0,1-1.09.37,7.24,7.24,0,0,1-1.47.13,5.53,5.53,0,0,1-2.57-.5,1.56,1.56,0,0,1-.93-1.43,1.43,1.43,0,0,1,.24-.81,1.86,1.86,0,0,1,.69-.6,3.53,3.53,0,0,1,1.11-.37A7.2,7.2,0,0,1,446.94,273.29Zm0,3.07a4.9,4.9,0,0,0,1.88-.29.88.88,0,0,0,0-1.71,4.69,4.69,0,0,0-1.88-.3,4.78,4.78,0,0,0-1.89.3c-.45.2-.68.48-.68.85a.94.94,0,0,0,.68.86A5,5,0,0,0,446.94,276.36Z"/>
  <path class="cls-4" d="M458.39,269.76a2.58,2.58,0,0,1-.77,1.92,2.6,2.6,0,0,1-.85.55,2.91,2.91,0,0,1-2.12,0,2.66,2.66,0,0,1-.84-.55,2.53,2.53,0,0,1-.56-.84,2.73,2.73,0,0,1-.2-1.08,2.63,2.63,0,0,1,.2-1.06,2.43,2.43,0,0,1,.56-.84,2.5,2.5,0,0,1,.84-.55,3.05,3.05,0,0,1,2.12,0,2.45,2.45,0,0,1,.85.55,2.6,2.6,0,0,1,.57.84A2.63,2.63,0,0,1,458.39,269.76Zm-4.42,0a2.11,2.11,0,0,0,.13.73,1.65,1.65,0,0,0,.37.58,1.62,1.62,0,0,0,.55.37,1.73,1.73,0,0,0,.69.13,1.82,1.82,0,0,0,.7-.13,1.63,1.63,0,0,0,.93-.95,2.09,2.09,0,0,0,0-1.45,1.76,1.76,0,0,0-.37-.56,1.68,1.68,0,0,0-.56-.38,2,2,0,0,0-.7-.13,1.93,1.93,0,0,0-.69.13,1.64,1.64,0,0,0-.55.38,1.76,1.76,0,0,0-.37.56A2.09,2.09,0,0,0,454,269.76Zm7.54,6.33v.8h-6.89v-3.46h.94v2.66Zm-.31-1.85h-.94v-7.86h.94Z"/>
  <path class="cls-4" d="M230,131.91a11.48,11.48,0,0,1-.22,2.29,7.68,7.68,0,0,1-.74,2.11,7.85,7.85,0,0,1-1.43,1.89,9.6,9.6,0,0,1-2.27,1.6l-.51-.75a9,9,0,0,0,2.29-1.65,6.92,6.92,0,0,0,1.35-2l-3.44.35-.16-.87,3.89-.28a8.3,8.3,0,0,0,.31-1.89h-3.69v-.8Zm4.24,4.07h-1.64v5.58h-.93V130.81h.93v4.36h1.64Z"/>
  <path class="cls-4" d="M244.5,139.3v.81h-9.28v-.81Zm-1.07-2.54h-7v-5h6.92v.8h-6V136h6.1Z"/>
  <path class="cls-4" d="M257.53,135.93v.8h-9.26v-.8Zm-4.64,1.73a8.06,8.06,0,0,1,1.46.12,3.94,3.94,0,0,1,1.1.38,2,2,0,0,1,.69.61,1.56,1.56,0,0,1,0,1.66,2,2,0,0,1-.69.61,3.65,3.65,0,0,1-1.1.38,8.32,8.32,0,0,1-2.93,0,3.65,3.65,0,0,1-1.1-.38,2,2,0,0,1-.69-.61,1.56,1.56,0,0,1,0-1.66,2,2,0,0,1,.69-.61,3.94,3.94,0,0,1,1.1-.38A8.09,8.09,0,0,1,252.89,137.66Zm3.55-2.77h-7v-3.66h6.93V132h-6v2.07h6.08Zm-3.55,5.89a4.76,4.76,0,0,0,1.88-.3.91.91,0,0,0,0-1.75,6.07,6.07,0,0,0-3.77,0,.91.91,0,0,0,0,1.75A4.78,4.78,0,0,0,252.89,140.78Z"/>
  <path class="cls-4" d="M268,136.71v.8h-9.27v-.8h4.17v-1.13h-3V133h6v-1.11h-6v-.77h6.92v2.62h-6v1.12h6.18v.77h-3.19v1.13Zm-8.23,1.63h7.11v3.12H266v-2.31h-6.18Z"/>
  <path class="cls-4" d="M281.08,139.37v.81h-9.29v-.81h2.28v-2.9a2.73,2.73,0,0,1-1-.92,2.5,2.5,0,0,1-.08-2.44,2.68,2.68,0,0,1,.77-.88,3.68,3.68,0,0,1,1.18-.55,5.69,5.69,0,0,1,3,0,3.72,3.72,0,0,1,1.17.55,2.68,2.68,0,0,1,.77.88,2.28,2.28,0,0,1,.28,1.13,2.37,2.37,0,0,1-.36,1.3,2.5,2.5,0,0,1-1,.91v2.92Zm-4.66-7.12a4,4,0,0,0-1.13.14,2.92,2.92,0,0,0-.89.4,1.83,1.83,0,0,0-.58.63,1.55,1.55,0,0,0-.22.82,1.53,1.53,0,0,0,.22.82,1.9,1.9,0,0,0,.58.62,2.71,2.71,0,0,0,.89.41,4.63,4.63,0,0,0,2.26,0,2.87,2.87,0,0,0,.9-.41,1.93,1.93,0,0,0,.59-.62,1.61,1.61,0,0,0,.21-.82,1.64,1.64,0,0,0-.21-.82,1.86,1.86,0,0,0-.59-.63,3.1,3.1,0,0,0-.9-.4A4,4,0,0,0,276.42,132.25ZM275,139.37h2.85v-2.54a6,6,0,0,1-1.44.17,5.79,5.79,0,0,1-1.41-.17Z"/>
  <path class="cls-4" d="M287.91,136.87a4.45,4.45,0,0,1-1.55-.87,3.84,3.84,0,0,1-1-1.37,4.2,4.2,0,0,1-1,1.55,4.14,4.14,0,0,1-1.57,1l-.46-.75a4.38,4.38,0,0,0,1-.54,3.91,3.91,0,0,0,.8-.77,3.22,3.22,0,0,0,.52-.94,3.13,3.13,0,0,0,.18-1v-.21h-2.26v-.79h2.26v-1.34h.94v1.34H288v.79h-2.26v.21a2.5,2.5,0,0,0,.19,1,2.86,2.86,0,0,0,.53.86,3.65,3.65,0,0,0,.81.7,3.91,3.91,0,0,0,1,.49Zm-.59.73a6.83,6.83,0,0,1,1.43.13,4.13,4.13,0,0,1,1.08.38,2,2,0,0,1,.68.62,1.58,1.58,0,0,1,.23.84,1.6,1.6,0,0,1-.23.84,2,2,0,0,1-.68.62,3.52,3.52,0,0,1-1.08.38,7.27,7.27,0,0,1-2.84,0,3.55,3.55,0,0,1-1.07-.38,1.92,1.92,0,0,1-.67-.62,1.53,1.53,0,0,1-.24-.84,1.5,1.5,0,0,1,.24-.84,1.92,1.92,0,0,1,.67-.62,4.19,4.19,0,0,1,1.07-.38A6.77,6.77,0,0,1,287.32,137.6Zm0,3.18a4.32,4.32,0,0,0,1.83-.32,1,1,0,0,0,.66-.89,1,1,0,0,0-.66-.89,4.34,4.34,0,0,0-1.83-.31,4.21,4.21,0,0,0-1.81.31,1,1,0,0,0-.65.89,1,1,0,0,0,.65.89A4.19,4.19,0,0,0,287.33,140.78Zm2.44-6.91v-3.06h.93v6.51h-.93v-2.65h-2v-.8Z"/>
  <path class="cls-4" d="M230,191.61a11.48,11.48,0,0,1-.22,2.29,7.57,7.57,0,0,1-.74,2.11,7.85,7.85,0,0,1-1.43,1.89,9.62,9.62,0,0,1-2.27,1.61l-.51-.76a9,9,0,0,0,2.29-1.65,6.79,6.79,0,0,0,1.35-2l-3.44.35-.16-.87,3.89-.27a8.48,8.48,0,0,0,.31-1.89h-3.69v-.81Zm4.24,4.07h-1.64v5.58h-.93V190.51h.93v4.37h1.64Z"/>
  <path class="cls-4" d="M244.5,199v.81h-9.28V199Zm-1.07-2.54h-7v-5h6.92v.81h-6v3.36h6.1Z"/>
  <path class="cls-4" d="M257.53,195.63v.81h-9.26v-.81Zm-4.64,1.73a7.2,7.2,0,0,1,1.46.13,3.94,3.94,0,0,1,1.1.37,2,2,0,0,1,.69.62,1.54,1.54,0,0,1,0,1.65,1.88,1.88,0,0,1-.69.61,3.65,3.65,0,0,1-1.1.38,8.32,8.32,0,0,1-2.93,0,3.65,3.65,0,0,1-1.1-.38,1.88,1.88,0,0,1-.69-.61,1.54,1.54,0,0,1,0-1.65,2,2,0,0,1,.69-.62,3.94,3.94,0,0,1,1.1-.37A7.24,7.24,0,0,1,252.89,197.36Zm3.55-2.77h-7v-3.66h6.93v.79h-6v2.08h6.08Zm-3.55,5.89a4.76,4.76,0,0,0,1.88-.3.91.91,0,0,0,0-1.75,6.07,6.07,0,0,0-3.77,0,.91.91,0,0,0,0,1.75A4.78,4.78,0,0,0,252.89,200.48Z"/>
  <path class="cls-4" d="M268,196.41v.81h-9.27v-.81h4.17v-1.13h-3v-2.62h6v-1.12h-6v-.77h6.92v2.62h-6v1.13h6.18v.76h-3.19v1.13ZM259.79,198h7.11v3.12H266v-2.31h-6.18Z"/>
  <path class="cls-4" d="M278.22,196.7c-.53.11-1.08.19-1.63.25s-1.12.1-1.66.13-1.08,0-1.59,0h-1.42l-.13-.8h1.27l1.39,0v-1.08a2.49,2.49,0,0,1-1.5-.68,1.89,1.89,0,0,1-.57-1.42,2,2,0,0,1,.19-.86,2,2,0,0,1,.51-.67,2.37,2.37,0,0,1,.8-.43,3.54,3.54,0,0,1,2,0,2.32,2.32,0,0,1,.79.43,2,2,0,0,1,.51.67,2.08,2.08,0,0,1-.36,2.28,2.46,2.46,0,0,1-1.48.67v1.06l1.42-.11c.46,0,.91-.1,1.35-.17Zm-5-3.59a1.21,1.21,0,0,0,.46,1,2.08,2.08,0,0,0,2.37,0,1.29,1.29,0,0,0,0-2,2,2,0,0,0-2.37,0A1.2,1.2,0,0,0,273.25,193.11Zm.94,7.09h5.89V201h-6.82v-3h.93Zm7-6v.8h-1.5v3.78h-.94v-8.22h.94v3.64Z"/>
  <path class="cls-4" d="M291.57,199.12v.81h-9.29v-.81h2.6v-2h-1.44v-3.32h6.07v-1.67h-6.09v-.8h7v3.26h-6.06v1.73h6.29v.8h-1.6v2Zm-5.77,0h2.34v-2H285.8Z"/>
  <path class="cls-4" d="M274,268.38h-4v-3.94h.77v1.3h2.45v-1.3H274Zm-.77-2h-2.45v1.34h2.45Zm3.61,5.94V273h-5.78v-2.2h4.73v-.88H271v-.64h5.52v2.12h-4.73v1Zm-.29-3.54h-.78V264.1h.78Z"/>
  <path class="cls-4" d="M282.83,265a9.3,9.3,0,0,1-.19,1.91,6.29,6.29,0,0,1-.63,1.76,6.4,6.4,0,0,1-1.22,1.57,7.68,7.68,0,0,1-1.91,1.34l-.41-.65a7,7,0,0,0,1.92-1.36,5.61,5.61,0,0,0,1.15-1.67l-2.91.29-.13-.72,3.28-.23a5.09,5.09,0,0,0,.19-.77c0-.25.07-.52.09-.8h-3.13V265Zm2.46-.93v9h-.78v-9Z"/>
  <path class="cls-4" d="M294.76,268.26v.62H287v-.62Zm-6,4.09h5.32v.59H288v-2h5v-.75H288v-.59h5.84v1.91h-5.05Zm4.25-7.42h-5v-.58h5.77v1.87h-5V267h5.13v.59H288v-1.92h5Z"/>
  <path class="cls-4" d="M305.61,268.84v.66h-7.72v-.66h3.47V268h-2.45v-3.61h5.75V265h-5v.83h4.74v.62h-4.74v.88h5V268h-2.57v.88Zm-3.86,1.34a5,5,0,0,1,2.16.37,1.15,1.15,0,0,1,.76,1.06,1.18,1.18,0,0,1-.76,1.08,6.66,6.66,0,0,1-4.32,0,1.18,1.18,0,0,1-.76-1.08,1.15,1.15,0,0,1,.76-1.06A5,5,0,0,1,301.75,270.18Zm0,2.25a4.69,4.69,0,0,0,1.59-.21c.36-.13.55-.34.55-.61s-.19-.47-.55-.61a6.12,6.12,0,0,0-3.18,0c-.36.14-.55.34-.55.61s.19.48.55.61A4.69,4.69,0,0,0,301.75,272.43Z"/>
  <path class="cls-4" d="M311.7,265.85h-5v-.66h2.12V264.1h.78v1.09h2.13Zm-.48,2.16a1.58,1.58,0,0,1-.15.69,1.3,1.3,0,0,1-.41.52,1.91,1.91,0,0,1-.65.34,2.93,2.93,0,0,1-1.66,0,2,2,0,0,1-.64-.34,1.42,1.42,0,0,1-.42-.52,1.74,1.74,0,0,1-.14-.69,1.69,1.69,0,0,1,.14-.68,1.42,1.42,0,0,1,.42-.52,2,2,0,0,1,.64-.34,2.93,2.93,0,0,1,1.66,0,1.91,1.91,0,0,1,.65.34,1.3,1.3,0,0,1,.41.52A1.54,1.54,0,0,1,311.22,268Zm-3.33,0a.88.88,0,0,0,.35.75,1.44,1.44,0,0,0,.94.28,1.46,1.46,0,0,0,.94-.28.88.88,0,0,0,.36-.75.91.91,0,0,0-.36-.75,1.52,1.52,0,0,0-.94-.27,1.5,1.5,0,0,0-.94.27A.9.9,0,0,0,307.89,268Zm.84,4.18h4.91v.67H308v-2.57h.78Zm5.79-5.14v.69h-1.26v3.08h-.78V264.1h.78v2.95Z"/>
  <path class="cls-4" d="M265.12,281.18h-3.95v-4.44h.77v1.5h2.41v-1.5h.77Zm-.77-2.3h-2.41v1.64h2.41Zm-1.44,5.31h4.9v.67h-5.68v-2.81h.78Zm5.78-5.38v.69h-1.26v3.18h-.78V276.1h.78v2.71Z"/>
  <path class="cls-4" d="M277.26,280.72v.67h-7.71v-.67H273v-1.07h-2.45V276.3h.77v1h4.14v-1h.77v3.35H273.8v1.07Zm-6.85,1.54h5.9v2.8h-.78v-2.14h-5.12Zm.93-3.25h4.14V278h-4.14Z"/>
  <path class="cls-4" d="M285.06,281.1a3.52,3.52,0,0,1-2.05-2,4.07,4.07,0,0,1-.84,1.38,3.58,3.58,0,0,1-1.31.9l-.41-.65a3.1,3.1,0,0,0,.87-.49,3.52,3.52,0,0,0,.68-.71,3,3,0,0,0,.44-.85,2.77,2.77,0,0,0,.16-.94v-.31h-1.9v-.66h4.55v.66h-1.87v.31a2.5,2.5,0,0,0,.15.85,2.94,2.94,0,0,0,.42.78,3.27,3.27,0,0,0,1.5,1.11Zm-.43.61a5.89,5.89,0,0,1,1.17.11,2.66,2.66,0,0,1,.89.33,1.61,1.61,0,0,1,.57.52,1.44,1.44,0,0,1,0,1.43,1.61,1.61,0,0,1-.57.52,2.66,2.66,0,0,1-.89.33,5.89,5.89,0,0,1-1.17.11,6,6,0,0,1-1.18-.11,2.81,2.81,0,0,1-.9-.33,1.66,1.66,0,0,1-.56-.52,1.38,1.38,0,0,1,0-1.43,1.66,1.66,0,0,1,.56-.52,2.81,2.81,0,0,1,.9-.33A6,6,0,0,1,284.63,281.71Zm0,2.71a3.51,3.51,0,0,0,1.52-.27.8.8,0,0,0,0-1.52,3.35,3.35,0,0,0-1.52-.28,3.31,3.31,0,0,0-1.51.28.8.8,0,0,0,0,1.52A3.46,3.46,0,0,0,284.63,284.42Zm2-6V276.1h.78v5.34h-.78v-2.35H285v-.67Z"/>
  <path class="cls-4" d="M293.65,277.06a8.34,8.34,0,0,1-.22,1.88,6.45,6.45,0,0,1-1.92,3.21,8.41,8.41,0,0,1-1.82,1.24l-.41-.67a6.64,6.64,0,0,0,2.59-2.13,5.76,5.76,0,0,0,1-2.87h-3.2v-.66Zm2.5-1v9h-.77v-9Z"/>
  <path class="cls-4" d="M302,278a4,4,0,0,1-1.35,1.78,6.63,6.63,0,0,1-2.37,1.06l-.28-.67a5.62,5.62,0,0,0,2.43-1.15,2.81,2.81,0,0,0,1-1.85h-3v-.67h3.81a4.91,4.91,0,0,1-.08.86h1.92v-1.3h.78v4.58h-.78v-.93h-2.22v-.64h2.22V278Zm3.17,6.29V285h-5.76v-2.3h4.69v-.92h-4.71v-.66h5.48v2.2h-4.69v1Z"/>
  <path class="cls-4" d="M309.14,278.62a5.64,5.64,0,0,0,.12,1.16,4.87,4.87,0,0,0,.35,1.08,4.2,4.2,0,0,0,.56.91,3,3,0,0,0,.79.67l-.48.6a3.39,3.39,0,0,1-1.06-1.07,5.52,5.52,0,0,1-.65-1.55,6,6,0,0,1-.67,1.68,3.58,3.58,0,0,1-1.09,1.16l-.47-.61a3.33,3.33,0,0,0,.79-.71,4.3,4.3,0,0,0,.58-1,5.74,5.74,0,0,0,.36-1.13,6.23,6.23,0,0,0,.12-1.22v-.81h-1.61v-.67h3.88v.67h-1.52Zm2.28-2.33h.74v8.3h-.74V280H310v-.67h1.4Zm2.46-.21v9h-.75v-9Z"/>
  <path class="cls-4" d="M428.22,227.2h2a5,5,0,0,1,1.07.11,2.34,2.34,0,0,1,.83.37,1.72,1.72,0,0,1,.53.66,2.37,2.37,0,0,1,.19,1,2.4,2.4,0,0,1-.19,1,1.71,1.71,0,0,1-.52.71,2.2,2.2,0,0,1-.82.42,3.75,3.75,0,0,1-1,.13h-1.15v2.91h-.89Zm1.92,3.68a2.1,2.1,0,0,0,1.37-.37,1.43,1.43,0,0,0,.44-1.16,1.23,1.23,0,0,0-.46-1.1,2.49,2.49,0,0,0-1.39-.31h-1v2.94Z"/>
  <path class="cls-4" d="M436.8,234.66a2.78,2.78,0,0,1-1.2-.26,2.75,2.75,0,0,1-.94-.76,3.53,3.53,0,0,1-.61-1.21,5.82,5.82,0,0,1,0-3.17,3.62,3.62,0,0,1,.61-1.19,2.84,2.84,0,0,1,.94-.75,2.9,2.9,0,0,1,2.4,0,2.74,2.74,0,0,1,.94.75,3.63,3.63,0,0,1,.62,1.19,5.82,5.82,0,0,1,0,3.17,3.54,3.54,0,0,1-.62,1.21,2.66,2.66,0,0,1-.94.76A2.78,2.78,0,0,1,436.8,234.66Zm0-.81a1.76,1.76,0,0,0,.85-.21,2,2,0,0,0,.66-.61,3,3,0,0,0,.42-.94,5.31,5.31,0,0,0,.14-1.25,5.22,5.22,0,0,0-.14-1.24,3,3,0,0,0-.42-.93,1.82,1.82,0,0,0-1.51-.8,1.7,1.7,0,0,0-.85.21,1.74,1.74,0,0,0-.65.59,3,3,0,0,0-.42.93,4.73,4.73,0,0,0-.15,1.24,4.81,4.81,0,0,0,.15,1.25,3,3,0,0,0,.42.94,2,2,0,0,0,.65.61A1.7,1.7,0,0,0,436.8,233.85Z"/>
  <path class="cls-4" d="M443.21,234.66a3.25,3.25,0,0,1-1.36-.29,3.38,3.38,0,0,1-1.08-.8l.53-.63a2.9,2.9,0,0,0,.88.67,2.37,2.37,0,0,0,1,.24,1.62,1.62,0,0,0,1.08-.33,1.08,1.08,0,0,0,.39-.87,1.13,1.13,0,0,0-.09-.47,1.07,1.07,0,0,0-.25-.34,2,2,0,0,0-.37-.26l-.45-.23-1-.46a3.87,3.87,0,0,1-.49-.26,2.39,2.39,0,0,1-.46-.38,1.93,1.93,0,0,1-.34-.53,2,2,0,0,1-.13-.71,1.87,1.87,0,0,1,.63-1.4,2,2,0,0,1,.69-.4,2.5,2.5,0,0,1,.88-.15,2.58,2.58,0,0,1,1.15.25,2.88,2.88,0,0,1,.9.66l-.46.59a2.67,2.67,0,0,0-.72-.5,1.92,1.92,0,0,0-.87-.19,1.46,1.46,0,0,0-.95.29,1,1,0,0,0-.35.79.92.92,0,0,0,.1.46,1.09,1.09,0,0,0,.27.33,1.31,1.31,0,0,0,.37.24l.41.19,1,.45a5,5,0,0,1,.57.31,2.24,2.24,0,0,1,.46.4,1.67,1.67,0,0,1,.3.54,2.16,2.16,0,0,1,.11.71,2,2,0,0,1-.17.82,1.9,1.9,0,0,1-.47.66,2.17,2.17,0,0,1-.74.44A2.86,2.86,0,0,1,443.21,234.66Z"/>
  <path class="cls-4" d="M448.19,228h-2.11v-.78h5.1V228h-2.1v6.55h-.89Z"/>
  <path class="cls-4" d="M376.88,238.1h.62l-2.84,9.72H374Z"/>
  <path class="cls-4" d="M377.77,241.1h.9l1,3.09c.08.27.17.54.24.81s.16.54.25.79h0c.08-.25.16-.51.24-.79l.24-.81,1-3.09h.85l-1.83,5.43h-1Z"/>
  <path class="cls-4" d="M387.59,245.79v.74h-3.76v-.74h1.55v-5.27a2.09,2.09,0,0,1,0-.26l-1.26,1.19-.47-.59,1.87-1.7h.7v6.63Z"/>
  <path class="cls-4" d="M391.21,238.1h.63L389,247.82h-.64Z"/>
  <path class="cls-4" d="M394.21,246.66a2.75,2.75,0,0,1-1.06-.21,3.13,3.13,0,0,1-.87-.54l.42-.6a3.3,3.3,0,0,0,.7.47,2,2,0,0,0,.83.17,1.05,1.05,0,0,0,.77-.25.79.79,0,0,0,.25-.6.55.55,0,0,0-.11-.36,1,1,0,0,0-.27-.27,1.71,1.71,0,0,0-.38-.21l-.42-.19a4.16,4.16,0,0,1-.54-.23,2.33,2.33,0,0,1-.5-.31,1.62,1.62,0,0,1-.36-.43,1.24,1.24,0,0,1-.14-.6,1.45,1.45,0,0,1,.47-1.09,1.63,1.63,0,0,1,.56-.33,2.34,2.34,0,0,1,1.64.06,3,3,0,0,1,.71.42l-.41.59a3.35,3.35,0,0,0-.56-.34,1.46,1.46,0,0,0-.63-.14,1,1,0,0,0-.71.23.74.74,0,0,0-.23.55.59.59,0,0,0,.09.34,1,1,0,0,0,.26.24,2.55,2.55,0,0,0,.37.19,4.08,4.08,0,0,0,.42.17l.56.25a2.17,2.17,0,0,1,.51.31,1.43,1.43,0,0,1,.36.45,1.28,1.28,0,0,1,.15.65,1.69,1.69,0,0,1-.13.63,1.49,1.49,0,0,1-.36.51,1.87,1.87,0,0,1-.59.34A2.2,2.2,0,0,1,394.21,246.66Z"/>
  <path class="cls-4" d="M398.8,246.66a1.35,1.35,0,0,1-1.19-.54,2.75,2.75,0,0,1-.38-1.58V241.1h.87v3.34a2,2,0,0,0,.23,1.1.82.82,0,0,0,.74.34,1.26,1.26,0,0,0,.71-.21,3.35,3.35,0,0,0,.69-.71V241.1h.86v5.43h-.72l-.07-.85h0a3.4,3.4,0,0,1-.77.71A1.65,1.65,0,0,1,398.8,246.66Z"/>
  <path class="cls-4" d="M405.34,246.66a1.79,1.79,0,0,1-.75-.18,2.48,2.48,0,0,1-.72-.52h0l-.08.57h-.69v-8h.86v2.18l0,1a4.1,4.1,0,0,1,.77-.54,1.78,1.78,0,0,1,.85-.23,2,2,0,0,1,.89.2,1.91,1.91,0,0,1,.64.56,2.49,2.49,0,0,1,.4.87,4.44,4.44,0,0,1,.13,1.13,3.73,3.73,0,0,1-.19,1.25,2.74,2.74,0,0,1-.49.93,2,2,0,0,1-.71.57A1.92,1.92,0,0,1,405.34,246.66Zm-.14-.77a1.2,1.2,0,0,0,.59-.15,1.44,1.44,0,0,0,.47-.42,2,2,0,0,0,.31-.68,3.46,3.46,0,0,0,.11-.9,4.15,4.15,0,0,0-.08-.82,1.8,1.8,0,0,0-.24-.63,1,1,0,0,0-.41-.41,1.22,1.22,0,0,0-.63-.15,1.49,1.49,0,0,0-.68.19,3.59,3.59,0,0,0-.71.56v2.84a2.16,2.16,0,0,0,.68.45A1.77,1.77,0,0,0,405.2,245.89Z"/>
  <path class="cls-4" d="M410.29,246.66a2.75,2.75,0,0,1-1.06-.21,3.46,3.46,0,0,1-.87-.54l.43-.6a2.86,2.86,0,0,0,.7.47,2,2,0,0,0,.83.17,1,1,0,0,0,.76-.25.79.79,0,0,0,.25-.6.61.61,0,0,0-.1-.36,1.15,1.15,0,0,0-.27-.27,2,2,0,0,0-.38-.21l-.43-.19a4.16,4.16,0,0,1-.54-.23,2,2,0,0,1-.49-.31,1.88,1.88,0,0,1-.37-.43,1.24,1.24,0,0,1-.13-.6,1.73,1.73,0,0,1,.11-.6,1.52,1.52,0,0,1,.35-.49,1.63,1.63,0,0,1,.56-.33,2.19,2.19,0,0,1,.75-.12,2.23,2.23,0,0,1,.9.18,3.25,3.25,0,0,1,.71.42l-.42.59a3,3,0,0,0-.56-.34,1.39,1.39,0,0,0-.63-.14,1,1,0,0,0-.71.23.78.78,0,0,0-.23.55.53.53,0,0,0,.1.34,1,1,0,0,0,.25.24,2.55,2.55,0,0,0,.37.19l.42.17.57.25a2.33,2.33,0,0,1,.5.31,1.62,1.62,0,0,1,.37.45,1.39,1.39,0,0,1,.14.65,1.68,1.68,0,0,1-.12.63,1.82,1.82,0,0,1-.36.51,2,2,0,0,1-.59.34A2.3,2.3,0,0,1,410.29,246.66Z"/>
  <path class="cls-4" d="M415.42,246.66a2.38,2.38,0,0,1-1-.19,2.18,2.18,0,0,1-.77-.55,3,3,0,0,1-.51-.89,3.71,3.71,0,0,1-.18-1.21,3.3,3.3,0,0,1,.2-1.21,2.9,2.9,0,0,1,.55-.9,2.32,2.32,0,0,1,.79-.56,2.5,2.5,0,0,1,.94-.19,1.94,1.94,0,0,1,.88.19,2.69,2.69,0,0,1,.63.46l-.44.61a2.26,2.26,0,0,0-.48-.35,1.13,1.13,0,0,0-.56-.14,1.37,1.37,0,0,0-.64.15,1.4,1.4,0,0,0-.51.43,2.16,2.16,0,0,0-.34.66,2.86,2.86,0,0,0-.12.85,3.18,3.18,0,0,0,.11.85,1.89,1.89,0,0,0,.33.65,1.54,1.54,0,0,0,.5.42,1.41,1.41,0,0,0,.65.15,1.5,1.5,0,0,0,.67-.15,2.38,2.38,0,0,0,.55-.39l.37.61a2.33,2.33,0,0,1-.77.52A2.25,2.25,0,0,1,415.42,246.66Z"/>
  <path class="cls-4" d="M418.22,241.1h.71l.08,1h0a2.59,2.59,0,0,1,.65-.82,1.23,1.23,0,0,1,.81-.31,1.39,1.39,0,0,1,.3,0,.75.75,0,0,1,.25.09l-.16.8-.24-.07-.26,0a.86.86,0,0,0-.34.07,1.09,1.09,0,0,0-.35.21,1.84,1.84,0,0,0-.33.38,3,3,0,0,0-.29.59v3.49h-.86Z"/>
  <path class="cls-4" d="M422.34,240a.58.58,0,0,1-.6-.59.54.54,0,0,1,.18-.43.57.57,0,0,1,.42-.16.59.59,0,0,1,.43.16.53.53,0,0,1,.17.43.56.56,0,0,1-.17.43A.59.59,0,0,1,422.34,240Zm-.43,1.12h.86v5.43h-.86Z"/>
  <path class="cls-4" d="M426.79,246.66a1.79,1.79,0,0,1-.75-.18,2.62,2.62,0,0,1-.72-.52h0l-.08.57h-.69v-8h.86v2.18l0,1a4.46,4.46,0,0,1,.77-.54A1.81,1.81,0,0,1,427,241a2,2,0,0,1,.89.2,1.91,1.91,0,0,1,.64.56,2.49,2.49,0,0,1,.4.87,4.44,4.44,0,0,1,.13,1.13,4,4,0,0,1-.18,1.25,2.94,2.94,0,0,1-.5.93,2,2,0,0,1-.71.57A1.92,1.92,0,0,1,426.79,246.66Zm-.14-.77a1.2,1.2,0,0,0,.59-.15,1.44,1.44,0,0,0,.47-.42,2,2,0,0,0,.31-.68,3.46,3.46,0,0,0,.11-.9,4.15,4.15,0,0,0-.08-.82,1.8,1.8,0,0,0-.24-.63,1,1,0,0,0-.41-.41,1.22,1.22,0,0,0-.63-.15,1.42,1.42,0,0,0-.67.19,3.36,3.36,0,0,0-.72.56v2.84a2.16,2.16,0,0,0,.68.45A1.77,1.77,0,0,0,426.65,245.89Z"/>
  <path class="cls-4" d="M432.47,246.66a2.38,2.38,0,0,1-1-.19,2.17,2.17,0,0,1-.79-.55,2.57,2.57,0,0,1-.52-.9,3.67,3.67,0,0,1,0-2.39,3,3,0,0,1,.51-.9,2.57,2.57,0,0,1,.75-.57,2.11,2.11,0,0,1,1.75,0,1.69,1.69,0,0,1,.64.52,2.23,2.23,0,0,1,.4.8,3.86,3.86,0,0,1,.14,1,2.71,2.71,0,0,1,0,.29c0,.09,0,.17,0,.23h-3.48a2.15,2.15,0,0,0,.5,1.38,1.55,1.55,0,0,0,1.2.51,2.19,2.19,0,0,0,.7-.11,2.48,2.48,0,0,0,.6-.32l.31.6a3.65,3.65,0,0,1-.76.4A2.4,2.4,0,0,1,432.47,246.66Zm1.15-3.27a2,2,0,0,0-.34-1.26,1.14,1.14,0,0,0-.94-.43,1.21,1.21,0,0,0-.53.12,1.19,1.19,0,0,0-.45.33,1.84,1.84,0,0,0-.33.53,2.24,2.24,0,0,0-.17.71Z"/>
  <path class="cls-4" d="M437.73,238.1h.63l-2.84,9.72h-.64Z"/>
  <path class="cls-4" d="M440.37,247.63a.8.8,0,0,1-.39-.24,1.05,1.05,0,0,1-.22-.45,2.89,2.89,0,0,1-.08-.73c0-.2,0-.39,0-.57s0-.35,0-.52l0-.52c0-.17,0-.35,0-.54a1.25,1.25,0,0,0,0-.32.68.68,0,0,0-.42-.48,1.17,1.17,0,0,0-.45-.08v-.57a1,1,0,0,0,.45-.08.75.75,0,0,0,.28-.2.7.7,0,0,0,.14-.27,1.19,1.19,0,0,0,0-.32c0-.18,0-.36,0-.54l0-.52c0-.17,0-.35,0-.53s0-.37,0-.57a3,3,0,0,1,.08-.72,1.1,1.1,0,0,1,.22-.46,1,1,0,0,1,.39-.24,2.31,2.31,0,0,1,.56-.07h.46v.51h-.27a.61.61,0,0,0-.58.25,1.53,1.53,0,0,0-.15.78c0,.34,0,.67,0,1s0,.67,0,1a2,2,0,0,1-.14.83.73.73,0,0,1-.5.38v0a.82.82,0,0,1,.5.4,2,2,0,0,1,.14.82q0,.57,0,1.05c0,.31,0,.64,0,1a1.53,1.53,0,0,0,.15.78.63.63,0,0,0,.58.24h.27v.52h-.46A1.91,1.91,0,0,1,440.37,247.63Z"/>
  <path class="cls-4" d="M444.86,246.66a1.79,1.79,0,0,1-.75-.18,2.48,2.48,0,0,1-.72-.52h0l-.08.57h-.69v-8h.86v2.18l0,1a4.1,4.1,0,0,1,.77-.54A1.78,1.78,0,0,1,445,241a2,2,0,0,1,.89.2,1.91,1.91,0,0,1,.64.56,2.49,2.49,0,0,1,.4.87,4.44,4.44,0,0,1,.13,1.13,3.73,3.73,0,0,1-.19,1.25,2.74,2.74,0,0,1-.49.93,2,2,0,0,1-.71.57A1.92,1.92,0,0,1,444.86,246.66Zm-.14-.77a1.2,1.2,0,0,0,.59-.15,1.44,1.44,0,0,0,.47-.42,2,2,0,0,0,.31-.68,3.46,3.46,0,0,0,.11-.9,4.15,4.15,0,0,0-.08-.82,1.8,1.8,0,0,0-.24-.63,1,1,0,0,0-.41-.41,1.22,1.22,0,0,0-.63-.15,1.49,1.49,0,0,0-.68.19,3.59,3.59,0,0,0-.71.56v2.84a2.06,2.06,0,0,0,.68.45A1.77,1.77,0,0,0,444.72,245.89Z"/>
  <path class="cls-4" d="M448.9,240a.59.59,0,0,1-.43-.16.56.56,0,0,1-.17-.43.53.53,0,0,1,.17-.43.59.59,0,0,1,.43-.16.57.57,0,0,1,.42.16.53.53,0,0,1,.17.43.56.56,0,0,1-.17.43A.57.57,0,0,1,448.9,240Zm-.44,1.12h.86v5.43h-.86Z"/>
  <path class="cls-4" d="M452.83,246.66a2,2,0,0,1-.88-.19,1.77,1.77,0,0,1-.67-.55,2.64,2.64,0,0,1-.43-.89,4.4,4.4,0,0,1-.15-1.21,3.46,3.46,0,0,1,.19-1.19,2.78,2.78,0,0,1,.49-.9,2.25,2.25,0,0,1,.7-.57,2,2,0,0,1,.85-.2,1.74,1.74,0,0,1,.79.17,3.74,3.74,0,0,1,.67.47l-.05-.94v-2.09h.86v8h-.7l-.09-.64h0a3.21,3.21,0,0,1-.71.55A1.69,1.69,0,0,1,452.83,246.66Zm.19-.77a1.36,1.36,0,0,0,.68-.18,2.71,2.71,0,0,0,.64-.57V242.3a2.27,2.27,0,0,0-.63-.44,1.5,1.5,0,0,0-.62-.13,1.2,1.2,0,0,0-.59.15,1.37,1.37,0,0,0-.47.43,1.88,1.88,0,0,0-.32.65,2.86,2.86,0,0,0-.12.85,2.74,2.74,0,0,0,.37,1.53A1.2,1.2,0,0,0,453,245.89Z"/>
  <path class="cls-4" d="M456.41,247.18h.28a.63.63,0,0,0,.58-.24,1.66,1.66,0,0,0,.14-.78c0-.34,0-.67,0-1s0-.67,0-1.05a2,2,0,0,1,.14-.82.85.85,0,0,1,.5-.4v0a.74.74,0,0,1-.49-.38,2,2,0,0,1-.14-.83c0-.38,0-.73,0-1s0-.64,0-1a1.66,1.66,0,0,0-.14-.78.61.61,0,0,0-.58-.25h-.28v-.51h.48a2.14,2.14,0,0,1,.54.07.86.86,0,0,1,.39.24,1.1,1.1,0,0,1,.23.46,3,3,0,0,1,.08.72c0,.2,0,.39,0,.57l0,.53,0,.52c0,.18,0,.36,0,.54a1.75,1.75,0,0,0,0,.32.61.61,0,0,0,.15.27.71.71,0,0,0,.27.2,1,1,0,0,0,.45.08v.57a1.1,1.1,0,0,0-.45.08.71.71,0,0,0-.27.2.64.64,0,0,0-.15.28,1.87,1.87,0,0,0,0,.32c0,.19,0,.37,0,.54l0,.52,0,.52c0,.18,0,.37,0,.57a2.89,2.89,0,0,1-.08.73,1.06,1.06,0,0,1-.23.45.72.72,0,0,1-.39.24,1.77,1.77,0,0,1-.54.07h-.48Z"/>
  <path class="cls-4" d="M462.25,238.1h.63L460,247.82h-.64Z"/>
  <path class="cls-4" d="M463.9,241.1h.71l.08.62h0a5.25,5.25,0,0,1,.77-.53,1.83,1.83,0,0,1,.88-.23,1.93,1.93,0,0,1,.88.2,1.91,1.91,0,0,1,.64.56,2.49,2.49,0,0,1,.4.87,5,5,0,0,1,.13,1.14,3.73,3.73,0,0,1-.19,1.25,2.78,2.78,0,0,1-.49.92,2.13,2.13,0,0,1-.71.57,2,2,0,0,1-.85.19,1.61,1.61,0,0,1-.72-.17,2.91,2.91,0,0,1-.71-.47l0,1v1.84h-.86Zm2.12,4.79a1.21,1.21,0,0,0,.6-.15,1.44,1.44,0,0,0,.47-.42,2.25,2.25,0,0,0,.31-.68,3.46,3.46,0,0,0,.11-.9,4.15,4.15,0,0,0-.08-.82,1.8,1.8,0,0,0-.24-.63,1,1,0,0,0-.42-.41,1.21,1.21,0,0,0-.62-.15,1.42,1.42,0,0,0-.67.19,3.36,3.36,0,0,0-.72.56v2.84a2.16,2.16,0,0,0,.68.45A1.72,1.72,0,0,0,466,245.89Z"/>
  <path class="cls-4" d="M470.81,246.66a1.52,1.52,0,0,1-.6-.11,1.38,1.38,0,0,1-.47-.31,1.51,1.51,0,0,1-.31-.5,1.76,1.76,0,0,1-.12-.66,1.61,1.61,0,0,1,.82-1.51,5.11,5.11,0,0,1,2.35-.47,2.92,2.92,0,0,0,0-.51,1.44,1.44,0,0,0-.17-.44.8.8,0,0,0-.33-.3,1,1,0,0,0-.52-.12,2.32,2.32,0,0,0-.87.16,3.32,3.32,0,0,0-.73.37l-.34-.65a4.82,4.82,0,0,1,.91-.45,3.42,3.42,0,0,1,1.17-.2,1.86,1.86,0,0,1,.81.16,1.48,1.48,0,0,1,.56.46,2,2,0,0,1,.31.7,3.72,3.72,0,0,1,.11.91v3.34h-.71l-.08-.59h0a3,3,0,0,1-.8.52A2.06,2.06,0,0,1,470.81,246.66Zm.25-.74a1.7,1.7,0,0,0,.71-.14,2.33,2.33,0,0,0,.71-.49v-1.61a8.68,8.68,0,0,0-1.13.15,2.23,2.23,0,0,0-.72.25,1,1,0,0,0-.37.39,1.25,1.25,0,0,0-.1.53.89.89,0,0,0,.25.7A1,1,0,0,0,471.06,245.92Z"/>
  <path class="cls-4" d="M475.52,248.87l.8-2.39-2.07-5.38h.9l1.06,3c.07.24.16.49.24.75l.25.77h.05c.07-.24.14-.5.22-.76s.15-.52.22-.76l.92-3H479l-2.63,7.77Z"/>
  <path class="cls-4" d="M479.94,241.1h.71l.08.79h0a3.76,3.76,0,0,1,.73-.66,1.54,1.54,0,0,1,.87-.27,1.48,1.48,0,0,1,.94.28,1.7,1.7,0,0,1,.49.76,5.54,5.54,0,0,1,.81-.75,1.55,1.55,0,0,1,.89-.29,1.36,1.36,0,0,1,1.19.54,2.78,2.78,0,0,1,.38,1.59v3.44h-.87v-3.32a2,2,0,0,0-.23-1.11.83.83,0,0,0-.73-.34,2,2,0,0,0-1.3.83v3.94h-.86v-3.32a2,2,0,0,0-.24-1.11.82.82,0,0,0-.72-.34,1.87,1.87,0,0,0-1.3.83v3.94h-.87Z"/>
  <path class="cls-4" d="M490.82,246.66a2.47,2.47,0,0,1-1-.19,2.13,2.13,0,0,1-.78-.55,2.75,2.75,0,0,1-.53-.9,3.85,3.85,0,0,1,0-2.39,3,3,0,0,1,.52-.9,2.57,2.57,0,0,1,.75-.57,2.11,2.11,0,0,1,1.75,0,1.69,1.69,0,0,1,.64.52,2.23,2.23,0,0,1,.4.8,3.86,3.86,0,0,1,.14,1c0,.1,0,.2,0,.29s0,.17,0,.23h-3.49a2.15,2.15,0,0,0,.51,1.38,1.55,1.55,0,0,0,1.2.51,2.19,2.19,0,0,0,.7-.11,2.48,2.48,0,0,0,.6-.32l.31.6a3.65,3.65,0,0,1-.76.4A2.4,2.4,0,0,1,490.82,246.66Zm1.15-3.27a2,2,0,0,0-.34-1.26,1.14,1.14,0,0,0-.94-.43,1.21,1.21,0,0,0-.53.12,1.19,1.19,0,0,0-.45.33,1.49,1.49,0,0,0-.33.53,2.55,2.55,0,0,0-.18.71Z"/>
  <path class="cls-4" d="M494,241.1h.71l.08.78h0a4.72,4.72,0,0,1,.78-.65,1.7,1.7,0,0,1,.95-.27,1.35,1.35,0,0,1,1.19.54,2.71,2.71,0,0,1,.38,1.59v3.44h-.86v-3.32a2.09,2.09,0,0,0-.23-1.11.87.87,0,0,0-.75-.34,1.26,1.26,0,0,0-.71.21,4.51,4.51,0,0,0-.7.62v3.94H494Z"/>
  <path class="cls-4" d="M501.43,246.66a1.62,1.62,0,0,1-.7-.13,1.14,1.14,0,0,1-.45-.36,1.65,1.65,0,0,1-.25-.57,3.48,3.48,0,0,1-.07-.75v-3h-.77v-.69l.81-.05.1-1.52h.72v1.52h1.4v.74h-1.4v3a1.5,1.5,0,0,0,.17.78.7.7,0,0,0,.63.27,1,1,0,0,0,.29,0l.3-.1.17.68c-.15,0-.3.1-.47.14A2,2,0,0,1,501.43,246.66Z"/>
  <path class="cls-4" d="M504.74,246.66a2.75,2.75,0,0,1-1.06-.21,3.46,3.46,0,0,1-.87-.54l.42-.6a3.3,3.3,0,0,0,.7.47,2,2,0,0,0,.83.17,1,1,0,0,0,.77-.25.79.79,0,0,0,.25-.6.61.61,0,0,0-.1-.36,1.15,1.15,0,0,0-.27-.27,2,2,0,0,0-.38-.21l-.43-.19a4.16,4.16,0,0,1-.54-.23,2.33,2.33,0,0,1-.5-.31,1.62,1.62,0,0,1-.36-.43,1.24,1.24,0,0,1-.14-.6,1.45,1.45,0,0,1,.47-1.09,1.63,1.63,0,0,1,.56-.33,2.34,2.34,0,0,1,1.64.06,3.33,3.33,0,0,1,.72.42l-.42.59a3.35,3.35,0,0,0-.56-.34,1.42,1.42,0,0,0-.63-.14,1,1,0,0,0-.71.23.78.78,0,0,0-.23.55.59.59,0,0,0,.09.34,1,1,0,0,0,.26.24,2.55,2.55,0,0,0,.37.19,4.08,4.08,0,0,0,.42.17l.57.25a2.33,2.33,0,0,1,.5.31,1.62,1.62,0,0,1,.37.45,1.39,1.39,0,0,1,.14.65,1.51,1.51,0,0,1-.13.63,1.49,1.49,0,0,1-.36.51,1.87,1.87,0,0,1-.59.34A2.2,2.2,0,0,1,504.74,246.66Z"/>
  <polygon class="cls-3" points="175.89 174.47 175.89 188.88 163.89 181.68 175.89 174.47"/>
  <polygon class="cls-3" points="164.32 404.11 164.32 389.71 176.32 396.91 164.32 404.11"/>
  <path class="cls-4" d="M230,406.69a11.48,11.48,0,0,1-.22,2.29,7.68,7.68,0,0,1-.74,2.11,7.85,7.85,0,0,1-1.43,1.89,9.6,9.6,0,0,1-2.27,1.6l-.51-.75a9,9,0,0,0,2.29-1.65,6.92,6.92,0,0,0,1.35-2l-3.44.35-.16-.87,3.89-.28a8.3,8.3,0,0,0,.31-1.89h-3.69v-.8Zm4.24,4.07h-1.64v5.58h-.93V405.59h.93V410h1.64Z"/>
  <path class="cls-4" d="M244.5,414.08v.81h-9.28v-.81Zm-1.07-2.54h-7v-5h6.92v.8h-6v3.36h6.1Z"/>
  <path class="cls-4" d="M253.73,411.42a4.27,4.27,0,0,1-1.49-1,4.21,4.21,0,0,1-1-1.48,4.6,4.6,0,0,1-1,1.62,4,4,0,0,1-1.56,1.05l-.47-.79a3.85,3.85,0,0,0,1.05-.59,3.75,3.75,0,0,0,.8-.84,3.81,3.81,0,0,0,.51-1,4.07,4.07,0,0,0,.17-1.16v-1.11h.94v1.19a3.13,3.13,0,0,0,.18,1.05,3.55,3.55,0,0,0,.51,1,3.84,3.84,0,0,0,.78.78,4.27,4.27,0,0,0,1,.54Zm-4.18,1.22h6.66v3.71h-.94v-2.92h-5.72Zm8.17-3.41h-1.51v2.87h-.94v-6.5h.94v2.83h1.51Z"/>
  <path class="cls-4" d="M261.76,408.61a7.12,7.12,0,0,0,.14,1.39,6.5,6.5,0,0,0,.42,1.29,4.72,4.72,0,0,0,.68,1.1,3.26,3.26,0,0,0,.94.8l-.57.72a3.92,3.92,0,0,1-1.27-1.29,6,6,0,0,1-.78-1.85,7.18,7.18,0,0,1-.81,2,4.29,4.29,0,0,1-1.3,1.4l-.57-.73a4.05,4.05,0,0,0,.95-.86,5,5,0,0,0,.69-1.16,6.54,6.54,0,0,0,.43-1.36,7.09,7.09,0,0,0,.15-1.46v-1h-1.94v-.81h4.66v.81h-1.82Zm2.74-2.8h.89v10h-.89v-5.53h-1.69v-.8h1.69Zm2.95-.25v10.77h-.9V405.56Z"/>
  <path class="cls-4" d="M281.08,414.15V415h-9.29v-.81h2.28v-2.91a2.63,2.63,0,0,1-1-.91,2.41,2.41,0,0,1-.36-1.31,2.36,2.36,0,0,1,.28-1.13,2.68,2.68,0,0,1,.77-.88,3.68,3.68,0,0,1,1.18-.55,5.69,5.69,0,0,1,3,0,3.72,3.72,0,0,1,1.17.55,2.68,2.68,0,0,1,.77.88,2.26,2.26,0,0,1,.28,1.13,2.37,2.37,0,0,1-.36,1.3,2.5,2.5,0,0,1-1,.91v2.92ZM276.42,407a4,4,0,0,0-1.13.14,2.92,2.92,0,0,0-.89.4,1.83,1.83,0,0,0-.58.63,1.55,1.55,0,0,0-.22.82,1.53,1.53,0,0,0,.22.82,1.9,1.9,0,0,0,.58.62,2.71,2.71,0,0,0,.89.41,4.63,4.63,0,0,0,2.26,0,2.87,2.87,0,0,0,.9-.41,1.93,1.93,0,0,0,.59-.62,1.61,1.61,0,0,0,.21-.82,1.64,1.64,0,0,0-.21-.82,1.86,1.86,0,0,0-.59-.63,3.1,3.1,0,0,0-.9-.4A4,4,0,0,0,276.42,407ZM275,414.15h2.85v-2.54a6,6,0,0,1-1.44.17,5.79,5.79,0,0,1-1.41-.17Z"/>
  <path class="cls-4" d="M287.91,411.65a4.45,4.45,0,0,1-1.55-.87,3.84,3.84,0,0,1-1-1.37,4.2,4.2,0,0,1-1,1.55,4.14,4.14,0,0,1-1.57,1l-.46-.75a4.38,4.38,0,0,0,1-.54,3.91,3.91,0,0,0,.8-.77,3.22,3.22,0,0,0,.52-.94,3.13,3.13,0,0,0,.18-1.05v-.21h-2.26v-.79h2.26v-1.34h.94v1.34H288v.79h-2.26v.21a2.5,2.5,0,0,0,.19,1,2.86,2.86,0,0,0,.53.86,3.65,3.65,0,0,0,.81.7,3.91,3.91,0,0,0,1,.49Zm-.59.73a6.83,6.83,0,0,1,1.43.13,4.13,4.13,0,0,1,1.08.38,2,2,0,0,1,.68.62,1.58,1.58,0,0,1,.23.84,1.6,1.6,0,0,1-.23.84,2,2,0,0,1-.68.62,3.52,3.52,0,0,1-1.08.38,7.27,7.27,0,0,1-2.84,0,3.55,3.55,0,0,1-1.07-.38,1.92,1.92,0,0,1-.67-.62,1.53,1.53,0,0,1-.24-.84,1.5,1.5,0,0,1,.24-.84,1.92,1.92,0,0,1,.67-.62,4.19,4.19,0,0,1,1.07-.38A6.77,6.77,0,0,1,287.32,412.38Zm0,3.18a4.32,4.32,0,0,0,1.83-.32,1,1,0,0,0,.66-.89,1,1,0,0,0-.66-.89,4.34,4.34,0,0,0-1.83-.31,4.21,4.21,0,0,0-1.81.31,1,1,0,0,0-.65.89,1,1,0,0,0,.65.89A4.19,4.19,0,0,0,287.33,415.56Zm2.44-6.91v-3.06h.93v6.51h-.93v-2.65h-2v-.8Z"/>
  <path class="cls-4" d="M230,467.1a11.48,11.48,0,0,1-.22,2.29,7.75,7.75,0,0,1-.74,2.12,7.85,7.85,0,0,1-1.43,1.89,9.9,9.9,0,0,1-2.27,1.6l-.51-.76a8.49,8.49,0,0,0,2.29-1.65,6.79,6.79,0,0,0,1.35-2l-3.44.35-.16-.86,3.89-.28a8.3,8.3,0,0,0,.31-1.89h-3.69v-.81Zm4.24,4.07h-1.64v5.58h-.93V466h.93v4.37h1.64Z"/>
  <path class="cls-4" d="M244.5,474.5v.8h-9.28v-.8ZM243.43,472h-7v-5h6.92v.81h-6v3.36h6.1Z"/>
  <path class="cls-4" d="M257.53,471.12v.81h-9.26v-.81Zm-4.64,1.73a7.2,7.2,0,0,1,1.46.13,3.65,3.65,0,0,1,1.1.38,1.88,1.88,0,0,1,.69.61,1.54,1.54,0,0,1,0,1.65,2,2,0,0,1-.69.62,3.94,3.94,0,0,1-1.1.37,8.32,8.32,0,0,1-2.93,0,3.94,3.94,0,0,1-1.1-.37,2,2,0,0,1-.69-.62,1.54,1.54,0,0,1,0-1.65,1.88,1.88,0,0,1,.69-.61,3.65,3.65,0,0,1,1.1-.38A7.24,7.24,0,0,1,252.89,472.85Zm3.55-2.77h-7v-3.66h6.93v.79h-6v2.08h6.08ZM252.89,476a4.76,4.76,0,0,0,1.88-.3.91.91,0,0,0,0-1.75,6.07,6.07,0,0,0-3.77,0,.91.91,0,0,0,0,1.75A4.78,4.78,0,0,0,252.89,476Z"/>
  <path class="cls-4" d="M268,471.9v.81h-9.27v-.81h4.17v-1.12h-3v-2.63h6V467h-6v-.77h6.92v2.62h-6V470h6.18v.77h-3.19v1.12Zm-8.23,1.64h7.11v3.12H266v-2.32h-6.18Z"/>
  <path class="cls-4" d="M278.22,472.19c-.53.11-1.08.19-1.63.25s-1.12.1-1.66.13-1.08.05-1.59.05l-1.42,0-.13-.81h1.27l1.39,0V470.7A2.54,2.54,0,0,1,273,470a1.93,1.93,0,0,1-.57-1.43,2,2,0,0,1,.7-1.53,2.56,2.56,0,0,1,.8-.43,3.54,3.54,0,0,1,2,0,2.5,2.5,0,0,1,.79.43,2,2,0,0,1,.51.68,1.86,1.86,0,0,1,.19.85,1.91,1.91,0,0,1-.55,1.42,2.46,2.46,0,0,1-1.48.67v1.06l1.42-.11c.46,0,.91-.1,1.35-.17Zm-5-3.59a1.21,1.21,0,0,0,.46,1,2.08,2.08,0,0,0,2.37,0,1.22,1.22,0,0,0,.47-1,1.24,1.24,0,0,0-.47-1,2.08,2.08,0,0,0-2.37,0A1.23,1.23,0,0,0,273.25,468.6Zm.94,7.1h5.89v.8h-6.82v-3h.93Zm7-6.05v.8h-1.5v3.78h-.94V466h.94v3.64Z"/>
  <path class="cls-4" d="M291.57,474.62v.8h-9.29v-.8h2.6v-2h-1.44v-3.33h6.07v-1.67h-6.09v-.8h7V470h-6.06v1.73h6.29v.81h-1.6v2Zm-5.77,0h2.34v-2H285.8Z"/>
  <line class="cls-2" x1="352.28" y1="456.92" x2="172.25" y2="456.92"/>
  <line class="cls-2" x1="352.28" y1="396.91" x2="172.25" y2="396.91"/>
  <polygon class="cls-3" points="176.04 449.35 176.04 463.75 164.04 456.55 176.04 449.35"/>
  <path class="cls-2" d="M529.37,397.34a30,30,0,0,1,0,60"/>
  <polygon class="cls-3" points="524.74 404.48 524.74 390.08 536.74 397.28 524.74 404.48"/>
  <polygon class="cls-3" points="536.74 449.73 536.74 464.13 524.74 456.93 536.74 449.73"/>
  <line class="cls-2" x1="353.13" y1="182.04" x2="173.1" y2="182.04"/>
  <line class="cls-2" x1="353.13" y1="122.03" x2="173.1" y2="122.03"/>
  <path class="cls-4" d="M413.7,331v.8h-9.25V331Zm-.88-.86a5.82,5.82,0,0,1-1.16-.3,5.68,5.68,0,0,1-1.05-.51,4.7,4.7,0,0,1-.89-.69,3.72,3.72,0,0,1-.64-.85,3.24,3.24,0,0,1-.63.85,5,5,0,0,1-.89.69,5.77,5.77,0,0,1-1.06.51,6,6,0,0,1-1.16.3l-.34-.76a6.92,6.92,0,0,0,1.33-.37,4.56,4.56,0,0,0,1.15-.64,3.1,3.1,0,0,0,.81-.85,1.76,1.76,0,0,0,.31-1V326h1v.48a1.72,1.72,0,0,0,.31,1,3.28,3.28,0,0,0,.81.86,5.1,5.1,0,0,0,1.15.64,6.29,6.29,0,0,0,1.33.38Zm-3.75,2.64a5.43,5.43,0,0,1,2.56.5,1.54,1.54,0,0,1,.93,1.42,1.41,1.41,0,0,1-.24.82,1.86,1.86,0,0,1-.69.6,3.87,3.87,0,0,1-1.09.38,8.09,8.09,0,0,1-1.47.12,5.41,5.41,0,0,1-2.57-.5,1.54,1.54,0,0,1-.93-1.42,1.38,1.38,0,0,1,.24-.81,2,2,0,0,1,.69-.61,3.84,3.84,0,0,1,1.1-.37A8.2,8.2,0,0,1,409.07,332.78Zm0,3.08a4.69,4.69,0,0,0,1.88-.3.92.92,0,0,0,.67-.86.94.94,0,0,0-.67-.85,4.69,4.69,0,0,0-1.88-.3,4.78,4.78,0,0,0-1.89.3,1,1,0,0,0-.68.85.93.93,0,0,0,.68.86A4.78,4.78,0,0,0,409.07,335.86Z"/>
  <path class="cls-4" d="M420.52,329.26a2.65,2.65,0,0,1-.2,1.07,2.71,2.71,0,0,1-.57.84,2.45,2.45,0,0,1-.85.55,2.91,2.91,0,0,1-2.12,0,2.5,2.5,0,0,1-.84-.55,2.53,2.53,0,0,1-.56-.84,2.65,2.65,0,0,1-.2-1.07,2.68,2.68,0,0,1,.2-1.07,2.53,2.53,0,0,1,.56-.84,2.63,2.63,0,0,1,.84-.54,3.05,3.05,0,0,1,2.12,0,2.57,2.57,0,0,1,.85.54,2.71,2.71,0,0,1,.57.84A2.68,2.68,0,0,1,420.52,329.26Zm-4.42,0a2,2,0,0,0,.13.73,1.7,1.7,0,0,0,.37.57,1.55,1.55,0,0,0,.55.38,1.93,1.93,0,0,0,.69.13,2,2,0,0,0,.7-.13,1.79,1.79,0,0,0,.56-.38,1.7,1.7,0,0,0,.37-.57,2,2,0,0,0,.13-.73,1.81,1.81,0,0,0-.13-.72,1.7,1.7,0,0,0-.37-.57,1.76,1.76,0,0,0-.56-.37,1.82,1.82,0,0,0-.7-.13,1.73,1.73,0,0,0-.69.13,1.53,1.53,0,0,0-.55.37,1.7,1.7,0,0,0-.37.57A1.81,1.81,0,0,0,416.1,329.26Zm7.54,6.32v.8h-6.89v-3.45h.94v2.65Zm-.31-1.85h-.94v-7.86h.94Z"/>
  <path class="cls-4" d="M426.31,334.62a12.3,12.3,0,0,1,0-6.52,12.94,12.94,0,0,1,1.24-2.83l.65.31a10.24,10.24,0,0,0-1.11,2.77,13.12,13.12,0,0,0,0,6,10,10,0,0,0,1.11,2.76l-.65.32A12.74,12.74,0,0,1,426.31,334.62Z"/>
  <path class="cls-4" d="M434.24,328.19a4.69,4.69,0,0,1-1.62,2.13,7.82,7.82,0,0,1-2.84,1.28l-.34-.81a6.63,6.63,0,0,0,2.92-1.38,3.3,3.3,0,0,0,1.17-2.22H430v-.8h4.58a5.07,5.07,0,0,1-.11,1h2.32v-1.56h.93v5.5h-.93v-1.12h-2.67v-.77h2.67v-1.28Zm3.81,7.55v.76h-6.91v-2.76h5.63v-1.1h-5.66v-.79h6.58v2.64h-5.63v1.25Z"/>
  <path class="cls-4" d="M442.77,328.9a6.49,6.49,0,0,0,.14,1.39,6.26,6.26,0,0,0,.41,1.29,5.34,5.34,0,0,0,.68,1.1,3.6,3.6,0,0,0,.94.8l-.57.72a4,4,0,0,1-1.27-1.29,6.52,6.52,0,0,1-.78-1.85,7.16,7.16,0,0,1-.8,2,4.28,4.28,0,0,1-1.31,1.39l-.57-.73a3.52,3.52,0,0,0,.95-.86,5.12,5.12,0,0,0,.7-1.15,7.44,7.44,0,0,0,.43-1.36,7.94,7.94,0,0,0,.14-1.46v-1h-1.93v-.8h4.66v.8h-1.82Zm2.73-2.8h.89v10h-.89v-5.53h-1.69v-.81h1.69Zm2.95-.25v10.76h-.9V325.85Z"/>
  <path class="cls-4" d="M450.14,337.06a10.69,10.69,0,0,0,1.1-2.76,12.73,12.73,0,0,0,.36-3,12.57,12.57,0,0,0-.36-3,10.9,10.9,0,0,0-1.1-2.77l.64-.31A12.48,12.48,0,0,1,452,328a12,12,0,0,1,0,6.52,12.48,12.48,0,0,1-1.24,2.83Z"/>
  <path class="cls-4" d="M465.89,331.09v.79h-9.23v-.79Zm-4.61-4.95a7.51,7.51,0,0,1,1.49.13,4,4,0,0,1,1.13.41,2,2,0,0,1,.72.64,1.55,1.55,0,0,1,.25.87,1.52,1.52,0,0,1-.25.86,2.15,2.15,0,0,1-.72.64,4,4,0,0,1-1.13.4,8,8,0,0,1-3,0,4,4,0,0,1-1.13-.4,2,2,0,0,1-.72-.64,1.52,1.52,0,0,1-.25-.86,1.55,1.55,0,0,1,.25-.87,1.89,1.89,0,0,1,.72-.64,4,4,0,0,1,1.13-.41A7.51,7.51,0,0,1,461.28,326.14Zm0,6.63a5.49,5.49,0,0,1,2.56.5,1.56,1.56,0,0,1,0,2.85,5.36,5.36,0,0,1-2.56.5,8,8,0,0,1-1.46-.12,3.83,3.83,0,0,1-1.1-.38,1.86,1.86,0,0,1-.69-.6,1.54,1.54,0,0,1,0-1.65,2.05,2.05,0,0,1,.69-.6,3.84,3.84,0,0,1,1.1-.37A7.14,7.14,0,0,1,461.28,332.77Zm0-5.87a4.59,4.59,0,0,0-1.92.34,1,1,0,0,0-.7.95,1,1,0,0,0,.7.93,5.62,5.62,0,0,0,3.85,0,1,1,0,0,0,.7-.93,1,1,0,0,0-.7-.95A4.61,4.61,0,0,0,461.28,326.9Zm0,6.64a4.48,4.48,0,0,0-1.87.31.88.88,0,0,0,0,1.71,4.67,4.67,0,0,0,1.87.3,4.72,4.72,0,0,0,1.88-.3.88.88,0,0,0,0-1.71A4.53,4.53,0,0,0,461.28,333.54Z"/>
  <path class="cls-4" d="M473.17,330.86c-.35.08-.7.14-1,.19l-1.07.11c-.37,0-.77,0-1.21.06l-1.45,0h-.79v-4.67h4.5v.79h-3.57v3.07c.5,0,1,0,1.37,0l1.14-.05c.36,0,.7-.06,1-.11l1-.18Zm1,1.32h.92v4.26h-6.44v-4.26h.93v1.35h4.59Zm0,2.12h-4.59v1.34h4.59Zm2.44-5.1h-1.52v2.4h-.93v-5.74h.93v2.53h1.52Z"/>
  <circle class="cls-3" cx="349.75" cy="287.04" r="5"/>
  <polygon class="cls-3" points="356.75 310.17 356.75 324.57 344.75 317.37 356.75 310.17"/>
  <rect class="cls-6" x="315.784" y="83.88" width="284.576" height="130" rx="12" style=""/>
  <polygon class="cls-3" points="164.17 129.23 164.17 114.83 176.17 122.03 164.17 129.23"/>
  <line class="cls-2" x1="532.99" y1="182.04" x2="352.97" y2="182.04"/>
  <line class="cls-2" x1="532.99" y1="122.03" x2="352.97" y2="122.03"/>
  <path class="cls-4" d="M411.64,195.64h-4.79v-4.72h.92v1.56h3v-1.56h.92Zm-.92-2.4h-3v1.61h3Zm4.33,7.13v.77H408.1V198.5h5.68v-1.06h-5.7v-.76h6.63v2.54H409v1.15Zm-.36-4.25h-.93v-5.61h.93Z"/>
  <path class="cls-4" d="M422.24,191.61a11.48,11.48,0,0,1-.22,2.29,7.39,7.39,0,0,1-.77,2.12,7.7,7.7,0,0,1-1.45,1.89,10,10,0,0,1-2.29,1.6l-.5-.78a8.74,8.74,0,0,0,2.31-1.63,6.84,6.84,0,0,0,1.37-2l-3.49.35-.16-.86,3.95-.28a7.24,7.24,0,0,0,.22-.92c.05-.31.08-.63.11-1h-3.75v-.81Zm2.95-1.11v10.76h-.93V190.5Z"/>
  <path class="cls-4" d="M428.18,199.26a12,12,0,0,1,0-6.52,13.4,13.4,0,0,1,1.23-2.83l.65.31A10.43,10.43,0,0,0,429,193a13.08,13.08,0,0,0,0,6,10.11,10.11,0,0,0,1.11,2.76l-.65.33A13.4,13.4,0,0,1,428.18,199.26Z"/>
  <path class="cls-4" d="M434.31,200.53a2,2,0,0,1-.89-.22,3.17,3.17,0,0,1-.87-.62h0l-.09.68h-.83v-9.55h1v2.62l0,1.17a4.93,4.93,0,0,1,.92-.65,2.16,2.16,0,0,1,1-.27,2.24,2.24,0,0,1,1.06.24,2.18,2.18,0,0,1,.78.67,3,3,0,0,1,.47,1A5.23,5.23,0,0,1,437,197a4.64,4.64,0,0,1-.22,1.5,3.65,3.65,0,0,1-.59,1.11,2.43,2.43,0,0,1-.86.68A2.25,2.25,0,0,1,434.31,200.53Zm-.17-.93a1.41,1.41,0,0,0,.71-.17,1.72,1.72,0,0,0,.57-.51,2.53,2.53,0,0,0,.37-.81,4,4,0,0,0,.13-1.09,4.88,4.88,0,0,0-.09-1,2.27,2.27,0,0,0-.29-.76,1.31,1.31,0,0,0-.5-.49,1.44,1.44,0,0,0-.75-.18,1.66,1.66,0,0,0-.81.23,4,4,0,0,0-.85.67v3.41a2.62,2.62,0,0,0,.8.54A2.06,2.06,0,0,0,434.14,199.6Z"/>
  <path class="cls-4" d="M439.16,192.51a.69.69,0,0,1-.52-.2.69.69,0,0,1-.2-.5.71.71,0,0,1,.2-.53.77.77,0,0,1,.52-.18.76.76,0,0,1,.51.18.68.68,0,0,1,.21.53.66.66,0,0,1-.21.5A.69.69,0,0,1,439.16,192.51Zm-.53,1.35h1v6.51h-1Z"/>
  <path class="cls-4" d="M443.88,200.53a2.46,2.46,0,0,1-1.06-.23,2.2,2.2,0,0,1-.8-.66,3.13,3.13,0,0,1-.51-1.07,5,5,0,0,1-.19-1.45,4.29,4.29,0,0,1,.23-1.43,3.48,3.48,0,0,1,.58-1.08,2.75,2.75,0,0,1,.85-.68,2.28,2.28,0,0,1,1-.24,2.07,2.07,0,0,1,.94.2,4.65,4.65,0,0,1,.81.57l-.06-1.13v-2.51h1v9.55h-.85l-.1-.77h0a3.66,3.66,0,0,1-.85.66A2.06,2.06,0,0,1,443.88,200.53Zm.22-.93a1.6,1.6,0,0,0,.82-.22,3,3,0,0,0,.77-.67V195.3a2.7,2.7,0,0,0-.76-.53,1.78,1.78,0,0,0-.75-.16,1.43,1.43,0,0,0-.7.18,1.94,1.94,0,0,0-.57.51,2.52,2.52,0,0,0-.38.79,3.62,3.62,0,0,0-.14,1,3.26,3.26,0,0,0,.45,1.85A1.43,1.43,0,0,0,444.1,199.6Z"/>
  <path class="cls-4" d="M448.28,201.69a10.41,10.41,0,0,0,1.1-2.76,12.76,12.76,0,0,0,0-6,10.69,10.69,0,0,0-1.1-2.76l.63-.31a12.32,12.32,0,0,1,1.25,2.83,12.26,12.26,0,0,1,0,6.51,12.39,12.39,0,0,1-1.25,2.84Z"/>
  <path class="cls-4" d="M464,195.73v.79H454.8v-.79Zm-4.62-5a7.5,7.5,0,0,1,1.5.14,4,4,0,0,1,1.13.4,2,2,0,0,1,.71.65,1.55,1.55,0,0,1,.26.86,1.5,1.5,0,0,1-.26.86,1.93,1.93,0,0,1-.71.64,3.75,3.75,0,0,1-1.13.41,8.6,8.6,0,0,1-3,0,3.71,3.71,0,0,1-1.14-.41,2,2,0,0,1-.72-.64,1.58,1.58,0,0,1-.25-.86,1.63,1.63,0,0,1,.25-.86,2.07,2.07,0,0,1,.72-.65,4,4,0,0,1,1.14-.4A7.44,7.44,0,0,1,459.41,190.77Zm0,6.64a5.5,5.5,0,0,1,2.57.5,1.56,1.56,0,0,1,0,2.85,5.5,5.5,0,0,1-2.57.5,7.2,7.2,0,0,1-1.46-.13,3.58,3.58,0,0,1-1.09-.37,1.91,1.91,0,0,1-.7-.61,1.58,1.58,0,0,1,0-1.64,1.89,1.89,0,0,1,.7-.6,3.58,3.58,0,0,1,1.09-.37A7.2,7.2,0,0,1,459.41,197.41Zm0-5.87a4.43,4.43,0,0,0-1.92.34,1,1,0,0,0,0,1.88,5.59,5.59,0,0,0,3.84,0,1,1,0,0,0,0-1.88A4.43,4.43,0,0,0,459.42,191.54Zm0,6.64a4.76,4.76,0,0,0-1.88.3,1,1,0,0,0-.67.86.94.94,0,0,0,.67.85,6,6,0,0,0,3.76,0,.94.94,0,0,0,.67-.85,1,1,0,0,0-.67-.86A4.76,4.76,0,0,0,459.42,198.18Z"/>
  <path class="cls-4" d="M471.31,195.49a9.93,9.93,0,0,1-1,.19c-.34,0-.69.09-1.06.12l-1.21,0c-.44,0-.92,0-1.45,0h-.8V191.2h4.51v.8h-3.57v3.07l1.37,0,1.14-.05c.36,0,.69-.06,1-.11l1-.18Zm1,1.33h.92v4.26h-6.44v-4.26h.92v1.34h4.6Zm0,2.11h-4.6v1.35h4.6Zm2.44-5.1h-1.52v2.4h-.93V190.5h.93V193h1.52Z"/>
  <path class="cls-4" d="M424.12,135.94h-4.79v-4.73h.92v1.56h2.94v-1.56h.93Zm-.93-2.4h-2.94v1.61h2.94Zm4.33,7.13v.77h-6.94V138.8h5.68v-1.06h-5.7V137h6.62v2.55H421.5v1.15Zm-.35-4.25h-.93v-5.61h.93Z"/>
  <path class="cls-4" d="M434.72,131.91a11.55,11.55,0,0,1-.23,2.29,7.52,7.52,0,0,1-2.21,4,9.76,9.76,0,0,1-2.29,1.61l-.51-.78a8.6,8.6,0,0,0,2.32-1.64,6.67,6.67,0,0,0,1.37-2l-3.49.35-.16-.87,3.94-.27a6.19,6.19,0,0,0,.23-.92c0-.31.08-.63.1-1H430v-.8Zm2.95-1.12v10.77h-.94V130.79Z"/>
  <path class="cls-4" d="M447.48,135.94h-4.74v-4.71h.93v1.54h2.89v-1.54h.92Zm-.92-2.4h-2.89v1.61h2.89Zm-1.84,7.12h5.92v.77h-6.85v-2.68h5.54v-1.1h-5.57v-.77h6.5v2.6h-5.54Zm7-7.54v.81h-1.51v2.43h-.94v-5.54h.94v2.3Z"/>
  <path class="cls-4" d="M462.09,135.19v.8H452.8v-.8h6.88a9.94,9.94,0,0,0,.25-1.74c0-.5,0-.95,0-1.36h-6v-.8h6.91v.78c0,.41,0,.87,0,1.36a14,14,0,0,1-.24,1.76ZM460,137h.92v4.45H454V137h.92v1.42h5Zm0,2.19h-5v1.47h5Z"/>
  <path class="cls-4" d="M428.22,92.59h2a4.4,4.4,0,0,1,1.07.11,2.16,2.16,0,0,1,.83.36,1.69,1.69,0,0,1,.53.67,2.33,2.33,0,0,1,.19,1,2.46,2.46,0,0,1-.19,1,2,2,0,0,1-.52.71,2.34,2.34,0,0,1-.82.41,3.74,3.74,0,0,1-1,.14h-1.15v2.91h-.89Zm1.92,3.68a2.16,2.16,0,0,0,1.37-.37,1.44,1.44,0,0,0,.44-1.16,1.27,1.27,0,0,0-.46-1.11,2.59,2.59,0,0,0-1.39-.3h-1v2.94Z"/>
  <path class="cls-4" d="M436.8,100.05a2.65,2.65,0,0,1-1.2-.27,2.55,2.55,0,0,1-.94-.76,3.57,3.57,0,0,1-.61-1.2,5.32,5.32,0,0,1-.22-1.59,5.11,5.11,0,0,1,.22-1.58,3.43,3.43,0,0,1,.61-1.19,2.53,2.53,0,0,1,.94-.75,2.9,2.9,0,0,1,2.4,0,2.53,2.53,0,0,1,.94.75,3.44,3.44,0,0,1,.62,1.19,5.45,5.45,0,0,1,.21,1.58,5.67,5.67,0,0,1-.21,1.59,3.59,3.59,0,0,1-.62,1.2,2.55,2.55,0,0,1-.94.76A2.65,2.65,0,0,1,436.8,100.05Zm0-.81a1.66,1.66,0,0,0,.85-.22,1.89,1.89,0,0,0,.66-.6,3.07,3.07,0,0,0,.42-1,5.22,5.22,0,0,0,.14-1.24,5.16,5.16,0,0,0-.14-1.24,3,3,0,0,0-.42-.94,2,2,0,0,0-.66-.59,1.87,1.87,0,0,0-.85-.2,1.81,1.81,0,0,0-.85.2,1.92,1.92,0,0,0-.65.59,3,3,0,0,0-.42.94,4.68,4.68,0,0,0-.15,1.24,4.73,4.73,0,0,0,.15,1.24,3.07,3.07,0,0,0,.42,1,1.86,1.86,0,0,0,.65.6A1.61,1.61,0,0,0,436.8,99.24Z"/>
  <path class="cls-4" d="M443.21,100.05a3.25,3.25,0,0,1-1.36-.29,3.53,3.53,0,0,1-1.08-.8l.53-.63a2.72,2.72,0,0,0,.88.66,2.25,2.25,0,0,0,1,.25,1.62,1.62,0,0,0,1.08-.33,1.08,1.08,0,0,0,.39-.87,1.14,1.14,0,0,0-.09-.48,1.2,1.2,0,0,0-.25-.34A2,2,0,0,0,444,97l-.45-.23-1-.46A4,4,0,0,1,442,96a2.07,2.07,0,0,1-.46-.38,1.79,1.79,0,0,1-.34-.53,1.9,1.9,0,0,1-.13-.7,1.85,1.85,0,0,1,.17-.78,1.76,1.76,0,0,1,.46-.62,2,2,0,0,1,.69-.41,2.75,2.75,0,0,1,.88-.14,2.76,2.76,0,0,1,2.05.91l-.46.59a2.7,2.7,0,0,0-.72-.51,2.05,2.05,0,0,0-.87-.18,1.4,1.4,0,0,0-.95.29,1.08,1.08,0,0,0-.25,1.25,1.4,1.4,0,0,0,.27.33,2,2,0,0,0,.37.24l.41.19,1,.45a3.09,3.09,0,0,1,.57.31,2,2,0,0,1,.46.4,1.62,1.62,0,0,1,.3.53,2.22,2.22,0,0,1,.11.72,2,2,0,0,1-.17.81,2,2,0,0,1-.47.66,2.19,2.19,0,0,1-.74.45A3.11,3.11,0,0,1,443.21,100.05Z"/>
  <path class="cls-4" d="M448.19,93.37h-2.11v-.78h5.1v.78h-2.11v6.55h-.88Z"/>
  <path class="cls-4" d="M398.74,103.49h.63l-2.84,9.72h-.64Z"/>
  <path class="cls-4" d="M399.63,106.49h.91l1,3.09q.12.39.24.81l.24.79h0c.07-.26.15-.52.24-.79s.16-.55.23-.81l1-3.09h.86l-1.84,5.43h-1Z"/>
  <path class="cls-4" d="M409.46,111.18v.74h-3.77v-.74h1.55V105.9c0-.09,0-.18,0-.25L406,106.84l-.47-.59,1.87-1.7h.7v6.63Z"/>
  <path class="cls-4" d="M413.08,103.49h.62l-2.84,9.72h-.63Z"/>
  <path class="cls-4" d="M416.07,112.05a2.58,2.58,0,0,1-1.06-.22,3.43,3.43,0,0,1-.87-.53l.43-.6a2.82,2.82,0,0,0,.7.46,1.84,1.84,0,0,0,.83.18,1.07,1.07,0,0,0,.76-.25.82.82,0,0,0,.25-.6.61.61,0,0,0-.1-.36,1.15,1.15,0,0,0-.27-.27,2.71,2.71,0,0,0-.38-.22l-.42-.18-.55-.23a2.37,2.37,0,0,1-.5-.32,1.68,1.68,0,0,1-.36-.43,1.2,1.2,0,0,1-.13-.59,1.46,1.46,0,0,1,.12-.6,1.28,1.28,0,0,1,.34-.49,1.63,1.63,0,0,1,.56-.33,2.19,2.19,0,0,1,.75-.12,2.4,2.4,0,0,1,.9.17,2.92,2.92,0,0,1,.71.43l-.42.59a3.36,3.36,0,0,0-.55-.35,1.47,1.47,0,0,0-.64-.13.94.94,0,0,0-.71.23.76.76,0,0,0-.23.55.52.52,0,0,0,.1.33,1,1,0,0,0,.25.25,2.55,2.55,0,0,0,.37.19l.42.17q.28.1.57.24a2.37,2.37,0,0,1,.5.32,1.58,1.58,0,0,1,.37.44,1.42,1.42,0,0,1,.14.65,1.68,1.68,0,0,1-.12.63,1.57,1.57,0,0,1-.36.51,1.81,1.81,0,0,1-.59.35A2.55,2.55,0,0,1,416.07,112.05Z"/>
  <path class="cls-4" d="M420.67,112.05a1.37,1.37,0,0,1-1.2-.54,2.77,2.77,0,0,1-.37-1.58v-3.44H420v3.33a2.09,2.09,0,0,0,.23,1.11.84.84,0,0,0,.74.34,1.15,1.15,0,0,0,.71-.22,3.26,3.26,0,0,0,.69-.7v-3.86h.86v5.43h-.72l-.07-.85h0a3.63,3.63,0,0,1-.77.71A1.69,1.69,0,0,1,420.67,112.05Z"/>
  <path class="cls-4" d="M427.2,112.05a1.71,1.71,0,0,1-.74-.18,3,3,0,0,1-.73-.52h0l-.07.57h-.7v-8h.87v2.18l0,1a3.49,3.49,0,0,1,.77-.55,1.76,1.76,0,0,1,.84-.22,1.82,1.82,0,0,1,1.54.76,2.68,2.68,0,0,1,.39.87,4.39,4.39,0,0,1,.13,1.13,4.06,4.06,0,0,1-.18,1.25,3,3,0,0,1-.49.92,2.16,2.16,0,0,1-.72.57A1.93,1.93,0,0,1,427.2,112.05Zm-.14-.77a1.18,1.18,0,0,0,.59-.15,1.37,1.37,0,0,0,.47-.43,1.81,1.81,0,0,0,.31-.67,3.2,3.2,0,0,0,.11-.91,4.18,4.18,0,0,0-.07-.82,2,2,0,0,0-.24-.63,1.18,1.18,0,0,0-.42-.41,1.37,1.37,0,0,0-1.3,0,2.85,2.85,0,0,0-.71.56v2.84a2,2,0,0,0,.67.44A1.58,1.58,0,0,0,427.06,111.28Z"/>
  <path class="cls-4" d="M432.15,112.05a2.5,2.5,0,0,1-1-.22,3.32,3.32,0,0,1-.88-.53l.43-.6a3,3,0,0,0,.7.46,1.84,1.84,0,0,0,.83.18,1.1,1.1,0,0,0,.77-.25.86.86,0,0,0,.25-.6.61.61,0,0,0-.11-.36,1.15,1.15,0,0,0-.27-.27,2.71,2.71,0,0,0-.38-.22l-.42-.18-.55-.23a2.3,2.3,0,0,1-.49-.32,1.36,1.36,0,0,1-.36-.43,1.2,1.2,0,0,1-.14-.59,1.46,1.46,0,0,1,.12-.6,1.3,1.3,0,0,1,.35-.49,1.54,1.54,0,0,1,.56-.33,2.19,2.19,0,0,1,.75-.12,2.35,2.35,0,0,1,.89.17,2.92,2.92,0,0,1,.71.43l-.42.59a3.36,3.36,0,0,0-.55-.35,1.45,1.45,0,0,0-.63-.13,1,1,0,0,0-.72.23.75.75,0,0,0-.22.55.58.58,0,0,0,.09.33,1,1,0,0,0,.26.25,3,3,0,0,0,.36.19l.43.17c.19.07.37.15.56.24a2,2,0,0,1,.5.32,1.43,1.43,0,0,1,.37.44,1.3,1.3,0,0,1,.14.65,1.68,1.68,0,0,1-.12.63,1.32,1.32,0,0,1-.36.51,1.81,1.81,0,0,1-.59.35A2.46,2.46,0,0,1,432.15,112.05Z"/>
  <path class="cls-4" d="M437.28,112.05a2.48,2.48,0,0,1-.95-.19,2.12,2.12,0,0,1-.77-.56,2.5,2.5,0,0,1-.51-.89,3.82,3.82,0,0,1,0-2.41,2.68,2.68,0,0,1,.55-.9,2.16,2.16,0,0,1,.79-.56,2.37,2.37,0,0,1,1-.19,1.8,1.8,0,0,1,.87.19,2.75,2.75,0,0,1,.64.46l-.45.61a2.18,2.18,0,0,0-.47-.36,1.16,1.16,0,0,0-.56-.13,1.41,1.41,0,0,0-.65.15,1.57,1.57,0,0,0-.51.42,2.21,2.21,0,0,0-.33.67,2.53,2.53,0,0,0-.13.85,2.86,2.86,0,0,0,.12.85,1.88,1.88,0,0,0,.32.65,1.57,1.57,0,0,0,.51.42,1.38,1.38,0,0,0,.65.15,1.34,1.34,0,0,0,.66-.16,2.15,2.15,0,0,0,.55-.38l.37.61a2.55,2.55,0,0,1-.77.52A2.25,2.25,0,0,1,437.28,112.05Z"/>
  <path class="cls-4" d="M440.08,106.49h.72l.07,1h0a2.64,2.64,0,0,1,.65-.83,1.27,1.27,0,0,1,.81-.3l.3,0a.93.93,0,0,1,.26.1l-.17.8a.84.84,0,0,0-.23-.07,1.24,1.24,0,0,0-.61,0,1.57,1.57,0,0,0-.34.21,1.9,1.9,0,0,0-.34.39,2.71,2.71,0,0,0-.28.59v3.49h-.87Z"/>
  <path class="cls-4" d="M444.21,105.37a.6.6,0,0,1-.43-.17.57.57,0,0,1-.17-.42.59.59,0,0,1,.17-.44.63.63,0,0,1,.43-.15.64.64,0,0,1,.43.15.59.59,0,0,1,.17.44.57.57,0,0,1-.17.42A.61.61,0,0,1,444.21,105.37Zm-.44,1.12h.87v5.43h-.87Z"/>
  <path class="cls-4" d="M448.65,112.05a1.71,1.71,0,0,1-.74-.18,3,3,0,0,1-.73-.52h0l-.07.57h-.7v-8h.87v2.18l0,1a3.49,3.49,0,0,1,.77-.55,1.76,1.76,0,0,1,.84-.22,1.8,1.8,0,0,1,.89.2,1.84,1.84,0,0,1,.65.56,2.68,2.68,0,0,1,.39.87,4.39,4.39,0,0,1,.13,1.13,4.06,4.06,0,0,1-.18,1.25,3,3,0,0,1-.49.92,2.16,2.16,0,0,1-.72.57A1.93,1.93,0,0,1,448.65,112.05Zm-.14-.77a1.18,1.18,0,0,0,.59-.15,1.28,1.28,0,0,0,.47-.43,1.81,1.81,0,0,0,.31-.67,3.2,3.2,0,0,0,.11-.91,4.18,4.18,0,0,0-.07-.82,2,2,0,0,0-.24-.63,1.18,1.18,0,0,0-.42-.41,1.37,1.37,0,0,0-1.3,0,2.85,2.85,0,0,0-.71.56v2.84a2.08,2.08,0,0,0,.67.44A1.58,1.58,0,0,0,448.51,111.28Z"/>
  <path class="cls-4" d="M454.33,112.05a2.57,2.57,0,0,1-1-.19,2.16,2.16,0,0,1-.78-.56,2.54,2.54,0,0,1-.53-.89,3.51,3.51,0,0,1-.2-1.2,3.41,3.41,0,0,1,.2-1.19,2.63,2.63,0,0,1,.52-.9,2.08,2.08,0,0,1,.75-.57,1.91,1.91,0,0,1,.87-.2,2,2,0,0,1,.87.18,1.8,1.8,0,0,1,.65.51,2.67,2.67,0,0,1,.4.81,3.77,3.77,0,0,1,.13,1.05,2.53,2.53,0,0,1,0,.28,1.66,1.66,0,0,1,0,.24h-3.49a2.14,2.14,0,0,0,.51,1.38,1.52,1.52,0,0,0,1.2.51,1.92,1.92,0,0,0,.69-.12,2.44,2.44,0,0,0,.6-.31l.31.6a3.42,3.42,0,0,1-.76.4A2.52,2.52,0,0,1,454.33,112.05Zm1.15-3.27a2,2,0,0,0-.33-1.26,1.13,1.13,0,0,0-.95-.43,1.4,1.4,0,0,0-.53.11,1.73,1.73,0,0,0-.45.33,2,2,0,0,0-.33.53,2.24,2.24,0,0,0-.17.72Z"/>
  <path class="cls-4" d="M459.6,103.49h.62l-2.84,9.72h-.63Z"/>
  <path class="cls-4" d="M461.24,106.49H462l.08,1h0a2.64,2.64,0,0,1,.65-.83,1.27,1.27,0,0,1,.81-.3l.3,0a.87.87,0,0,1,.25.1l-.16.8a.9.9,0,0,0-.24-.07,1,1,0,0,0-.26,0,1.06,1.06,0,0,0-.34.06,1.62,1.62,0,0,0-.35.21,2.24,2.24,0,0,0-.33.39,2.7,2.7,0,0,0-.29.59v3.49h-.86Z"/>
  <path class="cls-4" d="M467,112.05a2.58,2.58,0,0,1-1-.19,2.16,2.16,0,0,1-.78-.56,2.7,2.7,0,0,1-.53-.89,3.51,3.51,0,0,1-.19-1.2,3.42,3.42,0,0,1,.19-1.19,2.8,2.8,0,0,1,.52-.9,2.27,2.27,0,0,1,.75-.57,1.91,1.91,0,0,1,.87-.2,2.07,2.07,0,0,1,.88.18,1.86,1.86,0,0,1,.64.51,2.46,2.46,0,0,1,.4.81,3.76,3.76,0,0,1,.14,1.05c0,.1,0,.19,0,.28s0,.17,0,.24H465.4a2.14,2.14,0,0,0,.51,1.38,1.55,1.55,0,0,0,1.2.51,2,2,0,0,0,.7-.12,2.57,2.57,0,0,0,.59-.31l.32.6a3.65,3.65,0,0,1-.76.4A2.59,2.59,0,0,1,467,112.05Zm1.15-3.27a2,2,0,0,0-.34-1.26,1.13,1.13,0,0,0-.95-.43,1.31,1.31,0,0,0-.52.11,1.62,1.62,0,0,0-.46.33,2,2,0,0,0-.33.53,2.93,2.93,0,0,0-.17.72Z"/>
  <path class="cls-4" d="M471.92,114.42a3.33,3.33,0,0,1-.86-.1,1.91,1.91,0,0,1-.68-.28,1.35,1.35,0,0,1-.43-.46,1.22,1.22,0,0,1,.05-1.29,2.2,2.2,0,0,1,.57-.57v0a1,1,0,0,1-.34-.35,1,1,0,0,1-.14-.54,1.07,1.07,0,0,1,.19-.6,2.21,2.21,0,0,1,.39-.41v0a2.05,2.05,0,0,1-.46-.59,1.74,1.74,0,0,1-.21-.86,1.92,1.92,0,0,1,.16-.81,1.75,1.75,0,0,1,.42-.61,1.81,1.81,0,0,1,.62-.39,2,2,0,0,1,.74-.13,1.7,1.7,0,0,1,.4,0,2,2,0,0,1,.32.1h1.79v.71h-1.05a1.41,1.41,0,0,1,.3.48,1.81,1.81,0,0,1,.11.63,2,2,0,0,1-.15.79,1.75,1.75,0,0,1-1,1,2.15,2.15,0,0,1-.73.13,1.68,1.68,0,0,1-.76-.19,1.2,1.2,0,0,0-.24.27.7.7,0,0,0-.09.37.51.51,0,0,0,.19.42,1.09,1.09,0,0,0,.71.17h1a2.36,2.36,0,0,1,1.35.31,1.12,1.12,0,0,1,.44,1,1.48,1.48,0,0,1-.18.72,1.86,1.86,0,0,1-.52.61,2.74,2.74,0,0,1-.82.41A3.61,3.61,0,0,1,471.92,114.42Zm.13-.62a2,2,0,0,0,.67-.1,1.57,1.57,0,0,0,.52-.25,1.13,1.13,0,0,0,.33-.36.78.78,0,0,0,.12-.41.55.55,0,0,0-.27-.53,1.78,1.78,0,0,0-.78-.14h-.89l-.32,0-.34-.07a1.47,1.47,0,0,0-.4.44,1,1,0,0,0-.13.48.81.81,0,0,0,.39.7A2,2,0,0,0,472.05,113.8Zm-.12-4.22a1,1,0,0,0,.76-.35,1.38,1.38,0,0,0,.24-.41,1.44,1.44,0,0,0,.09-.53,1.34,1.34,0,0,0-.32-.94,1.08,1.08,0,0,0-1.55,0,1.29,1.29,0,0,0-.32.94,1.44,1.44,0,0,0,.09.53,1.62,1.62,0,0,0,.23.41,1.1,1.1,0,0,0,.35.26A1,1,0,0,0,471.93,109.58Z"/>
  <path class="cls-4" d="M476,105.37a.58.58,0,0,1-.43-.17.54.54,0,0,1-.17-.42.55.55,0,0,1,.17-.44.61.61,0,0,1,.43-.15.62.62,0,0,1,.42.15.55.55,0,0,1,.17.44.54.54,0,0,1-.17.42A.59.59,0,0,1,476,105.37Zm-.44,1.12h.86v5.43h-.86Z"/>
  <path class="cls-4" d="M479.5,112.05a2.58,2.58,0,0,1-1.06-.22,3.43,3.43,0,0,1-.87-.53l.43-.6a2.82,2.82,0,0,0,.7.46,1.84,1.84,0,0,0,.83.18,1.07,1.07,0,0,0,.76-.25.82.82,0,0,0,.25-.6.61.61,0,0,0-.1-.36,1.15,1.15,0,0,0-.27-.27,2.71,2.71,0,0,0-.38-.22l-.42-.18-.55-.23a2.07,2.07,0,0,1-.49-.32,1.36,1.36,0,0,1-.36-.43,1.1,1.1,0,0,1-.14-.59,1.46,1.46,0,0,1,.12-.6,1.28,1.28,0,0,1,.34-.49,1.63,1.63,0,0,1,.56-.33,2.19,2.19,0,0,1,.75-.12,2.4,2.4,0,0,1,.9.17,2.92,2.92,0,0,1,.71.43l-.42.59a3.06,3.06,0,0,0-.56-.35,1.39,1.39,0,0,0-.63-.13.94.94,0,0,0-.71.23.76.76,0,0,0-.23.55.52.52,0,0,0,.1.33,1,1,0,0,0,.25.25,2.55,2.55,0,0,0,.37.19l.42.17q.29.1.57.24a2.14,2.14,0,0,1,.5.32,1.58,1.58,0,0,1,.37.44,1.42,1.42,0,0,1,.14.65,1.68,1.68,0,0,1-.12.63,1.46,1.46,0,0,1-.37.51,1.66,1.66,0,0,1-.58.35A2.55,2.55,0,0,1,479.5,112.05Z"/>
  <path class="cls-4" d="M484,112.05a1.78,1.78,0,0,1-.7-.13,1.24,1.24,0,0,1-.45-.37,1.67,1.67,0,0,1-.25-.57,3.38,3.38,0,0,1-.07-.74v-3h-.77v-.69l.81-.05.1-1.52h.72v1.52h1.4v.74h-1.4v3a1.5,1.5,0,0,0,.17.78.7.7,0,0,0,.63.27,1.17,1.17,0,0,0,.3,0l.29-.09.17.68-.46.14A2.12,2.12,0,0,1,484,112.05Z"/>
  <polygon class="cls-7" points="344.75 129.23 344.75 114.83 356.75 122.03 344.75 129.23"/>
  <polygon class="cls-7" points="356.75 174.47 356.75 188.88 344.75 181.68 356.75 174.47"/>
  <path class="cls-4" d="M579.79,147.29v.8h-9.25v-.8Zm-.88-.85a6.62,6.62,0,0,1-1.16-.31,6,6,0,0,1-1-.51,4.7,4.7,0,0,1-.89-.69,3.9,3.9,0,0,1-.64-.84,3.41,3.41,0,0,1-.63.85,5.5,5.5,0,0,1-.89.68,5.77,5.77,0,0,1-1.06.51,6.86,6.86,0,0,1-1.16.31l-.34-.77a5.73,5.73,0,0,0,1.33-.37,4.87,4.87,0,0,0,1.15-.63,3.24,3.24,0,0,0,.81-.85,1.79,1.79,0,0,0,.31-1v-.48h1v.48a1.73,1.73,0,0,0,.31,1,3.4,3.4,0,0,0,.81.85,5.12,5.12,0,0,0,1.15.65,6.27,6.27,0,0,0,1.33.37Zm-3.75,2.64a5.44,5.44,0,0,1,2.56.49,1.54,1.54,0,0,1,.93,1.42,1.45,1.45,0,0,1-.24.83,2.05,2.05,0,0,1-.69.6,3.76,3.76,0,0,1-1.09.37,7.24,7.24,0,0,1-1.47.13,5.53,5.53,0,0,1-2.57-.5,1.56,1.56,0,0,1-.93-1.43,1.43,1.43,0,0,1,.24-.81,1.86,1.86,0,0,1,.69-.6,3.8,3.8,0,0,1,1.11-.38A8.06,8.06,0,0,1,575.16,149.08Zm0,3.07a4.9,4.9,0,0,0,1.88-.29.94.94,0,0,0,.67-.86.93.93,0,0,0-.67-.85,4.69,4.69,0,0,0-1.88-.3,4.78,4.78,0,0,0-1.89.3c-.45.2-.68.48-.68.85a1,1,0,0,0,.68.86A5,5,0,0,0,575.16,152.15Z"/>
  <path class="cls-4" d="M586.61,145.55a2.65,2.65,0,0,1-.2,1.07,2.5,2.5,0,0,1-.57.84,2.62,2.62,0,0,1-.85.56,3.05,3.05,0,0,1-2.12,0,2.69,2.69,0,0,1-.84-.56,2.34,2.34,0,0,1-.56-.84,2.94,2.94,0,0,1,0-2.13,2.34,2.34,0,0,1,.56-.84,2.5,2.5,0,0,1,.84-.55,3.05,3.05,0,0,1,2.12,0,2.45,2.45,0,0,1,.85.55,2.5,2.5,0,0,1,.57.84A2.63,2.63,0,0,1,586.61,145.55Zm-4.42,0a1.93,1.93,0,0,0,.13.73,1.65,1.65,0,0,0,.37.58,1.53,1.53,0,0,0,.55.37,1.73,1.73,0,0,0,.69.13,1.82,1.82,0,0,0,.7-.13,1.76,1.76,0,0,0,.56-.37,1.65,1.65,0,0,0,.37-.58,1.93,1.93,0,0,0,.13-.73,1.88,1.88,0,0,0-.13-.72,1.66,1.66,0,0,0-.37-.56,1.79,1.79,0,0,0-.56-.38,2,2,0,0,0-.7-.13,1.93,1.93,0,0,0-.69.13,1.55,1.55,0,0,0-.55.38,1.66,1.66,0,0,0-.37.56A1.88,1.88,0,0,0,582.19,145.55Zm7.54,6.32v.81h-6.89v-3.46h.94v2.65Zm-.31-1.84h-.94v-7.86h.94Z"/>
  <path class="cls-4" d="M574.07,160a4.54,4.54,0,0,0,.2,1.32,5.61,5.61,0,0,0,.55,1.22,4.7,4.7,0,0,0,.83,1,3.82,3.82,0,0,0,1.05.71l-.52.76a4.58,4.58,0,0,1-1.55-1.25,5.68,5.68,0,0,1-1-1.9,5.92,5.92,0,0,1-1,2,4.53,4.53,0,0,1-1.54,1.34l-.53-.75a4.7,4.7,0,0,0,1-.76,5.12,5.12,0,0,0,.83-1.06,5.44,5.44,0,0,0,.54-1.26,4.94,4.94,0,0,0,.19-1.38v-.82h-2.31v-.8h2.3v-1.66h.93v1.66h2.27v.8h-2.27Zm4.9-3.49v10.8H578v-5.66h-2.21v-.81H578v-4.33Z"/>
  <path class="cls-4" d="M582.56,163.92c.41,0,.82,0,1.23,0l1.21-.06q.6,0,1.23-.12l1.3-.18.09.8c-.47.07-.91.14-1.34.19l-1.27.12-1.26.06-1.28,0h-.85V160.6h3.76v-2.25h-3.79v-.8h4.73v3.85h-3.76Zm6.86-7.38v10.79h-.94V156.54Z"/>
  <path class="cls-2" d="M531.88,122a30,30,0,0,1,0,60"/>
  <polygon class="cls-8" points="525.79 129.23 525.79 114.83 537.79 122.03 525.79 129.23"/>
  <polygon class="cls-8" points="537.79 175.12 537.79 189.52 525.79 182.32 537.79 175.12"/>
</svg>