<?xml version="1.0" encoding="utf-8"?>
<svg id="_迹_1" data-name="卵迹_1" viewBox="69.909 18.88 560.293 324.391" xmlns="http://www.w3.org/2000/svg">
  <defs>
    <style>.cls-1{fill:#f7f7f7;}.cls-2{fill:#767676;}.cls-3,.cls-7,.cls-9{fill:none;}.cls-3,.cls-7{stroke:#9e9e9e;}.cls-3,.cls-7,.cls-8,.cls-9{stroke-miterlimit:10;}.cls-4{fill:#233976;}.cls-5{fill:#9e9e9e;}.cls-6{fill:#0f7c48;}.cls-7{stroke-dasharray:4;}.cls-8{fill:#f6f6f6;opacity:0.4;}.cls-8,.cls-9{stroke:#4064c3;stroke-width:2px;}.cls-10{fill:#c1411a;}</style>
  </defs>
  <title>비대면 플랫폼 웹메뉴얼_outline</title>
  <rect class="cls-1" x="155.87" y="64.82" width="30" height="255" rx="15"/>
  <rect class="cls-1" x="335.48" y="64.82" width="30" height="255" rx="15"/>
  <rect class="cls-1" x="516.79" y="64.82" width="30" height="255" rx="15"/>
  <path d="M331.08,44.47A5.6,5.6,0,0,1,327,42.72l.88-1a5.06,5.06,0,0,0,1.49,1.06,4.18,4.18,0,0,0,1.76.39,2.83,2.83,0,0,0,1.81-.53,1.68,1.68,0,0,0,.66-1.39,1.61,1.61,0,0,0-.16-.76A1.68,1.68,0,0,0,333,40a2.78,2.78,0,0,0-.62-.41l-.77-.37-1.69-.74a5,5,0,0,1-.83-.42,3.45,3.45,0,0,1-.77-.61,2.71,2.71,0,0,1-.57-.84,3,3,0,0,1,.06-2.38,3.11,3.11,0,0,1,.77-1,3.5,3.5,0,0,1,1.17-.65,4.42,4.42,0,0,1,1.48-.23,4.61,4.61,0,0,1,1.94.4,4.74,4.74,0,0,1,1.52,1l-.79,1a4.38,4.38,0,0,0-1.2-.81,3.51,3.51,0,0,0-1.47-.3,2.52,2.52,0,0,0-1.6.47,1.53,1.53,0,0,0-.59,1.26,1.56,1.56,0,0,0,.17.74,2.08,2.08,0,0,0,.45.53,3.19,3.19,0,0,0,.63.38l.68.3,1.68.72a7.86,7.86,0,0,1,1,.5,3.35,3.35,0,0,1,.76.64,2.81,2.81,0,0,1,.52.85,3.35,3.35,0,0,1,.18,1.15,3,3,0,0,1-.28,1.3A3.27,3.27,0,0,1,334,43.5a3.67,3.67,0,0,1-1.26.71A5.05,5.05,0,0,1,331.08,44.47Z" style="fill: rgb(118, 118, 118);"/>
  <path d="M340.74,44.47a4.14,4.14,0,0,1-1.62-.31,3.73,3.73,0,0,1-1.32-.88,4.18,4.18,0,0,1-.89-1.44,5.69,5.69,0,0,1,0-3.82,4.47,4.47,0,0,1,.87-1.44,3.73,3.73,0,0,1,1.26-.91,3.48,3.48,0,0,1,1.47-.32,3.42,3.42,0,0,1,1.47.29,2.94,2.94,0,0,1,1.09.82,3.94,3.94,0,0,1,.67,1.29,5.83,5.83,0,0,1,.23,1.68c0,.16,0,.31,0,.45s0,.27,0,.38H338a3.33,3.33,0,0,0,.85,2.21,2.68,2.68,0,0,0,2,.81,3.57,3.57,0,0,0,1.16-.18,4.32,4.32,0,0,0,1-.5l.53,1a6.65,6.65,0,0,1-1.28.64A4.44,4.44,0,0,1,340.74,44.47Zm1.94-5.23a3.1,3.1,0,0,0-.57-2,2,2,0,0,0-1.59-.69,2.09,2.09,0,0,0-.89.19,2.19,2.19,0,0,0-.76.52,2.86,2.86,0,0,0-.56.85,3.66,3.66,0,0,0-.29,1.15Z" style="fill: rgb(118, 118, 118);"/>
  <path d="M346.1,35.57h1.2l.13,1.59h.05a4,4,0,0,1,1.09-1.32,2.17,2.17,0,0,1,1.37-.49,2.47,2.47,0,0,1,.5,0,1.16,1.16,0,0,1,.43.15l-.27,1.28a3.11,3.11,0,0,0-.4-.11,2.81,2.81,0,0,0-.45,0,1.71,1.71,0,0,0-.57.1,1.83,1.83,0,0,0-.58.34,2.57,2.57,0,0,0-.56.61,3.52,3.52,0,0,0-.48,1v5.58H346.1Z" style="fill: rgb(118, 118, 118);"/>
  <path d="M351.51,35.57H353l1.63,4.94c.14.43.27.86.41,1.3s.27.86.4,1.27h.07l.4-1.27c.14-.44.27-.87.4-1.3L358,35.57h1.44l-3.09,8.69h-1.7Z" style="fill: rgb(118, 118, 118);"/>
  <path d="M364.61,44.47a4.14,4.14,0,0,1-1.62-.31,3.73,3.73,0,0,1-1.32-.88,4.18,4.18,0,0,1-.89-1.44,5.69,5.69,0,0,1,0-3.82,4.47,4.47,0,0,1,.87-1.44,3.83,3.83,0,0,1,1.26-.91,3.48,3.48,0,0,1,1.47-.32,3.38,3.38,0,0,1,1.47.29,2.94,2.94,0,0,1,1.09.82,3.94,3.94,0,0,1,.67,1.29,5.51,5.51,0,0,1,.23,1.68c0,.16,0,.31,0,.45a3.22,3.22,0,0,1-.05.38h-5.87a3.33,3.33,0,0,0,.85,2.21,2.68,2.68,0,0,0,2,.81A3.57,3.57,0,0,0,366,43.1a4.32,4.32,0,0,0,1-.5l.53,1a6.65,6.65,0,0,1-1.28.64A4.44,4.44,0,0,1,364.61,44.47Zm1.94-5.23a3.1,3.1,0,0,0-.57-2,2,2,0,0,0-1.59-.69,2.09,2.09,0,0,0-.89.19,2.29,2.29,0,0,0-.76.52,2.86,2.86,0,0,0-.56.85,3.66,3.66,0,0,0-.29,1.15Z" style="fill: rgb(118, 118, 118);"/>
  <path d="M370,35.57h1.2l.13,1.59h.05a4.14,4.14,0,0,1,1.09-1.32,2.17,2.17,0,0,1,1.37-.49,2.47,2.47,0,0,1,.5,0,1.16,1.16,0,0,1,.43.15l-.27,1.28a3.11,3.11,0,0,0-.4-.11,2.81,2.81,0,0,0-.45,0,1.71,1.71,0,0,0-.57.1,1.83,1.83,0,0,0-.58.34,2.57,2.57,0,0,0-.56.61,3.83,3.83,0,0,0-.48,1v5.58H370Z" style="fill: rgb(118, 118, 118);"/>
  <path d="M503.59,32.53h1.53l4.28,7.39,1.24,2.42h.08c0-.6-.08-1.21-.12-1.85s-.07-1.25-.07-1.86v-6.1h1.41V44.26h-1.52l-4.27-7.4-1.27-2.41h-.06c0,.6.07,1.2.11,1.81s.07,1.23.07,1.85v6.15h-1.41Z" style="fill: rgb(118, 118, 118);"/>
  <path d="M515.75,33.78a1,1,0,0,1-.72-.26.91.91,0,0,1-.29-.68.88.88,0,0,1,.29-.7,1.16,1.16,0,0,1,1.44,0,.88.88,0,0,1,.29.7.91.91,0,0,1-.29.68A1,1,0,0,1,515.75,33.78ZM515,35.57h1.46v8.69H515Z" style="fill: rgb(118, 118, 118);"/>
  <path d="M522.84,44.47a4.05,4.05,0,0,1-1.61-.31,3.74,3.74,0,0,1-1.3-.88,4.17,4.17,0,0,1-.86-1.43,5.47,5.47,0,0,1-.31-1.93A5.07,5.07,0,0,1,519.1,38a4.4,4.4,0,0,1,.92-1.44,3.69,3.69,0,0,1,1.34-.9,4.24,4.24,0,0,1,1.59-.3,3.19,3.19,0,0,1,1.47.31,4.77,4.77,0,0,1,1.07.72l-.75,1a3.74,3.74,0,0,0-.8-.56,2,2,0,0,0-.94-.22,2.45,2.45,0,0,0-1.09.24,2.57,2.57,0,0,0-.86.68,3.47,3.47,0,0,0-.57,1.06,4.84,4.84,0,0,0,0,2.72,3.08,3.08,0,0,0,.55,1,2.63,2.63,0,0,0,.85.67,2.42,2.42,0,0,0,1.09.24,2.59,2.59,0,0,0,1.12-.25,4,4,0,0,0,.93-.62l.63,1a4.36,4.36,0,0,1-1.3.83A4,4,0,0,1,522.84,44.47Z" style="fill: rgb(118, 118, 118);"/>
  <path d="M530.68,44.47a4.22,4.22,0,0,1-1.63-.31,3.82,3.82,0,0,1-1.32-.88,4.34,4.34,0,0,1-.89-1.44,5.86,5.86,0,0,1,0-3.82,4.32,4.32,0,0,1,.88-1.44,3.63,3.63,0,0,1,1.26-.91,3.41,3.41,0,0,1,1.46-.32,3.46,3.46,0,0,1,1.48.29,2.83,2.83,0,0,1,1.08.82,3.78,3.78,0,0,1,.68,1.29,5.83,5.83,0,0,1,.23,1.68c0,.16,0,.31,0,.45a3.22,3.22,0,0,1,0,.38H528a3.33,3.33,0,0,0,.86,2.21,2.67,2.67,0,0,0,2,.81A3.59,3.59,0,0,0,532,43.1a4.52,4.52,0,0,0,1-.5l.53,1a7,7,0,0,1-1.28.64A4.47,4.47,0,0,1,530.68,44.47Zm1.93-5.23a3.1,3.1,0,0,0-.57-2,1.94,1.94,0,0,0-1.59-.69,2.13,2.13,0,0,0-.89.19,2.4,2.4,0,0,0-.76.52,3.06,3.06,0,0,0-.56.85,3.66,3.66,0,0,0-.28,1.15Z" style="fill: rgb(118, 118, 118);"/>
  <path d="M536,35.57h1.2l.12,1h0a7.61,7.61,0,0,1,1.3-.84,3.08,3.08,0,0,1,1.47-.37,3.22,3.22,0,0,1,1.48.32,3.13,3.13,0,0,1,1.09.89,4.13,4.13,0,0,1,.66,1.4,6.81,6.81,0,0,1,.23,1.82,5.81,5.81,0,0,1-.32,2,4.37,4.37,0,0,1-.83,1.47,3.64,3.64,0,0,1-1.2.92,3.5,3.5,0,0,1-1.43.31,2.94,2.94,0,0,1-1.2-.27,5.18,5.18,0,0,1-1.2-.75l0,1.52v3H536Zm3.58,7.67a2.11,2.11,0,0,0,1-.24,2.43,2.43,0,0,0,.79-.68,3,3,0,0,0,.52-1.08,5.36,5.36,0,0,0,.19-1.45,6.53,6.53,0,0,0-.13-1.31,3.18,3.18,0,0,0-.4-1,1.87,1.87,0,0,0-.71-.66,2.23,2.23,0,0,0-1-.23,2.39,2.39,0,0,0-1.13.3,6.17,6.17,0,0,0-1.21.9v4.55a4,4,0,0,0,1.15.71A3,3,0,0,0,539.62,43.24Z" style="fill: rgb(118, 118, 118);"/>
  <path d="M547.68,44.47a2.7,2.7,0,0,1-1-.18,2.26,2.26,0,0,1-.8-.5,2.33,2.33,0,0,1-.53-.8,2.74,2.74,0,0,1-.19-1.06,2.5,2.5,0,0,1,1.38-2.4,8.82,8.82,0,0,1,4-.76,4.47,4.47,0,0,0-.08-.82,2,2,0,0,0-.28-.7,1.54,1.54,0,0,0-.55-.49,1.94,1.94,0,0,0-.88-.18,4.24,4.24,0,0,0-1.47.25,4.79,4.79,0,0,0-1.22.6l-.58-1a8.49,8.49,0,0,1,1.53-.71,6.09,6.09,0,0,1,2-.32,3.37,3.37,0,0,1,1.36.25,2.41,2.41,0,0,1,.93.73,3.29,3.29,0,0,1,.54,1.13,5.51,5.51,0,0,1,.18,1.46v5.34h-1.2l-.13-.94h0a5.91,5.91,0,0,1-1.35.83A3.87,3.87,0,0,1,547.68,44.47Zm.42-1.19a3.16,3.16,0,0,0,1.2-.22,4.49,4.49,0,0,0,1.2-.78V39.7a14.92,14.92,0,0,0-1.91.23,4.05,4.05,0,0,0-1.21.41,1.42,1.42,0,0,0-.62.62,1.87,1.87,0,0,0-.18.85,1.36,1.36,0,0,0,.43,1.11A1.65,1.65,0,0,0,548.1,43.28Z" style="fill: rgb(118, 118, 118);"/>
  <path d="M555.6,48,557,44.18l-3.48-8.61H555l1.77,4.74c.13.37.27.77.41,1.2s.29.83.42,1.23h.08l.37-1.22c.13-.43.25-.83.37-1.21L560,35.57h1.43L557,48Z" style="fill: rgb(118, 118, 118);"/>
  <path d="M122.36,44.47a5,5,0,0,1-2-.41,4.51,4.51,0,0,1-1.62-1.19A5.68,5.68,0,0,1,117.64,41a8,8,0,0,1-.38-2.55,7.76,7.76,0,0,1,.39-2.55,5.8,5.8,0,0,1,1.09-1.92,4.59,4.59,0,0,1,1.65-1.21,5.2,5.2,0,0,1,2.07-.41,4.17,4.17,0,0,1,1,.12,4.29,4.29,0,0,1,.89.33,4.11,4.11,0,0,1,.73.46,4.4,4.4,0,0,1,.59.54l-.8,1a4.1,4.1,0,0,0-1-.81,2.92,2.92,0,0,0-1.35-.31,3.46,3.46,0,0,0-1.52.33,3.2,3.2,0,0,0-1.16,1,4.36,4.36,0,0,0-.76,1.49,7.16,7.16,0,0,0-.26,2,7.34,7.34,0,0,0,.26,2,4.76,4.76,0,0,0,.72,1.52,3.2,3.2,0,0,0,2.67,1.29,3.19,3.19,0,0,0,1.5-.35,5,5,0,0,0,1.22-1l.81.93A5.13,5.13,0,0,1,124.39,44,4.63,4.63,0,0,1,122.36,44.47Z" style="fill: rgb(118, 118, 118);"/>
  <path d="M128,44.26V31.52h1.46V44.26Z" style="fill: rgb(118, 118, 118);"/>
  <path d="M133.12,33.78a1,1,0,0,1-.72-.27,1,1,0,0,1,0-1.37,1,1,0,0,1,.72-.25,1.07,1.07,0,0,1,.72.25,1,1,0,0,1,0,1.37A1,1,0,0,1,133.12,33.78Zm-.74,1.79h1.46v8.69h-1.46Z" style="fill: rgb(118, 118, 118);"/>
  <path d="M140.28,44.47a4.21,4.21,0,0,1-1.62-.31,3.73,3.73,0,0,1-1.32-.88,4.34,4.34,0,0,1-.89-1.44,5.69,5.69,0,0,1,0-3.82,4.32,4.32,0,0,1,.88-1.44,3.69,3.69,0,0,1,1.25-.91,3.72,3.72,0,0,1,2.95,0,2.9,2.9,0,0,1,1.08.82,3.76,3.76,0,0,1,.67,1.29,5.5,5.5,0,0,1,.24,1.68c0,.16,0,.31,0,.45a3.22,3.22,0,0,1-.05.38h-5.87a3.33,3.33,0,0,0,.86,2.21,2.66,2.66,0,0,0,2,.81,3.59,3.59,0,0,0,1.17-.18,4.52,4.52,0,0,0,1-.5l.52,1a6.65,6.65,0,0,1-1.28.64A4.44,4.44,0,0,1,140.28,44.47Zm1.94-5.23a3.1,3.1,0,0,0-.57-2,2,2,0,0,0-1.59-.69,2.09,2.09,0,0,0-.89.19,2.4,2.4,0,0,0-.76.52,3.06,3.06,0,0,0-.56.85,4,4,0,0,0-.29,1.15Z" style="fill: rgb(118, 118, 118);"/>
  <path d="M145.64,35.57h1.2l.13,1.25H147a7.93,7.93,0,0,1,1.32-1,2.91,2.91,0,0,1,1.59-.43,2.37,2.37,0,0,1,2,.86,4.32,4.32,0,0,1,.64,2.55v5.5h-1.46V39a3.13,3.13,0,0,0-.39-1.78,1.45,1.45,0,0,0-1.26-.54,2.26,2.26,0,0,0-1.2.33,8.23,8.23,0,0,0-1.18,1v6.31h-1.46Z" style="fill: rgb(118, 118, 118);"/>
  <path d="M158.16,44.47a2.9,2.9,0,0,1-1.18-.21,1.86,1.86,0,0,1-.76-.58,2.59,2.59,0,0,1-.42-.92,5.38,5.38,0,0,1-.12-1.19V36.76h-1.3V35.65l1.36-.08.17-2.43h1.22v2.43h2.35v1.19h-2.35V41.6a2.26,2.26,0,0,0,.29,1.25,1.17,1.17,0,0,0,1.06.43,1.86,1.86,0,0,0,.49-.07l.5-.15.29,1.09c-.25.08-.51.16-.79.22A3.9,3.9,0,0,1,158.16,44.47Z" style="fill: rgb(118, 118, 118);"/>
  <path d="M165.16,32.53h3.49a7.6,7.6,0,0,1,1.64.16,3.75,3.75,0,0,1,1.27.51,2.42,2.42,0,0,1,.83.88,3,3,0,0,1-.16,2.89,2.31,2.31,0,0,1-1.27,1V38a3.22,3.22,0,0,1,1.72.9,2.62,2.62,0,0,1,.67,1.9,3.26,3.26,0,0,1-.32,1.51,3,3,0,0,1-.92,1.07,3.85,3.85,0,0,1-1.4.64,6.83,6.83,0,0,1-1.8.22h-3.75Zm3.23,5a3.6,3.6,0,0,0,2.18-.51,1.71,1.71,0,0,0,.66-1.41,1.55,1.55,0,0,0-.7-1.46,4.06,4.06,0,0,0-2.07-.42h-1.81v3.8Zm.31,5.56a4.27,4.27,0,0,0,2.36-.56,1.93,1.93,0,0,0,.84-1.75,1.77,1.77,0,0,0-.82-1.61,4.69,4.69,0,0,0-2.38-.5h-2v4.42Z" style="fill: rgb(118, 118, 118);"/>
  <path d="M175.55,35.57h1.2l.12,1.59h0a4.17,4.17,0,0,1,1.1-1.32,2.17,2.17,0,0,1,1.37-.49,2.47,2.47,0,0,1,.5,0,1.12,1.12,0,0,1,.42.15L180,36.82a2.73,2.73,0,0,0-.4-.11,2.64,2.64,0,0,0-.45,0,1.62,1.62,0,0,0-.56.1,1.88,1.88,0,0,0-.59.34,2.8,2.8,0,0,0-.56.61,4.2,4.2,0,0,0-.48,1v5.58h-1.45Z" style="fill: rgb(118, 118, 118);"/>
  <path d="M185.13,44.47a3.84,3.84,0,0,1-1.53-.31,4,4,0,0,1-1.29-.88,4.21,4.21,0,0,1-.88-1.43,5.81,5.81,0,0,1,0-3.86,4.16,4.16,0,0,1,.88-1.44,3.77,3.77,0,0,1,1.29-.9,4.05,4.05,0,0,1,3.06,0,3.77,3.77,0,0,1,1.29.9,4.16,4.16,0,0,1,.88,1.44,5.81,5.81,0,0,1,0,3.86,4.21,4.21,0,0,1-.88,1.43,4,4,0,0,1-1.29.88A3.84,3.84,0,0,1,185.13,44.47Zm0-1.23a2.16,2.16,0,0,0,1-.24,2.45,2.45,0,0,0,.8-.67,3,3,0,0,0,.52-1,4.43,4.43,0,0,0,.19-1.36,4.47,4.47,0,0,0-.19-1.36A3.18,3.18,0,0,0,187,37.5a2.36,2.36,0,0,0-.8-.68,2.16,2.16,0,0,0-1-.24,2.19,2.19,0,0,0-1,.24,2.36,2.36,0,0,0-.8.68,3.87,3.87,0,0,0-.51,1.06,4.81,4.81,0,0,0-.18,1.36,4.76,4.76,0,0,0,.18,1.36,3.67,3.67,0,0,0,.51,1,2.45,2.45,0,0,0,.8.67A2.19,2.19,0,0,0,185.13,43.24Z" style="fill: rgb(118, 118, 118);"/>
  <path d="M190.41,35.57h1.49l1.29,5c.09.41.18.82.26,1.22s.17.8.26,1.21h.08c.09-.41.19-.81.28-1.22s.19-.81.31-1.21l1.34-5h1.43l1.36,5,.3,1.22.3,1.21h.07c.09-.41.19-.81.27-1.21l.27-1.22,1.28-5h1.38L200,44.26h-1.76L197,39.57c-.12-.4-.22-.81-.31-1.21s-.18-.84-.28-1.28h-.08c-.1.44-.19.87-.28,1.28s-.2.83-.32,1.24l-1.21,4.66h-1.71Z" style="fill: rgb(118, 118, 118);"/>
  <path d="M206.55,44.47a4.66,4.66,0,0,1-1.77-.35,5.51,5.51,0,0,1-1.47-.85l.72-1a5.22,5.22,0,0,0,1.17.74,3.3,3.3,0,0,0,1.4.28,1.8,1.8,0,0,0,1.29-.4,1.29,1.29,0,0,0,.42-1,.92.92,0,0,0-.17-.57,1.94,1.94,0,0,0-.46-.44,3.82,3.82,0,0,0-.64-.34l-.71-.3a8,8,0,0,1-.92-.37,3.67,3.67,0,0,1-.83-.5,2.49,2.49,0,0,1-.61-.69,1.88,1.88,0,0,1-.23-.95,2.27,2.27,0,0,1,.78-1.74,2.73,2.73,0,0,1,.95-.53,3.79,3.79,0,0,1,1.26-.19,3.85,3.85,0,0,1,1.5.28,5.3,5.3,0,0,1,1.2.68l-.7.94a5.35,5.35,0,0,0-.94-.55,2.57,2.57,0,0,0-1.06-.22,1.72,1.72,0,0,0-1.2.37,1.17,1.17,0,0,0-.38.88.85.85,0,0,0,.16.54,1.65,1.65,0,0,0,.43.39,3.85,3.85,0,0,0,.61.3l.72.28c.32.12.63.25,1,.39a3.59,3.59,0,0,1,.85.5,2.59,2.59,0,0,1,.61.71,2.09,2.09,0,0,1,.24,1,2.46,2.46,0,0,1-.21,1,2.29,2.29,0,0,1-.6.82,3.09,3.09,0,0,1-1,.55A4,4,0,0,1,206.55,44.47Z" style="fill: rgb(118, 118, 118);"/>
  <path d="M215.27,44.47a4.21,4.21,0,0,1-1.62-.31,3.73,3.73,0,0,1-1.32-.88,4.34,4.34,0,0,1-.89-1.44,5.69,5.69,0,0,1,0-3.82,4.32,4.32,0,0,1,.88-1.44,3.63,3.63,0,0,1,1.26-.91,3.41,3.41,0,0,1,1.46-.32,3.46,3.46,0,0,1,1.48.29,2.9,2.9,0,0,1,1.08.82,3.76,3.76,0,0,1,.67,1.29,5.5,5.5,0,0,1,.24,1.68c0,.16,0,.31,0,.45a3.22,3.22,0,0,1-.05.38h-5.87a3.33,3.33,0,0,0,.86,2.21,2.66,2.66,0,0,0,2,.81,3.59,3.59,0,0,0,1.17-.18,4.52,4.52,0,0,0,1-.5l.52,1a6.65,6.65,0,0,1-1.28.64A4.44,4.44,0,0,1,215.27,44.47Zm1.94-5.23a3.1,3.1,0,0,0-.57-2,2,2,0,0,0-1.59-.69,2.09,2.09,0,0,0-.89.19,2.4,2.4,0,0,0-.76.52,3.06,3.06,0,0,0-.56.85,4,4,0,0,0-.29,1.15Z" style="fill: rgb(118, 118, 118);"/>
  <path d="M220.63,35.57h1.2l.13,1.59h0a4,4,0,0,1,1.1-1.32,2.15,2.15,0,0,1,1.36-.49,2.57,2.57,0,0,1,.51,0,1.18,1.18,0,0,1,.42.15l-.27,1.28a2.73,2.73,0,0,0-.4-.11,2.81,2.81,0,0,0-.45,0,1.71,1.71,0,0,0-.57.1,2,2,0,0,0-.58.34,2.8,2.8,0,0,0-.56.61,4.2,4.2,0,0,0-.48,1v5.58h-1.46Z" style="fill: rgb(118, 118, 118);"/>
  <path class="cls-2" d="M573.16,113.33a2.65,2.65,0,0,1-.21,1.07,2.34,2.34,0,0,1-.56.84,2.54,2.54,0,0,1-.85.55,2.72,2.72,0,0,1-1.07.2,2.59,2.59,0,0,1-1.05-.2,2.45,2.45,0,0,1-.85-.55,2.47,2.47,0,0,1-.56-.84,2.83,2.83,0,0,1-.2-1.07,2.78,2.78,0,0,1,.2-1.06,2.47,2.47,0,0,1,.56-.84,2.45,2.45,0,0,1,.85-.55,2.76,2.76,0,0,1,1.05-.19,2.9,2.9,0,0,1,1.07.19,2.54,2.54,0,0,1,.85.55,2.34,2.34,0,0,1,.56.84A2.61,2.61,0,0,1,573.16,113.33Zm-4.42,0a1.93,1.93,0,0,0,.13.73,1.58,1.58,0,0,0,.36.58,1.69,1.69,0,0,0,1.24.5,1.78,1.78,0,0,0,.7-.13,1.7,1.7,0,0,0,.57-.37,1.72,1.72,0,0,0,.36-.58,1.94,1.94,0,0,0,.14-.73,1.81,1.81,0,0,0-.14-.72,1.68,1.68,0,0,0-.36-.57,1.7,1.7,0,0,0-.57-.37,1.78,1.78,0,0,0-.7-.13,1.69,1.69,0,0,0-1.24.5,1.54,1.54,0,0,0-.36.57A1.81,1.81,0,0,0,568.74,113.33Zm7.53,6.32v.81h-6.88V117h.93v2.65ZM576,117.8H575v-7.86H576Z"/>
  <path class="cls-2" d="M587.31,115.06v.79h-9.25v-.79Zm-8.72-1.44a6.14,6.14,0,0,0,1.3-.29,5.41,5.41,0,0,0,1.11-.51,2.92,2.92,0,0,0,.77-.7,1.51,1.51,0,0,0,.32-.84h-3.17v-.8h7.55v.8h-3.18a1.43,1.43,0,0,0,.31.84,3.14,3.14,0,0,0,.78.7,5.41,5.41,0,0,0,1.11.51,6.14,6.14,0,0,0,1.3.29l-.33.78a8.29,8.29,0,0,1-1.22-.27,5.33,5.33,0,0,1-1.09-.46,4.45,4.45,0,0,1-.87-.64,2.55,2.55,0,0,1-.59-.81,2.59,2.59,0,0,1-.6.81,4.52,4.52,0,0,1-.88.64,5.24,5.24,0,0,1-1.08.46,8.15,8.15,0,0,1-1.21.27Zm4.08,3.16a7.84,7.84,0,0,1,1.46.13,3.55,3.55,0,0,1,1.1.38,1.92,1.92,0,0,1,.7.61,1.56,1.56,0,0,1,0,1.66,1.86,1.86,0,0,1-.7.62,3.83,3.83,0,0,1-1.1.38,7.9,7.9,0,0,1-1.46.12,5.34,5.34,0,0,1-2.56-.5,1.58,1.58,0,0,1-.93-1.45,1.56,1.56,0,0,1,.93-1.44A5.33,5.33,0,0,1,582.67,116.78Zm0,3.14a4.76,4.76,0,0,0,1.89-.31.91.91,0,0,0,0-1.75,4.58,4.58,0,0,0-1.89-.31,4.53,4.53,0,0,0-1.88.31.9.9,0,0,0,0,1.75A4.7,4.7,0,0,0,582.67,119.92Z"/>
  <path class="cls-2" d="M571.11,127.81a4.23,4.23,0,0,0,.2,1.32,5.08,5.08,0,0,0,.54,1.21,4.81,4.81,0,0,0,.83,1,4.05,4.05,0,0,0,1.05.71l-.51.76a4.4,4.4,0,0,1-1.55-1.25,5.8,5.8,0,0,1-1-1.9,6.11,6.11,0,0,1-1,2,4.53,4.53,0,0,1-1.54,1.34l-.53-.76a4.16,4.16,0,0,0,1-.75,5.32,5.32,0,0,0,.83-1.06,5.44,5.44,0,0,0,.54-1.26,5,5,0,0,0,.19-1.38V127h-2.31v-.79h2.3v-1.67h.94v1.67h2.27V127h-2.27Zm4.89-3.49v10.8h-.94v-5.66h-2.21v-.81h2.21v-4.33Z"/>
  <path class="cls-2" d="M579.59,131.7l1.23,0c.4,0,.81,0,1.21-.06l1.23-.12,1.3-.18.09.79c-.46.08-.91.15-1.34.2l-1.27.12-1.25.06h-2.14v-4.12h3.77v-2.25h-3.8v-.8h4.73v3.85h-3.76Zm6.86-7.38v10.79h-.93V124.32Z"/>
  <path class="cls-2" d="M93.33,189.29a4.8,4.8,0,0,1-1.62,2.13,7.74,7.74,0,0,1-2.84,1.27l-.34-.8a6.68,6.68,0,0,0,2.93-1.39,3.31,3.31,0,0,0,1.16-2.21H89.07v-.8h4.57a5.89,5.89,0,0,1-.1,1h2.31V187h.94v5.49h-.94v-1.11H93.18v-.77h2.67v-1.28Zm3.81,7.54v.77H90.23v-2.76h5.63v-1.1H90.21V193h6.58v2.64H91.15v1.24Z"/>
  <path class="cls-2" d="M101.86,190a7.23,7.23,0,0,0,.14,1.4,6.28,6.28,0,0,0,.42,1.29,4.62,4.62,0,0,0,.67,1.09,3.5,3.5,0,0,0,1,.81l-.57.72a4,4,0,0,1-1.28-1.29,6.76,6.76,0,0,1-.78-1.86,6.66,6.66,0,0,1-.8,2,4.22,4.22,0,0,1-1.31,1.4l-.57-.73a3.71,3.71,0,0,0,1-.86,5.16,5.16,0,0,0,.69-1.16,6.45,6.45,0,0,0,.43-1.35A7.19,7.19,0,0,0,101,190v-1H99v-.8h4.66v.8h-1.82Zm2.73-2.79h.89v10h-.89v-5.53h-1.68v-.81h1.68Zm3-.25v10.76h-.9V187Z"/>
  <path class="cls-2" d="M121.15,192.09v.81H111.9v-.81Zm-.88-.85a5.82,5.82,0,0,1-1.16-.3,6,6,0,0,1-1-.51,5,5,0,0,1-.89-.69,3.6,3.6,0,0,1-.63-.85,3.51,3.51,0,0,1-.64.85,5,5,0,0,1-.89.69,6.09,6.09,0,0,1-2.22.81l-.34-.77a6.24,6.24,0,0,0,1.33-.36,4.7,4.7,0,0,0,1.15-.64,3.1,3.1,0,0,0,.81-.85,1.78,1.78,0,0,0,.31-1v-.48h1v.48a1.72,1.72,0,0,0,.31,1,3.24,3.24,0,0,0,.81.85,4.76,4.76,0,0,0,1.15.65,5.73,5.73,0,0,0,1.33.37Zm-3.75,2.64a5.43,5.43,0,0,1,2.56.5,1.53,1.53,0,0,1,.93,1.42,1.44,1.44,0,0,1-.24.82,1.86,1.86,0,0,1-.69.6,3.87,3.87,0,0,1-1.09.38,8.09,8.09,0,0,1-1.47.12,5.41,5.41,0,0,1-2.57-.5,1.55,1.55,0,0,1-.93-1.42,1.44,1.44,0,0,1,.24-.82,2.05,2.05,0,0,1,.69-.6,3.8,3.8,0,0,1,1.11-.37A7.2,7.2,0,0,1,116.52,193.88Zm0,3.07a4.71,4.71,0,0,0,1.88-.29.88.88,0,0,0,0-1.71,4.69,4.69,0,0,0-1.88-.3,4.78,4.78,0,0,0-1.89.3c-.45.2-.68.48-.68.85a.94.94,0,0,0,.68.86A4.8,4.8,0,0,0,116.52,197Z"/>
  <path class="cls-2" d="M128,190.35a2.64,2.64,0,0,1-.78,1.92,2.6,2.6,0,0,1-.85.55,2.91,2.91,0,0,1-2.12,0,2.66,2.66,0,0,1-.84-.55,2.53,2.53,0,0,1-.56-.84,2.7,2.7,0,0,1-.2-1.08,2.67,2.67,0,0,1,.2-1.06,2.53,2.53,0,0,1,.56-.84,2.47,2.47,0,0,1,.84-.54,2.91,2.91,0,0,1,2.12,0,2.42,2.42,0,0,1,.85.54,2.71,2.71,0,0,1,.57.84A2.67,2.67,0,0,1,128,190.35Zm-4.43,0a2.21,2.21,0,0,0,.13.74,1.7,1.7,0,0,0,.37.57,1.41,1.41,0,0,0,.55.37,1.74,1.74,0,0,0,.69.14,1.82,1.82,0,0,0,.7-.14,1.52,1.52,0,0,0,.56-.37,1.7,1.7,0,0,0,.37-.57,2,2,0,0,0,.13-.74,1.88,1.88,0,0,0-.13-.72,1.76,1.76,0,0,0-.37-.56,1.66,1.66,0,0,0-.56-.37,1.82,1.82,0,0,0-.7-.13,1.73,1.73,0,0,0-.69.13,1.53,1.53,0,0,0-.55.37,1.76,1.76,0,0,0-.37.56A2.09,2.09,0,0,0,123.55,190.35Zm7.54,6.33v.8H124.2V194h.94v2.65Zm-.31-1.85h-.94V187h.94Z"/>
  <path class="cls-2" d="M121.18,209.94v.8h-9.29v-.8h2.28V207a2.65,2.65,0,0,1-1-.92,2.4,2.4,0,0,1-.36-1.3,2.29,2.29,0,0,1,.28-1.14,2.52,2.52,0,0,1,.76-.87,3.9,3.9,0,0,1,1.18-.56,5.72,5.72,0,0,1,3,0,3.74,3.74,0,0,1,1.17.56,2.55,2.55,0,0,1,.77.87,2.4,2.4,0,0,1,.27,1.14,2.33,2.33,0,0,1-.35,1.29,2.59,2.59,0,0,1-1,.92v2.92Zm-4.66-7.13a4.56,4.56,0,0,0-1.14.14,2.92,2.92,0,0,0-.89.41,1.94,1.94,0,0,0-.58.63,1.69,1.69,0,0,0,0,1.63,1.94,1.94,0,0,0,.58.63,3.16,3.16,0,0,0,.89.4,4.14,4.14,0,0,0,1.14.14,4,4,0,0,0,1.13-.14,3.1,3.1,0,0,0,.9-.4,1.83,1.83,0,0,0,.58-.63,1.59,1.59,0,0,0,.22-.82,1.61,1.61,0,0,0-.22-.81,1.83,1.83,0,0,0-.58-.63,2.87,2.87,0,0,0-.9-.41A4.43,4.43,0,0,0,116.52,202.81Zm-1.42,7.13H118v-2.55a6.06,6.06,0,0,1-2.85,0Z"/>
  <path class="cls-2" d="M128,207.43a4.56,4.56,0,0,1-1.56-.86,4,4,0,0,1-1-1.37,4.25,4.25,0,0,1-1,1.54,4,4,0,0,1-1.57,1l-.46-.76a4.59,4.59,0,0,0,1-.54,3.66,3.66,0,0,0,.8-.77,3.22,3.22,0,0,0,.52-.94,3.13,3.13,0,0,0,.18-1v-.2h-2.27v-.8h2.27v-1.34h.94v1.34h2.25v.8h-2.25v.2a2.47,2.47,0,0,0,.19,1,3,3,0,0,0,.53.87,3.9,3.9,0,0,0,.8.7,4.49,4.49,0,0,0,1,.48Zm-.59.73a7.66,7.66,0,0,1,1.43.13,3.8,3.8,0,0,1,1.08.39,1.83,1.83,0,0,1,.67.62,1.47,1.47,0,0,1,.24.83,1.53,1.53,0,0,1-.24.84,1.75,1.75,0,0,1-.67.62,3.8,3.8,0,0,1-1.08.39,6.9,6.9,0,0,1-1.43.13A6.77,6.77,0,0,1,126,212a3.73,3.73,0,0,1-1.07-.39,1.78,1.78,0,0,1-.68-.62,1.6,1.6,0,0,1-.23-.84,1.54,1.54,0,0,1,.23-.83,1.87,1.87,0,0,1,.68-.62,3.73,3.73,0,0,1,1.07-.39A7.52,7.52,0,0,1,127.42,208.16Zm0,3.18a4.17,4.17,0,0,0,1.83-.32,1,1,0,0,0,.65-.89,1,1,0,0,0-.65-.88,4.32,4.32,0,0,0-1.83-.32,4.19,4.19,0,0,0-1.81.32,1,1,0,0,0-.65.88,1,1,0,0,0,.65.89A4,4,0,0,0,127.43,211.34Zm2.44-6.91v-3.06h.93v6.52h-.93v-2.66h-2v-.8Z"/>
  <path class="cls-2" d="M230.93,226.82a2.65,2.65,0,0,1-.21,1.07,2.47,2.47,0,0,1-.56.84,2.54,2.54,0,0,1-.85.55,2.72,2.72,0,0,1-1.07.2,2.59,2.59,0,0,1-1.05-.2,2.45,2.45,0,0,1-.85-.55,2.34,2.34,0,0,1-.56-.84,2.83,2.83,0,0,1-.2-1.07,2.78,2.78,0,0,1,.2-1.06,2.34,2.34,0,0,1,.56-.84,2.45,2.45,0,0,1,.85-.55,2.76,2.76,0,0,1,1.05-.19,2.9,2.9,0,0,1,1.07.19,2.54,2.54,0,0,1,.85.55,2.47,2.47,0,0,1,.56.84A2.61,2.61,0,0,1,230.93,226.82Zm-4.43,0a1.94,1.94,0,0,0,.14.73,1.58,1.58,0,0,0,.36.58,1.62,1.62,0,0,0,.55.37,1.73,1.73,0,0,0,.69.13,1.78,1.78,0,0,0,.7-.13,1.57,1.57,0,0,0,.56-.37,1.6,1.6,0,0,0,.37-.58,1.93,1.93,0,0,0,.13-.73,1.81,1.81,0,0,0-.13-.72,1.65,1.65,0,0,0-.93-.94,1.78,1.78,0,0,0-.7-.13,1.73,1.73,0,0,0-.69.13,1.62,1.62,0,0,0-.55.37,1.54,1.54,0,0,0-.36.57A1.81,1.81,0,0,0,226.5,226.82Zm7.54,6.32V234h-6.89v-3.46h.94v2.65Zm-.31-1.85h-.93v-7.86h.93Z"/>
  <path class="cls-2" d="M245.08,228.55v.79h-9.25v-.79Zm-8.73-1.44a6.1,6.1,0,0,0,1.31-.29,5.67,5.67,0,0,0,1.11-.51,2.92,2.92,0,0,0,.77-.7,1.5,1.5,0,0,0,.31-.84h-3.17V224h7.56v.8h-3.18a1.43,1.43,0,0,0,.31.84,3.14,3.14,0,0,0,.78.7,5.18,5.18,0,0,0,1.11.51,6.14,6.14,0,0,0,1.3.29l-.33.78a8.29,8.29,0,0,1-1.22-.27,5.33,5.33,0,0,1-1.09-.46,4.45,4.45,0,0,1-.87-.64,2.55,2.55,0,0,1-.59-.81,2.94,2.94,0,0,1-.6.81,4.85,4.85,0,0,1-.88.64,5.24,5.24,0,0,1-1.08.46,8,8,0,0,1-1.22.27Zm4.09,3.16a7.92,7.92,0,0,1,1.46.13,3.55,3.55,0,0,1,1.1.38,1.92,1.92,0,0,1,.7.61,1.56,1.56,0,0,1,0,1.66,1.86,1.86,0,0,1-.7.62,3.83,3.83,0,0,1-1.1.38,8,8,0,0,1-1.46.12,5.41,5.41,0,0,1-2.57-.5,1.59,1.59,0,0,1-.92-1.45,1.57,1.57,0,0,1,.92-1.44A5.4,5.4,0,0,1,240.44,230.27Zm0,3.14a4.58,4.58,0,0,0,1.89-.31.91.91,0,0,0,0-1.75,4.58,4.58,0,0,0-1.89-.31,4.53,4.53,0,0,0-1.88.31.9.9,0,0,0,0,1.75A4.53,4.53,0,0,0,240.44,233.41Z"/>
  <path class="cls-2" d="M258.11,228.65v.8h-9.24v-.8Zm-4.62-5a6.8,6.8,0,0,1,1.49.14,3.75,3.75,0,0,1,1.13.4,2,2,0,0,1,.72.65,1.6,1.6,0,0,1,0,1.72,2.15,2.15,0,0,1-.72.64,3.75,3.75,0,0,1-1.13.4,8,8,0,0,1-3,0,3.75,3.75,0,0,1-1.13-.4,2,2,0,0,1-.72-.64,1.6,1.6,0,0,1,0-1.72,1.83,1.83,0,0,1,.72-.65,3.75,3.75,0,0,1,1.13-.4A6.86,6.86,0,0,1,253.49,223.7Zm0,6.63a5.49,5.49,0,0,1,2.56.5,1.56,1.56,0,0,1,0,2.86,5.49,5.49,0,0,1-2.56.5,7.92,7.92,0,0,1-1.46-.13,3.84,3.84,0,0,1-1.1-.37,2,2,0,0,1-.69-.61,1.44,1.44,0,0,1-.24-.82,1.41,1.41,0,0,1,.24-.82,2,2,0,0,1,.69-.61,3.84,3.84,0,0,1,1.1-.37A7.92,7.92,0,0,1,253.49,230.33Zm0-5.86a4.6,4.6,0,0,0-1.92.33,1,1,0,0,0,0,1.89,5.78,5.78,0,0,0,3.85,0,1,1,0,0,0,0-1.89A4.62,4.62,0,0,0,253.49,224.47Zm0,6.63a4.48,4.48,0,0,0-1.87.31.88.88,0,0,0,0,1.71,4.67,4.67,0,0,0,1.87.3,4.72,4.72,0,0,0,1.88-.3.88.88,0,0,0,0-1.71A4.53,4.53,0,0,0,253.49,231.1Z"/>
  <path class="cls-2" d="M265.38,228.42c-.35.08-.7.14-1,.19s-.7.08-1.07.11-.77.05-1.21.06l-1.45,0h-.79v-4.67h4.5v.79h-3.57V228h1.37c.41,0,.79,0,1.14-.06s.7-.06,1-.11a9.44,9.44,0,0,0,1-.18Zm1,1.33h.92V234h-6.44v-4.26h.93v1.34h4.59Zm0,2.11h-4.59v1.34h4.59Zm2.44-5.1h-1.52v2.4h-.93v-5.74h.93V226h1.52Z"/>
  <path class="cls-2" d="M281.65,231.92v.8H272.4v-.8H276v-2.8h.94v2.8Zm-2.06-4.85q0-.42,0-.81v-1h-6.11v-.81h7v1c0,.33,0,.67,0,1s0,.74,0,1.14-.07.84-.13,1.31-.15,1-.25,1.53l-.93-.12c.1-.48.18-.93.23-1.35s.1-.82.14-1.19l-6.18.35-.14-.84Z"/>
  <path class="cls-2" d="M292.16,231.93v.8h-9.28v-.8Zm-1.08-2.54h-7v-5H291v.8h-6v3.36h6.09Z"/>
  <path class="cls-2" d="M212.32,247.85a2,2,0,0,1-.83-.15,1.41,1.41,0,0,1-.55-.44,2,2,0,0,1-.29-.68,4.16,4.16,0,0,1-.09-.9v-3.61h-.93v-.83l1-.06.13-1.82h.86v1.82h1.68v.89h-1.68v3.64a1.71,1.71,0,0,0,.21.93.82.82,0,0,0,.75.33,1.12,1.12,0,0,0,.35-.06l.36-.11.2.81a4.1,4.1,0,0,1-.56.17A2.3,2.3,0,0,1,212.32,247.85Z"/>
  <path class="cls-2" d="M215.2,239.84a.73.73,0,0,1-.52-.2.69.69,0,0,1-.2-.51.69.69,0,0,1,.2-.52.73.73,0,0,1,.52-.19.72.72,0,0,1,.51.19.76.76,0,0,1,0,1A.73.73,0,0,1,215.2,239.84Zm-.53,1.34h1v6.52h-1Z"/>
  <path class="cls-2" d="M219.92,247.85a2.45,2.45,0,0,1-1.06-.22,2.42,2.42,0,0,1-.8-.66,3.44,3.44,0,0,1-.52-1.07,5.38,5.38,0,0,1-.18-1.45,4.52,4.52,0,0,1,.22-1.43,3.47,3.47,0,0,1,.59-1.08,2.54,2.54,0,0,1,.85-.69,2.25,2.25,0,0,1,1-.24,2,2,0,0,1,.94.21,4.09,4.09,0,0,1,.81.56l-.06-1.13v-2.5h1v9.55h-.85l-.1-.77h0a3.62,3.62,0,0,1-.85.65A2.06,2.06,0,0,1,219.92,247.85Zm.22-.92a1.6,1.6,0,0,0,.82-.22,3.1,3.1,0,0,0,.77-.68v-3.41a2.93,2.93,0,0,0-.76-.53,1.93,1.93,0,0,0-.75-.15,1.43,1.43,0,0,0-.7.18,1.94,1.94,0,0,0-.57.51,2.52,2.52,0,0,0-.38.79,3.52,3.52,0,0,0-.14,1,3.23,3.23,0,0,0,.45,1.84A1.43,1.43,0,0,0,220.14,246.93Z"/>
  <path class="cls-2" d="M225.32,246.58a12,12,0,0,1,0-6.51,13.26,13.26,0,0,1,1.23-2.84l.65.32a10.37,10.37,0,0,0-1.11,2.76,13.12,13.12,0,0,0,0,6,10.37,10.37,0,0,0,1.11,2.76l-.65.32A13.18,13.18,0,0,1,225.32,246.58Z"/>
  <path class="cls-2" d="M233.39,239a10.14,10.14,0,0,1-.24,2.22,7.14,7.14,0,0,1-.79,2,7.87,7.87,0,0,1-1.42,1.79,9.13,9.13,0,0,1-2.16,1.49l-.51-.76a9.74,9.74,0,0,0,1.79-1.18,7.56,7.56,0,0,0,1.27-1.4,6.3,6.3,0,0,0,.78-1.61,7.56,7.56,0,0,0,.35-1.8h-3.73V239Zm3.31-1.16v10.76h-.94V243h-2.39v-.81h2.39v-4.31Z"/>
  <path class="cls-2" d="M240,245.2c.59,0,1.16,0,1.72-.06a16.94,16.94,0,0,0,1.82-.24l.07.81a15.19,15.19,0,0,1-2,.24c-.6,0-1.22.06-1.85.06h-.68v-4H242V239.8h-2.93V239h3.85v3.78H240Zm7.45-7.38v10.75h-.9v-5.7H245.1V248h-.87v-10h.87v4h1.46v-4.25Z"/>
  <path class="cls-2" d="M249.79,238.9h1.06v8.8h-1.06Z"/>
  <path class="cls-2" d="M253.13,238.9h2.1a3.7,3.7,0,0,1,2.93,1.13,4.71,4.71,0,0,1,1,3.24,6.32,6.32,0,0,1-.25,1.87,3.87,3.87,0,0,1-.75,1.39,3.25,3.25,0,0,1-1.22.87,4.33,4.33,0,0,1-1.67.3h-2.14Zm2,7.87a2.62,2.62,0,0,0,2.21-.92,5,5,0,0,0,0-5.17,2.7,2.7,0,0,0-2.22-.89h-.95v7Z"/>
  <path class="cls-2" d="M260.32,249a10.69,10.69,0,0,0,1.1-2.76,12.76,12.76,0,0,0,0-6,10.9,10.9,0,0,0-1.1-2.77l.63-.31A12.52,12.52,0,0,1,262.2,240a12.3,12.3,0,0,1,0,6.52,12.32,12.32,0,0,1-1.25,2.83Z"/>
  <path class="cls-2" d="M276.12,242.36v.79h-9.29v-.79h6.87a12.42,12.42,0,0,0,.26-1.77c0-.51,0-1,0-1.4h-6v-.79h6.91v.79c0,.42,0,.89,0,1.39a14,14,0,0,1-.24,1.78ZM268,244.61h7v3.83h-7Zm.92,3H274v-2.24H268.9Z"/>
  <path class="cls-2" d="M282.09,241a2.86,2.86,0,0,1-.18,1,2.54,2.54,0,0,1-.48.8,2.13,2.13,0,0,1-.74.51,2.24,2.24,0,0,1-.93.19,2.18,2.18,0,0,1-.93-.19,2.13,2.13,0,0,1-.74-.51,2.39,2.39,0,0,1-.49-.8,3.09,3.09,0,0,1-.17-1,3,3,0,0,1,.17-1,2.44,2.44,0,0,1,.49-.81,2.16,2.16,0,0,1,.74-.52,2.34,2.34,0,0,1,.93-.19,2.41,2.41,0,0,1,.93.19,2.16,2.16,0,0,1,.74.52,2.6,2.6,0,0,1,.48.81A2.82,2.82,0,0,1,282.09,241Zm-3.82,0a2,2,0,0,0,.12.7,1.57,1.57,0,0,0,.3.54,1.26,1.26,0,0,0,.47.36,1.45,1.45,0,0,0,.59.13,1.42,1.42,0,0,0,.59-.13,1.23,1.23,0,0,0,.46-.36,1.78,1.78,0,0,0,.31-.54,2,2,0,0,0,.11-.7,1.88,1.88,0,0,0-.42-1.24,1.31,1.31,0,0,0-.46-.35,1.28,1.28,0,0,0-.59-.13,1.31,1.31,0,0,0-.59.13,1.35,1.35,0,0,0-.47.35,1.72,1.72,0,0,0-.3.55A2,2,0,0,0,278.27,241Zm.81,3.8H286v3.76H285v-3h-5.94Zm6.87-7v6.41h-.9V241.4h-1.31v2.77h-.86V238h.86v2.56h1.31v-2.77Z"/>
  <path class="cls-2" d="M293.34,241.13a5.61,5.61,0,0,0,.15,1.29,5.53,5.53,0,0,0,.43,1.2,5,5,0,0,0,.7,1,3.88,3.88,0,0,0,.92.75l-.53.74a4,4,0,0,1-1.29-1.22,6.3,6.3,0,0,1-.81-1.76,6.73,6.73,0,0,1-.79,1.88,4.11,4.11,0,0,1-1.29,1.33l-.54-.73a3.75,3.75,0,0,0,.91-.83,5.3,5.3,0,0,0,.69-1.09,6.75,6.75,0,0,0,.42-1.27,6,6,0,0,0,.14-1.33v-.51h-1.89v-.81h1.89v-1.59h.9v1.59h1.88v.81h-1.89Zm2.76-3H297V248h-.89v-5.13h-1.56v-.81h1.56Zm2.95-.27v10.75h-.9V237.82Z"/>
  <path class="cls-2" d="M310.11,246.28v.81h-9.24v-.81ZM308,241.9c0-.28,0-.56,0-.83v-1.35H302v-.81h7v2.51c0,.38,0,.79-.06,1.21s-.07.86-.13,1.33-.14,1-.26,1.53l-.92-.1c.11-.52.19-1,.26-1.45s.1-.88.13-1.29l-6.17.36-.13-.82Z"/>
  <line class="cls-3" x1="527.86" y1="154.82" x2="167.86" y2="154.82"/>
  <line class="cls-3" x1="527.86" y1="94.82" x2="167.86" y2="94.82"/>
  <path class="cls-3" d="M531.75,94.53a30,30,0,0,1,0,60"/>
  <polygon class="cls-4" points="525.66 101.73 525.66 87.33 537.66 94.53 525.66 101.73"/>
  <polygon class="cls-4" points="537.66 147.62 537.66 162.02 525.66 154.82 537.66 147.62"/>
  <polygon class="cls-5" points="176.03 267.67 176.03 282.07 164.03 274.87 176.03 267.67"/>
  <polygon class="cls-6" points="176.03 147.82 176.03 162.22 164.03 155.02 176.03 147.82"/>
  <line class="cls-3" x1="347.89" y1="274.87" x2="167.86" y2="274.87"/>
  <polygon class="cls-6" points="164.03 101.73 164.03 87.33 176.03 94.53 164.03 101.73"/>
  <line class="cls-7" x1="350.05" y1="214.82" x2="170.02" y2="214.82"/>
  <path class="cls-2" d="M 199.448 111.72 C 198.971 111.732 198.5 111.611 198.088 111.37 C 197.694 111.123 197.371 110.778 197.148 110.37 L 197.898 109.8 C 198.044 110.103 198.264 110.365 198.538 110.56 C 198.78 110.713 199.062 110.792 199.348 110.79 C 199.73 110.812 200.101 110.652 200.348 110.36 C 200.605 109.926 200.721 109.423 200.678 108.92 L 200.678 102.81 L 201.738 102.81 L 201.738 109.02 C 201.738 109.381 201.691 109.741 201.598 110.09 C 201.522 110.403 201.387 110.699 201.198 110.96 C 201.005 111.206 200.759 111.404 200.478 111.54 C 200.154 111.682 199.801 111.743 199.448 111.72 Z"/>
  <path class="cls-2" d="M 206.328 111.72 C 205.207 111.731 204.137 111.253 203.398 110.41 L 204.028 109.66 C 204.325 109.992 204.685 110.261 205.088 110.45 C 205.475 110.647 205.904 110.75 206.338 110.75 C 206.802 110.779 207.261 110.637 207.628 110.35 C 207.926 110.103 208.098 109.737 208.098 109.35 C 208.121 108.972 207.97 108.603 207.688 108.35 C 207.557 108.226 207.409 108.121 207.248 108.04 L 206.698 107.77 L 205.498 107.22 C 205.292 107.125 205.092 107.018 204.898 106.9 C 204.7 106.769 204.519 106.615 204.358 106.44 C 204.184 106.257 204.045 106.043 203.948 105.81 C 203.844 105.539 203.793 105.25 203.798 104.96 C 203.792 104.636 203.86 104.314 203.998 104.02 C 204.127 103.74 204.31 103.488 204.538 103.28 C 204.784 103.065 205.069 102.899 205.378 102.79 C 205.716 102.675 206.071 102.618 206.428 102.62 C 207.366 102.614 208.262 103.011 208.888 103.71 L 208.338 104.42 C 208.088 104.17 207.797 103.964 207.478 103.81 C 207.163 103.669 206.823 103.595 206.478 103.59 C 206.069 103.569 205.665 103.693 205.338 103.94 C 204.923 104.322 204.802 104.928 205.038 105.44 C 205.125 105.588 205.232 105.723 205.358 105.84 C 205.495 105.953 205.646 106.047 205.808 106.12 L 206.298 106.35 L 207.498 106.89 C 207.729 106.999 207.953 107.123 208.168 107.26 C 208.373 107.393 208.559 107.555 208.718 107.74 C 208.88 107.933 209.005 108.153 209.088 108.39 C 209.176 108.665 209.22 108.952 209.218 109.24 C 209.223 109.584 209.155 109.925 209.018 110.24 C 208.885 110.54 208.691 110.81 208.448 111.03 C 208.191 111.269 207.888 111.453 207.558 111.57 C 207.161 111.695 206.744 111.746 206.328 111.72 Z"/>
  <path class="cls-2" d="M 215.688 111.72 C 215.122 111.724 214.563 111.605 214.048 111.37 C 213.551 111.134 213.111 110.793 212.758 110.37 L 213.388 109.62 C 213.685 109.952 214.045 110.221 214.448 110.41 C 214.835 110.607 215.264 110.71 215.698 110.71 C 216.162 110.739 216.621 110.597 216.988 110.31 C 217.283 110.062 217.452 109.695 217.448 109.31 C 217.48 108.932 217.332 108.562 217.048 108.31 C 216.917 108.186 216.769 108.081 216.608 108 L 216.058 107.73 L 214.858 107.18 C 214.652 107.085 214.452 106.978 214.258 106.86 C 214.06 106.729 213.879 106.575 213.718 106.4 C 213.544 106.217 213.405 106.003 213.308 105.77 C 213.204 105.499 213.153 105.21 213.158 104.92 C 213.152 104.596 213.22 104.274 213.358 103.98 C 213.487 103.7 213.67 103.448 213.898 103.24 C 214.144 103.025 214.429 102.859 214.738 102.75 C 215.06 102.641 215.398 102.583 215.738 102.58 C 216.676 102.574 217.572 102.971 218.198 103.67 L 217.638 104.38 C 217.393 104.129 217.105 103.922 216.788 103.77 C 216.458 103.623 216.1 103.548 215.738 103.55 C 215.329 103.529 214.925 103.653 214.598 103.9 C 214.183 104.282 214.062 104.888 214.298 105.4 C 214.385 105.548 214.492 105.683 214.618 105.8 C 214.755 105.913 214.906 106.007 215.068 106.08 L 215.558 106.31 L 216.758 106.85 C 216.989 106.959 217.213 107.083 217.428 107.22 C 217.631 107.356 217.816 107.517 217.978 107.7 C 218.14 107.893 218.265 108.113 218.348 108.35 C 218.436 108.625 218.48 108.912 218.478 109.2 C 218.483 109.544 218.415 109.885 218.278 110.2 C 218.145 110.5 217.951 110.77 217.708 110.99 C 217.451 111.229 217.148 111.413 216.818 111.53 C 216.455 111.656 216.073 111.72 215.688 111.72 Z"/>
  <path class="cls-2" d="M 220.168 102.77 L 222.258 102.77 C 223.357 102.691 224.434 103.106 225.198 103.9 C 225.922 104.819 226.278 105.973 226.198 107.14 C 226.205 107.77 226.117 108.397 225.938 109 C 225.788 109.511 225.533 109.985 225.188 110.39 C 224.857 110.773 224.438 111.072 223.968 111.26 C 223.44 111.469 222.876 111.571 222.308 111.56 L 220.168 111.56 Z M 222.168 110.64 C 223.012 110.701 223.835 110.36 224.388 109.72 C 224.914 108.959 225.171 108.044 225.118 107.12 C 225.176 106.205 224.919 105.298 224.388 104.55 C 223.83 103.92 223.007 103.59 222.168 103.66 L 221.228 103.66 L 221.228 110.66 Z"/>
  <path class="cls-2" d="M 227.998 102.77 L 229.078 102.77 L 229.078 107.18 L 229.078 107.18 L 232.568 102.77 L 233.758 102.77 L 231.148 106.12 L 234.148 111.56 L 232.958 111.56 L 230.468 106.98 L 229.028 108.78 L 229.028 111.56 L 227.968 111.56 Z"/>
  <path class="cls-2" d="M 244.078 106.69 L 244.078 107.44 L 234.808 107.44 L 234.808 106.69 Z M 236.858 111.6 L 243.238 111.6 L 243.238 112.31 L 235.938 112.31 L 235.938 109.92 L 241.998 109.92 L 241.998 109.02 L 235.908 109.02 L 235.908 108.31 L 242.908 108.31 L 242.908 110.6 L 236.878 110.6 Z M 241.968 102.7 L 235.968 102.7 L 235.968 102 L 242.888 102 L 242.888 104.24 L 236.888 104.24 L 236.888 105.17 L 243.078 105.17 L 243.078 105.88 L 235.998 105.88 L 235.998 103.57 L 241.998 103.57 Z"/>
  <path class="cls-2" d="M 257.078 107.39 L 257.078 108.18 L 247.818 108.18 L 247.818 107.39 L 251.978 107.39 L 251.978 106.33 L 249.078 106.33 L 249.078 102 L 255.968 102 L 255.968 102.77 L 249.968 102.77 L 249.968 103.77 L 255.658 103.77 L 255.658 104.52 L 249.968 104.52 L 249.968 105.52 L 255.968 105.52 L 255.968 106.29 L 252.888 106.29 L 252.888 107.35 Z M 252.448 109 C 253.329 108.956 254.209 109.103 255.028 109.43 C 256.017 109.773 256.264 111.058 255.473 111.743 C 255.342 111.856 255.191 111.944 255.028 112 C 253.355 112.587 251.531 112.587 249.858 112 C 248.869 111.657 248.622 110.372 249.413 109.687 C 249.544 109.574 249.695 109.487 249.858 109.43 C 250.693 109.097 251.59 108.951 252.488 109 Z M 252.448 111.7 C 253.091 111.723 253.733 111.638 254.348 111.45 C 254.788 111.29 255.008 111.04 255.008 110.71 C 255.008 110.38 254.788 110.15 254.348 109.98 C 253.1 109.647 251.786 109.647 250.538 109.98 C 250.098 110.15 249.878 110.39 249.878 110.71 C 249.878 111.03 250.098 111.29 250.538 111.45 C 251.169 111.643 251.829 111.728 252.488 111.7 Z"/>
  <path class="cls-2" d="M 261.338 103.52 L 263.418 103.52 L 263.418 104.33 L 258.348 104.33 L 258.348 103.52 L 260.418 103.52 L 260.418 102 L 261.338 102 Z M 260.888 105.05 C 261.191 105.047 261.491 105.108 261.768 105.23 C 262.028 105.352 262.262 105.521 262.458 105.73 C 262.654 105.961 262.807 106.225 262.908 106.51 C 263.024 106.831 263.081 107.169 263.078 107.51 C 263.08 107.851 263.023 108.189 262.908 108.51 C 262.809 108.793 262.656 109.055 262.458 109.28 C 261.831 109.951 260.85 110.156 260.008 109.79 C 259.743 109.674 259.507 109.5 259.318 109.28 C 259.117 109.055 258.96 108.794 258.858 108.51 C 258.747 108.189 258.692 107.85 258.698 107.51 C 258.691 107.17 258.746 106.831 258.858 106.51 C 258.963 106.224 259.119 105.96 259.318 105.73 C 259.509 105.516 259.745 105.345 260.008 105.23 C 260.285 105.108 260.585 105.047 260.888 105.05 Z M 260.888 109.15 C 261.078 109.152 261.266 109.111 261.438 109.03 C 261.601 108.949 261.745 108.833 261.858 108.69 C 261.981 108.531 262.075 108.351 262.138 108.16 C 262.271 107.734 262.271 107.277 262.138 106.85 C 262.075 106.662 261.98 106.486 261.858 106.33 C 261.742 106.193 261.599 106.081 261.438 106 C 261.266 105.919 261.078 105.878 260.888 105.88 C 260.502 105.863 260.131 106.03 259.888 106.33 C 259.629 106.664 259.494 107.078 259.508 107.5 C 259.504 107.724 259.538 107.947 259.608 108.16 C 259.667 108.353 259.762 108.533 259.888 108.69 C 260.003 108.836 260.15 108.952 260.318 109.03 C 260.496 109.114 260.691 109.155 260.888 109.15 Z M 267.018 101.68 L 267.018 112.44 L 266.078 112.44 L 266.078 107.03 L 264.758 107.03 L 264.758 111.92 L 263.888 111.92 L 263.888 101.92 L 264.758 101.92 L 264.758 106.24 L 266.078 106.24 L 266.078 101.7 Z"/>
  <path class="cls-2" d="M 276.358 104.02 C 276.031 104.869 275.469 105.608 274.738 106.15 C 273.886 106.759 272.92 107.191 271.898 107.42 L 271.558 106.62 C 272.63 106.407 273.633 105.933 274.478 105.24 C 275.145 104.687 275.565 103.892 275.648 103.03 L 272.078 103.03 L 272.078 102.24 L 276.658 102.24 C 276.655 102.576 276.618 102.911 276.548 103.24 L 278.868 103.24 L 278.868 101.68 L 279.798 101.68 L 279.798 107.17 L 278.868 107.17 L 278.868 106.06 L 276.198 106.06 L 276.198 105.29 L 278.868 105.29 L 278.868 104.01 Z M 280.168 111.56 L 280.168 112.33 L 273.258 112.33 L 273.258 109.57 L 278.888 109.57 L 278.888 108.47 L 273.228 108.47 L 273.228 107.68 L 279.808 107.68 L 279.808 110.32 L 274.178 110.32 L 274.178 111.56 Z"/>
  <path class="cls-2" d="M 284.888 104.72 C 284.884 105.191 284.931 105.66 285.028 106.12 C 285.118 106.564 285.255 106.996 285.438 107.41 C 285.617 107.801 285.845 108.168 286.118 108.5 C 286.38 108.825 286.698 109.099 287.058 109.31 L 286.488 110.03 C 285.972 109.703 285.537 109.262 285.218 108.74 C 284.866 108.163 284.604 107.536 284.438 106.88 C 284.282 107.586 284.011 108.261 283.638 108.88 C 283.315 109.441 282.866 109.92 282.328 110.28 L 281.758 109.55 C 282.125 109.324 282.447 109.033 282.708 108.69 C 282.991 108.336 283.226 107.946 283.408 107.53 C 283.596 107.096 283.74 106.643 283.838 106.18 C 283.93 105.696 283.977 105.203 283.978 104.71 L 283.978 103.71 L 282.078 103.71 L 282.078 102.91 L 286.738 102.91 L 286.738 103.71 L 284.918 103.71 Z M 287.618 101.93 L 288.508 101.93 L 288.508 111.93 L 287.618 111.93 L 287.618 106.4 L 285.928 106.4 L 285.928 105.59 L 287.618 105.59 Z M 290.568 101.68 L 290.568 112.44 L 289.668 112.44 L 289.668 101.68 Z"/>
  <path class="cls-2" d="M 297.908 107.74 C 297.354 107.554 296.841 107.262 296.398 106.88 C 295.97 106.516 295.629 106.062 295.398 105.55 C 295.183 106.12 294.841 106.633 294.398 107.05 C 293.954 107.494 293.418 107.836 292.828 108.05 L 292.368 107.27 C 292.725 107.152 293.063 106.98 293.368 106.76 C 293.67 106.547 293.943 106.295 294.178 106.01 C 294.395 105.73 294.57 105.42 294.698 105.09 C 294.812 104.769 294.873 104.431 294.878 104.09 L 294.878 103.88 L 292.608 103.88 L 292.608 103.09 L 294.878 103.09 L 294.878 101.64 L 295.808 101.64 L 295.808 103 L 298.078 103 L 298.078 103.79 L 295.818 103.79 L 295.818 104 C 295.817 104.325 295.878 104.648 295.998 104.95 C 296.12 105.26 296.292 105.547 296.508 105.8 C 296.734 106.066 296.997 106.298 297.288 106.49 C 297.599 106.693 297.935 106.855 298.288 106.97 Z M 297.058 108.55 C 297.531 108.544 298.004 108.588 298.468 108.68 C 298.837 108.747 299.192 108.875 299.518 109.06 C 299.787 109.206 300.017 109.416 300.188 109.67 C 300.496 110.177 300.496 110.813 300.188 111.32 C 300.017 111.575 299.787 111.784 299.518 111.93 C 299.189 112.107 298.835 112.232 298.468 112.3 C 298.004 112.393 297.531 112.436 297.058 112.43 C 296.201 112.476 295.347 112.3 294.578 111.92 C 293.477 111.385 293.368 109.859 294.382 109.173 C 294.445 109.131 294.51 109.093 294.578 109.06 C 295.353 108.677 296.215 108.501 297.078 108.55 Z M 297.058 111.66 C 297.667 111.69 298.275 111.584 298.838 111.35 C 299.204 111.215 299.458 110.879 299.488 110.49 C 299.461 110.098 299.207 109.757 298.838 109.62 C 298.273 109.395 297.666 109.293 297.058 109.32 C 296.444 109.292 295.83 109.395 295.258 109.62 C 294.893 109.76 294.643 110.1 294.618 110.49 C 294.631 110.882 294.886 111.225 295.258 111.35 C 295.834 111.588 296.456 111.693 297.078 111.66 Z M 301.818 104.48 L 301.818 105.29 L 300.308 105.29 L 300.308 108.29 L 299.368 108.29 L 299.368 101.7 L 300.308 101.7 L 300.308 104.48 Z"/>
  <path class="cls-2" d="M 314.678 110.39 L 314.678 111.19 L 305.418 111.19 L 305.418 110.39 L 309.578 110.39 L 309.578 108.88 C 308.825 108.871 308.088 108.657 307.448 108.26 C 306.96 107.955 306.668 107.416 306.678 106.84 C 306.676 106.535 306.755 106.234 306.908 105.97 C 307.078 105.707 307.308 105.488 307.578 105.33 C 307.91 105.145 308.267 105.01 308.638 104.93 C 309.099 104.838 309.568 104.794 310.038 104.8 C 310.501 104.794 310.964 104.838 311.418 104.93 C 311.769 105.016 312.105 105.15 312.418 105.33 C 312.688 105.488 312.918 105.707 313.088 105.97 C 313.241 106.234 313.32 106.535 313.318 106.84 C 313.333 107.412 313.048 107.95 312.568 108.26 C 311.934 108.645 311.21 108.859 310.468 108.88 L 310.468 110.39 Z M 314.168 104.06 L 305.868 104.06 L 305.868 103.24 L 309.578 103.24 L 309.578 101.84 L 310.508 101.84 L 310.508 103.24 L 314.168 103.24 Z M 307.618 106.83 C 307.615 107.246 307.87 107.62 308.258 107.77 C 308.815 108.025 309.426 108.142 310.038 108.11 C 310.64 108.14 311.241 108.023 311.788 107.77 C 312.508 107.497 312.662 106.547 312.066 106.061 C 311.982 105.992 311.889 105.938 311.788 105.9 C 311.241 105.647 310.64 105.53 310.038 105.56 C 309.426 105.529 308.815 105.645 308.258 105.9 C 307.873 106.049 307.619 106.418 307.618 106.83 Z"/>
  <path class="cls-2" d="M 320.998 107.24 L 320.998 108.24 L 323.998 108.24 L 323.998 110.59 L 317.998 110.59 L 317.998 111.59 L 324.308 111.59 L 324.308 112.33 L 317.078 112.33 L 317.078 109.86 L 323.078 109.86 L 323.078 108.95 L 317.078 108.95 L 317.078 108.24 L 320.078 108.24 L 320.078 107.24 L 315.948 107.24 L 315.948 106.47 L 325.168 106.47 L 325.168 107.24 Z M 316.388 105.24 C 316.84 105.212 317.288 105.145 317.728 105.04 C 318.113 104.952 318.488 104.824 318.848 104.66 C 319.143 104.523 319.411 104.334 319.638 104.1 C 319.834 103.905 319.963 103.653 320.008 103.38 L 316.848 103.38 L 316.848 102.64 L 320.078 102.64 L 320.078 101.64 L 321.018 101.64 L 321.018 102.64 L 324.218 102.64 L 324.218 103.38 L 321.078 103.38 C 321.115 103.654 321.241 103.907 321.438 104.1 C 321.661 104.334 321.925 104.524 322.218 104.66 C 322.575 104.821 322.947 104.948 323.328 105.04 C 323.771 105.145 324.223 105.212 324.678 105.24 L 324.388 105.98 C 323.974 105.951 323.563 105.891 323.158 105.8 C 322.784 105.723 322.419 105.609 322.068 105.46 C 321.752 105.33 321.453 105.162 321.178 104.96 C 320.931 104.775 320.717 104.549 320.548 104.29 C 320.379 104.549 320.165 104.775 319.918 104.96 C 319.644 105.164 319.345 105.332 319.028 105.46 C 318.673 105.609 318.305 105.723 317.928 105.8 C 317.52 105.892 317.105 105.953 316.688 105.98 Z"/>
  <path class="cls-2" d="M 202.39 116.957 L 203.14 116.957 L 199.73 128.617 L 198.97 128.617 Z"/>
  <path class="cls-2" d="M 211.73 118.307 C 211.732 119.075 211.662 119.842 211.52 120.597 C 211.376 121.334 211.123 122.045 210.77 122.707 C 210.401 123.411 209.917 124.05 209.34 124.597 C 208.666 125.241 207.901 125.783 207.07 126.207 L 206.56 125.447 C 207.408 125.019 208.183 124.463 208.86 123.797 C 209.426 123.216 209.883 122.539 210.21 121.797 L 206.76 122.147 L 206.6 121.277 L 210.49 121.007 C 210.671 120.392 210.775 119.758 210.8 119.117 L 207.12 119.117 L 207.12 118.307 Z M 215.97 122.377 L 214.33 122.377 L 214.33 127.957 L 213.4 127.957 L 213.4 117.207 L 214.33 117.207 L 214.33 121.577 L 215.97 121.577 Z"/>
  <path class="cls-2" d="M 226.22 125.747 L 226.22 126.547 L 216.94 126.547 L 216.94 125.747 Z M 225.15 123.197 L 218.15 123.197 L 218.15 118.197 L 225.07 118.197 L 225.07 119.007 L 219.07 119.007 L 219.07 122.367 L 225.17 122.367 Z"/>
  <path class="cls-2" d="M 230.88 120.067 C 230.878 120.544 230.945 121.019 231.08 121.477 C 231.214 121.938 231.402 122.381 231.64 122.797 C 231.865 123.2 232.144 123.571 232.47 123.897 C 232.76 124.209 233.098 124.472 233.47 124.677 L 232.89 125.457 C 232.609 125.299 232.347 125.107 232.11 124.887 C 231.857 124.648 231.627 124.387 231.42 124.107 C 231.203 123.811 231.012 123.497 230.85 123.167 C 230.676 122.827 230.532 122.472 230.42 122.107 C 230.21 122.869 229.871 123.589 229.42 124.237 C 229.018 124.821 228.493 125.31 227.88 125.667 L 227.32 124.877 C 227.693 124.659 228.03 124.386 228.32 124.067 C 228.649 123.718 228.931 123.328 229.16 122.907 C 229.396 122.468 229.583 122.006 229.72 121.527 C 229.851 121.051 229.918 120.561 229.92 120.067 L 229.92 118.137 L 230.85 118.137 Z M 237 122.377 L 235.31 122.377 L 235.31 127.957 L 234.37 127.957 L 234.37 117.217 L 235.31 117.217 L 235.31 121.577 L 237 121.577 Z"/>
  <path class="cls-2" d="M 246.07 120.587 C 246.074 120.957 246.006 121.323 245.87 121.667 C 245.735 121.981 245.542 122.266 245.3 122.507 C 245.056 122.744 244.767 122.931 244.45 123.057 C 244.113 123.19 243.753 123.258 243.39 123.257 C 243.027 123.259 242.667 123.191 242.33 123.057 C 241.688 122.809 241.178 122.305 240.92 121.667 C 240.785 121.323 240.717 120.957 240.72 120.587 C 240.719 120.224 240.787 119.865 240.92 119.527 C 241.052 119.214 241.242 118.929 241.48 118.687 C 241.724 118.452 242.014 118.268 242.33 118.147 C 242.667 118.013 243.027 117.945 243.39 117.947 C 243.753 117.946 244.113 118.014 244.45 118.147 C 244.768 118.266 245.058 118.45 245.3 118.687 C 245.542 118.929 245.735 119.214 245.87 119.527 C 246.004 119.865 246.071 120.224 246.07 120.587 Z M 241.65 120.587 C 241.646 120.84 241.691 121.091 241.78 121.327 C 241.864 121.538 241.986 121.731 242.14 121.897 C 242.295 122.058 242.483 122.184 242.69 122.267 C 242.912 122.361 243.15 122.408 243.39 122.407 C 243.627 122.408 243.862 122.36 244.08 122.267 C 244.295 122.187 244.49 122.061 244.65 121.897 C 244.811 121.734 244.937 121.54 245.02 121.327 C 245.106 121.09 245.15 120.839 245.15 120.587 C 245.15 120.341 245.106 120.098 245.02 119.867 C 244.934 119.659 244.808 119.468 244.65 119.307 C 244.487 119.147 244.293 119.021 244.08 118.937 C 243.862 118.847 243.627 118.803 243.39 118.807 C 243.151 118.803 242.912 118.847 242.69 118.937 C 242.485 119.024 242.298 119.149 242.14 119.307 C 241.989 119.471 241.867 119.661 241.78 119.867 C 241.69 120.096 241.646 120.341 241.65 120.587 Z M 249.18 126.917 L 249.18 127.717 L 242.3 127.717 L 242.3 124.267 L 243.23 124.267 L 243.23 126.917 Z M 248.88 125.067 L 247.94 125.067 L 247.94 117.207 L 248.88 117.207 Z"/>
  <path class="cls-2" d="M 260.22 122.317 L 260.22 123.107 L 250.97 123.107 L 250.97 122.317 Z M 251.5 120.877 C 251.942 120.831 252.378 120.737 252.8 120.597 C 253.191 120.473 253.564 120.298 253.91 120.077 C 254.209 119.898 254.47 119.664 254.68 119.387 C 254.872 119.143 254.983 118.847 255 118.537 L 251.83 118.537 L 251.83 117.747 L 259.39 117.747 L 259.39 118.537 L 256.21 118.537 C 256.211 118.846 256.317 119.146 256.51 119.387 C 256.727 119.662 256.991 119.896 257.29 120.077 C 257.638 120.294 258.011 120.469 258.4 120.597 C 258.825 120.738 259.265 120.832 259.71 120.877 L 259.37 121.657 C 258.957 121.605 258.549 121.518 258.15 121.397 C 257.776 121.28 257.414 121.126 257.07 120.937 C 256.75 120.759 256.455 120.541 256.19 120.287 C 255.942 120.062 255.742 119.79 255.6 119.487 C 255.455 119.791 255.251 120.063 255 120.287 C 254.738 120.538 254.446 120.757 254.13 120.937 C 253.782 121.125 253.417 121.279 253.04 121.397 C 252.646 121.52 252.241 121.607 251.83 121.657 Z M 255.58 124.047 C 256.073 124.04 256.566 124.084 257.05 124.177 C 257.43 124.245 257.797 124.37 258.14 124.547 C 258.421 124.694 258.661 124.907 258.84 125.167 C 259.001 125.41 259.085 125.696 259.08 125.987 C 259.085 126.285 259.002 126.577 258.84 126.827 C 258.661 127.088 258.421 127.301 258.14 127.447 C 257.797 127.624 257.43 127.749 257.05 127.817 C 256.566 127.91 256.073 127.954 255.58 127.947 C 254.699 127.989 253.821 127.817 253.02 127.447 C 251.904 126.926 251.77 125.393 252.779 124.686 C 252.855 124.633 252.936 124.586 253.02 124.547 C 253.821 124.177 254.699 124.006 255.58 124.047 Z M 255.58 127.177 C 256.224 127.206 256.867 127.104 257.47 126.877 C 258.144 126.685 258.357 125.835 257.853 125.348 C 257.746 125.244 257.614 125.168 257.47 125.127 C 256.248 124.714 254.923 124.714 253.7 125.127 C 253.027 125.289 252.781 126.12 253.259 126.622 C 253.378 126.748 253.532 126.837 253.7 126.877 C 254.3 127.103 254.94 127.205 255.58 127.177 Z"/>
  <path class="cls-2" d="M 400.79 165.474 L 401.64 165.474 L 401.74 166.664 L 401.74 166.664 C 401.933 166.283 402.198 165.943 402.52 165.664 C 402.8 165.429 403.155 165.301 403.52 165.304 C 403.64 165.292 403.761 165.292 403.88 165.304 C 403.99 165.321 404.095 165.358 404.19 165.414 L 403.99 166.414 C 403.901 166.376 403.807 166.349 403.71 166.334 C 403.604 166.322 403.497 166.322 403.39 166.334 C 403.25 166.337 403.111 166.364 402.98 166.414 C 402.83 166.472 402.691 166.557 402.57 166.664 C 402.417 166.799 402.283 166.953 402.17 167.124 C 402.029 167.346 401.915 167.584 401.83 167.834 L 401.83 172.024 L 400.83 172.024 Z"/>
  <path class="cls-2" d="M 407.71 172.154 C 407.312 172.155 406.918 172.076 406.55 171.924 C 406.192 171.771 405.872 171.542 405.61 171.254 C 405.329 170.944 405.115 170.58 404.98 170.184 C 404.815 169.722 404.734 169.234 404.74 168.744 C 404.733 168.256 404.814 167.772 404.98 167.314 C 405.118 166.918 405.328 166.552 405.6 166.234 C 405.849 165.946 406.155 165.714 406.5 165.554 C 406.813 165.403 407.154 165.321 407.5 165.314 C 407.861 165.306 408.22 165.377 408.55 165.524 C 408.855 165.666 409.122 165.879 409.33 166.144 C 409.554 166.442 409.718 166.782 409.81 167.144 C 409.924 167.554 409.978 167.978 409.97 168.404 C 409.97 168.524 409.97 168.634 409.97 168.744 C 409.97 168.854 409.97 168.944 409.97 169.024 L 405.78 169.024 C 405.784 169.631 406 170.218 406.39 170.684 C 406.759 171.086 407.284 171.309 407.83 171.294 C 408.116 171.296 408.401 171.249 408.67 171.154 C 408.924 171.061 409.163 170.933 409.38 170.774 L 409.76 171.494 C 409.475 171.688 409.17 171.853 408.85 171.984 C 408.484 172.109 408.097 172.167 407.71 172.154 Z M 409.09 168.224 C 409.126 167.689 408.982 167.157 408.68 166.714 C 408.41 166.368 407.989 166.174 407.55 166.194 C 407.333 166.195 407.118 166.242 406.92 166.334 C 406.711 166.428 406.524 166.564 406.37 166.734 C 406.202 166.917 406.07 167.131 405.98 167.364 C 405.866 167.638 405.795 167.928 405.77 168.224 Z"/>
  <path class="cls-2" d="M 413.48 172.154 C 413.192 172.161 412.905 172.107 412.64 171.994 C 412.422 171.901 412.235 171.749 412.1 171.554 C 411.953 171.351 411.851 171.119 411.8 170.874 C 411.738 170.578 411.707 170.276 411.71 169.974 L 411.71 166.364 L 410.79 166.364 L 410.79 165.534 L 411.79 165.474 L 411.91 163.654 L 412.78 163.654 L 412.78 165.474 L 414.45 165.474 L 414.45 166.364 L 412.78 166.364 L 412.78 170.004 C 412.761 170.326 412.83 170.647 412.98 170.934 C 413.153 171.17 413.439 171.295 413.73 171.264 C 413.853 171.262 413.974 171.241 414.09 171.204 C 414.21 171.176 414.327 171.139 414.44 171.094 L 414.65 171.914 C 414.467 171.979 414.28 172.032 414.09 172.074 C 413.891 172.127 413.686 172.153 413.48 172.154 Z"/>
  <path class="cls-2" d="M 417.63 172.154 C 417.073 172.198 416.533 171.952 416.2 171.504 C 415.864 170.929 415.707 170.268 415.75 169.604 L 415.75 165.474 L 416.75 165.474 L 416.75 169.474 C 416.726 169.952 416.848 170.426 417.1 170.834 C 417.305 171.116 417.642 171.272 417.99 171.244 C 418.293 171.245 418.59 171.154 418.84 170.984 C 419.16 170.748 419.437 170.461 419.66 170.134 L 419.66 165.504 L 420.66 165.504 L 420.66 172.024 L 419.79 172.024 L 419.71 171.024 L 419.71 171.024 C 419.446 171.353 419.132 171.64 418.78 171.874 C 418.435 172.084 418.033 172.182 417.63 172.154 Z"/>
  <path class="cls-2" d="M 422.74 165.474 L 423.6 165.474 L 423.69 166.664 L 423.69 166.664 C 423.883 166.283 424.148 165.943 424.47 165.664 C 424.749 165.427 425.104 165.299 425.47 165.304 C 425.59 165.292 425.711 165.292 425.83 165.304 C 425.936 165.322 426.038 165.359 426.13 165.414 L 425.94 166.414 C 425.847 166.376 425.75 166.349 425.65 166.334 C 425.544 166.321 425.437 166.321 425.33 166.334 C 425.193 166.337 425.058 166.364 424.93 166.414 C 424.778 166.474 424.636 166.559 424.51 166.664 C 424.36 166.801 424.226 166.956 424.11 167.124 C 423.969 167.346 423.855 167.584 423.77 167.834 L 423.77 172.024 L 422.77 172.024 Z"/>
  <path class="cls-2" d="M 427.17 165.474 L 428.02 165.474 L 428.11 166.414 L 428.11 166.414 C 428.395 166.121 428.71 165.859 429.05 165.634 C 429.386 165.416 429.78 165.305 430.18 165.314 C 430.738 165.265 431.282 165.507 431.62 165.954 C 431.962 166.519 432.129 167.173 432.1 167.834 L 432.1 171.964 L 431.1 171.964 L 431.1 167.964 C 431.132 167.5 431.035 167.036 430.82 166.624 C 430.611 166.341 430.27 166.19 429.92 166.224 C 429.618 166.217 429.321 166.305 429.07 166.474 C 428.764 166.689 428.483 166.937 428.23 167.214 L 428.23 171.944 L 427.23 171.944 Z"/>
  <path class="cls-2" d="M 437.19 172.154 C 436.785 172.155 436.383 172.088 436 171.954 C 435.633 171.827 435.306 171.606 435.05 171.314 C 434.758 170.974 434.544 170.574 434.42 170.144 C 434.254 169.562 434.176 168.958 434.19 168.354 L 434.19 163.194 L 435.25 163.194 L 435.25 168.394 C 435.24 168.842 435.291 169.289 435.4 169.724 C 435.475 170.033 435.615 170.322 435.81 170.574 C 435.97 170.78 436.18 170.942 436.42 171.044 C 436.667 171.134 436.928 171.178 437.19 171.174 C 437.456 171.178 437.72 171.134 437.97 171.044 C 438.221 170.945 438.441 170.783 438.61 170.574 C 438.809 170.323 438.952 170.034 439.03 169.724 C 439.14 169.289 439.19 168.842 439.18 168.394 L 439.18 163.194 L 440.18 163.194 L 440.18 168.354 C 440.194 168.958 440.117 169.562 439.95 170.144 C 439.827 170.574 439.612 170.974 439.32 171.314 C 439.052 171.615 438.706 171.836 438.32 171.954 C 437.957 172.081 437.575 172.148 437.19 172.154 Z"/>
  <path class="cls-2" d="M 442.35 165.474 L 443.21 165.474 L 443.3 166.664 L 443.3 166.664 C 443.493 166.283 443.758 165.943 444.08 165.664 C 444.36 165.429 444.715 165.301 445.08 165.304 C 445.2 165.292 445.321 165.292 445.44 165.304 C 445.546 165.322 445.648 165.359 445.74 165.414 L 445.55 166.414 C 445.457 166.377 445.359 166.35 445.26 166.334 C 445.154 166.321 445.047 166.321 444.94 166.334 C 444.803 166.337 444.668 166.364 444.54 166.414 C 444.388 166.474 444.246 166.559 444.12 166.664 C 443.967 166.799 443.833 166.953 443.72 167.124 C 443.579 167.346 443.465 167.584 443.38 167.834 L 443.38 172.024 L 442.38 172.024 Z"/>
  <path class="cls-2" d="M 446.78 171.994 L 446.78 162.444 L 447.78 162.444 L 447.78 171.994 Z"/>
  <path class="cls-2" d="M 461.26 170.744 L 461.26 171.554 L 451.99 171.554 L 451.99 170.744 L 456.15 170.744 L 456.15 168.744 L 453.15 168.744 L 453.15 165.424 L 459.21 165.424 L 459.21 163.744 L 453.1 163.744 L 453.1 162.944 L 460.1 162.944 L 460.1 166.214 L 454.1 166.214 L 454.1 167.954 L 460.38 167.954 L 460.38 168.744 L 457.1 168.744 L 457.1 170.744 Z"/>
  <path class="cls-2" d="M 468.01 162.944 C 468.361 162.949 468.705 163.042 469.01 163.214 C 469.342 163.391 469.624 163.649 469.83 163.964 C 470.075 164.324 470.258 164.723 470.37 165.144 C 470.624 166.165 470.624 167.232 470.37 168.254 C 470.26 168.675 470.077 169.074 469.83 169.434 C 469.621 169.749 469.34 170.009 469.01 170.194 C 468.353 170.54 467.567 170.54 466.91 170.194 C 466.584 170.004 466.304 169.744 466.09 169.434 C 465.851 169.072 465.672 168.673 465.56 168.254 C 465.294 167.234 465.294 166.163 465.56 165.144 C 465.674 164.725 465.853 164.327 466.09 163.964 C 466.302 163.653 466.582 163.397 466.91 163.214 C 467.245 163.025 467.626 162.932 468.01 162.944 Z M 468.01 163.834 C 467.766 163.834 467.527 163.903 467.32 164.034 C 467.099 164.184 466.914 164.382 466.78 164.614 C 466.617 164.893 466.499 165.197 466.43 165.514 C 466.257 166.294 466.257 167.103 466.43 167.884 C 466.499 168.2 466.617 168.504 466.78 168.784 C 466.912 169.017 467.097 169.216 467.32 169.364 C 467.738 169.643 468.283 169.643 468.7 169.364 C 468.918 169.213 469.1 169.014 469.23 168.784 C 469.397 168.504 469.519 168.201 469.59 167.884 C 469.75 167.102 469.75 166.295 469.59 165.514 C 469.519 165.196 469.397 164.893 469.23 164.614 C 469.097 164.385 468.916 164.187 468.7 164.034 C 468.494 163.903 468.255 163.834 468.01 163.834 Z M 473.41 162.114 L 473.41 172.904 L 472.47 172.904 L 472.47 162.114 Z"/>
  <path class="cls-2" d="M 484.78 167.434 L 484.78 168.224 L 475.53 168.224 L 475.53 167.434 L 479.69 167.434 L 479.69 166.184 L 476.69 166.184 L 476.69 162.614 L 483.62 162.614 L 483.62 163.404 L 477.62 163.404 L 477.62 165.404 L 483.7 165.404 L 483.7 166.194 L 480.63 166.194 L 480.63 167.444 Z M 480.15 168.994 C 480.64 168.988 481.129 169.031 481.61 169.124 C 481.99 169.19 482.358 169.315 482.7 169.494 C 482.976 169.643 483.212 169.856 483.39 170.114 C 483.71 170.617 483.71 171.26 483.39 171.764 C 483.214 172.021 482.977 172.231 482.7 172.374 C 482.361 172.56 481.992 172.688 481.61 172.754 C 481.129 172.846 480.64 172.89 480.15 172.884 C 479.265 172.927 478.382 172.752 477.58 172.374 C 477.005 172.127 476.634 171.559 476.64 170.934 C 476.64 170.309 477.009 169.744 477.58 169.494 C 478.385 169.124 479.266 168.952 480.15 168.994 Z M 480.15 172.114 C 480.791 172.142 481.431 172.04 482.03 171.814 C 482.704 171.621 482.917 170.772 482.413 170.285 C 482.306 170.181 482.174 170.105 482.03 170.064 C 481.431 169.837 480.791 169.735 480.15 169.764 C 479.503 169.734 478.857 169.836 478.25 170.064 C 477.577 170.256 477.364 171.105 477.867 171.593 C 477.975 171.697 478.106 171.772 478.25 171.814 C 478.857 172.041 479.503 172.143 480.15 172.114 Z"/>
  <rect class="cls-9" x="315.591" y="191.88" width="284.649" height="110" rx="12" style=""/>
  <path class="cls-2" d="M377,224.5h2.38a6.33,6.33,0,0,1,1.29.13,2.8,2.8,0,0,1,1,.44,2.11,2.11,0,0,1,.64.8,2.9,2.9,0,0,1,.23,1.21,3,3,0,0,1-.23,1.21,2.29,2.29,0,0,1-.63.86,2.66,2.66,0,0,1-1,.49,4.44,4.44,0,0,1-1.25.17H378.1v3.49H377Zm2.3,4.42a2.57,2.57,0,0,0,1.64-.44,1.74,1.74,0,0,0,.53-1.4,1.47,1.47,0,0,0-.56-1.32,3,3,0,0,0-1.66-.37H378.1v3.53Z"/>
  <path class="cls-2" d="M387.33,233.45a3.14,3.14,0,0,1-2.57-1.23,4.26,4.26,0,0,1-.74-1.44,6.68,6.68,0,0,1-.26-1.91A6.56,6.56,0,0,1,384,227a4.25,4.25,0,0,1,.74-1.42,3.05,3.05,0,0,1,1.13-.9,3.3,3.3,0,0,1,1.44-.32,3.24,3.24,0,0,1,1.44.32,3,3,0,0,1,1.13.9,4.25,4.25,0,0,1,.74,1.42,6.56,6.56,0,0,1,.26,1.9,6.68,6.68,0,0,1-.26,1.91,4.26,4.26,0,0,1-.74,1.44,3.14,3.14,0,0,1-2.57,1.23Zm0-1a2,2,0,0,0,1-.26,2.35,2.35,0,0,0,.79-.72,3.74,3.74,0,0,0,.5-1.14,6.26,6.26,0,0,0,0-3,3.73,3.73,0,0,0-.5-1.12,2.32,2.32,0,0,0-.79-.71,2.19,2.19,0,0,0-1-.24,2.13,2.13,0,0,0-1,.24,2.32,2.32,0,0,0-.79.71,3.73,3.73,0,0,0-.5,1.12,6.61,6.61,0,0,0,0,3,3.74,3.74,0,0,0,.5,1.14,2.35,2.35,0,0,0,.79.72A1.94,1.94,0,0,0,387.33,232.48Z"/>
  <path class="cls-2" d="M395,233.45a3.85,3.85,0,0,1-1.64-.34,4.11,4.11,0,0,1-1.29-1l.62-.76a3.57,3.57,0,0,0,1.06.8,2.94,2.94,0,0,0,1.26.29,1.94,1.94,0,0,0,1.28-.39,1.3,1.3,0,0,0,.47-1.05,1.26,1.26,0,0,0-.11-.57,1.46,1.46,0,0,0-.29-.41,2.43,2.43,0,0,0-.44-.3l-.55-.28-1.21-.55a4.94,4.94,0,0,1-.59-.32,2.58,2.58,0,0,1-.55-.45,2.31,2.31,0,0,1-.4-.64,2.22,2.22,0,0,1-.16-.85,2.25,2.25,0,0,1,.2-.93,2.43,2.43,0,0,1,.55-.75,2.51,2.51,0,0,1,.83-.48,3.06,3.06,0,0,1,1.06-.18,3.17,3.17,0,0,1,1.38.3,3.34,3.34,0,0,1,1.08.8l-.56.7a3.28,3.28,0,0,0-.85-.6,2.38,2.38,0,0,0-1.05-.22,1.74,1.74,0,0,0-1.14.34,1.18,1.18,0,0,0-.42.95,1.15,1.15,0,0,0,.12.55,1.41,1.41,0,0,0,.32.4,2,2,0,0,0,.45.29l.49.23,1.19.54a4.4,4.4,0,0,1,.68.37,2.29,2.29,0,0,1,.55.48,2.21,2.21,0,0,1,.36.64,2.47,2.47,0,0,1,.13.86,2.29,2.29,0,0,1-.2,1,2.42,2.42,0,0,1-.56.79,2.54,2.54,0,0,1-.89.53A3.44,3.44,0,0,1,395,233.45Z"/>
  <path class="cls-2" d="M401,225.44h-2.53v-.94h6.12v.94h-2.53v7.86H401Z"/>
  <path class="cls-2" d="M411,223.18h.76l-3.41,11.67h-.77Z"/>
  <path class="cls-2" d="M412.11,226.78h1.09l1.16,3.71c.1.32.2.64.29,1s.19.65.29.95H415l.28-.95c.1-.33.2-.65.29-1l1.17-3.71h1l-2.2,6.52h-1.21Z"/>
  <path class="cls-2" d="M423.9,232.41v.89h-4.51v-.89h1.86v-6.33a2.91,2.91,0,0,1,0-.31l-1.52,1.43-.56-.71,2.25-2h.83v8Z"/>
  <path class="cls-2" d="M428.25,223.18H429l-3.41,11.67h-.76Z"/>
  <path class="cls-2" d="M430.22,226.78h.85l.09.75h0a5.4,5.4,0,0,1,.92-.64,2.23,2.23,0,0,1,1.05-.28,2.3,2.3,0,0,1,1.06.24,2.27,2.27,0,0,1,.77.68,2.85,2.85,0,0,1,.47,1,5.26,5.26,0,0,1,.16,1.37,4.54,4.54,0,0,1-.22,1.49,3.65,3.65,0,0,1-.59,1.11,2.54,2.54,0,0,1-.86.68,2.24,2.24,0,0,1-1,.23,1.92,1.92,0,0,1-.85-.2,3.61,3.61,0,0,1-.86-.56l0,1.14v2.22h-1Zm2.55,5.75a1.41,1.41,0,0,0,.71-.18,1.72,1.72,0,0,0,.57-.51,2.53,2.53,0,0,0,.37-.81,4,4,0,0,0,.13-1.09,5,5,0,0,0-.09-1,2.36,2.36,0,0,0-.29-.76,1.38,1.38,0,0,0-.5-.49,1.61,1.61,0,0,0-1.55.06,4,4,0,0,0-.86.67v3.41a2.73,2.73,0,0,0,.81.53A2,2,0,0,0,432.77,232.53Z"/>
  <path class="cls-2" d="M438.52,233.45a1.88,1.88,0,0,1-.72-.13,1.7,1.7,0,0,1-.57-.37,1.86,1.86,0,0,1-.38-.6,2.24,2.24,0,0,1-.13-.8,1.88,1.88,0,0,1,1-1.8,6.07,6.07,0,0,1,2.82-.57,4.07,4.07,0,0,0,0-.61,1.67,1.67,0,0,0-.2-.53,1.07,1.07,0,0,0-.4-.36,1.16,1.16,0,0,0-.62-.14,3,3,0,0,0-1.05.18,3.93,3.93,0,0,0-.87.45l-.41-.78a5.28,5.28,0,0,1,1.09-.53,4.1,4.1,0,0,1,1.41-.25,2.27,2.27,0,0,1,1,.2,1.66,1.66,0,0,1,.66.54,2.66,2.66,0,0,1,.39.85,4.61,4.61,0,0,1,.12,1.09v4h-.85l-.1-.71h0a4.18,4.18,0,0,1-1,.63A2.78,2.78,0,0,1,438.52,233.45Zm.29-.88a2.24,2.24,0,0,0,.86-.17,3,3,0,0,0,.85-.59v-1.93a11.92,11.92,0,0,0-1.36.17,2.83,2.83,0,0,0-.86.31,1.07,1.07,0,0,0-.44.46,1.41,1.41,0,0,0-.13.64,1,1,0,0,0,.31.84A1.11,1.11,0,0,0,438.81,232.57Z"/>
  <path class="cls-2" d="M444.16,236.11l1-2.87-2.49-6.46h1.09l1.26,3.55.29.9q.17.48.3.93h.06c.09-.3.17-.6.26-.92s.18-.62.27-.91l1.1-3.55h1l-3.16,9.33Z"/>
  <path class="cls-2" d="M449.47,226.78h.86l.09.95h0a4.14,4.14,0,0,1,.89-.79,1.81,1.81,0,0,1,1-.33,1.72,1.72,0,0,1,1.12.34,2,2,0,0,1,.59.91,5.34,5.34,0,0,1,1-.9,1.85,1.85,0,0,1,1.07-.35,1.64,1.64,0,0,1,1.43.65,3.35,3.35,0,0,1,.45,1.91v4.13h-1v-4a2.39,2.39,0,0,0-.28-1.33,1,1,0,0,0-.87-.41,2.35,2.35,0,0,0-1.56,1v4.73h-1v-4a2.39,2.39,0,0,0-.28-1.33,1,1,0,0,0-.87-.41,2.27,2.27,0,0,0-1.56,1v4.73h-1Z"/>
  <path class="cls-2" d="M462.52,233.45a2.94,2.94,0,0,1-1.15-.22,2.74,2.74,0,0,1-.94-.67,3.24,3.24,0,0,1-.64-1.07,4.35,4.35,0,0,1-.23-1.44,4,4,0,0,1,.24-1.43,3.16,3.16,0,0,1,.62-1.08,2.78,2.78,0,0,1,.89-.69,2.51,2.51,0,0,1,2.1,0,2,2,0,0,1,.77.62,2.88,2.88,0,0,1,.48,1,4.52,4.52,0,0,1,.17,1.26c0,.12,0,.24,0,.35a2.09,2.09,0,0,1,0,.28H460.6a2.61,2.61,0,0,0,.61,1.66,1.88,1.88,0,0,0,1.44.61,2.45,2.45,0,0,0,.83-.14,3.11,3.11,0,0,0,.72-.38l.38.72a4.45,4.45,0,0,1-.92.48A2.9,2.9,0,0,1,462.52,233.45Zm1.38-3.92a2.41,2.41,0,0,0-.4-1.51,1.35,1.35,0,0,0-1.13-.52,1.53,1.53,0,0,0-.64.14,1.58,1.58,0,0,0-.54.4,2.19,2.19,0,0,0-.4.63,3.1,3.1,0,0,0-.2.86Z"/>
  <path class="cls-2" d="M466.34,226.78h.86l.09.94h0a5.19,5.19,0,0,1,.94-.78,2,2,0,0,1,1.14-.33,1.66,1.66,0,0,1,1.44.65,3.35,3.35,0,0,1,.45,1.91v4.13h-1v-4A2.5,2.5,0,0,0,470,228a1,1,0,0,0-.9-.41,1.47,1.47,0,0,0-.85.26,4.41,4.41,0,0,0-.85.74v4.73h-1Z"/>
  <path class="cls-2" d="M475.26,233.45a2,2,0,0,1-.84-.15,1.46,1.46,0,0,1-.54-.44,1.83,1.83,0,0,1-.3-.68,4.16,4.16,0,0,1-.09-.9v-3.61h-.92v-.83l1-.06.12-1.82h.87v1.82h1.67v.89h-1.67v3.64a1.81,1.81,0,0,0,.2.93.83.83,0,0,0,.76.33,1.22,1.22,0,0,0,.35-.06,2.42,2.42,0,0,0,.35-.11l.21.81a4.58,4.58,0,0,1-.56.17A2.36,2.36,0,0,1,475.26,233.45Z"/>
  <path class="cls-2" d="M479.23,233.45a3.2,3.2,0,0,1-1.27-.25,4.23,4.23,0,0,1-1-.65l.51-.72a3.62,3.62,0,0,0,.84.56,2.33,2.33,0,0,0,1,.21,1.26,1.26,0,0,0,.92-.3,1,1,0,0,0,.3-.72.69.69,0,0,0-.13-.43,1.22,1.22,0,0,0-.32-.32,2,2,0,0,0-.46-.26l-.5-.22c-.22-.08-.44-.18-.66-.28a2.59,2.59,0,0,1-.59-.38,1.72,1.72,0,0,1-.43-.51,1.37,1.37,0,0,1-.17-.72,2,2,0,0,1,.14-.72,1.87,1.87,0,0,1,.42-.59,1.91,1.91,0,0,1,.67-.39,2.57,2.57,0,0,1,.9-.15,2.66,2.66,0,0,1,1.07.22,3.62,3.62,0,0,1,.86.51l-.5.7a4,4,0,0,0-.67-.41,1.7,1.7,0,0,0-.76-.16,1.16,1.16,0,0,0-.85.27.9.9,0,0,0-.28.66.69.69,0,0,0,.12.41,1.19,1.19,0,0,0,.3.29,2.58,2.58,0,0,0,.44.22l.51.21.68.29a3.06,3.06,0,0,1,.6.38,1.77,1.77,0,0,1,.44.54,1.55,1.55,0,0,1,.17.78,1.93,1.93,0,0,1-.15.75,1.54,1.54,0,0,1-.43.61,2.06,2.06,0,0,1-.71.42A2.85,2.85,0,0,1,479.23,233.45Z"/>
  <path class="cls-2" d="M485.44,223.18h.75l-3.41,11.67H482Z"/>
  <path class="cls-2" d="M488.61,234.62a1,1,0,0,1-.47-.29,1.35,1.35,0,0,1-.27-.55,3.41,3.41,0,0,1-.09-.87c0-.24,0-.46,0-.68s0-.43,0-.63,0-.41,0-.62,0-.42,0-.65a1.73,1.73,0,0,0-.05-.38,1,1,0,0,0-.17-.34,1,1,0,0,0-.34-.24,1.36,1.36,0,0,0-.53-.09v-.69a1.36,1.36,0,0,0,.53-.09,1,1,0,0,0,.34-.24,1,1,0,0,0,.17-.33,1.65,1.65,0,0,0,.05-.38c0-.22,0-.44,0-.65s0-.41,0-.62,0-.42,0-.64,0-.44,0-.68a3.58,3.58,0,0,1,.09-.87,1.35,1.35,0,0,1,.27-.55,1.07,1.07,0,0,1,.47-.29,2.59,2.59,0,0,1,.66-.08h.56v.61h-.33a.72.72,0,0,0-.69.3,1.85,1.85,0,0,0-.18.94q0,.61,0,1.17c0,.38,0,.8,0,1.26a2.29,2.29,0,0,1-.17,1,.91.91,0,0,1-.59.47v0a1,1,0,0,1,.59.48,2.35,2.35,0,0,1,.17,1c0,.45,0,.87,0,1.25s0,.78,0,1.18a1.83,1.83,0,0,0,.18.94.73.73,0,0,0,.69.29h.33v.62h-.56A2.59,2.59,0,0,1,488.61,234.62Z"/>
  <path class="cls-2" d="M493.21,233.45a2,2,0,0,1-.83-.15,1.41,1.41,0,0,1-.55-.44,2,2,0,0,1-.29-.68,4.16,4.16,0,0,1-.09-.9v-3.61h-.93v-.83l1-.06.13-1.82h.86v1.82h1.68v.89h-1.68v3.64a1.71,1.71,0,0,0,.21.93.82.82,0,0,0,.75.33,1.17,1.17,0,0,0,.35-.06l.36-.11.2.81a4.1,4.1,0,0,1-.56.17A2.3,2.3,0,0,1,493.21,233.45Z"/>
  <path class="cls-2" d="M496.09,225.44a.73.73,0,0,1-.52-.2.69.69,0,0,1-.2-.51.69.69,0,0,1,.2-.52.73.73,0,0,1,.52-.19.72.72,0,0,1,.51.19.76.76,0,0,1,0,1A.73.73,0,0,1,496.09,225.44Zm-.53,1.34h1v6.52h-1Z"/>
  <path class="cls-2" d="M500.81,233.45a2.45,2.45,0,0,1-1.06-.22,2.42,2.42,0,0,1-.8-.66,3.44,3.44,0,0,1-.52-1.07,5.38,5.38,0,0,1-.18-1.45,4.52,4.52,0,0,1,.22-1.43,3.47,3.47,0,0,1,.59-1.08,2.54,2.54,0,0,1,.85-.69,2.25,2.25,0,0,1,1-.24,2,2,0,0,1,.94.21,3.77,3.77,0,0,1,.8.56l-.05-1.13v-2.5h1v9.55h-.84l-.1-.77h0a3.62,3.62,0,0,1-.85.65A2.06,2.06,0,0,1,500.81,233.45Zm.22-.92a1.6,1.6,0,0,0,.82-.22,3.1,3.1,0,0,0,.77-.68v-3.41a2.93,2.93,0,0,0-.76-.53,1.93,1.93,0,0,0-.75-.15,1.43,1.43,0,0,0-.7.18,1.94,1.94,0,0,0-.57.51,2.52,2.52,0,0,0-.38.79,3.52,3.52,0,0,0-.14,1,3.23,3.23,0,0,0,.45,1.84A1.43,1.43,0,0,0,501,232.53Z"/>
  <path class="cls-2" d="M505.1,234.08h.33a.75.75,0,0,0,.7-.29,2,2,0,0,0,.17-.94c0-.4,0-.8,0-1.18s0-.8,0-1.25a2.19,2.19,0,0,1,.18-1A.93.93,0,0,1,507,229v0a.9.9,0,0,1-.58-.47,2.13,2.13,0,0,1-.18-1q0-.69,0-1.26t0-1.17a2,2,0,0,0-.17-.94.74.74,0,0,0-.7-.3h-.33v-.61h.57a2.59,2.59,0,0,1,.66.08,1.13,1.13,0,0,1,.47.29,1.35,1.35,0,0,1,.27.55,3.11,3.11,0,0,1,.1.87c0,.24,0,.47,0,.68l0,.64,0,.62c0,.21,0,.43,0,.65a1.65,1.65,0,0,0,.05.38.87.87,0,0,0,.17.33,1.08,1.08,0,0,0,.33.24,1.38,1.38,0,0,0,.54.09v.69a1.38,1.38,0,0,0-.54.09,1.08,1.08,0,0,0-.33.24.84.84,0,0,0-.17.34,1.73,1.73,0,0,0-.05.38c0,.23,0,.44,0,.65s0,.42,0,.62l0,.63c0,.22,0,.44,0,.68a3,3,0,0,1-.1.87,1.35,1.35,0,0,1-.27.55,1,1,0,0,1-.47.29,2.59,2.59,0,0,1-.66.08h-.57Z"/>
  <path class="cls-2" d="M419.82,243v.8h-9.25V243Zm-.88-.85a6.51,6.51,0,0,1-1.15-.31,6.1,6.1,0,0,1-1.06-.51,4.63,4.63,0,0,1-.88-.69,3.22,3.22,0,0,1-.64-.85,3.11,3.11,0,0,1-.64.86,5.42,5.42,0,0,1-.88.68,6.1,6.1,0,0,1-1.06.51,6.72,6.72,0,0,1-1.17.31l-.34-.77a6.35,6.35,0,0,0,1.34-.37,5.07,5.07,0,0,0,1.15-.63,3.64,3.64,0,0,0,.81-.86,1.84,1.84,0,0,0,.31-1V238h1v.48a1.83,1.83,0,0,0,.31,1,3.64,3.64,0,0,0,.82.85A5.3,5.3,0,0,0,418,241a6.11,6.11,0,0,0,1.33.37Zm-3.74,2.64a5.5,5.5,0,0,1,2.56.49,1.55,1.55,0,0,1,.92,1.42,1.41,1.41,0,0,1-.24.82,2,2,0,0,1-.69.61,3.76,3.76,0,0,1-1.09.37,8,8,0,0,1-1.46.13,5.53,5.53,0,0,1-2.57-.5,1.56,1.56,0,0,1-.94-1.43,1.4,1.4,0,0,1,.24-.81,1.81,1.81,0,0,1,.7-.6,3.83,3.83,0,0,1,1.1-.38A8.09,8.09,0,0,1,415.2,244.75Zm0,3.07a4.72,4.72,0,0,0,1.88-.3.93.93,0,0,0,.67-.85,1,1,0,0,0-.67-.86,4.72,4.72,0,0,0-1.88-.3,4.8,4.8,0,0,0-1.9.3.94.94,0,0,0-.67.86.92.92,0,0,0,.67.85A4.8,4.8,0,0,0,415.2,247.82Z"/>
  <path class="cls-2" d="M426.65,241.22a2.65,2.65,0,0,1-.21,1.07,2.34,2.34,0,0,1-.56.84,2.54,2.54,0,0,1-.85.55,2.68,2.68,0,0,1-1.07.2,2.59,2.59,0,0,1-1-.2,2.45,2.45,0,0,1-.85-.55,2.47,2.47,0,0,1-.56-.84,2.83,2.83,0,0,1-.2-1.07,2.78,2.78,0,0,1,.2-1.06,2.47,2.47,0,0,1,.56-.84,2.45,2.45,0,0,1,.85-.55,2.76,2.76,0,0,1,1-.19,2.87,2.87,0,0,1,1.07.19,2.54,2.54,0,0,1,.85.55,2.34,2.34,0,0,1,.56.84A2.61,2.61,0,0,1,426.65,241.22Zm-4.42,0a1.93,1.93,0,0,0,.13.73,1.58,1.58,0,0,0,.36.58,1.69,1.69,0,0,0,1.24.5,1.78,1.78,0,0,0,.7-.13,1.7,1.7,0,0,0,.57-.37,1.75,1.75,0,0,0,.37-.58,2.15,2.15,0,0,0,.13-.73,2,2,0,0,0-.13-.72,1.63,1.63,0,0,0-.94-.94,1.78,1.78,0,0,0-.7-.13,1.69,1.69,0,0,0-1.24.5,1.54,1.54,0,0,0-.36.57A1.81,1.81,0,0,0,422.23,241.22Zm7.53,6.32v.81h-6.88v-3.46h.93v2.65Zm-.31-1.85h-.93v-7.86h.93Z"/>
  <path class="cls-2" d="M438.47,245h-3.05l-.81,2.69h-1.08l2.84-8.8h1.18l2.84,8.8h-1.12Zm-.26-.89-.4-1.35c-.15-.5-.3-1-.43-1.48s-.28-1-.41-1.5h-.05c-.13.52-.26,1-.4,1.5s-.28,1-.43,1.48l-.41,1.35Z"/>
  <path class="cls-2" d="M441.56,238.9H444a6.22,6.22,0,0,1,1.28.13,2.64,2.64,0,0,1,1,.44,2,2,0,0,1,.64.8,2.9,2.9,0,0,1,.23,1.21,3,3,0,0,1-.22,1.21,2.21,2.21,0,0,1-.64.86,2.58,2.58,0,0,1-1,.49,4.39,4.39,0,0,1-1.25.17h-1.38v3.49h-1.06Zm2.3,4.42a2.57,2.57,0,0,0,1.64-.44,1.74,1.74,0,0,0,.53-1.4,1.49,1.49,0,0,0-.55-1.32,3,3,0,0,0-1.66-.37h-1.2v3.53Z"/>
  <path class="cls-2" d="M448.77,238.9h1.05v8.8h-1.05Z"/>
  <path class="cls-2" d="M463.39,246.52v.81h-9.27v-.81h4.16V245a4.23,4.23,0,0,1-2.12-.61,1.63,1.63,0,0,1-.77-1.43,1.65,1.65,0,0,1,.23-.86,2,2,0,0,1,.67-.65,3.55,3.55,0,0,1,1.06-.39,6.57,6.57,0,0,1,1.4-.14,6.41,6.41,0,0,1,1.37.14,3.59,3.59,0,0,1,1.05.39,2,2,0,0,1,.67.65,1.65,1.65,0,0,1,.23.86,1.63,1.63,0,0,1-.76,1.42,4.11,4.11,0,0,1-2.09.62v1.51Zm-.51-6.32h-8.3v-.81h3.7V238h.94v1.4h3.66ZM456.32,243a1,1,0,0,0,.65.95,4,4,0,0,0,1.78.33,3.82,3.82,0,0,0,1.74-.33,1,1,0,0,0,0-1.88,3.82,3.82,0,0,0-1.74-.33A4,4,0,0,0,457,242,1,1,0,0,0,456.32,243Z"/>
  <path class="cls-2" d="M469.71,243.35v1h3v2.35h-6v1H473v.75h-7.24V246h6v-.91h-6v-.73h3v-1h-4.14v-.76h9.23v.76Zm-4.61-2a8,8,0,0,0,1.34-.19,5.44,5.44,0,0,0,1.12-.39,2.61,2.61,0,0,0,.79-.56,1.26,1.26,0,0,0,.37-.72h-3.16v-.74h3.21v-1h.94v1h3.2v.74h-3.15a1.3,1.3,0,0,0,.36.72,2.49,2.49,0,0,0,.79.56,5.15,5.15,0,0,0,1.11.39,8,8,0,0,0,1.35.19l-.29.75a7.91,7.91,0,0,1-1.23-.18,6.34,6.34,0,0,1-1.09-.34,3.64,3.64,0,0,1-.89-.51.63.63,0,1,0-1.26,0,3.83,3.83,0,0,1-.89.51,7.07,7.07,0,0,1-1.1.34,8.23,8.23,0,0,1-1.24.18Z"/>
  <path class="cls-2" d="M576.82,235.07v.8h-9.25v-.8Zm-.88-.85a6.86,6.86,0,0,1-1.16-.31,6.37,6.37,0,0,1-1-.51,5,5,0,0,1-.89-.69,3.41,3.41,0,0,1-.63-.85,3.32,3.32,0,0,1-.64.86,5.42,5.42,0,0,1-.88.68,6.1,6.1,0,0,1-1.06.51,7,7,0,0,1-1.17.31l-.34-.77a6.72,6.72,0,0,0,1.33-.37,4.94,4.94,0,0,0,1.16-.63,3.4,3.4,0,0,0,.8-.86,1.76,1.76,0,0,0,.31-1v-.48h1v.48a1.78,1.78,0,0,0,.31,1,3.59,3.59,0,0,0,.81.85,5.63,5.63,0,0,0,1.16.65,6.63,6.63,0,0,0,1.32.37Zm-3.74,2.63a5.49,5.49,0,0,1,2.56.5,1.55,1.55,0,0,1,.92,1.42,1.41,1.41,0,0,1-.24.82,2,2,0,0,1-.69.61,4.09,4.09,0,0,1-1.09.37,8,8,0,0,1-1.46.13,5.58,5.58,0,0,1-2.58-.5,1.57,1.57,0,0,1-.93-1.43,1.38,1.38,0,0,1,.24-.81,2,2,0,0,1,.69-.61,4.38,4.38,0,0,1,1.11-.37A8,8,0,0,1,572.2,236.85Zm0,3.08a4.76,4.76,0,0,0,1.88-.3.93.93,0,0,0,.66-.86.94.94,0,0,0-.66-.85,6.1,6.1,0,0,0-3.78,0,.94.94,0,0,0-.67.85.92.92,0,0,0,.67.86A4.8,4.8,0,0,0,572.2,239.93Z"/>
  <path class="cls-2" d="M583.65,233.33a2.65,2.65,0,0,1-.21,1.07,2.58,2.58,0,0,1-.56.84,2.49,2.49,0,0,1-.86.55,2.63,2.63,0,0,1-1.06.2,2.59,2.59,0,0,1-1.05-.2,2.49,2.49,0,0,1-1.41-1.39,2.83,2.83,0,0,1-.2-1.07,2.87,2.87,0,0,1,.2-1.07,2.39,2.39,0,0,1,.56-.83,2.45,2.45,0,0,1,.85-.55,2.76,2.76,0,0,1,1.05-.19,2.81,2.81,0,0,1,1.06.19,2.49,2.49,0,0,1,.86.55,2.53,2.53,0,0,1,.56.83A2.69,2.69,0,0,1,583.65,233.33Zm-4.43,0a2.15,2.15,0,0,0,.13.73,1.85,1.85,0,0,0,.37.58,1.62,1.62,0,0,0,.55.37,1.73,1.73,0,0,0,.69.13,1.82,1.82,0,0,0,.7-.13,1.66,1.66,0,0,0,.56-.37,1.69,1.69,0,0,0,.37-.58,1.93,1.93,0,0,0,.13-.73,1.81,1.81,0,0,0-.13-.72,1.56,1.56,0,0,0-.37-.57,1.66,1.66,0,0,0-.56-.37,1.82,1.82,0,0,0-.7-.13,1.73,1.73,0,0,0-.69.13,1.62,1.62,0,0,0-.55.37,1.7,1.7,0,0,0-.37.57A2,2,0,0,0,579.22,233.33Zm7.54,6.32v.8h-6.89V237h.94v2.65Zm-.31-1.85h-.93v-7.86h.93Z"/>
  <path class="cls-2" d="M571.11,247.81a4.23,4.23,0,0,0,.2,1.32,5.08,5.08,0,0,0,.54,1.21,4.81,4.81,0,0,0,.83,1,4.05,4.05,0,0,0,1.05.71l-.51.75a4.26,4.26,0,0,1-1.55-1.24,5.9,5.9,0,0,1-1-1.9,6.11,6.11,0,0,1-1,2,4.53,4.53,0,0,1-1.54,1.34l-.53-.76a4.16,4.16,0,0,0,1-.75,5.21,5.21,0,0,0,1.37-2.33,4.92,4.92,0,0,0,.19-1.37V247h-2.31v-.79h2.3v-1.67h.94v1.67h2.27V247h-2.27Zm4.89-3.49v10.8h-.94v-5.67h-2.21v-.8h2.21v-4.33Z"/>
  <path class="cls-2" d="M579.59,251.7l1.23,0c.4,0,.81,0,1.21-.06l1.23-.12c.42-.05.85-.11,1.3-.19l.09.8c-.46.08-.91.15-1.34.2l-1.27.12-1.25.06h-2.14v-4.13h3.77v-2.24h-3.8v-.8h4.73v3.85h-3.76Zm6.86-7.38v10.79h-.93V244.32Z"/>
  <path class="cls-2" d="M427.83,288.86v.8h-9.25v-.8ZM427,288a6.51,6.51,0,0,1-1.15-.31,6.1,6.1,0,0,1-1.06-.51,4.63,4.63,0,0,1-.88-.69,3.22,3.22,0,0,1-.64-.85,3.32,3.32,0,0,1-.64.86,5.42,5.42,0,0,1-.88.68,6.1,6.1,0,0,1-1.06.51,6.72,6.72,0,0,1-1.17.31l-.34-.77a5.81,5.81,0,0,0,1.34-.37,5.07,5.07,0,0,0,1.15-.63,3.64,3.64,0,0,0,.81-.86,1.83,1.83,0,0,0,.3-1v-.48h1v.48a1.83,1.83,0,0,0,.31,1,3.64,3.64,0,0,0,.82.85,5.3,5.3,0,0,0,1.15.65,6.11,6.11,0,0,0,1.33.37Zm-3.74,2.64a5.5,5.5,0,0,1,2.56.49,1.55,1.55,0,0,1,.92,1.42,1.47,1.47,0,0,1-.24.83,2.05,2.05,0,0,1-.69.6,3.76,3.76,0,0,1-1.09.37,8,8,0,0,1-1.46.13,5.5,5.5,0,0,1-2.57-.5,1.56,1.56,0,0,1-.94-1.43,1.4,1.4,0,0,1,.24-.81,1.81,1.81,0,0,1,.7-.6,3.83,3.83,0,0,1,1.1-.38A8.09,8.09,0,0,1,423.21,290.65Zm0,3.07a4.76,4.76,0,0,0,1.88-.3.92.92,0,0,0,.66-.85.94.94,0,0,0-.66-.86,6.1,6.1,0,0,0-3.78,0,.94.94,0,0,0-.67.86.92.92,0,0,0,.67.85A4.8,4.8,0,0,0,423.21,293.72Z"/>
  <path class="cls-2" d="M434.66,287.12a2.65,2.65,0,0,1-.21,1.07,2.47,2.47,0,0,1-.56.84,2.54,2.54,0,0,1-.85.55,2.72,2.72,0,0,1-1.07.2,2.59,2.59,0,0,1-1.05-.2,2.45,2.45,0,0,1-.85-.55,2.34,2.34,0,0,1-.56-.84,2.83,2.83,0,0,1-.2-1.07,2.78,2.78,0,0,1,.2-1.06,2.34,2.34,0,0,1,.56-.84,2.45,2.45,0,0,1,.85-.55,2.76,2.76,0,0,1,1.05-.19,2.9,2.9,0,0,1,1.07.19,2.54,2.54,0,0,1,.85.55,2.47,2.47,0,0,1,.56.84A2.61,2.61,0,0,1,434.66,287.12Zm-4.43,0a1.94,1.94,0,0,0,.14.73,1.58,1.58,0,0,0,.36.58,1.62,1.62,0,0,0,.55.37,1.73,1.73,0,0,0,.69.13,1.78,1.78,0,0,0,.7-.13,1.57,1.57,0,0,0,.56-.37,1.6,1.6,0,0,0,.37-.58,1.93,1.93,0,0,0,.13-.73,1.81,1.81,0,0,0-.13-.72,1.65,1.65,0,0,0-.93-.94,1.78,1.78,0,0,0-.7-.13,1.73,1.73,0,0,0-.69.13,1.62,1.62,0,0,0-.55.37,1.54,1.54,0,0,0-.36.57A1.81,1.81,0,0,0,430.23,287.12Zm7.54,6.32v.81h-6.88v-3.46h.93v2.65Zm-.31-1.85h-.93v-7.86h.93Z"/>
  <path class="cls-2" d="M451.35,289v.8h-9.24V289ZM446.73,284a7.4,7.4,0,0,1,1.49.14,3.75,3.75,0,0,1,1.13.4,2,2,0,0,1,.72.65,1.6,1.6,0,0,1,0,1.72,2,2,0,0,1-.72.64,3.75,3.75,0,0,1-1.13.4,6.74,6.74,0,0,1-1.49.14,6.86,6.86,0,0,1-1.49-.14,3.75,3.75,0,0,1-1.13-.4,2,2,0,0,1-.72-.64,1.6,1.6,0,0,1,0-1.72,2,2,0,0,1,.72-.65,3.75,3.75,0,0,1,1.13-.4A7.55,7.55,0,0,1,446.73,284Zm0,6.63a5.46,5.46,0,0,1,2.56.5,1.56,1.56,0,0,1,0,2.86,5.46,5.46,0,0,1-2.56.5,8,8,0,0,1-1.46-.13,3.94,3.94,0,0,1-1.1-.37,2,2,0,0,1-.69-.61,1.44,1.44,0,0,1-.24-.82,1.41,1.41,0,0,1,.24-.82,2,2,0,0,1,.69-.61,4.3,4.3,0,0,1,1.1-.37A8,8,0,0,1,446.73,290.63Zm0-5.86a4.62,4.62,0,0,0-1.93.33,1,1,0,0,0,0,1.89,5.78,5.78,0,0,0,3.85,0,1,1,0,0,0,0-1.89A4.6,4.6,0,0,0,446.74,284.77Zm0,6.63a4.53,4.53,0,0,0-1.88.31.88.88,0,0,0,0,1.71,4.72,4.72,0,0,0,1.88.3,4.67,4.67,0,0,0,1.87-.3.88.88,0,0,0,0-1.71A4.48,4.48,0,0,0,446.74,291.4Z"/>
  <path class="cls-2" d="M458.62,288.72c-.35.08-.69.14-1,.19s-.7.08-1.07.11-.77.05-1.21.06l-1.44,0h-.8v-4.67h4.5v.79H454v3.07h1.37c.41,0,.79,0,1.15-.06s.69-.06,1-.11a9.44,9.44,0,0,0,1-.18Zm1,1.33h.93v4.26h-6.45v-4.26H455v1.34h4.59Zm0,2.11H455v1.34h4.59Zm2.44-5.1h-1.51v2.4h-.94v-5.74h.94v2.53h1.51Z"/>
  <line class="cls-3" x1="532.25" y1="274.87" x2="352.22" y2="274.87"/>
  <line class="cls-3" x1="532.25" y1="214.82" x2="352.22" y2="214.82"/>
  <path class="cls-3" d="M531.75,214.82a30,30,0,0,1,0,60"/>
  <polygon class="cls-4" points="525.66 222.02 525.66 207.62 537.66 214.82 525.66 222.02"/>
  <polygon class="cls-10" points="344.62 222.02 344.62 207.62 356.62 214.82 344.62 222.02"/>
  <polygon class="cls-4" points="537.66 267.67 537.66 282.07 525.66 274.87 537.66 267.67"/>
  <polygon class="cls-10" points="356.62 267.67 356.62 282.07 344.62 274.87 356.62 267.67"/>
  <path class="cls-7" d="M173,214.83c-16.57,0-30-6.71-30-15s13.43-15,30-15"/>
  <circle class="cls-6" cx="170.6" cy="184.83" r="5"/>
  <polygon class="cls-6" points="164.03 222.22 164.03 207.82 176.03 215.02 164.03 222.22"/>
</svg>