<?xml version="1.0" encoding="utf-8"?>
<svg id="_迹_1" data-name="卵迹_1" viewBox="93.055 0 544.133 347.045" xmlns="http://www.w3.org/2000/svg">
  <defs>
    <style>.cls-1{fill:#f7f7f7;}.cls-2{fill:#767676;}.cls-3,.cls-4,.cls-8{fill:none;}.cls-3,.cls-4{stroke:#9e9e9e;}.cls-3,.cls-4,.cls-7,.cls-8{stroke-miterlimit:10;}.cls-4{stroke-dasharray:4;}.cls-5{fill:#233976;}.cls-6{fill:#9e9e9e;}.cls-7{fill:#f6f6f6;opacity:0.4;}.cls-7,.cls-8{stroke:#4064c3;stroke-width:2px;}.cls-9{fill:#c1411a;}</style>
  </defs>
  <title>비대면 플랫폼 웹메뉴얼_outline</title>
  <rect class="cls-1" x="155.87" y="66.32" width="30" height="250" rx="15"/>
  <rect class="cls-1" x="335.48" y="66.32" width="30" height="250" rx="15"/>
  <rect class="cls-1" x="516.79" y="66.32" width="30" height="250" rx="15"/>
  <path d="M331.08,46A5.6,5.6,0,0,1,327,44.22l.88-1a4.92,4.92,0,0,0,1.49,1.07,4.18,4.18,0,0,0,1.76.39,2.83,2.83,0,0,0,1.81-.53,1.68,1.68,0,0,0,.66-1.39,1.61,1.61,0,0,0-.16-.76,1.68,1.68,0,0,0-.41-.54,2.78,2.78,0,0,0-.62-.41l-.77-.37-1.69-.74a5,5,0,0,1-.83-.42,3.45,3.45,0,0,1-.77-.61,2.65,2.65,0,0,1-.57-.85,2.8,2.8,0,0,1-.22-1.12,2.9,2.9,0,0,1,.28-1.25,3,3,0,0,1,.77-1,3.5,3.5,0,0,1,1.17-.65,4.42,4.42,0,0,1,1.48-.23,4.61,4.61,0,0,1,1.94.4,4.74,4.74,0,0,1,1.52,1l-.79,1a4.38,4.38,0,0,0-1.2-.81,3.51,3.51,0,0,0-1.47-.3,2.52,2.52,0,0,0-1.6.47,1.53,1.53,0,0,0-.59,1.26,1.56,1.56,0,0,0,.17.74,1.88,1.88,0,0,0,.45.52,2.8,2.8,0,0,0,.63.39l.68.3,1.68.72a7.86,7.86,0,0,1,1,.5,3.35,3.35,0,0,1,.76.64,2.81,2.81,0,0,1,.52.85,3.35,3.35,0,0,1,.18,1.15,3,3,0,0,1-.28,1.3A3.27,3.27,0,0,1,334,45a3.67,3.67,0,0,1-1.26.71A5.05,5.05,0,0,1,331.08,46Z" style="fill: rgb(118, 118, 118);"/>
  <path d="M340.74,46a4.14,4.14,0,0,1-1.62-.31,3.73,3.73,0,0,1-1.32-.88,4.18,4.18,0,0,1-.89-1.44,5.69,5.69,0,0,1,0-3.82,4.47,4.47,0,0,1,.87-1.44,3.73,3.73,0,0,1,1.26-.91,3.48,3.48,0,0,1,1.47-.32,3.57,3.57,0,0,1,1.47.28,3.08,3.08,0,0,1,1.09.83,3.94,3.94,0,0,1,.67,1.29,5.83,5.83,0,0,1,.23,1.68c0,.16,0,.31,0,.45s0,.27,0,.38H338a3.33,3.33,0,0,0,.85,2.21,2.68,2.68,0,0,0,2,.81,3.57,3.57,0,0,0,1.16-.18,4,4,0,0,0,1-.51l.53,1a6.65,6.65,0,0,1-1.28.64A4.44,4.44,0,0,1,340.74,46Zm1.94-5.23a3.1,3.1,0,0,0-.57-2,2,2,0,0,0-1.59-.69,2.25,2.25,0,0,0-.89.18,2.37,2.37,0,0,0-.76.53,2.73,2.73,0,0,0-.56.85,3.66,3.66,0,0,0-.29,1.15Z" style="fill: rgb(118, 118, 118);"/>
  <path d="M346.1,37.07h1.2l.13,1.59h.05a4.17,4.17,0,0,1,1.09-1.33,2.22,2.22,0,0,1,1.37-.48,2.47,2.47,0,0,1,.5,0,1.16,1.16,0,0,1,.43.15l-.27,1.28a3.11,3.11,0,0,0-.4-.11,2.68,2.68,0,0,0-.45,0,1.74,1.74,0,0,0-.57.11,1.83,1.83,0,0,0-.58.34,2.57,2.57,0,0,0-.56.61,3.6,3.6,0,0,0-.48.94v5.59H346.1Z" style="fill: rgb(118, 118, 118);"/>
  <path d="M351.51,37.07H353L354.66,42c.14.43.27.86.41,1.3s.27.86.4,1.27h.07l.4-1.27c.14-.44.27-.87.4-1.3L358,37.07h1.44l-3.09,8.69h-1.7Z" style="fill: rgb(118, 118, 118);"/>
  <path d="M364.61,46a4.14,4.14,0,0,1-1.62-.31,3.73,3.73,0,0,1-1.32-.88,4.18,4.18,0,0,1-.89-1.44,5.69,5.69,0,0,1,0-3.82,4.47,4.47,0,0,1,.87-1.44,3.83,3.83,0,0,1,1.26-.91,3.48,3.48,0,0,1,1.47-.32,3.54,3.54,0,0,1,1.47.28,3.08,3.08,0,0,1,1.09.83,3.94,3.94,0,0,1,.67,1.29,5.51,5.51,0,0,1,.23,1.68c0,.16,0,.31,0,.45a3.22,3.22,0,0,1-.05.38h-5.87a3.33,3.33,0,0,0,.85,2.21,2.68,2.68,0,0,0,2,.81A3.57,3.57,0,0,0,366,44.6a4,4,0,0,0,1-.51l.53,1a6.65,6.65,0,0,1-1.28.64A4.44,4.44,0,0,1,364.61,46Zm1.94-5.23a3.1,3.1,0,0,0-.57-2,2,2,0,0,0-1.59-.69,2.25,2.25,0,0,0-.89.18,2.48,2.48,0,0,0-.76.53,2.73,2.73,0,0,0-.56.85,3.66,3.66,0,0,0-.29,1.15Z" style="fill: rgb(118, 118, 118);"/>
  <path d="M370,37.07h1.2l.13,1.59h.05a4.3,4.3,0,0,1,1.09-1.33,2.22,2.22,0,0,1,1.37-.48,2.47,2.47,0,0,1,.5,0,1.16,1.16,0,0,1,.43.15l-.27,1.28a3.11,3.11,0,0,0-.4-.11,2.68,2.68,0,0,0-.45,0,1.74,1.74,0,0,0-.57.11,1.83,1.83,0,0,0-.58.34,2.57,2.57,0,0,0-.56.61,3.93,3.93,0,0,0-.48.94v5.59H370Z" style="fill: rgb(118, 118, 118);"/>
  <path d="M503.59,34h1.53l4.28,7.39,1.24,2.42h.08c0-.6-.08-1.21-.12-1.85s-.07-1.25-.07-1.86V34h1.41V45.76h-1.52l-4.27-7.4L504.88,36h-.06c0,.6.07,1.2.11,1.81S505,39,505,39.61v6.15h-1.41Z" style="fill: rgb(118, 118, 118);"/>
  <path d="M515.75,35.28A1,1,0,0,1,515,35a1,1,0,0,1,0-1.37,1.16,1.16,0,0,1,1.44,0,1,1,0,0,1,0,1.37A1,1,0,0,1,515.75,35.28ZM515,37.07h1.46v8.69H515Z" style="fill: rgb(118, 118, 118);"/>
  <path d="M522.84,46a4.05,4.05,0,0,1-1.61-.31,3.74,3.74,0,0,1-1.3-.88,4.17,4.17,0,0,1-.86-1.43,5.47,5.47,0,0,1-.31-1.93,5.07,5.07,0,0,1,.34-1.93,4.4,4.4,0,0,1,.92-1.44,3.69,3.69,0,0,1,1.34-.9,4.24,4.24,0,0,1,1.59-.3,3.16,3.16,0,0,1,1.47.31,4.56,4.56,0,0,1,1.07.72l-.75,1a4.2,4.2,0,0,0-.8-.57,2.06,2.06,0,0,0-.94-.21,2.47,2.47,0,0,0-2,.92,3.47,3.47,0,0,0-.57,1.06,4.84,4.84,0,0,0,0,2.72,3.08,3.08,0,0,0,.55,1,2.63,2.63,0,0,0,.85.67,2.42,2.42,0,0,0,1.09.24,2.59,2.59,0,0,0,1.12-.25,4,4,0,0,0,.93-.62l.63,1a4.33,4.33,0,0,1-1.3.82A3.86,3.86,0,0,1,522.84,46Z" style="fill: rgb(118, 118, 118);"/>
  <path d="M530.68,46a4.22,4.22,0,0,1-1.63-.31,3.92,3.92,0,0,1-1.32-.88,4.34,4.34,0,0,1-.89-1.44,5.44,5.44,0,0,1-.32-1.92,5.19,5.19,0,0,1,.33-1.9,4.14,4.14,0,0,1,.87-1.44,3.63,3.63,0,0,1,1.26-.91,3.41,3.41,0,0,1,1.46-.32,3.62,3.62,0,0,1,1.48.28A3,3,0,0,1,533,38a3.78,3.78,0,0,1,.68,1.29,5.83,5.83,0,0,1,.23,1.68c0,.16,0,.31,0,.45a2,2,0,0,1,0,.38H528a3.38,3.38,0,0,0,.86,2.21,2.67,2.67,0,0,0,2,.81A3.59,3.59,0,0,0,532,44.6a4.17,4.17,0,0,0,1-.51l.53,1a7,7,0,0,1-1.28.64A4.47,4.47,0,0,1,530.68,46Zm1.93-5.23a3.1,3.1,0,0,0-.57-2,1.92,1.92,0,0,0-1.59-.69,2.28,2.28,0,0,0-.89.18,2.61,2.61,0,0,0-.76.53,2.92,2.92,0,0,0-.56.85,4,4,0,0,0-.28,1.15Z" style="fill: rgb(118, 118, 118);"/>
  <path d="M536,37.07h1.2l.12,1h0a8.32,8.32,0,0,1,1.3-.85,3.37,3.37,0,0,1,2.95,0,3.13,3.13,0,0,1,1.09.89,4.17,4.17,0,0,1,.66,1.39,6.94,6.94,0,0,1,.23,1.83,5.81,5.81,0,0,1-.32,2,4.37,4.37,0,0,1-.83,1.47,3.54,3.54,0,0,1-1.2.92,3.5,3.5,0,0,1-1.43.31,3,3,0,0,1-1.2-.27,5.18,5.18,0,0,1-1.2-.75l0,1.52v3H536Zm3.58,7.67a2.11,2.11,0,0,0,1-.24,2.43,2.43,0,0,0,.79-.68,3.1,3.1,0,0,0,.52-1.08,5,5,0,0,0,.19-1.45A6.53,6.53,0,0,0,542,40a3.24,3.24,0,0,0-.4-1,1.85,1.85,0,0,0-.71-.65,2.23,2.23,0,0,0-1-.23,2.39,2.39,0,0,0-1.13.3,5.79,5.79,0,0,0-1.21.9v4.55a3.7,3.7,0,0,0,1.15.7A2.75,2.75,0,0,0,539.62,44.74Z" style="fill: rgb(118, 118, 118);"/>
  <path d="M547.68,46a2.73,2.73,0,0,1-1-.18,2.26,2.26,0,0,1-.8-.5,2.33,2.33,0,0,1-.53-.8,2.74,2.74,0,0,1-.19-1.06,2.5,2.5,0,0,1,1.38-2.4,8.82,8.82,0,0,1,4-.76,4.47,4.47,0,0,0-.08-.82,2,2,0,0,0-.28-.7,1.54,1.54,0,0,0-.55-.49,1.94,1.94,0,0,0-.88-.18,4.28,4.28,0,0,0-1.47.25,4.79,4.79,0,0,0-1.22.6l-.58-1a7.85,7.85,0,0,1,1.53-.71,5.83,5.83,0,0,1,2-.32,3.37,3.37,0,0,1,1.36.25,2.41,2.41,0,0,1,.93.73,3.29,3.29,0,0,1,.54,1.13,5.48,5.48,0,0,1,.18,1.45v5.35h-1.2l-.13-.94h0a5.91,5.91,0,0,1-1.35.83A3.87,3.87,0,0,1,547.68,46Zm.42-1.19a3.16,3.16,0,0,0,1.2-.22,4.49,4.49,0,0,0,1.2-.78V41.2a15.15,15.15,0,0,0-1.91.23,4.05,4.05,0,0,0-1.21.41,1.4,1.4,0,0,0-.62.61,1.94,1.94,0,0,0-.18.86,1.36,1.36,0,0,0,.43,1.11A1.65,1.65,0,0,0,548.1,44.78Z" style="fill: rgb(118, 118, 118);"/>
  <path d="M555.6,49.5,557,45.68l-3.48-8.61H555l1.77,4.74c.13.37.27.77.41,1.2s.29.83.42,1.23h.08l.37-1.23.37-1.2L560,37.07h1.43L557,49.5Z" style="fill: rgb(118, 118, 118);"/>
  <path d="M122.36,46a5,5,0,0,1-2-.41,4.51,4.51,0,0,1-1.62-1.19,5.68,5.68,0,0,1-1.08-1.92,8,8,0,0,1-.38-2.55,7.76,7.76,0,0,1,.39-2.55,5.8,5.8,0,0,1,1.09-1.92,4.59,4.59,0,0,1,1.65-1.21,5.2,5.2,0,0,1,2.07-.41,4.17,4.17,0,0,1,1,.12,4.93,4.93,0,0,1,.89.32,4.81,4.81,0,0,1,.73.47,4.4,4.4,0,0,1,.59.54l-.8,1a4.1,4.1,0,0,0-1-.81,2.92,2.92,0,0,0-1.35-.31,3.46,3.46,0,0,0-1.52.33,3.28,3.28,0,0,0-1.16.94,4.51,4.51,0,0,0-.76,1.5,7.16,7.16,0,0,0-.26,2,7.34,7.34,0,0,0,.26,2,4.61,4.61,0,0,0,.72,1.51,3.2,3.2,0,0,0,1.15,1,3.27,3.27,0,0,0,1.52.34,3.19,3.19,0,0,0,1.5-.35,5,5,0,0,0,1.22-1l.81.93a5,5,0,0,1-1.57,1.24A4.5,4.5,0,0,1,122.36,46Z" style="fill: rgb(118, 118, 118);"/>
  <path d="M128,45.76V33h1.46V45.76Z" style="fill: rgb(118, 118, 118);"/>
  <path d="M133.12,35.28a1,1,0,0,1-.72-.27,1,1,0,0,1,0-1.37,1,1,0,0,1,.72-.25,1.07,1.07,0,0,1,.72.25,1,1,0,0,1,0,1.37A1,1,0,0,1,133.12,35.28Zm-.74,1.79h1.46v8.69h-1.46Z" style="fill: rgb(118, 118, 118);"/>
  <path d="M140.28,46a4.21,4.21,0,0,1-1.62-.31,3.73,3.73,0,0,1-1.32-.88,4.34,4.34,0,0,1-.89-1.44,5.69,5.69,0,0,1,0-3.82,4.32,4.32,0,0,1,.88-1.44,3.69,3.69,0,0,1,1.25-.91,3.48,3.48,0,0,1,1.47-.32,3.62,3.62,0,0,1,1.48.28,3,3,0,0,1,1.08.83,3.76,3.76,0,0,1,.67,1.29,5.5,5.5,0,0,1,.24,1.68c0,.16,0,.31,0,.45a3.22,3.22,0,0,1-.05.38h-5.87a3.33,3.33,0,0,0,.86,2.21,2.66,2.66,0,0,0,2,.81,3.59,3.59,0,0,0,1.17-.18,4.17,4.17,0,0,0,1-.51l.52,1a6.65,6.65,0,0,1-1.28.64A4.44,4.44,0,0,1,140.28,46Zm1.94-5.23a3.1,3.1,0,0,0-.57-2,2,2,0,0,0-1.59-.69,2.25,2.25,0,0,0-.89.18,2.61,2.61,0,0,0-.76.53,2.92,2.92,0,0,0-.56.85,4,4,0,0,0-.29,1.15Z" style="fill: rgb(118, 118, 118);"/>
  <path d="M145.64,37.07h1.2l.13,1.25H147a7.93,7.93,0,0,1,1.32-1,2.91,2.91,0,0,1,1.59-.43,2.34,2.34,0,0,1,2,.86,4.28,4.28,0,0,1,.64,2.54v5.51h-1.46V40.45a3.13,3.13,0,0,0-.39-1.78,1.45,1.45,0,0,0-1.26-.54,2.26,2.26,0,0,0-1.2.33,8.23,8.23,0,0,0-1.18,1v6.31h-1.46Z" style="fill: rgb(118, 118, 118);"/>
  <path d="M158.16,46a2.9,2.9,0,0,1-1.18-.21,1.8,1.8,0,0,1-.76-.59,2.47,2.47,0,0,1-.42-.91,5.38,5.38,0,0,1-.12-1.19V38.25h-1.3v-1.1l1.36-.08.17-2.43h1.22v2.43h2.35v1.18h-2.35V43.1a2.26,2.26,0,0,0,.29,1.25,1.17,1.17,0,0,0,1.06.43,1.86,1.86,0,0,0,.49-.07l.5-.15.29,1.09c-.25.08-.51.16-.79.22A3.9,3.9,0,0,1,158.16,46Z" style="fill: rgb(118, 118, 118);"/>
  <path d="M165.16,34h3.49a7.6,7.6,0,0,1,1.64.16,3.75,3.75,0,0,1,1.27.51,2.42,2.42,0,0,1,.83.88,3,3,0,0,1-.16,2.89,2.31,2.31,0,0,1-1.27,1v.08a3.22,3.22,0,0,1,1.72.9,2.62,2.62,0,0,1,.67,1.9,3.26,3.26,0,0,1-.32,1.51,3,3,0,0,1-.92,1.07,3.85,3.85,0,0,1-1.4.64,6.83,6.83,0,0,1-1.8.22h-3.75Zm3.23,5a3.53,3.53,0,0,0,2.18-.52,1.68,1.68,0,0,0,.66-1.41,1.54,1.54,0,0,0-.7-1.45,4,4,0,0,0-2.07-.43h-1.81V39Zm.31,5.56a4.27,4.27,0,0,0,2.36-.56,1.93,1.93,0,0,0,.84-1.75,1.76,1.76,0,0,0-.82-1.61,4.69,4.69,0,0,0-2.38-.5h-2v4.42Z" style="fill: rgb(118, 118, 118);"/>
  <path d="M175.55,37.07h1.2l.12,1.59h0a4.33,4.33,0,0,1,1.1-1.33,2.22,2.22,0,0,1,1.37-.48,2.47,2.47,0,0,1,.5,0,1.12,1.12,0,0,1,.42.15L180,38.32a2.73,2.73,0,0,0-.4-.11,2.48,2.48,0,0,0-.45,0,1.64,1.64,0,0,0-.56.11,1.88,1.88,0,0,0-.59.34,2.8,2.8,0,0,0-.56.61,4.34,4.34,0,0,0-.48.94v5.59h-1.45Z" style="fill: rgb(118, 118, 118);"/>
  <path d="M185.13,46a3.84,3.84,0,0,1-1.53-.31,4,4,0,0,1-1.29-.88,4.21,4.21,0,0,1-.88-1.43,5.81,5.81,0,0,1,0-3.86,4.16,4.16,0,0,1,.88-1.44,3.77,3.77,0,0,1,1.29-.9,4.05,4.05,0,0,1,3.06,0,3.77,3.77,0,0,1,1.29.9,4.16,4.16,0,0,1,.88,1.44,5.81,5.81,0,0,1,0,3.86,4.21,4.21,0,0,1-.88,1.43,4,4,0,0,1-1.29.88A3.84,3.84,0,0,1,185.13,46Zm0-1.23a2.16,2.16,0,0,0,1-.24,2.45,2.45,0,0,0,.8-.67,3,3,0,0,0,.52-1,4.43,4.43,0,0,0,.19-1.36,4.47,4.47,0,0,0-.19-1.36A3.18,3.18,0,0,0,187,39a2.26,2.26,0,0,0-.8-.68,2.16,2.16,0,0,0-1-.24,2.19,2.19,0,0,0-1,.24,2.26,2.26,0,0,0-.8.68,3.87,3.87,0,0,0-.51,1.06,4.81,4.81,0,0,0-.18,1.36,4.76,4.76,0,0,0,.18,1.36,3.67,3.67,0,0,0,.51,1,2.45,2.45,0,0,0,.8.67A2.19,2.19,0,0,0,185.13,44.74Z" style="fill: rgb(118, 118, 118);"/>
  <path d="M190.41,37.07h1.49l1.29,5c.09.42.18.83.26,1.23s.17.8.26,1.21h.08c.09-.41.19-.81.28-1.22s.19-.81.31-1.22l1.34-5h1.43l1.36,5,.3,1.23.3,1.21h.07c.09-.41.19-.81.27-1.21l.27-1.23,1.28-5h1.38L200,45.76h-1.76L197,41.07c-.12-.4-.22-.81-.31-1.21s-.18-.84-.28-1.28h-.08c-.1.44-.19.87-.28,1.28s-.2.83-.32,1.24l-1.21,4.66h-1.71Z" style="fill: rgb(118, 118, 118);"/>
  <path d="M206.55,46a4.66,4.66,0,0,1-1.77-.35,5.51,5.51,0,0,1-1.47-.85l.72-1a5.22,5.22,0,0,0,1.17.74,3.3,3.3,0,0,0,1.4.28,1.8,1.8,0,0,0,1.29-.4,1.29,1.29,0,0,0,.42-1,.9.9,0,0,0-.17-.57,1.94,1.94,0,0,0-.46-.44,3.21,3.21,0,0,0-.64-.34l-.71-.3a8,8,0,0,1-.92-.37,3.67,3.67,0,0,1-.83-.5,2.49,2.49,0,0,1-.61-.69,1.88,1.88,0,0,1-.23-.95,2.27,2.27,0,0,1,.78-1.74,2.73,2.73,0,0,1,.95-.53,3.79,3.79,0,0,1,1.26-.19,3.85,3.85,0,0,1,1.5.28,5.3,5.3,0,0,1,1.2.68l-.7.94a5.35,5.35,0,0,0-.94-.55,2.42,2.42,0,0,0-1.06-.22,1.72,1.72,0,0,0-1.2.37,1.17,1.17,0,0,0-.38.88.85.85,0,0,0,.16.54,1.65,1.65,0,0,0,.43.39,3.85,3.85,0,0,0,.61.3l.72.28c.32.12.63.25,1,.39a3.59,3.59,0,0,1,.85.5,2.59,2.59,0,0,1,.61.71,2.09,2.09,0,0,1,.24,1,2.46,2.46,0,0,1-.21,1,2.17,2.17,0,0,1-.6.81,2.93,2.93,0,0,1-1,.56A4,4,0,0,1,206.55,46Z" style="fill: rgb(118, 118, 118);"/>
  <path d="M215.27,46a4.21,4.21,0,0,1-1.62-.31,3.73,3.73,0,0,1-1.32-.88,4.34,4.34,0,0,1-.89-1.44,5.69,5.69,0,0,1,0-3.82,4.32,4.32,0,0,1,.88-1.44,3.63,3.63,0,0,1,1.26-.91,3.41,3.41,0,0,1,1.46-.32,3.62,3.62,0,0,1,1.48.28,3,3,0,0,1,1.08.83,3.76,3.76,0,0,1,.67,1.29,5.5,5.5,0,0,1,.24,1.68c0,.16,0,.31,0,.45a3.22,3.22,0,0,1-.05.38h-5.87a3.33,3.33,0,0,0,.86,2.21,2.66,2.66,0,0,0,2,.81,3.59,3.59,0,0,0,1.17-.18,4.17,4.17,0,0,0,1-.51l.52,1a6.65,6.65,0,0,1-1.28.64A4.44,4.44,0,0,1,215.27,46Zm1.94-5.23a3.1,3.1,0,0,0-.57-2,2,2,0,0,0-1.59-.69,2.25,2.25,0,0,0-.89.18,2.61,2.61,0,0,0-.76.53,2.92,2.92,0,0,0-.56.85,4,4,0,0,0-.29,1.15Z" style="fill: rgb(118, 118, 118);"/>
  <path d="M220.63,37.07h1.2l.13,1.59h0a4.19,4.19,0,0,1,1.1-1.33,2.19,2.19,0,0,1,1.36-.48,2.57,2.57,0,0,1,.51,0,1.18,1.18,0,0,1,.42.15l-.27,1.28a2.73,2.73,0,0,0-.4-.11,2.68,2.68,0,0,0-.45,0,1.74,1.74,0,0,0-.57.11,2,2,0,0,0-.58.34,2.8,2.8,0,0,0-.56.61,4.34,4.34,0,0,0-.48.94v5.59h-1.46Z" style="fill: rgb(118, 118, 118);"/>
  <path class="cls-2" d="M573.29,114.83a2.65,2.65,0,0,1-.2,1.07,2.6,2.6,0,0,1-.57.84,2.45,2.45,0,0,1-.85.55,2.91,2.91,0,0,1-2.12,0,2.5,2.5,0,0,1-.84-.55,2.43,2.43,0,0,1-.56-.84,2.65,2.65,0,0,1-.2-1.07,2.68,2.68,0,0,1,.2-1.07,2.39,2.39,0,0,1,.56-.83,2.5,2.5,0,0,1,.84-.55,3.05,3.05,0,0,1,2.12,0,2.45,2.45,0,0,1,.85.55,2.56,2.56,0,0,1,.57.83A2.68,2.68,0,0,1,573.29,114.83Zm-4.42,0a1.93,1.93,0,0,0,.13.73,2,2,0,0,0,.36.58,1.66,1.66,0,0,0,.56.37,1.73,1.73,0,0,0,.69.13,1.82,1.82,0,0,0,.7-.13,1.76,1.76,0,0,0,.56-.37,1.85,1.85,0,0,0,.37-.58,1.93,1.93,0,0,0,.13-.73,1.81,1.81,0,0,0-.13-.72,1.7,1.7,0,0,0-.37-.57,1.76,1.76,0,0,0-.56-.37,1.82,1.82,0,0,0-.7-.13,1.73,1.73,0,0,0-.69.13,1.66,1.66,0,0,0-.56.37,1.85,1.85,0,0,0-.36.57A1.81,1.81,0,0,0,568.87,114.83Zm7.54,6.32v.8h-6.89V118.5h.93v2.65Zm-.31-1.85h-.94v-7.86h.94Z"/>
  <path class="cls-2" d="M587.44,116.55v.8h-9.25v-.8Zm-8.72-1.43a6,6,0,0,0,1.3-.29,5.18,5.18,0,0,0,1.11-.51,3.14,3.14,0,0,0,.78-.7,1.58,1.58,0,0,0,.31-.85h-3.17V112h7.56v.79h-3.18a1.43,1.43,0,0,0,.31.85,2.82,2.82,0,0,0,.78.7,5.32,5.32,0,0,0,1.1.51,6.23,6.23,0,0,0,1.31.29l-.33.77a7,7,0,0,1-1.22-.26,5.1,5.1,0,0,1-1.09-.46,4.85,4.85,0,0,1-.88-.64.62.62,0,1,0-1.18,0,4.85,4.85,0,0,1-.88.64,5.1,5.1,0,0,1-1.09.46,6.84,6.84,0,0,1-1.21.26Zm4.09,3.16a8,8,0,0,1,1.46.13,3.65,3.65,0,0,1,1.1.38,1.88,1.88,0,0,1,.69.61,1.45,1.45,0,0,1,.24.83,1.47,1.47,0,0,1-.24.83,2,2,0,0,1-.69.62,3.94,3.94,0,0,1-1.1.38,8.06,8.06,0,0,1-1.46.12,5.5,5.5,0,0,1-2.57-.5,1.58,1.58,0,0,1-.93-1.45,1.56,1.56,0,0,1,.93-1.44A5.37,5.37,0,0,1,582.81,118.28Zm0,3.13a4.76,4.76,0,0,0,1.88-.3.9.9,0,0,0,0-1.75,5.89,5.89,0,0,0-3.77,0,.91.91,0,0,0,0,1.75A4.78,4.78,0,0,0,582.81,121.41Z"/>
  <path class="cls-2" d="M571.24,129.31a4.54,4.54,0,0,0,.2,1.32,5.1,5.1,0,0,0,.55,1.21,5,5,0,0,0,.82,1,4.05,4.05,0,0,0,1.05.71l-.51.75a4.55,4.55,0,0,1-1.55-1.24,5.69,5.69,0,0,1-1-1.9,6.53,6.53,0,0,1-1,2,4.55,4.55,0,0,1-1.55,1.34l-.52-.76a4.35,4.35,0,0,0,1-.75,5.27,5.27,0,0,0,.82-1.06,5.34,5.34,0,0,0,.54-1.27,4.94,4.94,0,0,0,.2-1.37v-.83H568v-.79h2.31V126h.93v1.67h2.27v.79h-2.27Zm4.89-3.49v10.8h-.93V131H573v-.8h2.21v-4.33Z"/>
  <path class="cls-2" d="M579.72,133.2l1.23,0c.41,0,.81,0,1.21-.06s.82-.07,1.23-.12.85-.11,1.3-.19l.09.8c-.46.08-.91.15-1.34.2s-.85.09-1.27.12l-1.25.06h-2.13v-4.13h3.76v-2.24h-3.8v-.8h4.73v3.85h-3.76Zm6.87-7.38v10.79h-.94V125.82Z"/>
  <line class="cls-3" x1="528" y1="96.32" x2="168" y2="96.32"/>
  <path class="cls-3" d="M531.88,96a30,30,0,0,1,0,60"/>
  <line class="cls-3" x1="532.38" y1="156.03" x2="175.35" y2="156.03"/>
  <path class="cls-4" d="M168,216.52a30,30,0,0,1,0-60"/>
  <polygon class="cls-5" points="525.79 103.23 525.79 88.83 537.79 96.03 525.79 103.23"/>
  <polygon class="cls-5" points="537.79 149.12 537.79 163.52 525.79 156.32 537.79 149.12"/>
  <line class="cls-3" x1="349.02" y1="276.37" x2="169" y2="276.37"/>
  <polygon class="cls-6" points="176.17 269.17 176.17 283.57 164.17 276.37 176.17 269.17"/>
  <polygon class="cls-6" points="176.17 149.32 176.17 163.72 164.17 156.52 176.17 149.32"/>
  <polygon class="cls-6" points="164.17 103.23 164.17 88.83 176.17 96.03 164.17 103.23"/>
  <line class="cls-4" x1="350.18" y1="216.32" x2="170.15" y2="216.32"/>
  <polygon class="cls-6" points="164.17 223.72 164.17 209.32 176.17 216.52 164.17 223.72"/>
  <path class="cls-2" d="M 197.904 112.618 C 197.427 112.63 196.956 112.509 196.544 112.268 C 196.148 112.023 195.824 111.678 195.604 111.268 L 196.354 110.708 C 196.502 111.007 196.722 111.265 196.994 111.458 C 197.237 111.61 197.518 111.69 197.804 111.688 C 198.187 111.713 198.559 111.553 198.804 111.258 C 199.062 110.824 199.177 110.321 199.134 109.818 L 199.134 103.708 L 200.194 103.708 L 200.194 109.928 C 200.195 110.286 200.147 110.642 200.054 110.988 C 199.979 111.301 199.843 111.597 199.654 111.858 C 199.462 112.106 199.216 112.308 198.934 112.448 C 198.608 112.581 198.256 112.64 197.904 112.618 Z"/>
  <path class="cls-2" d="M 204.784 112.618 C 204.218 112.627 203.657 112.507 203.144 112.268 C 202.649 112.029 202.209 111.688 201.854 111.268 L 202.484 110.518 C 202.783 110.85 203.143 111.122 203.544 111.318 C 203.934 111.507 204.361 111.606 204.794 111.608 C 205.259 111.637 205.718 111.495 206.084 111.208 C 206.382 110.961 206.554 110.595 206.554 110.208 C 206.557 110.012 206.52 109.818 206.444 109.638 C 206.371 109.484 206.269 109.345 206.144 109.228 C 206.013 109.107 205.865 109.005 205.704 108.928 L 205.154 108.648 L 203.954 108.098 C 203.748 108.003 203.548 107.896 203.354 107.778 C 203.154 107.65 202.972 107.495 202.814 107.318 C 202.64 107.135 202.501 106.921 202.404 106.688 C 202.3 106.417 202.249 106.128 202.254 105.838 C 202.248 105.517 202.316 105.198 202.454 104.908 C 202.58 104.623 202.764 104.368 202.994 104.158 C 203.239 103.943 203.525 103.779 203.834 103.678 C 204.171 103.556 204.526 103.495 204.884 103.498 C 205.364 103.494 205.839 103.596 206.274 103.798 C 206.679 103.989 207.042 104.257 207.344 104.588 L 206.794 105.298 C 206.544 105.051 206.253 104.848 205.934 104.698 C 205.622 104.549 205.28 104.471 204.934 104.468 C 204.525 104.447 204.121 104.571 203.794 104.818 C 203.514 105.052 203.358 105.403 203.374 105.768 C 203.368 105.958 203.409 106.147 203.494 106.318 C 203.578 106.468 203.686 106.603 203.814 106.718 C 203.951 106.834 204.102 106.932 204.264 107.008 L 204.754 107.228 L 205.954 107.768 C 206.185 107.88 206.409 108.007 206.624 108.148 C 206.834 108.275 207.02 108.437 207.174 108.628 C 207.338 108.815 207.463 109.033 207.544 109.268 C 207.633 109.546 207.677 109.836 207.674 110.128 C 207.68 110.472 207.612 110.813 207.474 111.128 C 207.339 111.43 207.145 111.702 206.904 111.928 C 206.645 112.16 206.342 112.34 206.014 112.458 C 205.617 112.586 205.201 112.64 204.784 112.618 Z"/>
  <path class="cls-2" d="M 214.144 112.618 C 213.578 112.627 213.017 112.507 212.504 112.268 C 212.007 112.031 211.567 111.69 211.214 111.268 L 211.844 110.518 C 212.143 110.85 212.503 111.122 212.904 111.318 C 213.294 111.507 213.721 111.606 214.154 111.608 C 214.619 111.637 215.078 111.495 215.444 111.208 C 215.739 110.96 215.908 110.593 215.904 110.208 C 215.91 110.013 215.876 109.819 215.804 109.638 C 215.731 109.484 215.629 109.345 215.504 109.228 C 215.373 109.107 215.225 109.005 215.064 108.928 L 214.514 108.648 L 213.314 108.098 C 213.108 108.003 212.908 107.896 212.714 107.778 C 212.514 107.65 212.332 107.495 212.174 107.318 C 212 107.135 211.861 106.921 211.764 106.688 C 211.66 106.417 211.609 106.128 211.614 105.838 C 211.608 105.517 211.676 105.198 211.814 104.908 C 211.94 104.623 212.124 104.368 212.354 104.158 C 212.599 103.943 212.885 103.779 213.194 103.678 C 213.515 103.561 213.853 103.501 214.194 103.498 C 214.674 103.494 215.149 103.596 215.584 103.798 C 215.989 103.989 216.352 104.257 216.654 104.588 L 216.094 105.298 C 215.849 105.049 215.561 104.845 215.244 104.698 C 214.916 104.542 214.557 104.464 214.194 104.468 C 213.785 104.447 213.381 104.571 213.054 104.818 C 212.774 105.052 212.618 105.403 212.634 105.768 C 212.628 105.958 212.669 106.147 212.754 106.318 C 212.838 106.468 212.946 106.603 213.074 106.718 C 213.211 106.834 213.362 106.932 213.524 107.008 L 214.014 107.228 L 215.214 107.768 C 215.445 107.88 215.669 108.007 215.884 108.148 C 216.092 108.277 216.278 108.44 216.434 108.628 C 216.598 108.815 216.723 109.033 216.804 109.268 C 216.893 109.546 216.937 109.836 216.934 110.128 C 216.94 110.472 216.872 110.813 216.734 111.128 C 216.599 111.43 216.405 111.702 216.164 111.928 C 215.905 112.16 215.602 112.34 215.274 112.458 C 214.909 112.574 214.527 112.628 214.144 112.618 Z"/>
  <path class="cls-2" d="M 218.624 103.668 L 220.714 103.668 C 221.813 103.593 222.888 104.007 223.654 104.798 C 224.378 105.716 224.735 106.871 224.654 108.038 C 224.662 108.667 224.574 109.295 224.394 109.898 C 224.244 110.412 223.989 110.889 223.644 111.298 C 223.313 111.681 222.895 111.98 222.424 112.168 C 221.896 112.377 221.332 112.479 220.764 112.468 L 218.624 112.468 Z M 220.624 111.538 C 221.468 111.599 222.291 111.258 222.844 110.618 C 223.37 109.86 223.627 108.949 223.574 108.028 C 223.635 107.11 223.377 106.198 222.844 105.448 C 222.283 104.822 221.462 104.493 220.624 104.558 L 219.684 104.558 L 219.684 111.558 Z"/>
  <path class="cls-2" d="M 226.454 103.668 L 227.534 103.668 L 227.534 108.088 L 227.534 108.088 L 231.024 103.668 L 232.214 103.668 L 229.604 107.018 L 232.604 112.468 L 231.414 112.468 L 228.924 107.878 L 227.484 109.678 L 227.484 112.448 L 226.424 112.448 Z"/>
  <path class="cls-2" d="M 242.534 107.588 L 242.534 108.338 L 233.264 108.338 L 233.264 107.588 Z M 235.314 112.498 L 241.694 112.498 L 241.694 113.208 L 234.394 113.208 L 234.394 110.818 L 240.454 110.818 L 240.454 109.918 L 234.364 109.918 L 234.364 109.208 L 241.364 109.208 L 241.364 111.508 L 235.334 111.508 Z M 240.424 103.598 L 234.424 103.598 L 234.424 102.898 L 241.344 102.898 L 241.344 105.148 L 235.344 105.148 L 235.344 106.068 L 241.534 106.068 L 241.534 106.778 L 234.454 106.778 L 234.454 104.448 L 240.454 104.448 Z"/>
  <path class="cls-2" d="M 255.534 108.288 L 255.534 109.078 L 246.274 109.078 L 246.274 108.288 L 250.434 108.288 L 250.434 107.228 L 247.534 107.228 L 247.534 102.898 L 254.424 102.898 L 254.424 103.668 L 248.424 103.668 L 248.424 104.668 L 254.114 104.668 L 254.114 105.448 L 248.424 105.448 L 248.424 106.448 L 254.424 106.448 L 254.424 107.208 L 251.344 107.208 L 251.344 108.268 Z M 250.904 109.898 C 251.786 109.853 252.667 110.003 253.484 110.338 C 254.027 110.527 254.394 111.034 254.404 111.608 C 254.397 112.188 254.03 112.702 253.484 112.898 C 251.811 113.485 249.988 113.485 248.314 112.898 C 247.771 112.701 247.407 112.186 247.404 111.608 C 247.41 111.035 247.774 110.527 248.314 110.338 C 249.147 109.996 250.046 109.845 250.944 109.898 Z M 250.904 112.598 C 251.547 112.625 252.19 112.541 252.804 112.348 C 253.244 112.188 253.464 111.938 253.464 111.608 C 253.464 111.278 253.244 111.048 252.804 110.878 C 251.556 110.544 250.242 110.544 248.994 110.878 C 248.554 111.048 248.334 111.288 248.334 111.608 C 248.334 111.928 248.554 112.188 248.994 112.348 C 249.624 112.546 250.285 112.631 250.944 112.598 Z"/>
  <path class="cls-2" d="M 259.794 104.448 L 261.874 104.448 L 261.874 105.248 L 256.804 105.248 L 256.804 104.448 L 258.874 104.448 L 258.874 102.918 L 259.794 102.918 Z M 259.344 105.968 C 259.647 105.965 259.947 106.026 260.224 106.148 C 260.484 106.269 260.718 106.439 260.914 106.648 C 261.11 106.878 261.263 107.143 261.364 107.428 C 261.593 108.075 261.593 108.781 261.364 109.428 C 261.265 109.711 261.112 109.972 260.914 110.198 C 260.288 110.869 259.307 111.073 258.464 110.708 C 258.199 110.592 257.963 110.417 257.774 110.198 C 257.573 109.973 257.417 109.712 257.314 109.428 C 257.098 108.779 257.098 108.077 257.314 107.428 C 257.419 107.142 257.575 106.878 257.774 106.648 C 257.966 106.434 258.201 106.263 258.464 106.148 C 258.74 106.019 259.04 105.951 259.344 105.948 Z M 259.344 110.068 C 259.534 110.07 259.722 110.029 259.894 109.948 C 260.057 109.867 260.201 109.751 260.314 109.608 C 260.437 109.452 260.531 109.276 260.594 109.088 C 260.665 108.872 260.699 108.645 260.694 108.418 C 260.697 108.197 260.663 107.978 260.594 107.768 C 260.534 107.582 260.439 107.409 260.314 107.258 C 260.201 107.115 260.057 106.999 259.894 106.918 C 259.722 106.837 259.534 106.796 259.344 106.798 C 258.956 106.78 258.583 106.952 258.344 107.258 C 258.083 107.587 257.948 107.998 257.964 108.418 C 257.959 108.645 257.993 108.872 258.064 109.088 C 258.123 109.278 258.218 109.454 258.344 109.608 C 258.459 109.753 258.606 109.87 258.774 109.948 C 258.954 110.025 259.149 110.059 259.344 110.048 Z M 265.474 102.598 L 265.474 113.358 L 264.534 113.358 L 264.534 107.948 L 263.214 107.948 L 263.214 112.848 L 262.344 112.848 L 262.344 102.848 L 263.214 102.848 L 263.214 107.148 L 264.534 107.148 L 264.534 102.598 Z"/>
  <path class="cls-2" d="M 274.814 104.918 C 274.493 105.77 273.93 106.51 273.194 107.048 C 272.343 107.661 271.377 108.096 270.354 108.328 L 270.014 107.518 C 271.086 107.306 272.089 106.832 272.934 106.138 C 273.601 105.581 274.022 104.783 274.104 103.918 L 270.534 103.918 L 270.534 103.118 L 275.114 103.118 C 275.111 103.454 275.074 103.789 275.004 104.118 L 277.324 104.118 L 277.324 102.558 L 278.254 102.558 L 278.254 108.058 L 277.324 108.058 L 277.324 106.938 L 274.654 106.938 L 274.654 106.168 L 277.324 106.168 L 277.324 104.888 Z M 278.624 112.468 L 278.624 113.228 L 271.714 113.228 L 271.714 110.448 L 277.344 110.448 L 277.344 109.348 L 271.684 109.348 L 271.684 108.558 L 278.264 108.558 L 278.264 111.198 L 272.634 111.198 L 272.634 112.448 Z"/>
  <path class="cls-2" d="M 283.344 105.628 C 283.341 106.095 283.388 106.561 283.484 107.018 C 283.574 107.461 283.711 107.894 283.894 108.308 C 284.06 108.713 284.275 109.096 284.534 109.448 C 284.799 109.767 285.117 110.037 285.474 110.248 L 284.904 110.968 C 284.388 110.641 283.953 110.199 283.634 109.678 C 283.284 109.103 283.021 108.48 282.854 107.828 C 282.694 108.532 282.424 109.207 282.054 109.828 C 281.728 110.384 281.28 110.859 280.744 111.218 L 280.174 110.488 C 280.541 110.262 280.863 109.97 281.124 109.628 C 281.407 109.277 281.642 108.89 281.824 108.478 C 282.011 108.039 282.155 107.584 282.254 107.118 C 282.346 106.637 282.393 106.148 282.394 105.658 L 282.394 104.658 L 280.534 104.658 L 280.534 103.858 L 285.194 103.858 L 285.194 104.658 L 283.374 104.658 Z M 286.074 102.828 L 286.964 102.828 L 286.964 112.828 L 286.074 112.828 L 286.074 107.298 L 284.384 107.298 L 284.384 106.448 L 286.074 106.448 Z M 289.024 102.578 L 289.024 113.338 L 288.124 113.338 L 288.124 102.578 Z"/>
  <path class="cls-2" d="M 296.374 108.638 C 295.816 108.458 295.3 108.169 294.854 107.788 C 294.426 107.42 294.085 106.963 293.854 106.448 C 293.639 107.017 293.297 107.531 292.854 107.948 C 292.41 108.392 291.874 108.733 291.284 108.948 L 290.824 108.168 C 291.182 108.05 291.519 107.878 291.824 107.658 C 292.126 107.445 292.399 107.193 292.634 106.908 C 292.853 106.63 293.029 106.319 293.154 105.988 C 293.269 105.667 293.33 105.329 293.334 104.988 L 293.334 104.768 L 291.064 104.768 L 291.064 103.978 L 293.334 103.978 L 293.334 102.618 L 294.264 102.618 L 294.264 103.978 L 296.534 103.978 L 296.534 104.768 L 294.274 104.768 L 294.274 104.988 C 294.274 105.31 294.335 105.629 294.454 105.928 C 294.576 106.238 294.748 106.525 294.964 106.778 C 295.19 107.043 295.453 107.276 295.744 107.468 C 296.055 107.671 296.391 107.832 296.744 107.948 Z M 295.534 109.448 C 296.007 109.447 296.479 109.49 296.944 109.578 C 297.313 109.645 297.668 109.773 297.994 109.958 C 298.261 110.107 298.49 110.316 298.664 110.568 C 298.971 111.079 298.971 111.717 298.664 112.228 C 298.493 112.479 298.263 112.685 297.994 112.828 C 297.668 113.009 297.313 113.135 296.944 113.198 C 296.48 113.29 296.007 113.334 295.534 113.328 C 294.679 113.37 293.827 113.198 293.054 112.828 C 292.505 112.564 292.158 112.007 292.164 111.398 C 292.149 110.784 292.498 110.219 293.054 109.958 C 293.823 109.578 294.677 109.402 295.534 109.448 Z M 295.534 112.558 C 296.142 112.585 296.749 112.483 297.314 112.258 C 297.98 112.067 298.189 111.226 297.69 110.745 C 297.585 110.643 297.455 110.569 297.314 110.528 C 296.16 110.114 294.898 110.114 293.744 110.528 C 293.078 110.719 292.869 111.56 293.368 112.041 C 293.474 112.143 293.603 112.217 293.744 112.258 C 294.313 112.485 294.923 112.587 295.534 112.558 Z M 300.304 105.388 L 300.304 106.188 L 298.784 106.188 L 298.784 109.188 L 297.844 109.188 L 297.844 102.598 L 298.784 102.598 L 298.784 105.388 Z"/>
  <path class="cls-2" d="M 313.134 111.288 L 313.134 112.088 L 303.874 112.088 L 303.874 111.288 L 308.034 111.288 L 308.034 109.778 C 307.283 109.767 306.548 109.556 305.904 109.168 C 305.417 108.857 305.126 108.316 305.134 107.738 C 305.131 107.431 305.214 107.13 305.374 106.868 C 305.537 106.602 305.764 106.382 306.034 106.228 C 306.364 106.042 306.722 105.911 307.094 105.838 C 307.554 105.737 308.024 105.69 308.494 105.698 C 308.958 105.69 309.421 105.737 309.874 105.838 C 310.226 105.914 310.563 106.046 310.874 106.228 C 311.145 106.386 311.374 106.605 311.544 106.868 C 311.697 107.132 311.777 107.433 311.774 107.738 C 311.789 108.31 311.505 108.848 311.024 109.158 C 310.39 109.544 309.666 109.758 308.924 109.778 L 308.924 111.288 Z M 312.624 104.968 L 304.324 104.968 L 304.324 104.158 L 308.034 104.158 L 308.034 102.758 L 308.964 102.758 L 308.964 104.158 L 312.624 104.158 Z M 306.074 107.728 C 306.045 108.166 306.305 108.571 306.714 108.728 C 307.275 108.972 307.883 109.085 308.494 109.058 C 309.095 109.085 309.694 108.972 310.244 108.728 C 310.642 108.557 310.895 108.161 310.884 107.728 C 310.883 107.316 310.629 106.946 310.244 106.798 C 309.708 106.553 309.123 106.433 308.534 106.448 C 307.923 106.42 307.315 106.533 306.754 106.778 C 306.347 106.915 306.073 107.298 306.074 107.728 Z"/>
  <path class="cls-2" d="M 319.454 108.118 L 319.454 109.118 L 322.454 109.118 L 322.454 111.448 L 316.454 111.448 L 316.454 112.448 L 322.764 112.448 L 322.764 113.188 L 315.534 113.188 L 315.534 110.718 L 321.534 110.718 L 321.534 109.808 L 315.534 109.808 L 315.534 109.078 L 318.534 109.078 L 318.534 108.078 L 314.404 108.078 L 314.404 107.308 L 323.624 107.308 L 323.624 108.078 Z M 314.844 106.118 C 315.296 106.09 315.744 106.023 316.184 105.918 C 316.571 105.835 316.947 105.708 317.304 105.538 C 317.6 105.401 317.867 105.211 318.094 104.978 C 318.293 104.785 318.423 104.532 318.464 104.258 L 315.304 104.258 L 315.304 103.518 L 318.534 103.518 L 318.534 102.518 L 319.474 102.518 L 319.474 103.518 L 322.674 103.518 L 322.674 104.258 L 319.534 104.258 C 319.571 104.531 319.697 104.785 319.894 104.978 C 320.117 105.211 320.382 105.401 320.674 105.538 C 321.03 105.703 321.402 105.831 321.784 105.918 C 322.228 106.023 322.679 106.09 323.134 106.118 L 322.844 106.868 C 322.431 106.829 322.021 106.769 321.614 106.688 C 321.241 106.603 320.877 106.486 320.524 106.338 C 320.206 106.212 319.907 106.044 319.634 105.838 C 319.387 105.653 319.174 105.426 319.004 105.168 C 318.836 105.424 318.626 105.65 318.384 105.838 C 318.108 106.044 317.805 106.212 317.484 106.338 C 317.128 106.486 316.76 106.603 316.384 106.688 C 315.974 106.77 315.56 106.83 315.144 106.868 Z"/>
  <path class="cls-2" d="M 198.449 117.227 L 199.199 117.227 L 195.789 128.887 L 195.029 128.887 Z"/>
  <path class="cls-2" d="M 207.789 118.587 C 207.791 119.352 207.72 120.115 207.579 120.867 C 207.282 122.393 206.521 123.79 205.399 124.867 C 204.722 125.504 203.957 126.043 203.129 126.467 L 202.619 125.707 C 203.471 125.286 204.248 124.729 204.919 124.057 C 205.485 123.476 205.942 122.799 206.269 122.057 L 202.819 122.407 L 202.659 121.547 L 206.549 121.267 C 206.73 120.652 206.834 120.017 206.859 119.377 L 203.179 119.377 L 203.179 118.577 Z M 212.039 122.647 L 210.389 122.647 L 210.389 128.227 L 209.459 128.227 L 209.459 117.477 L 210.389 117.477 L 210.389 121.847 L 212.039 121.847 Z"/>
  <path class="cls-2" d="M 222.279 125.977 L 222.279 126.777 L 212.999 126.777 L 212.999 125.977 Z M 221.209 123.427 L 214.209 123.427 L 214.209 118.427 L 221.129 118.427 L 221.129 119.227 L 215.129 119.227 L 215.129 122.587 L 221.229 122.587 Z"/>
  <path class="cls-2" d="M 226.939 120.327 C 226.937 120.804 227.004 121.279 227.139 121.737 C 227.273 122.198 227.461 122.641 227.699 123.057 C 227.927 123.461 228.206 123.834 228.529 124.167 C 228.822 124.473 229.159 124.732 229.529 124.937 L 228.949 125.717 C 228.668 125.559 228.406 125.367 228.169 125.147 C 227.919 124.909 227.688 124.652 227.479 124.377 C 227.262 124.06 227.071 123.726 226.909 123.377 C 226.735 123.037 226.591 122.682 226.479 122.317 C 226.269 123.078 225.93 123.798 225.479 124.447 C 225.074 125.031 224.549 125.522 223.939 125.887 L 223.379 125.087 C 223.752 124.869 224.089 124.596 224.379 124.277 C 224.706 123.93 224.988 123.544 225.219 123.127 C 225.451 122.687 225.639 122.224 225.779 121.747 C 225.91 121.268 225.977 120.774 225.979 120.277 L 225.979 118.347 L 226.909 118.347 Z M 233.059 122.637 L 231.369 122.637 L 231.369 128.217 L 230.429 128.217 L 230.429 117.487 L 231.369 117.487 L 231.369 121.847 L 233.059 121.847 Z"/>
  <path class="cls-2" d="M 242.129 120.867 C 242.133 121.233 242.065 121.597 241.929 121.937 C 241.794 122.25 241.601 122.535 241.359 122.777 C 241.117 123.017 240.828 123.205 240.509 123.327 C 240.172 123.46 239.812 123.528 239.449 123.527 C 239.086 123.529 238.727 123.461 238.389 123.327 C 238.072 123.203 237.783 123.015 237.539 122.777 C 237.301 122.535 237.111 122.25 236.979 121.937 C 236.844 121.597 236.776 121.233 236.779 120.867 C 236.777 120.501 236.845 120.138 236.979 119.797 C 237.234 119.159 237.746 118.658 238.389 118.417 C 238.727 118.286 239.087 118.221 239.449 118.227 C 239.812 118.222 240.171 118.287 240.509 118.417 C 240.826 118.539 241.114 118.723 241.359 118.957 C 241.601 119.199 241.794 119.484 241.929 119.797 C 242.064 120.138 242.132 120.501 242.129 120.867 Z M 237.709 120.867 C 237.707 121.116 237.751 121.364 237.839 121.597 C 237.923 121.807 238.045 122.001 238.199 122.167 C 238.357 122.328 238.543 122.457 238.749 122.547 C 239.2 122.72 239.699 122.72 240.149 122.547 C 240.358 122.457 240.549 122.328 240.709 122.167 C 240.87 122.004 240.996 121.81 241.079 121.597 C 241.164 121.363 241.208 121.116 241.209 120.867 C 241.211 120.621 241.167 120.377 241.079 120.147 C 240.996 119.934 240.87 119.74 240.709 119.577 C 240.548 119.419 240.358 119.293 240.149 119.207 C 239.699 119.034 239.2 119.034 238.749 119.207 C 238.544 119.293 238.357 119.419 238.199 119.577 C 238.045 119.743 237.923 119.937 237.839 120.147 C 237.747 120.376 237.703 120.621 237.709 120.867 Z M 245.239 127.187 L 245.239 127.987 L 238.359 127.987 L 238.359 124.537 L 239.289 124.537 L 239.289 127.187 Z M 244.939 125.337 L 243.999 125.337 L 243.999 117.477 L 244.939 117.477 Z"/>
  <path class="cls-2" d="M 256.279 122.587 L 256.279 123.387 L 247.029 123.387 L 247.029 122.587 Z M 247.559 121.147 C 248.002 121.106 248.439 121.012 248.859 120.867 C 249.248 120.741 249.621 120.57 249.969 120.357 C 250.266 120.172 250.527 119.935 250.739 119.657 C 250.931 119.413 251.042 119.116 251.059 118.807 L 247.889 118.807 L 247.889 118.017 L 255.449 118.017 L 255.449 118.807 L 252.269 118.807 C 252.274 119.115 252.38 119.414 252.569 119.657 C 252.788 119.932 253.052 120.169 253.349 120.357 C 253.7 120.566 254.072 120.737 254.459 120.867 C 254.883 121.013 255.323 121.107 255.769 121.147 L 255.429 121.927 C 255.016 121.875 254.608 121.788 254.209 121.667 C 253.833 121.555 253.471 121.4 253.129 121.207 C 252.811 121.03 252.516 120.815 252.249 120.567 C 252.001 120.339 251.801 120.063 251.659 119.757 C 251.514 120.064 251.31 120.339 251.059 120.567 C 250.796 120.815 250.504 121.03 250.189 121.207 C 249.843 121.399 249.478 121.553 249.099 121.667 C 248.705 121.79 248.3 121.877 247.889 121.927 Z M 251.639 124.327 C 252.133 124.32 252.625 124.364 253.109 124.457 C 253.491 124.524 253.859 124.652 254.199 124.837 C 254.481 124.977 254.722 125.187 254.899 125.447 C 255.062 125.693 255.146 125.982 255.139 126.277 C 255.144 126.571 255.061 126.861 254.899 127.107 C 254.72 127.368 254.48 127.58 254.199 127.727 C 253.857 127.907 253.49 128.036 253.109 128.107 C 252.624 128.192 252.132 128.232 251.639 128.227 C 250.758 128.268 249.88 128.097 249.079 127.727 C 248.51 127.47 248.145 126.902 248.149 126.277 C 248.144 125.654 248.51 125.088 249.079 124.837 C 249.877 124.458 250.757 124.283 251.639 124.327 Z M 251.639 127.457 C 252.283 127.485 252.926 127.383 253.529 127.157 C 254.203 126.965 254.416 126.115 253.912 125.628 C 253.805 125.524 253.673 125.448 253.529 125.407 C 252.307 124.994 250.982 124.994 249.759 125.407 C 249.086 125.569 248.84 126.4 249.318 126.902 C 249.437 127.028 249.591 127.116 249.759 127.157 C 250.36 127.379 251 127.478 251.639 127.447 Z"/>
  <rect class="cls-8" x="317.608" y="194.42" width="282.751" height="110" rx="12" style=""/>
  <path class="cls-2" d="M231.06,228.35a2.83,2.83,0,0,1-.2,1.07,2.6,2.6,0,0,1-.57.84,2.45,2.45,0,0,1-.85.55,2.67,2.67,0,0,1-1.06.2,2.63,2.63,0,0,1-1.06-.2,2.4,2.4,0,0,1-.84-.55,2.45,2.45,0,0,1-.57-.84,2.83,2.83,0,0,1-.19-1.07,2.87,2.87,0,0,1,.19-1.07,2.6,2.6,0,0,1,1.41-1.38,2.81,2.81,0,0,1,1.06-.19,2.85,2.85,0,0,1,1.06.19,2.45,2.45,0,0,1,.85.55,2.56,2.56,0,0,1,.57.83A2.87,2.87,0,0,1,231.06,228.35Zm-4.42,0a1.93,1.93,0,0,0,.13.73,2,2,0,0,0,.36.58,1.72,1.72,0,0,0,.55.37,1.95,1.95,0,0,0,1.4,0,1.76,1.76,0,0,0,.56-.37,1.85,1.85,0,0,0,.37-.58,2.15,2.15,0,0,0,.13-.73,2,2,0,0,0-.13-.72,1.7,1.7,0,0,0-.37-.57,1.76,1.76,0,0,0-.56-.37,1.95,1.95,0,0,0-1.4,0,1.72,1.72,0,0,0-.55.37,1.85,1.85,0,0,0-.36.57A1.81,1.81,0,0,0,226.64,228.35Zm7.53,6.32v.8h-6.88V232h.93v2.65Zm-.3-1.85h-.94V225h.94Z"/>
  <path class="cls-2" d="M245.21,230.08v.79H236v-.79Zm-8.72-1.45a5.57,5.57,0,0,0,1.3-.28,5.18,5.18,0,0,0,1.11-.51,2.92,2.92,0,0,0,.77-.7,1.51,1.51,0,0,0,.32-.85h-3.17v-.79h7.56v.79H241.2a1.42,1.42,0,0,0,.3.85,3.14,3.14,0,0,0,.78.7,5.67,5.67,0,0,0,1.11.51,5.55,5.55,0,0,0,1.31.28l-.33.78a7,7,0,0,1-1.22-.26,5.1,5.1,0,0,1-1.09-.46,4.52,4.52,0,0,1-.88-.64,2.55,2.55,0,0,1-.59-.81,2.59,2.59,0,0,1-.6.81,4.45,4.45,0,0,1-.87.64,5.33,5.33,0,0,1-1.09.46,6.84,6.84,0,0,1-1.21.26Zm4.08,3.17a7.24,7.24,0,0,1,1.47.13,3.65,3.65,0,0,1,1.1.38,1.88,1.88,0,0,1,.69.61,1.45,1.45,0,0,1,.24.83,1.47,1.47,0,0,1-.24.83,1.9,1.9,0,0,1-.69.62,3.94,3.94,0,0,1-1.1.38,8.09,8.09,0,0,1-1.47.12,5.49,5.49,0,0,1-2.56-.5,1.58,1.58,0,0,1-.93-1.45,1.56,1.56,0,0,1,.93-1.44A5.35,5.35,0,0,1,240.57,231.8Zm0,3.13a4.78,4.78,0,0,0,1.89-.3.91.91,0,0,0,0-1.75,5.89,5.89,0,0,0-3.77,0,.91.91,0,0,0,0,1.75A4.76,4.76,0,0,0,240.57,234.93Z"/>
  <path class="cls-2" d="M258.24,230.18V231H249v-.79Zm-4.62-5a6.89,6.89,0,0,1,1.5.14,3.68,3.68,0,0,1,1.12.4,2,2,0,0,1,.72.64,1.55,1.55,0,0,1,.25.87,1.52,1.52,0,0,1-.25.86,2.06,2.06,0,0,1-.72.64,4,4,0,0,1-1.12.4,8.05,8.05,0,0,1-3,0,4,4,0,0,1-1.13-.4,2.15,2.15,0,0,1-.72-.64,1.52,1.52,0,0,1-.25-.86,1.55,1.55,0,0,1,.25-.87,2,2,0,0,1,.72-.64,3.75,3.75,0,0,1,1.13-.4A6.86,6.86,0,0,1,253.62,225.23Zm0,6.63a5.46,5.46,0,0,1,2.56.5,1.56,1.56,0,0,1,0,2.86,5.47,5.47,0,0,1-2.56.49,8.06,8.06,0,0,1-1.46-.12,4.09,4.09,0,0,1-1.09-.37,1.92,1.92,0,0,1-.7-.61,1.54,1.54,0,0,1,0-1.65,2,2,0,0,1,.7-.6,3.76,3.76,0,0,1,1.09-.37A8,8,0,0,1,253.62,231.86Zm0-5.87a4.59,4.59,0,0,0-1.92.34,1,1,0,0,0-.71.95,1,1,0,0,0,.71.93,5.59,5.59,0,0,0,3.84,0,1,1,0,0,0,.71-.93,1,1,0,0,0-.71-.95A4.59,4.59,0,0,0,253.63,226Zm0,6.64a4.53,4.53,0,0,0-1.88.31.88.88,0,0,0,0,1.71,4.72,4.72,0,0,0,1.88.3,4.67,4.67,0,0,0,1.87-.3.88.88,0,0,0,0-1.71A4.48,4.48,0,0,0,253.63,232.63Z"/>
  <path class="cls-2" d="M265.51,230c-.35.08-.69.14-1,.19l-1.07.11q-.56,0-1.2.06l-1.45,0H260v-4.67h4.5v.79h-3.57v3.07c.51,0,1,0,1.37,0l1.15-.05c.35,0,.69-.06,1-.11s.66-.1,1-.18Zm1,1.33h.93v4.25H261v-4.25h.92v1.34h4.59Zm0,2.11h-4.59v1.34h4.59Zm2.44-5.1h-1.51v2.4h-.94V225h.94v2.53h1.51Z"/>
  <path class="cls-2" d="M281.78,233.45v.8h-9.25v-.8h3.61v-2.8h.93v2.8Zm-2-4.85c0-.28,0-.55,0-.81v-1h-6.11V226h6.5l.53,0v2c0,.36,0,.74-.05,1.14s-.07.84-.13,1.31-.14,1-.25,1.53l-.92-.12c.1-.48.17-.93.23-1.35s.09-.82.13-1.19l-6.18.34-.13-.84Z"/>
  <path class="cls-2" d="M292.29,233.46v.8H283v-.8Zm-1.07-2.55h-7v-5h6.92v.8h-6v3.36h6.1Z"/>
  <path class="cls-2" d="M212.46,249.38a2,2,0,0,1-.84-.15,1.31,1.31,0,0,1-.54-.44,1.81,1.81,0,0,1-.3-.69,4,4,0,0,1-.09-.89V243.6h-.92v-.83l1-.06.12-1.82h.87v1.82h1.67v.89h-1.67v3.63a1.85,1.85,0,0,0,.2.94.82.82,0,0,0,.76.32,1.18,1.18,0,0,0,.35-.05,2.42,2.42,0,0,0,.35-.11l.21.81a4.58,4.58,0,0,1-.56.17A2.36,2.36,0,0,1,212.46,249.38Z"/>
  <path class="cls-2" d="M215.33,241.37a.69.69,0,0,1-.51-.2.66.66,0,0,1-.21-.51.64.64,0,0,1,.21-.52.78.78,0,0,1,1,0,.64.64,0,0,1,.21.52.66.66,0,0,1-.21.51A.69.69,0,0,1,215.33,241.37Zm-.52,1.34h1v6.52h-1Z"/>
  <path class="cls-2" d="M220.05,249.38a2.38,2.38,0,0,1-1.05-.22,2.28,2.28,0,0,1-.81-.67,3.08,3.08,0,0,1-.51-1.06,5.4,5.4,0,0,1-.18-1.46,4.23,4.23,0,0,1,.22-1.42,3.28,3.28,0,0,1,.59-1.08,2.51,2.51,0,0,1,.84-.69,2.31,2.31,0,0,1,1-.24,2,2,0,0,1,1,.21,3.77,3.77,0,0,1,.8.56l-.06-1.13v-2.51h1v9.56h-.84l-.11-.77h0a3.62,3.62,0,0,1-.84.65A2.1,2.1,0,0,1,220.05,249.38Zm.23-.92a1.64,1.64,0,0,0,.81-.22,3.13,3.13,0,0,0,.77-.68v-3.41a2.77,2.77,0,0,0-.76-.53,1.88,1.88,0,0,0-.74-.15,1.4,1.4,0,0,0-.7.18,1.72,1.72,0,0,0-.57.51,2.43,2.43,0,0,0-.39.79,3.53,3.53,0,0,0-.13,1,3.31,3.31,0,0,0,.44,1.84A1.44,1.44,0,0,0,220.28,248.46Z"/>
  <path class="cls-2" d="M225.45,248.11a12.3,12.3,0,0,1,0-6.52,13.4,13.4,0,0,1,1.23-2.83l.65.32a10,10,0,0,0-1.1,2.76,12.76,12.76,0,0,0,0,6,10,10,0,0,0,1.1,2.76l-.65.32A13.18,13.18,0,0,1,225.45,248.11Z"/>
  <path class="cls-2" d="M233.52,240.51a10.16,10.16,0,0,1-.24,2.23,7.36,7.36,0,0,1-.78,2,8,8,0,0,1-1.43,1.8,9.37,9.37,0,0,1-2.15,1.49l-.51-.77a9.46,9.46,0,0,0,1.78-1.17,7,7,0,0,0,1.27-1.41,6.62,6.62,0,0,0,.79-1.6,8.08,8.08,0,0,0,.34-1.8h-3.73v-.8Zm3.31-1.15v10.76h-.94v-5.65H233.5v-.8h2.39v-4.31Z"/>
  <path class="cls-2" d="M240.15,246.73c.58,0,1.15,0,1.71-.07a14.37,14.37,0,0,0,1.82-.23l.07.81a15,15,0,0,1-2,.24c-.61,0-1.23.05-1.86.05h-.67v-4h2.89v-2.17h-2.93v-.8h3.86v3.78h-2.92Zm7.44-7.38V250.1h-.9v-5.7h-1.46v5.16h-.86v-10h.86v4h1.46v-4.25Z"/>
  <path class="cls-2" d="M249.93,240.43H251v8.8h-1.06Z"/>
  <path class="cls-2" d="M253.27,240.43h2.09a3.74,3.74,0,0,1,2.94,1.13,4.71,4.71,0,0,1,1,3.24,6.24,6.24,0,0,1-.26,1.86,3.84,3.84,0,0,1-.75,1.4,3.17,3.17,0,0,1-1.22.87,4.28,4.28,0,0,1-1.66.3h-2.14Zm2,7.87a2.68,2.68,0,0,0,2.22-.92,4.13,4.13,0,0,0,.73-2.59,4,4,0,0,0-.73-2.58,2.7,2.7,0,0,0-2.22-.89h-.94v7Z"/>
  <path class="cls-2" d="M260.45,250.55a10.69,10.69,0,0,0,1.1-2.76,12.73,12.73,0,0,0,.36-3,12.57,12.57,0,0,0-.36-3,10.9,10.9,0,0,0-1.1-2.77l.64-.31a12.94,12.94,0,0,1,1.24,2.83,12,12,0,0,1,0,6.52,12.94,12.94,0,0,1-1.24,2.83Z"/>
  <path class="cls-2" d="M276.25,243.89v.79H267v-.79h6.87a11.47,11.47,0,0,0,.26-1.77c0-.51,0-1,0-1.4h-6v-.79h6.91v.79c0,.42,0,.89,0,1.39a11.13,11.13,0,0,1-.24,1.78Zm-8.14,2.25h7V250h-7Zm.92,3h5.13v-2.25H269Z"/>
  <path class="cls-2" d="M282.22,242.57a3.09,3.09,0,0,1-.17,1,2.39,2.39,0,0,1-.49.8,2,2,0,0,1-.74.51,2.18,2.18,0,0,1-.93.19,2.31,2.31,0,0,1-1.67-.7,2.54,2.54,0,0,1-.48-.8,2.86,2.86,0,0,1-.18-1,2.91,2.91,0,0,1,.18-1,2.54,2.54,0,0,1,.48-.8,2.27,2.27,0,0,1,1.67-.71,2.18,2.18,0,0,1,.93.19,2.07,2.07,0,0,1,.74.52,2.39,2.39,0,0,1,.49.8A3.15,3.15,0,0,1,282.22,242.57Zm-3.82,0a2,2,0,0,0,.12.7,1.59,1.59,0,0,0,.31.54,1.34,1.34,0,0,0,.46.36,1.5,1.5,0,0,0,.6.12,1.33,1.33,0,0,0,1.05-.48,1.76,1.76,0,0,0,.3-.54,2,2,0,0,0,.12-.7,2,2,0,0,0-.42-1.24,1.35,1.35,0,0,0-.47-.35,1.24,1.24,0,0,0-.58-.13,1.35,1.35,0,0,0-.6.13,1.31,1.31,0,0,0-.46.35,1.74,1.74,0,0,0-.31.55A1.92,1.92,0,0,0,278.4,242.57Zm.81,3.8h6.88v3.76h-.94v-3h-5.94Zm6.88-7v6.41h-.9v-2.83h-1.31v2.77H283v-6.15h.87v2.57h1.31v-2.77Z"/>
  <path class="cls-2" d="M293.48,242.66a5.66,5.66,0,0,0,.14,1.29,5.56,5.56,0,0,0,.44,1.2,4.64,4.64,0,0,0,.69,1,3.49,3.49,0,0,0,.93.75l-.54.75a4,4,0,0,1-1.28-1.23,6,6,0,0,1-.82-1.75,6.45,6.45,0,0,1-.79,1.88,4.19,4.19,0,0,1-1.28,1.33l-.55-.74a3.74,3.74,0,0,0,.92-.82,4.72,4.72,0,0,0,.68-1.1,5.49,5.49,0,0,0,.42-1.26,6.1,6.1,0,0,0,.15-1.33v-.51h-1.9v-.81h1.9v-1.59h.9v1.59h1.88v.81h-1.89Zm2.75-3h.89v9.93h-.89v-5.14h-1.56v-.8h1.56Zm3-.27V250.1h-.9V239.35Z"/>
  <path class="cls-2" d="M310.24,247.81v.81H301v-.81Zm-2.07-4.38c0-.28,0-.56,0-.83v-1.35h-6.1v-.81h7v1.32c0,.4,0,.8,0,1.18s0,.8-.05,1.22-.08.86-.13,1.33-.15,1-.26,1.53l-.92-.1c.1-.52.19-1,.25-1.45s.11-.88.14-1.3l-6.17.36-.14-.81Z"/>
  <path class="cls-2" d="M377.17,226h2.39a6.22,6.22,0,0,1,1.28.13,2.64,2.64,0,0,1,1,.44,2,2,0,0,1,.64.8,2.9,2.9,0,0,1,.23,1.21,3,3,0,0,1-.22,1.21,2.21,2.21,0,0,1-.64.86,2.61,2.61,0,0,1-1,.49,4.53,4.53,0,0,1-1.26.16h-1.38v3.5h-1.06Zm2.3,4.42a2.55,2.55,0,0,0,1.64-.44,1.74,1.74,0,0,0,.53-1.4,1.45,1.45,0,0,0-.55-1.32,3,3,0,0,0-1.66-.37h-1.2v3.53Z"/>
  <path class="cls-2" d="M387.47,235a3.18,3.18,0,0,1-1.45-.32,3.27,3.27,0,0,1-1.13-.91,4.24,4.24,0,0,1-.73-1.44,6.35,6.35,0,0,1-.26-1.91,6.24,6.24,0,0,1,.26-1.9,4.23,4.23,0,0,1,.73-1.42,3.13,3.13,0,0,1,1.13-.9,3.42,3.42,0,0,1,2.89,0,3.13,3.13,0,0,1,1.13.9,4.23,4.23,0,0,1,.73,1.42,6.24,6.24,0,0,1,.26,1.9,6.35,6.35,0,0,1-.26,1.91,4.24,4.24,0,0,1-.73,1.44,3.27,3.27,0,0,1-1.13.91A3.17,3.17,0,0,1,387.47,235Zm0-1a1.93,1.93,0,0,0,1-.26,2.26,2.26,0,0,0,.79-.72,3.31,3.31,0,0,0,.5-1.14,6.26,6.26,0,0,0,0-3,3.29,3.29,0,0,0-.5-1.12,2.19,2.19,0,0,0-2.83-.71,2.19,2.19,0,0,0-.78.71,3.29,3.29,0,0,0-.5,1.12,6.26,6.26,0,0,0,0,3,3.31,3.31,0,0,0,.5,1.14,2.32,2.32,0,0,0,.78.72A2,2,0,0,0,387.47,234Z"/>
  <path class="cls-2" d="M395.16,235a3.88,3.88,0,0,1-1.64-.34,4.22,4.22,0,0,1-1.29-1l.63-.76a3.34,3.34,0,0,0,1.06.8,2.9,2.9,0,0,0,1.25.29,2,2,0,0,0,1.29-.39,1.33,1.33,0,0,0,.47-1.05,1.41,1.41,0,0,0-.11-.57,1.31,1.31,0,0,0-.3-.41,2.12,2.12,0,0,0-.44-.3l-.54-.28-1.21-.55a4.37,4.37,0,0,1-.6-.32,2.53,2.53,0,0,1-.54-.45,2.34,2.34,0,0,1-.41-.64,2.22,2.22,0,0,1-.15-.85,2.25,2.25,0,0,1,.2-.93,2.15,2.15,0,0,1,.55-.75,2.42,2.42,0,0,1,.83-.48,3,3,0,0,1,1.05-.18,3.21,3.21,0,0,1,1.39.3,3.59,3.59,0,0,1,1.08.79l-.56.71a3.11,3.11,0,0,0-.86-.6,2.38,2.38,0,0,0-1.05-.23,1.74,1.74,0,0,0-1.14.35,1.17,1.17,0,0,0-.42.95,1,1,0,0,0,.13.55,1.38,1.38,0,0,0,.31.4,2,2,0,0,0,.45.29l.49.23,1.2.54a4.92,4.92,0,0,1,.68.37,2.24,2.24,0,0,1,.54.48,2,2,0,0,1,.37.64,2.73,2.73,0,0,1,.13.86,2.49,2.49,0,0,1-.2,1,2.31,2.31,0,0,1-.57.79,2.54,2.54,0,0,1-.89.53A3.4,3.4,0,0,1,395.16,235Z"/>
  <path class="cls-2" d="M401.13,227H398.6V226h6.12V227h-2.53v7.86h-1.06Z"/>
  <path class="cls-2" d="M411.18,224.71h.75l-3.41,11.66h-.76Z"/>
  <path class="cls-2" d="M412.25,228.31h1.08l1.16,3.71c.1.32.2.64.29,1s.2.65.3.95h0l.29-.95c.1-.33.19-.65.28-1l1.18-3.71h1l-2.2,6.52h-1.21Z"/>
  <path class="cls-2" d="M424,233.94v.89h-4.52v-.89h1.86v-6.33a2.91,2.91,0,0,1,0-.31l-1.51,1.43-.56-.71,2.24-2h.83v8Z"/>
  <path class="cls-2" d="M428.38,224.71h.75l-3.41,11.66H425Z"/>
  <path class="cls-2" d="M430.35,228.31h.86l.09.75h0a5.11,5.11,0,0,1,.93-.64,2.16,2.16,0,0,1,1-.28,2.27,2.27,0,0,1,1.06.24,2.1,2.1,0,0,1,.77.68,3,3,0,0,1,.48,1,5.72,5.72,0,0,1,.16,1.37,4.53,4.53,0,0,1-.23,1.49,3.26,3.26,0,0,1-.59,1.11,2.61,2.61,0,0,1-.85.68,2.3,2.3,0,0,1-1,.23,2,2,0,0,1-.86-.2,3.56,3.56,0,0,1-.85-.56l0,1.14v2.22h-1Zm2.56,5.75a1.47,1.47,0,0,0,.71-.18,1.8,1.8,0,0,0,.56-.51,2.33,2.33,0,0,0,.37-.81,4,4,0,0,0,.13-1.09,5,5,0,0,0-.09-1,2.36,2.36,0,0,0-.28-.76,1.46,1.46,0,0,0-.5-.49,1.5,1.5,0,0,0-.76-.17,1.64,1.64,0,0,0-.8.22,4.7,4.7,0,0,0-.86.67v3.42a2.73,2.73,0,0,0,.81.53A2.06,2.06,0,0,0,432.91,234.06Z"/>
  <path class="cls-2" d="M438.65,235a1.88,1.88,0,0,1-.72-.13,1.59,1.59,0,0,1-.57-.38,1.69,1.69,0,0,1-.37-.59,2.07,2.07,0,0,1-.14-.8,1.89,1.89,0,0,1,1-1.8,5.89,5.89,0,0,1,2.82-.57,3.08,3.08,0,0,0-.06-.61,1.46,1.46,0,0,0-.2-.53,1.16,1.16,0,0,0-.39-.37,1.34,1.34,0,0,0-.63-.13,3.13,3.13,0,0,0-1.05.18,4.07,4.07,0,0,0-.86.45l-.42-.78a5.54,5.54,0,0,1,1.09-.53,3.88,3.88,0,0,1,1.41-.25,2.4,2.4,0,0,1,1,.19,1.81,1.81,0,0,1,.67.55,2.65,2.65,0,0,1,.38.85,4.61,4.61,0,0,1,.12,1.09v4h-.85l-.09-.71h0a3.79,3.79,0,0,1-1,.63A2.74,2.74,0,0,1,438.65,235Zm.3-.88a2.19,2.19,0,0,0,.85-.17,3.08,3.08,0,0,0,.86-.59v-1.93a12.13,12.13,0,0,0-1.37.17,2.94,2.94,0,0,0-.86.31,1.07,1.07,0,0,0-.44.46,1.55,1.55,0,0,0-.13.64,1.08,1.08,0,0,0,.31.84A1.16,1.16,0,0,0,439,234.1Z"/>
  <path class="cls-2" d="M444.29,237.64l1-2.87-2.48-6.46h1.08l1.27,3.55c.09.28.18.58.29.9s.2.63.3.93h.06c.08-.3.17-.6.26-.92s.18-.62.26-.91l1.11-3.55h1l-3.16,9.33Z"/>
  <path class="cls-2" d="M449.61,228.31h.85l.09.95h0a4.09,4.09,0,0,1,.88-.79,1.81,1.81,0,0,1,1-.33,1.72,1.72,0,0,1,1.12.34,2,2,0,0,1,.59.91,5.38,5.38,0,0,1,1-.9,1.82,1.82,0,0,1,1.06-.35,1.64,1.64,0,0,1,1.43.65,3.35,3.35,0,0,1,.45,1.91v4.13h-1v-4a2.48,2.48,0,0,0-.28-1.33,1,1,0,0,0-.87-.41,2.35,2.35,0,0,0-1.57,1v4.73h-1v-4a2.48,2.48,0,0,0-.28-1.33,1,1,0,0,0-.87-.41,2.3,2.3,0,0,0-1.57,1v4.73h-1Z"/>
  <path class="cls-2" d="M462.66,235a3,3,0,0,1-1.16-.22,2.84,2.84,0,0,1-.94-.67,3.22,3.22,0,0,1-.63-1.07,4.1,4.1,0,0,1-.24-1.44,4,4,0,0,1,.24-1.43,3.33,3.33,0,0,1,.62-1.08,2.71,2.71,0,0,1,.9-.69,2.43,2.43,0,0,1,1-.24,2.46,2.46,0,0,1,1.05.22,2,2,0,0,1,.78.62,2.79,2.79,0,0,1,.48,1,4.53,4.53,0,0,1,.16,1.26c0,.12,0,.24,0,.34s0,.21,0,.29h-4.19a2.61,2.61,0,0,0,.61,1.66,1.88,1.88,0,0,0,1.44.61,2.47,2.47,0,0,0,.84-.14,2.86,2.86,0,0,0,.71-.38l.38.72a4.37,4.37,0,0,1-.91.48A3,3,0,0,1,462.66,235Zm1.38-3.92a2.4,2.4,0,0,0-.41-1.51,1.33,1.33,0,0,0-1.13-.52,1.52,1.52,0,0,0-.63.14,1.62,1.62,0,0,0-.55.4,2.17,2.17,0,0,0-.39.63,2.78,2.78,0,0,0-.21.86Z"/>
  <path class="cls-2" d="M466.48,228.31h.85l.09.94h0a4.87,4.87,0,0,1,.94-.78,2,2,0,0,1,1.13-.33,1.64,1.64,0,0,1,1.44.65,3.34,3.34,0,0,1,.46,1.91v4.13h-1v-4a2.48,2.48,0,0,0-.28-1.33,1,1,0,0,0-.9-.41,1.47,1.47,0,0,0-.85.26,4.72,4.72,0,0,0-.84.74v4.73h-1Z"/>
  <path class="cls-2" d="M475.39,235a2.1,2.1,0,0,1-.84-.15,1.46,1.46,0,0,1-.54-.44,2,2,0,0,1-.29-.69,4,4,0,0,1-.09-.89V229.2h-.93v-.83l1-.06.13-1.82h.86v1.82h1.68v.89h-1.68v3.63a1.72,1.72,0,0,0,.21.94.82.82,0,0,0,.75.33A1.17,1.17,0,0,0,476,234l.36-.11.2.81a4.1,4.1,0,0,1-.56.17A2.3,2.3,0,0,1,475.39,235Z"/>
  <path class="cls-2" d="M479.36,235a3.27,3.27,0,0,1-1.27-.25,4,4,0,0,1-1-.65l.51-.72a3.24,3.24,0,0,0,.84.56,2.25,2.25,0,0,0,1,.21,1.26,1.26,0,0,0,.92-.3,1,1,0,0,0,.3-.72.75.75,0,0,0-.12-.43,1.26,1.26,0,0,0-.33-.32,2,2,0,0,0-.45-.26l-.51-.23a6.11,6.11,0,0,1-.66-.27,3.3,3.3,0,0,1-.59-.38,1.78,1.78,0,0,1-.43-.52,1.41,1.41,0,0,1-.17-.71,1.75,1.75,0,0,1,.15-.72,1.7,1.7,0,0,1,.41-.59,2,2,0,0,1,.67-.39,2.77,2.77,0,0,1,2,.07,3.55,3.55,0,0,1,.85.51l-.5.7a3.66,3.66,0,0,0-.67-.41,1.67,1.67,0,0,0-.76-.17,1.17,1.17,0,0,0-.85.28.93.93,0,0,0-.27.66.68.68,0,0,0,.11.41,1.21,1.21,0,0,0,.31.28,2.27,2.27,0,0,0,.44.23l.5.21.68.29a2.86,2.86,0,0,1,.61.38,1.93,1.93,0,0,1,.44.54,1.64,1.64,0,0,1,.17.78,1.93,1.93,0,0,1-.15.75,1.74,1.74,0,0,1-.43.61,2.34,2.34,0,0,1-.71.42A2.91,2.91,0,0,1,479.36,235Z"/>
  <path class="cls-2" d="M485.57,224.71h.75l-3.4,11.66h-.77Z"/>
  <path class="cls-2" d="M488.74,236.15a1.13,1.13,0,0,1-.47-.29,1.35,1.35,0,0,1-.27-.55,3.47,3.47,0,0,1-.09-.87c0-.24,0-.46,0-.68s0-.43,0-.63,0-.41,0-.62,0-.42,0-.65a1.28,1.28,0,0,0,0-.38.84.84,0,0,0-.17-.34,1.08,1.08,0,0,0-.33-.24,1.45,1.45,0,0,0-.54-.09v-.69a1.45,1.45,0,0,0,.54-.09,1.08,1.08,0,0,0,.33-.24.87.87,0,0,0,.17-.33,1.24,1.24,0,0,0,0-.38c0-.22,0-.44,0-.65s0-.41,0-.62,0-.42,0-.64,0-.44,0-.68a3.58,3.58,0,0,1,.09-.87,1.35,1.35,0,0,1,.27-.55,1.13,1.13,0,0,1,.47-.29,2.59,2.59,0,0,1,.66-.08H490v.61h-.33a.74.74,0,0,0-.69.3,1.85,1.85,0,0,0-.18.94c0,.4,0,.8,0,1.17s0,.8,0,1.26a2.2,2.2,0,0,1-.17,1,.89.89,0,0,1-.59.47v0a.93.93,0,0,1,.59.48,2.2,2.2,0,0,1,.17,1c0,.45,0,.87,0,1.25s0,.78,0,1.18a1.83,1.83,0,0,0,.18.94.76.76,0,0,0,.69.29H490v.62h-.56A2.59,2.59,0,0,1,488.74,236.15Z"/>
  <path class="cls-2" d="M493.35,235a2,2,0,0,1-.84-.15,1.31,1.31,0,0,1-.54-.44,1.81,1.81,0,0,1-.3-.69,4,4,0,0,1-.09-.89V229.2h-.92v-.83l1-.06.12-1.82h.87v1.82h1.67v.89h-1.67v3.63a1.83,1.83,0,0,0,.2.94.82.82,0,0,0,.75.33,1.23,1.23,0,0,0,.36-.06,2.42,2.42,0,0,0,.35-.11l.21.81a4.58,4.58,0,0,1-.56.17A2.36,2.36,0,0,1,493.35,235Z"/>
  <path class="cls-2" d="M496.22,227a.71.71,0,0,1-.51-.2.66.66,0,0,1-.21-.51.64.64,0,0,1,.21-.52.7.7,0,0,1,.51-.19.69.69,0,0,1,.51.19.64.64,0,0,1,.21.52.66.66,0,0,1-.21.51A.69.69,0,0,1,496.22,227Zm-.52,1.34h1v6.52h-1Z"/>
  <path class="cls-2" d="M500.94,235a2.24,2.24,0,0,1-1.86-.88,3.22,3.22,0,0,1-.51-1.07,5.38,5.38,0,0,1-.18-1.45,4.25,4.25,0,0,1,.22-1.43,3.46,3.46,0,0,1,.58-1.08,2.64,2.64,0,0,1,.85-.69,2.31,2.31,0,0,1,1-.24,2,2,0,0,1,.95.21,3.77,3.77,0,0,1,.8.56l-.06-1.13v-2.5h1v9.55H503l-.11-.77h0a3.37,3.37,0,0,1-.84.65A2.1,2.1,0,0,1,500.94,235Zm.23-.92a1.54,1.54,0,0,0,.81-.22,3.13,3.13,0,0,0,.77-.68v-3.41a2.77,2.77,0,0,0-.76-.53,1.88,1.88,0,0,0-.74-.15,1.4,1.4,0,0,0-.7.18,1.72,1.72,0,0,0-.57.51,2.54,2.54,0,0,0-.39.79,3.53,3.53,0,0,0-.13,1,3.31,3.31,0,0,0,.44,1.84A1.44,1.44,0,0,0,501.17,234.06Z"/>
  <path class="cls-2" d="M505.24,235.61h.33a.73.73,0,0,0,.69-.29,1.85,1.85,0,0,0,.17-.94c0-.4,0-.8,0-1.18s0-.8,0-1.25a2.35,2.35,0,0,1,.17-1,1,1,0,0,1,.59-.48v0a.91.91,0,0,1-.59-.47,2.35,2.35,0,0,1-.17-1q0-.69,0-1.26c0-.37,0-.77,0-1.17a1.87,1.87,0,0,0-.17-.94.72.72,0,0,0-.69-.3h-.33v-.61h.57a2.46,2.46,0,0,1,.65.08,1.07,1.07,0,0,1,.47.29,1.36,1.36,0,0,1,.28.55,3.58,3.58,0,0,1,.09.87c0,.24,0,.46,0,.68l0,.64,0,.62c0,.21,0,.43,0,.65a1.64,1.64,0,0,0,0,.38.87.87,0,0,0,.17.33,1.4,1.4,0,0,0,.33.24,1.38,1.38,0,0,0,.54.09v.69a1.38,1.38,0,0,0-.54.09,1.4,1.4,0,0,0-.33.24.84.84,0,0,0-.17.34,1.69,1.69,0,0,0,0,.38c0,.23,0,.44,0,.65l0,.62,0,.63c0,.22,0,.44,0,.68a3.47,3.47,0,0,1-.09.87,1.36,1.36,0,0,1-.28.55,1.07,1.07,0,0,1-.47.29,2.46,2.46,0,0,1-.65.08h-.57Z"/>
  <path class="cls-2" d="M420,244.49v.8h-9.24v-.8Zm-.87-.85a6.62,6.62,0,0,1-1.16-.31,5.68,5.68,0,0,1-1.05-.51,4.7,4.7,0,0,1-.89-.69,3.72,3.72,0,0,1-.64-.85,3.28,3.28,0,0,1-.63.86,5.5,5.5,0,0,1-.89.68,6.1,6.1,0,0,1-1.06.51,6.86,6.86,0,0,1-1.16.31l-.34-.77a6.92,6.92,0,0,0,1.33-.37,4.87,4.87,0,0,0,1.15-.63,3.28,3.28,0,0,0,.81-.86,1.76,1.76,0,0,0,.31-1v-.48h1V240a1.7,1.7,0,0,0,.31,1,3.28,3.28,0,0,0,.81.86,5.1,5.1,0,0,0,1.15.64,6.13,6.13,0,0,0,1.33.38Zm-3.75,2.64a5.47,5.47,0,0,1,2.56.49,1.53,1.53,0,0,1,.92,1.42,1.49,1.49,0,0,1-.23.82,2,2,0,0,1-.69.61,4.17,4.17,0,0,1-1.1.37,7.84,7.84,0,0,1-1.46.13,5.53,5.53,0,0,1-2.57-.5,1.57,1.57,0,0,1-.93-1.43,1.38,1.38,0,0,1,.24-.81,2,2,0,0,1,.69-.61,4.17,4.17,0,0,1,1.1-.37A8.25,8.25,0,0,1,415.33,246.28Zm0,3.07a4.69,4.69,0,0,0,1.88-.3.92.92,0,0,0,.67-.85.94.94,0,0,0-.67-.86,4.69,4.69,0,0,0-1.88-.3,4.78,4.78,0,0,0-1.89.3,1,1,0,0,0-.68.86.93.93,0,0,0,.68.85A4.78,4.78,0,0,0,415.33,249.35Z"/>
  <path class="cls-2" d="M426.78,242.75a2.83,2.83,0,0,1-.2,1.07,2.5,2.5,0,0,1-.57.84,2.45,2.45,0,0,1-.85.55,2.91,2.91,0,0,1-2.12,0,2.5,2.5,0,0,1-.84-.55,2.34,2.34,0,0,1-.56-.84,2.65,2.65,0,0,1-.2-1.07,2.6,2.6,0,0,1,.2-1.06,2.34,2.34,0,0,1,.56-.84,2.5,2.5,0,0,1,.84-.55,3.05,3.05,0,0,1,2.12,0,2.45,2.45,0,0,1,.85.55,2.5,2.5,0,0,1,.57.84A2.78,2.78,0,0,1,426.78,242.75Zm-4.42,0a1.93,1.93,0,0,0,.13.73,1.89,1.89,0,0,0,.36.58,1.66,1.66,0,0,0,.56.37,1.73,1.73,0,0,0,.69.13,1.82,1.82,0,0,0,.7-.13,1.76,1.76,0,0,0,.56-.37,1.75,1.75,0,0,0,.37-.58,1.93,1.93,0,0,0,.13-.73,1.81,1.81,0,0,0-.13-.72,1.7,1.7,0,0,0-.37-.57,1.76,1.76,0,0,0-.56-.37,1.82,1.82,0,0,0-.7-.13,1.73,1.73,0,0,0-.69.13,1.66,1.66,0,0,0-.56.37,1.85,1.85,0,0,0-.36.57A1.81,1.81,0,0,0,422.36,242.75Zm7.53,6.32v.8H423v-3.45h.93v2.65Zm-.3-1.85h-.94v-7.86h.94Z"/>
  <path class="cls-2" d="M438.6,246.54h-3.05l-.81,2.69h-1.07l2.84-8.8h1.17l2.84,8.8H439.4Zm-.26-.89-.4-1.35c-.15-.5-.29-1-.43-1.48s-.27-1-.41-1.5h-.05c-.12.52-.26,1-.39,1.5l-.44,1.48-.41,1.35Z"/>
  <path class="cls-2" d="M441.69,240.43h2.39a6.4,6.4,0,0,1,1.29.13,2.67,2.67,0,0,1,1,.44,2,2,0,0,1,.64.8,2.75,2.75,0,0,1,.23,1.21,3,3,0,0,1-.22,1.21,2.29,2.29,0,0,1-.63.86,2.82,2.82,0,0,1-1,.49,4.5,4.5,0,0,1-1.25.17h-1.39v3.49h-1.06Zm2.31,4.42a2.54,2.54,0,0,0,1.63-.44,1.71,1.71,0,0,0,.53-1.4,1.45,1.45,0,0,0-.55-1.32,3,3,0,0,0-1.66-.37h-1.2v3.53Z"/>
  <path class="cls-2" d="M448.9,240.43H450v8.8H448.9Z"/>
  <path class="cls-2" d="M463.53,248.05v.81h-9.27v-.81h4.16v-1.51a4.27,4.27,0,0,1-2.13-.61,1.66,1.66,0,0,1-.77-1.43,1.57,1.57,0,0,1,.24-.86,1.79,1.79,0,0,1,.66-.65,3.55,3.55,0,0,1,1.06-.39,6.63,6.63,0,0,1,1.4-.14,6.44,6.44,0,0,1,1.38.14,3.42,3.42,0,0,1,1,.39,1.9,1.9,0,0,1,.67.65,1.56,1.56,0,0,1,.23.86,1.64,1.64,0,0,1-.75,1.42,4.15,4.15,0,0,1-2.1.62v1.51Zm-.52-6.32h-8.3v-.81h3.71v-1.4h.93v1.4H463Zm-6.55,2.76a1,1,0,0,0,.64.95,4,4,0,0,0,1.78.33,3.87,3.87,0,0,0,1.75-.33,1,1,0,0,0,.64-.95,1,1,0,0,0-.64-.93,3.87,3.87,0,0,0-1.75-.33,4,4,0,0,0-1.78.33A1,1,0,0,0,456.46,244.49Z"/>
  <path class="cls-2" d="M469.84,244.88v1h3v2.35h-6v1h6.31V250h-7.23v-2.47h6v-.91h-6v-.73h3v-1h-4.13v-.76H474v.76Zm-4.61-2a7,7,0,0,0,1.34-.2,4.59,4.59,0,0,0,1.12-.38,2.53,2.53,0,0,0,.79-.56,1.26,1.26,0,0,0,.37-.72h-3.16v-.74h3.22v-1h.93v1H473V241H469.9a1.3,1.3,0,0,0,.36.72,2.6,2.6,0,0,0,.78.56,5,5,0,0,0,1.11.38,7.07,7.07,0,0,0,1.35.2l-.28.75a8.23,8.23,0,0,1-1.24-.18,5.8,5.8,0,0,1-1.09-.35,3.66,3.66,0,0,1-.89-.5,2.49,2.49,0,0,1-.63-.67,2.62,2.62,0,0,1-.62.67,3.55,3.55,0,0,1-.9.5,5.9,5.9,0,0,1-1.1.35,8,8,0,0,1-1.24.18Z"/>
  <path class="cls-2" d="M577,236.57v.8h-9.24v-.8Zm-.88-.86a5.73,5.73,0,0,1-1.15-.3,6.1,6.1,0,0,1-1.06-.51,5,5,0,0,1-.88-.69,3.45,3.45,0,0,1-.64-.85,3.07,3.07,0,0,1-.64.85,4.63,4.63,0,0,1-.88.69,6.1,6.1,0,0,1-1.06.51,6,6,0,0,1-1.16.3l-.35-.76a7,7,0,0,0,1.34-.37,4.87,4.87,0,0,0,1.15-.63,3.64,3.64,0,0,0,.81-.86,1.84,1.84,0,0,0,.31-1v-.48h1v.48a1.84,1.84,0,0,0,.3,1,3.64,3.64,0,0,0,.82.85,5.54,5.54,0,0,0,1.15.65,6.72,6.72,0,0,0,1.33.37Zm-3.74,2.64a5.46,5.46,0,0,1,2.56.5,1.53,1.53,0,0,1,.92,1.42,1.41,1.41,0,0,1-.24.82,1.93,1.93,0,0,1-.68.61,4.17,4.17,0,0,1-1.1.37,7.92,7.92,0,0,1-1.46.13,5.53,5.53,0,0,1-2.57-.5,1.58,1.58,0,0,1-.94-1.43,1.38,1.38,0,0,1,.24-.81,1.92,1.92,0,0,1,.7-.61,4.17,4.17,0,0,1,1.1-.37A8,8,0,0,1,572.33,238.35Zm0,3.08a4.72,4.72,0,0,0,1.88-.3.94.94,0,0,0,.67-.86,1,1,0,0,0-.67-.85,4.72,4.72,0,0,0-1.88-.3,4.83,4.83,0,0,0-1.9.3.94.94,0,0,0-.67.85.92.92,0,0,0,.67.86A4.83,4.83,0,0,0,572.33,241.43Z"/>
  <path class="cls-2" d="M583.78,234.83a2.83,2.83,0,0,1-.2,1.07,2.71,2.71,0,0,1-.57.84,2.45,2.45,0,0,1-.85.55,2.86,2.86,0,0,1-1.06.2,2.82,2.82,0,0,1-1.06-.2,2.54,2.54,0,0,1-.85-.55,2.69,2.69,0,0,1-.56-.84,2.83,2.83,0,0,1-.19-1.07,2.87,2.87,0,0,1,.19-1.07,2.44,2.44,0,0,1,1.41-1.38,2.81,2.81,0,0,1,1.06-.19,2.85,2.85,0,0,1,1.06.19,2.57,2.57,0,0,1,.85.54,2.71,2.71,0,0,1,.57.84A2.87,2.87,0,0,1,583.78,234.83Zm-4.42,0a2,2,0,0,0,.13.73,1.85,1.85,0,0,0,.36.57,1.75,1.75,0,0,0,.55.38,1.95,1.95,0,0,0,1.4,0,1.79,1.79,0,0,0,.56-.38,1.7,1.7,0,0,0,.37-.57,2.2,2.2,0,0,0,.13-.73,2,2,0,0,0-.13-.72,1.7,1.7,0,0,0-.37-.57,1.76,1.76,0,0,0-.56-.37,1.95,1.95,0,0,0-1.4,0,1.72,1.72,0,0,0-.55.37,1.85,1.85,0,0,0-.36.57A1.81,1.81,0,0,0,579.36,234.83Zm7.53,6.32v.8H580V238.5h.93v2.65Zm-.3-1.85h-.94v-7.86h.94Z"/>
  <path class="cls-2" d="M571.24,249.31a4.54,4.54,0,0,0,.2,1.32,5.1,5.1,0,0,0,.55,1.21,5,5,0,0,0,.82,1,4.05,4.05,0,0,0,1.05.71l-.51.75a4.55,4.55,0,0,1-1.55-1.24,5.69,5.69,0,0,1-1-1.9,6.53,6.53,0,0,1-1,2,4.67,4.67,0,0,1-1.55,1.34l-.52-.76a4.35,4.35,0,0,0,1-.75,5.27,5.27,0,0,0,.82-1.06,5.34,5.34,0,0,0,.54-1.27,4.94,4.94,0,0,0,.2-1.37v-.83H568v-.79h2.31V246h.93v1.67h2.27v.79h-2.27Zm4.89-3.49v10.8h-.93V251H573v-.8h2.21v-4.33Z"/>
  <path class="cls-2" d="M579.72,253.2l1.23,0c.41,0,.81,0,1.21-.06s.82-.07,1.23-.12.85-.11,1.3-.19l.09.8c-.46.08-.91.15-1.34.2s-.85.09-1.27.12l-1.25.06h-2.13v-4.13h3.76v-2.24h-3.8v-.8h4.73v3.85h-3.76Zm6.87-7.38v10.79h-.94V245.82Z"/>
  <path class="cls-2" d="M428,290.27v.8h-9.24v-.8Zm-.87-.85a6.62,6.62,0,0,1-1.16-.31,6.1,6.1,0,0,1-1.06-.51,5,5,0,0,1-.88-.69,3.6,3.6,0,0,1-.64-.84,3.41,3.41,0,0,1-.63.85,5.5,5.5,0,0,1-.89.68,6.1,6.1,0,0,1-1.06.51,6.86,6.86,0,0,1-1.16.31l-.34-.77a5.73,5.73,0,0,0,1.33-.37,4.87,4.87,0,0,0,1.15-.63,3.6,3.6,0,0,0,.81-.85,1.79,1.79,0,0,0,.31-1v-.48h1v.48a1.79,1.79,0,0,0,.3,1,3.64,3.64,0,0,0,.82.85,5.12,5.12,0,0,0,1.15.65,6.11,6.11,0,0,0,1.33.37Zm-3.75,2.64a5.47,5.47,0,0,1,2.56.49,1.53,1.53,0,0,1,.92,1.42,1.47,1.47,0,0,1-.24.83,1.92,1.92,0,0,1-.68.6,3.84,3.84,0,0,1-1.1.37,7.14,7.14,0,0,1-1.46.13,5.53,5.53,0,0,1-2.57-.5,1.57,1.57,0,0,1-.93-1.43,1.42,1.42,0,0,1,.23-.81,1.89,1.89,0,0,1,.7-.6,3.83,3.83,0,0,1,1.1-.38A8.17,8.17,0,0,1,423.34,292.06Zm0,3.07a4.94,4.94,0,0,0,1.88-.29.94.94,0,0,0,.67-.86.93.93,0,0,0-.67-.85,4.72,4.72,0,0,0-1.88-.3,4.83,4.83,0,0,0-1.9.3.93.93,0,0,0-.67.85.94.94,0,0,0,.67.86A5,5,0,0,0,423.34,295.13Z"/>
  <path class="cls-2" d="M434.79,288.53a2.83,2.83,0,0,1-.2,1.07,2.5,2.5,0,0,1-.57.84,2.45,2.45,0,0,1-.85.55,2.67,2.67,0,0,1-1.06.2,2.63,2.63,0,0,1-1.06-.2,2.4,2.4,0,0,1-.84-.55,2.5,2.5,0,0,1-.57-.84,3.08,3.08,0,0,1,0-2.13,2.5,2.5,0,0,1,.57-.84,2.4,2.4,0,0,1,.84-.55,2.81,2.81,0,0,1,1.06-.19,2.85,2.85,0,0,1,1.06.19,2.45,2.45,0,0,1,.85.55,2.5,2.5,0,0,1,.57.84A2.82,2.82,0,0,1,434.79,288.53Zm-4.42,0a1.93,1.93,0,0,0,.13.73,1.78,1.78,0,0,0,.36.58,1.72,1.72,0,0,0,.55.37,1.95,1.95,0,0,0,1.4,0,1.76,1.76,0,0,0,.56-.37,1.65,1.65,0,0,0,.37-.58,2.15,2.15,0,0,0,.13-.73,2.09,2.09,0,0,0-.13-.72,1.81,1.81,0,0,0-.37-.57,2,2,0,0,0-.56-.37,1.95,1.95,0,0,0-1.4,0,1.9,1.9,0,0,0-.55.37,2,2,0,0,0-.36.57A1.88,1.88,0,0,0,430.37,288.53Zm7.53,6.32v.81H431V292.2H432v2.65Zm-.3-1.84h-.94v-7.86h.94Z"/>
  <path class="cls-2" d="M451.48,290.37v.79h-9.23v-.79Zm-4.62-5a7.5,7.5,0,0,1,1.5.14,3.85,3.85,0,0,1,1.13.4,2,2,0,0,1,.71.65,1.55,1.55,0,0,1,0,1.72,1.93,1.93,0,0,1-.71.64,3.85,3.85,0,0,1-1.13.4,8,8,0,0,1-3,0,3.72,3.72,0,0,1-1.14-.4,2,2,0,0,1-.72-.64,1.6,1.6,0,0,1,0-1.72,2.07,2.07,0,0,1,.72-.65,3.72,3.72,0,0,1,1.14-.4A7.44,7.44,0,0,1,446.86,285.41Zm0,6.64a5.51,5.51,0,0,1,2.57.49,1.57,1.57,0,0,1,0,2.86,5.5,5.5,0,0,1-2.57.5,7.2,7.2,0,0,1-1.46-.13,3.87,3.87,0,0,1-1.09-.37,1.92,1.92,0,0,1-.7-.61,1.51,1.51,0,0,1-.23-.82,1.49,1.49,0,0,1,.23-.82,1.92,1.92,0,0,1,.7-.61,4.22,4.22,0,0,1,1.09-.37A8.06,8.06,0,0,1,446.86,292.05Zm0-5.87a4.6,4.6,0,0,0-1.92.33,1,1,0,0,0,0,1.89,5.75,5.75,0,0,0,3.84,0,1,1,0,0,0,0-1.89A4.6,4.6,0,0,0,446.87,286.18Zm0,6.63a4.56,4.56,0,0,0-1.88.31,1,1,0,0,0-.67.86.94.94,0,0,0,.67.85,6,6,0,0,0,3.76,0,.94.94,0,0,0,.67-.85,1,1,0,0,0-.67-.86A4.56,4.56,0,0,0,446.87,292.81Z"/>
  <path class="cls-2" d="M458.75,290.13c-.35.08-.69.14-1,.19s-.69.09-1.06.11-.78.05-1.21.06l-1.45,0h-.8v-4.67h4.51v.79h-3.57v3.07h1.37q.62,0,1.14-.06c.35,0,.69-.06,1-.1l1-.18Zm1,1.33h.92v4.26h-6.44v-4.26h.92v1.34h4.6Zm0,2.11h-4.6v1.34h4.6Zm2.44-5.1h-1.52v2.4h-.94v-5.74h.94v2.53h1.52Z"/>
  <line class="cls-3" x1="532.38" y1="276.37" x2="352.35" y2="276.37"/>
  <line class="cls-3" x1="532.38" y1="216.32" x2="352.35" y2="216.32"/>
  <path class="cls-3" d="M531.88,216.32a30,30,0,0,1,0,60"/>
  <polygon class="cls-5" points="525.79 223.52 525.79 209.12 537.79 216.32 525.79 223.52"/>
  <polygon class="cls-9" points="344.75 223.52 344.75 209.12 356.75 216.32 344.75 223.52"/>
  <polygon class="cls-5" points="537.79 269.17 537.79 283.57 525.79 276.37 537.79 269.17"/>
  <polygon class="cls-9" points="356.75 269.17 356.75 283.57 344.75 276.37 356.75 269.17"/>
  <path class="cls-2" d="M 396.766 166.872 L 397.626 166.872 L 397.716 168.062 L 397.716 168.062 C 397.909 167.678 398.177 167.338 398.506 167.062 C 398.785 166.825 399.14 166.697 399.506 166.702 C 399.625 166.69 399.746 166.69 399.866 166.702 C 399.971 166.72 400.073 166.758 400.166 166.812 L 399.976 167.812 C 399.882 167.774 399.785 167.747 399.686 167.732 C 399.579 167.719 399.472 167.719 399.366 167.732 C 399.229 167.735 399.093 167.762 398.966 167.812 C 398.813 167.872 398.672 167.957 398.546 168.062 C 398.395 168.199 398.261 168.354 398.146 168.522 C 398.005 168.744 397.891 168.982 397.806 169.232 L 397.806 173.422 L 396.806 173.422 Z"/>
  <path class="cls-2" d="M 403.686 173.552 C 403.291 173.551 402.9 173.473 402.536 173.322 C 402.176 173.171 401.855 172.942 401.596 172.652 C 401.315 172.34 401.098 171.976 400.956 171.582 C 400.799 171.118 400.721 170.631 400.726 170.142 C 400.72 169.655 400.798 169.172 400.956 168.712 C 401.1 168.317 401.314 167.952 401.586 167.632 C 401.83 167.344 402.134 167.112 402.476 166.952 C 402.817 166.807 403.186 166.742 403.556 166.762 C 403.9 166.763 404.24 166.834 404.556 166.972 C 404.856 167.117 405.119 167.329 405.326 167.592 C 405.55 167.89 405.713 168.23 405.806 168.592 C 405.923 169.001 405.98 169.426 405.976 169.852 C 405.976 169.972 405.976 170.082 405.976 170.192 C 405.987 170.285 405.987 170.379 405.976 170.472 L 401.796 170.472 C 401.795 171.08 402.012 171.668 402.406 172.132 C 402.772 172.538 403.299 172.761 403.846 172.742 C 404.128 172.743 404.409 172.696 404.676 172.602 C 404.931 172.507 405.173 172.379 405.396 172.222 L 405.776 172.942 C 405.487 173.137 405.179 173.301 404.856 173.432 C 404.477 173.546 404.08 173.587 403.686 173.552 Z M 405.066 169.622 C 405.104 169.088 404.963 168.557 404.666 168.112 C 404.391 167.766 403.967 167.573 403.526 167.592 C 403.308 167.593 403.093 167.64 402.896 167.732 C 402.691 167.828 402.508 167.964 402.356 168.132 C 402.187 168.317 402.052 168.53 401.956 168.762 C 401.845 169.036 401.777 169.326 401.756 169.622 Z"/>
  <path class="cls-2" d="M 409.456 173.552 C 409.168 173.557 408.882 173.502 408.616 173.392 C 408.401 173.294 408.215 173.142 408.076 172.952 C 407.936 172.746 407.837 172.515 407.786 172.272 C 407.714 171.977 407.681 171.675 407.686 171.372 L 407.686 167.762 L 406.766 167.762 L 406.766 166.932 L 407.766 166.872 L 407.896 165.052 L 408.756 165.052 L 408.756 166.872 L 410.436 166.872 L 410.436 167.762 L 408.756 167.762 L 408.756 171.402 C 408.734 171.725 408.807 172.048 408.966 172.332 C 409.136 172.571 409.424 172.698 409.716 172.662 C 409.835 172.66 409.953 172.639 410.066 172.602 L 410.426 172.492 L 410.626 173.312 C 410.443 173.378 410.256 173.432 410.066 173.472 C 409.867 173.525 409.662 173.552 409.456 173.552 Z"/>
  <path class="cls-2" d="M 413.606 173.552 C 413.049 173.594 412.51 173.349 412.176 172.902 C 411.839 172.328 411.682 171.666 411.726 171.002 L 411.726 166.872 L 412.726 166.872 L 412.726 170.872 C 412.691 171.328 412.785 171.785 412.996 172.192 C 413.2 172.474 413.538 172.63 413.886 172.602 C 414.192 172.603 414.491 172.512 414.746 172.342 C 415.063 172.104 415.339 171.817 415.566 171.492 L 415.566 166.862 L 416.566 166.862 L 416.566 173.382 L 415.706 173.382 L 415.626 172.382 L 415.626 172.382 C 415.366 172.712 415.055 172.998 414.706 173.232 C 414.378 173.443 413.996 173.555 413.606 173.552 Z"/>
  <path class="cls-2" d="M 418.726 166.872 L 419.556 166.872 L 419.656 168.062 L 419.656 168.062 C 419.849 167.681 420.113 167.341 420.436 167.062 C 420.716 166.827 421.07 166.699 421.436 166.702 C 421.555 166.691 421.676 166.691 421.796 166.702 C 421.901 166.72 422.003 166.758 422.096 166.812 L 421.896 167.812 C 421.806 167.774 421.712 167.747 421.616 167.732 C 421.509 167.72 421.402 167.72 421.296 167.732 C 421.155 167.735 421.017 167.762 420.886 167.812 C 420.735 167.87 420.597 167.955 420.476 168.062 C 420.323 168.197 420.188 168.351 420.076 168.522 C 419.935 168.744 419.821 168.982 419.736 169.232 L 419.736 173.422 L 418.736 173.422 Z"/>
  <path class="cls-2" d="M 423.146 166.872 L 424.006 166.872 L 424.096 167.812 L 424.096 167.812 C 424.382 167.521 424.697 167.26 425.036 167.032 C 425.375 166.812 425.772 166.701 426.176 166.712 C 426.731 166.665 427.271 166.907 427.606 167.352 C 427.95 167.927 428.11 168.593 428.066 169.262 L 428.066 173.392 L 427.066 173.392 L 427.066 169.392 C 427.103 168.927 427.005 168.462 426.786 168.052 C 426.579 167.773 426.242 167.621 425.896 167.652 C 425.59 167.646 425.29 167.733 425.036 167.902 C 424.73 168.117 424.448 168.365 424.196 168.642 L 424.196 173.372 L 423.196 173.372 Z"/>
  <path class="cls-2" d="M 433.166 173.552 C 432.764 173.554 432.364 173.486 431.986 173.352 C 431.617 173.227 431.289 173.006 431.036 172.712 C 430.744 172.37 430.526 171.972 430.396 171.542 C 430.234 170.959 430.159 170.356 430.176 169.752 L 430.176 164.592 L 431.236 164.592 L 431.236 169.762 C 431.223 170.209 431.27 170.656 431.376 171.092 C 431.455 171.399 431.594 171.688 431.786 171.942 C 431.949 172.149 432.162 172.31 432.406 172.412 C 432.649 172.502 432.906 172.546 433.166 172.542 C 433.435 172.546 433.702 172.502 433.956 172.412 C 434.202 172.311 434.419 172.149 434.586 171.942 C 434.784 171.691 434.928 171.402 435.006 171.092 C 435.123 170.659 435.177 170.21 435.166 169.762 L 435.166 164.562 L 436.166 164.562 L 436.166 169.762 C 436.184 170.367 436.107 170.971 435.936 171.552 C 435.812 171.983 435.598 172.382 435.306 172.722 C 435.037 173.023 434.691 173.244 434.306 173.362 C 433.939 173.488 433.554 173.552 433.166 173.552 Z"/>
  <path class="cls-2" d="M 438.336 166.872 L 439.186 166.872 L 439.276 168.062 L 439.276 168.062 C 439.469 167.681 439.733 167.341 440.056 167.062 C 440.335 166.825 440.69 166.697 441.056 166.702 C 441.175 166.69 441.296 166.69 441.416 166.702 C 441.522 166.717 441.624 166.754 441.716 166.812 L 441.526 167.812 C 441.435 167.775 441.342 167.748 441.246 167.732 C 441.139 167.72 441.032 167.72 440.926 167.732 C 440.785 167.735 440.647 167.762 440.516 167.812 C 440.365 167.87 440.227 167.955 440.106 168.062 C 439.953 168.197 439.818 168.351 439.706 168.522 C 439.561 168.744 439.444 168.982 439.356 169.232 L 439.356 173.422 L 438.356 173.422 Z"/>
  <path class="cls-2" d="M 442.756 173.392 L 442.756 163.842 L 443.756 163.842 L 443.756 173.392 Z"/>
  <path class="cls-2" d="M 457.246 172.142 L 457.246 172.952 L 447.966 172.952 L 447.966 172.142 L 452.126 172.142 L 452.126 170.142 L 449.126 170.142 L 449.126 166.762 L 455.196 166.762 L 455.196 165.082 L 449.106 165.082 L 449.106 164.282 L 456.106 164.282 L 456.106 167.552 L 450.056 167.552 L 450.056 169.292 L 456.336 169.292 L 456.336 170.082 L 453.066 170.082 L 453.066 172.082 Z"/>
  <path class="cls-2" d="M 463.996 164.342 C 464.363 164.339 464.725 164.432 465.046 164.612 C 465.375 164.792 465.657 165.049 465.866 165.362 C 466.107 165.723 466.286 166.121 466.396 166.542 C 466.662 167.561 466.662 168.632 466.396 169.652 C 466.288 170.073 466.109 170.472 465.866 170.832 C 465.654 171.145 465.374 171.405 465.046 171.592 C 464.389 171.938 463.603 171.938 462.946 171.592 C 462.618 171.405 462.337 171.145 462.126 170.832 C 461.879 170.472 461.696 170.073 461.586 169.652 C 461.332 168.631 461.332 167.563 461.586 166.542 C 461.698 166.121 461.881 165.722 462.126 165.362 C 462.335 165.049 462.616 164.792 462.946 164.612 C 463.266 164.432 463.628 164.339 463.996 164.342 Z M 463.996 165.232 C 463.751 165.232 463.512 165.301 463.306 165.432 C 463.084 165.582 462.9 165.78 462.766 166.012 C 462.603 166.293 462.482 166.596 462.406 166.912 C 462.246 167.694 462.246 168.5 462.406 169.282 C 462.482 169.597 462.603 169.901 462.766 170.182 C 462.897 170.415 463.082 170.614 463.306 170.762 C 463.509 170.9 463.75 170.973 463.996 170.972 C 464.239 170.975 464.477 170.901 464.676 170.762 C 464.899 170.614 465.084 170.415 465.216 170.182 C 465.379 169.902 465.497 169.598 465.566 169.282 C 465.739 168.501 465.739 167.692 465.566 166.912 C 465.497 166.595 465.379 166.291 465.216 166.012 C 465.082 165.78 464.897 165.582 464.676 165.432 C 464.474 165.3 464.237 165.23 463.996 165.232 Z M 469.386 163.512 L 469.386 174.302 L 468.456 174.302 L 468.456 163.512 Z"/>
  <path class="cls-2" d="M 480.766 168.832 L 480.766 169.622 L 471.556 169.622 L 471.556 168.832 L 475.716 168.832 L 475.716 167.582 L 472.716 167.582 L 472.716 164.012 L 479.556 164.012 L 479.556 164.762 L 473.556 164.762 L 473.556 166.762 L 479.626 166.762 L 479.626 167.552 L 476.566 167.552 L 476.566 168.802 Z M 476.126 170.392 C 476.615 170.385 477.105 170.429 477.586 170.522 C 477.969 170.589 478.34 170.713 478.686 170.892 C 478.961 171.041 479.197 171.254 479.376 171.512 C 479.695 172.015 479.695 172.658 479.376 173.162 C 479.2 173.419 478.963 173.629 478.686 173.772 C 478.342 173.958 477.971 174.086 477.586 174.152 C 477.105 174.245 476.615 174.288 476.126 174.282 C 475.239 174.322 474.357 174.144 473.556 173.762 C 472.986 173.51 472.621 172.944 472.626 172.322 C 472.626 171.701 472.99 171.137 473.556 170.882 C 474.361 170.515 475.242 170.347 476.126 170.392 Z M 476.126 173.512 C 476.766 173.541 477.406 173.439 478.006 173.212 C 478.679 173.019 478.892 172.17 478.389 171.683 C 478.281 171.579 478.15 171.503 478.006 171.462 C 477.406 171.234 476.766 171.132 476.126 171.162 C 475.482 171.133 474.839 171.235 474.236 171.462 C 473.562 171.624 473.317 172.454 473.794 172.957 C 473.913 173.082 474.067 173.171 474.236 173.212 C 474.839 173.438 475.482 173.54 476.126 173.512 Z"/>
</svg>