<?xml version="1.0" encoding="utf-8"?>
<svg id="_迹_1" data-name="卵迹_1" viewBox="97.163 17.75 514.11 319.17" xmlns="http://www.w3.org/2000/svg">
  <defs>
    <style>.cls-1{fill:#f7f7f7;}.cls-2{fill:#767676;}.cls-3,.cls-4{fill:none;stroke:#9e9e9e;stroke-miterlimit:10;}.cls-4{stroke-dasharray:4;}.cls-5{fill:#233976;}.cls-6{fill:#0f7c48;}</style>
  </defs>
  <title>비대면 플랫폼 웹메뉴얼_outline</title>
  <rect class="cls-1" x="155.87" y="65.32" width="30" height="250" rx="15"/>
  <rect class="cls-1" x="335.48" y="65.32" width="30" height="250" rx="15"/>
  <rect class="cls-1" x="516.79" y="65.32" width="30" height="250" rx="15"/>
  <path d="M331.08,45A5.6,5.6,0,0,1,327,43.22l.88-1a4.92,4.92,0,0,0,1.49,1.07,4.18,4.18,0,0,0,1.76.39,2.83,2.83,0,0,0,1.81-.53,1.68,1.68,0,0,0,.66-1.39,1.61,1.61,0,0,0-.16-.76,1.68,1.68,0,0,0-.41-.54,2.78,2.78,0,0,0-.62-.41l-.77-.37-1.69-.74a5,5,0,0,1-.83-.42,3.45,3.45,0,0,1-.77-.61,2.65,2.65,0,0,1-.57-.85,2.8,2.8,0,0,1-.22-1.12,2.9,2.9,0,0,1,.28-1.25,3,3,0,0,1,.77-1,3.5,3.5,0,0,1,1.17-.65,4.42,4.42,0,0,1,1.48-.23,4.61,4.61,0,0,1,1.94.4,4.74,4.74,0,0,1,1.52,1l-.79,1a4.38,4.38,0,0,0-1.2-.81,3.51,3.51,0,0,0-1.47-.3,2.52,2.52,0,0,0-1.6.47,1.53,1.53,0,0,0-.59,1.26,1.56,1.56,0,0,0,.17.74,2,2,0,0,0,.45.52,2.8,2.8,0,0,0,.63.39l.68.3,1.68.72a7.86,7.86,0,0,1,1,.5,3.35,3.35,0,0,1,.76.64,2.81,2.81,0,0,1,.52.85,3.35,3.35,0,0,1,.18,1.15,3,3,0,0,1-.28,1.3A3.38,3.38,0,0,1,334,44a3.67,3.67,0,0,1-1.26.71A5.05,5.05,0,0,1,331.08,45Z" style="fill: rgb(118, 118, 118);"/>
  <path d="M340.74,45a4.33,4.33,0,0,1-1.62-.31,3.63,3.63,0,0,1-1.32-.89,4,4,0,0,1-.89-1.43,5.69,5.69,0,0,1,0-3.82,4.47,4.47,0,0,1,.87-1.44,3.73,3.73,0,0,1,1.26-.91,3.48,3.48,0,0,1,1.47-.32,3.57,3.57,0,0,1,1.47.28,3.08,3.08,0,0,1,1.09.83,3.94,3.94,0,0,1,.67,1.29,5.83,5.83,0,0,1,.23,1.68c0,.16,0,.31,0,.45s0,.27,0,.38H338a3.33,3.33,0,0,0,.85,2.21,2.68,2.68,0,0,0,2,.81,3.57,3.57,0,0,0,1.16-.18,4,4,0,0,0,1-.51l.53,1a6.65,6.65,0,0,1-1.28.64A4.44,4.44,0,0,1,340.74,45Zm1.94-5.24a3.09,3.09,0,0,0-.57-2,2,2,0,0,0-1.59-.69,2.25,2.25,0,0,0-.89.18,2.37,2.37,0,0,0-.76.53,2.73,2.73,0,0,0-.56.85,3.67,3.67,0,0,0-.29,1.14Z" style="fill: rgb(118, 118, 118);"/>
  <path d="M346.1,36.07h1.2l.13,1.58h.05a4.24,4.24,0,0,1,1.09-1.32,2.22,2.22,0,0,1,1.37-.48,2.47,2.47,0,0,1,.5,0,1.16,1.16,0,0,1,.43.15l-.27,1.28a3.11,3.11,0,0,0-.4-.11,2.68,2.68,0,0,0-.45,0,1.74,1.74,0,0,0-.57.11,2,2,0,0,0-.58.33,2.85,2.85,0,0,0-.56.62,3.6,3.6,0,0,0-.48.94v5.59H346.1Z" style="fill: rgb(118, 118, 118);"/>
  <path d="M351.51,36.07H353L354.66,41c.14.43.27.86.41,1.3s.27.86.4,1.26h.07l.4-1.26c.14-.44.27-.87.4-1.3L358,36.07h1.44l-3.09,8.69h-1.7Z" style="fill: rgb(118, 118, 118);"/>
  <path d="M364.61,45a4.33,4.33,0,0,1-1.62-.31,3.63,3.63,0,0,1-1.32-.89,4,4,0,0,1-.89-1.43,5.69,5.69,0,0,1,0-3.82,4.47,4.47,0,0,1,.87-1.44,3.83,3.83,0,0,1,1.26-.91,3.48,3.48,0,0,1,1.47-.32,3.54,3.54,0,0,1,1.47.28,3.08,3.08,0,0,1,1.09.83,3.94,3.94,0,0,1,.67,1.29,5.51,5.51,0,0,1,.23,1.68c0,.16,0,.31,0,.45a3.22,3.22,0,0,1-.05.38h-5.87a3.33,3.33,0,0,0,.85,2.21,2.68,2.68,0,0,0,2,.81A3.57,3.57,0,0,0,366,43.6a4,4,0,0,0,1-.51l.53,1a6.65,6.65,0,0,1-1.28.64A4.44,4.44,0,0,1,364.61,45Zm1.94-5.24a3.09,3.09,0,0,0-.57-2,2,2,0,0,0-1.59-.69,2.25,2.25,0,0,0-.89.18,2.48,2.48,0,0,0-.76.53,2.73,2.73,0,0,0-.56.85,3.67,3.67,0,0,0-.29,1.14Z" style="fill: rgb(118, 118, 118);"/>
  <path d="M370,36.07h1.2l.13,1.58h.05a4.38,4.38,0,0,1,1.09-1.32,2.22,2.22,0,0,1,1.37-.48,2.47,2.47,0,0,1,.5,0,1.16,1.16,0,0,1,.43.15l-.27,1.28a3.11,3.11,0,0,0-.4-.11,2.68,2.68,0,0,0-.45,0,1.74,1.74,0,0,0-.57.11,2,2,0,0,0-.58.33,2.85,2.85,0,0,0-.56.62,3.93,3.93,0,0,0-.48.94v5.59H370Z" style="fill: rgb(118, 118, 118);"/>
  <path d="M503.59,33h1.53l4.28,7.39,1.24,2.42h.08c0-.6-.08-1.22-.12-1.85s-.07-1.26-.07-1.86V33h1.41V44.76h-1.52l-4.27-7.4L504.88,35h-.06c0,.6.07,1.2.11,1.81S505,38,505,38.61v6.15h-1.41Z" style="fill: rgb(118, 118, 118);"/>
  <path d="M515.75,34.28A1,1,0,0,1,515,34a1,1,0,0,1,0-1.37,1,1,0,0,1,.72-.25,1.05,1.05,0,0,1,.72.25,1,1,0,0,1,0,1.37A1,1,0,0,1,515.75,34.28ZM515,36.07h1.46v8.69H515Z" style="fill: rgb(118, 118, 118);"/>
  <path d="M522.84,45a4.24,4.24,0,0,1-1.61-.31,3.64,3.64,0,0,1-1.3-.89,3.89,3.89,0,0,1-.86-1.42,5.47,5.47,0,0,1-.31-1.93,5.07,5.07,0,0,1,.34-1.93,4.4,4.4,0,0,1,.92-1.44,3.73,3.73,0,0,1,1.33-.9,4.33,4.33,0,0,1,1.6-.3,3.32,3.32,0,0,1,1.47.3,5.17,5.17,0,0,1,1.07.73l-.75,1a4.2,4.2,0,0,0-.8-.57,2.06,2.06,0,0,0-.94-.21,2.47,2.47,0,0,0-2,.92,3.47,3.47,0,0,0-.57,1.06,4.17,4.17,0,0,0-.21,1.36,4.46,4.46,0,0,0,.2,1.36,3.08,3.08,0,0,0,.55,1,2.63,2.63,0,0,0,.85.67,2.72,2.72,0,0,0,2.21,0,4.19,4.19,0,0,0,.93-.62l.63,1a4.33,4.33,0,0,1-1.3.82A3.86,3.86,0,0,1,522.84,45Z" style="fill: rgb(118, 118, 118);"/>
  <path d="M530.68,45a4.42,4.42,0,0,1-1.63-.31,3.63,3.63,0,0,1-1.32-.89,4.19,4.19,0,0,1-.89-1.43,5.86,5.86,0,0,1,0-3.82,4.32,4.32,0,0,1,.88-1.44,3.63,3.63,0,0,1,1.26-.91,3.41,3.41,0,0,1,1.46-.32,3.62,3.62,0,0,1,1.48.28A3,3,0,0,1,533,37a3.78,3.78,0,0,1,.68,1.29,5.83,5.83,0,0,1,.23,1.68c0,.16,0,.31,0,.45a3.22,3.22,0,0,1,0,.38H528a3.33,3.33,0,0,0,.86,2.21,2.66,2.66,0,0,0,2,.81A3.59,3.59,0,0,0,532,43.6a4.17,4.17,0,0,0,1-.51l.53,1a7.28,7.28,0,0,1-1.28.64A4.47,4.47,0,0,1,530.68,45Zm1.93-5.24a3.09,3.09,0,0,0-.57-2,2,2,0,0,0-1.59-.69,2.28,2.28,0,0,0-.89.18,2.61,2.61,0,0,0-.76.53,2.92,2.92,0,0,0-.56.85,3.67,3.67,0,0,0-.28,1.14Z" style="fill: rgb(118, 118, 118);"/>
  <path d="M536,36.07h1.19l.13,1h0a8.32,8.32,0,0,1,1.3-.85,3.37,3.37,0,0,1,2.95,0,3.13,3.13,0,0,1,1.09.89,4.17,4.17,0,0,1,.66,1.39,6.94,6.94,0,0,1,.23,1.83,5.85,5.85,0,0,1-.32,2,4.55,4.55,0,0,1-.83,1.47,3.48,3.48,0,0,1-1.2.91,3.36,3.36,0,0,1-1.43.32,2.9,2.9,0,0,1-1.2-.27,4.91,4.91,0,0,1-1.2-.76l0,1.53v3H536Zm3.58,7.66a2.26,2.26,0,0,0,1-.23,2.43,2.43,0,0,0,.79-.68,3.1,3.1,0,0,0,.52-1.08,5.38,5.38,0,0,0,.18-1.45A6.57,6.57,0,0,0,542,39a3.24,3.24,0,0,0-.4-1,1.85,1.85,0,0,0-.71-.65,2.23,2.23,0,0,0-1-.23,2.39,2.39,0,0,0-1.13.3,5.79,5.79,0,0,0-1.21.9v4.54a3.56,3.56,0,0,0,1.15.71A2.72,2.72,0,0,0,539.62,43.73Z" style="fill: rgb(118, 118, 118);"/>
  <path d="M547.68,45a2.7,2.7,0,0,1-1-.18,2.26,2.26,0,0,1-.8-.5,2.33,2.33,0,0,1-.53-.8,2.74,2.74,0,0,1-.19-1.06A2.52,2.52,0,0,1,546.54,40a9,9,0,0,1,4-.75,4.47,4.47,0,0,0-.08-.82,2,2,0,0,0-.28-.7,1.46,1.46,0,0,0-.55-.49,1.94,1.94,0,0,0-.88-.18,4.3,4.3,0,0,0-1.48.25,4.88,4.88,0,0,0-1.21.6l-.58-1a7.85,7.85,0,0,1,1.53-.71,5.79,5.79,0,0,1,2-.32,3.37,3.37,0,0,1,1.36.25,2.41,2.41,0,0,1,.93.73,3.21,3.21,0,0,1,.54,1.13,5.48,5.48,0,0,1,.18,1.45v5.35h-1.2l-.13-.95h0a5.62,5.62,0,0,1-1.35.84A3.87,3.87,0,0,1,547.68,45Zm.42-1.19a3.16,3.16,0,0,0,1.2-.22,4.32,4.32,0,0,0,1.2-.79V40.2a14.92,14.92,0,0,0-1.91.23,4.05,4.05,0,0,0-1.21.41,1.4,1.4,0,0,0-.62.61,1.91,1.91,0,0,0-.18.86,1.36,1.36,0,0,0,.43,1.11A1.65,1.65,0,0,0,548.1,43.78Z" style="fill: rgb(118, 118, 118);"/>
  <path d="M555.6,48.5,557,44.68l-3.48-8.61H555l1.77,4.74c.13.37.27.77.41,1.2l.42,1.23h.08l.37-1.23.37-1.2L560,36.07h1.42L557,48.5Z" style="fill: rgb(118, 118, 118);"/>
  <path d="M122.36,45a5,5,0,0,1-2-.41,4.51,4.51,0,0,1-1.62-1.19,5.68,5.68,0,0,1-1.08-1.92,8,8,0,0,1-.38-2.55,7.76,7.76,0,0,1,.39-2.55,5.8,5.8,0,0,1,1.09-1.92,4.59,4.59,0,0,1,1.65-1.21,5,5,0,0,1,2.07-.41,4.17,4.17,0,0,1,1,.12,4.93,4.93,0,0,1,.89.32,4.81,4.81,0,0,1,.73.47,4.4,4.4,0,0,1,.59.54l-.8,1a4.1,4.1,0,0,0-1-.81,2.92,2.92,0,0,0-1.35-.31,3.46,3.46,0,0,0-1.52.33,3.28,3.28,0,0,0-1.16.94,4.51,4.51,0,0,0-.76,1.5,7.14,7.14,0,0,0-.26,2,7.23,7.23,0,0,0,.26,2,4.56,4.56,0,0,0,.72,1.52,3.2,3.2,0,0,0,1.15,1,3.27,3.27,0,0,0,1.52.34,3.19,3.19,0,0,0,1.5-.35,5,5,0,0,0,1.22-1l.81.93a5,5,0,0,1-1.57,1.24A4.5,4.5,0,0,1,122.36,45Z" style="fill: rgb(118, 118, 118);"/>
  <path d="M128,44.76V32h1.46V44.76Z" style="fill: rgb(118, 118, 118);"/>
  <path d="M133.12,34.28a1,1,0,0,1-.72-.27,1,1,0,0,1,0-1.37,1,1,0,0,1,.72-.25,1.07,1.07,0,0,1,.72.25,1,1,0,0,1,0,1.37A1,1,0,0,1,133.12,34.28Zm-.74,1.79h1.46v8.69h-1.46Z" style="fill: rgb(118, 118, 118);"/>
  <path d="M140.28,45a4.4,4.4,0,0,1-1.62-.31,3.63,3.63,0,0,1-1.32-.89,4.19,4.19,0,0,1-.89-1.43,5.69,5.69,0,0,1,0-3.82,4.32,4.32,0,0,1,.88-1.44,3.69,3.69,0,0,1,1.25-.91,3.48,3.48,0,0,1,1.47-.32,3.62,3.62,0,0,1,1.48.28,3,3,0,0,1,1.08.83,3.76,3.76,0,0,1,.67,1.29,5.5,5.5,0,0,1,.24,1.68c0,.16,0,.31,0,.45a3.22,3.22,0,0,1-.05.38h-5.87a3.33,3.33,0,0,0,.86,2.21,2.66,2.66,0,0,0,2,.81,3.59,3.59,0,0,0,1.17-.18,4.17,4.17,0,0,0,1-.51l.52,1a6.65,6.65,0,0,1-1.28.64A4.44,4.44,0,0,1,140.28,45Zm1.94-5.24a3.09,3.09,0,0,0-.57-2,2,2,0,0,0-1.59-.69,2.25,2.25,0,0,0-.89.18,2.61,2.61,0,0,0-.76.53,2.92,2.92,0,0,0-.56.85,4,4,0,0,0-.29,1.14Z" style="fill: rgb(118, 118, 118);"/>
  <path d="M145.64,36.07h1.2l.13,1.25H147a7.93,7.93,0,0,1,1.32-1,2.91,2.91,0,0,1,1.59-.43,2.34,2.34,0,0,1,2,.86,4.28,4.28,0,0,1,.64,2.54v5.51h-1.46V39.45a3.11,3.11,0,0,0-.39-1.78,1.45,1.45,0,0,0-1.26-.54,2.26,2.26,0,0,0-1.2.33,8.23,8.23,0,0,0-1.18,1v6.31h-1.46Z" style="fill: rgb(118, 118, 118);"/>
  <path d="M158.16,45a2.9,2.9,0,0,1-1.18-.21,1.8,1.8,0,0,1-.76-.59,2.47,2.47,0,0,1-.42-.91,5.38,5.38,0,0,1-.12-1.19V37.25h-1.3v-1.1l1.36-.08.17-2.43h1.22v2.43h2.35v1.18h-2.35V42.1a2.26,2.26,0,0,0,.29,1.25,1.17,1.17,0,0,0,1.06.43,1.86,1.86,0,0,0,.49-.07l.5-.15.29,1.09c-.25.08-.51.16-.79.22A3.9,3.9,0,0,1,158.16,45Z" style="fill: rgb(118, 118, 118);"/>
  <path d="M165.16,33h3.49a7.6,7.6,0,0,1,1.64.16,3.75,3.75,0,0,1,1.27.5,2.53,2.53,0,0,1,.83.89,2.79,2.79,0,0,1,.29,1.31,2.84,2.84,0,0,1-.45,1.58,2.31,2.31,0,0,1-1.27,1v.08a3.22,3.22,0,0,1,1.72.9,2.62,2.62,0,0,1,.67,1.9,3.29,3.29,0,0,1-.32,1.51,3,3,0,0,1-.92,1.07,3.85,3.85,0,0,1-1.4.64,6.83,6.83,0,0,1-1.8.22h-3.75Zm3.23,5a3.53,3.53,0,0,0,2.18-.52,1.68,1.68,0,0,0,.66-1.41,1.54,1.54,0,0,0-.7-1.45,3.94,3.94,0,0,0-2.07-.43h-1.81V38Zm.31,5.55a4.27,4.27,0,0,0,2.36-.55,1.94,1.94,0,0,0,.84-1.75,1.76,1.76,0,0,0-.82-1.61,4.69,4.69,0,0,0-2.38-.5h-2v4.41Z" style="fill: rgb(118, 118, 118);"/>
  <path d="M175.55,36.07h1.2l.12,1.58h0a4.4,4.4,0,0,1,1.1-1.32,2.22,2.22,0,0,1,1.37-.48,2.47,2.47,0,0,1,.5,0,1.12,1.12,0,0,1,.42.15L180,37.32a2.73,2.73,0,0,0-.4-.11,2.48,2.48,0,0,0-.45,0,1.64,1.64,0,0,0-.56.11,2.05,2.05,0,0,0-.59.33,3.13,3.13,0,0,0-.56.62,4.34,4.34,0,0,0-.48.94v5.59h-1.45Z" style="fill: rgb(118, 118, 118);"/>
  <path d="M185.13,45a4,4,0,0,1-1.53-.31,3.88,3.88,0,0,1-1.29-.89,4.07,4.07,0,0,1-.88-1.42,5.81,5.81,0,0,1,0-3.86,4.16,4.16,0,0,1,.88-1.44,3.77,3.77,0,0,1,1.29-.9,4.05,4.05,0,0,1,3.06,0,3.77,3.77,0,0,1,1.29.9,4.16,4.16,0,0,1,.88,1.44,5.81,5.81,0,0,1,0,3.86,4.07,4.07,0,0,1-.88,1.42,3.88,3.88,0,0,1-1.29.89A4,4,0,0,1,185.13,45Zm0-1.24a2.28,2.28,0,0,0,1-.23,2.45,2.45,0,0,0,.8-.67,3,3,0,0,0,.52-1,5,5,0,0,0,0-2.72A3.18,3.18,0,0,0,187,38a2.26,2.26,0,0,0-.8-.68,2.16,2.16,0,0,0-1-.24,2.19,2.19,0,0,0-1,.24,2.26,2.26,0,0,0-.8.68,3.87,3.87,0,0,0-.51,1.06,5.23,5.23,0,0,0,0,2.72,3.67,3.67,0,0,0,.51,1,2.45,2.45,0,0,0,.8.67A2.31,2.31,0,0,0,185.13,43.73Z" style="fill: rgb(118, 118, 118);"/>
  <path d="M190.41,36.07h1.49l1.29,5c.09.42.18.83.26,1.23s.17.8.26,1.21h.08c.09-.41.19-.81.28-1.22s.19-.81.31-1.22l1.34-5h1.43l1.36,5,.3,1.23.3,1.21h.07c.09-.41.19-.81.27-1.21l.27-1.23,1.28-5h1.38L200,44.76h-1.76L197,40.07c-.12-.4-.22-.81-.31-1.22s-.18-.83-.28-1.28h-.08c-.1.45-.19.88-.28,1.29s-.2.83-.32,1.24l-1.21,4.66h-1.71Z" style="fill: rgb(118, 118, 118);"/>
  <path d="M206.55,45a4.66,4.66,0,0,1-1.77-.35,5.51,5.51,0,0,1-1.47-.85l.72-1a5.22,5.22,0,0,0,1.17.74,3.3,3.3,0,0,0,1.4.28,1.8,1.8,0,0,0,1.29-.4,1.29,1.29,0,0,0,.42-1,1,1,0,0,0-.17-.58,1.91,1.91,0,0,0-.46-.43,3.21,3.21,0,0,0-.64-.34l-.71-.3a8,8,0,0,1-.92-.37,3.67,3.67,0,0,1-.83-.5,2.49,2.49,0,0,1-.61-.69,1.88,1.88,0,0,1-.23-.95,2.27,2.27,0,0,1,.78-1.74,2.73,2.73,0,0,1,.95-.53,3.79,3.79,0,0,1,1.26-.19,3.85,3.85,0,0,1,1.5.28,5.3,5.3,0,0,1,1.2.68l-.7.94a5.35,5.35,0,0,0-.94-.55,2.42,2.42,0,0,0-1.06-.22,1.72,1.72,0,0,0-1.2.37,1.17,1.17,0,0,0-.38.88.85.85,0,0,0,.16.54,1.46,1.46,0,0,0,.43.38,3.17,3.17,0,0,0,.61.31l.72.28,1,.38a4,4,0,0,1,.85.51,2.59,2.59,0,0,1,.61.71,2.09,2.09,0,0,1,.24,1,2.46,2.46,0,0,1-.21,1,2.17,2.17,0,0,1-.6.81,3.1,3.1,0,0,1-1,.56A4,4,0,0,1,206.55,45Z" style="fill: rgb(118, 118, 118);"/>
  <path d="M215.27,45a4.4,4.4,0,0,1-1.62-.31,3.63,3.63,0,0,1-1.32-.89,4.19,4.19,0,0,1-.89-1.43,5.69,5.69,0,0,1,0-3.82,4.32,4.32,0,0,1,.88-1.44,3.63,3.63,0,0,1,1.26-.91,3.41,3.41,0,0,1,1.46-.32,3.62,3.62,0,0,1,1.48.28,3,3,0,0,1,1.08.83,3.76,3.76,0,0,1,.67,1.29,5.5,5.5,0,0,1,.24,1.68c0,.16,0,.31,0,.45a3.22,3.22,0,0,1-.05.38h-5.87a3.33,3.33,0,0,0,.86,2.21,2.66,2.66,0,0,0,2,.81,3.59,3.59,0,0,0,1.17-.18,4.17,4.17,0,0,0,1-.51l.52,1a6.65,6.65,0,0,1-1.28.64A4.44,4.44,0,0,1,215.27,45Zm1.94-5.24a3.09,3.09,0,0,0-.57-2,2,2,0,0,0-1.59-.69,2.25,2.25,0,0,0-.89.18,2.61,2.61,0,0,0-.76.53,2.92,2.92,0,0,0-.56.85,4,4,0,0,0-.29,1.14Z" style="fill: rgb(118, 118, 118);"/>
  <path d="M220.63,36.07h1.2l.13,1.58h0a4.26,4.26,0,0,1,1.1-1.32,2.19,2.19,0,0,1,1.36-.48,2.57,2.57,0,0,1,.51,0,1.18,1.18,0,0,1,.42.15l-.27,1.28a2.73,2.73,0,0,0-.4-.11,2.68,2.68,0,0,0-.45,0,1.74,1.74,0,0,0-.57.11,2.14,2.14,0,0,0-.58.33,3.13,3.13,0,0,0-.56.62,4.34,4.34,0,0,0-.48.94v5.59h-1.46Z" style="fill: rgb(118, 118, 118);"/>
  <path class="cls-2" d="M573.13,113.83a2.65,2.65,0,0,1-.21,1.07,2.49,2.49,0,0,1-1.41,1.39,2.91,2.91,0,0,1-1.07.2,2.77,2.77,0,0,1-1.05-.2,2.45,2.45,0,0,1-.85-.55,2.69,2.69,0,0,1-.56-.84,2.83,2.83,0,0,1-.2-1.07,2.87,2.87,0,0,1,.2-1.07,2.69,2.69,0,0,1,.56-.84,2.57,2.57,0,0,1,.85-.54,2.76,2.76,0,0,1,1.05-.19,2.9,2.9,0,0,1,1.07.19,2.68,2.68,0,0,1,.85.54,2.53,2.53,0,0,1,.56.84A2.69,2.69,0,0,1,573.13,113.83Zm-4.42,0a2,2,0,0,0,.13.73,1.54,1.54,0,0,0,.36.57,1.64,1.64,0,0,0,.55.38,1.93,1.93,0,0,0,.69.13,2,2,0,0,0,.7-.13,1.73,1.73,0,0,0,.57-.38,1.68,1.68,0,0,0,.36-.57,2,2,0,0,0,.14-.73,1.81,1.81,0,0,0-.14-.72,1.68,1.68,0,0,0-.36-.57,1.7,1.7,0,0,0-.57-.37,1.78,1.78,0,0,0-.7-.13,1.73,1.73,0,0,0-.69.13,1.62,1.62,0,0,0-.55.37,1.54,1.54,0,0,0-.36.57A1.81,1.81,0,0,0,568.71,113.83Zm7.53,6.32v.8h-6.88V117.5h.93v2.65Zm-.31-1.85H575v-7.86h.93Z"/>
  <path class="cls-2" d="M587.28,115.55v.8H578v-.8Zm-8.72-1.44a5.57,5.57,0,0,0,1.3-.28,5.67,5.67,0,0,0,1.11-.51,2.92,2.92,0,0,0,.77-.7,1.51,1.51,0,0,0,.32-.85h-3.17V111h7.55v.79h-3.18a1.43,1.43,0,0,0,.31.85,3.14,3.14,0,0,0,.78.7,5.41,5.41,0,0,0,1.11.51,5.57,5.57,0,0,0,1.3.28l-.33.78a7.15,7.15,0,0,1-1.22-.26,5.33,5.33,0,0,1-1.09-.46,4.45,4.45,0,0,1-.87-.64,2.55,2.55,0,0,1-.59-.81,2.75,2.75,0,0,1-.6.81,4.52,4.52,0,0,1-.88.64,5.24,5.24,0,0,1-1.08.46,7,7,0,0,1-1.21.26Zm4.08,3.17a7.07,7.07,0,0,1,1.46.13,3.55,3.55,0,0,1,1.1.38,1.83,1.83,0,0,1,.7.61,1.45,1.45,0,0,1,.24.83,1.47,1.47,0,0,1-.24.83,1.94,1.94,0,0,1-.7.62,3.83,3.83,0,0,1-1.1.38,7.9,7.9,0,0,1-1.46.12,5.46,5.46,0,0,1-2.56-.5,1.58,1.58,0,0,1-.93-1.45,1.56,1.56,0,0,1,.93-1.44A5.33,5.33,0,0,1,582.64,117.28Zm0,3.13a4.78,4.78,0,0,0,1.89-.3.91.91,0,0,0,0-1.75,4.58,4.58,0,0,0-1.89-.31,4.53,4.53,0,0,0-1.88.31.9.9,0,0,0,0,1.75A4.72,4.72,0,0,0,582.64,120.41Z"/>
  <path class="cls-2" d="M571.08,128.31a4.23,4.23,0,0,0,.2,1.32,4.92,4.92,0,0,0,1.37,2.22,4.05,4.05,0,0,0,1.05.71l-.51.75a4.37,4.37,0,0,1-1.55-1.24,5.9,5.9,0,0,1-1-1.9,6.11,6.11,0,0,1-1,2,4.64,4.64,0,0,1-1.54,1.34l-.53-.76a4.16,4.16,0,0,0,1-.75,5.21,5.21,0,0,0,1.37-2.33,4.92,4.92,0,0,0,.19-1.37v-.83h-2.31v-.79h2.3V125h.94v1.67h2.27v.79h-2.27Zm4.89-3.49v10.8H575V130h-2.21v-.8H575v-4.33Z"/>
  <path class="cls-2" d="M579.56,132.2l1.23,0c.4,0,.81,0,1.21-.06l1.23-.12c.42-.05.85-.11,1.3-.19l.09.8c-.46.08-.91.15-1.34.2l-1.27.12-1.25,0c-.42,0-.85,0-1.29,0h-.85v-4.13h3.77v-2.24h-3.8v-.8h4.73v3.85h-3.76Zm6.86-7.38v10.79h-.93V124.82Z"/>
  <path class="cls-2" d="M576.79,235.57v.8h-9.25v-.8Zm-.88-.86a6,6,0,0,1-1.16-.3,6.37,6.37,0,0,1-1-.51,5,5,0,0,1-.89-.69,3.41,3.41,0,0,1-.63-.85,3.28,3.28,0,0,1-.64.85,4.7,4.7,0,0,1-.89.69,5.68,5.68,0,0,1-1,.51,6.1,6.1,0,0,1-1.17.3l-.34-.76a6.72,6.72,0,0,0,1.33-.37,4.62,4.62,0,0,0,1.16-.64,3.21,3.21,0,0,0,.8-.85,1.76,1.76,0,0,0,.31-1v-.48h1v.48a1.72,1.72,0,0,0,.31,1,3.45,3.45,0,0,0,.81.86,5.17,5.17,0,0,0,1.16.64,6,6,0,0,0,1.32.38Zm-3.74,2.64a5.49,5.49,0,0,1,2.56.5,1.55,1.55,0,0,1,.92,1.42,1.41,1.41,0,0,1-.24.82,1.86,1.86,0,0,1-.69.6,3.76,3.76,0,0,1-1.09.38,8.06,8.06,0,0,1-1.46.12,5.45,5.45,0,0,1-2.58-.5,1.54,1.54,0,0,1-.93-1.42,1.38,1.38,0,0,1,.24-.81,2,2,0,0,1,.69-.61,4,4,0,0,1,1.11-.37A8,8,0,0,1,572.17,237.35Zm0,3.08a4.76,4.76,0,0,0,1.88-.3.93.93,0,0,0,.66-.86.94.94,0,0,0-.66-.85,6.1,6.1,0,0,0-3.78,0,.94.94,0,0,0-.67.85.92.92,0,0,0,.67.86A4.8,4.8,0,0,0,572.17,240.43Z"/>
  <path class="cls-2" d="M583.62,233.83a2.65,2.65,0,0,1-.21,1.07,2.69,2.69,0,0,1-.56.84,2.49,2.49,0,0,1-.86.55,2.82,2.82,0,0,1-1.06.2,2.77,2.77,0,0,1-1-.2,2.45,2.45,0,0,1-.85-.55,2.53,2.53,0,0,1-.56-.84,2.83,2.83,0,0,1-.2-1.07,2.87,2.87,0,0,1,.2-1.07,2.53,2.53,0,0,1,.56-.84,2.57,2.57,0,0,1,.85-.54,2.76,2.76,0,0,1,1-.19,2.81,2.81,0,0,1,1.06.19,2.62,2.62,0,0,1,.86.54,2.68,2.68,0,0,1,.77,1.91Zm-4.43,0a2.2,2.2,0,0,0,.13.73,1.7,1.7,0,0,0,.37.57,1.64,1.64,0,0,0,.55.38,1.93,1.93,0,0,0,.69.13,2,2,0,0,0,.7-.13,1.68,1.68,0,0,0,.56-.38,1.56,1.56,0,0,0,.37-.57,2,2,0,0,0,.13-.73,1.81,1.81,0,0,0-.13-.72,1.56,1.56,0,0,0-.37-.57,1.66,1.66,0,0,0-.56-.37,1.82,1.82,0,0,0-.7-.13,1.73,1.73,0,0,0-.69.13,1.62,1.62,0,0,0-.55.37,1.7,1.7,0,0,0-.37.57A2,2,0,0,0,579.19,233.83Zm7.54,6.32v.8h-6.89V237.5h.94v2.65Zm-.31-1.85h-.93v-7.86h.93Z"/>
  <path class="cls-2" d="M571.08,248.31a4.23,4.23,0,0,0,.2,1.32,4.92,4.92,0,0,0,1.37,2.22,4.05,4.05,0,0,0,1.05.71l-.51.75a4.37,4.37,0,0,1-1.55-1.24,5.9,5.9,0,0,1-1-1.9,6.11,6.11,0,0,1-1,2,4.64,4.64,0,0,1-1.54,1.34l-.53-.76a4.16,4.16,0,0,0,1-.75,5.21,5.21,0,0,0,1.37-2.33,4.92,4.92,0,0,0,.19-1.37v-.83h-2.31v-.79h2.3V245h.94v1.67h2.27v.79h-2.27Zm4.89-3.49v10.8H575V250h-2.21v-.8H575v-4.33Z"/>
  <path class="cls-2" d="M579.56,252.2l1.23,0c.4,0,.81,0,1.21-.06l1.23-.12c.42-.05.85-.11,1.3-.19l.09.8c-.46.08-.91.15-1.34.2l-1.27.12-1.25,0c-.42,0-.85,0-1.29,0h-.85v-4.13h3.77v-2.24h-3.8v-.8h4.73v3.85h-3.76Zm6.86-7.38v10.79h-.93V244.82Z"/>
  <line class="cls-3" x1="527.83" y1="95.32" x2="167.83" y2="95.32"/>
  <path class="cls-3" d="M531.72,95a30,30,0,0,1,0,60"/>
  <line class="cls-3" x1="532.22" y1="275.37" x2="174.19" y2="275.37"/>
  <path class="cls-3" d="M531.72,215.32a30,30,0,0,1,0,60"/>
  <path class="cls-4" d="M531.63,215.52a30,30,0,0,1,0-60"/>
  <polygon class="cls-5" points="525.63 102.23 525.63 87.83 537.63 95.03 525.63 102.23"/>
  <polygon class="cls-5" points="525.63 222.52 525.63 208.12 537.63 215.32 525.63 222.52"/>
  <polygon class="cls-5" points="537.63 268.17 537.63 282.57 525.63 275.37 537.63 268.17"/>
  <polygon class="cls-6" points="176 268.17 176 282.57 164 275.37 176 268.17"/>
  <polygon class="cls-6" points="164 102.23 164 87.83 176 95.03 164 102.23"/>
  <path class="cls-2" d="M 199.134 114.162 C 198.657 114.173 198.186 114.052 197.774 113.812 C 197.378 113.567 197.054 113.222 196.834 112.812 L 197.584 112.252 C 197.732 112.551 197.952 112.809 198.224 113.002 C 198.467 113.154 198.748 113.234 199.034 113.232 C 199.417 113.256 199.789 113.097 200.034 112.802 C 200.292 112.368 200.407 111.864 200.364 111.362 L 200.364 105.252 L 201.424 105.252 L 201.424 111.472 C 201.425 111.83 201.377 112.186 201.284 112.532 C 201.209 112.845 201.073 113.14 200.884 113.402 C 200.692 113.65 200.446 113.852 200.164 113.992 C 199.838 114.125 199.486 114.183 199.134 114.162 Z"/>
  <path class="cls-2" d="M 206.014 114.162 C 205.448 114.171 204.887 114.051 204.374 113.812 C 203.879 113.572 203.439 113.232 203.084 112.812 L 203.714 112.062 C 204.013 112.394 204.373 112.665 204.774 112.862 C 205.164 113.05 205.591 113.149 206.024 113.152 C 206.489 113.181 206.948 113.038 207.314 112.752 C 207.612 112.505 207.784 112.138 207.784 111.752 C 207.787 111.556 207.75 111.362 207.674 111.182 C 207.601 111.027 207.499 110.888 207.374 110.772 C 207.243 110.65 207.095 110.549 206.934 110.472 L 206.384 110.192 L 205.184 109.642 C 204.978 109.547 204.778 109.44 204.584 109.322 C 204.384 109.194 204.202 109.039 204.044 108.862 C 203.87 108.678 203.731 108.465 203.634 108.232 C 203.53 107.96 203.479 107.672 203.484 107.382 C 203.478 107.06 203.546 106.742 203.684 106.452 C 203.81 106.167 203.994 105.911 204.224 105.702 C 204.469 105.486 204.754 105.323 205.064 105.222 C 205.401 105.099 205.756 105.038 206.114 105.042 C 206.594 105.037 207.069 105.14 207.504 105.342 C 207.909 105.533 208.272 105.801 208.574 106.132 L 208.024 106.842 C 207.773 106.594 207.483 106.391 207.164 106.242 C 206.851 106.093 206.51 106.015 206.164 106.012 C 205.755 105.99 205.351 106.114 205.024 106.362 C 204.729 106.606 204.572 106.98 204.604 107.362 C 204.598 107.552 204.639 107.741 204.724 107.912 C 204.808 108.061 204.916 108.197 205.044 108.312 C 205.18 108.428 205.332 108.525 205.494 108.602 L 205.984 108.822 L 207.184 109.362 C 207.415 109.474 207.639 109.601 207.854 109.742 C 208.064 109.868 208.25 110.031 208.404 110.222 C 208.568 110.409 208.693 110.626 208.774 110.862 C 208.863 111.139 208.907 111.43 208.904 111.722 C 208.91 112.065 208.842 112.406 208.704 112.722 C 208.569 113.023 208.375 113.295 208.134 113.522 C 207.874 113.754 207.572 113.934 207.244 114.052 C 206.844 114.163 206.427 114.2 206.014 114.162 Z"/>
  <path class="cls-2" d="M 215.374 114.162 C 214.808 114.171 214.247 114.051 213.734 113.812 C 213.237 113.575 212.797 113.234 212.444 112.812 L 213.074 112.062 C 213.373 112.394 213.733 112.665 214.134 112.862 C 214.524 113.05 214.951 113.149 215.384 113.152 C 215.849 113.181 216.308 113.038 216.674 112.752 C 216.969 112.504 217.138 112.137 217.134 111.752 C 217.14 111.557 217.106 111.363 217.034 111.182 C 216.961 111.027 216.859 110.888 216.734 110.772 C 216.603 110.65 216.455 110.549 216.294 110.472 L 215.744 110.192 L 214.544 109.642 C 214.338 109.547 214.138 109.44 213.944 109.322 C 213.744 109.194 213.562 109.039 213.404 108.862 C 213.23 108.678 213.091 108.465 212.994 108.232 C 212.89 107.96 212.839 107.672 212.844 107.382 C 212.838 107.06 212.906 106.742 213.044 106.452 C 213.17 106.167 213.354 105.911 213.584 105.702 C 213.829 105.486 214.114 105.323 214.424 105.222 C 214.745 105.105 215.083 105.044 215.424 105.042 C 215.904 105.037 216.379 105.14 216.814 105.342 C 217.219 105.533 217.582 105.801 217.884 106.132 L 217.324 106.842 C 217.079 106.592 216.791 106.389 216.474 106.242 C 216.146 106.086 215.787 106.007 215.424 106.012 C 215.015 105.99 214.611 106.114 214.284 106.362 C 213.989 106.606 213.832 106.98 213.864 107.362 C 213.858 107.552 213.899 107.741 213.984 107.912 C 214.068 108.061 214.176 108.197 214.304 108.312 C 214.44 108.428 214.592 108.525 214.754 108.602 L 215.244 108.822 L 216.444 109.362 C 216.675 109.474 216.899 109.601 217.114 109.742 C 217.322 109.871 217.508 110.033 217.664 110.222 C 217.828 110.409 217.953 110.626 218.034 110.862 C 218.123 111.139 218.167 111.43 218.164 111.722 C 218.17 112.065 218.102 112.406 217.964 112.722 C 217.829 113.023 217.635 113.295 217.394 113.522 C 217.134 113.754 216.832 113.934 216.504 114.052 C 216.136 114.151 215.754 114.188 215.374 114.162 Z"/>
  <path class="cls-2" d="M 219.854 105.212 L 221.944 105.212 C 223.043 105.137 224.118 105.55 224.884 106.342 C 225.608 107.26 225.965 108.415 225.884 109.582 C 225.892 110.211 225.804 110.838 225.624 111.442 C 225.474 111.955 225.219 112.432 224.874 112.842 C 224.543 113.225 224.124 113.523 223.654 113.712 C 223.126 113.921 222.562 114.023 221.994 114.012 L 219.854 114.012 Z M 221.854 113.082 C 222.698 113.142 223.521 112.801 224.074 112.162 C 224.6 111.404 224.857 110.492 224.804 109.572 C 224.865 108.653 224.607 107.742 224.074 106.992 C 223.513 106.365 222.692 106.036 221.854 106.102 L 220.914 106.102 L 220.914 113.102 Z"/>
  <path class="cls-2" d="M 227.684 105.212 L 228.764 105.212 L 228.764 109.632 L 228.764 109.632 L 232.254 105.212 L 233.444 105.212 L 230.834 108.562 L 233.834 114.012 L 232.644 114.012 L 230.154 109.422 L 228.714 111.222 L 228.714 114.052 L 227.654 114.052 Z"/>
  <path class="cls-2" d="M 243.764 109.132 L 243.764 109.882 L 234.494 109.882 L 234.494 109.132 Z M 236.564 114.052 L 242.944 114.052 L 242.944 114.762 L 235.644 114.762 L 235.644 112.372 L 241.704 112.372 L 241.704 111.472 L 235.614 111.472 L 235.614 110.762 L 242.614 110.762 L 242.614 113.052 L 236.564 113.052 Z M 241.674 105.152 L 235.674 105.152 L 235.674 104.452 L 242.594 104.452 L 242.594 106.702 L 236.594 106.702 L 236.594 107.622 L 242.764 107.622 L 242.764 108.332 L 235.684 108.332 L 235.684 106.052 L 241.684 106.052 Z"/>
  <path class="cls-2" d="M 256.764 109.832 L 256.764 110.622 L 247.504 110.622 L 247.504 109.832 L 251.664 109.832 L 251.664 108.772 L 248.764 108.772 L 248.764 104.442 L 255.654 104.442 L 255.654 105.212 L 249.654 105.212 L 249.654 106.212 L 255.344 106.212 L 255.344 106.952 L 249.654 106.952 L 249.654 108.052 L 255.654 108.052 L 255.654 108.812 L 252.574 108.812 L 252.574 109.872 Z M 252.134 111.442 C 253.016 111.397 253.897 111.547 254.714 111.882 C 255.257 112.07 255.624 112.577 255.634 113.152 C 255.627 113.731 255.26 114.246 254.714 114.442 C 253.041 115.028 251.217 115.028 249.544 114.442 C 249.001 114.245 248.637 113.73 248.634 113.152 C 248.64 112.579 249.004 112.071 249.544 111.882 C 250.377 111.539 251.276 111.389 252.174 111.442 Z M 252.134 114.142 C 252.777 114.169 253.42 114.084 254.034 113.892 C 254.474 113.732 254.694 113.482 254.694 113.152 C 254.694 112.822 254.474 112.592 254.034 112.422 C 252.786 112.088 251.472 112.088 250.224 112.422 C 249.784 112.592 249.564 112.832 249.564 113.152 C 249.564 113.472 249.784 113.732 250.224 113.892 C 250.854 114.09 251.514 114.174 252.174 114.142 Z"/>
  <path class="cls-2" d="M 261.024 105.972 L 263.104 105.972 L 263.104 106.772 L 258.034 106.772 L 258.034 105.972 L 260.104 105.972 L 260.104 104.442 L 261.024 104.442 Z M 260.574 107.492 C 260.877 107.488 261.177 107.55 261.454 107.672 C 261.714 107.793 261.948 107.963 262.144 108.172 C 262.34 108.402 262.493 108.666 262.594 108.952 C 262.823 109.599 262.823 110.305 262.594 110.952 C 262.495 111.235 262.342 111.496 262.144 111.722 C 261.518 112.393 260.536 112.597 259.694 112.232 C 259.429 112.115 259.193 111.941 259.004 111.722 C 258.803 111.497 258.647 111.235 258.544 110.952 C 258.328 110.302 258.328 109.601 258.544 108.952 C 258.649 108.666 258.805 108.402 259.004 108.172 C 259.196 107.957 259.431 107.787 259.694 107.672 C 259.971 107.55 260.271 107.488 260.574 107.492 Z M 260.574 111.592 C 260.764 111.594 260.952 111.553 261.124 111.472 C 261.287 111.39 261.431 111.274 261.544 111.132 C 261.667 110.976 261.761 110.8 261.824 110.612 C 261.895 110.396 261.929 110.169 261.924 109.942 C 261.927 109.721 261.893 109.501 261.824 109.292 C 261.764 109.105 261.669 108.932 261.544 108.782 C 261.431 108.639 261.287 108.523 261.124 108.442 C 260.952 108.361 260.764 108.32 260.574 108.322 C 260.186 108.304 259.813 108.475 259.574 108.782 C 259.313 109.11 259.178 109.522 259.194 109.942 C 259.189 110.169 259.223 110.396 259.294 110.612 C 259.353 110.801 259.448 110.978 259.574 111.132 C 259.689 111.277 259.836 111.394 260.004 111.472 C 260.182 111.556 260.377 111.597 260.574 111.592 Z M 266.704 104.122 L 266.704 114.882 L 265.764 114.882 L 265.764 109.472 L 264.444 109.472 L 264.444 114.372 L 263.574 114.372 L 263.574 104.372 L 264.444 104.372 L 264.444 108.672 L 265.764 108.672 L 265.764 104.122 Z"/>
  <path class="cls-2" d="M 276.044 106.462 C 275.722 107.314 275.16 108.054 274.424 108.592 C 273.573 109.204 272.607 109.64 271.584 109.872 L 271.244 109.062 C 272.316 108.849 273.319 108.375 274.164 107.682 C 274.831 107.124 275.252 106.327 275.334 105.462 L 271.764 105.462 L 271.764 104.662 L 276.344 104.662 C 276.341 104.998 276.304 105.333 276.234 105.662 L 278.554 105.662 L 278.554 104.102 L 279.484 104.102 L 279.484 109.602 L 278.554 109.602 L 278.554 108.482 L 275.884 108.482 L 275.884 107.712 L 278.554 107.712 L 278.554 106.432 Z M 279.854 114.012 L 279.854 114.772 L 272.944 114.772 L 272.944 112.052 L 278.574 112.052 L 278.574 110.952 L 272.914 110.952 L 272.914 110.162 L 279.494 110.162 L 279.494 112.802 L 273.864 112.802 L 273.864 114.052 Z"/>
  <path class="cls-2" d="M 284.574 107.172 C 284.571 107.639 284.618 108.105 284.714 108.562 C 284.804 109.005 284.941 109.438 285.124 109.852 C 285.305 110.244 285.534 110.614 285.804 110.952 C 286.069 111.27 286.387 111.541 286.744 111.752 L 286.174 112.472 C 285.658 112.144 285.223 111.703 284.904 111.182 C 284.554 110.607 284.291 109.983 284.124 109.332 C 283.964 110.036 283.694 110.711 283.324 111.332 C 282.998 111.888 282.55 112.363 282.014 112.722 L 281.444 111.992 C 281.811 111.765 282.133 111.474 282.394 111.132 C 282.677 110.781 282.912 110.394 283.094 109.982 C 283.281 109.543 283.425 109.088 283.524 108.622 C 283.616 108.14 283.663 107.651 283.664 107.162 L 283.664 106.162 L 281.764 106.162 L 281.764 105.362 L 286.424 105.362 L 286.424 106.162 L 284.604 106.162 Z M 287.304 104.372 L 288.194 104.372 L 288.194 114.372 L 287.304 114.372 L 287.304 108.842 L 285.614 108.842 L 285.614 108.032 L 287.304 108.032 Z M 290.254 104.122 L 290.254 114.882 L 289.354 114.882 L 289.354 104.122 Z"/>
  <path class="cls-2" d="M 297.604 110.182 C 297.046 110.002 296.53 109.713 296.084 109.332 C 295.656 108.964 295.315 108.506 295.084 107.992 C 294.869 108.561 294.527 109.074 294.084 109.492 C 293.64 109.936 293.104 110.277 292.514 110.492 L 292.054 109.712 C 292.412 109.594 292.749 109.422 293.054 109.202 C 293.356 108.989 293.629 108.736 293.864 108.452 C 294.083 108.173 294.259 107.863 294.384 107.532 C 294.499 107.21 294.56 106.873 294.564 106.532 L 294.564 106.312 L 292.294 106.312 L 292.294 105.522 L 294.564 105.522 L 294.564 104.052 L 295.494 104.052 L 295.494 105.412 L 297.764 105.412 L 297.764 106.202 L 295.504 106.202 L 295.504 106.422 C 295.504 106.743 295.565 107.063 295.684 107.362 C 295.806 107.671 295.978 107.958 296.194 108.212 C 296.42 108.477 296.683 108.709 296.974 108.902 C 297.285 109.105 297.621 109.266 297.974 109.382 Z M 296.744 110.992 C 297.217 110.99 297.689 111.034 298.154 111.122 C 298.523 111.188 298.878 111.317 299.204 111.502 C 299.471 111.651 299.7 111.86 299.874 112.112 C 300.181 112.622 300.181 113.261 299.874 113.772 C 299.703 114.023 299.473 114.229 299.204 114.372 C 298.877 114.553 298.522 114.678 298.154 114.742 C 297.69 114.834 297.217 114.878 296.744 114.872 C 295.889 114.913 295.036 114.741 294.264 114.372 C 293.715 114.108 293.368 113.55 293.374 112.942 C 293.359 112.328 293.708 111.763 294.264 111.502 C 295.039 111.118 295.901 110.942 296.764 110.992 Z M 296.744 114.102 C 297.352 114.129 297.959 114.027 298.524 113.802 C 298.893 113.665 299.148 113.324 299.174 112.932 C 299.144 112.543 298.89 112.207 298.524 112.072 C 297.37 111.658 296.108 111.658 294.954 112.072 C 294.588 112.207 294.335 112.543 294.304 112.932 C 294.331 113.324 294.585 113.665 294.954 113.802 C 295.529 114.031 296.146 114.134 296.764 114.102 Z M 301.514 106.932 L 301.514 107.732 L 299.994 107.732 L 299.994 110.732 L 299.054 110.732 L 299.054 104.142 L 299.994 104.142 L 299.994 106.932 Z"/>
  <path class="cls-2" d="M 314.364 112.832 L 314.364 113.632 L 305.104 113.632 L 305.104 112.832 L 309.264 112.832 L 309.264 111.322 C 308.513 111.311 307.778 111.1 307.134 110.712 C 306.647 110.4 306.356 109.859 306.364 109.282 C 306.361 108.975 306.444 108.673 306.604 108.412 C 306.767 108.146 306.994 107.926 307.264 107.772 C 307.594 107.586 307.952 107.454 308.324 107.382 C 308.784 107.28 309.254 107.233 309.724 107.242 C 310.188 107.233 310.651 107.28 311.104 107.382 C 311.456 107.458 311.793 107.59 312.104 107.772 C 312.374 107.929 312.604 108.149 312.774 108.412 C 312.927 108.676 313.007 108.976 313.004 109.282 C 313.019 109.853 312.735 110.391 312.254 110.702 C 311.62 111.088 310.896 111.302 310.154 111.322 L 310.154 112.832 Z M 313.854 106.512 L 305.554 106.512 L 305.554 105.702 L 309.264 105.702 L 309.264 104.302 L 310.194 104.302 L 310.194 105.702 L 313.854 105.702 Z M 307.304 109.272 C 307.275 109.709 307.535 110.115 307.944 110.272 C 308.504 110.516 309.113 110.629 309.724 110.602 C 310.325 110.629 310.924 110.516 311.474 110.272 C 311.872 110.1 312.125 109.704 312.114 109.272 C 312.113 108.859 311.859 108.49 311.474 108.342 C 310.933 108.117 310.349 108.018 309.764 108.052 C 309.153 108.024 308.544 108.137 307.984 108.382 C 307.597 108.512 307.328 108.864 307.304 109.272 Z"/>
  <path class="cls-2" d="M 320.684 109.662 L 320.684 110.662 L 323.684 110.662 L 323.684 113.052 L 317.684 113.052 L 317.684 114.052 L 323.994 114.052 L 323.994 114.792 L 316.764 114.792 L 316.764 112.322 L 322.764 112.322 L 322.764 111.412 L 316.764 111.412 L 316.764 110.682 L 319.764 110.682 L 319.764 109.682 L 315.634 109.682 L 315.634 108.912 L 324.854 108.912 L 324.854 109.682 Z M 316.074 107.662 C 316.526 107.634 316.974 107.567 317.414 107.462 C 317.801 107.379 318.177 107.252 318.534 107.082 C 318.83 106.945 319.097 106.755 319.324 106.522 C 319.523 106.329 319.653 106.076 319.694 105.802 L 316.534 105.802 L 316.534 105.052 L 319.764 105.052 L 319.764 104.052 L 320.704 104.052 L 320.704 105.052 L 323.904 105.052 L 323.904 105.792 L 320.764 105.792 C 320.801 106.065 320.927 106.318 321.124 106.512 C 321.347 106.745 321.612 106.935 321.904 107.072 C 322.26 107.237 322.632 107.364 323.014 107.452 C 323.458 107.557 323.909 107.623 324.364 107.652 L 324.074 108.402 C 323.661 108.363 323.251 108.303 322.844 108.222 C 322.471 108.137 322.107 108.019 321.754 107.872 C 321.436 107.746 321.137 107.577 320.864 107.372 C 320.617 107.187 320.403 106.96 320.234 106.702 C 320.066 106.957 319.856 107.184 319.614 107.372 C 319.338 107.577 319.035 107.746 318.714 107.872 C 318.358 108.019 317.99 108.137 317.614 108.222 C 317.204 108.304 316.79 108.364 316.374 108.402 Z"/>
  <path class="cls-2" d="M 201.464 120.952 L 202.214 120.952 L 198.804 132.612 L 198.044 132.612 Z"/>
  <path class="cls-2" d="M 210.804 122.312 C 210.805 123.077 210.735 123.84 210.594 124.592 C 210.448 125.331 210.195 126.045 209.844 126.712 C 209.469 127.413 208.986 128.05 208.414 128.602 C 207.736 129.239 206.972 129.778 206.144 130.202 L 205.634 129.442 C 206.485 129.021 207.262 128.463 207.934 127.792 C 208.5 127.211 208.957 126.534 209.284 125.792 L 205.834 126.142 L 205.674 125.282 L 209.564 125.002 C 209.745 124.387 209.849 123.752 209.874 123.112 L 206.194 123.112 L 206.194 122.312 Z M 215.054 126.372 L 213.404 126.372 L 213.404 131.952 L 212.474 131.952 L 212.474 121.202 L 213.404 121.202 L 213.404 125.572 L 215.054 125.572 Z"/>
  <path class="cls-2" d="M 225.294 129.702 L 225.294 130.502 L 216.014 130.502 L 216.014 129.702 Z M 224.224 127.112 L 217.224 127.112 L 217.224 122.112 L 224.144 122.112 L 224.144 122.912 L 218.144 122.912 L 218.144 126.272 L 224.244 126.272 Z"/>
  <path class="cls-2" d="M 229.954 124.112 C 229.951 124.589 230.019 125.064 230.154 125.522 C 230.287 125.983 230.475 126.426 230.714 126.842 C 230.941 127.246 231.22 127.619 231.544 127.952 C 231.836 128.257 232.173 128.517 232.544 128.722 L 231.964 129.502 C 231.682 129.343 231.42 129.152 231.184 128.932 C 230.933 128.694 230.703 128.437 230.494 128.162 C 230.276 127.845 230.085 127.51 229.924 127.162 C 229.75 126.822 229.606 126.467 229.494 126.102 C 229.283 126.863 228.945 127.583 228.494 128.232 C 228.089 128.816 227.564 129.307 226.954 129.672 L 226.394 128.872 C 226.766 128.654 227.103 128.381 227.394 128.062 C 227.72 127.715 228.002 127.328 228.234 126.912 C 228.466 126.471 228.653 126.009 228.794 125.532 C 228.924 125.052 228.991 124.558 228.994 124.062 L 228.994 122.112 L 229.924 122.112 Z M 236.074 126.422 L 234.384 126.422 L 234.384 132.002 L 233.444 132.002 L 233.444 121.212 L 234.384 121.212 L 234.384 125.572 L 236.074 125.572 Z"/>
  <path class="cls-2" d="M 245.144 124.592 C 245.147 124.958 245.079 125.321 244.944 125.662 C 244.808 125.975 244.615 126.26 244.374 126.502 C 244.132 126.742 243.842 126.93 243.524 127.052 C 243.186 127.185 242.827 127.253 242.464 127.252 C 242.101 127.254 241.741 127.186 241.404 127.052 C 241.086 126.927 240.797 126.74 240.554 126.502 C 240.316 126.26 240.126 125.975 239.994 125.662 C 239.858 125.321 239.791 124.958 239.794 124.592 C 239.792 124.226 239.859 123.862 239.994 123.522 C 240.249 122.884 240.76 122.383 241.404 122.142 C 241.742 122.011 242.101 121.946 242.464 121.952 C 242.826 121.947 243.186 122.012 243.524 122.142 C 243.84 122.264 244.129 122.447 244.374 122.682 C 244.615 122.923 244.808 123.208 244.944 123.522 C 245.078 123.862 245.146 124.226 245.144 124.592 Z M 240.724 124.592 C 240.721 124.841 240.765 125.089 240.854 125.322 C 240.938 125.532 241.06 125.725 241.214 125.892 C 241.371 126.053 241.558 126.182 241.764 126.272 C 242.214 126.445 242.713 126.445 243.164 126.272 C 243.373 126.182 243.563 126.053 243.724 125.892 C 243.884 125.729 244.01 125.535 244.094 125.322 C 244.178 125.087 244.222 124.841 244.224 124.592 C 244.225 124.346 244.181 124.102 244.094 123.872 C 244.01 123.659 243.884 123.465 243.724 123.302 C 243.563 123.144 243.372 123.018 243.164 122.932 C 242.713 122.758 242.214 122.758 241.764 122.932 C 241.558 123.018 241.371 123.144 241.214 123.302 C 241.06 123.468 240.938 123.661 240.854 123.872 C 240.762 124.1 240.718 124.345 240.724 124.592 Z M 248.254 130.912 L 248.254 131.712 L 241.374 131.712 L 241.374 128.262 L 242.304 128.262 L 242.304 130.912 Z M 247.954 129.062 L 247.014 129.062 L 247.014 121.202 L 247.954 121.202 Z"/>
  <path class="cls-2" d="M 259.294 126.312 L 259.294 127.112 L 250.044 127.112 L 250.044 126.312 Z M 250.574 124.872 C 251.017 124.831 251.453 124.737 251.874 124.592 C 252.263 124.466 252.635 124.295 252.984 124.082 C 253.28 123.896 253.541 123.659 253.754 123.382 C 253.945 123.138 254.057 122.841 254.074 122.532 L 250.904 122.532 L 250.904 121.742 L 258.464 121.742 L 258.464 122.532 L 255.284 122.532 C 255.289 122.84 255.394 123.138 255.584 123.382 C 255.803 123.657 256.066 123.894 256.364 124.082 C 256.714 124.291 257.086 124.462 257.474 124.592 C 257.898 124.738 258.337 124.832 258.784 124.872 L 258.444 125.652 C 258.03 125.6 257.622 125.513 257.224 125.392 C 256.848 125.279 256.485 125.125 256.144 124.932 C 255.826 124.755 255.53 124.54 255.264 124.292 C 255.015 124.063 254.815 123.788 254.674 123.482 C 254.529 123.788 254.325 124.064 254.074 124.292 C 253.811 124.54 253.519 124.754 253.204 124.932 C 252.858 125.123 252.492 125.278 252.114 125.392 C 251.719 125.515 251.314 125.602 250.904 125.652 Z M 254.654 128.042 C 255.147 128.035 255.639 128.078 256.124 128.172 C 256.505 128.239 256.873 128.367 257.214 128.552 C 257.496 128.691 257.737 128.902 257.914 129.162 C 258.076 129.408 258.16 129.697 258.154 129.992 C 258.159 130.286 258.075 130.575 257.914 130.822 C 257.734 131.082 257.494 131.295 257.214 131.442 C 256.871 131.622 256.504 131.75 256.124 131.822 C 255.638 131.906 255.146 131.947 254.654 131.942 C 253.773 131.983 252.895 131.812 252.094 131.442 C 251.524 131.185 251.16 130.616 251.164 129.992 C 251.159 129.369 251.524 128.803 252.094 128.552 C 252.892 128.173 253.771 127.998 254.654 128.042 Z M 254.654 131.172 C 255.298 131.2 255.94 131.098 256.544 130.872 C 257.217 130.679 257.43 129.83 256.927 129.343 C 256.819 129.239 256.688 129.163 256.544 129.122 C 255.321 128.709 253.996 128.709 252.774 129.122 C 252.1 129.284 251.855 130.114 252.332 130.617 C 252.452 130.743 252.605 130.831 252.774 130.872 C 253.374 131.097 254.013 131.199 254.654 131.172 Z"/>
  <polygon class="cls-5" points="537.63 148.12 537.63 162.52 525.63 155.32 537.63 148.12"/>
  <path class="cls-2" d="M 400.147 285.14 L 401.007 285.14 L 401.097 286.32 L 401.097 286.32 C 401.29 285.936 401.559 285.596 401.887 285.32 C 402.166 285.083 402.521 284.955 402.887 284.96 C 403.007 284.948 403.127 284.948 403.247 284.96 C 403.352 284.983 403.452 285.02 403.547 285.07 L 403.357 286.07 C 403.264 286.032 403.167 286.005 403.067 285.99 C 402.961 285.977 402.853 285.977 402.747 285.99 C 402.61 285.993 402.475 286.02 402.347 286.07 C 402.195 286.13 402.053 286.215 401.927 286.32 C 401.775 286.459 401.64 286.617 401.527 286.79 C 401.384 287.007 401.27 287.243 401.187 287.49 L 401.187 291.66 L 400.187 291.66 Z"/>
  <path class="cls-2" d="M 407.067 291.81 C 406.672 291.809 406.282 291.731 405.917 291.58 C 405.556 291.433 405.234 291.203 404.977 290.91 C 404.697 290.598 404.479 290.234 404.337 289.84 C 404.03 288.908 404.03 287.902 404.337 286.97 C 404.482 286.575 404.695 286.21 404.967 285.89 C 405.215 285.605 405.517 285.374 405.857 285.21 C 406.185 285.052 406.544 284.97 406.907 284.97 C 407.251 284.971 407.592 285.042 407.907 285.18 C 408.208 285.325 408.471 285.537 408.677 285.8 C 408.901 286.098 409.064 286.438 409.157 286.8 C 409.274 287.209 409.332 287.634 409.327 288.06 C 409.327 288.18 409.327 288.29 409.327 288.4 C 409.339 288.493 409.339 288.587 409.327 288.68 L 405.147 288.68 C 405.144 289.288 405.361 289.878 405.757 290.34 C 406.123 290.746 406.651 290.969 407.197 290.95 C 407.48 290.951 407.761 290.904 408.027 290.81 C 408.283 290.715 408.525 290.587 408.747 290.43 L 409.127 291.16 C 408.836 291.347 408.528 291.508 408.207 291.64 C 407.841 291.767 407.454 291.825 407.067 291.81 Z M 408.447 287.88 C 408.484 287.346 408.343 286.815 408.047 286.37 C 407.771 286.026 407.347 285.837 406.907 285.86 C 406.69 285.857 406.475 285.902 406.277 285.99 C 406.075 286.09 405.892 286.225 405.737 286.39 C 405.567 286.577 405.431 286.794 405.337 287.03 C 405.225 287.3 405.158 287.587 405.137 287.88 Z"/>
  <path class="cls-2" d="M 412.837 291.81 C 412.549 291.819 412.262 291.765 411.997 291.65 C 411.782 291.552 411.596 291.4 411.457 291.21 C 411.315 291.005 411.217 290.774 411.167 290.53 C 411.097 290.238 411.063 289.939 411.067 289.64 L 411.067 286.02 L 410.147 286.02 L 410.147 285.2 L 411.147 285.14 L 411.277 283.31 L 412.137 283.31 L 412.137 285.14 L 413.817 285.14 L 413.817 286.02 L 412.137 286.02 L 412.137 289.66 C 412.118 289.986 412.191 290.312 412.347 290.6 C 412.521 290.834 412.808 290.956 413.097 290.92 C 413.215 290.916 413.333 290.9 413.447 290.87 L 413.807 290.75 L 414.007 291.57 C 413.837 291.63 413.647 291.69 413.447 291.74 C 413.247 291.785 413.042 291.808 412.837 291.81 Z"/>
  <path class="cls-2" d="M 416.987 291.81 C 416.431 291.852 415.891 291.607 415.557 291.16 C 415.22 290.586 415.063 289.924 415.107 289.26 L 415.107 285.14 L 416.107 285.14 L 416.107 289.14 C 416.073 289.596 416.166 290.053 416.377 290.46 C 416.582 290.742 416.919 290.898 417.267 290.87 C 417.574 290.876 417.875 290.785 418.127 290.61 C 418.442 290.373 418.718 290.09 418.947 289.77 L 418.947 285.14 L 419.947 285.14 L 419.947 291.66 L 419.087 291.66 L 419.007 290.66 L 419.007 290.66 C 418.747 290.99 418.437 291.276 418.087 291.51 C 417.757 291.714 417.375 291.819 416.987 291.81 Z"/>
  <path class="cls-2" d="M 422.107 285.14 L 422.937 285.14 L 423.037 286.32 L 423.037 286.32 C 423.23 285.939 423.495 285.599 423.817 285.32 C 424.097 285.085 424.452 284.957 424.817 284.96 C 424.937 284.949 425.057 284.949 425.177 284.96 C 425.282 284.983 425.382 285.02 425.477 285.07 L 425.277 286.07 C 425.187 286.032 425.093 286.005 424.997 285.99 C 424.891 285.978 424.783 285.978 424.677 285.99 C 424.537 285.993 424.398 286.02 424.267 286.07 C 424.117 286.128 423.978 286.213 423.857 286.32 C 423.702 286.456 423.567 286.614 423.457 286.79 C 423.314 287.007 423.2 287.243 423.117 287.49 L 423.117 291.66 L 422.117 291.66 Z"/>
  <path class="cls-2" d="M 426.527 285.14 L 427.387 285.14 L 427.477 286.07 L 427.477 286.07 C 427.764 285.779 428.079 285.518 428.417 285.29 C 428.758 285.075 429.154 284.964 429.557 284.97 C 430.115 284.921 430.657 285.168 430.987 285.62 C 431.333 286.19 431.494 286.854 431.447 287.52 L 431.447 291.66 L 430.447 291.66 L 430.447 287.66 C 430.486 287.198 430.388 286.736 430.167 286.33 C 429.962 286.047 429.625 285.892 429.277 285.92 C 428.972 285.913 428.672 286.001 428.417 286.17 C 428.114 286.388 427.832 286.636 427.577 286.91 L 427.577 291.66 L 426.577 291.66 Z"/>
  <path class="cls-2" d="M 436.547 291.81 C 436.146 291.81 435.748 291.746 435.367 291.62 C 435 291.488 434.673 291.264 434.417 290.97 C 434.125 290.628 433.908 290.23 433.777 289.8 C 433.615 289.221 433.541 288.621 433.557 288.02 L 433.557 282.86 L 434.617 282.86 L 434.617 288.05 C 434.605 288.497 434.652 288.944 434.757 289.38 C 434.839 289.69 434.978 289.981 435.167 290.24 C 435.331 290.443 435.545 290.602 435.787 290.7 C 436.03 290.793 436.287 290.84 436.547 290.84 C 436.817 290.84 437.084 290.793 437.337 290.7 C 437.583 290.602 437.799 290.444 437.967 290.24 C 438.164 289.984 438.307 289.692 438.387 289.38 C 438.505 288.946 438.559 288.498 438.547 288.05 L 438.547 282.86 L 439.547 282.86 L 439.547 288.02 C 439.565 288.621 439.487 289.222 439.317 289.8 C 439.194 290.23 438.979 290.63 438.687 290.97 C 438.416 291.27 438.072 291.494 437.687 291.62 C 437.319 291.741 436.935 291.805 436.547 291.81 Z"/>
  <path class="cls-2" d="M 441.717 285.14 L 442.567 285.14 L 442.657 286.32 L 442.657 286.32 C 442.85 285.939 443.115 285.599 443.437 285.32 C 443.716 285.083 444.071 284.955 444.437 284.96 C 444.557 284.948 444.677 284.948 444.797 284.96 C 444.902 284.98 445.004 285.017 445.097 285.07 L 444.907 286.07 C 444.817 286.033 444.723 286.006 444.627 285.99 C 444.521 285.978 444.413 285.978 444.307 285.99 C 444.167 285.993 444.028 286.02 443.897 286.07 C 443.747 286.128 443.608 286.213 443.487 286.32 C 443.332 286.456 443.197 286.614 443.087 286.79 C 442.94 287.007 442.823 287.242 442.737 287.49 L 442.737 291.66 L 441.737 291.66 Z"/>
  <path class="cls-2" d="M 446.137 291.66 L 446.137 282.11 L 447.137 282.11 L 447.137 291.66 Z"/>
  <path class="cls-2" d="M 460.627 290.4 L 460.627 291.21 L 451.347 291.21 L 451.347 290.4 L 455.507 290.4 L 455.507 288.4 L 452.507 288.4 L 452.507 285.07 L 458.577 285.07 L 458.577 283.39 L 452.487 283.39 L 452.487 282.59 L 459.487 282.59 L 459.487 285.86 L 453.437 285.86 L 453.437 287.6 L 459.717 287.6 L 459.717 288.4 L 456.447 288.4 L 456.447 290.4 Z"/>
  <path class="cls-2" d="M 467.377 282.6 C 467.745 282.597 468.107 282.69 468.427 282.87 C 468.755 283.053 469.035 283.31 469.247 283.62 C 469.489 283.984 469.668 284.386 469.777 284.81 C 470.044 285.826 470.044 286.894 469.777 287.91 C 469.668 288.333 469.489 288.735 469.247 289.1 C 469.035 289.41 468.755 289.666 468.427 289.85 C 467.773 290.209 466.981 290.209 466.327 289.85 C 466 289.666 465.719 289.41 465.507 289.1 C 465.263 288.735 465.081 288.333 464.967 287.91 C 464.714 286.892 464.714 285.827 464.967 284.81 C 465.081 284.386 465.263 283.984 465.507 283.62 C 465.719 283.31 466 283.053 466.327 282.87 C 466.648 282.69 467.01 282.597 467.377 282.6 Z M 467.377 283.49 C 467.131 283.489 466.891 283.562 466.687 283.7 C 466.464 283.843 466.279 284.039 466.147 284.27 C 465.983 284.554 465.862 284.86 465.787 285.18 C 465.704 285.564 465.663 285.956 465.667 286.35 C 465.663 286.75 465.703 287.149 465.787 287.54 C 465.863 287.855 465.985 288.159 466.147 288.44 C 466.276 288.675 466.461 288.875 466.687 289.02 C 466.891 289.158 467.131 289.231 467.377 289.23 C 467.62 289.233 467.858 289.159 468.057 289.02 C 468.283 288.875 468.469 288.675 468.597 288.44 C 468.761 288.16 468.879 287.856 468.947 287.54 C 469.04 287.15 469.083 286.75 469.077 286.35 C 469.083 285.956 469.039 285.563 468.947 285.18 C 468.881 284.859 468.763 284.552 468.597 284.27 C 468.466 284.039 468.28 283.843 468.057 283.7 C 467.858 283.56 467.62 283.487 467.377 283.49 Z M 472.767 281.78 L 472.767 292.56 L 471.837 292.56 L 471.837 281.78 Z"/>
  <path class="cls-2" d="M 484.147 287.09 L 484.147 287.88 L 474.937 287.88 L 474.937 287.09 L 479.097 287.09 L 479.097 285.84 L 476.097 285.84 L 476.097 282.27 L 482.937 282.27 L 482.937 283.06 L 476.937 283.06 L 476.937 285.06 L 483.007 285.06 L 483.007 285.85 L 479.947 285.85 L 479.947 287.1 Z M 479.507 288.66 C 479.997 288.653 480.486 288.697 480.967 288.79 C 481.352 288.855 481.724 288.983 482.067 289.17 C 482.344 289.313 482.581 289.522 482.757 289.78 C 483.077 290.283 483.077 290.926 482.757 291.43 C 482.579 291.688 482.343 291.9 482.067 292.05 C 481.721 292.228 481.35 292.353 480.967 292.42 C 480.486 292.513 479.997 292.556 479.507 292.55 C 478.623 292.591 477.741 292.42 476.937 292.05 C 476.371 291.794 476.007 291.231 476.007 290.61 C 476.002 289.987 476.368 289.421 476.937 289.17 C 477.739 288.791 478.622 288.616 479.507 288.66 Z M 479.507 291.78 C 480.148 291.809 480.788 291.707 481.387 291.48 C 482.061 291.287 482.273 290.438 481.77 289.951 C 481.662 289.847 481.531 289.771 481.387 289.73 C 480.788 289.502 480.148 289.4 479.507 289.43 C 478.863 289.401 478.22 289.503 477.617 289.73 C 476.944 289.892 476.698 290.722 477.175 291.225 C 477.295 291.35 477.448 291.439 477.617 291.48 C 478.221 291.703 478.864 291.801 479.507 291.77 Z"/>
</svg>