<?xml version="1.0" encoding="utf-8"?>
<svg id="_迹_1" data-name="卵迹_1" viewBox="91.668 28.481 551.41 310.748" xmlns="http://www.w3.org/2000/svg">
  <defs>
    <style>.cls-1{fill:#f7f7f7;}.cls-2{fill:#767676;}.cls-3{fill:none;stroke:#9e9e9e;stroke-miterlimit:10;}.cls-4{fill:#233976;}.cls-5{fill:#c1411a;}.cls-6{fill:#9e9e9e;}</style>
  </defs>
  <title>비대면 플랫폼 웹메뉴얼_outline</title>
  <rect class="cls-1" x="155.87" y="77.32" width="30" height="240" rx="15"/>
  <rect class="cls-1" x="335.48" y="77.32" width="30" height="240" rx="15"/>
  <rect class="cls-1" x="516.79" y="77.32" width="30" height="240" rx="15"/>
  <path d="M331.08,57A5.6,5.6,0,0,1,327,55.22l.88-1a5.06,5.06,0,0,0,1.49,1.06,4.18,4.18,0,0,0,1.76.39,2.77,2.77,0,0,0,1.81-.53,1.68,1.68,0,0,0,.66-1.39,1.74,1.74,0,0,0-.16-.76,1.68,1.68,0,0,0-.41-.54,2.78,2.78,0,0,0-.62-.41l-.77-.37-1.69-.74a5,5,0,0,1-.83-.42,3.45,3.45,0,0,1-.77-.61,2.71,2.71,0,0,1-.57-.84,3,3,0,0,1,.06-2.38,3.11,3.11,0,0,1,.77-1,3.5,3.5,0,0,1,1.17-.65,4.42,4.42,0,0,1,1.48-.23,4.61,4.61,0,0,1,1.94.4,4.74,4.74,0,0,1,1.52,1l-.79,1a4.38,4.38,0,0,0-1.2-.81,3.51,3.51,0,0,0-1.47-.3,2.52,2.52,0,0,0-1.6.47,1.5,1.5,0,0,0-.59,1.26,1.56,1.56,0,0,0,.17.74,2.08,2.08,0,0,0,.45.53,3.19,3.19,0,0,0,.63.38l.68.3,1.68.72a8.67,8.67,0,0,1,1,.5,3.35,3.35,0,0,1,.76.64,2.75,2.75,0,0,1,.52.86,3.25,3.25,0,0,1,.18,1.14,3,3,0,0,1-.28,1.3A3.27,3.27,0,0,1,334,56a3.67,3.67,0,0,1-1.26.71A5.05,5.05,0,0,1,331.08,57Z" style="fill: rgb(118, 118, 118);"/>
  <path d="M340.74,57a4.14,4.14,0,0,1-1.62-.31,3.73,3.73,0,0,1-1.32-.88,4.18,4.18,0,0,1-.89-1.44,5.69,5.69,0,0,1,0-3.82,4.47,4.47,0,0,1,.87-1.44,3.63,3.63,0,0,1,1.26-.91,3.48,3.48,0,0,1,1.47-.32,3.42,3.42,0,0,1,1.47.29,2.83,2.83,0,0,1,1.08.82,3.78,3.78,0,0,1,.68,1.29,5.83,5.83,0,0,1,.23,1.68c0,.16,0,.31,0,.45s0,.27,0,.38H338a3.33,3.33,0,0,0,.85,2.21,2.67,2.67,0,0,0,2,.81,3.59,3.59,0,0,0,1.17-.18,4.32,4.32,0,0,0,1-.5l.53,1a6.65,6.65,0,0,1-1.28.64A4.44,4.44,0,0,1,340.74,57Zm1.94-5.23a3.1,3.1,0,0,0-.57-2,2,2,0,0,0-1.59-.69,2.09,2.09,0,0,0-.89.19,2.19,2.19,0,0,0-.76.52,2.86,2.86,0,0,0-.56.85,3.66,3.66,0,0,0-.29,1.15Z" style="fill: rgb(118, 118, 118);"/>
  <path d="M346.1,48.07h1.2l.13,1.59h.05a4,4,0,0,1,1.09-1.32,2.17,2.17,0,0,1,1.37-.49,2.47,2.47,0,0,1,.5,0,1.16,1.16,0,0,1,.43.15l-.28,1.28a2.43,2.43,0,0,0-.4-.11,2.59,2.59,0,0,0-.44,0,1.71,1.71,0,0,0-.57.1,2,2,0,0,0-.59.34,2.78,2.78,0,0,0-.55.61,3.52,3.52,0,0,0-.48,1v5.58H346.1Z" style="fill: rgb(118, 118, 118);"/>
  <path d="M351.51,48.07H353l1.63,5c.14.42.27.85.41,1.29s.27.86.4,1.27h.07l.4-1.27c.14-.44.27-.87.4-1.29l1.65-5h1.44l-3.09,8.69h-1.7Z" style="fill: rgb(118, 118, 118);"/>
  <path d="M364.61,57a4.14,4.14,0,0,1-1.62-.31,3.73,3.73,0,0,1-1.32-.88,4.18,4.18,0,0,1-.89-1.44,5.69,5.69,0,0,1,0-3.82,4.47,4.47,0,0,1,.87-1.44,3.83,3.83,0,0,1,1.26-.91,3.48,3.48,0,0,1,1.47-.32,3.38,3.38,0,0,1,1.47.29,2.94,2.94,0,0,1,1.09.82,3.94,3.94,0,0,1,.67,1.29,5.51,5.51,0,0,1,.23,1.68c0,.16,0,.31,0,.45a3.22,3.22,0,0,1-.05.38h-5.87a3.33,3.33,0,0,0,.85,2.21,2.68,2.68,0,0,0,2,.81A3.57,3.57,0,0,0,366,55.6a4.32,4.32,0,0,0,1-.5l.53,1a6.65,6.65,0,0,1-1.28.64A4.44,4.44,0,0,1,364.61,57Zm1.94-5.23a3.1,3.1,0,0,0-.57-2,2,2,0,0,0-1.59-.69,2.09,2.09,0,0,0-.89.19,2.29,2.29,0,0,0-.76.52,2.86,2.86,0,0,0-.56.85,3.66,3.66,0,0,0-.29,1.15Z" style="fill: rgb(118, 118, 118);"/>
  <path d="M370,48.07h1.2l.13,1.59h.05a4.14,4.14,0,0,1,1.09-1.32,2.17,2.17,0,0,1,1.37-.49,2.47,2.47,0,0,1,.5,0,1.16,1.16,0,0,1,.43.15l-.27,1.28a3.11,3.11,0,0,0-.4-.11,2.81,2.81,0,0,0-.45,0,1.71,1.71,0,0,0-.57.1,1.83,1.83,0,0,0-.58.34,2.57,2.57,0,0,0-.56.61,3.83,3.83,0,0,0-.48,1v5.58H370Z" style="fill: rgb(118, 118, 118);"/>
  <path d="M503.59,45h1.53l4.28,7.39,1.24,2.42h.08c0-.6-.08-1.21-.12-1.85s-.07-1.25-.07-1.86V45h1.41V56.76h-1.52l-4.27-7.4L504.88,47h-.06c0,.6.07,1.2.11,1.81S505,50,505,50.61v6.15h-1.41Z" style="fill: rgb(118, 118, 118);"/>
  <path d="M515.75,46.28A1,1,0,0,1,515,46a.91.91,0,0,1-.29-.68.88.88,0,0,1,.29-.7,1.16,1.16,0,0,1,1.44,0,.88.88,0,0,1,.29.7.91.91,0,0,1-.29.68A1,1,0,0,1,515.75,46.28ZM515,48.07h1.46v8.69H515Z" style="fill: rgb(118, 118, 118);"/>
  <path d="M522.84,57a4.05,4.05,0,0,1-1.61-.31,3.74,3.74,0,0,1-1.3-.88,4.17,4.17,0,0,1-.86-1.43,5.47,5.47,0,0,1-.31-1.93,5.07,5.07,0,0,1,.34-1.93,4.4,4.4,0,0,1,.92-1.44,3.69,3.69,0,0,1,1.34-.9,4.24,4.24,0,0,1,1.59-.3,3.16,3.16,0,0,1,1.47.31,4.56,4.56,0,0,1,1.07.72l-.75,1a3.74,3.74,0,0,0-.8-.56,2,2,0,0,0-.94-.22,2.45,2.45,0,0,0-1.09.24,2.57,2.57,0,0,0-.86.68,3.47,3.47,0,0,0-.57,1.06,4.84,4.84,0,0,0,0,2.72,3.08,3.08,0,0,0,.55,1,2.63,2.63,0,0,0,.85.67,2.42,2.42,0,0,0,1.09.24,2.59,2.59,0,0,0,1.12-.25,4,4,0,0,0,.93-.62l.63,1a4.36,4.36,0,0,1-1.3.83A4,4,0,0,1,522.84,57Z" style="fill: rgb(118, 118, 118);"/>
  <path d="M530.68,57a4.22,4.22,0,0,1-1.63-.31,3.92,3.92,0,0,1-1.32-.88,4.34,4.34,0,0,1-.89-1.44,5.44,5.44,0,0,1-.32-1.92,5.19,5.19,0,0,1,.33-1.9,4.14,4.14,0,0,1,.87-1.44,3.63,3.63,0,0,1,1.26-.91,3.41,3.41,0,0,1,1.46-.32,3.46,3.46,0,0,1,1.48.29A2.83,2.83,0,0,1,533,49a3.78,3.78,0,0,1,.68,1.29,5.83,5.83,0,0,1,.23,1.68c0,.16,0,.31,0,.45a2,2,0,0,1,0,.38H528a3.38,3.38,0,0,0,.86,2.21,2.67,2.67,0,0,0,2,.81A3.59,3.59,0,0,0,532,55.6a4.52,4.52,0,0,0,1-.5l.53,1a7,7,0,0,1-1.28.64A4.47,4.47,0,0,1,530.68,57Zm1.93-5.23a3.1,3.1,0,0,0-.57-2,1.92,1.92,0,0,0-1.59-.69,2.13,2.13,0,0,0-.89.19,2.4,2.4,0,0,0-.76.52,3.06,3.06,0,0,0-.56.85,4,4,0,0,0-.28,1.15Z" style="fill: rgb(118, 118, 118);"/>
  <path d="M536,48.07h1.2l.12,1h0a7.61,7.61,0,0,1,1.3-.84,3.08,3.08,0,0,1,1.47-.37,3.22,3.22,0,0,1,1.48.32,3.13,3.13,0,0,1,1.09.89,4.17,4.17,0,0,1,.66,1.39,6.94,6.94,0,0,1,.23,1.83,5.81,5.81,0,0,1-.32,2,4.37,4.37,0,0,1-.83,1.47,3.54,3.54,0,0,1-1.2.92,3.5,3.5,0,0,1-1.43.31,3,3,0,0,1-1.2-.27,5.18,5.18,0,0,1-1.2-.75l0,1.52v3H536Zm3.58,7.67a2.11,2.11,0,0,0,1-.24,2.43,2.43,0,0,0,.79-.68,3.1,3.1,0,0,0,.52-1.08,5,5,0,0,0,.19-1.45A6.53,6.53,0,0,0,542,51a3.09,3.09,0,0,0-.4-1,1.87,1.87,0,0,0-.71-.66,2.23,2.23,0,0,0-1-.23,2.39,2.39,0,0,0-1.13.3,5.79,5.79,0,0,0-1.21.9v4.55a4,4,0,0,0,1.15.71A3,3,0,0,0,539.62,55.74Z" style="fill: rgb(118, 118, 118);"/>
  <path d="M547.68,57a2.73,2.73,0,0,1-1-.18,2.26,2.26,0,0,1-.8-.5,2.33,2.33,0,0,1-.53-.8,2.74,2.74,0,0,1-.19-1.06,2.5,2.5,0,0,1,1.38-2.4,8.82,8.82,0,0,1,4-.76,4.47,4.47,0,0,0-.08-.82,2,2,0,0,0-.28-.7,1.54,1.54,0,0,0-.55-.49,1.94,1.94,0,0,0-.88-.18,4.28,4.28,0,0,0-1.47.25,4.79,4.79,0,0,0-1.22.6l-.58-1a8.49,8.49,0,0,1,1.53-.71,6.09,6.09,0,0,1,2-.32,3.37,3.37,0,0,1,1.36.25,2.41,2.41,0,0,1,.93.73,3.29,3.29,0,0,1,.54,1.13,5.48,5.48,0,0,1,.18,1.45v5.35h-1.2l-.13-.94h0a5.91,5.91,0,0,1-1.35.83A3.87,3.87,0,0,1,547.68,57Zm.42-1.19a3.16,3.16,0,0,0,1.2-.22,4.49,4.49,0,0,0,1.2-.78V52.2a15.15,15.15,0,0,0-1.91.23,4.05,4.05,0,0,0-1.21.41,1.46,1.46,0,0,0-.62.61,1.94,1.94,0,0,0-.18.86,1.36,1.36,0,0,0,.43,1.11A1.65,1.65,0,0,0,548.1,55.78Z" style="fill: rgb(118, 118, 118);"/>
  <path d="M555.6,60.5,557,56.68l-3.48-8.61H555l1.77,4.74c.13.37.27.77.41,1.2s.29.83.42,1.23h.08l.37-1.22c.13-.43.25-.83.37-1.21L560,48.07h1.43L557,60.5Z" style="fill: rgb(118, 118, 118);"/>
  <path d="M122.36,57a5,5,0,0,1-2-.41,4.51,4.51,0,0,1-1.62-1.19,5.68,5.68,0,0,1-1.08-1.92,8,8,0,0,1-.38-2.55,7.76,7.76,0,0,1,.39-2.55,5.8,5.8,0,0,1,1.09-1.92,4.59,4.59,0,0,1,1.65-1.21,5.2,5.2,0,0,1,2.07-.41,4.17,4.17,0,0,1,1,.12,4.29,4.29,0,0,1,.89.33,4.11,4.11,0,0,1,.73.46,4.4,4.4,0,0,1,.59.54l-.8,1a4.1,4.1,0,0,0-1-.81,2.92,2.92,0,0,0-1.35-.31,3.46,3.46,0,0,0-1.52.33,3.2,3.2,0,0,0-1.16,1,4.36,4.36,0,0,0-.76,1.49,7.16,7.16,0,0,0-.26,2,7.34,7.34,0,0,0,.26,2,4.76,4.76,0,0,0,.72,1.52,3.2,3.2,0,0,0,2.67,1.29,3.19,3.19,0,0,0,1.5-.35,5,5,0,0,0,1.22-1l.81.93a5.13,5.13,0,0,1-1.57,1.25A4.63,4.63,0,0,1,122.36,57Z" style="fill: rgb(118, 118, 118);"/>
  <path d="M128,56.76V44h1.46V56.76Z" style="fill: rgb(118, 118, 118);"/>
  <path d="M133.12,46.28a1,1,0,0,1-.72-.26.87.87,0,0,1-.29-.68.85.85,0,0,1,.29-.7,1,1,0,0,1,.72-.25,1.07,1.07,0,0,1,.72.25.87.87,0,0,1,.28.7.9.9,0,0,1-.28.68A1.08,1.08,0,0,1,133.12,46.28Zm-.74,1.79h1.46v8.69h-1.46Z" style="fill: rgb(118, 118, 118);"/>
  <path d="M140.28,57a4.21,4.21,0,0,1-1.62-.31,3.73,3.73,0,0,1-1.32-.88,4.34,4.34,0,0,1-.89-1.44,5.69,5.69,0,0,1,0-3.82,4.32,4.32,0,0,1,.88-1.44,3.69,3.69,0,0,1,1.25-.91,3.72,3.72,0,0,1,2.95,0,2.9,2.9,0,0,1,1.08.82,3.76,3.76,0,0,1,.67,1.29,5.5,5.5,0,0,1,.24,1.68c0,.16,0,.31,0,.45a3.22,3.22,0,0,1-.05.38h-5.87a3.33,3.33,0,0,0,.86,2.21,2.66,2.66,0,0,0,2,.81,3.59,3.59,0,0,0,1.17-.18,4.52,4.52,0,0,0,1-.5l.52,1a6.65,6.65,0,0,1-1.28.64A4.44,4.44,0,0,1,140.28,57Zm1.94-5.23a3.1,3.1,0,0,0-.57-2,2,2,0,0,0-1.59-.69,2.09,2.09,0,0,0-.89.19,2.4,2.4,0,0,0-.76.52,3.06,3.06,0,0,0-.56.85,4,4,0,0,0-.29,1.15Z" style="fill: rgb(118, 118, 118);"/>
  <path d="M145.64,48.07h1.2l.13,1.25H147a7.93,7.93,0,0,1,1.32-1,2.91,2.91,0,0,1,1.59-.43,2.37,2.37,0,0,1,2,.86,4.32,4.32,0,0,1,.64,2.55v5.5h-1.46V51.45a3.13,3.13,0,0,0-.39-1.78,1.45,1.45,0,0,0-1.26-.54,2.26,2.26,0,0,0-1.2.33,8.23,8.23,0,0,0-1.18,1v6.31h-1.46Z" style="fill: rgb(118, 118, 118);"/>
  <path d="M158.16,57a2.9,2.9,0,0,1-1.18-.21,1.86,1.86,0,0,1-.76-.58,2.59,2.59,0,0,1-.42-.92,5.38,5.38,0,0,1-.12-1.19V49.26h-1.3V48.15l1.36-.08.17-2.43h1.22v2.43h2.35v1.19h-2.35V54.1a2.26,2.26,0,0,0,.29,1.25,1.17,1.17,0,0,0,1.06.43,1.86,1.86,0,0,0,.49-.07l.5-.15.29,1.09c-.25.08-.51.16-.79.22A3.9,3.9,0,0,1,158.16,57Z" style="fill: rgb(118, 118, 118);"/>
  <path d="M165.16,45h3.49a7.6,7.6,0,0,1,1.64.16,3.75,3.75,0,0,1,1.27.51,2.42,2.42,0,0,1,.83.88,3,3,0,0,1-.16,2.89,2.31,2.31,0,0,1-1.27,1v.08a3.22,3.22,0,0,1,1.72.9,2.62,2.62,0,0,1,.67,1.9,3.26,3.26,0,0,1-.32,1.51,3,3,0,0,1-.92,1.07,3.85,3.85,0,0,1-1.4.64,6.83,6.83,0,0,1-1.8.22h-3.75Zm3.23,5a3.6,3.6,0,0,0,2.18-.51,1.71,1.71,0,0,0,.66-1.41,1.55,1.55,0,0,0-.7-1.46,4.06,4.06,0,0,0-2.07-.42h-1.81V50Zm.31,5.56a4.27,4.27,0,0,0,2.36-.56,1.93,1.93,0,0,0,.84-1.75,1.77,1.77,0,0,0-.82-1.61,4.69,4.69,0,0,0-2.38-.5h-2v4.42Z" style="fill: rgb(118, 118, 118);"/>
  <path d="M175.55,48.07h1.2l.12,1.59h0a4.17,4.17,0,0,1,1.1-1.32,2.17,2.17,0,0,1,1.37-.49,2.47,2.47,0,0,1,.5,0,1.12,1.12,0,0,1,.42.15L180,49.32a2.73,2.73,0,0,0-.4-.11,2.64,2.64,0,0,0-.45,0,1.62,1.62,0,0,0-.56.1,1.88,1.88,0,0,0-.59.34,2.8,2.8,0,0,0-.56.61,4.2,4.2,0,0,0-.48,1v5.58h-1.45Z" style="fill: rgb(118, 118, 118);"/>
  <path d="M185.13,57a3.84,3.84,0,0,1-1.53-.31,4,4,0,0,1-1.29-.88,4.21,4.21,0,0,1-.88-1.43,5.81,5.81,0,0,1,0-3.86,4.16,4.16,0,0,1,.88-1.44,3.77,3.77,0,0,1,1.29-.9,4.05,4.05,0,0,1,3.06,0,3.77,3.77,0,0,1,1.29.9,4.16,4.16,0,0,1,.88,1.44,5.81,5.81,0,0,1,0,3.86,4.21,4.21,0,0,1-.88,1.43,4,4,0,0,1-1.29.88A3.84,3.84,0,0,1,185.13,57Zm0-1.23a2.16,2.16,0,0,0,1-.24,2.45,2.45,0,0,0,.8-.67,3,3,0,0,0,.52-1,4.43,4.43,0,0,0,.19-1.36,4.47,4.47,0,0,0-.19-1.36A3.18,3.18,0,0,0,187,50a2.36,2.36,0,0,0-.8-.68,2.16,2.16,0,0,0-1-.24,2.19,2.19,0,0,0-1,.24,2.36,2.36,0,0,0-.8.68,3.87,3.87,0,0,0-.51,1.06,4.81,4.81,0,0,0-.18,1.36,4.76,4.76,0,0,0,.18,1.36,3.67,3.67,0,0,0,.51,1,2.45,2.45,0,0,0,.8.67A2.19,2.19,0,0,0,185.13,55.74Z" style="fill: rgb(118, 118, 118);"/>
  <path d="M190.41,48.07h1.49l1.29,5c.09.41.18.82.26,1.22s.17.8.26,1.21h.08c.09-.41.19-.81.28-1.22s.19-.81.31-1.21l1.34-5h1.43l1.36,5,.3,1.22.3,1.21h.07c.09-.41.19-.81.27-1.21l.27-1.22,1.28-5h1.38L200,56.76h-1.76L197,52.07c-.12-.4-.22-.81-.31-1.21s-.18-.84-.28-1.28h-.08c-.1.44-.19.87-.28,1.28s-.2.83-.32,1.24l-1.21,4.66h-1.71Z" style="fill: rgb(118, 118, 118);"/>
  <path d="M206.55,57a4.66,4.66,0,0,1-1.77-.35,5.51,5.51,0,0,1-1.47-.85l.72-1a5.22,5.22,0,0,0,1.17.74,3.3,3.3,0,0,0,1.4.28,1.8,1.8,0,0,0,1.29-.4,1.29,1.29,0,0,0,.42-1,.92.92,0,0,0-.17-.57,1.94,1.94,0,0,0-.46-.44,3.82,3.82,0,0,0-.64-.34l-.71-.3a8,8,0,0,1-.92-.37,3.67,3.67,0,0,1-.83-.5,2.49,2.49,0,0,1-.61-.69,1.88,1.88,0,0,1-.23-.95,2.27,2.27,0,0,1,.78-1.74,2.73,2.73,0,0,1,.95-.53,3.79,3.79,0,0,1,1.26-.19,3.85,3.85,0,0,1,1.5.28,5.3,5.3,0,0,1,1.2.68l-.7.94a5.35,5.35,0,0,0-.94-.55,2.57,2.57,0,0,0-1.06-.22,1.72,1.72,0,0,0-1.2.37,1.17,1.17,0,0,0-.38.88.85.85,0,0,0,.16.54,1.65,1.65,0,0,0,.43.39,3.85,3.85,0,0,0,.61.3l.72.28c.32.12.63.25,1,.39a3.59,3.59,0,0,1,.85.5,2.59,2.59,0,0,1,.61.71,2.09,2.09,0,0,1,.24,1,2.46,2.46,0,0,1-.21,1,2.29,2.29,0,0,1-.6.82,3.09,3.09,0,0,1-1,.55A4,4,0,0,1,206.55,57Z" style="fill: rgb(118, 118, 118);"/>
  <path d="M215.27,57a4.21,4.21,0,0,1-1.62-.31,3.73,3.73,0,0,1-1.32-.88,4.34,4.34,0,0,1-.89-1.44,5.69,5.69,0,0,1,0-3.82,4.32,4.32,0,0,1,.88-1.44,3.63,3.63,0,0,1,1.26-.91,3.41,3.41,0,0,1,1.46-.32,3.46,3.46,0,0,1,1.48.29,2.9,2.9,0,0,1,1.08.82,3.76,3.76,0,0,1,.67,1.29,5.5,5.5,0,0,1,.24,1.68c0,.16,0,.31,0,.45a3.22,3.22,0,0,1-.05.38h-5.87a3.33,3.33,0,0,0,.86,2.21,2.66,2.66,0,0,0,2,.81,3.59,3.59,0,0,0,1.17-.18,4.52,4.52,0,0,0,1-.5l.52,1a6.65,6.65,0,0,1-1.28.64A4.44,4.44,0,0,1,215.27,57Zm1.94-5.23a3.1,3.1,0,0,0-.57-2,2,2,0,0,0-1.59-.69,2.09,2.09,0,0,0-.89.19,2.4,2.4,0,0,0-.76.52,3.06,3.06,0,0,0-.56.85,4,4,0,0,0-.29,1.15Z" style="fill: rgb(118, 118, 118);"/>
  <path d="M220.63,48.07h1.2l.13,1.59h0a4,4,0,0,1,1.1-1.32,2.15,2.15,0,0,1,1.36-.49,2.57,2.57,0,0,1,.51,0,1.18,1.18,0,0,1,.42.15l-.27,1.28a2.73,2.73,0,0,0-.4-.11,2.81,2.81,0,0,0-.45,0,1.71,1.71,0,0,0-.57.1,2,2,0,0,0-.58.34,2.8,2.8,0,0,0-.56.61,4.2,4.2,0,0,0-.48,1v5.58h-1.46Z" style="fill: rgb(118, 118, 118);"/>
  <path class="cls-2" d="M257.6,124.37v.81h-9.29v-.81h2.28v-2.9a2.65,2.65,0,0,1-1-.92,2.53,2.53,0,0,1-.09-2.44,2.66,2.66,0,0,1,.77-.87,3.79,3.79,0,0,1,1.18-.56,5.13,5.13,0,0,1,1.5-.2,5,5,0,0,1,1.49.2,3.69,3.69,0,0,1,1.18.56,2.55,2.55,0,0,1,.77.87,2.39,2.39,0,0,1,.27,1.13,2.46,2.46,0,0,1-.35,1.3,2.64,2.64,0,0,1-1,.91v2.92Zm-4.66-7.12a4.14,4.14,0,0,0-1.14.14,3.16,3.16,0,0,0-.89.4,1.83,1.83,0,0,0-.58.63,1.64,1.64,0,0,0-.21.82,1.61,1.61,0,0,0,.21.82,1.8,1.8,0,0,0,.58.62,2.92,2.92,0,0,0,.89.41,4.56,4.56,0,0,0,1.14.14,4.48,4.48,0,0,0,1.13-.14,2.81,2.81,0,0,0,.89-.41,1.74,1.74,0,0,0,.59-.62,1.61,1.61,0,0,0,.21-.82,1.64,1.64,0,0,0-.21-.82,1.77,1.77,0,0,0-.59-.63,3,3,0,0,0-.89-.4A4.07,4.07,0,0,0,252.94,117.25Zm-1.42,7.12h2.85v-2.54a6,6,0,0,1-1.43.17,5.82,5.82,0,0,1-1.42-.17Z"/>
  <path class="cls-2" d="M264.43,121.87a4.26,4.26,0,0,1-1.56-.87,4,4,0,0,1-1-1.36,4.25,4.25,0,0,1-1,1.54,4.09,4.09,0,0,1-1.57,1l-.46-.75a4.51,4.51,0,0,0,1-.54,4,4,0,0,0,.81-.77,3.46,3.46,0,0,0,.52-.94,3.13,3.13,0,0,0,.18-1v-.21h-2.27v-.79h2.27v-1.34h.93v1.34h2.26v.79h-2.26v.21a2.7,2.7,0,0,0,.19,1,3.33,3.33,0,0,0,.53.86,4,4,0,0,0,.81.71,4.31,4.31,0,0,0,1,.48Zm-.59.73a6.9,6.9,0,0,1,1.43.13,3.93,3.93,0,0,1,1.07.38,2,2,0,0,1,.68.62,1.49,1.49,0,0,1,.23.84,1.52,1.52,0,0,1-.23.84,2,2,0,0,1-.68.62,3.36,3.36,0,0,1-1.07.38,6.86,6.86,0,0,1-1.43.14,6.73,6.73,0,0,1-1.41-.14,3.36,3.36,0,0,1-1.07-.38,2,2,0,0,1-.68-.62,1.6,1.6,0,0,1-.23-.84,1.58,1.58,0,0,1,.23-.84,2,2,0,0,1,.68-.62,3.93,3.93,0,0,1,1.07-.38A6.77,6.77,0,0,1,263.84,122.6Zm0,3.18a4.24,4.24,0,0,0,1.82-.32,1,1,0,0,0,.66-.89,1,1,0,0,0-.66-.89,5.5,5.5,0,0,0-3.64,0,1,1,0,0,0-.65.89,1,1,0,0,0,.65.89A4.27,4.27,0,0,0,263.85,125.78Zm2.43-6.91v-3.06h.94v6.51h-.94v-2.65h-2v-.8Z"/>
  <path class="cls-2" d="M405.15,116.89h2.38a5.6,5.6,0,0,1,1.29.14,2.78,2.78,0,0,1,1,.43,2.11,2.11,0,0,1,.64.8,2.93,2.93,0,0,1,.23,1.21,3.05,3.05,0,0,1-.23,1.22,2.23,2.23,0,0,1-.63.85,2.75,2.75,0,0,1-1,.5,4.8,4.8,0,0,1-1.25.16h-1.38v3.49h-1.06Zm2.3,4.42a2.57,2.57,0,0,0,1.64-.44,1.72,1.72,0,0,0,.53-1.4,1.48,1.48,0,0,0-.56-1.32,3.07,3.07,0,0,0-1.66-.37h-1.19v3.53Z"/>
  <path class="cls-2" d="M415.44,125.85a3.21,3.21,0,0,1-2.57-1.23,4.39,4.39,0,0,1-.73-1.45,6.29,6.29,0,0,1-.27-1.91,6.16,6.16,0,0,1,.27-1.89,4.28,4.28,0,0,1,.73-1.43,3.39,3.39,0,0,1,4-.9,3.18,3.18,0,0,1,1.13.9,4.3,4.3,0,0,1,.74,1.43,6.49,6.49,0,0,1,.26,1.89,6.63,6.63,0,0,1-.26,1.91,4.4,4.4,0,0,1-.74,1.45,3.21,3.21,0,0,1-1.13.91A3.24,3.24,0,0,1,415.44,125.85Zm0-1a2.08,2.08,0,0,0,1-.25,2.49,2.49,0,0,0,.79-.73,3.55,3.55,0,0,0,.5-1.13,5.82,5.82,0,0,0,.18-1.5,5.69,5.69,0,0,0-.18-1.49,3.49,3.49,0,0,0-.5-1.12,2.43,2.43,0,0,0-.79-.71,2.19,2.19,0,0,0-1-.24,2.13,2.13,0,0,0-1,.24,2.43,2.43,0,0,0-.79.71,3.73,3.73,0,0,0-.5,1.12,6.17,6.17,0,0,0-.17,1.49,6.31,6.31,0,0,0,.17,1.5,3.79,3.79,0,0,0,.5,1.13,2.49,2.49,0,0,0,.79.73A2,2,0,0,0,415.44,124.87Z"/>
  <path class="cls-2" d="M423.14,125.85a3.85,3.85,0,0,1-2.93-1.31l.62-.76a3.57,3.57,0,0,0,1.06.8,2.8,2.8,0,0,0,1.26.29,2,2,0,0,0,1.29-.39,1.31,1.31,0,0,0,.46-1,1.42,1.42,0,0,0-.1-.57,1.5,1.5,0,0,0-.3-.4,2,2,0,0,0-.44-.31l-.55-.28-1.21-.55a4.94,4.94,0,0,1-.59-.32,2.58,2.58,0,0,1-.55-.45,2.19,2.19,0,0,1-.56-1.48,2.12,2.12,0,0,1,.21-.94,2.21,2.21,0,0,1,.54-.74,2.53,2.53,0,0,1,.83-.49,3.32,3.32,0,0,1,1.06-.17,3.17,3.17,0,0,1,1.38.3,3.32,3.32,0,0,1,1.08.79l-.56.71a3.1,3.1,0,0,0-.85-.61,2.38,2.38,0,0,0-1.05-.22,1.69,1.69,0,0,0-1.14.35,1.17,1.17,0,0,0-.42,1,1.2,1.2,0,0,0,.12.55,1.52,1.52,0,0,0,.32.39,1.74,1.74,0,0,0,.45.29l.49.23,1.19.54a4.4,4.4,0,0,1,.68.37,2.83,2.83,0,0,1,.55.48,2.12,2.12,0,0,1,.36.64,2.5,2.5,0,0,1,.14.86,2.3,2.3,0,0,1-.21,1,2.42,2.42,0,0,1-.56.79,2.4,2.4,0,0,1-.89.53A3.44,3.44,0,0,1,423.14,125.85Z"/>
  <path class="cls-2" d="M429.11,117.83h-2.53v-.94h6.12v.94h-2.53v7.86h-1.06Z"/>
  <path class="cls-2" d="M445.49,124.44v.81H436.2v-.81h4.17v-2.23h-3v-5.52h6.92v.81h-6V119h5.76v.76h-5.76v1.64h6.1v.8h-3.12v2.23Z"/>
  <path class="cls-2" d="M456,121.12v.8h-9.29v-.8h6.86c.07-.35.12-.67.16-1s.07-.6.09-.88l-6.05.29-.13-.81,6.22-.21c0-.23,0-.44,0-.64v-.72h-6v-.79h6.91v.92c0,.52,0,1.08,0,1.69a16,16,0,0,1-.25,2.12Zm-7.18,4.42H455v.8h-7.13V123h.94Z"/>
  <path class="cls-2" d="M469,124.39v.81h-9.29v-.81H462v-2.9a2.73,2.73,0,0,1-1-.92,2.41,2.41,0,0,1-.36-1.31,2.28,2.28,0,0,1,.28-1.13,2.45,2.45,0,0,1,.77-.87,3.69,3.69,0,0,1,1.18-.56,5.69,5.69,0,0,1,3,0,3.74,3.74,0,0,1,1.17.56,2.55,2.55,0,0,1,.77.87,2.55,2.55,0,0,1-.08,2.43,2.5,2.5,0,0,1-1,.91v2.92Zm-4.66-7.12a4.14,4.14,0,0,0-1.14.14,3,3,0,0,0-.88.4,1.86,1.86,0,0,0-.59.63,1.64,1.64,0,0,0-.21.82,1.61,1.61,0,0,0,.21.82,1.84,1.84,0,0,0,.59.62,2.75,2.75,0,0,0,.88.41,4.56,4.56,0,0,0,1.14.14,4.43,4.43,0,0,0,1.13-.14,2.87,2.87,0,0,0,.9-.41,1.94,1.94,0,0,0,.59-.62,1.61,1.61,0,0,0,.21-.82,1.64,1.64,0,0,0-.21-.82,2,2,0,0,0-.59-.63,3.1,3.1,0,0,0-.9-.4A4,4,0,0,0,464.36,117.27Zm-1.42,7.12h2.86v-2.54a6,6,0,0,1-1.44.17,5.94,5.94,0,0,1-1.42-.17Z"/>
  <path class="cls-2" d="M475.85,121.89a4.42,4.42,0,0,1-1.56-.87,4,4,0,0,1-1-1.36,4.25,4.25,0,0,1-1,1.54,4,4,0,0,1-1.57,1l-.46-.75a4.59,4.59,0,0,0,1-.54,3.91,3.91,0,0,0,.8-.77,3.22,3.22,0,0,0,.52-.94,3.13,3.13,0,0,0,.18-1v-.21h-2.27v-.79h2.27v-1.34h.94v1.34H476v.79h-2.26v.21a2.5,2.5,0,0,0,.19,1,2.86,2.86,0,0,0,.53.86,3.5,3.5,0,0,0,.81.71,4.23,4.23,0,0,0,1,.48Zm-.59.73a6.9,6.9,0,0,1,1.43.13,4.13,4.13,0,0,1,1.08.38,1.92,1.92,0,0,1,.67.62,1.5,1.5,0,0,1,.24.84,1.53,1.53,0,0,1-.24.84,1.92,1.92,0,0,1-.67.62,3.52,3.52,0,0,1-1.08.38,6.86,6.86,0,0,1-1.43.14,6.73,6.73,0,0,1-1.41-.14,3.45,3.45,0,0,1-1.07-.38,2,2,0,0,1-.68-.62,1.6,1.6,0,0,1-.23-.84,1.58,1.58,0,0,1,.23-.84,2,2,0,0,1,.68-.62,4.06,4.06,0,0,1,1.07-.38A6.77,6.77,0,0,1,475.26,122.62Zm0,3.18a4.32,4.32,0,0,0,1.83-.32,1,1,0,0,0,.65-.89,1,1,0,0,0-.65-.89,4.34,4.34,0,0,0-1.83-.31,4.21,4.21,0,0,0-1.81.31,1,1,0,0,0-.65.89,1,1,0,0,0,.65.89A4.19,4.19,0,0,0,475.27,125.8Zm2.44-6.91v-3.06h.93v6.51h-.93v-2.65h-2v-.8Z"/>
  <path class="cls-2" d="M429.69,184.66v.81H420.4v-.81h4.17v-2.23h-3v-5.52h6.92v.81h-6v1.51h5.76V180h-5.76v1.63h6.1v.8h-3.12v2.23Z"/>
  <path class="cls-2" d="M440.18,181.34v.8h-9.29v-.8h6.86c.07-.34.12-.67.16-1s.07-.6.09-.88l-6.05.29-.13-.8,6.22-.22c0-.22,0-.44,0-.64v-.72h-6v-.79H439v.93q0,.77,0,1.68a16,16,0,0,1-.25,2.12ZM433,185.76h6.19v.8h-7.13V183.2H433Z"/>
  <path class="cls-2" d="M453.18,181.27v.79h-9.24v-.79Zm-4.62-5a7.47,7.47,0,0,1,1.49.14,4,4,0,0,1,1.13.4,2.07,2.07,0,0,1,.72.65,1.6,1.6,0,0,1,.25.86,1.58,1.58,0,0,1-.25.86,2,2,0,0,1-.72.64,4,4,0,0,1-1.13.41,8.6,8.6,0,0,1-3,0,4,4,0,0,1-1.13-.41,1.89,1.89,0,0,1-.72-.64,1.5,1.5,0,0,1-.25-.86,1.52,1.52,0,0,1,.25-.86,1.91,1.91,0,0,1,.72-.65,4,4,0,0,1,1.13-.4A7.55,7.55,0,0,1,448.56,176.31Zm0,6.64a5.49,5.49,0,0,1,2.56.5,1.56,1.56,0,0,1,0,2.85,5.49,5.49,0,0,1-2.56.5,7.14,7.14,0,0,1-1.46-.13,3.55,3.55,0,0,1-1.1-.37,1.88,1.88,0,0,1-.69-.61,1.52,1.52,0,0,1,0-1.64,1.86,1.86,0,0,1,.69-.6,3.55,3.55,0,0,1,1.1-.37A7.14,7.14,0,0,1,448.56,183Zm0-5.87a4.43,4.43,0,0,0-1.92.34,1,1,0,0,0,0,1.88,4.59,4.59,0,0,0,1.92.34,4.64,4.64,0,0,0,1.93-.34,1,1,0,0,0,0-1.88A4.48,4.48,0,0,0,448.56,177.08Zm0,6.64a4.67,4.67,0,0,0-1.87.3,1,1,0,0,0-.67.86.93.93,0,0,0,.67.85,4.67,4.67,0,0,0,1.87.3,4.72,4.72,0,0,0,1.88-.3.93.93,0,0,0,.67-.85,1,1,0,0,0-.67-.86A4.72,4.72,0,0,0,448.56,183.72Z"/>
  <path class="cls-2" d="M460.45,181a10.24,10.24,0,0,1-1,.19c-.34.05-.7.09-1.07.12l-1.21,0c-.43,0-.91,0-1.45,0h-.79v-4.67h4.5v.8h-3.57v3.07l1.37,0,1.14-.05c.36,0,.7-.06,1-.11l1-.18Zm1,1.33h.92v4.26h-6.44v-4.26h.93v1.34h4.59Zm0,2.11h-4.59v1.35h4.59Zm2.44-5.1h-1.52v2.4h-.93V176h.93v2.53h1.52Z"/>
  <path class="cls-2" d="M291.1,213.52h1.06v3.68h3.9v-3.68h1.06v8.79h-1.06v-4.15h-3.9v4.15H291.1Z"/>
  <path class="cls-2" d="M301.8,222.47a3,3,0,0,1-1.15-.23,2.5,2.5,0,0,1-.94-.67,3.24,3.24,0,0,1-.64-1.07,4.59,4.59,0,0,1,0-2.87,3.57,3.57,0,0,1,.63-1.08,2.78,2.78,0,0,1,.89-.68,2.56,2.56,0,0,1,2.1,0,2.2,2.2,0,0,1,.77.62,2.84,2.84,0,0,1,.48,1,4.41,4.41,0,0,1,.17,1.26c0,.12,0,.23,0,.34a1.88,1.88,0,0,1,0,.28h-4.18a2.61,2.61,0,0,0,.61,1.66,1.85,1.85,0,0,0,1.44.61,2.45,2.45,0,0,0,.83-.14,3.11,3.11,0,0,0,.72-.38l.38.73a5.69,5.69,0,0,1-.92.48A3.09,3.09,0,0,1,301.8,222.47Zm1.38-3.93a2.43,2.43,0,0,0-.4-1.51,1.37,1.37,0,0,0-1.14-.51,1.51,1.51,0,0,0-.63.13,1.9,1.9,0,0,0-.54.4,2.12,2.12,0,0,0-.4.64,2.72,2.72,0,0,0-.2.85Z"/>
  <path class="cls-2" d="M306.85,222.47a2.08,2.08,0,0,1-.71-.13,1.73,1.73,0,0,1-.57-.38,1.76,1.76,0,0,1-.38-.6,2.24,2.24,0,0,1-.14-.8,1.89,1.89,0,0,1,1-1.8,6.2,6.2,0,0,1,2.82-.57,3.08,3.08,0,0,0-.06-.61,1.36,1.36,0,0,0-.2-.53,1,1,0,0,0-.39-.36,1.33,1.33,0,0,0-.63-.14,2.82,2.82,0,0,0-1,.19,3.23,3.23,0,0,0-.87.45l-.41-.78a4.81,4.81,0,0,1,1.09-.54,4,4,0,0,1,1.4-.24,2.21,2.21,0,0,1,1,.19,1.65,1.65,0,0,1,.67.55,2.32,2.32,0,0,1,.38.84,4.12,4.12,0,0,1,.13,1.09v4H309l-.09-.71h0a4,4,0,0,1-1,.63A2.56,2.56,0,0,1,306.85,222.47Zm.3-.89a2.27,2.27,0,0,0,.86-.17,3,3,0,0,0,.85-.59v-1.93a9.63,9.63,0,0,0-1.36.18,2.6,2.6,0,0,0-.86.3,1.1,1.1,0,0,0-.45.46,1.6,1.6,0,0,0-.12.65,1,1,0,0,0,.31.83A1.11,1.11,0,0,0,307.15,221.58Z"/>
  <path class="cls-2" d="M314,222.47a2.38,2.38,0,0,1-1.05-.23,2.15,2.15,0,0,1-.81-.66,3.13,3.13,0,0,1-.51-1.07,5.33,5.33,0,0,1-.18-1.45,4.29,4.29,0,0,1,.22-1.43,3.5,3.5,0,0,1,.59-1.08,2.6,2.6,0,0,1,.84-.68,2.31,2.31,0,0,1,1-.24,2.15,2.15,0,0,1,.95.2,4.26,4.26,0,0,1,.8.57l-.06-1.13v-2.51h1v9.55H316l-.11-.77h0a3.41,3.41,0,0,1-.84.66A2.1,2.1,0,0,1,314,222.47Zm.23-.93a1.54,1.54,0,0,0,.81-.22,3.07,3.07,0,0,0,.77-.67v-3.42a2.71,2.71,0,0,0-.76-.52,1.73,1.73,0,0,0-.74-.16,1.4,1.4,0,0,0-.7.18,1.72,1.72,0,0,0-.57.51,2.54,2.54,0,0,0-.39.79,3.58,3.58,0,0,0-.13,1,3.35,3.35,0,0,0,.44,1.85A1.46,1.46,0,0,0,314.21,221.54Z"/>
  <path class="cls-2" d="M321.44,222.47a3,3,0,0,1-1.16-.23,2.5,2.5,0,0,1-.94-.67,3.24,3.24,0,0,1-.64-1.07,4.26,4.26,0,0,1-.23-1.44,4,4,0,0,1,.24-1.43,3.36,3.36,0,0,1,.62-1.08,2.89,2.89,0,0,1,.89-.68,2.56,2.56,0,0,1,2.1,0,2.12,2.12,0,0,1,.77.62,2.84,2.84,0,0,1,.48,1,4.41,4.41,0,0,1,.17,1.26c0,.12,0,.23,0,.34a1.88,1.88,0,0,1,0,.28h-4.18a2.61,2.61,0,0,0,.61,1.66,1.85,1.85,0,0,0,1.44.61,2.45,2.45,0,0,0,.83-.14,3.11,3.11,0,0,0,.72-.38l.38.73a6,6,0,0,1-.91.48A3.17,3.17,0,0,1,321.44,222.47Zm1.37-3.93a2.43,2.43,0,0,0-.4-1.51,1.37,1.37,0,0,0-1.13-.51,1.53,1.53,0,0,0-.64.13,1.9,1.9,0,0,0-.54.4,2.12,2.12,0,0,0-.4.64,3,3,0,0,0-.2.85Z"/>
  <path class="cls-2" d="M325.25,215.8h.86l.09,1.18h0a3.17,3.17,0,0,1,.79-1,1.52,1.52,0,0,1,1-.36,1.86,1.86,0,0,1,.36,0,1.21,1.21,0,0,1,.3.11l-.19,1a1.28,1.28,0,0,0-.29-.08,1.39,1.39,0,0,0-.32,0,1.19,1.19,0,0,0-.4.08,1.55,1.55,0,0,0-.42.25,2.45,2.45,0,0,0-.4.47,3,3,0,0,0-.34.7v4.19h-1Z"/>
  <path class="cls-2" d="M296.92,235.46v.81h-9.29v-.81h4.18v-2.23h-3v-5.52h6.92v.81h-6V230h5.75v.77h-5.75v1.63h6.09v.8h-3.12v2.23Z"/>
  <path class="cls-2" d="M307.41,232.14v.8h-9.29v-.8H305a9.77,9.77,0,0,0,.16-1c0-.31.07-.6.09-.88l-6.05.29-.12-.8,6.21-.22c0-.22,0-.44,0-.64v-.72h-6v-.79h6.91v.93c0,.51,0,1.07,0,1.68a16,16,0,0,1-.25,2.12Zm-7.18,4.42h6.19v.8H299.3V234h.93Z"/>
  <path class="cls-2" d="M320.43,234.14h-4.16v3.47h-.94v-3.47h-4.14v-.8h9.24Zm-8.67-2.41a5.43,5.43,0,0,0,1.33-.35,4.8,4.8,0,0,0,1.14-.63,3.29,3.29,0,0,0,.8-.83,1.77,1.77,0,0,0,.29-1h-3.25v-.79h3.26v-1.32h.94v1.32h3.26V229h-3.26a1.69,1.69,0,0,0,.3.95,3,3,0,0,0,.79.83,4.8,4.8,0,0,0,1.14.63,5.14,5.14,0,0,0,1.33.36l-.33.79a6.56,6.56,0,0,1-1.16-.29,5.22,5.22,0,0,1-1-.49,4.74,4.74,0,0,1-.87-.66,3.18,3.18,0,0,1-.63-.8,3.37,3.37,0,0,1-.62.8,4.5,4.5,0,0,1-.88.66,5.05,5.05,0,0,1-1.05.49,6.46,6.46,0,0,1-1.15.29Z"/>
  <path class="cls-2" d="M326.88,228a9.11,9.11,0,0,1-.26,2.22,7.72,7.72,0,0,1-.82,2,7.85,7.85,0,0,1-1.44,1.81,9.26,9.26,0,0,1-2.12,1.48l-.51-.77a8.38,8.38,0,0,0,3-2.56,6.91,6.91,0,0,0,1.21-3.43h-3.75V228Zm4.29,4h-1.64v5.58h-.94V226.85h.94v4.37h1.64Z"/>
  <path class="cls-2" d="M416.32,237.17h2.39a5.58,5.58,0,0,1,1.28.14,2.48,2.48,0,0,1,1,.43,2.11,2.11,0,0,1,.64.8,2.9,2.9,0,0,1,.23,1.21,3.24,3.24,0,0,1-.22,1.22,2.25,2.25,0,0,1-.64.85,2.75,2.75,0,0,1-1,.5,4.8,4.8,0,0,1-1.25.16h-1.38V246h-1.06Zm2.3,4.42a2.57,2.57,0,0,0,1.64-.44,1.72,1.72,0,0,0,.53-1.4,1.48,1.48,0,0,0-.56-1.32,3,3,0,0,0-1.65-.37h-1.2v3.53Z"/>
  <path class="cls-2" d="M426.61,246.13A3.21,3.21,0,0,1,424,244.9a4.39,4.39,0,0,1-.73-1.45,6.29,6.29,0,0,1-.27-1.91,6.16,6.16,0,0,1,.27-1.89,4.28,4.28,0,0,1,.73-1.43,3.2,3.2,0,0,1,2.57-1.21,3.31,3.31,0,0,1,1.45.31,3.23,3.23,0,0,1,1.12.9,4.3,4.3,0,0,1,.74,1.43,6.49,6.49,0,0,1,.26,1.89,6.63,6.63,0,0,1-.26,1.91,4.4,4.4,0,0,1-.74,1.45,3.26,3.26,0,0,1-1.12.91A3.31,3.31,0,0,1,426.61,246.13Zm0-1a2.06,2.06,0,0,0,1-.25,2.49,2.49,0,0,0,.79-.73,3.55,3.55,0,0,0,.5-1.13,5.82,5.82,0,0,0,.18-1.5,5.69,5.69,0,0,0-.18-1.49,3.49,3.49,0,0,0-.5-1.12,2.32,2.32,0,0,0-.79-.71,2.16,2.16,0,0,0-1-.24,2.13,2.13,0,0,0-1,.24,2.2,2.2,0,0,0-.78.71,3.5,3.5,0,0,0-.51,1.12,6.17,6.17,0,0,0-.17,1.49,6.31,6.31,0,0,0,.17,1.5,3.56,3.56,0,0,0,.51,1.13,2.36,2.36,0,0,0,.78.73A2,2,0,0,0,426.61,245.15Z"/>
  <path class="cls-2" d="M434.31,246.13a3.85,3.85,0,0,1-2.93-1.31l.62-.76a3.57,3.57,0,0,0,1.06.8,2.83,2.83,0,0,0,1.26.29,2,2,0,0,0,1.29-.39,1.31,1.31,0,0,0,.46-1,1.42,1.42,0,0,0-.1-.57,1.31,1.31,0,0,0-.3-.4,2,2,0,0,0-.44-.31l-.55-.28-1.2-.55a4.37,4.37,0,0,1-.6-.32,2.53,2.53,0,0,1-.54-.45,2,2,0,0,1-.41-.64,2.17,2.17,0,0,1-.15-.84,2.25,2.25,0,0,1,.74-1.68,2.58,2.58,0,0,1,.84-.49,3,3,0,0,1,1.05-.17,3.27,3.27,0,0,1,2.46,1.09l-.56.71a3,3,0,0,0-.85-.61,2.38,2.38,0,0,0-1-.22,1.69,1.69,0,0,0-1.14.35,1.15,1.15,0,0,0-.42.94,1.22,1.22,0,0,0,.12.56,1.52,1.52,0,0,0,.32.39,2,2,0,0,0,.45.29l.49.23,1.2.54a4.8,4.8,0,0,1,.67.37,2.83,2.83,0,0,1,.55.48,2,2,0,0,1,.37.64,2.78,2.78,0,0,1,.13.86,2.35,2.35,0,0,1-.77,1.77,2.4,2.4,0,0,1-.89.53A3.44,3.44,0,0,1,434.31,246.13Z"/>
  <path class="cls-2" d="M440.28,238.11h-2.53v-.94h6.12v.94h-2.53V246h-1.06Z"/>
  <path class="cls-2" d="M446.63,235.85h.75L444,247.52h-.77Z"/>
  <path class="cls-2" d="M452,246.13a3.82,3.82,0,0,1-1.52-.31,3.24,3.24,0,0,1-1.19-.89,4.41,4.41,0,0,1-.78-1.44,6.25,6.25,0,0,1-.27-1.91,6.06,6.06,0,0,1,.28-1.92,4.37,4.37,0,0,1,.8-1.44,3.55,3.55,0,0,1,1.21-.9,3.72,3.72,0,0,1,1.54-.31,3.29,3.29,0,0,1,.79.09,3.74,3.74,0,0,1,.67.25,2.7,2.7,0,0,1,.53.35,3.89,3.89,0,0,1,.41.4l-.57.72a3.35,3.35,0,0,0-.74-.6,2.14,2.14,0,0,0-1.07-.24,2.64,2.64,0,0,0-1.14.24,2.48,2.48,0,0,0-.87.71,3.36,3.36,0,0,0-.56,1.12,4.93,4.93,0,0,0-.2,1.49,5.82,5.82,0,0,0,.18,1.5,3.18,3.18,0,0,0,.54,1.14,2.34,2.34,0,0,0,.87.72,2.64,2.64,0,0,0,1.19.25,2.71,2.71,0,0,0,.86-.13,1.91,1.91,0,0,0,.66-.38v-2.31h-1.77v-.92h2.74v3.7a3.16,3.16,0,0,1-1.07.73A3.82,3.82,0,0,1,452,246.13Z"/>
  <path class="cls-2" d="M456.55,237.17h4.82v.94h-3.76v2.77h3.17v.94h-3.17V245h3.89V246h-4.95Z"/>
  <path class="cls-2" d="M465,238.11h-2.53v-.94h6.12v.94h-2.53V246H465Z"/>
  <path class="cls-2" d="M426.53,257.68h-3l-.81,2.69H421.6l2.84-8.8h1.17l2.84,8.8h-1.12Zm-.26-.89-.4-1.34-.43-1.49c-.14-.48-.27-1-.41-1.5h0c-.13.52-.26,1-.4,1.51s-.28,1-.43,1.48l-.41,1.34Z"/>
  <path class="cls-2" d="M429.62,251.57H432a5.73,5.73,0,0,1,1.29.14,2.5,2.5,0,0,1,1,.43,2,2,0,0,1,.64.8,2.75,2.75,0,0,1,.23,1.21,3.06,3.06,0,0,1-.22,1.22,2.25,2.25,0,0,1-.64.85,2.79,2.79,0,0,1-1,.5,4.91,4.91,0,0,1-1.25.16h-1.39v3.49h-1.06Zm2.31,4.42a2.54,2.54,0,0,0,1.63-.44,1.72,1.72,0,0,0,.53-1.4,1.47,1.47,0,0,0-.55-1.32,3.07,3.07,0,0,0-1.66-.37h-1.2V256Z"/>
  <path class="cls-2" d="M436.83,251.57h1.06v8.8h-1.06Z"/>
  <path class="cls-2" d="M451.45,259.19V260h-9.26v-.81h4.16v-1.51a4.14,4.14,0,0,1-2.13-.61,1.72,1.72,0,0,1-.54-2.29,1.88,1.88,0,0,1,.67-.64,3.3,3.3,0,0,1,1.06-.4,6.63,6.63,0,0,1,1.4-.14,6.44,6.44,0,0,1,1.38.14,3.27,3.27,0,0,1,1,.4,1.88,1.88,0,0,1,.67.64,1.65,1.65,0,0,1,.23.86,1.63,1.63,0,0,1-.75,1.42,4.18,4.18,0,0,1-2.1.62v1.51Zm-.51-6.32h-8.3v-.8h3.71v-1.41h.93v1.41h3.66Zm-6.55,2.77a1,1,0,0,0,.64.94,4,4,0,0,0,1.78.33,3.87,3.87,0,0,0,1.75-.33,1,1,0,0,0,.64-.94,1.05,1.05,0,0,0-.64-.94,3.87,3.87,0,0,0-1.75-.33,4,4,0,0,0-1.78.33A1,1,0,0,0,444.39,255.64Z"/>
  <path class="cls-2" d="M457.77,256v1h3v2.35h-6v1h6.31v.75h-7.24v-2.47h6v-.92h-6V257h3v-1h-4.13v-.77h9.22V256Zm-4.61-2a9.18,9.18,0,0,0,1.34-.2,5.24,5.24,0,0,0,1.12-.39,2.64,2.64,0,0,0,.79-.55,1.32,1.32,0,0,0,.37-.72h-3.16v-.75h3.21v-1h.94v1H461v.75h-3.14a1.24,1.24,0,0,0,.36.72,2.58,2.58,0,0,0,.78.55,5.34,5.34,0,0,0,1.11.39,9.12,9.12,0,0,0,1.35.2l-.29.74a8.28,8.28,0,0,1-1.23-.18,6.63,6.63,0,0,1-1.09-.34,3.83,3.83,0,0,1-.89-.51.63.63,0,1,0-1.26,0,3.64,3.64,0,0,1-.89.51,7.07,7.07,0,0,1-1.1.34,8.23,8.23,0,0,1-1.24.18Z"/>
  <path class="cls-2" d="M426.53,303.29h-3l-.81,2.69H421.6l2.84-8.8h1.17l2.84,8.8h-1.12Zm-.26-.89-.4-1.34c-.15-.51-.3-1-.43-1.49s-.28-1-.41-1.5h0c-.13.52-.26,1-.4,1.51s-.28,1-.43,1.48l-.41,1.34Z"/>
  <path class="cls-2" d="M429.62,297.18H432a5.58,5.58,0,0,1,1.28.14,2.48,2.48,0,0,1,1,.43,2,2,0,0,1,.64.8,2.9,2.9,0,0,1,.23,1.21,3.06,3.06,0,0,1-.22,1.22,2.25,2.25,0,0,1-.64.85,2.79,2.79,0,0,1-1,.5,4.93,4.93,0,0,1-1.26.16h-1.38V306h-1.06Zm2.31,4.42a2.54,2.54,0,0,0,1.63-.44,1.74,1.74,0,0,0,.53-1.4,1.47,1.47,0,0,0-.55-1.32,3,3,0,0,0-1.66-.37h-1.2v3.53Z"/>
  <path class="cls-2" d="M436.83,297.18h1.06V306h-1.06Z"/>
  <path class="cls-2" d="M451.42,301.34v.79h-9.23v-.79Zm-4.62-5a7.58,7.58,0,0,1,1.5.14,3.68,3.68,0,0,1,1.12.4,1.91,1.91,0,0,1,.72.65,1.6,1.6,0,0,1,0,1.72,1.89,1.89,0,0,1-.72.64,3.68,3.68,0,0,1-1.12.4,8.05,8.05,0,0,1-3,0,3.75,3.75,0,0,1-1.13-.4,2,2,0,0,1-.72-.64,1.6,1.6,0,0,1,0-1.72,2.07,2.07,0,0,1,.72-.65,3.75,3.75,0,0,1,1.13-.4A7.55,7.55,0,0,1,446.8,296.38Zm0,6.64a5.34,5.34,0,0,1,2.56.5,1.56,1.56,0,0,1,0,2.85,5.46,5.46,0,0,1-2.56.5,7.2,7.2,0,0,1-1.46-.13,3.76,3.76,0,0,1-1.09-.37,1.92,1.92,0,0,1-.7-.61,1.44,1.44,0,0,1-.24-.82,1.41,1.41,0,0,1,.24-.82,1.81,1.81,0,0,1,.7-.6,3.76,3.76,0,0,1,1.09-.38A8.06,8.06,0,0,1,446.8,303Zm0-5.87a4.57,4.57,0,0,0-1.92.33,1,1,0,0,0,0,1.89,5.75,5.75,0,0,0,3.84,0,1,1,0,0,0,0-1.89A4.6,4.6,0,0,0,446.81,297.15Zm0,6.63a4.7,4.7,0,0,0-1.88.31.94.94,0,0,0-.67.86.93.93,0,0,0,.67.85,4.72,4.72,0,0,0,1.88.3,4.67,4.67,0,0,0,1.87-.3c.45-.2.68-.48.68-.85a1,1,0,0,0-.68-.86A4.65,4.65,0,0,0,446.81,303.78Z"/>
  <path class="cls-2" d="M458.69,301.1c-.35.08-.69.14-1,.19s-.69.09-1.07.11-.77.05-1.2.06l-1.45,0h-.8v-4.67h4.5v.79h-3.57v3.08l1.37,0c.41,0,.79,0,1.15-.06s.69-.06,1-.1l1-.18Zm1,1.33h.93v4.26h-6.44v-4.26h.92v1.34h4.59Zm0,2.11h-4.59v1.34h4.59Zm2.44-5.1h-1.51v2.4h-.94V296.1h.94v2.54h1.51Z"/>
  <path class="cls-2" d="M257.55,301.34v.79h-9.23v-.79Zm-4.61-5a7.47,7.47,0,0,1,1.49.14,3.75,3.75,0,0,1,1.13.4,2.07,2.07,0,0,1,.72.65,1.6,1.6,0,0,1,0,1.72,2,2,0,0,1-.72.64,3.75,3.75,0,0,1-1.13.4,8,8,0,0,1-3,0,3.72,3.72,0,0,1-1.14-.4,1.93,1.93,0,0,1-.71-.64,1.55,1.55,0,0,1,0-1.72,2,2,0,0,1,.71-.65,3.72,3.72,0,0,1,1.14-.4A7.47,7.47,0,0,1,252.94,296.38Zm0,6.64a5.36,5.36,0,0,1,2.56.5,1.56,1.56,0,0,1,0,2.85,5.49,5.49,0,0,1-2.56.5,7.07,7.07,0,0,1-1.46-.13,3.84,3.84,0,0,1-1.1-.37,1.89,1.89,0,0,1-.69-.61,1.44,1.44,0,0,1-.24-.82,1.41,1.41,0,0,1,.24-.82,1.78,1.78,0,0,1,.69-.6,3.83,3.83,0,0,1,1.1-.38A7.9,7.9,0,0,1,252.94,303Zm0-5.87a4.6,4.6,0,0,0-1.92.33,1,1,0,0,0,0,1.89,5.75,5.75,0,0,0,3.84,0,1,1,0,0,0,0-1.89A4.6,4.6,0,0,0,252.94,297.15Zm0,6.63a4.74,4.74,0,0,0-1.88.31,1,1,0,0,0-.67.86.94.94,0,0,0,.67.85,6,6,0,0,0,3.76,0,.93.93,0,0,0,.67-.85.94.94,0,0,0-.67-.86A4.7,4.7,0,0,0,252.94,303.78Z"/>
  <path class="cls-2" d="M264.83,301.1c-.35.08-.7.14-1,.19s-.69.09-1.06.11-.78.05-1.21.06l-1.45,0h-.8v-4.67h4.51v.79h-3.57v3.08l1.37,0q.62,0,1.14-.06c.36,0,.69-.06,1-.1l1-.18Zm1,1.33h.92v4.26H260.3v-4.26h.92v1.34h4.6Zm0,2.11h-4.6v1.34h4.6Zm2.44-5.1h-1.52v2.4h-.93V296.1h.93v2.54h1.52Z"/>
  <path class="cls-2" d="M578.45,259.11v.8h-9.29v-.8h2.28V256.2a2.65,2.65,0,0,1-1-.92,2.4,2.4,0,0,1-.36-1.3,2.29,2.29,0,0,1,.28-1.14,2.45,2.45,0,0,1,.77-.87,3.69,3.69,0,0,1,1.18-.56,5.69,5.69,0,0,1,3,0,3.74,3.74,0,0,1,1.17.56,2.55,2.55,0,0,1,.77.87,2.4,2.4,0,0,1,.27,1.14,2.33,2.33,0,0,1-.35,1.29,2.59,2.59,0,0,1-1,.92v2.92ZM573.79,252a4.56,4.56,0,0,0-1.14.14,2.75,2.75,0,0,0-.88.41,1.86,1.86,0,0,0-.59.63,1.69,1.69,0,0,0,0,1.63,1.86,1.86,0,0,0,.59.63,3,3,0,0,0,.88.4,4.14,4.14,0,0,0,1.14.14,4,4,0,0,0,1.13-.14,3.1,3.1,0,0,0,.9-.4,1.83,1.83,0,0,0,.58-.63,1.62,1.62,0,0,0,0-1.63,1.83,1.83,0,0,0-.58-.63,2.87,2.87,0,0,0-.9-.41A4.43,4.43,0,0,0,573.79,252Zm-1.41,7.13h2.85v-2.55a5.57,5.57,0,0,1-1.44.17,5.29,5.29,0,0,1-1.41-.17Z"/>
  <path class="cls-2" d="M585.28,256.6a4.56,4.56,0,0,1-1.56-.86,4,4,0,0,1-1-1.37,4.25,4.25,0,0,1-1,1.54,4,4,0,0,1-1.57,1l-.46-.76a4.38,4.38,0,0,0,1-.54,3.66,3.66,0,0,0,.8-.77,3.22,3.22,0,0,0,.52-.94,3.13,3.13,0,0,0,.18-1.05v-.2h-2.27v-.8h2.27v-1.34h.94v1.34h2.25v.8h-2.25v.2a2.47,2.47,0,0,0,.19,1,3,3,0,0,0,.53.87,3.72,3.72,0,0,0,.81.7,4.23,4.23,0,0,0,1,.48Zm-.59.73a7.66,7.66,0,0,1,1.43.13,3.8,3.8,0,0,1,1.08.39,1.83,1.83,0,0,1,.67.62,1.47,1.47,0,0,1,.24.83,1.53,1.53,0,0,1-.24.84,1.75,1.75,0,0,1-.67.62,3.8,3.8,0,0,1-1.08.39,6.9,6.9,0,0,1-1.43.13,6.77,6.77,0,0,1-1.41-.13,3.73,3.73,0,0,1-1.07-.39,1.86,1.86,0,0,1-.68-.62,1.6,1.6,0,0,1-.23-.84,1.54,1.54,0,0,1,.23-.83,2,2,0,0,1,.68-.62,3.73,3.73,0,0,1,1.07-.39A7.52,7.52,0,0,1,584.69,257.33Zm0,3.18a4.17,4.17,0,0,0,1.83-.32,1,1,0,0,0,.65-.89,1,1,0,0,0-.65-.88,4.32,4.32,0,0,0-1.83-.32,4.19,4.19,0,0,0-1.81.32,1,1,0,0,0-.65.88,1,1,0,0,0,.65.89A4,4,0,0,0,584.7,260.51Zm2.44-6.91v-3.06h.93v6.52h-.93V254.4h-2v-.8Z"/>
  <path class="cls-2" d="M596.23,254a4.54,4.54,0,0,0,.2,1.32,5.76,5.76,0,0,0,.55,1.21,4.76,4.76,0,0,0,.83,1,4.32,4.32,0,0,0,1.05.71l-.52.75a4.46,4.46,0,0,1-1.55-1.25,5.73,5.73,0,0,1-1-1.89,6.11,6.11,0,0,1-1,2,4.64,4.64,0,0,1-1.54,1.34l-.53-.76a4.14,4.14,0,0,0,1-.76,5.33,5.33,0,0,0,.83-1.05,5.52,5.52,0,0,0,.54-1.27,4.92,4.92,0,0,0,.19-1.37v-.83H593v-.79h2.3v-1.67h.93v1.67h2.27v.79h-2.27Zm4.9-3.49v10.8h-.94v-5.67H598v-.8h2.21v-4.33Z"/>
  <path class="cls-2" d="M604.72,257.9l1.23,0,1.21-.06,1.23-.12c.42-.05.85-.12,1.3-.19l.09.8c-.47.08-.91.14-1.34.19s-.86.09-1.27.12l-1.26.06-1.28,0h-.85v-4.13h3.76v-2.24h-3.79v-.81h4.73v3.86h-3.76Zm6.86-7.38V261.3h-.94V250.52Z"/>
  <path class="cls-2" d="M578.45,132.26v.81h-9.29v-.81h4.17V130h-3v-5.52h6.92v.81h-6v1.51h5.76v.77h-5.76v1.63h6.1v.8h-3.12v2.23Z"/>
  <path class="cls-2" d="M588.94,128.94v.8h-9.29v-.8h6.86c.07-.34.12-.67.16-1s.07-.6.09-.88l-6,.29-.13-.8,6.22-.22c0-.22,0-.44,0-.64V125h-6v-.79h6.91v.93q0,.77,0,1.68a16,16,0,0,1-.25,2.12Zm-7.18,4.42H588v.8h-7.13V130.8h.94Z"/>
  <path class="cls-2" d="M597.32,129.44a3.57,3.57,0,0,1-1.23-.85,3.86,3.86,0,0,1-.79-1.23,4.61,4.61,0,0,1-.8,1.39,3.57,3.57,0,0,1-1.29,1l-.5-.76a3.29,3.29,0,0,0,.9-.6,3.85,3.85,0,0,0,.66-.8,3.39,3.39,0,0,0,.43-.9,3.32,3.32,0,0,0,.14-.92v-1.45h.9v1.45a2.67,2.67,0,0,0,.15.88,3.26,3.26,0,0,0,1.93,2Zm.64,1.08a6.9,6.9,0,0,1,1.42.14,3.63,3.63,0,0,1,1.07.37,2,2,0,0,1,.69.61,1.5,1.5,0,0,1,0,1.63,2,2,0,0,1-.69.61,3.93,3.93,0,0,1-1.07.38,7.72,7.72,0,0,1-1.42.13,7.55,7.55,0,0,1-1.42-.13,3.81,3.81,0,0,1-1.07-.38,1.93,1.93,0,0,1-.68-.61,1.5,1.5,0,0,1,0-1.63,1.93,1.93,0,0,1,.68-.61,3.53,3.53,0,0,1,1.07-.37A6.76,6.76,0,0,1,598,130.52Zm0,3.1a4.52,4.52,0,0,0,1.83-.3,1,1,0,0,0,.66-.87.94.94,0,0,0-.66-.86,5.7,5.7,0,0,0-3.65,0,.94.94,0,0,0-.67.86,1,1,0,0,0,.67.87A4.5,4.5,0,0,0,598,133.62Zm1.17-3.68h-.89v-6.09h.89v2.68h1.3v-2.88h.9v6.63h-.9v-3h-1.3Z"/>
  <path class="cls-2" d="M608.68,129.5a4.38,4.38,0,0,1-1.47-.95,4.1,4.1,0,0,1-1-1.46,4.64,4.64,0,0,1-1,1.66,4.58,4.58,0,0,1-1.59,1.08l-.49-.81a4.09,4.09,0,0,0,1.07-.58,3.87,3.87,0,0,0,.81-.86,3.68,3.68,0,0,0,.52-1,3.89,3.89,0,0,0,.19-1.18v-1.1h.93v1.07a3.38,3.38,0,0,0,.18,1.1,3.19,3.19,0,0,0,.5,1,3.44,3.44,0,0,0,.78.79,3.89,3.89,0,0,0,1,.56Zm-.45.83a7.36,7.36,0,0,1,1.41.13,3.36,3.36,0,0,1,1.07.4,1.91,1.91,0,0,1,.68.64,1.72,1.72,0,0,1,0,1.72,1.81,1.81,0,0,1-.68.63,3.36,3.36,0,0,1-1.07.4,6.6,6.6,0,0,1-1.41.14,6.73,6.73,0,0,1-1.41-.14,3.27,3.27,0,0,1-1.07-.4,1.89,1.89,0,0,1-.68-.63,1.66,1.66,0,0,1,0-1.72,2,2,0,0,1,.68-.64,3.27,3.27,0,0,1,1.07-.4A7.52,7.52,0,0,1,608.23,130.33Zm0,3.29a4.14,4.14,0,0,0,1.82-.33,1,1,0,0,0,0-1.86,5.18,5.18,0,0,0-3.64,0,1,1,0,0,0,0,1.86A4.11,4.11,0,0,0,608.24,133.62Zm2.43-6.89h-2.23v-.8h2.23v-2.28h.93V130h-.93Z"/>
  <path class="cls-2" d="M569.38,141.48a3.19,3.19,0,0,1,.32-1.07,2.59,2.59,0,0,1,.59-.78,2.4,2.4,0,0,1,.83-.49,3,3,0,0,1,1-.17,2.87,2.87,0,0,1,1,.17,2.36,2.36,0,0,1,.78.47,2.29,2.29,0,0,1,.52.71,2.34,2.34,0,0,1,.18.93,3,3,0,0,1-.1.76,1.77,1.77,0,0,1-.3.58,2.11,2.11,0,0,1-.47.42,2.78,2.78,0,0,1-.6.29,2.25,2.25,0,0,1,1.24.77,2.14,2.14,0,0,1,.42,1.36,2.59,2.59,0,0,1-.22,1.09,2.33,2.33,0,0,1-.61.83,2.71,2.71,0,0,1-.9.53,3,3,0,0,1-1.1.19,3.25,3.25,0,0,1-1.14-.18,2.39,2.39,0,0,1-.8-.49,2.46,2.46,0,0,1-.55-.72,5.87,5.87,0,0,1-.36-.92l.94-.4a2.85,2.85,0,0,0,.17.54,2.6,2.6,0,0,0,.41.64,1.87,1.87,0,0,0,.54.44,1.75,1.75,0,0,0,.78.15,1.87,1.87,0,0,0,.78-.15,1.82,1.82,0,0,0,.56-.4,1.69,1.69,0,0,0,.33-.53,1.71,1.71,0,0,0,.11-.59,2.29,2.29,0,0,0-.09-.66,1.11,1.11,0,0,0-.33-.52,1.58,1.58,0,0,0-.66-.35,4.05,4.05,0,0,0-1.09-.12V143a3.41,3.41,0,0,0,.93-.13,1.7,1.7,0,0,0,.63-.32,1.31,1.31,0,0,0,.34-.5,1.87,1.87,0,0,0,.1-.64,1.9,1.9,0,0,0-.11-.66,1.11,1.11,0,0,0-.31-.47,1.29,1.29,0,0,0-.47-.27,1.72,1.72,0,0,0-.6-.1,1.82,1.82,0,0,0-.59.1,1.64,1.64,0,0,0-.48.28,1.53,1.53,0,0,0-.35.41,1.86,1.86,0,0,0-.19.53,2.38,2.38,0,0,0-.05.41Z"/>
  <path class="cls-2" d="M581.86,143.53a7.53,7.53,0,0,1-.24,2A4.56,4.56,0,0,1,581,147a2.71,2.71,0,0,1-1,.83,2.78,2.78,0,0,1-1.21.27,2.72,2.72,0,0,1-1.21-.27,2.66,2.66,0,0,1-1-.83,4.14,4.14,0,0,1-.65-1.42,9.07,9.07,0,0,1,0-4.06,4.06,4.06,0,0,1,.65-1.42,2.6,2.6,0,0,1,1-.84,2.72,2.72,0,0,1,1.21-.27,2.78,2.78,0,0,1,1.21.27,2.65,2.65,0,0,1,1,.84,4.45,4.45,0,0,1,.65,1.42A7.59,7.59,0,0,1,581.86,143.53Zm-1.06,0a7.75,7.75,0,0,0-.17-1.74,3.41,3.41,0,0,0-.44-1.13,1.75,1.75,0,0,0-.64-.61,1.62,1.62,0,0,0-.77-.19,1.59,1.59,0,0,0-.76.19,1.61,1.61,0,0,0-.64.61,3.65,3.65,0,0,0-.44,1.13,7.75,7.75,0,0,0-.17,1.74,7.62,7.62,0,0,0,.17,1.72,3.82,3.82,0,0,0,.44,1.14,1.64,1.64,0,0,0,.64.62,1.7,1.7,0,0,0,.76.18,1.74,1.74,0,0,0,.77-.18,1.79,1.79,0,0,0,.64-.62,3.57,3.57,0,0,0,.44-1.14A7.62,7.62,0,0,0,580.8,143.53Z"/>
  <path class="cls-2" d="M592,143.72v.8h-4.11v2.08H587v-2.08h-4.25v-.8Zm-7.18,4H591v.8h-7.07v-2.93h.93Zm5.95-5.08H584v-4.31h.92v1.37h5v-1.37h.93Zm-.93-2.17h-5v1.4h5Z"/>
  <path class="cls-2" d="M605.05,145h-2.42v3.83h-.93V145h-2.58v3.83h-.94V145H595.8v-.8h9.25Zm-4.64-1.81A5.91,5.91,0,0,1,599,143a3.77,3.77,0,0,1-1.13-.47,2.15,2.15,0,0,1-.73-.74,1.84,1.84,0,0,1-.26-1,1.76,1.76,0,0,1,.26-1,2.15,2.15,0,0,1,.73-.74,3.53,3.53,0,0,1,1.13-.47,5.91,5.91,0,0,1,1.45-.16,6,6,0,0,1,1.46.16,3.59,3.59,0,0,1,1.14.47,2.34,2.34,0,0,1,.73.74,1.85,1.85,0,0,1,.26,1,1.94,1.94,0,0,1-.26,1,2.34,2.34,0,0,1-.73.74,3.83,3.83,0,0,1-1.14.47A6,6,0,0,1,600.41,143.16Zm0-3.9a5,5,0,0,0-1.06.11,2.74,2.74,0,0,0-.82.31,1.58,1.58,0,0,0-.53.49,1.07,1.07,0,0,0-.19.64,1.15,1.15,0,0,0,.19.65,1.58,1.58,0,0,0,.53.49,3,3,0,0,0,.82.31,5,5,0,0,0,1.06.11,5.1,5.1,0,0,0,1.07-.11,3,3,0,0,0,.83-.31,1.58,1.58,0,0,0,.53-.49,1.15,1.15,0,0,0,.19-.65,1.07,1.07,0,0,0-.19-.64,1.58,1.58,0,0,0-.53-.49,2.71,2.71,0,0,0-.83-.31A5.1,5.1,0,0,0,600.41,139.26Z"/>
  <path class="cls-2" d="M615.56,146.76v.8h-9.27v-.8h2.44v-2a2.14,2.14,0,0,1-.87-.66,1.7,1.7,0,0,1-.07-1.82,2,2,0,0,1,.66-.64,3.66,3.66,0,0,1,1.06-.39,7.49,7.49,0,0,1,1.4-.13,7.19,7.19,0,0,1,1.38.13,3.59,3.59,0,0,1,1.05.39,2,2,0,0,1,.66.64,1.73,1.73,0,0,1-.06,1.82,2.17,2.17,0,0,1-.86.66v2Zm-.52-6.34h-8.29v-.8h3.7V138.2h.94v1.42H615Zm-4.13,1.48a4,4,0,0,0-1.78.33,1,1,0,0,0-.64.92,1,1,0,0,0,.64.9,4,4,0,0,0,1.78.33,3.87,3.87,0,0,0,1.75-.33,1,1,0,0,0,.64-.9,1,1,0,0,0-.64-.92A3.87,3.87,0,0,0,610.91,141.9Zm-1.26,4.86h2.51V145a5.83,5.83,0,0,1-1.24.11,6.13,6.13,0,0,1-1.27-.11Z"/>
  <line class="cls-3" x1="532.57" y1="167.32" x2="352.55" y2="167.32"/>
  <line class="cls-3" x1="532.57" y1="107.03" x2="352.55" y2="107.03"/>
  <line class="cls-3" x1="348.22" y1="107.03" x2="168.19" y2="107.03"/>
  <path class="cls-3" d="M532.07,107a30,30,0,0,1,0,60"/>
  <line class="cls-3" x1="532.57" y1="287.37" x2="352.55" y2="287.37"/>
  <line class="cls-3" x1="348.22" y1="287.37" x2="168.19" y2="287.37"/>
  <line class="cls-3" x1="532.57" y1="227.32" x2="352.55" y2="227.32"/>
  <path class="cls-3" d="M532.07,227.32a30,30,0,0,1,0,60"/>
  <polygon class="cls-4" points="525.98 114.23 525.98 99.83 537.98 107.03 525.98 114.23"/>
  <polygon class="cls-4" points="525.98 234.52 525.98 220.12 537.98 227.32 525.98 234.52"/>
  <polygon class="cls-4" points="537.98 160.12 537.98 174.52 525.98 167.32 537.98 160.12"/>
  <polygon class="cls-5" points="344.94 234.52 344.94 220.12 356.94 227.32 344.94 234.52"/>
  <polygon class="cls-4" points="537.98 280.17 537.98 294.57 525.98 287.37 537.98 280.17"/>
  <polygon class="cls-5" points="356.94 280.17 356.94 294.57 344.94 287.37 356.94 280.17"/>
  <polygon class="cls-5" points="344.94 114.23 344.94 99.83 356.94 107.03 344.94 114.23"/>
  <polygon class="cls-6" points="176.36 280.17 176.36 294.57 164.36 287.37 176.36 280.17"/>
  <polygon class="cls-6" points="164.36 114.23 164.36 99.83 176.36 107.03 164.36 114.23"/>
  <path class="cls-6" d="M288.69,175.48l.34.94c1.22-.43,2.49-.86,3.78-1.26l-.3-1C291.2,174.61,289.92,175,288.69,175.48Z"/>
  <path class="cls-6" d="M281.25,178.53l.42.9c1.16-.54,2.38-1.07,3.64-1.59l-.37-.92C283.66,177.44,282.42,178,281.25,178.53Z"/>
  <path class="cls-6" d="M296.36,173.06l.27,1c1.25-.35,2.54-.69,3.85-1l-.24-1C298.92,172.36,297.62,172.7,296.36,173.06Z"/>
  <path class="cls-6" d="M280.29,215.66c1.17.57,2.4,1.13,3.67,1.66l.39-.92c-1.26-.53-2.47-1.08-3.62-1.64Z"/>
  <path class="cls-6" d="M274.18,182.42l.55.84c1-.69,2.2-1.38,3.4-2l-.48-.87C276.42,181,275.26,181.72,274.18,182.42Z"/>
  <path class="cls-6" d="M264,194.72l1,.22a12.93,12.93,0,0,1,1.42-3.55l-.87-.5A13.85,13.85,0,0,0,264,194.72Z"/>
  <path class="cls-6" d="M268,205.59l-.77.64a25.75,25.75,0,0,0,2.84,2.91l.66-.75A23.06,23.06,0,0,1,268,205.59Z"/>
  <path class="cls-6" d="M268,187.6l.74.68a25.53,25.53,0,0,1,2.85-2.69l-.64-.78A28.4,28.4,0,0,0,268,187.6Z"/>
  <path class="cls-6" d="M273.3,211.62c1.06.73,2.21,1.46,3.43,2.16l.49-.87c-1.19-.69-2.32-1.39-3.35-2.11Z"/>
  <path class="cls-6" d="M263.8,198.85a13,13,0,0,0,1.22,3.94l.9-.43a12,12,0,0,1-1.13-3.64Z"/>
  <path class="cls-6" d="M336,167.08l.05,1,4-.16,0-1C338.61,167,337.28,167,336,167.08Z"/>
  <path class="cls-6" d="M328,167.61l.08,1c1.32-.11,2.65-.21,4-.3l-.06-1C330.6,167.4,329.27,167.5,328,167.61Z"/>
  <path class="cls-6" d="M344,166.84v1l2.95,0v-1Z"/>
  <path class="cls-6" d="M304.15,171.13l.21,1c1.29-.28,2.59-.54,3.91-.8l-.19-1Q306.09,170.7,304.15,171.13Z"/>
  <path class="cls-6" d="M320,168.45l.13,1c1.3-.16,2.62-.32,4-.46l-.1-1C322.61,168.13,321.29,168.28,320,168.45Z"/>
  <path class="cls-6" d="M312,169.61l.17,1c1.29-.22,2.61-.42,3.94-.62l-.14-1C314.66,169.18,313.34,169.39,312,169.61Z"/>
  <polygon class="cls-5" points="356.94 160.12 356.94 174.52 344.94 167.32 356.94 160.12"/>
</svg>